<?xml version="1.0" encoding="utf-8"?>
<svg version="1.0" width="1024px" height="512px" id="svg7107" xmlns="http://www.w3.org/2000/svg" xmlns:xlink="http://www.w3.org/1999/xlink" xmlns:bx="https://boxy-svg.com">
  <defs id="defs3">
    <polygon points="0,-1 0.58778525,0.80901699 -0.95105652,-0.30901699 0.95105652,-0.30901699 -0.58778525,0.80901699 0,-1 " transform="scale(53,53)" id="polygon9535"/>
    <polygon points="0,-1 0.58778525,0.80901699 -0.95105652,-0.30901699 0.95105652,-0.30901699 -0.58778525,0.80901699 0,-1 " transform="scale(53,53)" id="star"/>
    <polygon points="0,-1 0.58778525,0.80901699 -0.95105652,-0.30901699 0.95105652,-0.30901699 -0.58778525,0.80901699 0,-1 " transform="scale(53,53)" id="polygon2895"/>
    <polygon points="0,-1 0.58778525,0.80901699 -0.95105652,-0.30901699 0.95105652,-0.30901699 -0.58778525,0.80901699 0,-1 " transform="scale(53,53)" id="polygon2869"/>
    <polygon points="0,-1 0.58778525,0.80901699 -0.95105652,-0.30901699 0.95105652,-0.30901699 -0.58778525,0.80901699 0,-1 " transform="scale(53,53)" id="polygon5833"/>
    <polygon points="0,-1 0.58778525,0.80901699 -0.95105652,-0.30901699 0.95105652,-0.30901699 -0.58778525,0.80901699 0,-1 " transform="scale(53,53)" id="polygon5665"/>
    <polygon points="0,-1 0.58778525,0.80901699 -0.95105652,-0.30901699 0.95105652,-0.30901699 -0.58778525,0.80901699 0,-1 " transform="scale(53,53)" id="polygon3554"/>
    <polygon points="0,-1 0.58778525,0.80901699 -0.95105652,-0.30901699 0.95105652,-0.30901699 -0.58778525,0.80901699 0,-1 " transform="scale(53,53)" id="polygon3528"/>
    <polygon points="0,-1 0.58778525,0.80901699 -0.95105652,-0.30901699 0.95105652,-0.30901699 -0.58778525,0.80901699 0,-1 " transform="scale(53,53)" id="polygon4014"/>
    <polygon points="0,-1 0.58778525,0.80901699 -0.95105652,-0.30901699 0.95105652,-0.30901699 -0.58778525,0.80901699 0,-1 " transform="scale(53,53)" id="polygon4673"/>
    <polygon points="0,-1 0.58778525,0.80901699 -0.95105652,-0.30901699 0.95105652,-0.30901699 -0.58778525,0.80901699 0,-1 " transform="scale(53,53)" id="polygon4633"/>
    <polygon points="0,-1 0.58778525,0.80901699 -0.95105652,-0.30901699 0.95105652,-0.30901699 -0.58778525,0.80901699 0,-1 " transform="scale(53,53)" id="polygon4493"/>
    <polygon points="0,-1 0.58778525,0.80901699 -0.95105652,-0.30901699 0.95105652,-0.30901699 -0.58778525,0.80901699 0,-1 " transform="scale(53,53)" id="polygon4467"/>
    <polygon points="0,-1 0.58778525,0.80901699 -0.95105652,-0.30901699 0.95105652,-0.30901699 -0.58778525,0.80901699 0,-1 " transform="scale(53,53)" id="polygon8459"/>
    <polygon points="0,-1 0.58778525,0.80901699 -0.95105652,-0.30901699 0.95105652,-0.30901699 -0.58778525,0.80901699 0,-1 " transform="scale(53,53)" id="polygon8433"/>
    <polygon points="0,-1 0.58778525,0.80901699 -0.95105652,-0.30901699 0.95105652,-0.30901699 -0.58778525,0.80901699 0,-1 " transform="scale(53,53)" id="polygon8293"/>
    <polygon points="0,-1 0.58778525,0.80901699 -0.95105652,-0.30901699 0.95105652,-0.30901699 -0.58778525,0.80901699 0,-1 " transform="scale(53,53)" id="polygon8253"/>
    <polygon points="0,-1 0.58778525,0.80901699 -0.95105652,-0.30901699 0.95105652,-0.30901699 -0.58778525,0.80901699 0,-1 " transform="scale(53,53)" id="polygon8195"/>
    <polygon points="0,-1 0.58778525,0.80901699 -0.95105652,-0.30901699 0.95105652,-0.30901699 -0.58778525,0.80901699 0,-1 " transform="scale(53,53)" id="polygon8155"/>
    <polygon points="0,-1 0.58778525,0.80901699 -0.95105652,-0.30901699 0.95105652,-0.30901699 -0.58778525,0.80901699 0,-1 " transform="scale(53,53)" id="polygon8129"/>
    <polygon points="0,-1 0.58778525,0.80901699 -0.95105652,-0.30901699 0.95105652,-0.30901699 -0.58778525,0.80901699 0,-1 " transform="scale(53,53)" id="polygon7989"/>
    <polygon points="0,-1 0.58778525,0.80901699 -0.95105652,-0.30901699 0.95105652,-0.30901699 -0.58778525,0.80901699 0,-1 " transform="scale(53,53)" id="polygon7949"/>
    <polygon points="0,-1 0.58778525,0.80901699 -0.95105652,-0.30901699 0.95105652,-0.30901699 -0.58778525,0.80901699 0,-1 " transform="scale(53,53)" id="polygon7891"/>
    <polygon points="0,-1 0.58778525,0.80901699 -0.95105652,-0.30901699 0.95105652,-0.30901699 -0.58778525,0.80901699 0,-1 " transform="scale(53,53)" id="polygon7865"/>
    <polygon points="0,-1 0.58778525,0.80901699 -0.95105652,-0.30901699 0.95105652,-0.30901699 -0.58778525,0.80901699 0,-1 " transform="scale(53,53)" id="polygon7753"/>
    <polygon points="0,-1 0.58778525,0.80901699 -0.95105652,-0.30901699 0.95105652,-0.30901699 -0.58778525,0.80901699 0,-1 " transform="scale(53,53)" id="polygon7727"/>
    <polygon points="0,-1 0.58778525,0.80901699 -0.95105652,-0.30901699 0.95105652,-0.30901699 -0.58778525,0.80901699 0,-1 " transform="scale(53,53)" id="polygon59702"/>
    <polygon points="0,-1 0.58778525,0.80901699 -0.95105652,-0.30901699 0.95105652,-0.30901699 -0.58778525,0.80901699 0,-1 " transform="scale(53,53)" id="polygon6387"/>
    <polygon points="0,-1 0.58778525,0.80901699 -0.95105652,-0.30901699 0.95105652,-0.30901699 -0.58778525,0.80901699 0,-1 " transform="scale(53,53)" id="polygon6445"/>
    <polygon points="0,-1 0.58778525,0.80901699 -0.95105652,-0.30901699 0.95105652,-0.30901699 -0.58778525,0.80901699 0,-1 " transform="scale(53,53)" id="polygon7627"/>
    <polygon points="0,-1 0.58778525,0.80901699 -0.95105652,-0.30901699 0.95105652,-0.30901699 -0.58778525,0.80901699 0,-1 " transform="scale(53,53)" id="polygon23593"/>
    <polygon points="0,-1 0.58778525,0.80901699 -0.95105652,-0.30901699 0.95105652,-0.30901699 -0.58778525,0.80901699 0,-1 " transform="scale(53,53)" id="polygon23535"/>
    <polygon points="0,-1 0.58778525,0.80901699 -0.95105652,-0.30901699 0.95105652,-0.30901699 -0.58778525,0.80901699 0,-1 " transform="scale(53,53)" id="polygon23513"/>
    <polygon points="0,-1 0.58778525,0.80901699 -0.95105652,-0.30901699 0.95105652,-0.30901699 -0.58778525,0.80901699 0,-1 " transform="scale(53,53)" id="polygon26392"/>
    <polygon points="0,-1 0.58778525,0.80901699 -0.95105652,-0.30901699 0.95105652,-0.30901699 -0.58778525,0.80901699 0,-1 " transform="scale(53,53)" id="polygon10133"/>
    <polygon points="0,-1 0.58778525,0.80901699 -0.95105652,-0.30901699 0.95105652,-0.30901699 -0.58778525,0.80901699 0,-1 " transform="scale(53,53)" id="polygon11842"/>
    <polygon points="0,-1 0.58778525,0.80901699 -0.95105652,-0.30901699 0.95105652,-0.30901699 -0.58778525,0.80901699 0,-1 " transform="scale(53,53)" id="polygon11640"/>
    <polygon points="0,-1 0.58778525,0.80901699 -0.95105652,-0.30901699 0.95105652,-0.30901699 -0.58778525,0.80901699 0,-1 " transform="scale(53,53)" id="polygon53522"/>
    <polygon points="0,-1 0.58778525,0.80901699 -0.95105652,-0.30901699 0.95105652,-0.30901699 -0.58778525,0.80901699 0,-1 " transform="scale(53,53)" id="polygon13405"/>
    <polygon points="0,-1 0.58778525,0.80901699 -0.95105652,-0.30901699 0.95105652,-0.30901699 -0.58778525,0.80901699 0,-1 " transform="scale(53,53)" id="polygon17969"/>
    <polygon points="0,-1 0.58778525,0.80901699 -0.95105652,-0.30901699 0.95105652,-0.30901699 -0.58778525,0.80901699 0,-1 " transform="scale(53,53)" id="polygon68220"/>
    <polygon points="0,-1 0.58778525,0.80901699 -0.95105652,-0.30901699 0.95105652,-0.30901699 -0.58778525,0.80901699 0,-1 " transform="scale(53,53)" id="polygon68195"/>
    <polygon id="polygon5678" transform="scale(53,53)" points="0,-1 0.58778525,0.80901699 -0.95105652,-0.30901699 0.95105652,-0.30901699 -0.58778525,0.80901699 0,-1 "/>
    <polygon id="polygon5652" transform="scale(53,53)" points="0,-1 0.58778525,0.80901699 -0.95105652,-0.30901699 0.95105652,-0.30901699 -0.58778525,0.80901699 0,-1 "/>
    <polygon id="polygon5511" transform="scale(53,53)" points="0,-1 0.58778525,0.80901699 -0.95105652,-0.30901699 0.95105652,-0.30901699 -0.58778525,0.80901699 0,-1 "/>
    <polygon id="polygon5471" transform="scale(53,53)" points="0,-1 0.58778525,0.80901699 -0.95105652,-0.30901699 0.95105652,-0.30901699 -0.58778525,0.80901699 0,-1 "/>
    <polygon id="polygon5413" transform="scale(53,53)" points="0,-1 0.58778525,0.80901699 -0.95105652,-0.30901699 0.95105652,-0.30901699 -0.58778525,0.80901699 0,-1 "/>
    <polygon id="polygon5372" transform="scale(53,53)" points="0,-1 0.58778525,0.80901699 -0.95105652,-0.30901699 0.95105652,-0.30901699 -0.58778525,0.80901699 0,-1 "/>
    <polygon id="polygon5346" transform="scale(53,53)" points="0,-1 0.58778525,0.80901699 -0.95105652,-0.30901699 0.95105652,-0.30901699 -0.58778525,0.80901699 0,-1 "/>
    <polygon id="polygon5206" transform="scale(53,53)" points="0,-1 0.58778525,0.80901699 -0.95105652,-0.30901699 0.95105652,-0.30901699 -0.58778525,0.80901699 0,-1 "/>
    <polygon id="polygon5165" transform="scale(53,53)" points="0,-1 0.58778525,0.80901699 -0.95105652,-0.30901699 0.95105652,-0.30901699 -0.58778525,0.80901699 0,-1 "/>
    <polygon id="polygon5107" transform="scale(53,53)" points="0,-1 0.58778525,0.80901699 -0.95105652,-0.30901699 0.95105652,-0.30901699 -0.58778525,0.80901699 0,-1 "/>
    <polygon id="polygon5081" transform="scale(53,53)" points="0,-1 0.58778525,0.80901699 -0.95105652,-0.30901699 0.95105652,-0.30901699 -0.58778525,0.80901699 0,-1 "/>
    <polygon id="polygon4970" transform="scale(53,53)" points="0,-1 0.58778525,0.80901699 -0.95105652,-0.30901699 0.95105652,-0.30901699 -0.58778525,0.80901699 0,-1 "/>
    <polygon id="polygon4944" transform="scale(53,53)" points="0,-1 0.58778525,0.80901699 -0.95105652,-0.30901699 0.95105652,-0.30901699 -0.58778525,0.80901699 0,-1 "/>
    <polygon id="polygon6050" transform="scale(53,53)" points="0,-1 0.58778525,0.80901699 -0.95105652,-0.30901699 0.95105652,-0.30901699 -0.58778525,0.80901699 0,-1 "/>
    <polygon id="polygon6024" transform="scale(53,53)" points="0,-1 0.58778525,0.80901699 -0.95105652,-0.30901699 0.95105652,-0.30901699 -0.58778525,0.80901699 0,-1 "/>
    <polygon id="polygon5884" transform="scale(53,53)" points="0,-1 0.58778525,0.80901699 -0.95105652,-0.30901699 0.95105652,-0.30901699 -0.58778525,0.80901699 0,-1 "/>
    <polygon id="polygon5844" transform="scale(53,53)" points="0,-1 0.58778525,0.80901699 -0.95105652,-0.30901699 0.95105652,-0.30901699 -0.58778525,0.80901699 0,-1 "/>
    <polygon id="polygon5785" transform="scale(53,53)" points="0,-1 0.58778525,0.80901699 -0.95105652,-0.30901699 0.95105652,-0.30901699 -0.58778525,0.80901699 0,-1 "/>
    <polygon id="polygon5745" transform="scale(53,53)" points="0,-1 0.58778525,0.80901699 -0.95105652,-0.30901699 0.95105652,-0.30901699 -0.58778525,0.80901699 0,-1 "/>
    <polygon id="polygon5719" transform="scale(53,53)" points="0,-1 0.58778525,0.80901699 -0.95105652,-0.30901699 0.95105652,-0.30901699 -0.58778525,0.80901699 0,-1 "/>
    <polygon id="polygon5576" transform="scale(53,53)" points="0,-1 0.58778525,0.80901699 -0.95105652,-0.30901699 0.95105652,-0.30901699 -0.58778525,0.80901699 0,-1 "/>
    <polygon id="polygon5536" transform="scale(53,53)" points="0,-1 0.58778525,0.80901699 -0.95105652,-0.30901699 0.95105652,-0.30901699 -0.58778525,0.80901699 0,-1 "/>
    <polygon id="polygon5478" transform="scale(53,53)" points="0,-1 0.58778525,0.80901699 -0.95105652,-0.30901699 0.95105652,-0.30901699 -0.58778525,0.80901699 0,-1 "/>
    <polygon id="polygon5452" transform="scale(53,53)" points="0,-1 0.58778525,0.80901699 -0.95105652,-0.30901699 0.95105652,-0.30901699 -0.58778525,0.80901699 0,-1 "/>
    <polygon id="polygon5339" transform="scale(53,53)" points="0,-1 0.58778525,0.80901699 -0.95105652,-0.30901699 0.95105652,-0.30901699 -0.58778525,0.80901699 0,-1 "/>
    <polygon id="polygon5313" transform="scale(53,53)" points="0,-1 0.58778525,0.80901699 -0.95105652,-0.30901699 0.95105652,-0.30901699 -0.58778525,0.80901699 0,-1 "/>
    <symbol id="symbol-3" viewBox="0 0 60.0251 88.6311">
      <title>Leaf Cluster</title>
      <path d="M 28.301 2.144 L 32.031 2.144 C 31.376 3.26 30.987 4.544 30.901 5.874 L 30.221 61.994 L 30.121 61.994 L 29.381 5.804 C 29.319 4.499 28.946 3.236 28.301 2.144 Z" class="st1" style="fill: rgb(0, 102, 0); stroke: rgb(0, 0, 0); stroke-linecap: round; stroke-linejoin: round; stroke-width: 1.5px;"/>
      <path d="M 14.917 68.99 C 21.603 62.565 22.424 52.153 16.827 44.76 C 16.059 43.821 15.416 42.786 14.917 41.68 L 14.917 68.99 Z" class="st1" style="fill: rgb(0, 102, 0); stroke: rgb(0, 0, 0); stroke-linecap: round; stroke-linejoin: round; stroke-width: 1.5px;" transform="matrix(-0.638768, -0.7694, 0.7694, -0.638768, -13.525968, 104.319571)"/>
      <path d="M 18.484 45.975 C 25.17 52.4 25.991 62.812 20.394 70.205 C 19.625 71.144 18.983 72.179 18.484 73.285 L 18.484 45.975 Z" class="st1" style="fill: rgb(0, 102, 0); stroke: rgb(0, 0, 0); stroke-linecap: round; stroke-linejoin: round; stroke-width: 1.5px;" transform="matrix(0.638768, 0.7694, -0.7694, 0.638768, 53.571012, 5.157472)"/>
      <path d="M 13.996 52.832 C 20.682 46.407 21.503 35.995 15.906 28.602 C 15.137 27.663 14.495 26.628 13.996 25.522 L 13.996 52.832 Z" class="st1" style="fill: rgb(0, 102, 0); stroke: rgb(0, 0, 0); stroke-linecap: round; stroke-linejoin: round; stroke-width: 1.5px;" transform="matrix(-0.5, -0.866025, 0.866025, -0.5, -8.720804, 73.319042)"/>
      <path d="M 16.788 30.357 C 23.474 36.782 24.295 47.194 18.698 54.587 C 17.929 55.526 17.287 56.561 16.788 57.667 L 16.788 30.357 Z" class="st1" style="fill: rgb(0, 102, 0); stroke: rgb(0, 0, 0); stroke-linecap: round; stroke-linejoin: round; stroke-width: 1.5px;" transform="matrix(0.5, 0.866025, -0.866025, 0.5, 47.913993, 5.034515)"/>
      <path d="M 14.063 37.1 C 20.749 30.675 21.57 20.264 15.973 12.87 C 15.205 11.932 14.562 10.896 14.063 9.79 L 14.063 37.1 Z" class="st1" style="fill: rgb(0, 102, 0); stroke: rgb(0, 0, 0); stroke-linecap: round; stroke-linejoin: round; stroke-width: 1.5px;" transform="matrix(-0.5, -0.866025, 0.866025, -0.5, 5.004006, 49.779061)"/>
      <path d="M 16.855 14.626 C 23.541 21.051 24.362 31.462 18.765 38.856 C 17.996 39.794 17.354 40.83 16.855 41.936 L 16.855 14.626 Z" class="st1" style="fill: rgb(0, 102, 0); stroke: rgb(0, 0, 0); stroke-linecap: round; stroke-linejoin: round; stroke-width: 1.5px;" transform="matrix(0.5, 0.866025, -0.866025, 0.5, 34.324049, -2.889006)"/>
      <path d="M 30.15 59.177 C 36.836 65.602 37.657 76.014 32.06 83.407 C 31.291 84.346 30.649 85.381 30.15 86.487 L 30.15 59.177 Z" class="st1" style="fill: rgb(0, 102, 0); stroke: rgb(0, 0, 0); stroke-linecap: round; stroke-linejoin: round; stroke-width: 1.5px;"/>
      <path d="M 24.566 86.487 C 31.253 80.062 32.073 69.65 26.476 62.257 C 25.708 61.318 25.066 60.283 24.566 59.177 L 24.566 86.487 Z" class="st1" style="fill: rgb(0, 102, 0); stroke: rgb(0, 0, 0); stroke-linecap: round; stroke-linejoin: round; stroke-width: 1.5px;" transform="matrix(-1, 0, 0, -1, 54.750286, 145.663998)"/>
      <path d="M 39.491 41.514 C 46.177 47.939 46.998 58.351 41.401 65.744 C 40.632 66.683 39.99 67.718 39.491 68.824 L 39.491 41.514 Z" class="st1" style="fill: rgb(0, 102, 0); stroke: rgb(0, 0, 0); stroke-linecap: round; stroke-linejoin: round; stroke-width: 1.5px;" transform="matrix(0.638768, -0.7694, 0.7694, 0.638768, -27.16689, 52.474411)"/>
      <path d="M 35.925 73.119 C 42.611 66.694 43.432 56.283 37.835 48.889 C 37.066 47.951 36.424 46.915 35.925 45.809 L 35.925 73.119 Z" class="st1" style="fill: rgb(0, 102, 0); stroke: rgb(0, 0, 0); stroke-linecap: round; stroke-linejoin: round; stroke-width: 1.5px;" transform="matrix(-0.638768, 0.7694, -0.7694, -0.638768, 109.227571, 67.645777)"/>
      <path d="M 40.412 25.356 C 47.098 31.781 47.919 42.193 42.322 49.586 C 41.553 50.525 40.911 51.56 40.412 52.666 L 40.412 25.356 Z" class="st1" style="fill: rgb(0, 102, 0); stroke: rgb(0, 0, 0); stroke-linecap: round; stroke-linejoin: round; stroke-width: 1.5px;" transform="matrix(0.5, -0.866025, 0.866025, 0.5, -12.174032, 56.935955)"/>
      <path d="M 37.621 57.501 C 44.307 51.076 45.128 40.665 39.531 33.271 C 38.762 32.333 38.12 31.297 37.621 30.191 L 37.621 57.501 Z" class="st1" style="fill: rgb(0, 102, 0); stroke: rgb(0, 0, 0); stroke-linecap: round; stroke-linejoin: round; stroke-width: 1.5px;" transform="matrix(-0.5, 0.866025, -0.866025, -0.5, 98.616715, 30.755623)"/>
      <path d="M 40.344 9.625 C 47.031 16.05 47.851 26.461 42.254 33.855 C 41.486 34.793 40.844 35.829 40.344 36.935 L 40.344 9.625 Z" class="st1" style="fill: rgb(0, 102, 0); stroke: rgb(0, 0, 0); stroke-linecap: round; stroke-linejoin: round; stroke-width: 1.5px;" transform="matrix(0.5, -0.866025, 0.866025, 0.5, 1.415496, 49.011713)"/>
      <path d="M 37.554 41.77 C 44.24 35.345 45.061 24.933 39.464 17.54 C 38.695 16.601 38.053 15.565 37.554 14.46 L 37.554 41.77 Z" class="st1" style="fill: rgb(0, 102, 0); stroke: rgb(0, 0, 0); stroke-linecap: round; stroke-linejoin: round; stroke-width: 1.5px;" transform="matrix(-0.5, 0.866025, -0.866025, -0.5, 84.892778, 7.217142)"/>
    </symbol>
    <symbol id="symbol-4" viewBox="0 0 53.4624 57.8995">
      <title>Seed Cluster</title>
      <g id="g-55" transform="matrix(1, 0, 0, -1, 3.853704, 536.340454)">
        <title>Sheet.1030</title>
        <g id="g-56" transform="translate(339.174,939.592) rotate(145)">
          <title>Sheet.1031</title>
          <path d="M0.49 529.76 A10.2649 9.40746 53.1 0 1 4.4 526.82 a0.801372 0.801372 29.66 0 1 1.08009 0.901961 A12.9068 12.9068 135 0 1 3.23 533.65 a0.60656 0.60656 59.83 0 1 0.0903963 0.208969 A12.5431 12.5431 -142.25 0 0 5.93 528.18 A1.90722 1.90722 -155.4 0 0 5.9 526.85 A49.4917 49.4917 0 0 1 10.83 518.73 A12.4075 12.4075 73.47 0 1 12 523.55 A2.11637 2.11637 -111.61 0 0 11.13 525.08 A10.1475 10.1475 -180 0 0 11.96 530.17 a0.588065 0.588065 -104.2 0 0 -0.0358654 -0.621876 A10.2649 9.40746 178.1 0 1 11.76 524.65 a0.801372 0.801372 154.64 0 1 1.35836 -0.367416 A12.9068 12.9068 81.68 0 1 16.68 529.53 a0.60656 0.60656 4.1 0 1 0.223026 0.0458112 A12.5431 12.5431 -19.98 0 0 13.75 524.18 A1.90722 1.90722 -24.85 0 0 12.64 523.44 L11.37 518.02 A49.4917 49.4917 0 0 1 20.01 509.36 L19.22 508.77 A54.4441 54.4441 -54.76 0 0 5.44 526.38 A2.11637 2.11637 -58.68 0 0 3.69 526.54 A10.1475 10.1475 -180 0 0 -0 530.15 a0.588065 0.588065 -45 0 0 0.48884 -0.386073 Z" class="st3" style="fill: rgb(223, 211, 106); stroke: rgb(0, 0, 0); stroke-linecap: round; stroke-linejoin: round; stroke-width: 1.5px;"/>
        </g>
        <g id="g-57" transform="translate(-77.1153,-18.2402) rotate(-12) scale(-1,1)">
          <title>Sheet.1032</title>
          <g id="g-58" transform="translate(0,1043.71) scale(1,-1)">
            <title>Ellipse.169</title>
            <path d="M0 521.85 A3.83838 12.0014 0 1 1 7.68 521.85 A3.83838 12.0014 0 1 1 -0 521.85 Z" class="st3" style="fill: rgb(223, 211, 106); stroke: rgb(0, 0, 0); stroke-linecap: round; stroke-linejoin: round; stroke-width: 1.5px;"/>
          </g>
          <g id="g-59" transform="translate(1.11572,1045.04) scale(1,-1)">
            <title>Sheet.1034</title>
            <g id="g-60" transform="translate(536.659,515.597) rotate(90)">
              <title>Sheet.1035</title>
              <path d="M0 533.85 L18.26 533.85" class="st4" style="stroke: rgb(0, 0, 0); stroke-linecap: round; stroke-linejoin: round; stroke-width: 0.5px;"/>
            </g>
            <g id="g-61" transform="translate(535.52,542.146) rotate(92.5813)">
              <title>Sheet.1036</title>
              <path d="M0 533.85 L14.57 533.85" class="st4" style="stroke: rgb(0, 0, 0); stroke-linecap: round; stroke-linejoin: round; stroke-width: 0.5px;"/>
            </g>
            <g id="g-62" transform="translate(533.191,567.443) rotate(95.2901)">
              <title>Sheet.1037</title>
              <path d="M0 533.85 L11.32 533.85" class="st4" style="stroke: rgb(0, 0, 0); stroke-linecap: round; stroke-linejoin: round; stroke-width: 0.5px;"/>
            </g>
            <g id="g-63" transform="translate(528.447,600.959) rotate(99.0193)">
              <title>Sheet.1038</title>
              <path d="M0 533.85 L7.61 533.85" class="st4" style="stroke: rgb(0, 0, 0); stroke-linecap: round; stroke-linejoin: round; stroke-width: 0.5px;"/>
            </g>
            <g id="g-64" transform="translate(-529.902,542.106) rotate(87.4187) scale(1,-1)">
              <title>Sheet.1039</title>
              <path d="M0 533.85 L14.57 533.85" class="st4" style="stroke: rgb(0, 0, 0); stroke-linecap: round; stroke-linejoin: round; stroke-width: 0.5px;"/>
            </g>
            <g id="g-65" transform="translate(-527.573,567.403) rotate(84.7099) scale(1,-1)">
              <title>Sheet.1040</title>
              <path d="M0 533.85 L11.32 533.85" class="st4" style="stroke: rgb(0, 0, 0); stroke-linecap: round; stroke-linejoin: round; stroke-width: 0.5px;"/>
            </g>
            <g id="g-66" transform="translate(-522.828,600.919) rotate(80.9807) scale(1,-1)">
              <title>Sheet.1041</title>
              <path d="M0 533.85 L7.61 533.85" class="st4" style="stroke: rgb(0, 0, 0); stroke-linecap: round; stroke-linejoin: round; stroke-width: 0.5px;"/>
            </g>
          </g>
          <g id="g-67" transform="translate(1.49144,1058.53) scale(1,-1)">
            <title>Sheet.1042</title>
            <g id="g-68">
              <title>Ellipse.26</title>
              <path d="M0 529.48 A2.34694 4.37649 0 1 1 4.69 529.48 A2.34694 4.37649 0 1 1 0 529.48 Z" class="st5" style="fill: rgb(223, 211, 106); stroke: rgb(0, 0, 0); stroke-linecap: round; stroke-linejoin: round; stroke-width: 0.5px;"/>
            </g>
            <g id="g-69" transform="translate(-527.98,484.292) rotate(-84.7826)">
              <title>Sheet.1044</title>
              <path d="M0 532.47 A9.26987 21.5541 -180 0 0 6.54 532.47" class="st4" style="stroke: rgb(0, 0, 0); stroke-linecap: round; stroke-linejoin: round; stroke-width: 0.5px;"/>
            </g>
          </g>
        </g>
        <g id="g-70" transform="translate(186.203,-5.65776) rotate(16) scale(-1,1)">
          <title>Sheet.1045</title>
          <g id="g-71" transform="translate(0,1043.71) scale(1,-1)">
            <title>Ellipse.169</title>
            <path d="M0 521.85 A3.83838 12.0014 0 1 1 7.68 521.85 A3.83838 12.0014 0 1 1 -0 521.85 Z" class="st3" style="fill: rgb(223, 211, 106); stroke: rgb(0, 0, 0); stroke-linecap: round; stroke-linejoin: round; stroke-width: 1.5px;"/>
          </g>
          <g id="g-72" transform="translate(1.11572,1045.04) scale(1,-1)">
            <title>Sheet.1047</title>
            <g id="g-73" transform="translate(536.659,515.597) rotate(90)">
              <title>Sheet.1048</title>
              <path d="M0 533.85 L18.26 533.85" class="st4" style="stroke: rgb(0, 0, 0); stroke-linecap: round; stroke-linejoin: round; stroke-width: 0.5px;"/>
            </g>
            <g id="g-74" transform="translate(535.52,542.146) rotate(92.5813)">
              <title>Sheet.1049</title>
              <path d="M0 533.85 L14.57 533.85" class="st4" style="stroke: rgb(0, 0, 0); stroke-linecap: round; stroke-linejoin: round; stroke-width: 0.5px;"/>
            </g>
            <g id="g-75" transform="translate(533.191,567.443) rotate(95.2901)">
              <title>Sheet.1050</title>
              <path d="M0 533.85 L11.32 533.85" class="st4" style="stroke: rgb(0, 0, 0); stroke-linecap: round; stroke-linejoin: round; stroke-width: 0.5px;"/>
            </g>
            <g id="g-76" transform="translate(528.447,600.959) rotate(99.0193)">
              <title>Sheet.1051</title>
              <path d="M0 533.85 L7.61 533.85" class="st4" style="stroke: rgb(0, 0, 0); stroke-linecap: round; stroke-linejoin: round; stroke-width: 0.5px;"/>
            </g>
            <g id="g-77" transform="translate(-529.902,542.106) rotate(87.4187) scale(1,-1)">
              <title>Sheet.1052</title>
              <path d="M0 533.85 L14.57 533.85" class="st4" style="stroke: rgb(0, 0, 0); stroke-linecap: round; stroke-linejoin: round; stroke-width: 0.5px;"/>
            </g>
            <g id="g-78" transform="translate(-527.573,567.403) rotate(84.7099) scale(1,-1)">
              <title>Sheet.1053</title>
              <path d="M0 533.85 L11.32 533.85" class="st4" style="stroke: rgb(0, 0, 0); stroke-linecap: round; stroke-linejoin: round; stroke-width: 0.5px;"/>
            </g>
            <g id="g-79" transform="translate(-522.828,600.919) rotate(80.9807) scale(1,-1)">
              <title>Sheet.1054</title>
              <path d="M0 533.85 L7.61 533.85" class="st4" style="stroke: rgb(0, 0, 0); stroke-linecap: round; stroke-linejoin: round; stroke-width: 0.5px;"/>
            </g>
          </g>
          <g id="g-80" transform="translate(1.49144,1058.53) scale(1,-1)">
            <title>Sheet.1055</title>
            <g id="g-81">
              <title>Ellipse.26</title>
              <path d="M0 529.48 A2.34694 4.37649 0 1 1 4.69 529.48 A2.34694 4.37649 0 1 1 0 529.48 Z" class="st5" style="fill: rgb(223, 211, 106); stroke: rgb(0, 0, 0); stroke-linecap: round; stroke-linejoin: round; stroke-width: 0.5px;"/>
            </g>
            <g id="g-82" transform="translate(-526.036,465.98) rotate(-82.7595)">
              <title>Sheet.1057</title>
              <path d="M-0 532.47 A9.84101 21.5541 -180 0 0 6.95 532.47" class="st4" style="stroke: rgb(0, 0, 0); stroke-linecap: round; stroke-linejoin: round; stroke-width: 0.5px;"/>
            </g>
          </g>
        </g>
        <g id="g-83" transform="translate(-238.295,47.8568) rotate(-30) scale(-1,1)">
          <title>Sheet.1058</title>
          <g id="g-84" transform="translate(0,1043.71) scale(1,-1)">
            <title>Ellipse.169</title>
            <path d="M0 521.85 A3.83838 12.0014 0 1 1 7.68 521.85 A3.83838 12.0014 0 1 1 -0 521.85 Z" class="st3" style="fill: rgb(223, 211, 106); stroke: rgb(0, 0, 0); stroke-linecap: round; stroke-linejoin: round; stroke-width: 1.5px;"/>
          </g>
          <g id="g-85" transform="translate(1.11572,1045.04) scale(1,-1)">
            <title>Sheet.1060</title>
            <g id="g-86" transform="translate(536.659,515.597) rotate(90)">
              <title>Sheet.1061</title>
              <path d="M0 533.85 L18.26 533.85" class="st4" style="stroke: rgb(0, 0, 0); stroke-linecap: round; stroke-linejoin: round; stroke-width: 0.5px;"/>
            </g>
            <g id="g-87" transform="translate(535.52,542.146) rotate(92.5813)">
              <title>Sheet.1062</title>
              <path d="M0 533.85 L14.57 533.85" class="st4" style="stroke: rgb(0, 0, 0); stroke-linecap: round; stroke-linejoin: round; stroke-width: 0.5px;"/>
            </g>
            <g id="g-88" transform="translate(533.191,567.443) rotate(95.2901)">
              <title>Sheet.1063</title>
              <path d="M0 533.85 L11.32 533.85" class="st4" style="stroke: rgb(0, 0, 0); stroke-linecap: round; stroke-linejoin: round; stroke-width: 0.5px;"/>
            </g>
            <g id="g-89" transform="translate(528.447,600.959) rotate(99.0193)">
              <title>Sheet.1064</title>
              <path d="M0 533.85 L7.61 533.85" class="st4" style="stroke: rgb(0, 0, 0); stroke-linecap: round; stroke-linejoin: round; stroke-width: 0.5px;"/>
            </g>
            <g id="g-90" transform="translate(-529.902,542.106) rotate(87.4187) scale(1,-1)">
              <title>Sheet.1065</title>
              <path d="M0 533.85 L14.57 533.85" class="st4" style="stroke: rgb(0, 0, 0); stroke-linecap: round; stroke-linejoin: round; stroke-width: 0.5px;"/>
            </g>
            <g id="g-91" transform="translate(-527.573,567.403) rotate(84.7099) scale(1,-1)">
              <title>Sheet.1066</title>
              <path d="M0 533.85 L11.32 533.85" class="st4" style="stroke: rgb(0, 0, 0); stroke-linecap: round; stroke-linejoin: round; stroke-width: 0.5px;"/>
            </g>
            <g id="g-92" transform="translate(-522.828,600.919) rotate(80.9807) scale(1,-1)">
              <title>Sheet.1067</title>
              <path d="M0 533.85 L7.61 533.85" class="st4" style="stroke: rgb(0, 0, 0); stroke-linecap: round; stroke-linejoin: round; stroke-width: 0.5px;"/>
            </g>
          </g>
          <g id="g-93" transform="translate(1.49144,1058.53) scale(1,-1)">
            <title>Sheet.1068</title>
            <g id="g-94">
              <title>Ellipse.26</title>
              <path d="M0 529.48 A2.34694 4.37649 0 1 1 4.69 529.48 A2.34694 4.37649 0 1 1 0 529.48 Z" class="st5" style="fill: rgb(223, 211, 106); stroke: rgb(0, 0, 0); stroke-linecap: round; stroke-linejoin: round; stroke-width: 0.5px;"/>
            </g>
            <g id="g-95" transform="translate(-527.98,484.292) rotate(-84.7826)">
              <title>Sheet.1070</title>
              <path d="M0 532.47 A9.26987 21.5541 -180 0 0 6.54 532.47" class="st4" style="stroke: rgb(0, 0, 0); stroke-linecap: round; stroke-linejoin: round; stroke-width: 0.5px;"/>
            </g>
          </g>
        </g>
        <g id="g-96" transform="translate(-452.397,269.441) rotate(-63) scale(-1,1)">
          <title>Sheet.1071</title>
          <g id="g-97" transform="translate(0,1043.71) scale(1,-1)">
            <title>Ellipse.169</title>
            <path d="M0 521.85 A3.83838 12.0014 0 1 1 7.68 521.85 A3.83838 12.0014 0 1 1 -0 521.85 Z" class="st3" style="fill: rgb(223, 211, 106); stroke: rgb(0, 0, 0); stroke-linecap: round; stroke-linejoin: round; stroke-width: 1.5px;"/>
          </g>
          <g id="g-98" transform="translate(1.11572,1045.04) scale(1,-1)">
            <title>Sheet.1073</title>
            <g id="g-99" transform="translate(536.659,515.597) rotate(90)">
              <title>Sheet.1074</title>
              <path d="M0 533.85 L18.26 533.85" class="st4" style="stroke: rgb(0, 0, 0); stroke-linecap: round; stroke-linejoin: round; stroke-width: 0.5px;"/>
            </g>
            <g id="g-100" transform="translate(535.52,542.146) rotate(92.5813)">
              <title>Sheet.1075</title>
              <path d="M0 533.85 L14.57 533.85" class="st4" style="stroke: rgb(0, 0, 0); stroke-linecap: round; stroke-linejoin: round; stroke-width: 0.5px;"/>
            </g>
            <g id="g-101" transform="translate(533.191,567.443) rotate(95.2901)">
              <title>Sheet.1076</title>
              <path d="M0 533.85 L11.32 533.85" class="st4" style="stroke: rgb(0, 0, 0); stroke-linecap: round; stroke-linejoin: round; stroke-width: 0.5px;"/>
            </g>
            <g id="g-102" transform="translate(528.447,600.959) rotate(99.0193)">
              <title>Sheet.1077</title>
              <path d="M0 533.85 L7.61 533.85" class="st4" style="stroke: rgb(0, 0, 0); stroke-linecap: round; stroke-linejoin: round; stroke-width: 0.5px;"/>
            </g>
            <g id="g-103" transform="translate(-529.902,542.106) rotate(87.4187) scale(1,-1)">
              <title>Sheet.1078</title>
              <path d="M0 533.85 L14.57 533.85" class="st4" style="stroke: rgb(0, 0, 0); stroke-linecap: round; stroke-linejoin: round; stroke-width: 0.5px;"/>
            </g>
            <g id="g-104" transform="translate(-527.573,567.403) rotate(84.7099) scale(1,-1)">
              <title>Sheet.1079</title>
              <path d="M0 533.85 L11.32 533.85" class="st4" style="stroke: rgb(0, 0, 0); stroke-linecap: round; stroke-linejoin: round; stroke-width: 0.5px;"/>
            </g>
            <g id="g-105" transform="translate(-522.828,600.919) rotate(80.9807) scale(1,-1)">
              <title>Sheet.1080</title>
              <path d="M0 533.85 L7.61 533.85" class="st4" style="stroke: rgb(0, 0, 0); stroke-linecap: round; stroke-linejoin: round; stroke-width: 0.5px;"/>
            </g>
          </g>
          <g id="g-106" transform="translate(1.49144,1058.53) scale(1,-1)">
            <title>Sheet.1081</title>
            <g id="g-107">
              <title>Ellipse.26</title>
              <path d="M0 529.48 A2.34694 4.37649 0 1 1 4.69 529.48 A2.34694 4.37649 0 1 1 0 529.48 Z" class="st5" style="fill: rgb(223, 211, 106); stroke: rgb(0, 0, 0); stroke-linecap: round; stroke-linejoin: round; stroke-width: 0.5px;"/>
            </g>
            <g id="g-108" transform="translate(-527.98,484.292) rotate(-84.7826)">
              <title>Sheet.1083</title>
              <path d="M0 532.47 A9.26987 21.5541 -180 0 0 6.54 532.47" class="st4" style="stroke: rgb(0, 0, 0); stroke-linecap: round; stroke-linejoin: round; stroke-width: 0.5px;"/>
            </g>
          </g>
        </g>
      </g>
    </symbol>
  </defs>
  <rect x="256" width="512" height="512" style="fill: none; stroke-width: 3px;"/>
  <g id="group1-1" transform="matrix(1.920386, 0, 0, 1.920386, 563.191406, 126.065041)">
    <title id="title13">Chalice</title>
    <path d="M 66.882 66.758 C 71.737 77.347 74.251 88.858 74.252 100.508 C 74.252 132.726 55.156 161.882 25.622 174.758 L 143.132 174.758 C 113.598 161.882 94.502 132.726 94.502 100.508 C 94.5 88.859 97.01 77.347 101.862 66.758 L 66.882 66.758 Z" class="st1" id="path18" style="stroke: rgb(0, 0, 0); stroke-linecap: round; stroke-linejoin: round; stroke-width: 2.16px; fill: rgb(255, 215, 0);"/>
    <path d="M 165.375 9.382 L 3.375 9.382 C 3.375 71.736 70.875 110.707 124.875 79.531 C 149.936 65.061 165.375 38.321 165.375 9.382 Z" class="st1" id="path23" style="stroke: rgb(0, 0, 0); stroke-linecap: round; stroke-linejoin: round; stroke-width: 2.16px; fill: rgb(255, 215, 0);"/>
    <path d="M 160.31 21.195 C 164.972 21.196 168.751 17.417 168.75 12.755 C 168.751 8.093 164.972 4.314 160.31 4.315 L 8.44 4.315 C 3.778 4.314 -0.001 8.093 0 12.755 C -0.001 17.417 3.778 21.196 8.44 21.195 L 160.31 21.195 Z" class="st1" id="path28" style="stroke: rgb(0, 0, 0); stroke-linecap: round; stroke-linejoin: round; stroke-width: 2.16px; fill: rgb(255, 215, 0);"/>
    <path d="M 100.406 105.57 C 105.068 105.571 108.848 101.792 108.846 97.13 C 108.848 92.468 105.068 88.689 100.406 88.69 L 68.346 88.69 C 63.684 88.689 59.905 92.468 59.906 97.13 C 59.905 101.792 63.684 105.571 68.346 105.57 L 100.406 105.57 Z" class="st1" id="path33" style="stroke: rgb(0, 0, 0); stroke-linecap: round; stroke-linejoin: round; stroke-width: 2.16px; fill: rgb(255, 215, 0);"/>
    <path d="M 135.003 186.57 C 139.66 186.566 143.434 182.788 143.433 178.13 C 143.434 173.472 139.66 169.694 135.003 169.69 L 33.753 169.69 C 29.091 169.689 25.311 173.468 25.313 178.13 C 25.311 182.792 29.091 186.571 33.753 186.57 L 135.003 186.57 Z" class="st1" id="path38" style="stroke: rgb(0, 0, 0); stroke-linecap: round; stroke-linejoin: round; stroke-width: 2.16px; fill: rgb(255, 215, 0);"/>
  </g>
  <g transform="matrix(0.888222, 0, 0, 0.888222, 53.291779, 21.025091)">
    <title>Ash Tree</title>
    <use width="60.02510070800781" height="88.631103515625" transform="matrix(-0.9667440056800842, -0.08457900583744049, 0.08457900583744049, -0.9667440056800842, 331.46435546875, 107.41117858886719)" style="" xlink:href="#symbol-3"/>
    <use width="60.02510070800781" height="88.631103515625" transform="matrix(-0.945533037185669, 0.21844501793384552, -0.21844501793384552, -0.945533037185669, 298.001953125, 112.20892333984375)" style="" xlink:href="#symbol-3"/>
    <use width="60.02510070800781" height="88.631103515625" transform="matrix(-0.9619069695472717, 0.12841300666332245, -0.12841300666332245, -0.9619069695472717, 166.2537078857422, 92.55642700195312)" style="" xlink:href="#symbol-3"/>
    <use width="60.02510070800781" height="88.631103515625" transform="matrix(-0.6412650346755981, 0.7283779382705688, -0.7283779382705688, -0.6412650346755981, 121.9968032836914, 51.71311950683594)" style="" xlink:href="#symbol-3"/>
    <use width="60.02510070800781" height="88.631103515625" transform="matrix(-0.8157960176467896, 0.525577962398529, -0.525577962398529, -0.8157960176467896, 87.80213928222656, 102.86715698242188)" style="" bx:origin="0.502 0.025" xlink:href="#symbol-3"/>
    <use width="60.02510070800781" height="88.631103515625" transform="matrix(-0.37081703543663025, 0.853924036026001, -0.853924036026001, -0.37081703543663025, 126.55367279052734, 178.0279541015625)" style="" bx:origin="0.502 0.025" xlink:href="#symbol-3"/>
    <use width="60.02510070800781" height="88.631103515625" transform="matrix(-0.3114110231399536, 0.876492977142334, -0.876492977142334, -0.3114110231399536, 160.33851623535156, 263.26214599609375)" style="" bx:origin="0.502 0.025" xlink:href="#symbol-3"/>
    <use width="60.02510070800781" height="88.631103515625" transform="matrix(0.6534040570259094, 0.6416029930114746, -0.6416029930114746, 0.6534040570259094, 191.66522216796875, 296.341552734375)" style="" bx:origin="0.502 0.025" xlink:href="#symbol-3"/>
    <use width="60.02510070800781" height="88.631103515625" transform="matrix(0.10548000037670135, 0.728007972240448, -0.728007972240448, 0.10548000037670135, 172.91876220703125, 292.1664123535156)" style="" bx:origin="0.502 0.025" xlink:href="#symbol-3"/>
    <use width="60.02510070800781" height="88.631103515625" transform="matrix(-0.6478850841522217, 0.34838196635246277, -0.34838196635246277, -0.6478850841522217, 199.6487274169922, 239.15431213378906)" style="" bx:origin="0.502 0.025" xlink:href="#symbol-3"/>
    <use width="60.02510070800781" height="88.631103515625" transform="matrix(-0.41979101300239563, 0.6040700078010559, -0.6040700078010559, -0.41979101300239563, 87.04621124267578, 140.8518524169922)" style="" bx:origin="0.502 0.025" xlink:href="#symbol-3"/>
    <use width="60.02510070800781" height="88.631103515625" transform="matrix(-0.5104749798774719, 0.48130398988723755, -0.48130398988723755, -0.5104749798774719, 135.16580200195312, 126.20994567871094)" style="" bx:origin="0.502 0.025" xlink:href="#symbol-3"/>
    <use width="60.02510070800781" height="88.631103515625" transform="matrix(-0.7360950112342834, 0.17839401960372925, -0.17839401960372925, -0.7360950112342834, 207.29591369628906, 96.67713928222656)" style="" bx:origin="0.502 0.025" xlink:href="#symbol-3"/>
    <use width="60.02510070800781" height="88.631103515625" transform="matrix(-0.7536180019378662, 0.07562600821256638, -0.07562600821256638, -0.7536180019378662, 276.343994140625, 165.21102905273438)" style="" bx:origin="0.502 0.025" xlink:href="#symbol-3"/>
    <use width="60.02510070800781" height="88.631103515625" transform="matrix(-0.7534900307655334, -0.07688300311565399, 0.07688300311565399, -0.7534900307655334, 234.44847106933594, 83.39557647705078)" style="" bx:origin="0.502 0.025" xlink:href="#symbol-3"/>
    <use width="60.02510070800781" height="88.631103515625" transform="matrix(-0.7534900307655334, -0.07688300311565399, 0.07688300311565399, -0.7534900307655334, 339.7033996582031, 170.29994201660156)" style="" bx:origin="0.502 0.025" xlink:href="#symbol-3"/>
    <use width="60.02510070800781" height="88.631103515625" transform="matrix(-0.7438570261001587, 0.055799003690481186, -0.055799003690481186, -0.7438570261001587, 378.25543212890625, 79.60453033447266)" style="" bx:origin="0.502 0.025" xlink:href="#symbol-3"/>
    <use width="60.02510070800781" height="88.631103515625" transform="matrix(-0.9627260565757751, -0.12209300696849823, 0.12209300696849823, -0.9627260565757751, 459.19049072265625, 99.20016479492188)" style="" xlink:href="#symbol-3"/>
    <use width="60.02510070800781" height="88.631103515625" transform="matrix(-0.7381930351257324, -0.169499009847641, 0.169499009847641, -0.7381930351257324, 405.79296875, 107.13287353515625)" style="" bx:origin="0.502 0.025" xlink:href="#symbol-3"/>
    <use width="60.02510070800781" height="88.631103515625" transform="matrix(-0.476095050573349, -0.450516015291214, 0.450516015291214, -0.476095050573349, 464.3835144042969, 152.1974334716797)" style="" bx:origin="0.502 0.025" xlink:href="#symbol-3"/>
    <use width="60.02510070800781" height="88.631103515625" transform="matrix(-0.6372849941253662, -0.731859028339386, 0.731859028339386, -0.6372849941253662, 484.6755676269531, 95.27696228027344)" style="" bx:origin="0.505 0.027" xlink:href="#symbol-3"/>
    <use width="60.02510070800781" height="88.631103515625" transform="matrix(-0.8098840117454529, -0.5346379280090332, 0.5346379280090332, -0.8098840117454529, 529.3822021484375, 133.9068145751953)" style="" bx:origin="0.505 0.027" xlink:href="#symbol-3"/>
    <use width="60.02510070800781" height="88.631103515625" transform="matrix(-0.3691070079803467, -0.841776967048645, 0.841776967048645, -0.3691070079803467, 464.94781494140625, 228.18527221679688)" style="" bx:origin="0.505 0.027" xlink:href="#symbol-3"/>
    <use width="60.02510070800781" height="88.631103515625" transform="matrix(-0.41025102138519287, -0.6149910092353821, 0.6149910092353821, -0.41025102138519287, 505.7929382324219, 177.02346801757812)" style="" bx:origin="0.502 0.025" xlink:href="#symbol-3"/>
    <use width="60.02510070800781" height="88.631103515625" transform="matrix(-0.653747022151947, -0.34515899419784546, 0.34515899419784546, -0.653747022151947, 407.07342529296875, 260.1421813964844)" style="" bx:origin="0.502 0.025" xlink:href="#symbol-3"/>
    <use width="60.02510070800781" height="88.631103515625" transform="matrix(0.09495700895786285, -0.733146071434021, 0.733146071434021, 0.09495700895786285, 389.160888671875, 336.6075134277344)" style="" bx:origin="0.502 0.025" xlink:href="#symbol-3"/>
    <use width="60.02510070800781" height="88.631103515625" transform="matrix(-0.3184249997138977, -0.8622269630432129, 0.8622269630432129, -0.3184249997138977, 427.2365417480469, 315.2234191894531)" style="" bx:origin="0.505 0.027" xlink:href="#symbol-3"/>
    <use width="60.02510070800781" height="88.631103515625" transform="matrix(0.6448850631713867, -0.6337080001831055, 0.6337080001831055, 0.6448850631713867, 338.1434326171875, 335.55059814453125)" style="" bx:origin="0.505 0.027" xlink:href="#symbol-3"/>
    <path d="M 257.759 190.052 L 260.339 178.352 C 255.56 170.532 252.705 161.734 251.999 152.652 C 250.065 165.401 252.07 178.423 257.759 190.052 Z" class="st2" style="fill: rgb(153, 51, 0); stroke: rgb(0, 0, 0); stroke-linecap: round; stroke-linejoin: round; stroke-width: 2.25px;"/>
    <path d="M 282.733 139.893 L 288.733 148.493 C 299.54 128.85 305.156 106.889 305.073 84.603 C 300.963 104.158 293.404 122.867 282.733 139.893 Z" class="st2" style="fill: rgb(153, 51, 0); stroke: rgb(0, 0, 0); stroke-linecap: round; stroke-linejoin: round; stroke-width: 2.25px;"/>
    <path d="M 263.977 377.82 C 261.976 383.022 258.047 387.252 253.007 389.63 C 246.046 394.603 238.326 398.416 230.147 400.92 C 222.659 403.72 215.501 407.214 208.777 411.35 C 203.511 412.901 198.485 408.364 199.731 403.182 C 200.88 398.4 206.68 396.266 210.827 399.1 C 203.902 392.09 191.391 395.396 188.306 405.05 C 185.372 414.234 193.1 422.796 202.767 421.07 C 195.16 428.704 185.424 430.641 177.787 426.04 C 165.173 421.115 152.932 431.331 155.753 444.429 C 156.362 447.26 157.659 449.944 159.527 452.24 C 154.955 443.348 163.407 433.726 174.741 434.92 C 175.777 435.029 176.798 435.23 177.787 435.52 C 191.599 441.938 206.317 437.65 215.607 424.5 C 226.513 411.777 241.965 407.536 256.997 413.14 C 246.568 424.804 232.593 433.402 216.217 438.23 C 209.013 441.577 203.478 447.273 200.847 454.05 C 199.237 461.821 188.594 464.599 181.691 459.05 C 177.572 455.739 176.358 450.51 178.747 446.37 C 171.629 456.3 178.186 469.829 190.549 470.723 C 191.097 470.762 191.647 470.775 192.197 470.76 C 199.648 470.817 206.002 466.999 209.487 460.37 C 212.261 451.559 219.825 446.58 228.707 447.72 C 224.174 454.859 221.536 462.919 221.017 471.22 C 221.611 480.109 211.301 485.627 202.46 481.153 C 201.405 480.619 200.428 479.962 199.557 479.2 C 201.1 488.627 212.688 493.738 220.415 488.4 C 222.632 486.869 224.194 484.64 224.857 482.06 C 232.861 490.947 247.255 489.467 250.766 479.396 C 251.142 478.32 251.367 477.189 251.437 476.03 C 246.864 481.739 237.897 481.581 232.197 475.69 C 232.875 466.011 236.378 455.922 242.157 447 C 247.351 438.362 254.349 431.873 262.517 428.12 C 265.625 427.324 268.731 426.524 271.837 425.72 C 273.277 434.532 272.629 443.703 269.977 452.03 C 264.86 460.611 264.634 470.485 269.357 479.12 C 274.318 483.333 271.624 490.976 264.506 492.876 C 261.671 493.633 258.697 493.258 256.437 491.86 C 260.934 500.552 273.454 502.08 278.971 494.611 C 279.052 494.502 279.13 494.392 279.207 494.28 C 280.542 500.36 280.324 506.497 278.587 511.78 C 273.829 517.997 275.505 526.742 282.387 531.6 C 281.865 526.049 283.936 520.29 288.087 515.75 C 289.364 512.777 290.309 509.565 290.897 506.2 C 292.911 499.365 291.971 492.157 288.437 487.35 C 296.826 490.337 305.488 483.807 304.028 475.597 C 303.454 472.372 301.34 469.55 298.277 467.92 C 300.793 471.99 296.912 477.593 291.29 478.005 C 288.244 478.228 285.632 476.768 284.737 474.34 C 282.077 468.665 282.849 461.354 286.587 456.81 C 290.669 449.282 292.718 440.932 292.557 432.49 C 294.737 435.201 297.322 437.268 300.127 438.54 C 305.019 441.764 309.34 446.095 312.917 451.36 C 319.101 460.032 323.057 469.974 324.167 479.63 C 321.929 488.482 313.11 493.331 305.237 490.04 C 307.051 499.504 318.512 502.528 325.866 495.483 C 328.393 493.063 329.953 489.808 330.207 486.43 C 332.985 493.851 343.279 494.963 348.735 488.433 C 350.312 486.546 351.231 484.251 351.347 481.91 C 345.502 487.08 336.026 484.966 334.29 478.105 C 334.083 477.284 334.004 476.435 334.057 475.58 C 333.536 467.283 330.898 459.226 326.367 452.09 C 335.249 450.95 342.813 455.929 345.587 464.74 C 349.072 471.369 355.426 475.187 362.877 475.13 C 375.285 475.47 383.25 462.681 377.213 452.11 C 376.942 451.636 376.646 451.175 376.327 450.73 C 380.331 457.67 374.053 466.327 365.026 466.314 C 359.641 466.306 355.187 463.046 354.227 458.41 C 351.593 451.637 346.059 445.945 338.857 442.6 C 322.479 437.769 308.504 429.168 298.077 417.5 C 315.293 411.941 332.488 417.496 344.137 432.38 C 352.04 445.038 365.867 448.17 377.287 439.89 C 388.107 436.725 398.768 444.618 396.475 454.097 C 396.267 454.959 395.952 455.801 395.537 456.61 C 404.185 445.991 398.738 430.808 385.731 429.281 C 382.918 428.95 380.015 429.335 377.287 430.4 C 369.618 434.857 359.945 432.933 352.307 425.43 C 362.469 427.244 370.287 417.757 366.379 408.352 C 362.662 399.406 350.834 396.792 344.247 403.46 C 348.745 400.398 354.99 403.191 355.489 408.488 C 355.948 413.367 351.15 417.142 346.297 415.72 C 338.359 409.608 329.75 404.272 320.597 399.79 C 311.67 394.186 305.528 386.113 303.297 377.05 L 303.637 332.57 C 307.728 317.534 319.898 305.829 335.327 302.09 C 345.32 311.167 356.042 319.444 367.387 326.84 C 360.151 317.872 353.21 308.681 346.577 299.28 C 354.697 296.518 363.719 298.237 370.197 303.78 C 381.837 315.065 398.327 319.924 414.077 316.71 C 398.453 317.014 383.478 310.151 373.577 298.15 C 356.343 284.709 331.943 284.384 314.237 297.36 C 311.341 299.714 308.605 302.249 306.047 304.95 C 308.467 302.119 311.215 299.572 314.237 297.36 C 333.907 281.351 359.807 274.637 385.017 279.01 C 396.538 292.549 416.713 295.026 430.947 284.65 C 414.282 288.789 396.636 282.155 386.397 267.9 C 404.168 271.639 421.575 259.647 424.077 241.94 C 431.681 222.957 446.148 207.319 464.697 198.03 C 442.835 203.055 424.584 217.827 415.427 237.91 C 410.332 255.095 392.503 265.565 374.677 261.84 C 385.203 256.27 392.778 246.568 395.517 235.15 C 389.348 245.643 380.146 254.107 369.057 259.49 C 367.147 262.468 364.069 264.531 360.537 265.2 C 340 267.526 320.228 274.194 302.597 284.74 C 301.792 278.925 303.547 273.05 307.427 268.57 L 354.677 234.89 C 370.669 226.697 383.676 213.875 391.917 198.18 C 395.713 193.607 401.132 190.597 407.097 189.75 C 420.582 185.433 433.339 179.2 444.957 171.25 C 452.126 169.348 459.111 166.824 465.827 163.71 C 482.618 166.591 499.635 160.346 510.267 147.4 C 498.074 154.058 484.324 157.545 470.327 157.53 C 488.18 142.437 503.378 124.577 515.327 104.65 C 514.741 103.728 514.177 102.791 513.637 101.84 C 498.06 122.696 480.136 141.751 460.197 158.65 C 452.85 161.685 445.339 164.315 437.697 166.53 C 442.122 152.312 449.605 139.268 459.637 128.28 C 444.399 139.234 433.329 154.849 428.137 172.71 C 420.211 178.623 410.538 181.882 400.537 182.01 C 393.868 167.953 396.158 151.394 406.407 139.57 C 412.953 132.759 420.8 127.266 429.507 123.4 C 445.421 116.255 457.086 102.343 461.117 85.7 C 465.34 73.631 473.45 63.233 484.237 56.06 C 472.463 62.632 462.75 72.221 456.147 83.79 C 450.849 97.12 441.416 108.498 429.167 116.33 C 431.157 101.168 432.531 85.933 433.287 70.66 C 430.94 85.821 427.722 100.841 423.647 115.65 C 396.79 127.962 382.003 156.568 387.777 185.04 C 381.085 197.532 371.267 208.168 359.237 215.96 L 321.567 239.6 C 319.198 242.263 314.965 242.263 312.597 239.6 C 311.795 237.058 312.31 234.294 313.977 232.19 C 338.902 202.319 354.535 165.803 358.947 127.15 C 377.362 118.384 388.814 99.885 388.197 79.9 C 384.381 97.689 371.394 112.272 353.887 118.43 C 349.631 109.23 349.293 98.775 352.947 89.38 C 358.97 83.562 359.138 74.112 353.327 68.09 C 353.942 74.771 352.366 81.467 348.827 87.21 C 341.692 98.219 341.912 112.343 349.387 123.21 C 345.012 147.143 335.533 169.93 321.567 190.09 C 311.443 178.347 301.636 166.346 292.157 154.1 C 281.054 139.513 272.494 123.157 266.837 105.72 C 267.536 124.967 273.844 143.59 284.987 159.3 C 294.825 174.705 304.036 190.484 312.597 206.6 C 311.273 212.689 307.226 217.877 301.567 220.74 C 299.776 217.628 297.502 214.804 294.827 212.37 L 266.087 185.72 L 261.937 193.04 L 286.387 221.65 C 297.518 230.484 296.456 247.373 284.307 254.73 C 272.247 246.342 273.342 228.535 286.337 221.72 L 276.547 210.87 C 272.437 213.591 268.786 216.921 265.727 220.74 C 260.068 217.877 256.02 212.689 254.697 206.6 C 263.425 189.487 272.842 172.717 282.927 156.33 C 280.774 153.013 278.791 149.589 276.987 146.07 C 269.676 162.629 259.047 177.596 245.727 190.09 C 231.76 169.93 222.281 147.143 217.907 123.21 C 225.382 112.343 225.602 98.219 218.467 87.21 C 214.928 81.467 213.352 74.771 213.967 68.09 C 208.155 74.112 208.324 83.562 214.347 89.38 C 218 98.775 217.662 109.23 213.407 118.43 C 195.899 112.272 182.913 97.689 179.097 79.9 C 178.477 99.882 189.925 118.381 208.337 127.15 C 212.752 165.804 228.388 202.32 253.317 232.19 C 254.984 234.294 255.499 237.058 254.697 239.6 C 252.328 242.263 248.095 242.263 245.727 239.6 L 208.057 215.96 C 196.027 208.168 186.209 197.532 179.517 185.04 C 185.29 156.568 170.503 127.962 143.647 115.65 C 139.572 100.841 136.353 85.821 134.007 70.66 C 134.763 85.933 136.137 101.168 138.127 116.33 C 125.878 108.498 116.444 97.12 111.147 83.79 C 104.544 72.221 94.831 62.632 83.057 56.06 C 93.843 63.233 101.954 73.631 106.177 85.7 C 110.208 102.343 121.872 116.255 137.787 123.4 C 146.493 127.266 154.341 132.759 160.887 139.57 C 171.135 151.394 173.426 167.953 166.757 182.01 C 156.756 181.882 147.083 178.623 139.157 172.71 C 133.965 154.849 122.894 139.234 107.657 128.28 C 117.689 139.268 125.171 152.312 129.597 166.53 C 121.952 164.316 114.437 161.685 107.087 158.65 C 87.151 141.75 69.23 122.696 53.657 101.84 C 53.116 102.791 52.553 103.728 51.967 104.65 C 63.916 124.577 79.114 142.437 96.967 157.53 C 82.969 157.545 69.219 154.058 57.027 147.4 C 67.659 160.346 84.676 166.591 101.467 163.71 C 108.18 166.824 115.161 169.347 122.327 171.25 C 133.948 179.201 146.708 185.434 160.197 189.75 C 166.162 190.597 171.581 193.607 175.377 198.18 C 183.617 213.875 196.625 226.697 212.617 234.89 L 259.867 268.57 C 263.747 273.05 265.502 278.925 264.697 284.74 C 247.066 274.194 227.294 267.526 206.757 265.2 C 203.224 264.531 200.146 262.468 198.237 259.49 C 187.147 254.107 177.946 245.643 171.777 235.15 C 174.515 246.568 182.09 256.27 192.617 261.84 C 174.791 265.565 156.961 255.095 151.867 237.91 C 142.708 217.825 124.453 203.052 102.587 198.03 C 121.14 207.317 135.611 222.956 143.217 241.94 C 145.719 259.647 163.125 271.639 180.897 267.9 C 170.658 282.155 153.011 288.789 136.347 284.65 C 150.578 295.02 170.747 292.543 182.267 279.01 C 207.479 274.634 233.384 281.349 253.057 297.36 C 256.078 299.572 258.827 302.119 261.247 304.95 C 258.688 302.249 255.952 299.714 253.057 297.36 C 235.351 284.384 210.951 284.709 193.717 298.15 C 183.815 310.151 168.84 317.014 153.217 316.71 C 168.964 319.92 185.449 315.061 197.087 303.78 C 203.567 298.233 212.594 296.514 220.717 299.28 C 214.083 308.681 207.143 317.872 199.907 326.84 C 211.252 319.444 221.974 311.167 231.967 302.09 C 247.395 305.829 259.566 317.534 263.657 332.57 L 263.977 377.82 Z" class="st2" style="fill: rgb(153, 51, 0); stroke: rgb(0, 0, 0); stroke-linecap: round; stroke-linejoin: round; stroke-width: 2.25px;"/>
    <path d="M 286.129 204.571 L 295.619 213.141 C 314.844 199.175 323.28 175.081 316.799 152.651 C 314.9 173.53 303.681 192.523 286.129 204.571 Z" class="st2" style="fill: rgb(153, 51, 0); stroke: rgb(0, 0, 0); stroke-linecap: round; stroke-linejoin: round; stroke-width: 2.25px;"/>
    <use width="53.462398529052734" height="57.89950180053711" transform="matrix(0.934984028339386, -0.16635099053382874, 0.16635099053382874, 0.934984028339386, 435.78564453125, 201.26153564453125)" style="" bx:origin="0.671 0.059" xlink:href="#symbol-4"/>
    <use width="53.462398529052734" height="57.89950180053711" transform="matrix(0.934984028339386, -0.16635099053382874, 0.16635099053382874, 0.934984028339386, 301.858154296875, 306.1564025878906)" style="" bx:origin="0.671 0.059" xlink:href="#symbol-4"/>
    <use width="53.462398529052734" height="57.89950180053711" transform="matrix(0.9467310309410095, 0.07463201135396957, -0.07463201135396957, 0.9467310309410095, 425.0589599609375, 123.33273315429688)" style="" bx:origin="0.671 0.059" xlink:href="#symbol-4"/>
    <use width="53.462398529052734" height="57.89950180053711" transform="matrix(0.8861280083656311, -0.3415389955043793, 0.3415389955043793, 0.8861280083656311, 327.65814208984375, 136.9033966064453)" style="" bx:origin="0.671 0.059" xlink:href="#symbol-4"/>
    <use width="53.462398529052734" height="57.89950180053711" transform="matrix(0.8884530067443848, -0.33544400334358215, 0.33544400334358215, 0.8884530067443848, 321.271484375, 76.48894500732422)" style="" bx:origin="0.671 0.059" xlink:href="#symbol-4"/>
    <use width="53.462398529052734" height="57.89950180053711" transform="matrix(-0.7479029893875122, -0.6362549662590027, -0.6362549662590027, 0.7479029893875122, 461.7300109863281, 104.85486602783203)" style="" bx:origin="0.671 0.059" xlink:href="#symbol-4"/>
    <use width="53.462398529052734" height="57.89950180053711" transform="matrix(-0.7479029893875122, -0.6362549662590027, -0.6362549662590027, 0.7479029893875122, 515.4258422851562, 74.37272644042969)" style="" bx:origin="0.671 0.059" xlink:href="#symbol-4"/>
    <use width="53.462398529052734" height="57.89950180053711" transform="matrix(-0.9274290800094604, -0.32257601618766785, -0.32257601618766785, 0.9274290800094604, 247.79212951660156, 75.6885986328125)" style="" bx:origin="0.671 0.059" xlink:href="#symbol-4"/>
    <use width="53.462398529052734" height="57.89950180053711" transform="matrix(-0.9274290800094604, -0.32257601618766785, -0.32257601618766785, 0.9274290800094604, 241.26353454589844, 135.37181091308594)" style="" bx:origin="0.671 0.059" xlink:href="#symbol-4"/>
    <use width="53.462398529052734" height="57.89950180053711" transform="matrix(-0.9795750379562378, 0.06793300807476044, 0.06793300807476044, 0.9795750379562378, 143.97723388671875, 124.6537094116211)" style="" bx:origin="0.671 0.059" xlink:href="#symbol-4"/>
    <use width="53.462398529052734" height="57.89950180053711" transform="matrix(0.746347963809967, -0.5872269868850708, 0.5872269868850708, 0.746347963809967, 108.00918579101562, 103.69804382324219)" style="" bx:origin="0.671 0.059" xlink:href="#symbol-4"/>
    <use width="53.462398529052734" height="57.89950180053711" transform="matrix(0.746347963809967, -0.5872269868850708, 0.5872269868850708, 0.746347963809967, 54.3216552734375, 73.45405578613281)" style="" bx:origin="0.671 0.059" xlink:href="#symbol-4"/>
    <use width="53.462398529052734" height="57.89950180053711" transform="matrix(-0.9635261297225952, -0.18921001255512238, -0.18921001255512238, 0.9635261297225952, 133.83197021484375, 201.38702392578125)" style="" bx:origin="0.671 0.059" xlink:href="#symbol-4"/>
    <use width="53.462398529052734" height="57.89950180053711" transform="matrix(-0.9635261297225952, -0.18921001255512238, -0.18921001255512238, 0.9635261297225952, 267.1593933105469, 306.2880554199219)" style="" bx:origin="0.671 0.059" xlink:href="#symbol-4"/>
  </g>
</svg>