<?xml version="1.0" encoding="utf-8"?>
<svg width="512px" height="512px" xmlns="http://www.w3.org/2000/svg">
  <g transform="matrix(0.968366, 0, 0, 0.968366, -5.406041, -12.103607)">
    <title>Shield</title>
    <path d="M 491.117 12.499 L 491.117 18.417 C 490.26 52.937 491.361 87.569 491.428 122.149 C 491.409 129.85 491.362 137.549 491.282 145.25 C 491.002 162.913 490.276 180.551 488.7 198.145 C 488.166 201.809 487.583 205.459 486.942 209.094 C 486.603 210.914 486.254 212.723 485.895 214.523 L 53.456 214.523 C 53.1 212.738 52.754 210.942 52.417 209.137 C 51.776 205.496 51.19 201.841 50.655 198.174 C 49.082 180.618 48.357 163.019 48.075 145.394 C 47.991 137.451 47.941 129.51 47.922 121.567 C 47.999 87.18 49.09 52.742 48.237 18.417 L 48.237 12.499 L 491.117 12.499 Z" style="stroke-width: 10px; fill: rgb(51, 51, 51);"/>
    <path d="M 341.587 475.633 C 323.173 496.675 281.786 534.822 269.676 541.225 C 257.565 534.82 216.18 496.674 197.766 475.633 C 149.384 417.596 101.767 359.61 72.646 282.024 L 466.706 282.024 C 437.586 359.61 389.97 417.596 341.587 475.633 Z" style="stroke-width: 10px; fill: rgb(34, 139, 34);"/>
    <path d="M 53.456 214.523 L 485.895 214.523 C 481.079 238.709 474.566 261.081 466.706 282.024 L 72.646 282.024 C 64.785 261.081 58.272 238.709 53.456 214.523 Z" style="fill: rgb(216, 216, 216); stroke-width: 5px;"/>
    <path d="M 48.237 12.499 L 48.237 15.457 L 48.237 18.417 C 49.09 52.742 47.999 87.18 47.922 121.567 C 47.941 129.51 47.991 137.451 48.075 145.394 C 48.357 163.019 49.082 180.618 50.655 198.174 C 51.19 201.841 51.776 205.496 52.417 209.137 C 74.226 325.998 135.36 400.773 197.766 475.633 C 216.18 496.674 257.565 534.82 269.676 541.225 C 281.786 534.822 323.173 496.675 341.587 475.633 C 404.002 400.764 465.141 325.98 486.942 209.094 C 487.583 205.459 488.166 201.809 488.7 198.145 C 490.276 180.551 491.002 162.913 491.282 145.25 C 491.362 137.549 491.409 129.85 491.428 122.149 C 491.361 87.569 490.26 52.937 491.117 18.417 L 491.117 15.457 L 491.117 12.499 Z" style="stroke-width: 10px; stroke: rgb(0, 0, 0); fill: none;"/>
  </g>
  <g transform="matrix(1.131977, 0, 0, 0.968366, -17.288279, -47.206448)" style="">
    <title>Meteor</title>
    <path style="fill: rgb(255, 0, 0); stroke: rgb(0, 0, 0); stroke-width: 5px;" d="M 80.645 197.998 C 109.288 150.025 213.173 35.553 402.113 115.684 L 374.861 189.099 C 256.084 120.044 133.089 166.021 80.645 197.998 Z"/>
    <path style="stroke: rgb(0, 0, 0);" d="M 384.316 121.803 L 365.963 170.745 C 301.8 133.014 205.184 130.846 141.183 157.586 C 204.681 126.285 296.164 125.545 363.153 162.257 L 376.44 124.783 C 302.599 92.007 233.293 100.001 185.553 118.193 C 236.108 93.027 313.226 88.197 384.316 121.803 Z"/>
  </g>
  <g transform="matrix(1.157228, 0, 0, 1.157228, -50.741222, -66.164185)" style="">
    <title>Cup</title>
    <path style="fill: rgb(255, 215, 0); stroke: rgb(0, 0, 0);" d="M 265.195 207.824 C 223.935 207.824 213.804 207.786 210.583 207.332 C 210.083 207.272 209.774 207.204 209.594 207.131 C 209.57 207.121 209.546 207.109 209.523 207.1 C 209.387 207.053 209.274 207.004 209.168 206.951 C 208.794 206.765 208.455 206.545 208.151 206.301 C 206.913 205.339 206.274 204.016 206.306 202.621 C 206.271 201.271 206.811 199.886 207.969 198.798 L 209.027 197.805 L 209.214 197.595 L 321.522 197.595 L 321.707 197.805 L 322.767 198.798 C 323.924 199.886 324.464 201.271 324.43 202.621 C 324.462 204.016 323.822 205.339 322.584 206.301 C 322.278 206.545 321.942 206.765 321.566 206.951 C 321.462 207.004 321.348 207.053 321.212 207.1 C 321.19 207.109 321.165 207.121 321.14 207.131 C 320.961 207.205 320.652 207.272 320.152 207.332 C 316.932 207.786 306.8 207.824 265.54 207.824 C 265.481 207.824 265.425 207.824 265.367 207.824 C 265.31 207.824 265.254 207.824 265.195 207.824 Z M 303.559 325.335 L 299.561 325.347 C 295.328 325.544 286.289 325.539 265.363 325.467 C 244.437 325.539 235.398 325.544 231.165 325.347 L 227.168 325.335 L 225.76 323.761 C 224.743 322.793 224.235 321.536 224.257 320.272 C 224.241 318.834 224.941 317.46 226.298 316.447 C 226.389 316.38 226.483 316.311 226.581 316.245 L 228.277 315.106 L 265.154 315.106 C 265.223 315.106 265.294 315.106 265.363 315.106 C 265.432 315.106 265.502 315.106 265.572 315.106 L 302.449 315.106 L 304.145 316.245 C 304.243 316.311 304.337 316.38 304.427 316.447 C 305.785 317.46 306.485 318.834 306.468 320.272 C 306.49 321.536 305.983 322.793 304.965 323.761 Z M 237.203 310.693 C 247.843 302.2 255.336 289.729 257.813 276.402 C 258.145 274.598 258.49 270.165 258.697 267.703 L 272.404 267.703 C 272.613 270.165 272.957 274.598 273.291 276.402 C 275.767 289.729 283.26 302.2 293.9 310.693 L 299.917 315.106 C 299.847 315.106 265.432 315.106 265.363 315.106 C 265.305 315.106 239.92 315.106 231.187 315.106 Z M 247.203 253.919 C 245.328 253.237 243.513 252.485 241.761 251.666 C 240.51 251.12 239.369 250.584 238.537 250.141 C 234.921 248.213 231.5 245.831 228.357 243.1 C 225.564 240.714 223.039 238.073 220.79 235.19 C 215.617 228.682 211.858 221.173 210.188 213.528 L 210.139 213.066 C 209.936 212.282 209.748 211.494 209.57 210.694 L 209.378 207.046 C 209.423 207.064 209.472 207.083 209.523 207.1 C 209.546 207.109 209.57 207.121 209.594 207.131 C 209.774 207.204 210.083 207.272 210.583 207.332 C 213.804 207.786 223.935 207.824 265.195 207.824 C 265.254 207.824 265.31 207.824 265.367 207.824 C 265.425 207.824 265.481 207.824 265.54 207.824 C 306.8 207.824 316.932 207.786 320.152 207.332 C 320.652 207.272 320.961 207.205 321.14 207.131 C 321.165 207.121 321.19 207.109 321.212 207.1 C 321.26 207.083 321.304 207.068 321.346 207.051 L 321.154 210.694 C 320.976 211.494 320.788 212.282 320.585 213.066 L 320.536 213.528 C 318.866 221.173 315.107 228.682 309.934 235.19 C 307.684 238.073 305.16 240.714 302.367 243.1 C 299.225 245.831 295.803 248.213 292.186 250.141 C 291.355 250.584 290.213 251.12 288.963 251.666 C 287.211 252.485 285.396 253.237 283.52 253.919 L 275.405 257.723 L 255.319 257.723 Z M 278.604 267.703 L 252.003 267.703 L 250.545 266.244 C 248.491 264.19 248.491 261.235 250.545 259.182 L 252.003 257.723 L 278.604 257.723 L 280.061 259.182 C 282.116 261.235 282.116 264.19 280.061 266.244 Z" id="path4496"/>
    <g transform="matrix(0.620379, 0, 0, 0.620379, 81.023827, 119.244705)" style="">
      <title>gem</title>
      <path d="M 271.994 180.419 L 297.295 151.082 L 322.13 180.263 L 297.14 209.134 Z M 296.442 168.649 C 290.327 168.649 285.37 173.606 285.37 179.721 C 285.37 185.836 290.327 190.793 296.442 190.793 C 302.557 190.793 307.514 185.836 307.514 179.721 C 307.514 173.606 302.557 168.649 296.442 168.649 Z" style="fill: rgb(0, 191, 255); stroke: rgb(0, 0, 0);"/>
      <path style="" d="M 297.285 154.156 L 319.494 180.252 L 297.132 206.088 L 283.613 190.403 L 297.127 204.41 L 317.399 180.247 L 297.124 156.003 L 281.974 171.798 L 297.285 154.156 Z"/>
      <path d="M 295.743 194.163 C 288.152 194.163 281.999 188.01 281.999 180.419 C 281.999 172.828 288.152 166.675 295.743 166.675 C 296.268 166.675 296.787 166.704 297.297 166.762 C 297.066 166.751 296.833 166.745 296.597 166.745 C 292.853 166.745 289.663 168.174 287.202 170.637 C 284.74 173.099 283.31 176.288 283.31 180.032 C 283.31 183.776 284.74 186.966 287.202 189.427 C 289.663 191.889 292.853 193.319 296.597 193.319 C 300.341 193.319 303.53 191.889 305.992 189.427 C 306.349 189.07 306.684 188.698 306.997 188.312 C 304.51 191.85 300.397 194.163 295.743 194.163 Z" style=""/>
    </g>
  </g>
</svg>