<?xml version="1.0" encoding="utf-8"?>
<svg version="1.0" width="1024px" height="512px" id="svg7107" xmlns="http://www.w3.org/2000/svg">
  <defs id="defs3">
    <polygon points="0,-1 0.58778525,0.80901699 -0.95105652,-0.30901699 0.95105652,-0.30901699 -0.58778525,0.80901699 0,-1 " transform="scale(53,53)" id="polygon9535"/>
    <polygon points="0,-1 0.58778525,0.80901699 -0.95105652,-0.30901699 0.95105652,-0.30901699 -0.58778525,0.80901699 0,-1 " transform="scale(53,53)" id="star"/>
    <polygon points="0,-1 0.58778525,0.80901699 -0.95105652,-0.30901699 0.95105652,-0.30901699 -0.58778525,0.80901699 0,-1 " transform="scale(53,53)" id="polygon2895"/>
    <polygon points="0,-1 0.58778525,0.80901699 -0.95105652,-0.30901699 0.95105652,-0.30901699 -0.58778525,0.80901699 0,-1 " transform="scale(53,53)" id="polygon2869"/>
    <polygon points="0,-1 0.58778525,0.80901699 -0.95105652,-0.30901699 0.95105652,-0.30901699 -0.58778525,0.80901699 0,-1 " transform="scale(53,53)" id="polygon5833"/>
    <polygon points="0,-1 0.58778525,0.80901699 -0.95105652,-0.30901699 0.95105652,-0.30901699 -0.58778525,0.80901699 0,-1 " transform="scale(53,53)" id="polygon5665"/>
    <polygon points="0,-1 0.58778525,0.80901699 -0.95105652,-0.30901699 0.95105652,-0.30901699 -0.58778525,0.80901699 0,-1 " transform="scale(53,53)" id="polygon3554"/>
    <polygon points="0,-1 0.58778525,0.80901699 -0.95105652,-0.30901699 0.95105652,-0.30901699 -0.58778525,0.80901699 0,-1 " transform="scale(53,53)" id="polygon3528"/>
    <polygon points="0,-1 0.58778525,0.80901699 -0.95105652,-0.30901699 0.95105652,-0.30901699 -0.58778525,0.80901699 0,-1 " transform="scale(53,53)" id="polygon4014"/>
    <polygon points="0,-1 0.58778525,0.80901699 -0.95105652,-0.30901699 0.95105652,-0.30901699 -0.58778525,0.80901699 0,-1 " transform="scale(53,53)" id="polygon4673"/>
    <polygon points="0,-1 0.58778525,0.80901699 -0.95105652,-0.30901699 0.95105652,-0.30901699 -0.58778525,0.80901699 0,-1 " transform="scale(53,53)" id="polygon4633"/>
    <polygon points="0,-1 0.58778525,0.80901699 -0.95105652,-0.30901699 0.95105652,-0.30901699 -0.58778525,0.80901699 0,-1 " transform="scale(53,53)" id="polygon4493"/>
    <polygon points="0,-1 0.58778525,0.80901699 -0.95105652,-0.30901699 0.95105652,-0.30901699 -0.58778525,0.80901699 0,-1 " transform="scale(53,53)" id="polygon4467"/>
    <polygon points="0,-1 0.58778525,0.80901699 -0.95105652,-0.30901699 0.95105652,-0.30901699 -0.58778525,0.80901699 0,-1 " transform="scale(53,53)" id="polygon8459"/>
    <polygon points="0,-1 0.58778525,0.80901699 -0.95105652,-0.30901699 0.95105652,-0.30901699 -0.58778525,0.80901699 0,-1 " transform="scale(53,53)" id="polygon8433"/>
    <polygon points="0,-1 0.58778525,0.80901699 -0.95105652,-0.30901699 0.95105652,-0.30901699 -0.58778525,0.80901699 0,-1 " transform="scale(53,53)" id="polygon8293"/>
    <polygon points="0,-1 0.58778525,0.80901699 -0.95105652,-0.30901699 0.95105652,-0.30901699 -0.58778525,0.80901699 0,-1 " transform="scale(53,53)" id="polygon8253"/>
    <polygon points="0,-1 0.58778525,0.80901699 -0.95105652,-0.30901699 0.95105652,-0.30901699 -0.58778525,0.80901699 0,-1 " transform="scale(53,53)" id="polygon8195"/>
    <polygon points="0,-1 0.58778525,0.80901699 -0.95105652,-0.30901699 0.95105652,-0.30901699 -0.58778525,0.80901699 0,-1 " transform="scale(53,53)" id="polygon8155"/>
    <polygon points="0,-1 0.58778525,0.80901699 -0.95105652,-0.30901699 0.95105652,-0.30901699 -0.58778525,0.80901699 0,-1 " transform="scale(53,53)" id="polygon8129"/>
    <polygon points="0,-1 0.58778525,0.80901699 -0.95105652,-0.30901699 0.95105652,-0.30901699 -0.58778525,0.80901699 0,-1 " transform="scale(53,53)" id="polygon7989"/>
    <polygon points="0,-1 0.58778525,0.80901699 -0.95105652,-0.30901699 0.95105652,-0.30901699 -0.58778525,0.80901699 0,-1 " transform="scale(53,53)" id="polygon7949"/>
    <polygon points="0,-1 0.58778525,0.80901699 -0.95105652,-0.30901699 0.95105652,-0.30901699 -0.58778525,0.80901699 0,-1 " transform="scale(53,53)" id="polygon7891"/>
    <polygon points="0,-1 0.58778525,0.80901699 -0.95105652,-0.30901699 0.95105652,-0.30901699 -0.58778525,0.80901699 0,-1 " transform="scale(53,53)" id="polygon7865"/>
    <polygon points="0,-1 0.58778525,0.80901699 -0.95105652,-0.30901699 0.95105652,-0.30901699 -0.58778525,0.80901699 0,-1 " transform="scale(53,53)" id="polygon7753"/>
    <polygon points="0,-1 0.58778525,0.80901699 -0.95105652,-0.30901699 0.95105652,-0.30901699 -0.58778525,0.80901699 0,-1 " transform="scale(53,53)" id="polygon7727"/>
    <polygon points="0,-1 0.58778525,0.80901699 -0.95105652,-0.30901699 0.95105652,-0.30901699 -0.58778525,0.80901699 0,-1 " transform="scale(53,53)" id="polygon59702"/>
    <polygon points="0,-1 0.58778525,0.80901699 -0.95105652,-0.30901699 0.95105652,-0.30901699 -0.58778525,0.80901699 0,-1 " transform="scale(53,53)" id="polygon6387"/>
    <polygon points="0,-1 0.58778525,0.80901699 -0.95105652,-0.30901699 0.95105652,-0.30901699 -0.58778525,0.80901699 0,-1 " transform="scale(53,53)" id="polygon6445"/>
    <polygon points="0,-1 0.58778525,0.80901699 -0.95105652,-0.30901699 0.95105652,-0.30901699 -0.58778525,0.80901699 0,-1 " transform="scale(53,53)" id="polygon7627"/>
    <polygon points="0,-1 0.58778525,0.80901699 -0.95105652,-0.30901699 0.95105652,-0.30901699 -0.58778525,0.80901699 0,-1 " transform="scale(53,53)" id="polygon23593"/>
    <polygon points="0,-1 0.58778525,0.80901699 -0.95105652,-0.30901699 0.95105652,-0.30901699 -0.58778525,0.80901699 0,-1 " transform="scale(53,53)" id="polygon23535"/>
    <polygon points="0,-1 0.58778525,0.80901699 -0.95105652,-0.30901699 0.95105652,-0.30901699 -0.58778525,0.80901699 0,-1 " transform="scale(53,53)" id="polygon23513"/>
    <polygon points="0,-1 0.58778525,0.80901699 -0.95105652,-0.30901699 0.95105652,-0.30901699 -0.58778525,0.80901699 0,-1 " transform="scale(53,53)" id="polygon26392"/>
    <polygon points="0,-1 0.58778525,0.80901699 -0.95105652,-0.30901699 0.95105652,-0.30901699 -0.58778525,0.80901699 0,-1 " transform="scale(53,53)" id="polygon10133"/>
    <polygon points="0,-1 0.58778525,0.80901699 -0.95105652,-0.30901699 0.95105652,-0.30901699 -0.58778525,0.80901699 0,-1 " transform="scale(53,53)" id="polygon11842"/>
    <polygon points="0,-1 0.58778525,0.80901699 -0.95105652,-0.30901699 0.95105652,-0.30901699 -0.58778525,0.80901699 0,-1 " transform="scale(53,53)" id="polygon11640"/>
    <polygon points="0,-1 0.58778525,0.80901699 -0.95105652,-0.30901699 0.95105652,-0.30901699 -0.58778525,0.80901699 0,-1 " transform="scale(53,53)" id="polygon53522"/>
    <polygon points="0,-1 0.58778525,0.80901699 -0.95105652,-0.30901699 0.95105652,-0.30901699 -0.58778525,0.80901699 0,-1 " transform="scale(53,53)" id="polygon13405"/>
    <polygon points="0,-1 0.58778525,0.80901699 -0.95105652,-0.30901699 0.95105652,-0.30901699 -0.58778525,0.80901699 0,-1 " transform="scale(53,53)" id="polygon17969"/>
    <polygon points="0,-1 0.58778525,0.80901699 -0.95105652,-0.30901699 0.95105652,-0.30901699 -0.58778525,0.80901699 0,-1 " transform="scale(53,53)" id="polygon68220"/>
    <polygon points="0,-1 0.58778525,0.80901699 -0.95105652,-0.30901699 0.95105652,-0.30901699 -0.58778525,0.80901699 0,-1 " transform="scale(53,53)" id="polygon68195"/>
    <polygon id="polygon5678" transform="scale(53,53)" points="0,-1 0.58778525,0.80901699 -0.95105652,-0.30901699 0.95105652,-0.30901699 -0.58778525,0.80901699 0,-1 "/>
    <polygon id="polygon5652" transform="scale(53,53)" points="0,-1 0.58778525,0.80901699 -0.95105652,-0.30901699 0.95105652,-0.30901699 -0.58778525,0.80901699 0,-1 "/>
    <polygon id="polygon5511" transform="scale(53,53)" points="0,-1 0.58778525,0.80901699 -0.95105652,-0.30901699 0.95105652,-0.30901699 -0.58778525,0.80901699 0,-1 "/>
    <polygon id="polygon5471" transform="scale(53,53)" points="0,-1 0.58778525,0.80901699 -0.95105652,-0.30901699 0.95105652,-0.30901699 -0.58778525,0.80901699 0,-1 "/>
    <polygon id="polygon5413" transform="scale(53,53)" points="0,-1 0.58778525,0.80901699 -0.95105652,-0.30901699 0.95105652,-0.30901699 -0.58778525,0.80901699 0,-1 "/>
    <polygon id="polygon5372" transform="scale(53,53)" points="0,-1 0.58778525,0.80901699 -0.95105652,-0.30901699 0.95105652,-0.30901699 -0.58778525,0.80901699 0,-1 "/>
    <polygon id="polygon5346" transform="scale(53,53)" points="0,-1 0.58778525,0.80901699 -0.95105652,-0.30901699 0.95105652,-0.30901699 -0.58778525,0.80901699 0,-1 "/>
    <polygon id="polygon5206" transform="scale(53,53)" points="0,-1 0.58778525,0.80901699 -0.95105652,-0.30901699 0.95105652,-0.30901699 -0.58778525,0.80901699 0,-1 "/>
    <polygon id="polygon5165" transform="scale(53,53)" points="0,-1 0.58778525,0.80901699 -0.95105652,-0.30901699 0.95105652,-0.30901699 -0.58778525,0.80901699 0,-1 "/>
    <polygon id="polygon5107" transform="scale(53,53)" points="0,-1 0.58778525,0.80901699 -0.95105652,-0.30901699 0.95105652,-0.30901699 -0.58778525,0.80901699 0,-1 "/>
    <polygon id="polygon5081" transform="scale(53,53)" points="0,-1 0.58778525,0.80901699 -0.95105652,-0.30901699 0.95105652,-0.30901699 -0.58778525,0.80901699 0,-1 "/>
    <polygon id="polygon4970" transform="scale(53,53)" points="0,-1 0.58778525,0.80901699 -0.95105652,-0.30901699 0.95105652,-0.30901699 -0.58778525,0.80901699 0,-1 "/>
    <polygon id="polygon4944" transform="scale(53,53)" points="0,-1 0.58778525,0.80901699 -0.95105652,-0.30901699 0.95105652,-0.30901699 -0.58778525,0.80901699 0,-1 "/>
    <polygon id="polygon6050" transform="scale(53,53)" points="0,-1 0.58778525,0.80901699 -0.95105652,-0.30901699 0.95105652,-0.30901699 -0.58778525,0.80901699 0,-1 "/>
    <polygon id="polygon6024" transform="scale(53,53)" points="0,-1 0.58778525,0.80901699 -0.95105652,-0.30901699 0.95105652,-0.30901699 -0.58778525,0.80901699 0,-1 "/>
    <polygon id="polygon5884" transform="scale(53,53)" points="0,-1 0.58778525,0.80901699 -0.95105652,-0.30901699 0.95105652,-0.30901699 -0.58778525,0.80901699 0,-1 "/>
    <polygon id="polygon5844" transform="scale(53,53)" points="0,-1 0.58778525,0.80901699 -0.95105652,-0.30901699 0.95105652,-0.30901699 -0.58778525,0.80901699 0,-1 "/>
    <polygon id="polygon5785" transform="scale(53,53)" points="0,-1 0.58778525,0.80901699 -0.95105652,-0.30901699 0.95105652,-0.30901699 -0.58778525,0.80901699 0,-1 "/>
    <polygon id="polygon5745" transform="scale(53,53)" points="0,-1 0.58778525,0.80901699 -0.95105652,-0.30901699 0.95105652,-0.30901699 -0.58778525,0.80901699 0,-1 "/>
    <polygon id="polygon5719" transform="scale(53,53)" points="0,-1 0.58778525,0.80901699 -0.95105652,-0.30901699 0.95105652,-0.30901699 -0.58778525,0.80901699 0,-1 "/>
    <polygon id="polygon5576" transform="scale(53,53)" points="0,-1 0.58778525,0.80901699 -0.95105652,-0.30901699 0.95105652,-0.30901699 -0.58778525,0.80901699 0,-1 "/>
    <polygon id="polygon5536" transform="scale(53,53)" points="0,-1 0.58778525,0.80901699 -0.95105652,-0.30901699 0.95105652,-0.30901699 -0.58778525,0.80901699 0,-1 "/>
    <polygon id="polygon5478" transform="scale(53,53)" points="0,-1 0.58778525,0.80901699 -0.95105652,-0.30901699 0.95105652,-0.30901699 -0.58778525,0.80901699 0,-1 "/>
    <polygon id="polygon5452" transform="scale(53,53)" points="0,-1 0.58778525,0.80901699 -0.95105652,-0.30901699 0.95105652,-0.30901699 -0.58778525,0.80901699 0,-1 "/>
    <polygon id="polygon5339" transform="scale(53,53)" points="0,-1 0.58778525,0.80901699 -0.95105652,-0.30901699 0.95105652,-0.30901699 -0.58778525,0.80901699 0,-1 "/>
    <polygon id="polygon5313" transform="scale(53,53)" points="0,-1 0.58778525,0.80901699 -0.95105652,-0.30901699 0.95105652,-0.30901699 -0.58778525,0.80901699 0,-1 "/>
  </defs>
  <rect x="256" width="512" height="512" style="fill: none;"/>
  <path id="path-1" style="fill-opacity: 1; fill-rule: evenodd; fill: rgb(34, 139, 34); stroke: rgb(0, 0, 0); stroke-width: 2px;" d="M 255.98 73.594 L 257.579 97.599 C 272.529 94.118 286.379 60.981 286.379 41.604 L 286.379 27.193 C 286.379 18.246 284.439 9.165 281.577 3.201 C 266.931 13.007 253.461 46.729 255.98 73.594 M 281.577 79.992 C 289.218 47.228 317.048 7.769 350.376 0 C 349.544 37.707 314.216 72.406 281.577 79.992 M 247.986 131.2 C 258.518 111.293 264.641 100.389 283.178 88 C 295.195 79.951 320.916 68.792 340.785 68.792 C 335.083 93.231 280.753 131.2 247.986 131.2 M 220.78 104 L 220.78 116.797 C 220.78 125.577 227.199 141.176 230.379 147.203 C 240.552 140.378 251.178 106.096 251.178 88.008 L 251.178 67.2 C 251.178 58.857 246.623 48.341 243.178 43.201 C 232.589 50.283 220.78 85.33 220.78 104 M 188.78 100.802 C 188.78 95.285 189.96 94.599 190.374 89.602 C 207.216 100.87 223.975 133.891 223.975 161.602 L 223.975 172.805 L 222.186 187.174 C 208.61 183.524 188.78 146.73 188.78 128.003 L 188.78 100.802 Z M 227.178 206.406 L 227.178 216.008 C 239.598 213.109 255.447 194.603 260.808 184.026 C 264.857 176.021 277.786 145.773 276.798 134.271 C 275.417 118.19 227.178 163.052 227.178 206.406 M 223.975 248 C 223.975 208.205 205.453 167.241 174.376 159.995 C 174.376 192.562 199.341 242.259 223.975 248 M 159.983 219.198 C 177.387 220.654 197.516 235.138 207.572 245.205 C 227.896 265.511 223.427 268.308 235.173 292.792 C 219.888 291.528 197.419 275.031 188.369 265.994 C 175.12 252.75 168.482 236.911 159.983 219.198 M 235.173 255.997 L 235.173 251.203 C 235.173 232.018 239.793 223.644 246.384 211.193 C 256.287 217.838 262.376 234.595 262.376 251.203 L 262.376 265.602 C 262.376 286.734 257.897 292.097 254.371 307.206 C 241.353 303.722 235.173 274.236 235.173 255.997 M 278.374 356.805 C 264.23 330.057 234.071 287.997 195.178 287.997 C 198.836 316.49 244.97 356.805 278.374 356.805 M 268.772 287.997 C 289.678 301.99 315.181 337.368 315.181 372.797 L 315.181 385.596 C 287.84 378.301 268.772 326.56 268.772 287.997 M 279.973 390.404 C 249.738 390.404 203.217 371.941 193.574 353.607 L 220.78 351.997 L 222.374 351.997 C 247.577 351.997 299.511 372.051 303.975 388.802 C 300.39 389.639 300.304 390.404 295.975 390.404 L 279.973 390.404 Z M 291.186 396.807 C 273.525 396.807 248.352 402.683 241.577 412.802 C 266.211 418.535 278.046 425.602 311.973 425.602 L 315.181 425.602 C 328.337 425.602 349.916 419.055 355.181 411.2 C 340.803 401.581 317.014 396.807 292.775 396.807 L 291.186 396.807 Z M 323.173 355.203 C 356.97 355.949 398.816 398.848 401.585 432 C 354.372 407.028 348.359 402.797 323.173 355.203 M 345.572 452.799 L 329.579 452.799 C 311.739 452.799 305.993 449.482 292.775 446.398 C 300.413 435.005 332.268 425.602 351.978 425.602 L 358.376 425.602 C 380.491 425.602 388.515 436.006 401.691 438.289 C 440.623 445.031 487.596 469.491 511.658 500.464 L 499.181 512 C 476.941 486.874 462.943 453.408 395.183 442.361 C 395.183 442.361 359.096 453.556 345.572 452.799 Z" transform="matrix(0.984808, -0.173648, 0.173648, 0.984808, -39.352028, 62.20376)"/>
  <path id="path-1" style="fill-opacity: 1; fill-rule: evenodd; fill: rgb(34, 139, 34); stroke: rgb(0, 0, 0); stroke-width: 2px;" d="M 742.629 79.933 C 735.181 47.975 705.917 7.459 673.878 0 C 674.725 37.817 709.915 72.323 742.629 79.933 M 737.833 20.792 C 737.833 14.858 740.686 7.241 742.629 3.198 C 758.015 13.499 768.214 42.846 768.214 68.741 L 768.214 79.933 L 766.383 97.501 C 752.177 96.329 737.833 60.445 737.833 43.169 L 737.833 20.792 Z M 773.01 67.151 L 773.01 84.737 C 773.01 105.222 782.452 139.492 793.794 147.094 C 796.974 141.072 803.378 125.484 803.378 116.71 L 803.378 103.923 C 803.378 85.137 790.76 48.72 781.004 41.573 C 778.417 46.442 773.01 60.019 773.01 67.151 M 776.206 131.103 C 743.125 131.103 689.201 93.326 683.47 68.741 C 730.629 68.741 759.537 99.589 776.206 131.103 M 800.18 167.876 C 800.18 134.652 814.033 102.741 833.76 89.535 C 834.599 93.113 835.36 93.214 835.36 97.527 L 835.36 127.908 C 835.36 146.569 815.322 183.445 801.781 187.059 L 799.835 169.523 L 800.18 167.876 Z M 800.18 247.816 C 824.773 242.09 849.745 192.481 849.745 159.876 C 818.696 167.117 800.18 208.051 800.18 247.816 M 747.425 132.704 C 747.425 121.124 796.987 158.593 796.987 206.253 L 796.987 215.848 C 773.808 210.436 747.425 162.365 747.425 132.704 M 788.993 292.575 C 800.656 268.276 796.494 265.137 816.569 245.023 C 826.602 234.964 846.763 220.483 864.138 219.036 C 853.471 241.28 852.224 247.746 834.973 265.01 C 824.672 275.298 806.733 291.109 788.993 292.575 M 769.815 306.978 C 782.823 303.497 788.993 274.033 788.993 255.808 L 788.993 244.61 C 788.993 230.163 782.865 220.605 777.801 211.036 C 767.9 217.677 761.818 234.421 761.818 251.017 L 761.818 275.002 C 761.818 287.457 767.37 296.493 769.815 306.978 M 709.05 385.311 C 736.381 378.021 755.419 326.164 755.419 287.784 C 734.404 301.86 709.05 336.962 709.05 372.521 L 709.05 385.311 Z M 745.825 356.54 C 778.51 356.54 826.683 315.201 828.971 287.784 C 788.476 287.784 760.449 328.898 745.825 356.54 M 742.629 390.114 L 728.239 390.114 C 723.924 390.114 723.825 389.351 720.247 388.514 C 724.617 372.131 779.305 349.185 806.613 351.368 L 830.561 353.345 C 825.989 370.476 771.181 390.114 742.629 390.114 M 667.484 410.896 C 673.275 418.807 696.237 425.286 710.645 425.286 L 718.644 425.286 C 748.051 425.286 760.807 417.562 782.602 412.496 C 776.286 403.06 750.909 396.513 734.638 396.513 L 720.247 396.513 C 702.763 396.513 679.077 404.767 667.484 410.896 M 622.721 431.68 C 625.469 398.602 666.978 355.699 701.058 354.94 C 675.959 402.385 669.846 406.744 622.721 431.68 M 573.691 453.345 C 580.329 449.83 656.318 425.286 664.281 425.286 L 677.076 425.286 C 693.4 425.286 724.765 436.112 731.432 446.068 C 718.234 449.149 712.495 452.464 694.66 452.464 L 681.877 452.464 C 660.732 452.464 634.604 441.269 629.109 441.269 C 624.396 441.269 601.513 448.653 583.46 456.556 C 555.736 468.691 533.388 499.145 526.413 512 L 513.994 498.823 C 529.457 478.143 563.715 458.868 573.691 453.345 Z" transform="matrix(0.984808, 0.173648, -0.173648, 0.984808, 54.922323, -115.765719)"/>
</svg>