<?xml version="1.0" encoding="utf-8"?>
<svg viewBox="0 0 500 500" xmlns="http://www.w3.org/2000/svg" xmlns:xlink="http://www.w3.org/1999/xlink" xmlns:bx="https://boxy-svg.com">
  <defs>
    <linearGradient id="color-0" bx:pinned="true">
      <title>blue</title>
      <stop style="stop-color: rgb(0, 145, 255);"/>
    </linearGradient>
    <symbol id="symbol-0" viewBox="0 0 69.869 100" bx:pinned="true">
      <title>Emerald</title>
      <g transform="matrix(0.199182, 0, 0, 0.199182, -16.051792, -0.990457)" style="">
        <path d="M 360.53 7.929 C 358.56 5.696 356.531 4.806 353.572 4.998 L 158.541 5 C 155.567 4.813 153.505 5.619 151.55 7.848 L 83.545 75.853 C 81.312 77.823 80.422 79.852 80.614 82.811 L 80.616 429.075 C 80.429 432.048 81.236 434.11 83.465 436.068 L 151.47 504.07 C 153.44 506.303 155.469 507.193 158.428 507.001 L 353.459 506.999 C 356.433 507.186 358.495 506.38 360.45 504.151 L 428.455 436.146 C 430.688 434.176 431.578 432.147 431.386 429.188 L 431.384 82.924 C 431.571 79.951 430.764 77.888 428.536 75.932 L 360.53 7.929 Z"/>
        <path d="M 361.384 118.602 L 411.384 97.888 L 411.384 414.111 L 361.384 393.398 L 361.384 118.602 Z" style="fill: rgb(4, 99, 7);"/>
        <path d="M 353.728 411.874 L 403.728 432.588 L 356.971 479.344 L 336.258 429.344 L 353.728 411.874 Z" style="fill: rgb(2, 67, 5);"/>
        <path d="M 317.781 437 L 338.495 487 L 173.505 487 L 194.219 437 L 317.781 437 Z" style="fill: rgb(4, 99, 7);"/>
        <path d="M 175.742 429.344 L 155.028 479.344 L 108.271 432.588 L 158.272 411.874 L 175.742 429.344 Z" style="fill: rgb(0, 35, 1);"/>
        <path d="M 150.616 393.397 L 100.616 414.111 L 100.616 97.889 L 150.616 118.602 L 150.616 393.397 Z" style="fill: rgb(4, 99, 7);"/>
        <path d="M 158.272 100.126 L 108.272 79.412 L 155.029 32.656 L 175.742 82.656 L 158.272 100.126 Z" style="fill: rgb(2, 67, 5);"/>
        <path d="M 194.219 75 L 173.505 25 L 338.495 25 L 317.781 75 L 194.219 75 Z" style="fill: rgb(4, 99, 7);"/>
        <path d="M 341.384 116.063 L 341.384 395.937 L 320.321 417 L 191.679 417 L 170.616 395.937 L 170.616 116.063 L 191.679 95 L 320.321 95 L 341.384 116.063 Z" style="fill: rgb(4, 99, 7);"/>
        <path d="M 336.258 82.656 L 356.972 32.656 L 403.729 79.412 L 353.728 100.126 L 336.258 82.656 Z" style="fill: rgb(36, 210, 41);"/>
      </g>
    </symbol>
  </defs>
  <g>
    <path d="M 253.642 507 C 242.029 500.859 202.344 464.28 184.687 444.104 C 124.845 372.32 66.223 300.617 45.31 188.558 C 44.696 185.067 44.134 181.562 43.621 178.046 C 42.112 161.211 41.417 144.335 41.147 127.434 C 41.066 119.818 41.018 112.203 41 104.586 C 41.074 71.612 42.12 38.589 41.302 5.675 L 41.302 0 L 256 0 L 256 505.592 C 255.122 506.163 254.332 506.635 253.642 507 Z" style="stroke: rgb(0, 0, 0); fill: rgb(75, 0, 130); stroke-width: 5px;"/>
    <path d="M 465.984 0 L 465.984 5.675 C 465.162 38.776 466.218 71.985 466.282 105.144 C 466.264 112.529 466.219 119.912 466.142 127.296 C 465.874 144.233 465.178 161.147 463.666 178.018 C 463.154 181.531 462.595 185.031 461.981 188.517 C 441.075 300.6 382.449 372.311 322.598 444.104 C 305.991 463.082 269.895 496.57 256 505.592 L 256 0 Z" style="stroke: rgb(0, 0, 0); fill: rgb(255, 215, 0); stroke-width: 5px;"/>
    <path d="M 41.302 0 L 41.302 2.836 L 41.302 5.675 C 42.12 38.589 41.074 71.612 41 104.586 C 41.018 112.203 41.066 119.818 41.147 127.434 C 41.417 144.335 42.112 161.211 43.621 178.046 C 44.134 181.562 44.696 185.067 45.31 188.558 C 66.223 300.617 124.845 372.32 184.687 444.104 C 202.344 464.28 242.029 500.859 253.642 507 C 265.254 500.861 304.941 464.281 322.598 444.104 C 382.449 372.311 441.075 300.6 461.981 188.517 C 462.595 185.031 463.154 181.531 463.666 178.018 C 465.178 161.147 465.874 144.233 466.142 127.296 C 466.219 119.912 466.264 112.529 466.282 105.144 C 466.218 71.985 465.162 38.776 465.984 5.675 L 465.984 2.836 L 465.984 0 Z" style="stroke-width: 10px; stroke: rgb(0, 0, 0); fill: none;"/>
  </g>
  <use width="63.999900817871094" height="91.58869934082031" transform="matrix(0.928062, 0, 0, 0.928062, 330, 150)" xlink:href="#symbol-0"/>
  <use width="63.999900817871094" height="91.58869934082031" transform="matrix(0.928062, 0, 0, 0.928062, 280, 260)" xlink:href="#symbol-0"/>
  <use width="63.999900817871094" height="91.58869934082031" transform="matrix(0.92795, 0, 0, 0.928062, 380, 40)" xlink:href="#symbol-0"/>
  <path d="M 206.338 227.547 C 201.376 228.875 196.083 229.303 191.265 230.946 C 199.425 223.949 198.96 213.123 204.404 204.883 C 206.138 202.549 207.571 200.103 209.593 197.89 C 206.282 204.532 207.718 213.152 203.913 219.598 C 202.448 222.158 200.355 224.643 198.038 226.654 C 198.795 226.625 199.457 225.971 200.123 225.533 C 206.302 219.367 214.375 217.642 221.059 212.633 C 223.737 210.499 226.189 207.703 227.367 204.679 C 226.102 214.91 215.924 224.499 206.338 227.547 L 206.338 227.547 Z M 228.599 186.125 C 225.576 190.427 221.919 194.432 219.125 198.805 C 219.437 195.343 219.847 191.086 218.499 187.807 C 216.162 180.745 214.109 173.576 213.446 165.825 L 213.537 162.861 C 215.296 170.776 223.071 176.217 222.581 185.094 C 222.758 187.246 222.093 189.075 221.69 190.967 L 221.824 191.107 L 222.173 190.714 C 223.326 186.36 223.909 181.781 225.701 177.717 C 228.249 171.872 231.43 165.97 230.134 158.911 C 234.008 167.233 232.835 178.354 228.599 186.125 L 228.599 186.125 Z M 223.827 141.285 C 228.925 148.194 230.043 159.204 226.33 167.129 C 224.946 170.487 223.968 174.066 223.425 177.783 C 223.165 177.142 223.105 176.28 222.874 175.565 C 220.846 167.807 213.509 162.28 210.492 154.966 C 209.536 152.574 208.721 150.104 208.268 147.507 C 211.491 153.469 219.437 156.55 221.602 163.12 C 222.489 164.782 222.439 166.858 222.99 168.645 C 223.105 168.645 223.221 168.56 223.221 168.442 C 222.267 161.674 222.559 154.589 223.477 147.904 C 223.425 144.284 223.071 140.772 221.059 137.968 C 222.349 138.72 222.93 140.164 223.827 141.285 L 223.827 141.285 Z M 220.232 139.958 C 221.572 146.012 219.616 151.908 220.846 158.021 L 220.8 158.073 C 217.507 151.597 210.514 148.541 205.703 143.357 C 202.914 140.281 201.702 136.532 201.006 132.562 C 203.762 139.209 211.201 140.673 215.472 146.273 C 216.901 147.565 217.367 149.354 218.288 150.817 L 218.439 150.672 C 215.983 145.429 215.16 139.529 213.446 133.938 C 212.588 131.515 210.886 129.135 208.601 127.607 C 214.208 128.752 219.066 134.605 220.232 139.958 L 220.232 139.958 Z M 205.245 126.074 C 209.466 129.853 211.376 134.745 212.61 139.814 L 213.306 141.424 C 207.178 137.017 201.612 131.093 197.698 124.835 L 192.919 120 C 197.12 121.782 201.65 122.845 205.245 126.074 L 205.245 126.074 Z M 108.459 120.802 C 104.223 124.516 101.285 129.213 98.142 133.592 C 95.326 137.08 91.722 139.38 88.529 142.38 C 90.253 138.806 90.315 134.537 92.761 131.254 C 96.24 125.184 102.692 123.048 108.459 120.802 L 108.459 120.802 Z M 85.293 133.735 C 87.353 131.173 89.966 129.394 92.905 128.642 C 87.198 132.562 87.569 139.588 85.759 145.429 C 85.183 147.589 84.181 149.579 83.682 151.793 L 83.827 151.908 C 84.777 149.406 86.446 147.041 88.529 144.998 C 92.582 141.257 98.579 138.925 100.565 133.389 C 100.474 141.081 94.058 147.128 87.918 151.451 C 85.386 153.673 82.945 156.204 81.55 159.06 C 81.413 157.119 81.837 155.171 81.699 153.092 C 81.031 146.377 80.546 138.713 85.293 133.735 L 85.293 133.735 Z M 73.746 156.695 C 73.574 149.89 76.398 144.336 80.377 139.267 C 80.493 139.209 80.575 139.093 80.724 139.121 C 76.344 145.778 79.968 154.163 79.768 161.733 L 79.19 169.483 C 79.276 169.539 79.276 169.772 79.479 169.682 C 79.738 168.819 79.795 167.895 79.968 167.007 C 80.999 160.756 86.429 156.32 91.17 152 C 92.183 150.87 93.078 149.723 93.598 148.397 C 93.211 151.51 92.235 154.648 90.944 157.527 C 87.253 164.724 80.436 170.631 79.19 178.87 C 78.586 170.973 73.21 165.07 73.746 156.695 L 73.746 156.695 Z M 70.432 166.371 C 70.922 164.243 71.297 162.041 72.223 160.088 C 70.468 169.084 76.519 175.565 78.503 183.363 C 79.334 186.278 79.537 189.411 80.724 192.148 C 80.835 192.207 80.932 192.091 80.999 192.004 C 78.044 183.721 82.311 176.024 86.597 169.539 C 87.639 167.782 88.24 165.825 88.759 163.805 C 89.214 167.554 88.266 171.872 87.722 175.763 C 86.679 180.715 85.124 185.412 83.769 190.217 C 82.878 193.22 83.112 196.607 83.569 199.754 L 83.14 199.41 C 79.998 193.616 73.775 189.095 71.927 182.765 C 70.406 177.717 69.396 171.872 70.432 166.371 L 70.432 166.371 Z M 70.148 183.94 C 70.84 193.475 81.093 198.514 85.845 206.407 C 86.97 208.022 87.946 209.809 89.448 211.161 C 89.214 210.145 88.266 209.291 87.918 208.249 C 86.255 204.94 85.649 200.994 86.049 196.992 C 86.509 192.123 88.552 187.603 87.772 182.481 C 91.948 191.485 90.68 202.724 93.015 212.482 C 93.627 214.616 94.861 216.521 95.671 218.561 C 87.091 212.717 75.391 207.157 71.584 196.447 C 69.98 192.753 69.801 188.181 70.148 183.94 L 70.148 183.94 Z M 75.273 205.836 C 80.057 216.659 92.04 217.555 100.073 224.146 C 101.552 225.456 103.1 226.57 104.769 227.347 L 104.856 227.26 C 103.011 225.593 100.877 223.693 99.586 221.532 C 94.884 214.994 96.538 205.836 93.015 198.805 C 96.216 202.634 99.127 206.614 101.059 210.957 C 103.934 218.049 105.033 226.058 111.685 231.418 C 104.486 229.046 96.053 229.709 89.7 225.277 C 82.762 221.013 76.571 213.782 75.273 205.836 L 75.273 205.836 Z M 87.569 226.027 C 95.24 234.75 107.774 231.839 117.992 234.123 C 119.435 234.32 120.757 234.898 122.286 234.663 C 121.068 233.893 119.378 233.976 118.049 233.276 C 110.039 230.462 108.864 221.79 104.515 215.943 C 110.071 219.632 114.74 224.608 119.865 229.429 C 123.548 232.655 127.982 234.144 132.654 235.094 C 131.532 235.504 130.06 235.392 128.855 235.708 C 120.462 237.771 111.137 241.145 102.237 238.125 C 96.45 236.303 90.48 231.727 87.569 226.027 L 87.569 226.027 Z M 191.683 246.362 C 183.038 249.588 174.017 246.214 167.266 241.095 C 164.533 239.358 162.123 236.855 158.588 237.077 C 157.305 237.053 156.069 237.115 154.979 237.43 C 161.538 240.483 167.63 244.69 173.201 250.072 C 172.262 251.144 171.046 252.146 169.901 253.07 C 164.533 247.286 158.588 241.719 151.931 238.467 C 150.628 238.636 149.387 239.42 148.212 240.052 C 142.793 243.478 137.435 247.885 133.406 253.281 L 129.945 250.422 C 135.47 244.833 141.581 240.483 148.266 237.374 C 141.697 235.294 137.409 240.797 132.422 243.596 C 126.611 247.654 118.253 249.56 111.23 246.76 C 107.453 245.328 103.794 243.218 101.059 239.789 C 106.586 243.596 114.817 243.996 121.104 241.523 C 129.537 237.864 138.302 233.227 148.47 235.444 C 150.057 235.473 151.598 237.053 153.097 235.708 C 160.654 233.745 169.211 235.094 175.717 238.548 L 182.422 241.236 C 188.655 243.541 196.714 242.903 202.057 239.105 C 199.31 242.525 195.557 244.974 191.683 246.362 L 191.683 246.362 Z M 200.946 237.43 C 191.24 241.095 181.478 236.596 172.178 235.094 L 170.387 234.866 L 170.387 234.809 C 174.834 233.801 179.15 232.477 182.689 229.282 C 187.902 224.271 192.541 219.114 198.329 215.166 C 194.036 220.67 193.582 228.504 186.49 232.043 C 184.735 233.191 182.52 233.394 180.709 234.264 C 183.292 234.32 185.657 233.394 188.214 233.136 C 197.723 231.643 208.601 233.174 215.272 225.074 C 212.795 230.718 206.593 235.444 200.946 237.43 L 200.946 237.43 Z M 218.579 210.124 C 214.746 212.633 210.862 214.959 207.178 217.811 L 207.178 217.461 C 212.819 208.085 210.062 195.206 213.537 184.888 L 214.834 181.431 C 214.109 187.86 216.901 193.303 216.704 199.754 C 216.509 203.649 215.237 207.104 213.191 210.215 L 213.537 210.215 C 216.301 206.585 218.46 202.724 221.69 199.267 C 226.704 194.432 231.802 189.475 232.459 182.765 C 234.163 193.965 227.877 203.782 218.579 210.124 L 218.579 210.124 Z" style="fill: rgb(255, 255, 255);"/>
</svg>