<?xml version="1.0" encoding="utf-8"?>
<svg viewBox="0 0 500 500" xmlns="http://www.w3.org/2000/svg" xmlns:xlink="http://www.w3.org/1999/xlink" xmlns:bx="https://boxy-svg.com">
  <defs>
    <linearGradient id="color-0" bx:pinned="true">
      <title>blue</title>
      <stop style="stop-color: rgb(0, 145, 255);"/>
    </linearGradient>
    <symbol id="symbol-0" viewBox="0 0 69.869 100" bx:pinned="true">
      <title>Emerald</title>
      <g transform="matrix(0.199182, 0, 0, 0.199182, -16.051792, -0.990457)" style="">
        <path d="M 360.53 7.929 C 358.56 5.696 356.531 4.806 353.572 4.998 L 158.541 5 C 155.567 4.813 153.505 5.619 151.55 7.848 L 83.545 75.853 C 81.312 77.823 80.422 79.852 80.614 82.811 L 80.616 429.075 C 80.429 432.048 81.236 434.11 83.465 436.068 L 151.47 504.07 C 153.44 506.303 155.469 507.193 158.428 507.001 L 353.459 506.999 C 356.433 507.186 358.495 506.38 360.45 504.151 L 428.455 436.146 C 430.688 434.176 431.578 432.147 431.386 429.188 L 431.384 82.924 C 431.571 79.951 430.764 77.888 428.536 75.932 L 360.53 7.929 Z"/>
        <path d="M 361.384 118.602 L 411.384 97.888 L 411.384 414.111 L 361.384 393.398 L 361.384 118.602 Z" style="fill: rgb(4, 99, 7);"/>
        <path d="M 353.728 411.874 L 403.728 432.588 L 356.971 479.344 L 336.258 429.344 L 353.728 411.874 Z" style="fill: rgb(2, 67, 5);"/>
        <path d="M 317.781 437 L 338.495 487 L 173.505 487 L 194.219 437 L 317.781 437 Z" style="fill: rgb(4, 99, 7);"/>
        <path d="M 175.742 429.344 L 155.028 479.344 L 108.271 432.588 L 158.272 411.874 L 175.742 429.344 Z" style="fill: rgb(0, 35, 1);"/>
        <path d="M 150.616 393.397 L 100.616 414.111 L 100.616 97.889 L 150.616 118.602 L 150.616 393.397 Z" style="fill: rgb(4, 99, 7);"/>
        <path d="M 158.272 100.126 L 108.272 79.412 L 155.029 32.656 L 175.742 82.656 L 158.272 100.126 Z" style="fill: rgb(2, 67, 5);"/>
        <path d="M 194.219 75 L 173.505 25 L 338.495 25 L 317.781 75 L 194.219 75 Z" style="fill: rgb(4, 99, 7);"/>
        <path d="M 341.384 116.063 L 341.384 395.937 L 320.321 417 L 191.679 417 L 170.616 395.937 L 170.616 116.063 L 191.679 95 L 320.321 95 L 341.384 116.063 Z" style="fill: rgb(4, 99, 7);"/>
        <path d="M 336.258 82.656 L 356.972 32.656 L 403.729 79.412 L 353.728 100.126 L 336.258 82.656 Z" style="fill: rgb(36, 210, 41);"/>
      </g>
    </symbol>
  </defs>
  <g>
    <path d="M 465.975 0 L 465.975 5.675 C 465.129 38.776 466.216 71.985 466.282 105.144 C 466.263 112.529 466.217 119.912 466.138 127.296 C 465.862 144.233 465.146 161.147 463.59 178.018 C 463.063 181.531 462.488 185.031 461.856 188.517 C 440.342 300.6 380.01 372.311 318.418 444.104 C 301.328 463.082 264.181 496.57 249.882 505.592 L 249.882 0 Z" style="stroke-width: 5px; fill: rgb(255, 255, 255);"/>
    <path d="M 251.973 507 C 240.36 500.859 200.675 464.28 183.018 444.104 C 123.176 372.32 64.554 300.617 43.641 188.558 C 43.027 185.067 42.465 181.562 41.952 178.046 C 40.443 161.211 39.748 144.335 39.478 127.434 C 39.397 119.818 39.349 112.203 39.331 104.586 C 39.405 71.612 40.451 38.589 39.633 5.675 L 39.633 0 L 254.331 0 L 254.331 505.592 C 253.453 506.163 252.663 506.635 251.973 507 Z" style="fill: rgb(75, 0, 130); stroke-width: 5px;"/>
    <path d="M 41.302 0 L 41.302 2.836 L 41.302 5.675 C 42.12 38.589 41.074 71.612 41 104.586 C 41.018 112.203 41.066 119.818 41.147 127.434 C 41.417 144.335 42.112 161.211 43.621 178.046 C 44.134 181.562 44.696 185.067 45.31 188.558 C 66.223 300.617 124.845 372.32 184.687 444.104 C 202.344 464.28 242.029 500.859 253.642 507 C 265.254 500.861 304.941 464.281 322.598 444.104 C 382.449 372.311 441.075 300.6 461.981 188.517 C 462.595 185.031 463.154 181.531 463.666 178.018 C 465.178 161.147 465.874 144.233 466.142 127.296 C 466.219 119.912 466.264 112.529 466.282 105.144 C 466.218 71.985 465.162 38.776 465.984 5.675 L 465.984 2.836 L 465.984 0 Z" style="stroke-width: 10px; stroke: rgb(0, 0, 0); fill: none;"/>
  </g>
  <use width="63.999900817871094" height="91.58869934082031" transform="matrix(0.9280621409416199, 0, 0, 0.9280621409416199, 330, 150)" xlink:href="#symbol-0"/>
  <use width="63.999900817871094" height="91.58869934082031" transform="matrix(0.9280621409416199, 0, 0, 0.9280621409416199, 280, 260)" xlink:href="#symbol-0"/>
  <use width="63.999900817871094" height="91.58869934082031" transform="matrix(0.9279500246047974, 0, 0, 0.9280621409416199, 380, 40)" xlink:href="#symbol-0"/>
  <path id="path4505" style="fill-opacity: 1; fill-rule: evenodd; stroke: none; stroke-width: 0.352778; fill: rgb(255, 215, 0);" d="M 121.068 254.866 L 116.385 254.866 C 111.16 254.866 109.478 253.894 105.607 252.991 C 107.844 249.655 117.172 246.901 122.944 246.901 L 124.818 246.901 C 131.294 246.901 133.644 249.945 137.502 250.617 C 141.97 251.398 146.714 252.596 150.121 254.398 C 152.066 253.368 172.618 246.901 174.951 246.901 L 178.701 246.901 C 183.485 246.901 192.677 250.074 194.63 252.991 C 190.763 253.894 189.081 254.866 183.854 254.866 L 180.108 254.866 C 173.911 254.866 166.254 251.585 164.644 251.585 C 163.263 251.585 155.08 254.835 152.932 255.334 C 153.616 256.271 160.043 259.688 161.963 261.295 C 164.784 263.663 167.803 265.942 169.705 268.824 L 166.051 272.202 C 163.436 270.288 155.532 257.21 150.121 257.21 C 145.821 257.21 136.592 268.546 134.548 272.313 L 130.909 268.452 C 135.02 262.315 145.699 257.532 147.294 255.38 L 135.596 251.585 C 133.185 252.86 124.813 254.866 121.068 254.866 M 162.772 248.775 C 163.577 239.081 175.742 226.508 185.729 226.286 C 178.374 240.19 176.582 241.467 162.772 248.775 M 114.509 226.286 C 124.406 226.504 136.66 239.067 137.471 248.775 C 123.645 241.462 121.884 240.223 114.509 226.286 M 175.89 242.684 C 177.587 245.002 184.316 246.901 188.539 246.901 L 190.883 246.901 C 199.501 246.901 203.239 244.638 209.626 243.153 C 207.775 240.388 200.338 238.469 195.57 238.469 L 191.353 238.469 C 186.229 238.469 179.287 240.888 175.89 242.684 M 105.142 238.469 C 99.97 238.469 92.598 240.19 90.614 243.153 C 97.828 244.832 101.294 246.901 111.229 246.901 L 112.168 246.901 C 116.021 246.901 122.34 244.984 123.882 242.684 C 119.672 239.867 112.705 238.469 105.607 238.469 Z M 197.912 236.594 L 193.695 236.594 C 192.43 236.594 192.401 236.37 191.353 236.125 C 192.633 231.324 208.66 224.599 216.663 225.239 L 223.681 225.818 C 222.341 230.839 206.279 236.594 197.912 236.594 M 101.858 236.594 C 93.004 236.594 79.381 231.187 76.557 225.818 L 84.524 225.347 L 84.991 225.347 C 92.371 225.347 107.58 231.219 108.887 236.125 C 107.837 236.37 107.812 236.594 106.544 236.594 Z M 98.578 206.605 C 104.7 210.703 112.168 221.063 112.168 231.438 L 112.168 235.186 C 104.162 233.05 98.578 217.898 98.578 206.605 M 101.39 226.755 C 97.248 218.922 88.416 206.605 77.027 206.605 C 78.098 214.949 91.608 226.755 101.39 226.755 M 198.848 226.755 C 208.427 226.755 222.544 214.64 223.215 206.605 C 211.348 206.605 203.134 218.654 198.848 226.755 M 188.071 235.186 C 196.081 233.05 201.66 217.853 201.66 206.605 C 195.501 210.73 188.071 221.017 188.071 231.438 Z M 205.879 212.23 C 209.691 211.21 211.499 202.575 211.499 197.234 L 211.499 193.953 C 211.499 189.719 209.703 186.918 208.219 184.114 C 205.318 186.06 203.535 190.967 203.535 195.83 L 203.535 202.859 C 203.535 206.509 205.162 209.157 205.879 212.23 M 88.739 197.234 L 88.739 195.83 C 88.739 190.212 90.092 187.76 92.022 184.114 C 94.922 186.06 96.705 190.967 96.705 195.83 L 96.705 200.047 C 96.705 206.235 95.393 207.806 94.361 212.23 C 90.549 211.21 88.739 202.575 88.739 197.234 M 66.72 186.458 C 71.817 186.884 77.711 191.126 80.656 194.074 C 86.608 200.02 85.299 200.839 88.739 208.009 C 84.263 207.639 77.683 202.808 75.033 200.162 C 71.153 196.283 69.209 191.645 66.72 186.458 M 211.499 208.009 C 214.917 200.888 213.697 199.968 219.58 194.074 C 222.521 191.126 228.429 186.882 233.521 186.458 C 230.395 192.977 230.029 194.872 224.974 199.931 C 221.955 202.946 216.698 207.58 211.499 208.009 M 85.46 194.892 C 85.46 183.239 80.036 171.243 70.935 169.121 C 70.935 178.658 78.246 193.211 85.46 194.892 M 86.398 182.712 L 86.398 185.524 C 90.035 184.675 94.676 179.255 96.246 176.158 C 97.431 173.814 101.218 164.956 100.928 161.588 C 100.524 156.879 86.398 170.016 86.398 182.712 M 199.317 161.158 C 199.317 157.764 213.842 168.745 213.842 182.712 L 213.842 185.524 C 207.049 183.938 199.317 169.85 199.317 161.158 M 75.153 151.787 C 75.153 150.171 75.499 149.97 75.62 148.507 C 80.552 151.807 85.46 161.477 85.46 169.591 L 85.46 172.872 L 84.936 177.08 C 80.96 176.011 75.153 165.236 75.153 159.752 Z M 214.778 194.892 C 221.985 193.214 229.303 178.676 229.303 169.121 C 220.204 171.243 214.778 183.239 214.778 194.892 M 214.778 171.465 C 214.778 161.729 218.837 152.377 224.618 148.507 C 224.864 149.555 225.087 149.585 225.087 150.849 L 225.087 159.752 C 225.087 165.221 219.215 176.028 215.247 177.087 L 214.676 171.948 Z M 84.524 152.723 L 84.524 156.471 C 84.524 159.042 86.404 163.61 87.335 165.375 C 90.314 163.376 93.426 153.337 93.426 148.04 L 93.426 141.947 C 93.426 139.504 92.092 136.424 91.083 134.919 C 87.982 136.993 84.524 147.256 84.524 152.723 M 207.752 160.689 C 198.057 160.689 182.254 149.618 180.575 142.413 C 194.395 142.413 202.867 151.453 207.752 160.689 M 206.815 141.947 L 206.815 147.101 C 206.815 153.104 209.582 163.147 212.906 165.375 C 213.838 163.61 215.715 159.042 215.715 156.471 L 215.715 152.723 C 215.715 147.218 212.017 136.546 209.158 134.451 C 208.4 135.878 206.815 139.857 206.815 141.947 M 92.491 160.689 C 95.575 154.859 97.368 151.666 102.797 148.038 C 106.316 145.681 113.848 142.413 119.666 142.413 C 117.997 149.57 102.086 160.689 92.491 160.689 M 102.328 145.693 C 104.565 136.098 112.715 124.543 122.475 122.268 C 122.231 133.31 111.886 143.471 102.328 145.693 M 196.506 128.361 C 196.506 126.622 197.342 124.39 197.912 123.205 C 202.421 126.224 205.41 134.824 205.41 142.413 L 205.41 145.693 L 204.873 150.841 C 200.71 150.498 196.506 139.982 196.506 134.919 Z M 197.912 145.693 C 195.729 136.327 187.153 124.454 177.764 122.268 C 178.012 133.35 188.325 143.463 197.912 145.693 M 94.832 143.819 L 95.3 150.849 C 99.678 149.829 103.734 140.126 103.734 134.451 L 103.734 130.231 C 103.734 127.611 103.166 124.952 102.328 123.205 C 98.039 126.077 94.094 135.952 94.832 143.819"/>
</svg>