<?xml version="1.0" encoding="utf-8"?>
<svg version="1.0" width="512px" height="512px" id="svg7107" xmlns="http://www.w3.org/2000/svg">
  <defs id="defs3">
    <polygon points="0,-1 0.58778525,0.80901699 -0.95105652,-0.30901699 0.95105652,-0.30901699 -0.58778525,0.80901699 0,-1 " transform="scale(53,53)" id="polygon9535"/>
    <polygon points="0,-1 0.58778525,0.80901699 -0.95105652,-0.30901699 0.95105652,-0.30901699 -0.58778525,0.80901699 0,-1 " transform="scale(53,53)" id="star"/>
    <polygon points="0,-1 0.58778525,0.80901699 -0.95105652,-0.30901699 0.95105652,-0.30901699 -0.58778525,0.80901699 0,-1 " transform="scale(53,53)" id="polygon2895"/>
    <polygon points="0,-1 0.58778525,0.80901699 -0.95105652,-0.30901699 0.95105652,-0.30901699 -0.58778525,0.80901699 0,-1 " transform="scale(53,53)" id="polygon2869"/>
    <polygon points="0,-1 0.58778525,0.80901699 -0.95105652,-0.30901699 0.95105652,-0.30901699 -0.58778525,0.80901699 0,-1 " transform="scale(53,53)" id="polygon5833"/>
    <polygon points="0,-1 0.58778525,0.80901699 -0.95105652,-0.30901699 0.95105652,-0.30901699 -0.58778525,0.80901699 0,-1 " transform="scale(53,53)" id="polygon5665"/>
    <polygon points="0,-1 0.58778525,0.80901699 -0.95105652,-0.30901699 0.95105652,-0.30901699 -0.58778525,0.80901699 0,-1 " transform="scale(53,53)" id="polygon3554"/>
    <polygon points="0,-1 0.58778525,0.80901699 -0.95105652,-0.30901699 0.95105652,-0.30901699 -0.58778525,0.80901699 0,-1 " transform="scale(53,53)" id="polygon3528"/>
    <polygon points="0,-1 0.58778525,0.80901699 -0.95105652,-0.30901699 0.95105652,-0.30901699 -0.58778525,0.80901699 0,-1 " transform="scale(53,53)" id="polygon4014"/>
    <polygon points="0,-1 0.58778525,0.80901699 -0.95105652,-0.30901699 0.95105652,-0.30901699 -0.58778525,0.80901699 0,-1 " transform="scale(53,53)" id="polygon4673"/>
    <polygon points="0,-1 0.58778525,0.80901699 -0.95105652,-0.30901699 0.95105652,-0.30901699 -0.58778525,0.80901699 0,-1 " transform="scale(53,53)" id="polygon4633"/>
    <polygon points="0,-1 0.58778525,0.80901699 -0.95105652,-0.30901699 0.95105652,-0.30901699 -0.58778525,0.80901699 0,-1 " transform="scale(53,53)" id="polygon4493"/>
    <polygon points="0,-1 0.58778525,0.80901699 -0.95105652,-0.30901699 0.95105652,-0.30901699 -0.58778525,0.80901699 0,-1 " transform="scale(53,53)" id="polygon4467"/>
    <polygon points="0,-1 0.58778525,0.80901699 -0.95105652,-0.30901699 0.95105652,-0.30901699 -0.58778525,0.80901699 0,-1 " transform="scale(53,53)" id="polygon8459"/>
    <polygon points="0,-1 0.58778525,0.80901699 -0.95105652,-0.30901699 0.95105652,-0.30901699 -0.58778525,0.80901699 0,-1 " transform="scale(53,53)" id="polygon8433"/>
    <polygon points="0,-1 0.58778525,0.80901699 -0.95105652,-0.30901699 0.95105652,-0.30901699 -0.58778525,0.80901699 0,-1 " transform="scale(53,53)" id="polygon8293"/>
    <polygon points="0,-1 0.58778525,0.80901699 -0.95105652,-0.30901699 0.95105652,-0.30901699 -0.58778525,0.80901699 0,-1 " transform="scale(53,53)" id="polygon8253"/>
    <polygon points="0,-1 0.58778525,0.80901699 -0.95105652,-0.30901699 0.95105652,-0.30901699 -0.58778525,0.80901699 0,-1 " transform="scale(53,53)" id="polygon8195"/>
    <polygon points="0,-1 0.58778525,0.80901699 -0.95105652,-0.30901699 0.95105652,-0.30901699 -0.58778525,0.80901699 0,-1 " transform="scale(53,53)" id="polygon8155"/>
    <polygon points="0,-1 0.58778525,0.80901699 -0.95105652,-0.30901699 0.95105652,-0.30901699 -0.58778525,0.80901699 0,-1 " transform="scale(53,53)" id="polygon8129"/>
    <polygon points="0,-1 0.58778525,0.80901699 -0.95105652,-0.30901699 0.95105652,-0.30901699 -0.58778525,0.80901699 0,-1 " transform="scale(53,53)" id="polygon7989"/>
    <polygon points="0,-1 0.58778525,0.80901699 -0.95105652,-0.30901699 0.95105652,-0.30901699 -0.58778525,0.80901699 0,-1 " transform="scale(53,53)" id="polygon7949"/>
    <polygon points="0,-1 0.58778525,0.80901699 -0.95105652,-0.30901699 0.95105652,-0.30901699 -0.58778525,0.80901699 0,-1 " transform="scale(53,53)" id="polygon7891"/>
    <polygon points="0,-1 0.58778525,0.80901699 -0.95105652,-0.30901699 0.95105652,-0.30901699 -0.58778525,0.80901699 0,-1 " transform="scale(53,53)" id="polygon7865"/>
    <polygon points="0,-1 0.58778525,0.80901699 -0.95105652,-0.30901699 0.95105652,-0.30901699 -0.58778525,0.80901699 0,-1 " transform="scale(53,53)" id="polygon7753"/>
    <polygon points="0,-1 0.58778525,0.80901699 -0.95105652,-0.30901699 0.95105652,-0.30901699 -0.58778525,0.80901699 0,-1 " transform="scale(53,53)" id="polygon7727"/>
    <polygon points="0,-1 0.58778525,0.80901699 -0.95105652,-0.30901699 0.95105652,-0.30901699 -0.58778525,0.80901699 0,-1 " transform="scale(53,53)" id="polygon59702"/>
    <polygon points="0,-1 0.58778525,0.80901699 -0.95105652,-0.30901699 0.95105652,-0.30901699 -0.58778525,0.80901699 0,-1 " transform="scale(53,53)" id="polygon6387"/>
    <polygon points="0,-1 0.58778525,0.80901699 -0.95105652,-0.30901699 0.95105652,-0.30901699 -0.58778525,0.80901699 0,-1 " transform="scale(53,53)" id="polygon6445"/>
    <polygon points="0,-1 0.58778525,0.80901699 -0.95105652,-0.30901699 0.95105652,-0.30901699 -0.58778525,0.80901699 0,-1 " transform="scale(53,53)" id="polygon7627"/>
    <polygon points="0,-1 0.58778525,0.80901699 -0.95105652,-0.30901699 0.95105652,-0.30901699 -0.58778525,0.80901699 0,-1 " transform="scale(53,53)" id="polygon23593"/>
    <polygon points="0,-1 0.58778525,0.80901699 -0.95105652,-0.30901699 0.95105652,-0.30901699 -0.58778525,0.80901699 0,-1 " transform="scale(53,53)" id="polygon23535"/>
    <polygon points="0,-1 0.58778525,0.80901699 -0.95105652,-0.30901699 0.95105652,-0.30901699 -0.58778525,0.80901699 0,-1 " transform="scale(53,53)" id="polygon23513"/>
    <polygon points="0,-1 0.58778525,0.80901699 -0.95105652,-0.30901699 0.95105652,-0.30901699 -0.58778525,0.80901699 0,-1 " transform="scale(53,53)" id="polygon26392"/>
    <polygon points="0,-1 0.58778525,0.80901699 -0.95105652,-0.30901699 0.95105652,-0.30901699 -0.58778525,0.80901699 0,-1 " transform="scale(53,53)" id="polygon10133"/>
    <polygon points="0,-1 0.58778525,0.80901699 -0.95105652,-0.30901699 0.95105652,-0.30901699 -0.58778525,0.80901699 0,-1 " transform="scale(53,53)" id="polygon11842"/>
    <polygon points="0,-1 0.58778525,0.80901699 -0.95105652,-0.30901699 0.95105652,-0.30901699 -0.58778525,0.80901699 0,-1 " transform="scale(53,53)" id="polygon11640"/>
    <polygon points="0,-1 0.58778525,0.80901699 -0.95105652,-0.30901699 0.95105652,-0.30901699 -0.58778525,0.80901699 0,-1 " transform="scale(53,53)" id="polygon53522"/>
    <polygon points="0,-1 0.58778525,0.80901699 -0.95105652,-0.30901699 0.95105652,-0.30901699 -0.58778525,0.80901699 0,-1 " transform="scale(53,53)" id="polygon13405"/>
    <polygon points="0,-1 0.58778525,0.80901699 -0.95105652,-0.30901699 0.95105652,-0.30901699 -0.58778525,0.80901699 0,-1 " transform="scale(53,53)" id="polygon17969"/>
    <polygon points="0,-1 0.58778525,0.80901699 -0.95105652,-0.30901699 0.95105652,-0.30901699 -0.58778525,0.80901699 0,-1 " transform="scale(53,53)" id="polygon68220"/>
    <polygon points="0,-1 0.58778525,0.80901699 -0.95105652,-0.30901699 0.95105652,-0.30901699 -0.58778525,0.80901699 0,-1 " transform="scale(53,53)" id="polygon68195"/>
    <polygon id="polygon5678" transform="scale(53,53)" points="0,-1 0.58778525,0.80901699 -0.95105652,-0.30901699 0.95105652,-0.30901699 -0.58778525,0.80901699 0,-1 "/>
    <polygon id="polygon5652" transform="scale(53,53)" points="0,-1 0.58778525,0.80901699 -0.95105652,-0.30901699 0.95105652,-0.30901699 -0.58778525,0.80901699 0,-1 "/>
    <polygon id="polygon5511" transform="scale(53,53)" points="0,-1 0.58778525,0.80901699 -0.95105652,-0.30901699 0.95105652,-0.30901699 -0.58778525,0.80901699 0,-1 "/>
    <polygon id="polygon5471" transform="scale(53,53)" points="0,-1 0.58778525,0.80901699 -0.95105652,-0.30901699 0.95105652,-0.30901699 -0.58778525,0.80901699 0,-1 "/>
    <polygon id="polygon5413" transform="scale(53,53)" points="0,-1 0.58778525,0.80901699 -0.95105652,-0.30901699 0.95105652,-0.30901699 -0.58778525,0.80901699 0,-1 "/>
    <polygon id="polygon5372" transform="scale(53,53)" points="0,-1 0.58778525,0.80901699 -0.95105652,-0.30901699 0.95105652,-0.30901699 -0.58778525,0.80901699 0,-1 "/>
    <polygon id="polygon5346" transform="scale(53,53)" points="0,-1 0.58778525,0.80901699 -0.95105652,-0.30901699 0.95105652,-0.30901699 -0.58778525,0.80901699 0,-1 "/>
    <polygon id="polygon5206" transform="scale(53,53)" points="0,-1 0.58778525,0.80901699 -0.95105652,-0.30901699 0.95105652,-0.30901699 -0.58778525,0.80901699 0,-1 "/>
    <polygon id="polygon5165" transform="scale(53,53)" points="0,-1 0.58778525,0.80901699 -0.95105652,-0.30901699 0.95105652,-0.30901699 -0.58778525,0.80901699 0,-1 "/>
    <polygon id="polygon5107" transform="scale(53,53)" points="0,-1 0.58778525,0.80901699 -0.95105652,-0.30901699 0.95105652,-0.30901699 -0.58778525,0.80901699 0,-1 "/>
    <polygon id="polygon5081" transform="scale(53,53)" points="0,-1 0.58778525,0.80901699 -0.95105652,-0.30901699 0.95105652,-0.30901699 -0.58778525,0.80901699 0,-1 "/>
    <polygon id="polygon4970" transform="scale(53,53)" points="0,-1 0.58778525,0.80901699 -0.95105652,-0.30901699 0.95105652,-0.30901699 -0.58778525,0.80901699 0,-1 "/>
    <polygon id="polygon4944" transform="scale(53,53)" points="0,-1 0.58778525,0.80901699 -0.95105652,-0.30901699 0.95105652,-0.30901699 -0.58778525,0.80901699 0,-1 "/>
    <polygon id="polygon6050" transform="scale(53,53)" points="0,-1 0.58778525,0.80901699 -0.95105652,-0.30901699 0.95105652,-0.30901699 -0.58778525,0.80901699 0,-1 "/>
    <polygon id="polygon6024" transform="scale(53,53)" points="0,-1 0.58778525,0.80901699 -0.95105652,-0.30901699 0.95105652,-0.30901699 -0.58778525,0.80901699 0,-1 "/>
    <polygon id="polygon5884" transform="scale(53,53)" points="0,-1 0.58778525,0.80901699 -0.95105652,-0.30901699 0.95105652,-0.30901699 -0.58778525,0.80901699 0,-1 "/>
    <polygon id="polygon5844" transform="scale(53,53)" points="0,-1 0.58778525,0.80901699 -0.95105652,-0.30901699 0.95105652,-0.30901699 -0.58778525,0.80901699 0,-1 "/>
    <polygon id="polygon5785" transform="scale(53,53)" points="0,-1 0.58778525,0.80901699 -0.95105652,-0.30901699 0.95105652,-0.30901699 -0.58778525,0.80901699 0,-1 "/>
    <polygon id="polygon5745" transform="scale(53,53)" points="0,-1 0.58778525,0.80901699 -0.95105652,-0.30901699 0.95105652,-0.30901699 -0.58778525,0.80901699 0,-1 "/>
    <polygon id="polygon5719" transform="scale(53,53)" points="0,-1 0.58778525,0.80901699 -0.95105652,-0.30901699 0.95105652,-0.30901699 -0.58778525,0.80901699 0,-1 "/>
    <polygon id="polygon5576" transform="scale(53,53)" points="0,-1 0.58778525,0.80901699 -0.95105652,-0.30901699 0.95105652,-0.30901699 -0.58778525,0.80901699 0,-1 "/>
    <polygon id="polygon5536" transform="scale(53,53)" points="0,-1 0.58778525,0.80901699 -0.95105652,-0.30901699 0.95105652,-0.30901699 -0.58778525,0.80901699 0,-1 "/>
    <polygon id="polygon5478" transform="scale(53,53)" points="0,-1 0.58778525,0.80901699 -0.95105652,-0.30901699 0.95105652,-0.30901699 -0.58778525,0.80901699 0,-1 "/>
    <polygon id="polygon5452" transform="scale(53,53)" points="0,-1 0.58778525,0.80901699 -0.95105652,-0.30901699 0.95105652,-0.30901699 -0.58778525,0.80901699 0,-1 "/>
    <polygon id="polygon5339" transform="scale(53,53)" points="0,-1 0.58778525,0.80901699 -0.95105652,-0.30901699 0.95105652,-0.30901699 -0.58778525,0.80901699 0,-1 "/>
    <polygon id="polygon5313" transform="scale(53,53)" points="0,-1 0.58778525,0.80901699 -0.95105652,-0.30901699 0.95105652,-0.30901699 -0.58778525,0.80901699 0,-1 "/>
  </defs>
  <path d="M 242.811 503.386 C 203.253 485.199 162.367 457.895 128.811 427.255 C 94.528 395.951 66.47 357.153 49.139 317.088 C 40.855 297.939 33.467 273.492 30.181 254.364 C 25.712 228.341 25.769 230.017 25.34 112.305 L 24.933 0.673 L 141.324 0.432 C 205.338 0.299 309.666 0.298 373.162 0.428 L 488.611 0.666 L 488.207 112.77 C 487.8 225.893 487.74 227.931 484.191 250.151 C 469.608 341.464 408.526 423.429 311.768 481.522 C 290.413 494.343 260.799 509.055 256.502 508.976 C 255.624 508.96 249.463 506.445 242.811 503.386 L 242.811 503.386 Z" id="path4941" style="fill:#ffffff;fill-opacity:1;fill-rule:evenodd;stroke:#000000;stroke-width:2.26493454;stroke-miterlimit:4;stroke-dasharray:none;stroke-opacity:0.98941806"/>
  <path d="M 256.022 512 C 256.022 512 489.045 424.469 489.045 202.017 C 489.045 -20.435 489.045 0.527 489.045 0.527 L 23 0.527 L 23 202.017 C 23 424.469 256.022 512 256.022 512 Z" id="path2919" style="opacity: 1; fill-opacity: 1; fill-rule: evenodd; stroke: none; stroke-width: 1px; stroke-linecap: butt; stroke-linejoin: miter; stroke-opacity: 1; fill: rgba(255, 255, 255, 0.31);"/>
  <g transform="matrix(1.164708, 0, 0, 1.164708, -1049.068726, -297.865662)" id="g4966">
    <path d="M 1184.9869,489.37104 C 1186.6861,489.09843 1194.8114,485.75946 1204.9201,525.35641 C 1220.3765,546.17018 1240.0028,508.57373 1243.2728,496.14519 C 1245.584,480.4826 1238.9528,459.65547 1238.9528,459.65547 C 1238.6072,449.26612 1246.3075,442.91113 1254.5895,436.84783 C 1247.4302,438.68086 1240.5651,437.45242 1232.7487,446.12113 C 1232.7487,446.12113 1232.446,438.8518 1235.2218,431.64817 C 1237.9977,424.44453 1246.5223,420.90134 1246.5223,420.90134 C 1236.7741,423.67798 1228.4099,426.96237 1226.2959,432.53986 C 1226.6943,415.2068 1237.3645,401.91346 1251.0978,389.82484 C 1238.1821,395.0706 1226.418,401.65739 1219.0875,413.40687 C 1218.4563,382.18181 1244.6259,372.3857 1274.8344,354.12104 C 1297.5069,340.41287 1285.0085,322.04023 1285.0085,322.04023 C 1271.006,314.92238 1257.7818,317.58408 1246.5266,321.21912 C 1246.5266,321.21912 1238.6748,309.17752 1230.9508,317.76521 C 1221.993,327.72476 1215.4502,332.39656 1216.1166,345.87582 C 1214.9203,343.44304 1232.3229,335.64109 1244.1755,337.77574 C 1253.7174,339.49423 1249.0702,326.85062 1249.0702,326.85062 C 1269.6785,320.35882 1297.768,325.96761 1269.1982,347.1333 C 1234.8842,370.27225 1207.5383,372.82109 1212.5644,420.67622 C 1215.419,447.85592 1239.6662,472.51089 1236.0738,489.24901 C 1237.2574,500.72505 1218.9615,538.17519 1209.2469,514.71052 C 1202.711,484.48548 1194.5382,480.37163 1184.1612,479.31455 L 1184.9869,489.37104 z" style="fill:#000000;fill-opacity:1;fill-rule:evenodd;stroke:#333333;stroke-width:2.5;stroke-linecap:butt;stroke-linejoin:miter;stroke-miterlimit:4;stroke-dasharray:none;stroke-opacity:1;display:inline" id="path4891"/>
    <path d="M 1008.6077,324.81441 C 1004.0523,325.88606 997.10563,328.41313 994.50055,333.51645 C 1000.4664,331.94227 1005.1953,330.61455 1009.403,329.93687 L 1008.6077,324.81441 z" style="fill:#ff0000;fill-opacity:1;fill-rule:evenodd;stroke:#333333;stroke-width:2.5;stroke-linecap:round;stroke-linejoin:round;stroke-miterlimit:4;stroke-dasharray:none;stroke-opacity:1" id="path3249"/>
    <path d="M 1010.0401,314.02279 C 1005.4207,314.80933 1002.2264,314.29797 995.11396,319.038 C 1001.2777,318.47058 1007.7789,318.63634 1011.7097,320.14285 L 1010.0401,314.02279 z" style="fill:#ff0000;fill-opacity:1;fill-rule:evenodd;stroke:#333333;stroke-width:2.5;stroke-linecap:round;stroke-linejoin:round;stroke-miterlimit:4;stroke-dasharray:none;stroke-opacity:1" id="path3247"/>
    <path d="M 1023.0201,308.15431 C 1018.8285,306.02589 1013.9559,306.76425 1009.225,306.90562 C 1015.5466,308.48814 1017.2179,309.75242 1020.624,312.14285 L 1023.0201,308.15431 z" style="fill:#ff0000;fill-opacity:1;fill-rule:evenodd;stroke:#333333;stroke-width:2.5;stroke-linecap:round;stroke-linejoin:round;stroke-miterlimit:4;stroke-dasharray:none;stroke-opacity:1" id="path3245"/>
    <path d="M 1012.523,337.21615 C 1006.4775,339.061 1007.3426,340.37432 1005.783,344.88215 C 1011.5596,340.9647 1015.1002,340.92467 1017.5522,338.49733 L 1012.523,337.21615 z" style="fill:#ff0000;fill-opacity:1;fill-rule:evenodd;stroke:#333333;stroke-width:2.5;stroke-linecap:round;stroke-linejoin:round;stroke-miterlimit:4;stroke-dasharray:none;stroke-opacity:1" id="path4220"/>
    <path d="M 1041.0052,320.93421 C 1047.9669,333.81881 1054.7583,332.0245 1063.1287,338.90438 C 1074.0504,347.8813 1078.6427,358.93885 1107.436,358.93851 L 1099.5525,402.19508 L 1076.7721,389.3236 C 1072.16,385.76288 1059.7167,382.24327 1053.1173,369.62386 C 1047.5127,370.35391 1046.2164,375.3016 1045.696,381.00898 C 1042.9673,374.35414 1039.0892,367.66652 1042.685,361.19211 L 1034.272,351.5415 C 1029.0032,358.16325 1020.9983,355.99691 1014.0415,357.19728 C 1022.9867,353.78191 1030.0861,348.18565 1031.2323,342.01703 L 1027.8029,336.82215 C 1019.0821,336.81328 1022.275,339.83193 1014.7516,340.38355 L 1008.8664,337.6251 C 1014.2666,332.08053 1018.9452,334.06214 1024.1843,331.55475 C 1015.8896,328.07023 1012.9097,333.1908 1006.2568,331.18775 C 1004.7073,328.57571 1004.7855,326.70604 1006.4317,324.81041 C 1011.0299,323.74296 1016.4878,323.18056 1021.6718,323.75144 C 1014.3374,318.50324 1014.3104,320.94585 1008.3171,320.00272 C 1006.3722,316.88591 1005.3547,314.95878 1009.3046,313.26832 C 1013.2588,314.10085 1021.1921,313.82397 1025.9827,317.54642 C 1025.3529,313.93204 1023.2633,312.74217 1018.5285,311.45382 C 1019.4639,307.45151 1017.3202,308.90791 1022.165,306.86312 C 1031.9125,309.94592 1039.3901,313.41973 1041.0052,320.93421 z" style="fill:#000000;fill-rule:evenodd;stroke:#333333;stroke-width:2.5;stroke-linecap:round;stroke-linejoin:round;stroke-miterlimit:4;stroke-dasharray:none;stroke-opacity:1" id="path3243"/>
    <path d="M 1028.0606,599.36471 C 1025.9819,602.62444 1021.4356,605.46576 1018.1494,607.25097 C 1024.4965,607.00278 1030.0064,603.9587 1033.9874,601.68468 L 1028.0606,599.36471 z" style="fill:#ff0000;fill-opacity:1;fill-rule:evenodd;stroke:#333333;stroke-width:2.5;stroke-linecap:round;stroke-linejoin:round;stroke-miterlimit:4;stroke-dasharray:none;stroke-opacity:1" id="path3534"/>
    <path d="M 1013.6102,591.47699 C 1009.0149,594.30184 1007.986,598.91804 1006.5212,601.8342 C 1010.4111,598.92333 1013.5916,598.04442 1017.5574,595.63663 L 1013.6102,591.47699 z" style="fill:#ff0000;fill-opacity:1;fill-rule:evenodd;stroke:#333333;stroke-width:2.5;stroke-linecap:round;stroke-linejoin:round;stroke-miterlimit:4;stroke-dasharray:none;stroke-opacity:1" id="path4899"/>
    <path d="M 1016.5461,577.44602 C 1009.3647,578.02209 1004.2566,582.55382 1000.3234,586.70495 C 1006.246,584.55695 1011.4214,583.03594 1017.0339,582.69111 C 1020.8682,580.84996 1016.3692,577.95784 1016.5461,577.44602 z" style="fill:#ff0000;fill-opacity:1;fill-rule:evenodd;stroke:#333333;stroke-width:2.5;stroke-linecap:round;stroke-linejoin:round;stroke-miterlimit:4;stroke-dasharray:none;stroke-opacity:1" id="path3530"/>
    <path d="M 1030.166,569.71576 C 1023.7172,567.41168 1017.4607,568.95 1010.7228,569.05539 C 1017.8725,570.36239 1023.5,572.71428 1028.7689,575.31234 L 1030.166,569.71576 z" style="fill:#ff0000;fill-opacity:1;fill-rule:evenodd;stroke:#333333;stroke-width:2.5;stroke-linecap:round;stroke-linejoin:round;stroke-miterlimit:4;stroke-dasharray:none;stroke-opacity:1" id="path3528"/>
    <path d="M 1152.712,481.05078 C 1125.5267,485.29958 1086.78,480.42481 1068.4672,500.59767 C 1056.6044,508.70147 1016.2653,520.86832 1031.4079,501.28792 C 1006.7033,514.10094 1047.8437,523.6473 1074.111,503.15923 C 1041.47,526.94152 1078.2815,530.27465 1082.4035,553.21174 C 1075.4098,566.31366 1067.3473,561.00953 1056.5738,573.11938 C 1051.6148,575.69876 1046.1895,574.78536 1037.5821,573.49662 C 1036.1588,569.91245 1033.021,568.29076 1029.6702,567.65 C 1026.2184,568.79226 1022.2366,571.30964 1022.7394,574.1513 C 1027.9865,575.10399 1027.9091,577.85618 1032.1746,580.49864 C 1024.5654,578.17472 1024.5076,574.40294 1015.6349,576.66636 C 1012.1693,579.20884 1012.4321,582.60934 1013.0118,584.11693 C 1020.5721,584.8044 1023.1427,584.75721 1029.3366,586.61106 C 1022.2995,586.73491 1021.3887,585.14646 1012.0192,591.18989 C 1012.8377,594.27937 1014.4811,595.48164 1017.3605,597.38383 C 1023.013,596.16327 1025.2197,591.41262 1032.2366,593.89541 C 1025.6756,597.91153 1025.8523,598.9672 1025.1791,600.39633 C 1026.4395,601.99193 1028.5978,603.19302 1032.0237,603.83715 C 1038.183,603.10275 1040.6132,600.19858 1042.8721,597.1947 C 1075.0629,599.07467 1065.2149,590.28684 1073.6086,588.15995 C 1084.7753,593.25556 1084.8647,587.42593 1088.4629,582.55592 C 1100.2579,589.94117 1097.9362,582.40324 1100.0495,580.04425 C 1097.1979,569.26085 1108.5886,567.51018 1112.3794,558.33032 C 1117.5128,554.25048 1125.0441,550.90168 1105.8326,539.40016 C 1099.8682,528.56162 1102.3015,520.09883 1113.6507,514.15834 C 1132.4369,519.38633 1147.3625,515.05616 1164.2184,515.50507 L 1152.712,481.05078 z" style="fill:#000000;fill-rule:evenodd;stroke:#333333;stroke-width:2.5;stroke-linecap:round;stroke-linejoin:round;stroke-miterlimit:4;stroke-dasharray:none;stroke-opacity:1" id="path3524"/>
    <path d="M 1135.6958,478.91372 C 1141.6879,484.89768 1148.3025,490.81346 1146.0334,497.70237 C 1139.7632,502.16714 1136.3497,506.36887 1152.2874,508.78883 L 1158.4173,493.0818 L 1145.9105,478.76345 C 1138.5977,476.9353 1135.8865,477.31878 1135.6958,478.91372 z" style="fill:#000000;fill-rule:evenodd;stroke:#333333;stroke-width:2.5;stroke-linecap:round;stroke-linejoin:round;stroke-miterlimit:4;stroke-dasharray:none;stroke-opacity:1" id="path3526"/>
    <path d="M 1130.2873,615.64752 C 1123.476,615.27277 1118.8997,617.26318 1113.7894,621.09984 C 1121.6409,619.98043 1124.7812,618.90276 1130.1303,619.2643 L 1130.2873,615.64752 z" style="fill:#ff0000;fill-opacity:1;fill-rule:evenodd;stroke:#333333;stroke-width:2.5;stroke-linecap:round;stroke-linejoin:round;stroke-miterlimit:4;stroke-dasharray:none;stroke-opacity:1" id="path3536"/>
    <path d="M 1122.8525,628.53551 C 1118.3364,631.14011 1113.1732,635.39238 1111.4448,640.62859 C 1116.054,637.19507 1120.8131,635.09607 1125.1011,633.16749 L 1122.8525,628.53551 z" style="fill:#ff0000;fill-opacity:1;fill-rule:evenodd;stroke:#333333;stroke-width:2.5;stroke-linecap:round;stroke-linejoin:round;stroke-miterlimit:4;stroke-dasharray:none;stroke-opacity:1" id="path3538"/>
    <path d="M 1130.0079,639.45284 C 1125.6012,643.16204 1122.3067,647.93904 1121.0259,653.07167 C 1125.6708,648.84634 1129.7627,646.50378 1134.8629,644.35403 L 1130.0079,639.45284 z" style="fill:#ff0000;fill-opacity:1;fill-rule:evenodd;stroke:#333333;stroke-width:2.5;stroke-linecap:round;stroke-linejoin:round;stroke-miterlimit:4;stroke-dasharray:none;stroke-opacity:1" id="path3540"/>
    <path d="M 1154.4428,640.85095 C 1154.8995,643.68313 1157.025,647.72362 1159.037,650.49776 L 1160.6993,640.27089 L 1154.4428,640.85095 z" style="fill:#ff0000;fill-opacity:1;fill-rule:evenodd;stroke:#333333;stroke-width:2.5;stroke-linecap:round;stroke-linejoin:round;stroke-miterlimit:4;stroke-dasharray:none;stroke-opacity:1" id="path3542"/>
    <path d="M 1094.1062,400.11139 C 1103.0893,436.86191 1130.6805,449.16557 1142.1845,471.17299 C 1155.3279,496.3164 1150.6427,498.62757 1150.6427,498.62757 C 1145.1536,513.45564 1131.4225,526.01204 1135.4989,535.4576 C 1153.2964,576.69611 1111.7746,560.28416 1132.377,584.58056 C 1121.1338,572.11146 1140.4339,568.69028 1148.0444,561.77949 C 1152.5239,568.17026 1157.4822,574.09448 1167.1376,575.44201 C 1164.2978,584.66946 1157.1525,594.05762 1162.0719,602.99544 C 1156.2256,608.71726 1153.3301,617.32778 1143.1527,618.80953 C 1139.1195,616.44788 1138.7508,614.2598 1131.0505,615.02863 C 1126.8962,616.84914 1128.4698,619.18414 1128.1889,620.86007 C 1138.173,622.38146 1130.2376,621.21191 1138.3374,624.36837 C 1127.8291,625.76691 1131.3331,621.60575 1122.0312,627.94093 C 1121.4327,630.50212 1124.8886,632.7241 1125.3549,634.64406 C 1134.8851,632.66761 1130.7752,630.65138 1140.3765,632.49962 C 1135.1701,634.98788 1133.9151,634.9493 1129.7932,638.76117 C 1128.8231,642.37012 1134.166,643.33133 1134.3871,645.48583 C 1144.0719,642.55801 1141.0665,638.74363 1152.151,635.92458 C 1152.0099,637.96532 1151.8287,640.01557 1153.5836,641.60722 C 1156.5204,642.20682 1159.2733,642.472 1162.1186,640.61965 C 1162.8947,637.9853 1164.3414,635.32593 1161.8458,632.8137 C 1170.7889,625.61038 1185.2236,622.42798 1183.1892,607.18709 C 1185.8609,610.53114 1188.949,613.43148 1194.5794,613.62283 C 1190.9325,604.94313 1204.5004,602.70144 1192.9631,592.44705 C 1196.0474,588.83867 1198.0749,583.87656 1204.2177,584.18594 L 1204.4579,568.49491 C 1172.9027,542.63299 1207.3741,506.58948 1181.1316,474.61985 C 1182.0577,419.24251 1177.9607,390.4153 1168.8408,366.6111 L 1094.1062,400.11139 z" style="fill:#000000;fill-rule:evenodd;stroke:#333333;stroke-width:2.5;stroke-linecap:round;stroke-linejoin:round;stroke-miterlimit:4;stroke-dasharray:none;stroke-opacity:1" id="path3453"/>
    <path d="M 1044.3064,415.69207 C 1041.7508,411.82757 1038.6443,412.55534 1035.7002,411.92943 L 1041.3413,419.2332 L 1044.3064,415.69207 z" style="fill:#ff0000;fill-opacity:1;fill-rule:evenodd;stroke:#333333;stroke-width:2.5;stroke-linecap:round;stroke-linejoin:round;stroke-miterlimit:4;stroke-dasharray:none;stroke-opacity:1" id="path2264"/>
    <path d="M 1031.966,422.52353 C 1028.0143,420.50427 1025.7165,417.48751 1017.4472,420.77851 C 1023.7651,422.39402 1025.5419,424.17906 1028.0005,426.91878 L 1031.966,422.52353 z" style="fill:#ff0000;fill-opacity:1;fill-rule:evenodd;stroke:#333333;stroke-width:2.5;stroke-linecap:round;stroke-linejoin:round;stroke-miterlimit:4;stroke-dasharray:none;stroke-opacity:1" id="path2266"/>
    <path d="M 1025.2425,436.00623 C 1020.5648,435.40855 1015.358,436.01609 1012.3801,439.91681 C 1015.7928,439.14755 1019.2246,438.89413 1022.702,439.85821 L 1025.2425,436.00623 z" style="fill:#ff0000;fill-opacity:1;fill-rule:evenodd;stroke:#333333;stroke-width:2.5;stroke-linecap:round;stroke-linejoin:round;stroke-miterlimit:4;stroke-dasharray:none;stroke-opacity:1" id="path2268"/>
    <path d="M 1034.2809,451.35091 C 1031.1529,453.00983 1028.0892,454.70619 1027.714,457.96686 C 1031.3744,455.66773 1035.465,454.29208 1039.7211,453.27144 L 1034.2809,451.35091 z" style="fill:#ff0000;fill-opacity:1;fill-rule:evenodd;stroke:#333333;stroke-width:2.5;stroke-linecap:round;stroke-linejoin:round;stroke-miterlimit:4;stroke-dasharray:none;stroke-opacity:1" id="path2270"/>
    <path d="M 1045.9133,414.48861 C 1041.6382,415.17942 1041.4226,417.30331 1040.3043,419.10855 C 1041.4456,422.61727 1045.8111,425.57782 1050.1545,428.54215 C 1044.4487,426.88144 1038.7821,426.26905 1032.9544,421.34315 L 1028.0057,421.52787 C 1025.2494,423.42765 1025.4491,425.21712 1025.9385,426.99574 C 1032.0154,432.95444 1037.1269,433.04545 1042.5506,435.03346 C 1036.3886,435.10241 1030.7066,437.35927 1023.9566,434.7474 C 1019.1749,437.3265 1021.8927,439.02976 1022.126,441.02319 C 1028.4891,443.28381 1035.6267,441.91623 1042.4061,442.22646 C 1041.704,444.9909 1038.3135,447.59044 1033.2013,450.08436 C 1031.7679,453.46116 1035.5017,454.33284 1038.7693,455.43059 C 1043.1394,454.54613 1046.9127,452.87578 1048.4109,448.20981 C 1055.3683,448.01497 1062.7048,448.0977 1068.6057,447.12929 C 1072.8284,449.91205 1066.3641,453.09374 1063.5735,456.13829 C 1080.7225,455.9466 1080.3756,447.3736 1094.0154,441.9336 C 1091.3783,446.94393 1093.8426,450.95072 1096.5645,454.90684 C 1097.9792,446.84566 1106.0064,444.8954 1112.9974,441.55177 L 1117.7756,436.79948 C 1122.2545,438.81308 1127.6296,438.45632 1133.0948,437.86122 C 1130.2963,434.80749 1132.8181,431.55517 1137.6903,428.21511 C 1144.965,432.54354 1149.2549,431.82151 1153.0461,430.25558 C 1137.2086,425.16131 1148.5677,409.50205 1148.1411,398.42116 L 1124.3167,379.70787 L 1081.1307,417.58463 C 1076.9529,420.90557 1071.0789,424.10284 1062.4105,424.98095 C 1054.0145,423.41861 1049.5198,419.25027 1045.9133,414.48861 z" style="fill:#000000;fill-rule:evenodd;stroke:#333333;stroke-width:2.5;stroke-linecap:round;stroke-linejoin:round;stroke-miterlimit:4;stroke-dasharray:none;stroke-opacity:1" id="path2262"/>
    <path d="M 1109.1509,343.9873 C 1109.1228,341.1685 1108.3042,339.31256 1109.0969,335.49419 C 1111.514,338.87976 1115.1479,339.9633 1118.2757,342.0043" style="fill:#000000;fill-rule:evenodd;stroke:#333333;stroke-width:2.5;stroke-linecap:round;stroke-linejoin:round;stroke-miterlimit:4;stroke-dasharray:none;stroke-opacity:1" id="path2476"/>
    <path d="M 1135.1335,316.48932 C 1112.0058,320.44023 1097.6501,345.26469 1073.8723,329.96972 C 1089.9969,355.39441 1110.6674,326.69976 1137.6797,325.29085 L 1135.1335,316.48932 z" style="fill:#ff0000;fill-opacity:1;fill-rule:evenodd;stroke:#333333;stroke-width:2.5;stroke-linecap:round;stroke-linejoin:round;stroke-miterlimit:4;stroke-dasharray:none;stroke-opacity:1" id="path3447"/>
    <path d="M 1098.6254,320.28764 C 1099.3989,323.68899 1101.7341,326.04322 1105.2869,327.58106 C 1103.1548,323.42875 1106.3428,320.51761 1108.1243,317.27832" style="fill:#000000;fill-rule:evenodd;stroke:#333333;stroke-width:2.5;stroke-linecap:round;stroke-linejoin:round;stroke-miterlimit:4;stroke-dasharray:none;stroke-opacity:1" id="path2474"/>
    <path d="M 1124.0498,404.29973 L 1122.6871,414.51822 L 1130.3591,408.5985 C 1120.0177,432.33294 1135.2114,434.36309 1151.186,435.72938 C 1145.2354,423.45367 1158.8699,413.55546 1162.4739,399.72931 C 1158.8582,413.36702 1162.2658,421.03007 1183.4069,413.60734 C 1161.6044,408.83479 1184.1101,396.5146 1175.2065,381.36997 C 1179.8207,389.85969 1186.9097,385.10718 1193.216,384.54353 C 1173.062,378.69053 1183.6138,365.31163 1184.2672,354.35878 L 1174.8203,335.62212 C 1179.47,347.77399 1187.0207,342.86154 1193.9883,341.37885 C 1179.7115,338.50015 1189.2381,319.57604 1171.9047,311.21363 C 1178.2104,313.71976 1184.6046,317.22568 1190.3864,313.81205 C 1176.6697,312.09944 1180.9128,298.16751 1168.3749,294.97101 C 1175.4469,295.35657 1179.7083,292.88739 1184.9135,291.37681 C 1178.9243,290.38318 1173.4905,291.94504 1166.806,287.75207 L 1156.3706,278.20758 L 1130.6221,277.89711 C 1124.2338,279.74917 1118.1509,282.21497 1113.1659,286.88811 C 1108.524,289.45334 1102.5756,291.37893 1102.9946,296.42221 C 1093.0937,298.43843 1074.3928,309.46239 1088.8402,308.23936 C 1089.5119,318.56706 1092.0802,321.38993 1097.6318,321.21228 C 1110.0928,323.26708 1112.7127,314.21046 1121.8425,311.69836 C 1142.3858,317.09591 1134.2812,330.49008 1128.3269,336.04 C 1121.8551,342.07236 1109.9303,339.32925 1109.9303,339.32925 C 1106.191,345.0243 1106.6873,348.22389 1111.4191,348.92804 C 1117.2312,353.66871 1118.9125,349.19973 1121.8806,347.59954 C 1142.2693,347.15693 1139.144,336.89913 1146.3314,330.94603 C 1140.9946,339.54078 1149.1306,350.36788 1127.2634,355.87958 C 1115.9712,358.73098 1117.0936,354.42789 1106.4295,357.57228 C 1095.7654,360.71668 1093.0856,367.81089 1084.6071,368.45716 C 1077.0281,369.03485 1066.5534,369.90002 1073.5653,353.37454 C 1058.5097,369.10672 1074.8379,382.23138 1095.0245,375.17057 C 1076.8858,381.71427 1065.6339,390.15103 1049.6588,380.77708 C 1072.0029,407.27027 1082.1818,388.35663 1106.2754,385.71908 C 1082.4011,389.83277 1085.8195,409.27574 1059.8281,408.33409 C 1067.3209,417.81093 1075.3305,415.81058 1085.8398,412.60359 C 1081.9872,416.48634 1078.9359,425.14872 1070.5938,424.89421 C 1075.4097,431.82659 1088.1051,428.34512 1099.0557,425.32375 C 1111.5149,421.88611 1117.5405,412.65783 1124.0498,404.29973 z" style="fill:#000000;fill-rule:evenodd;stroke:#333333;stroke-width:2.5;stroke-linecap:round;stroke-linejoin:round;stroke-miterlimit:4;stroke-dasharray:none;stroke-opacity:1" id="path2462"/>
    <path d="M 1141.0976,286.25165 C 1138.6968,276.73051 1147.5149,274.64716 1153.8972,270.94896 C 1153.7243,277.27779 1155.231,285.31254 1151.2919,287.81616" style="fill:#000000;fill-rule:evenodd;stroke:#333333;stroke-width:2.5;stroke-linecap:round;stroke-linejoin:round;stroke-miterlimit:4;stroke-dasharray:none;stroke-opacity:1" id="path2472"/>
    <path d="M 1104.32,297.12573 C 1107.7823,300.75042 1109.7923,297.69209 1112.1206,296.0987 C 1117.6575,288.35748 1122.5214,293.02733 1127.5266,295.08936" style="fill:#000000;fill-rule:evenodd;stroke:#333333;stroke-width:2.5;stroke-linecap:round;stroke-linejoin:round;stroke-miterlimit:4;stroke-dasharray:none;stroke-opacity:1" id="path3449"/>
    <path d="M 1108.8028,299.34822 C 1111.8558,300.76526 1113.6442,301.2214 1116.1436,300.09161 C 1120.2264,298.39113 1121.2286,295.78569 1123.2163,295.71471 C 1122.8503,294.0349 1122.3168,292.45116 1119.4921,292.18071 C 1113.2066,294.28223 1113.7433,296.44557 1108.8028,299.34822 z" style="fill:#ffffff;fill-opacity:1;fill-rule:evenodd;stroke:#333333;stroke-width:2.5;stroke-linecap:round;stroke-linejoin:round;stroke-miterlimit:4;stroke-dasharray:none;stroke-opacity:1" id="path3451"/>
    <path d="M 1148.1357,561.84704 C 1151.8148,553.77807 1147.9475,545.9908 1146.6655,538.10702" style="fill:#000000;fill-rule:evenodd;stroke:#333333;stroke-width:2.5;stroke-linecap:round;stroke-linejoin:round;stroke-miterlimit:4;stroke-dasharray:none;stroke-opacity:1" id="path3518"/>
    <path d="M 1025.4418,316.16617 C 1030.6881,322.41687 1027.7706,325.76103 1035.4816,328.79609" style="fill:#ff0000;fill-rule:evenodd;stroke:#333333;stroke-width:2.5;stroke-linecap:butt;stroke-linejoin:miter;stroke-miterlimit:4;stroke-dasharray:none;stroke-opacity:1" id="path4248"/>
  </g>
</svg>