<?xml version="1.0" encoding="utf-8"?>
<svg width="512px" height="512px" version="1.1" id="svg8" xmlns="http://www.w3.org/2000/svg">
  <g transform="matrix(2.244915, 0, 0, 2.244915, 17.586956, -71.666664)">
    <path style="stroke-width: 0.264583; fill: rgb(75, 0, 130);" d="M 100.874 255.166 C 98.085 252.511 92.825 247.475 89.184 243.976 C 85.544 240.476 81.136 236.25 79.39 234.583 C 76.818 232.128 28.692 186.014 24.16 181.661 L 22.902 180.453 L 22.902 116.649 C 22.902 55.219 22.919 52.835 23.383 52.587 C 24.071 52.219 105.325 31.924 106.112 31.924 C 106.911 31.924 188.128 52.205 188.827 52.579 C 189.312 52.838 189.324 54.465 189.324 116.679 L 189.324 180.513 L 187.274 182.466 C 183.94 185.641 173.98 195.182 163.924 204.832 C 158.758 209.791 150.126 218.063 144.742 223.215 C 139.358 228.367 129.476 237.832 122.782 244.248 C 108.117 258.305 106.328 259.995 106.111 259.995 C 106.019 259.995 103.662 257.822 100.874 255.166 Z" id="path4544"/>
    <path style="stroke-width: 0.264583; fill: rgb(34, 139, 34);" d="M 189.326 180.295 L 185.952 183.59 C 184.096 185.401 179.958 189.369 176.757 192.406 C 173.555 195.444 169.031 199.783 166.703 202.048 C 164.374 204.314 160.981 207.594 159.162 209.337 C 152.741 215.492 145.789 222.125 144.874 222.97 C 144.365 223.44 142.46 225.271 140.641 227.039 C 138.822 228.806 136.143 231.374 134.688 232.744 C 133.233 234.114 128.947 238.221 125.163 241.871 C 121.379 245.52 116.855 249.868 115.109 251.532 C 113.363 253.196 110.743 255.721 109.288 257.143 C 107.833 258.564 106.462 259.728 106.241 259.729 C 106.02 259.73 105.246 259.172 104.521 258.49 C 103.796 257.808 100.639 254.801 97.505 251.809 C 94.371 248.817 88.358 243.102 84.143 239.108 C 79.928 235.115 75.578 230.947 74.476 229.848 C 73.374 228.748 70.165 225.646 67.344 222.953 C 56.451 212.557 49.61 206.009 45.918 202.448 C 43.806 200.411 40.888 197.613 39.432 196.23 C 37.976 194.848 33.662 190.695 29.844 187.001 L 22.902 180.286 L 22.902 116.572 C 22.902 75.609 22.993 52.801 23.159 52.699 C 23.281 52.624 25.861 54.808 25.941 54.938 C 26.08 55.162 32.407 60.077 41.448 66.982 C 43.734 68.728 46.539 70.879 47.681 71.762 C 48.823 72.645 52.436 75.435 55.71 77.963 C 58.984 80.49 63.203 83.756 65.086 85.221 C 70.505 89.437 70.999 89.819 75.445 93.232 C 77.76 95.009 80.25 96.926 80.978 97.492 C 81.705 98.057 84.979 100.584 88.254 103.106 C 91.528 105.629 96.53 109.486 99.369 111.679 C 102.208 113.871 105.899 116.711 107.571 117.99 C 109.243 119.269 111.026 120.638 111.533 121.033 C 113.017 122.187 122.715 129.647 123.48 130.221 C 123.863 130.51 126.172 132.294 128.61 134.186 C 131.048 136.077 133.964 138.34 135.089 139.213 C 136.214 140.086 138.608 141.927 140.409 143.305 C 143.541 145.7 148.568 149.59 157.178 156.28 C 159.36 157.976 162.694 160.534 164.586 161.966 C 167.992 164.543 170.465 166.447 180.726 174.395 C 183.636 176.65 186.226 178.496 186.48 178.499 C 186.669 178.501 189.326 180.295 189.326 180.295 Z" id="path4540"/>
    <path style="fill: none; stroke: rgb(0, 0, 0); stroke-width: 5px;" d="M 106.089 259.461 C 105.957 259.459 23.166 180.26 23.166 180.26 C 23.166 180.26 23.19 53.097 23.629 52.866 C 23.884 52.732 106.12 32.115 106.12 32.115 C 106.12 32.115 188.311 52.709 188.577 52.851 C 189.042 53.1 189.06 180.322 189.06 180.322 C 189.06 180.322 106.408 259.467 106.089 259.461 Z" id="path4538"/>
    <g>
      <path style="stroke-width: 0.264583;" d="M 136 123.358 C 135.769 123.006 135.421 121.488 135.226 119.985 C 134.487 114.276 134.019 109.979 133.734 106.272 C 133.418 102.166 133.163 101.188 132.574 101.81 C 132.386 102.008 131.42 103.957 130.429 106.14 C 126.974 113.75 123.203 121.045 122.632 121.227 C 121.945 121.445 121.327 120.933 121.327 120.148 C 121.327 119.161 122.799 113.7 124.677 107.727 C 127.097 100.028 127.407 98.892 127.137 98.725 C 127.007 98.645 125.805 99.566 124.466 100.772 C 114.777 109.498 109.97 113.257 109.148 112.75 C 108.31 112.232 109.2 110.65 112.359 107.044 C 116.548 102.263 122.385 95.202 122.385 94.916 C 122.385 94.759 122.188 94.63 121.948 94.63 C 121.707 94.63 117.291 96.059 112.133 97.805 C 106.975 99.552 102.479 100.98 102.141 100.98 C 100.418 100.98 100.225 100.088 101.681 98.859 C 102.523 98.149 115.988 91.299 119.011 90.043 C 119.557 89.816 120.004 89.446 120.004 89.22 C 120.004 88.869 119.478 88.81 116.387 88.81 C 114.398 88.81 112.047 88.698 111.162 88.562 C 110.277 88.426 107.767 88.186 105.584 88.028 C 100.569 87.666 98.857 87.36 98.207 86.709 C 97.766 86.269 97.743 86.129 98.046 85.764 C 98.719 84.953 99.857 84.576 101.668 84.565 C 102.658 84.558 104.896 84.375 106.642 84.158 C 108.388 83.941 111.722 83.654 114.051 83.521 C 119.236 83.224 120.851 83.017 120.733 82.665 C 120.684 82.516 117.493 80.978 113.643 79.248 C 100.849 73.499 99.481 72.691 100.842 71.696 C 101.487 71.224 103.161 71.457 107.171 72.577 C 108.918 73.064 111.894 73.89 113.786 74.412 C 115.678 74.934 118.283 75.708 119.576 76.132 C 122.156 76.979 123.179 77.096 123.179 76.544 C 123.179 76.143 121.251 73.786 117.093 69.103 C 111.644 62.965 108.891 59.566 108.891 58.975 C 108.891 58.83 109.075 58.559 109.301 58.372 C 109.636 58.093 109.863 58.105 110.557 58.438 C 112.307 59.277 117.901 63.93 122.01 67.964 C 125.953 71.833 126.883 72.579 126.883 71.868 C 126.883 71.265 124.397 63.648 122.395 58.114 C 121.225 54.881 120.268 51.896 120.268 51.482 C 120.268 50.504 121.125 49.979 121.882 50.492 C 122.627 50.996 124.45 54.168 129.886 64.418 C 132.304 68.975 133.12 70.178 133.321 69.477 C 133.597 68.514 134.831 55.62 134.839 53.62 C 134.848 51.406 135.328 47.947 135.713 47.324 C 136.043 46.79 136.9 46.968 137.357 47.666 C 137.654 48.119 137.865 49.344 138.027 51.568 C 138.158 53.352 138.331 54.989 138.413 55.208 C 138.495 55.426 138.664 58.641 138.789 62.351 C 139.014 69.039 139.137 70.129 139.648 69.958 C 139.793 69.91 141.217 67.494 142.812 64.589 C 144.407 61.685 146.397 58.178 147.234 56.795 C 148.071 55.413 149.249 53.432 149.852 52.394 C 150.454 51.356 151.144 50.431 151.384 50.339 C 151.956 50.119 152.548 50.629 152.544 51.337 C 152.537 52.577 150.746 58.014 147.612 66.303 C 145.823 71.036 145.42 72.405 145.818 72.405 C 146.105 72.405 153.224 66.427 158.989 61.344 C 162.427 58.314 163.969 57.502 164.359 58.517 C 164.551 59.018 164.245 59.476 161.535 62.748 C 158.386 66.55 156.844 68.302 152.746 72.734 C 150.745 74.898 149.108 76.78 149.108 76.918 C 149.108 77.411 150.38 77.149 153.751 75.96 C 155.636 75.295 158.606 74.349 160.353 73.858 C 162.099 73.367 165.187 72.422 167.215 71.759 C 171.283 70.429 171.645 70.37 172.133 70.958 C 173.002 72.005 171.013 73.509 165.335 76.1 C 163.71 76.842 161.553 77.904 160.541 78.46 C 159.529 79.016 157.763 79.861 156.616 80.336 C 153.622 81.579 151.978 82.445 152.135 82.699 C 152.319 82.997 157.615 83.423 168.748 84.035 C 171.37 84.179 173.474 84.421 173.908 84.628 C 174.808 85.057 175.056 86.259 174.325 86.647 C 173.806 86.923 169.73 87.35 163.66 87.764 C 158.465 88.119 152.836 88.698 152.636 88.898 C 152.269 89.265 153.338 89.921 158.962 92.78 C 167.022 96.878 170.026 98.528 170.796 99.28 C 171.403 99.873 171.419 99.95 171.013 100.355 C 170.608 100.76 170.336 100.731 167.185 99.944 C 163.427 99.005 156.682 96.944 152.812 95.551 C 149.762 94.454 149.601 94.418 149.458 94.805 C 149.395 94.974 151.464 97.515 154.055 100.453 C 161.101 108.443 163.924 111.766 163.924 112.068 C 163.924 112.217 163.685 112.467 163.392 112.624 C 162.384 113.163 162.18 113.014 150.179 102.912 C 148.075 101.141 146.26 99.751 146.144 99.823 C 145.773 100.052 145.915 100.801 146.689 102.7 C 147.639 105.031 150.955 114.41 151.87 117.355 C 152.658 119.889 152.585 120.56 151.521 120.56 C 150.298 120.56 149.494 119.459 145.338 112.093 C 143.704 109.196 140.377 102.486 140.377 102.087 C 140.377 101.96 140.144 101.646 139.86 101.389 C 139.362 100.938 139.339 100.944 139.215 101.546 C 138.908 103.053 138.754 105.226 138.523 111.348 C 138.109 122.323 137.432 125.544 136 123.358 Z" id="path4538"/>
      <path style="stroke-width: 0.264583; fill: rgb(255, 255, 255);" d="M 136.933 114.314 C 136.935 113.426 137.056 111.223 137.202 109.419 C 137.348 107.616 137.515 104.235 137.573 101.907 C 137.687 97.335 137.796 96.747 138.535 96.747 C 139.243 96.747 139.783 97.641 142.605 103.486 C 145.41 109.295 148.101 114.233 148.762 114.781 C 149.147 115.101 149.169 115.009 148.989 113.812 C 148.88 113.085 148.557 111.895 148.271 111.167 C 147.986 110.44 147.274 108.475 146.689 106.801 C 146.105 105.128 144.995 102.151 144.223 100.187 C 143.452 98.222 142.75 96.407 142.665 96.152 C 142.471 95.573 142.717 94.893 143.117 94.901 C 143.283 94.905 144.669 96.036 146.197 97.414 C 153.554 104.051 156.252 106.222 156.252 105.506 C 156.252 105.135 152.266 100.47 147.352 95.087 C 145.55 93.113 144.885 91.801 145.557 91.543 C 146.055 91.352 148.142 91.998 151.816 93.48 C 155.488 94.961 160.894 96.747 161.704 96.747 C 162.052 96.747 162.337 96.638 162.337 96.504 C 162.337 96.132 161.162 95.481 153.936 91.85 C 150.261 90.004 147.181 88.374 147.092 88.229 C 147.002 88.084 147.121 87.773 147.355 87.538 C 147.7 87.194 148.667 87.077 152.348 86.933 C 156.844 86.758 164.022 86.259 165.718 86.003 C 166.195 85.931 166.526 85.777 166.454 85.66 C 166.258 85.343 162.467 85.027 151.754 84.434 C 148.479 84.252 146.904 83.914 147.064 83.427 C 147.211 82.979 148.781 82.151 152.944 80.326 C 157.675 78.252 163.374 75.5 164.057 74.958 C 164.585 74.539 164.585 74.539 164.052 74.531 C 163.24 74.518 160.466 75.336 153.341 77.689 C 149.776 78.866 146.561 79.796 146.198 79.756 C 145.129 79.636 145.192 78.68 146.329 77.787 C 146.854 77.374 148.314 75.8 149.572 74.29 C 150.83 72.78 152.967 70.34 154.321 68.867 C 156.764 66.207 157.057 65.791 156.481 65.791 C 156.157 65.791 151.979 69.244 146.798 73.795 C 143.788 76.438 142.768 77.032 142.363 76.378 C 142.156 76.043 142.887 74.05 146.153 66.035 C 147.61 62.458 148.888 59.065 148.993 58.494 L 149.183 57.457 L 148.625 57.953 C 147.886 58.61 145.549 62.59 142.003 69.23 C 139.848 73.267 138.97 74.675 138.57 74.737 C 138.119 74.805 138.008 74.636 137.877 73.678 C 137.692 72.323 137.252 65.292 137.029 60.102 C 136.941 58.065 136.773 56.22 136.656 56.001 C 136.28 55.299 136.273 55.349 135.36 65.556 C 135.209 67.246 135.074 69.329 135.06 70.186 C 135.023 72.442 134.513 74.634 134.003 74.73 C 133.574 74.811 131.29 70.694 127.284 62.616 C 125.517 59.052 124.432 57.324 123.962 57.324 C 123.825 57.324 124.08 58.307 124.528 59.507 C 125.287 61.542 128.842 71.881 129.683 74.498 C 130.201 76.108 130.17 76.903 129.592 76.903 C 129.336 76.903 127.222 74.987 124.896 72.645 C 119.366 67.079 114.854 63.232 115.286 64.453 C 115.419 64.831 122.415 72.915 124.749 75.388 C 127.166 77.95 127.589 78.621 127.134 79.169 C 126.96 79.378 126.593 79.549 126.317 79.549 C 125.588 79.549 122.471 78.68 118.681 77.421 C 115.051 76.214 109.725 74.787 108.852 74.787 C 108.38 74.787 108.348 74.848 108.64 75.199 C 108.828 75.426 109.348 75.77 109.796 75.963 C 111.068 76.513 117.964 79.466 121.291 80.885 C 124.478 82.245 125.296 82.786 125.296 83.533 C 125.296 84.359 123.773 84.65 118.284 84.873 C 107.452 85.312 104.15 85.655 105.099 86.241 C 105.5 86.49 112.597 86.969 118.87 87.172 C 125.022 87.371 125.735 87.521 125.131 88.486 C 124.793 89.028 124.997 88.92 118.152 92.157 C 112.787 94.694 110.583 95.881 110.811 96.109 C 111.026 96.324 114.24 95.396 120.155 93.413 C 123.367 92.336 126.194 91.455 126.439 91.455 C 126.732 91.455 126.883 91.672 126.883 92.093 C 126.883 92.534 126.091 93.573 124.303 95.478 C 121.584 98.376 116.709 104.078 115.915 105.291 C 115.657 105.685 115.561 106.008 115.702 106.008 C 115.98 106.008 119.087 103.392 122.667 100.147 C 125.778 97.325 128.804 94.896 129.207 94.895 C 130.126 94.895 129.882 96.566 128.162 102.039 C 124.98 112.166 124.634 113.933 126.468 110.675 C 127.483 108.872 129.765 104.001 131.907 99.062 C 132.523 97.643 133.177 96.483 133.362 96.483 C 134.006 96.483 134.351 97.282 134.587 99.322 C 135.362 106.027 135.628 108.714 136.023 113.813 C 136.113 114.977 136.243 116.105 136.312 116.319 C 136.569 117.121 136.929 115.959 136.933 114.314 Z" id="path4538"/>
    </g>
    <g>
      <path style="stroke-width: 0.264583;" d="M 76.612 143.628 C 79.673 142.529 80.686 141.939 82.492 140.202 C 86.726 136.129 88.187 132.302 87.702 126.55 C 87.5 124.158 87.384 123.77 86.245 121.66 C 85.565 120.4 84.672 118.878 84.261 118.279 C 82.496 115.706 78.793 113.226 75.603 112.483 C 72.414 111.739 67.501 112.19 65.799 113.383 C 65.416 113.652 64.679 114.009 64.16 114.177 C 62.646 114.668 58.881 118.604 57.922 120.699 C 57.085 122.527 56.252 126.369 56.245 128.436 C 56.238 130.433 57.038 133.563 58.151 135.897 C 59.546 138.822 63.636 142.418 66.628 143.349 C 69.984 144.395 74.152 144.511 76.612 143.628 Z M 45.949 191.126 C 45.788 190.965 45.656 190.697 45.656 190.53 C 45.656 190.055 48.205 188.027 49.713 187.303 C 51.06 186.655 53.222 185.219 54.255 184.283 C 54.546 184.02 55.498 183.222 56.371 182.51 C 58.256 180.975 61.717 177.377 63.383 175.221 C 65.063 173.047 65.889 171.562 66.855 168.978 C 67.603 166.981 67.697 166.419 67.701 163.951 C 67.705 161.155 67.41 160.006 66.495 159.246 C 66.234 159.03 61.485 158.924 49.683 158.869 C 33.64 158.794 33.222 158.779 32.706 158.263 C 31.553 157.107 30.98 145.243 31.888 141.329 C 33.332 135.111 33.453 134.669 34.177 132.962 C 34.524 132.143 34.808 131.3 34.808 131.087 C 34.808 130.738 37.485 126.431 38.721 124.793 C 38.995 124.429 39.534 123.596 39.918 122.941 C 41.175 120.798 45.733 116.378 48.963 114.169 C 51.602 112.364 57.092 109.663 59.846000000000004 108.814 C 64.741 107.306 65.308 107.227 71.32 107.212 C 76.644 107.199 77.221 107.246 80.316 107.949 C 85.806 109.197 89.525 110.767 93.81 113.649 C 97.175 115.912 98.317 116.857 100.789 119.428 C 103.99 122.757 106.315 126.08 108.335 130.217 C 112.017 137.755 112.734 140.827 112.717 149.002 C 112.712 151.938 112.563 154.832 112.361 155.958 C 111.812 159.016 113.114 158.783 96.203 158.842 C 81.946 158.892 79.498 158.977 78.726 159.455 C 78.198 159.782 78.284 164.732 78.862 167.224 C 79.457 169.788 81.414 173.738 82.963 175.503 C 83.399 175.999 83.756 176.493 83.756 176.6 C 83.756 176.707 85.015 178.102 86.554 179.699 C 89.961 183.237 94.211 186.736 97.316 188.56 C 99.618 189.913 99.965 190.332 99.264 190.914 C 98.748 191.342 46.374 191.551 45.949 191.126 Z M 70.228 133.291 C 67.4 132.695 64.836 130.603 63.519 127.819 C 62.984 126.689 62.854 126.006 62.854 124.332 C 62.854 121.796 63.451 120.435 65.634 117.997 C 68.015 115.337 70.72 114.673 74.538 115.81 C 76.7 116.454 77.784 117.33 79.212 119.592 C 80.626 121.831 81.02 123.677 80.611 126.151 C 80.369 127.62 80.08 128.351 79.349 129.346 C 78.3 130.776 76.438 132.307 75.035 132.896 C 73.91 133.367 71.519 133.564 70.228 133.291 Z" id="path4538"/>
      <path style="stroke-width: 0.264583; fill: rgb(72, 61, 139);" d="M 84.144 110.783 C 84.503 110.203 83.176 109.953 80.641 110.125 C 79.225 110.221 77.889 110.281 77.67 110.258 C 77.452 110.235 76.38 110.171 75.289 110.115 C 72.896 109.994 72.907 109.996 73.569 109.712 C 73.86 109.587 74.657 109.476 75.34 109.466 C 76.706 109.445 77.264 109.025 76.261 108.774 C 75.138 108.492 64.757 108.759 64.439 109.078 C 64.226 109.292 65.096 109.423 67.666 109.562 C 69.683 109.672 71.342 109.886 71.555 110.063 C 71.759 110.234 72.534 110.506 73.277 110.667 C 74.962 111.034 83.93 111.13 84.144 110.783 Z M 80.382 112.182 C 80.2 112.109 79.903 112.109 79.721 112.182 C 79.539 112.256 79.688 112.316 80.052 112.316 C 80.415 112.316 80.564 112.256 80.382 112.182 Z M 64.249 112.381 C 64.508 112.368 64.828 112.072 64.96 111.722 C 65.223 111.032 66.119 110.796 68.486 110.791 C 69.926 110.788 70.633 110.509 69.844 110.254 C 69.083 110.007 60.977 110.253 61.141 110.517 C 61.219 110.643 61.993 110.826 62.862 110.924 C 63.73 111.023 64.441 111.191 64.441 111.297 C 64.441 111.566 58.61 111.902 57.739 111.684 C 56.88 111.468 55.536 111.761 55.87 112.092 C 56.217 112.435 60.314 112.576 64.249 112.381 Z M 90.238 113.68 C 90.452 113.335 87.731 113.335 87.195 113.68 C 86.915 113.861 87.281 113.938 88.436 113.941 C 89.337 113.943 90.148 113.826 90.238 113.68 Z M 84.417 113.945 C 84.517 113.784 84.134 113.682 83.441 113.685 C 82.607 113.688 82.407 113.758 82.697 113.945 C 83.217 114.281 84.21 114.281 84.417 113.945 Z M 62.012 113.592 C 62.103 113.13 61.882 113.116 57.52 113.295 C 54.996 113.398 52.841 113.536 52.729 113.6 C 52.103 113.961 53.224 114.077 57.336 114.077 C 61.568 114.077 61.924 114.04 62.012 113.592 Z M 59.679 115.548 C 59.679 115.067 59.157 115 55 114.948 C 50.957 114.898 49.972 115.025 50.297 115.551 C 50.5 115.878 59.679 115.876 59.679 115.548 Z M 51.609 116.811 C 51.689 116.731 51.08 116.586 50.255 116.489 C 48.767 116.314 48.165 116.444 48.759 116.811 C 49.114 117.03 51.39 117.031 51.609 116.811 Z M 57.562 118.287 C 57.562 117.959 56.882 117.902 53.246 117.927 C 50.872 117.943 48.49 117.874 47.951 117.773 C 46.958 117.586 46.037 117.989 46.339 118.478 C 46.42 118.609 48.978 118.708 52.024 118.696 C 56.713 118.679 57.562 118.616 57.562 118.287 Z M 97.902 118.673 C 97.987 118.588 97.865 118.36 97.631 118.165 C 97.308 117.898 95.911 117.809 91.87 117.797 C 86.888 117.783 86.534 117.75 86.532 117.299 C 86.529 116.671 85.665 116.163 85.271 116.557 C 85.066 116.762 85.111 116.982 85.429 117.333 C 85.673 117.603 85.872 117.939 85.872 118.08 C 85.872 118.773 86.652 118.869 92.076 118.849 C 95.196 118.837 97.817 118.757 97.902 118.673 Z M 56.371 120.029 C 56.371 119.694 55.601 119.624 51.344 119.569 C 46 119.501 44.474 119.617 44.754 120.07 C 44.858 120.239 45.46 120.29 46.283 120.199 C 47.029 120.117 48.116 120.144 48.698 120.258 C 49.281 120.372 51.245 120.456 53.064 120.445 C 55.814 120.429 56.371 120.359 56.371 120.029 Z M 94.074 121.618 C 94.074 121.472 93.658 121.353 93.148 121.353 C 92.639 121.353 92.222 121.472 92.222 121.618 C 92.222 121.764 92.639 121.883 93.148 121.883 C 93.658 121.883 94.074 121.764 94.074 121.618 Z M 53.371 121.883 C 55.283 121.883 55.71 121.809 55.71 121.482 C 55.71 121.161 55.355 121.088 53.924 121.111 C 52.942 121.127 50.12 121.136 47.653 121.132 C 45.186 121.128 43.078 121.179 42.968 121.247 C 42.858 121.315 42.842 121.563 42.933 121.798 C 43.078 122.177 43.554 122.206 47.064 122.054 C 49.246 121.96 52.084 121.883 53.371 121.883 Z M 101.747 123.206 C 101.747 123.06 101.635 122.941 101.498 122.941 C 101.361 122.941 101.176 123.06 101.086 123.206 C 100.996 123.351 101.108 123.47 101.335 123.47 C 101.562 123.47 101.747 123.351 101.747 123.206 Z M 98.501 123.287 C 98.244 123.22 97.887 123.224 97.707 123.297 C 97.528 123.369 97.739 123.424 98.176 123.419 C 98.612 123.414 98.759 123.354 98.501 123.287 Z M 91.357 123.31 C 91.269 123.222 91.041 123.213 90.85 123.289 C 90.639 123.374 90.701 123.436 91.01 123.449 C 91.289 123.461 91.445 123.398 91.357 123.31 Z M 55.445 123.339 C 55.445 122.824 55.181 122.803 49.757 122.879 C 46.992 122.918 44.194 122.949 43.539 122.948 C 42.884 122.947 42.17 123.032 41.952 123.136 C 41.385 123.406 45.011 123.623 50.617 123.654 C 54.397 123.674 55.445 123.606 55.445 123.339 Z M 97.316 124.883 C 97.134 124.81 96.836 124.81 96.654 124.883 C 96.472 124.957 96.621 125.017 96.985 125.017 C 97.349 125.017 97.498 124.957 97.316 124.883 Z M 95.794 125.058 C 95.894 124.897 95.514 124.801 94.818 124.812 C 93.938 124.827 93.798 124.883 94.207 125.058 C 94.939 125.373 95.6 125.373 95.794 125.058 Z M 91.958 125.2 C 91.958 125.132 91.728 124.954 91.448 124.804 C 90.888 124.504 90.022 124.709 90.255 125.086 C 90.403 125.325 91.958 125.429 91.958 125.2 Z M 54.838 125.225 C 54.934 125.128 54.887 124.923 54.732 124.769 C 54.428 124.464 40.7 124.37 40.4 124.67 C 40.308 124.762 40.423 124.976 40.656 125.146 C 41.114 125.481 54.508 125.555 54.838 125.225 Z M 91.543 126.674 C 91.717 126.394 90.458 126.031 90.094 126.257 C 89.955 126.342 89.841 126.525 89.841 126.661 C 89.841 126.978 91.348 126.99 91.543 126.674 Z M 54.321 126.962 C 54.503 126.933 54.652 126.754 54.652 126.563 C 54.652 126.285 53.73 126.234 50.087 126.309 C 47.577 126.361 45.345 126.397 45.127 126.391 C 42.906 126.322 41.187 126.177 40.705 126.017 C 40.044 125.798 38.859 126.305 39.211 126.656 C 39.336 126.781 40.212 126.919 41.158 126.963 C 42.993 127.048 53.766 127.047 54.321 126.962 Z M 104.322 128.05 C 104.065 127.983 103.707 127.987 103.528 128.06 C 103.349 128.132 103.56 128.187 103.996 128.182 C 104.433 128.177 104.579 128.117 104.322 128.05 Z M 92.559 128.042 C 92.089 127.983 91.256 127.983 90.707 128.04 C 90.158 128.097 90.542 128.145 91.561 128.146 C 92.58 128.147 93.029 128.101 92.559 128.042 Z M 54.255 128.233 C 54.165 128.087 53.979 127.968 53.842 127.968 C 53.705 127.968 53.593 128.087 53.593 128.233 C 53.593 128.378 53.779 128.498 54.006 128.498 C 54.233 128.498 54.345 128.378 54.255 128.233 Z M 54.538 130.055 C 54.868 129.521 54.211 129.423 50.842 129.505 C 47.836 129.578 46.71 129.838 47.971 130.167 C 48.996 130.435 54.359 130.344 54.538 130.055 Z M 46.78 130.118 C 46.889 130.1 46.979 129.967 46.979 129.824 C 46.979 129.68 46.495 129.485 45.904 129.39 C 43.985 129.083 45.189 128.781 48.963 128.621 C 50.995 128.535 52.701 128.42 52.754 128.366 C 52.808 128.312 52.774 128.14 52.677 127.984 C 52.52 127.73 50.064 127.724 39.107 127.951 C 38.634 127.961 38.247 128.074 38.247 128.204 C 38.247 128.333 39.549 128.484 41.139 128.538 C 42.73 128.592 44.119 128.725 44.226 128.832 C 44.671 129.277 43.86 129.421 40.895 129.422 C 37.852 129.423 37.244 129.532 37.546 130.02 C 37.657 130.2 45.76 130.285 46.78 130.118 Z M 92.355 131.143 C 92.265 130.998 92.02 130.879 91.81 130.879 C 91.6 130.879 91.429 130.998 91.429 131.143 C 91.429 131.289 91.674 131.408 91.973 131.408 C 92.273 131.408 92.445 131.289 92.355 131.143 Z M 54.916 131.493 C 54.916 131.306 54.609 131.076 54.234 130.982 C 53.335 130.757 42.808 131.071 42.4 131.335 C 42.064 131.553 47.685 131.84 52.204 131.835 C 54.232 131.833 54.916 131.746 54.916 131.493 Z M 40.783 131.673 C 40.989 131.673 41.158 131.554 41.158 131.408 C 41.158 131.252 40.214 131.143 38.856 131.143 C 37.417 131.143 36.648 131.237 36.805 131.392 C 37.06 131.644 39.409 131.907 40.055 131.755 C 40.249 131.71 40.576 131.673 40.783 131.673 Z M 106.58 132.809 C 106.254 132.746 105.659 132.745 105.257 132.805 C 104.855 132.866 105.121 132.917 105.848 132.919 C 106.576 132.921 106.905 132.872 106.58 132.809 Z M 102.213 132.813 C 101.961 132.747 101.484 132.745 101.155 132.808 C 100.826 132.872 101.033 132.926 101.615 132.929 C 102.197 132.932 102.466 132.88 102.213 132.814 L 102.213 132.813 Z M 99.066 132.649 C 98.829 132.468 98.589 132.085 98.533 131.798 C 98.375 130.976 97.982 131.187 97.908 132.135 C 97.845 132.938 97.895 132.994 98.669 132.987 C 99.386 132.98 99.44 132.934 99.066 132.649 Z M 55.313 132.995 C 55.313 132.65 54.073 132.598 45.744 132.598 C 40.481 132.598 36.093 132.68 35.994 132.779 C 35.438 133.335 36.928 133.432 45.71 133.413 C 54.06 133.395 55.313 133.34 55.313 132.995 Z M 92.752 134.583 C 92.752 134.437 92.461 134.318 92.106 134.318 C 91.75 134.318 91.386 134.437 91.296 134.583 C 91.201 134.737 91.47 134.847 91.942 134.847 C 92.387 134.847 92.752 134.728 92.752 134.583 Z M 106.836 136.243 C 106.36 136.184 105.646 136.185 105.248 136.246 C 104.851 136.306 105.24 136.354 106.113 136.353 C 106.986 136.351 107.311 136.302 106.836 136.243 Z M 56.471 136.727 C 57.158 136.287 56.491 135.936 55.065 135.987 C 54.281 136.015 53.543 135.942 53.425 135.825 C 53.086 135.486 53.9 135.12 55.002 135.116 C 55.823 135.113 55.996 135.024 55.921 134.649 C 55.852 134.302 55.599 134.198 54.91 134.236 C 53.963 134.288 53.697 134.288 50.551 134.237 C 49.532 134.221 46.912 134.215 44.73 134.225 C 42.547 134.235 39.511 134.236 37.983 134.227 C 35.399 134.212 35.205 134.247 35.205 134.727 C 35.205 135.207 35.38 135.239 37.718 135.179 C 44.806 134.997 49.335 135.008 50.286 135.21 C 52.571 135.696 49.966 135.939 42.4 135.943 C 36.704 135.946 34.804 136.026 34.881 136.257 C 34.937 136.427 35.33 136.626 35.754 136.699 C 37.154 136.939 56.099 136.965 56.471 136.727 Z M 44.068 138.268 C 47.779 138.25 52.244 138.304 53.99 138.389 C 56.968 138.534 58.241 138.348 57.733 137.841 C 57.435 137.542 35.045 137.509 34.47 137.806 C 33.571 138.269 34.3 138.617 35.834 138.457 C 36.652 138.371 40.357 138.286 44.068 138.268 Z M 107.677 138.614 C 107.692 138.049 107.564 137.721 107.304 137.663 C 106.454 137.473 102.801 137.465 102.499 137.652 C 101.993 137.964 103.006 138.247 104.708 138.268 C 105.536 138.278 106.288 138.406 106.378 138.551 C 106.478 138.714 106.035 138.816 105.224 138.816 C 103.078 138.816 102.696 139.19 104.658 139.371 C 107.519 139.634 107.649 139.601 107.677 138.614 Z M 55.247 139.992 C 57.102 139.898 58.62 139.714 58.62 139.583 C 58.62 139.287 60.199 139.327 46.119 139.266 C 39.461 139.237 34.014 139.295 34.014 139.396 C 34.014 139.801 34.713 139.85 41.239 139.902 C 44.973 139.932 48.477 140.046 49.025 140.155 C 49.573 140.264 50.438 140.311 50.947 140.258 C 51.457 140.206 53.391 140.086 55.247 139.992 Z M 110.214 140.933 C 110.214 140.598 109.673 140.598 109.156 140.933 C 108.846 141.132 108.919 141.19 109.486 141.193 C 109.887 141.195 110.214 141.078 110.214 140.933 Z M 105.385 141.004 C 104.84 140.947 103.947 140.947 103.401 141.004 C 102.855 141.062 103.302 141.108 104.393 141.108 C 105.485 141.108 105.931 141.062 105.385 141.004 Z M 99.559 141.037 C 99.471 140.949 99.243 140.94 99.052 141.016 C 98.841 141.101 98.904 141.164 99.212 141.176 C 99.491 141.188 99.647 141.125 99.559 141.037 Z M 97.051 141.022 C 96.869 140.949 96.571 140.949 96.39 141.022 C 96.208 141.095 96.357 141.155 96.72 141.155 C 97.084 141.155 97.233 141.095 97.051 141.022 Z M 94.144 141.011 C 93.819 140.948 93.224 140.947 92.821 141.007 C 92.419 141.068 92.685 141.119 93.413 141.121 C 94.141 141.123 94.47 141.073 94.144 141.011 Z M 89.047 141.188 C 89.394 140.956 89.386 140.878 88.981 140.568 C 88.043 139.849 88.479 139.674 90.867 139.81 C 93.414 139.955 95.867 139.706 95.495 139.34 C 95.103 138.954 89.568 138.758 89.137 139.116 C 88.717 139.464 88.074 139.056 88.347 138.614 C 88.432 138.476 90.826 138.342 93.735 138.313 C 96.614 138.284 99.446 138.166 100.028 138.052 L 101.086 137.844 L 100.1 137.64 C 99.558 137.528 98.129 137.505 96.925 137.588 C 95.721 137.672 94.557 137.731 94.339 137.719 C 92.477 137.618 86.796 137.788 86.638 137.949 C 86.529 138.062 86.362 138.465 86.269 138.845 C 86.118 139.457 86.191 139.554 86.911 139.698 C 87.722 139.86 88.003 140.465 87.432 140.818 C 87.227 140.944 87.248 141.068 87.498 141.226 C 87.974 141.528 88.561 141.514 89.047 141.188 Z M 60.142 141.263 C 60.222 141.022 59.835 140.94 58.708 140.96 L 57.165 140.988 L 58.223 141.34 C 59.452 141.748 59.987 141.727 60.142 141.263 Z M 55.864 141.396 C 55.973 141.286 55.973 141.108 55.863 140.999 C 55.619 140.756 34 140.906 33.622 141.153 C 33.474 141.25 34.484 141.389 35.866 141.462 C 39.803 141.669 55.643 141.617 55.864 141.396 Z M 97.448 142.602 C 97.193 142.536 96.777 142.536 96.522 142.602 C 96.267 142.669 96.476 142.723 96.985 142.723 C 97.494 142.723 97.703 142.669 97.448 142.602 Z M 92.773 143.049 C 93.052 143.049 93.281 142.943 93.281 142.814 C 93.281 142.448 91.574 142.218 90.87 142.489 L 90.238 142.733 L 90.899 143.007 C 91.263 143.157 91.719 143.229 91.913 143.165 C 92.107 143.101 92.494 143.049 92.773 143.049 Z M 87.394 143.096 C 87.576 143.07 87.724 142.936 87.724 142.798 C 87.724 142.66 86.861 142.549 85.806 142.55 C 84.751 142.552 83.602 142.516 83.253 142.471 C 82.904 142.425 82.57 142.529 82.51 142.701 C 82.443 142.891 82.744 143.046 83.277 143.097 C 84.161 143.182 86.783 143.181 87.394 143.095 L 87.394 143.096 Z M 75.28 118.746 C 76.575 118.712 76.683 118.666 76.322 118.304 C 76.1 118.082 75.3 117.828 74.544 117.738 C 73.489 117.613 73.233 117.499 73.442 117.246 C 73.758 116.865 73.25 116.591 72.228 116.591 C 71.725 116.591 71.604 116.716 71.654 117.186 C 71.714 117.754 71.629 117.782 69.842 117.782 C 68.568 117.782 67.813 117.909 67.483 118.178 C 67.034 118.547 67.083 118.585 68.167 118.708 C 69.245 118.83 71.667 118.843 75.28 118.746 Z M 77.67 120.03 C 77.67 119.885 77.521 119.761 77.34 119.755 C 73.957 119.646 69.509 119.641 69.204 119.746 C 68.418 120.018 70.422 120.232 74.032 120.263 C 76.302 120.283 77.67 120.195 77.67 120.03 Z M 67.087 120.03 C 67.087 119.885 66.849 119.766 66.558 119.766 C 66.267 119.766 66.029 119.885 66.029 120.03 C 66.029 120.176 66.267 120.295 66.558 120.295 C 66.849 120.295 67.087 120.176 67.087 120.03 Z M 78.971 123.301 C 79.032 123.248 77.782 123.207 76.193 123.21 C 74.26 123.213 73.436 123.297 73.702 123.466 C 74.056 123.691 78.688 123.546 78.971 123.301 Z M 69.402 124.875 C 69.147 124.809 68.731 124.809 68.476 124.875 C 68.221 124.942 68.43 124.996 68.939 124.996 C 69.448 124.996 69.657 124.942 69.402 124.875 Z M 74.363 125.058 C 74.456 124.907 74.228 124.793 73.834 124.793 C 73.439 124.793 73.212 124.907 73.305 125.058 C 73.395 125.203 73.633 125.322 73.834 125.322 C 74.035 125.322 74.273 125.203 74.363 125.058 Z M 72.709 131.485 C 72.382 131.422 71.846 131.422 71.519 131.485 C 71.191 131.549 71.459 131.6 72.114 131.6 C 72.769 131.6 73.037 131.548 72.709 131.485 Z M 36.131 144.372 C 36.131 144.227 35.647 144.108 35.057 144.108 C 34.408 144.108 34.048 144.212 34.146 144.372 C 34.236 144.518 34.72 144.637 35.22 144.637 C 35.721 144.637 36.131 144.518 36.131 144.372 Z M 80.978 144.732 C 81.587 144.499 80.96 144.127 80.264 144.309 C 79.864 144.414 79.824 144.498 80.095 144.669 C 80.525 144.942 80.447 144.936 80.978 144.732 Z M 88.332 146.05 C 89.758 145.955 90.829 145.785 90.713 145.671 C 90.441 145.403 83.299 145.27 83.041 145.528 C 82.712 145.857 83.564 146.216 84.682 146.219 C 85.264 146.221 86.906 146.144 88.332 146.05 Z M 58.885 145.166 C 58.885 145.012 59.688 144.909 60.803 144.92 C 62.12 144.933 62.556 145.01 62.192 145.166 C 61.449 145.485 58.885 145.485 58.885 145.166 Z M 81.896 145.97 C 82.619 145.513 81.986 145.413 78.566 145.444 C 69.419 145.526 64.807 145.451 64.149 145.207 C 63.595 145.002 63.617 144.973 64.459 144.799 C 65.322 144.621 65.342 144.592 64.854 144.227 C 64.571 144.016 64.133 143.843 63.879 143.843 C 63.626 143.843 63.175 143.501 62.878 143.083 L 62.337 142.324 L 47.854 142.395 C 34.142 142.463 32.469 142.554 33.481 143.179 C 33.639 143.276 40.134 143.358 47.914 143.359 C 55.693 143.36 62.122 143.464 62.199 143.589 C 62.553 144.162 61.273 144.347 58.898 144.067 C 57.163 143.861 56.38 143.86 56.178 144.063 C 55.976 144.265 56.096 144.439 56.596 144.666 C 57.454 145.057 57.484 145.327 56.702 145.611 C 55.649 145.994 59.011 146.131 70.527 146.174 C 76.922 146.198 81.669 146.113 81.896 145.97 Z M 51.188 145.98 C 51.705 145.652 48.82 145.307 47.999 145.598 C 47.47 145.785 47.576 145.843 48.698 145.98 C 50.755 146.23 50.793 146.23 51.188 145.98 Z M 45.512 145.985 C 46.023 145.785 46.023 145.779 45.515 145.495 C 45.037 145.227 45.054 145.194 45.753 145.019 C 46.167 144.915 47.254 144.9 48.169 144.985 C 49.167 145.079 50.155 145.02 50.635 144.838 C 51.23 144.614 51.685 144.612 52.399 144.831 C 53.072 145.038 53.596 145.045 54.139 144.856 C 55.604 144.345 54.932 144.089 52.204 144.118 C 50.713 144.134 47.151 144.108 44.289 144.061 C 41.427 144.014 38.99 144.071 38.873 144.188 C 38.433 144.627 39.492 144.916 41.025 144.775 C 42.792 144.612 43.703 144.918 42.836 145.382 C 42.547 145.537 41.615 145.591 40.684 145.506 C 39.575 145.406 39.041 145.452 39.041 145.648 C 39.041 145.831 39.902 145.972 41.356 146.027 C 42.63 146.076 43.969 146.132 44.333 146.151 C 44.697 146.171 45.227 146.096 45.512 145.985 Z M 33.86 146.064 C 34.445 145.839 34.383 145.431 33.765 145.431 C 33.213 145.431 32.863 145.779 33.139 146.055 C 33.346 146.262 33.344 146.262 33.86 146.064 Z M 94.736 146.222 C 95.172 146.214 98.387 146.187 101.88 146.162 C 105.372 146.138 108.874 146.112 109.662 146.105 C 110.563 146.097 111.136 145.969 111.205 145.761 C 111.342 145.354 107.643 145.257 98.176 145.418 C 95.847 145.458 93.744 145.408 93.501 145.308 C 93.258 145.208 92.723 145.304 92.31 145.522 C 91.766 145.81 91.669 145.955 91.958 146.051 C 92.176 146.123 92.533 146.241 92.752 146.312 C 92.97 146.383 93.327 146.396 93.545 146.339 C 93.764 146.283 94.299 146.23 94.736 146.222 Z M 109.222 147.372 C 109.04 147.299 108.742 147.299 108.56 147.372 C 108.379 147.445 108.527 147.505 108.891 147.505 C 109.255 147.505 109.404 147.445 109.222 147.372 Z M 85.542 147.354 C 84.996 147.297 84.103 147.297 83.557 147.354 C 83.012 147.412 83.458 147.458 84.549 147.458 C 85.641 147.458 86.087 147.412 85.542 147.354 Z M 72.556 147.372 C 72.355 147.17 70.521 147.2 70.313 147.408 C 70.236 147.485 70.749 147.547 71.453 147.547 C 72.156 147.547 72.653 147.468 72.556 147.372 Z M 58.434 147.351 C 57.386 147.301 55.6 147.301 54.465 147.35 C 53.331 147.4 54.189 147.441 56.371 147.441 C 58.554 147.442 59.482 147.401 58.434 147.351 Z M 41.482 147.249 C 40.92 147.087 40.454 147.093 40.159 147.265 C 39.811 147.468 40.018 147.527 41.026 147.515 C 42.3 147.5 42.317 147.49 41.482 147.249 Z M 38.71 147.283 C 38.31 147.162 37.655 147.162 37.255 147.283 C 36.666 147.46 36.805 147.502 37.983 147.502 C 39.161 147.502 39.299 147.46 38.71 147.283 Z M 50.683 147.547 C 50.967 147.364 50.703 147.295 49.757 147.305 C 48.776 147.316 48.571 147.379 48.963 147.547 C 49.678 147.854 50.207 147.854 50.683 147.547 Z M 98.374 147.656 C 99.793 147.569 100.906 147.42 100.847 147.324 C 100.75 147.168 94.584 147.148 90.899 147.292 L 89.444 147.349 L 90.564 147.531 C 91.18 147.632 91.762 147.792 91.858 147.889 C 91.954 147.985 92.879 148.007 93.914 147.939 C 94.948 147.871 96.955 147.744 98.374 147.656 Z M 39.244 151.018 C 42.584 150.734 41.564 150.342 37.273 150.261 C 34.505 150.209 33.199 150.278 33.072 150.483 C 32.614 151.225 34.696 151.406 39.244 151.018 Z M 69.336 149.929 C 69.241 149.775 69.504 149.664 69.966 149.664 C 70.403 149.664 70.833 149.783 70.923 149.929 C 71.019 150.082 70.755 150.193 70.293 150.193 C 69.857 150.193 69.426 150.074 69.336 149.929 Z M 64.901 150.275 C 63.95 150.027 64.787 149.664 66.309 149.664 C 67.815 149.664 68.348 149.957 67.462 150.297 C 66.998 150.475 65.623 150.463 64.901 150.275 Z M 72.652 150.387 C 70.816 149.908 71.651 149.663 75.207 149.638 C 79.81 149.605 98.604 149.591 104.393 149.616 C 106.794 149.626 108.997 149.612 109.288 149.583 C 109.597 149.553 109.817 149.691 109.817 149.914 C 109.817 150.237 108.669 150.304 102.409 150.346 C 86.412 150.454 83.125 150.422 82.626 150.155 C 82.28 149.97 81.898 149.972 81.417 150.161 C 80.567 150.496 73.742 150.672 72.652 150.387 Z M 105.006 151.609 C 105.249 151.366 110.479 151.341 110.479 151.582 C 110.479 151.691 109.209 151.781 107.656 151.781 C 106.104 151.781 104.912 151.703 105.006 151.609 Z M 102.806 151.516 C 102.806 151.371 103.051 151.251 103.35 151.251 C 103.65 151.251 103.822 151.371 103.732 151.516 C 103.642 151.662 103.397 151.781 103.187 151.781 C 102.977 151.781 102.806 151.662 102.806 151.516 Z M 98.129 151.705 C 97.9 151.335 98.177 151.231 99.642 151.131 C 101.235 151.022 101.747 151.154 101.747 151.67 C 101.747 151.945 101.328 152.02 100.007 151.98 C 99.05 151.952 98.205 151.828 98.129 151.705 Z M 86.6 151.848 C 86.054 151.793 85.608 151.634 85.608 151.494 C 85.608 151.353 86.054 151.235 86.6 151.23 C 87.146 151.225 88.366 151.218 89.312 151.216 C 92.084 151.208 93.85 151.19 95.309 151.153 C 96.648 151.12 97.257 151.332 96.887 151.702 C 96.691 151.898 88.291 152.018 86.6 151.848 Z M 48.566 151.852 C 47.475 151.799 46.481 151.654 46.358 151.53 C 45.971 151.143 51.55 150.899 53.404 151.222 C 54.339 151.385 55.478 151.443 55.936 151.352 C 56.475 151.244 56.768 151.29 56.768 151.483 C 56.768 151.683 55.921 151.782 54.189 151.784 C 52.77 151.786 51.371 151.824 51.08 151.869 C 50.789 151.913 49.658 151.906 48.566 151.852 Z M 65.145 152.132 C 65.055 152.042 63.548 151.944 61.796 151.914 C 58.781 151.863 58.045 151.738 58.438 151.345 C 58.532 151.251 62.987 151.208 68.338 151.248 C 73.689 151.289 79.377 151.302 80.978 151.277 C 82.578 151.253 84.048 151.34 84.243 151.471 C 84.744 151.808 80.716 152.004 72.53 152.041 C 68.757 152.058 65.588 152.123 65.489 152.184 C 65.39 152.245 65.235 152.222 65.145 152.132 Z M 102.277 153.08 C 102.277 152.864 106.973 152.566 107.456 152.751 C 107.663 152.83 107.833 153.007 107.833 153.143 C 107.833 153.285 106.654 153.359 105.055 153.316 C 103.527 153.276 102.277 153.169 102.277 153.08 Z M 99.459 153.229 C 99.265 152.723 99.796 152.288 100.347 152.5 C 100.847 152.692 100.661 153.473 100.09 153.583 C 99.836 153.632 99.553 153.472 99.459 153.229 Z M 94.224 153.396 C 93.873 152.829 94.387 152.574 95.876 152.578 C 97.249 152.582 98.346 152.895 98.036 153.195 C 97.723 153.498 94.395 153.672 94.224 153.396 Z M 91.99 153.394 C 91.588 153.139 91.806 152.572 92.304 152.578 C 92.477 152.58 92.798 152.7 93.016 152.843 C 93.369 153.074 93.369 153.132 93.016 153.364 C 92.531 153.683 92.45 153.685 91.99 153.394 Z M 75.289 154.691 C 75.289 154.545 75.944 154.426 76.744 154.426 C 77.545 154.426 78.199 154.545 78.199 154.691 C 78.199 154.836 77.545 154.955 76.744 154.955 C 75.944 154.955 75.289 154.836 75.289 154.691 Z M 34.411 154.691 C 34.307 154.524 34.976 154.426 36.232 154.426 C 37.323 154.426 38.29 154.545 38.38 154.691 C 38.483 154.858 37.814 154.955 36.559 154.955 C 35.467 154.955 34.501 154.836 34.411 154.691 Z M 108.574 155.08 C 108.497 155.003 103.101 154.939 96.584 154.938 C 90.066 154.938 84.627 154.871 84.496 154.79 C 84.366 154.71 84.401 154.474 84.574 154.264 C 85.035 153.709 84.796 153.602 82.65 153.396 C 80.862 153.225 80.794 153.197 81.771 153.037 C 82.353 152.942 84.616 152.829 86.798 152.785 L 90.767 152.707 L 90.767 153.368 L 90.767 154.029 L 94.339 154.211 C 96.304 154.311 98.03 154.398 98.176 154.404 C 99.841 154.476 108.646 154.191 109.084 154.052 C 109.403 153.951 109.929 154.009 110.252 154.182 C 110.818 154.485 110.821 154.509 110.343 154.858 C 109.849 155.219 108.84 155.346 108.574 155.08 Z M 79.672 154.992 C 78.921 154.684 79.431 154.493 81.578 154.282 C 83.247 154.117 83.491 154.148 83.491 154.524 C 83.491 154.838 83.247 154.955 82.598 154.955 C 82.107 154.955 81.363 155.011 80.945 155.079 C 80.526 155.147 79.954 155.108 79.672 154.992 Z M 45.661 155.198 C 45.301 155.049 44.646 154.951 44.206 154.98 C 42.787 155.073 41.687 154.961 41.687 154.725 C 41.687 154.598 44.084 154.406 47.014 154.299 C 50.146 154.185 52.191 154.012 51.976 153.879 C 51.776 153.755 50.391 153.669 48.899 153.688 C 46.294 153.721 45.54 153.582 46.07 153.165 C 46.206 153.058 49.056 153.031 52.403 153.103 C 58.207 153.23 59.169 153.401 56.247 153.789 C 54.314 154.045 54.856 154.36 57.249 154.371 C 59.646 154.381 60.347 154.133 59.384 153.615 L 58.753 153.276 L 59.484 153.079 C 60.404 152.832 72.506 152.772 74.584 153.004 C 77.237 153.301 75.693 153.654 71.849 153.629 C 64.426 153.581 61.652 153.642 61.31 153.861 C 60.727 154.236 63.386 154.46 67.995 154.425 C 70.333 154.407 72.604 154.403 73.04 154.418 C 73.809 154.442 73.817 154.456 73.305 154.854 C 72.846 155.209 71.607 155.254 64.044 155.188 C 59.242 155.146 53.944 155.131 52.27 155.154 C 50.597 155.178 48.989 155.183 48.698 155.168 C 48.407 155.152 47.753 155.213 47.243 155.304 C 46.734 155.394 46.022 155.347 45.661 155.198 Z M 84.214 156.37 C 84.393 156.297 84.75 156.293 85.007 156.36 C 85.265 156.427 85.118 156.486 84.682 156.491 C 84.245 156.496 84.035 156.442 84.214 156.369 L 84.214 156.37 Z M 80.316 156.573 C 80.316 156.328 81.944 155.992 82.161 156.192 C 82.374 156.389 81.537 156.799 80.911 156.804 C 80.584 156.806 80.316 156.702 80.316 156.573 Z M 47.177 156.615 C 46.631 156.558 46.185 156.413 46.185 156.293 C 46.185 156.02 48.458 155.971 50.551 156.2 L 52.138 156.374 L 51.08 156.576 C 49.987 156.784 48.896 156.795 47.177 156.615 Z M 69.476 158.409 C 68.824 157.991 69.34 157.819 71.202 157.833 C 72.823 157.846 73.442 157.971 73.15 158.228 C 72.865 158.479 69.82 158.629 69.476 158.409 Z M 77.133 159.016 C 77.383 158.775 76.457 158.403 75.598 158.399 C 75.01 158.396 74.753 158.285 74.828 158.065 C 74.905 157.839 75.688 157.718 77.298 157.682 C 78.594 157.654 81.738 157.546 84.285 157.442 C 86.831 157.339 89.808 157.264 90.899 157.276 C 92.51 157.294 92.759 157.246 92.222 157.022 C 91.859 156.87 90.37 156.715 88.915 156.677 C 85.631 156.591 85.708 156.601 86.022 156.287 C 86.246 156.063 93.21 155.861 96.802 155.974 C 98.234 156.019 98.296 156.543 96.869 156.543 C 96.386 156.543 95.843 156.722 95.662 156.94 C 95.374 157.287 95.585 157.337 97.334 157.337 C 99.304 157.337 100.163 157.012 99.091 156.672 C 98.356 156.439 98.594 155.866 99.393 155.943 C 99.742 155.977 100.717 156.026 101.56 156.052 C 103.256 156.105 103.959 156.541 102.358 156.547 C 101.114 156.552 100.328 156.951 101.032 157.22 C 101.285 157.318 101.817 157.314 102.215 157.212 C 103.367 156.919 104.861 156.972 107.225 157.39 C 108.22 157.566 108.769 157.543 109.209 157.307 L 109.817 156.98 L 109.023 156.762 C 108.587 156.642 107.546 156.568 106.711 156.599 C 105.804 156.632 105.063 156.525 104.872 156.334 C 104.622 156.083 104.894 156.005 106.126 155.971 C 109.724 155.875 110.813 155.786 111.03 155.569 C 111.156 155.443 111.164 154.985 111.049 154.552 C 110.881 153.92 110.665 153.739 109.952 153.632 C 108.819 153.463 108.552 152.839 109.612 152.839 C 110.545 152.839 111.509 152.222 111.035 151.929 C 110.789 151.778 110.791 151.644 111.045 151.338 C 111.306 151.024 111.304 150.834 111.036 150.405 C 110.795 150.018 110.781 149.785 110.986 149.58 C 111.691 148.874 111.279 148.605 109.486 148.601 C 107.527 148.597 106.939 148.381 107.179 147.755 C 107.31 147.413 107.013 147.323 105.402 147.221 C 104.338 147.154 103.354 147.199 103.216 147.323 C 103.074 147.45 103.476 147.549 104.142 147.551 C 105.572 147.556 106.33 147.934 105.716 148.337 C 105.392 148.55 97.175 148.804 95.265 148.66 C 94.974 148.638 89.616 148.634 83.359 148.65 C 77.101 148.666 64.064 148.657 54.387 148.629 C 38.283 148.583 32.697 148.699 33.071 149.074 C 33.341 149.343 35.316 149.392 49.164 149.477 C 58.888 149.537 63.212 149.651 63.415 149.855 C 63.853 150.292 60.932 150.598 59.718 150.242 C 59.067 150.051 58.322 150.042 57.43 150.214 C 56.702 150.354 53.071 150.453 49.36 150.433 C 41.549 150.391 41.872 150.378 42.084 150.722 C 42.174 150.867 42.813 150.986 43.504 150.986 C 44.195 150.986 44.98 151.147 45.248 151.343 C 45.693 151.668 45.646 151.712 44.704 151.838 C 44.136 151.914 41.647 151.938 39.173 151.891 C 36.7 151.843 34.342 151.87 33.934 151.949 C 32.817 152.166 33.238 152.7 34.566 152.75 C 35.208 152.775 37.639 152.856 39.967 152.93 C 45.094 153.094 44.659 153.054 44.482 153.34 C 44.401 153.471 41.951 153.551 39.037 153.518 C 34.9 153.472 33.674 153.536 33.447 153.81 C 33.233 154.067 33.241 154.264 33.475 154.547 C 33.651 154.758 33.715 155.061 33.617 155.22 C 33.519 155.378 33.571 155.666 33.732 155.86 C 33.962 156.137 34.807 156.181 37.658 156.062 C 42.471 155.861 44.344 155.936 44.755 156.348 C 44.982 156.575 44.217 156.61 39.096 156.608 C 36.405 156.607 35.343 156.693 35.414 156.905 C 35.485 157.119 38.045 157.204 44.431 157.204 C 51.798 157.204 53.388 157.139 53.577 156.833 C 53.72 156.602 54.424 156.42 55.436 156.351 C 56.897 156.252 57.056 156.29 56.982 156.722 C 56.913 157.128 57.11 157.215 58.223 157.275 L 59.546 157.346 L 58.885 156.818 L 58.223 156.29 L 59.546 156.28 C 60.274 156.275 61.144 156.197 61.48 156.107 C 61.956 155.979 62.124 156.068 62.239 156.507 C 62.417 157.191 63.341 157.28 63.287 156.608 C 63.253 156.18 63.703 156.145 69.336 156.145 C 72.683 156.145 76.195 156.206 77.141 156.28 C 78.823 156.411 78.799 156.418 76.083 156.593 C 74.555 156.69 71.816 156.782 69.997 156.795 C 68.178 156.809 66.48 156.885 66.223 156.965 C 65.5 157.189 65.917 157.535 67.154 157.74 C 68.586 157.977 68.769 158.094 68.4 158.538 C 68.235 158.737 68.158 158.995 68.229 159.11 C 68.362 159.324 76.907 159.233 77.133 159.014 L 77.133 159.016 Z M 76.988 160.771 C 77.503 160.256 76.731 160.115 72.862 160.021 C 69.102 159.929 68.894 159.95 68.984 160.416 C 69.068 160.848 69.345 160.909 71.239 160.911 C 72.426 160.912 73.496 161.014 73.616 161.136 C 73.886 161.412 76.645 161.114 76.988 160.771 Z M 76.769 163.911 C 77.094 163.386 76.136 162.915 75.256 163.167 C 74.32 163.436 73.443 163.22 74.01 162.86 C 74.204 162.737 74.809 162.635 75.355 162.633 C 76.025 162.63 76.347 162.509 76.347 162.26 C 76.347 161.686 75.726 161.57 72.688 161.574 C 69.665 161.578 68.88 161.788 69.424 162.443 C 69.648 162.714 70.083 162.789 70.894 162.697 C 71.591 162.619 72.117 162.684 72.227 162.863 C 72.429 163.188 71.994 163.264 70.46 163.172 C 69.714 163.127 69.468 163.214 69.468 163.524 C 69.468 163.867 69.978 163.948 72.577 164.019 C 74.287 164.065 75.887 164.128 76.133 164.159 C 76.379 164.191 76.665 164.079 76.769 163.911 Z M 76.992 167.154 C 77.202 166.814 76.489 166.6 75.069 166.579 C 72.847 166.545 72.579 166.156 74.628 165.938 C 75.646 165.829 76.636 165.656 76.827 165.554 C 77.679 165.096 76.282 164.882 72.947 164.959 C 69.497 165.038 69.418 165.053 69.561 165.6 C 69.652 165.947 69.545 166.279 69.283 166.471 C 68.322 167.174 69.21 167.391 73.04 167.391 C 75.133 167.391 76.911 167.285 76.992 167.154 Z M 78.464 170.462 C 78.464 169.962 77.778 169.735 76.922 169.951 L 76.215 170.129 L 77.009 170.468 C 78.053 170.914 78.464 170.912 78.464 170.462 Z M 75.636 170.321 C 75.755 170.205 75.457 170.022 74.975 169.916 L 74.098 169.721 L 74.892 169.362 C 75.329 169.164 76.073 168.997 76.546 168.991 C 77.019 168.984 77.406 168.86 77.406 168.714 C 77.406 168.569 77.316 168.447 77.207 168.443 C 74.488 168.359 68.857 168.443 68.73 168.571 C 68.445 168.855 69.278 169.235 70.196 169.239 C 70.669 169.241 71.056 169.362 71.056 169.508 C 71.056 169.653 70.421 169.772 69.645 169.772 C 68.091 169.772 67.736 169.941 68.177 170.472 C 68.405 170.746 69.236 170.792 71.945 170.678 C 73.857 170.598 75.518 170.438 75.636 170.321 Z M 71.827 171.892 C 74.033 171.888 73.683 171.539 71.377 171.442 C 68.128 171.306 67.692 171.37 68.042 171.936 C 68.141 172.096 68.617 172.145 69.171 172.053 C 69.698 171.966 70.894 171.894 71.827 171.892 Z M 78.796 171.586 C 78.577 171.367 77.955 171.352 76.56 171.531 L 74.628 171.779 L 76.612 172.047 C 78.613 172.317 79.368 172.158 78.796 171.586 Z M 77.538 175.064 C 77.638 174.902 77.232 174.799 76.495 174.799 C 75.832 174.799 75.289 174.919 75.289 175.064 C 75.289 175.21 75.758 175.329 76.332 175.329 C 76.905 175.329 77.448 175.21 77.538 175.064 Z M 80.314 175.336 C 80.628 175.137 80.642 175.019 80.38 174.758 C 80.199 174.577 80.052 174.219 80.052 173.962 C 80.052 173.078 79.154 172.947 73.124 172.951 C 67.646 172.955 66.115 173.123 66.654 173.661 C 66.772 173.778 69.53 173.873 72.783 173.873 C 77.242 173.873 78.783 173.957 79.04 174.213 C 79.318 174.49 79.265 174.583 78.751 174.717 C 78.154 174.873 78.146 174.9 78.608 175.237 C 79.175 175.652 79.76 175.686 80.314 175.336 Z M 68.211 175.315 C 68.877 175.13 69.515 175.125 70.149 175.3 C 71.084 175.558 71.849 175.457 71.849 175.075 C 71.849 174.792 65.94 174.52 65.668 174.791 C 65.294 175.163 65.745 175.593 66.507 175.592 C 66.899 175.591 67.666 175.466 68.211 175.315 Z M 81.904 176.769 C 81.904 176.576 81.782 176.343 81.633 176.251 C 81.435 176.128 67.931 176.018 64.772 176.112 C 64.379 176.124 64.324 176.833 64.706 176.96 C 64.852 177.009 68.781 177.065 73.437 177.084 C 80.313 177.114 81.904 177.054 81.904 176.769 Z M 86.083 181.821 C 86.154 181.749 86.047 181.646 85.844 181.59 C 85.641 181.534 85.059 181.357 84.549 181.196 C 84.034 181.034 82.965 180.973 82.138 181.06 C 81.185 181.16 80.589 181.112 80.474 180.926 C 80.259 180.578 80.993 180.386 82.899 180.292 C 83.665 180.254 84.29 180.104 84.288 179.959 C 84.286 179.789 81.508 179.684 76.546 179.666 C 68.689 179.638 65.087 179.435 64.821 179.006 C 64.738 178.871 66.135 178.756 68.064 178.74 C 69.928 178.725 74.07 178.695 77.269 178.674 C 82.752 178.638 83.092 178.607 83.183 178.134 C 83.268 177.693 83.173 177.657 82.393 177.829 C 81.906 177.938 81.388 178.023 81.242 178.02 C 81.097 178.017 76.959 177.942 72.048 177.854 C 63.299 177.697 63.118 177.704 63.118 178.213 C 63.118 178.544 63.334 178.769 63.714 178.834 C 64.244 178.926 64.223 178.959 63.515 179.134 C 63.079 179.242 62.453 179.385 62.126 179.451 C 61.799 179.518 61.531 179.733 61.531 179.929 C 61.531 180.484 63.575 180.609 68.278 180.341 C 73.262 180.056 78.9 180.157 79.281 180.538 C 79.826 181.083 70.207 181.377 64.177 181 C 62.425 180.89 61.422 180.944 60.869 181.177 C 60.126 181.491 60.235 181.525 62.589 181.72 C 63.971 181.834 66.591 181.89 68.41 181.844 C 70.229 181.799 72.015 181.844 72.379 181.944 C 73.105 182.144 85.874 182.029 86.083 181.821 Z M 91.429 186.469 C 91.429 186.135 90.709 185.9 90.24 186.08 C 90.022 186.164 89.91 186.339 89.991 186.469 C 90.181 186.777 91.429 186.778 91.429 186.469 Z M 73.966 184.078 C 73.966 183.942 74.174 183.768 74.429 183.691 C 75.679 183.313 80.963 183.655 80.691 184.096 C 80.498 184.408 73.966 184.39 73.966 184.078 Z M 83.623 184.398 C 81.778 184.279 81.158 183.899 82.464 183.687 C 83.643 183.496 86.534 183.855 86.534 184.192 C 86.534 184.495 85.87 184.542 83.623 184.398 Z M 82.301 185.647 C 82.206 185.495 82.451 185.384 82.88 185.387 C 83.457 185.39 83.535 185.448 83.227 185.647 C 82.718 185.976 82.504 185.976 82.301 185.647 Z M 64.591 185.676 C 64.371 185.319 65.318 185.195 68.732 185.133 C 71.854 185.077 72.908 185.211 72.908 185.665 C 72.908 185.983 64.787 185.993 64.591 185.676 Z M 84.204 186.007 C 83.886 185.689 84.315 185.383 85.079 185.383 C 85.498 185.383 85.907 185.489 85.988 185.62 C 86.249 186.043 84.599 186.402 84.204 186.007 Z M 77.072 185.997 C 76.815 185.928 76.674 185.762 76.757 185.627 C 76.963 185.293 80.581 185.312 80.581 185.647 C 80.581 185.793 80.491 185.919 80.382 185.929 C 78.716 186.072 77.448 186.099 77.072 185.997 Z M 82.433 187.102 C 82.433 186.576 82.893 186.526 84.682 186.854 C 85.658 187.033 85.689 187.064 85.079 187.247 C 83.859 187.614 82.433 187.536 82.433 187.102 Z M 55.974 187.325 C 54.759 186.92 54.762 186.922 55.237 186.743 C 55.486 186.65 56.736 186.614 58.015 186.664 C 59.294 186.714 60.965 186.747 61.729 186.737 C 62.493 186.728 63.118 186.818 63.118 186.938 C 63.118 187.322 56.963 187.655 55.974 187.325 Z M 78.937 187.622 C 78.833 187.517 76.78 187.417 74.373 187.399 C 71.653 187.379 69.999 187.267 70.001 187.102 C 70.003 186.854 74.517 186.662 79.126 186.714 C 80.837 186.734 81.699 186.998 81.313 187.385 C 81.057 187.64 79.143 187.831 78.937 187.622 Z M 66.955 187.632 C 66.809 187.583 66.244 187.468 65.698 187.377 C 64.04 187.099 64.587 186.705 66.624 186.71 C 68.927 186.715 69.656 187.025 68.396 187.464 C 67.512 187.773 67.405 187.785 66.955 187.632 Z M 78.862 189.132 C 78.479 188.749 78.943 188.619 81.136 188.494 C 83.71 188.347 84.627 188.458 84.479 188.9 C 84.387 189.177 79.123 189.393 78.862 189.132 Z M 55.842 189.163 C 54.629 188.871 54.876 188.558 56.318 188.558 C 57.842 188.558 58.327 188.891 57.231 189.185 C 56.904 189.272 56.576 189.332 56.504 189.317 C 56.431 189.302 56.133 189.233 55.842 189.163 Z M 82.631 189.725 C 85.395 189.605 86.402 189.472 86.402 189.228 C 86.402 188.818 88.345 188.563 91.495 188.56 C 93.327 188.558 93.81 188.478 93.81 188.179 C 93.81 187.621 93.142 187.495 90.358 187.524 C 88.982 187.539 87.559 187.427 87.195 187.277 L 86.534 187.004 L 87.328 186.983 C 88.939 186.941 89.29 185.912 87.693 185.912 C 87.199 185.912 86.965 185.805 87.074 185.63 C 87.169 185.475 87.563 185.369 87.949 185.393 C 89.346 185.484 89.841 185.378 89.841 184.991 C 89.841 184.775 89.544 184.524 89.18 184.433 C 88.817 184.342 88.369 183.953 88.185 183.568 L 87.849 182.869 L 78.857 182.819 C 73.912 182.792 67.325 182.749 64.22 182.723 C 58.915 182.68 57.463 182.847 58.354 183.397 C 58.524 183.502 61.809 183.587 65.654 183.585 C 71.835 183.582 73.349 183.709 72.868 184.187 C 72.606 184.448 66.468 184.527 65.056 184.289 C 63.95 184.101 62.876 184.097 61.732 184.275 C 60.572 184.456 59.655 184.45 58.806 184.255 C 57.88 184.043 57.391 184.053 56.863 184.293 C 55.455 184.935 56.56 185.227 60.208 185.175 C 62.273 185.146 63.647 185.229 63.647 185.382 C 63.647 185.732 62.412 186.026 61.134 185.981 C 54.921 185.763 54.898 185.764 54.433 186.359 C 54.19 186.67 53.553 187.104 53.019 187.322 C 52.353 187.595 52.021 187.913 51.961 188.337 C 51.886 188.863 51.744 188.942 50.997 188.869 C 50.104 188.782 49.251 189.225 49.508 189.642 C 49.664 189.894 66.359 189.926 67.219 189.676 C 68.395 189.335 66.377 189.144 63.092 189.285 C 60.571 189.394 59.708 189.348 59.552 189.096 C 59.433 188.904 59.5 188.66 59.711 188.52 C 60.142 188.231 75.151 188.331 75.444 188.624 C 75.869 189.05 75.192 189.148 71.995 189.124 C 70.169 189.111 68.674 189.204 68.674 189.331 C 68.674 190.026 72.939 190.146 82.631 189.725 Z" id="path4538"/>
    </g>
  </g>
</svg>