<?xml version="1.0" encoding="utf-8"?>
<svg version="1.0" width="1024px" height="512px" id="svg7107" xmlns="http://www.w3.org/2000/svg" xmlns:xlink="http://www.w3.org/1999/xlink" xmlns:bx="https://boxy-svg.com">
  <defs id="defs3">
    <polygon points="0,-1 0.58778525,0.80901699 -0.95105652,-0.30901699 0.95105652,-0.30901699 -0.58778525,0.80901699 0,-1 " transform="scale(53,53)" id="polygon9535"/>
    <polygon points="0,-1 0.58778525,0.80901699 -0.95105652,-0.30901699 0.95105652,-0.30901699 -0.58778525,0.80901699 0,-1 " transform="scale(53,53)" id="star"/>
    <polygon points="0,-1 0.58778525,0.80901699 -0.95105652,-0.30901699 0.95105652,-0.30901699 -0.58778525,0.80901699 0,-1 " transform="scale(53,53)" id="polygon2895"/>
    <polygon points="0,-1 0.58778525,0.80901699 -0.95105652,-0.30901699 0.95105652,-0.30901699 -0.58778525,0.80901699 0,-1 " transform="scale(53,53)" id="polygon2869"/>
    <polygon points="0,-1 0.58778525,0.80901699 -0.95105652,-0.30901699 0.95105652,-0.30901699 -0.58778525,0.80901699 0,-1 " transform="scale(53,53)" id="polygon5833"/>
    <polygon points="0,-1 0.58778525,0.80901699 -0.95105652,-0.30901699 0.95105652,-0.30901699 -0.58778525,0.80901699 0,-1 " transform="scale(53,53)" id="polygon5665"/>
    <polygon points="0,-1 0.58778525,0.80901699 -0.95105652,-0.30901699 0.95105652,-0.30901699 -0.58778525,0.80901699 0,-1 " transform="scale(53,53)" id="polygon3554"/>
    <polygon points="0,-1 0.58778525,0.80901699 -0.95105652,-0.30901699 0.95105652,-0.30901699 -0.58778525,0.80901699 0,-1 " transform="scale(53,53)" id="polygon3528"/>
    <polygon points="0,-1 0.58778525,0.80901699 -0.95105652,-0.30901699 0.95105652,-0.30901699 -0.58778525,0.80901699 0,-1 " transform="scale(53,53)" id="polygon4014"/>
    <polygon points="0,-1 0.58778525,0.80901699 -0.95105652,-0.30901699 0.95105652,-0.30901699 -0.58778525,0.80901699 0,-1 " transform="scale(53,53)" id="polygon4673"/>
    <polygon points="0,-1 0.58778525,0.80901699 -0.95105652,-0.30901699 0.95105652,-0.30901699 -0.58778525,0.80901699 0,-1 " transform="scale(53,53)" id="polygon4633"/>
    <polygon points="0,-1 0.58778525,0.80901699 -0.95105652,-0.30901699 0.95105652,-0.30901699 -0.58778525,0.80901699 0,-1 " transform="scale(53,53)" id="polygon4493"/>
    <polygon points="0,-1 0.58778525,0.80901699 -0.95105652,-0.30901699 0.95105652,-0.30901699 -0.58778525,0.80901699 0,-1 " transform="scale(53,53)" id="polygon4467"/>
    <polygon points="0,-1 0.58778525,0.80901699 -0.95105652,-0.30901699 0.95105652,-0.30901699 -0.58778525,0.80901699 0,-1 " transform="scale(53,53)" id="polygon8459"/>
    <polygon points="0,-1 0.58778525,0.80901699 -0.95105652,-0.30901699 0.95105652,-0.30901699 -0.58778525,0.80901699 0,-1 " transform="scale(53,53)" id="polygon8433"/>
    <polygon points="0,-1 0.58778525,0.80901699 -0.95105652,-0.30901699 0.95105652,-0.30901699 -0.58778525,0.80901699 0,-1 " transform="scale(53,53)" id="polygon8293"/>
    <polygon points="0,-1 0.58778525,0.80901699 -0.95105652,-0.30901699 0.95105652,-0.30901699 -0.58778525,0.80901699 0,-1 " transform="scale(53,53)" id="polygon8253"/>
    <polygon points="0,-1 0.58778525,0.80901699 -0.95105652,-0.30901699 0.95105652,-0.30901699 -0.58778525,0.80901699 0,-1 " transform="scale(53,53)" id="polygon8195"/>
    <polygon points="0,-1 0.58778525,0.80901699 -0.95105652,-0.30901699 0.95105652,-0.30901699 -0.58778525,0.80901699 0,-1 " transform="scale(53,53)" id="polygon8155"/>
    <polygon points="0,-1 0.58778525,0.80901699 -0.95105652,-0.30901699 0.95105652,-0.30901699 -0.58778525,0.80901699 0,-1 " transform="scale(53,53)" id="polygon8129"/>
    <polygon points="0,-1 0.58778525,0.80901699 -0.95105652,-0.30901699 0.95105652,-0.30901699 -0.58778525,0.80901699 0,-1 " transform="scale(53,53)" id="polygon7989"/>
    <polygon points="0,-1 0.58778525,0.80901699 -0.95105652,-0.30901699 0.95105652,-0.30901699 -0.58778525,0.80901699 0,-1 " transform="scale(53,53)" id="polygon7949"/>
    <polygon points="0,-1 0.58778525,0.80901699 -0.95105652,-0.30901699 0.95105652,-0.30901699 -0.58778525,0.80901699 0,-1 " transform="scale(53,53)" id="polygon7891"/>
    <polygon points="0,-1 0.58778525,0.80901699 -0.95105652,-0.30901699 0.95105652,-0.30901699 -0.58778525,0.80901699 0,-1 " transform="scale(53,53)" id="polygon7865"/>
    <polygon points="0,-1 0.58778525,0.80901699 -0.95105652,-0.30901699 0.95105652,-0.30901699 -0.58778525,0.80901699 0,-1 " transform="scale(53,53)" id="polygon7753"/>
    <polygon points="0,-1 0.58778525,0.80901699 -0.95105652,-0.30901699 0.95105652,-0.30901699 -0.58778525,0.80901699 0,-1 " transform="scale(53,53)" id="polygon7727"/>
    <polygon points="0,-1 0.58778525,0.80901699 -0.95105652,-0.30901699 0.95105652,-0.30901699 -0.58778525,0.80901699 0,-1 " transform="scale(53,53)" id="polygon59702"/>
    <polygon points="0,-1 0.58778525,0.80901699 -0.95105652,-0.30901699 0.95105652,-0.30901699 -0.58778525,0.80901699 0,-1 " transform="scale(53,53)" id="polygon6387"/>
    <polygon points="0,-1 0.58778525,0.80901699 -0.95105652,-0.30901699 0.95105652,-0.30901699 -0.58778525,0.80901699 0,-1 " transform="scale(53,53)" id="polygon6445"/>
    <polygon points="0,-1 0.58778525,0.80901699 -0.95105652,-0.30901699 0.95105652,-0.30901699 -0.58778525,0.80901699 0,-1 " transform="scale(53,53)" id="polygon7627"/>
    <polygon points="0,-1 0.58778525,0.80901699 -0.95105652,-0.30901699 0.95105652,-0.30901699 -0.58778525,0.80901699 0,-1 " transform="scale(53,53)" id="polygon23593"/>
    <polygon points="0,-1 0.58778525,0.80901699 -0.95105652,-0.30901699 0.95105652,-0.30901699 -0.58778525,0.80901699 0,-1 " transform="scale(53,53)" id="polygon23535"/>
    <polygon points="0,-1 0.58778525,0.80901699 -0.95105652,-0.30901699 0.95105652,-0.30901699 -0.58778525,0.80901699 0,-1 " transform="scale(53,53)" id="polygon23513"/>
    <polygon points="0,-1 0.58778525,0.80901699 -0.95105652,-0.30901699 0.95105652,-0.30901699 -0.58778525,0.80901699 0,-1 " transform="scale(53,53)" id="polygon26392"/>
    <polygon points="0,-1 0.58778525,0.80901699 -0.95105652,-0.30901699 0.95105652,-0.30901699 -0.58778525,0.80901699 0,-1 " transform="scale(53,53)" id="polygon10133"/>
    <polygon points="0,-1 0.58778525,0.80901699 -0.95105652,-0.30901699 0.95105652,-0.30901699 -0.58778525,0.80901699 0,-1 " transform="scale(53,53)" id="polygon11842"/>
    <polygon points="0,-1 0.58778525,0.80901699 -0.95105652,-0.30901699 0.95105652,-0.30901699 -0.58778525,0.80901699 0,-1 " transform="scale(53,53)" id="polygon11640"/>
    <polygon points="0,-1 0.58778525,0.80901699 -0.95105652,-0.30901699 0.95105652,-0.30901699 -0.58778525,0.80901699 0,-1 " transform="scale(53,53)" id="polygon53522"/>
    <polygon points="0,-1 0.58778525,0.80901699 -0.95105652,-0.30901699 0.95105652,-0.30901699 -0.58778525,0.80901699 0,-1 " transform="scale(53,53)" id="polygon13405"/>
    <polygon points="0,-1 0.58778525,0.80901699 -0.95105652,-0.30901699 0.95105652,-0.30901699 -0.58778525,0.80901699 0,-1 " transform="scale(53,53)" id="polygon17969"/>
    <polygon points="0,-1 0.58778525,0.80901699 -0.95105652,-0.30901699 0.95105652,-0.30901699 -0.58778525,0.80901699 0,-1 " transform="scale(53,53)" id="polygon68220"/>
    <polygon points="0,-1 0.58778525,0.80901699 -0.95105652,-0.30901699 0.95105652,-0.30901699 -0.58778525,0.80901699 0,-1 " transform="scale(53,53)" id="polygon68195"/>
    <polygon id="polygon5678" transform="scale(53,53)" points="0,-1 0.58778525,0.80901699 -0.95105652,-0.30901699 0.95105652,-0.30901699 -0.58778525,0.80901699 0,-1 "/>
    <polygon id="polygon5652" transform="scale(53,53)" points="0,-1 0.58778525,0.80901699 -0.95105652,-0.30901699 0.95105652,-0.30901699 -0.58778525,0.80901699 0,-1 "/>
    <polygon id="polygon5511" transform="scale(53,53)" points="0,-1 0.58778525,0.80901699 -0.95105652,-0.30901699 0.95105652,-0.30901699 -0.58778525,0.80901699 0,-1 "/>
    <polygon id="polygon5471" transform="scale(53,53)" points="0,-1 0.58778525,0.80901699 -0.95105652,-0.30901699 0.95105652,-0.30901699 -0.58778525,0.80901699 0,-1 "/>
    <polygon id="polygon5413" transform="scale(53,53)" points="0,-1 0.58778525,0.80901699 -0.95105652,-0.30901699 0.95105652,-0.30901699 -0.58778525,0.80901699 0,-1 "/>
    <polygon id="polygon5372" transform="scale(53,53)" points="0,-1 0.58778525,0.80901699 -0.95105652,-0.30901699 0.95105652,-0.30901699 -0.58778525,0.80901699 0,-1 "/>
    <polygon id="polygon5346" transform="scale(53,53)" points="0,-1 0.58778525,0.80901699 -0.95105652,-0.30901699 0.95105652,-0.30901699 -0.58778525,0.80901699 0,-1 "/>
    <polygon id="polygon5206" transform="scale(53,53)" points="0,-1 0.58778525,0.80901699 -0.95105652,-0.30901699 0.95105652,-0.30901699 -0.58778525,0.80901699 0,-1 "/>
    <polygon id="polygon5165" transform="scale(53,53)" points="0,-1 0.58778525,0.80901699 -0.95105652,-0.30901699 0.95105652,-0.30901699 -0.58778525,0.80901699 0,-1 "/>
    <polygon id="polygon5107" transform="scale(53,53)" points="0,-1 0.58778525,0.80901699 -0.95105652,-0.30901699 0.95105652,-0.30901699 -0.58778525,0.80901699 0,-1 "/>
    <polygon id="polygon5081" transform="scale(53,53)" points="0,-1 0.58778525,0.80901699 -0.95105652,-0.30901699 0.95105652,-0.30901699 -0.58778525,0.80901699 0,-1 "/>
    <polygon id="polygon4970" transform="scale(53,53)" points="0,-1 0.58778525,0.80901699 -0.95105652,-0.30901699 0.95105652,-0.30901699 -0.58778525,0.80901699 0,-1 "/>
    <polygon id="polygon4944" transform="scale(53,53)" points="0,-1 0.58778525,0.80901699 -0.95105652,-0.30901699 0.95105652,-0.30901699 -0.58778525,0.80901699 0,-1 "/>
    <polygon id="polygon6050" transform="scale(53,53)" points="0,-1 0.58778525,0.80901699 -0.95105652,-0.30901699 0.95105652,-0.30901699 -0.58778525,0.80901699 0,-1 "/>
    <polygon id="polygon6024" transform="scale(53,53)" points="0,-1 0.58778525,0.80901699 -0.95105652,-0.30901699 0.95105652,-0.30901699 -0.58778525,0.80901699 0,-1 "/>
    <polygon id="polygon5884" transform="scale(53,53)" points="0,-1 0.58778525,0.80901699 -0.95105652,-0.30901699 0.95105652,-0.30901699 -0.58778525,0.80901699 0,-1 "/>
    <polygon id="polygon5844" transform="scale(53,53)" points="0,-1 0.58778525,0.80901699 -0.95105652,-0.30901699 0.95105652,-0.30901699 -0.58778525,0.80901699 0,-1 "/>
    <polygon id="polygon5785" transform="scale(53,53)" points="0,-1 0.58778525,0.80901699 -0.95105652,-0.30901699 0.95105652,-0.30901699 -0.58778525,0.80901699 0,-1 "/>
    <polygon id="polygon5745" transform="scale(53,53)" points="0,-1 0.58778525,0.80901699 -0.95105652,-0.30901699 0.95105652,-0.30901699 -0.58778525,0.80901699 0,-1 "/>
    <polygon id="polygon5719" transform="scale(53,53)" points="0,-1 0.58778525,0.80901699 -0.95105652,-0.30901699 0.95105652,-0.30901699 -0.58778525,0.80901699 0,-1 "/>
    <polygon id="polygon5576" transform="scale(53,53)" points="0,-1 0.58778525,0.80901699 -0.95105652,-0.30901699 0.95105652,-0.30901699 -0.58778525,0.80901699 0,-1 "/>
    <polygon id="polygon5536" transform="scale(53,53)" points="0,-1 0.58778525,0.80901699 -0.95105652,-0.30901699 0.95105652,-0.30901699 -0.58778525,0.80901699 0,-1 "/>
    <polygon id="polygon5478" transform="scale(53,53)" points="0,-1 0.58778525,0.80901699 -0.95105652,-0.30901699 0.95105652,-0.30901699 -0.58778525,0.80901699 0,-1 "/>
    <polygon id="polygon5452" transform="scale(53,53)" points="0,-1 0.58778525,0.80901699 -0.95105652,-0.30901699 0.95105652,-0.30901699 -0.58778525,0.80901699 0,-1 "/>
    <polygon id="polygon5339" transform="scale(53,53)" points="0,-1 0.58778525,0.80901699 -0.95105652,-0.30901699 0.95105652,-0.30901699 -0.58778525,0.80901699 0,-1 "/>
    <polygon id="polygon5313" transform="scale(53,53)" points="0,-1 0.58778525,0.80901699 -0.95105652,-0.30901699 0.95105652,-0.30901699 -0.58778525,0.80901699 0,-1 "/>
    <symbol id="symbol-1" viewBox="0 0 228.1349 228.3721" bx:pinned="true">
      <title>Light</title>
      <g transform="matrix(2.966258049011231, 0, 0, 2.966258049011231, -290.2282041994839, -139.45163877652152)" style="">
        <path style="stroke-width: 0.264583;" d="M 136 123.358 C 135.769 123.006 135.421 121.488 135.226 119.985 C 134.487 114.276 134.019 109.979 133.734 106.272 C 133.418 102.166 133.163 101.188 132.574 101.81 C 132.386 102.008 131.42 103.957 130.429 106.14 C 126.974 113.75 123.203 121.045 122.632 121.227 C 121.945 121.445 121.327 120.933 121.327 120.148 C 121.327 119.161 122.799 113.7 124.677 107.727 C 127.097 100.028 127.407 98.892 127.137 98.725 C 127.007 98.645 125.805 99.566 124.466 100.772 C 114.777 109.498 109.97 113.257 109.148 112.75 C 108.31 112.232 109.2 110.65 112.359 107.044 C 116.548 102.263 122.385 95.202 122.385 94.916 C 122.385 94.759 122.188 94.63 121.948 94.63 C 121.707 94.63 117.291 96.059 112.133 97.805 C 106.975 99.552 102.479 100.98 102.141 100.98 C 100.418 100.98 100.225 100.088 101.681 98.859 C 102.523 98.149 115.988 91.299 119.011 90.043 C 119.557 89.816 120.004 89.446 120.004 89.22 C 120.004 88.869 119.478 88.81 116.387 88.81 C 114.398 88.81 112.047 88.698 111.162 88.562 C 110.277 88.426 107.767 88.186 105.584 88.028 C 100.569 87.666 98.857 87.36 98.207 86.709 C 97.766 86.269 97.743 86.129 98.046 85.764 C 98.719 84.953 99.857 84.576 101.668 84.565 C 102.658 84.558 104.896 84.375 106.642 84.158 C 108.388 83.941 111.722 83.654 114.051 83.521 C 119.236 83.224 120.851 83.017 120.733 82.665 C 120.684 82.516 117.493 80.978 113.643 79.248 C 100.849 73.499 99.481 72.691 100.842 71.696 C 101.487 71.224 103.161 71.457 107.171 72.577 C 108.918 73.064 111.894 73.89 113.786 74.412 C 115.678 74.934 118.283 75.708 119.576 76.132 C 122.156 76.979 123.179 77.096 123.179 76.544 C 123.179 76.143 121.251 73.786 117.093 69.103 C 111.644 62.965 108.891 59.566 108.891 58.975 C 108.891 58.83 109.075 58.559 109.301 58.372 C 109.636 58.093 109.863 58.105 110.557 58.438 C 112.307 59.277 117.901 63.93 122.01 67.964 C 125.953 71.833 126.883 72.579 126.883 71.868 C 126.883 71.265 124.397 63.648 122.395 58.114 C 121.225 54.881 120.268 51.896 120.268 51.482 C 120.268 50.504 121.125 49.979 121.882 50.492 C 122.627 50.996 124.45 54.168 129.886 64.418 C 132.304 68.975 133.12 70.178 133.321 69.477 C 133.597 68.514 134.831 55.62 134.839 53.62 C 134.848 51.406 135.328 47.947 135.713 47.324 C 136.043 46.79 136.9 46.968 137.357 47.666 C 137.654 48.119 137.865 49.344 138.027 51.568 C 138.158 53.352 138.331 54.989 138.413 55.208 C 138.495 55.426 138.664 58.641 138.789 62.351 C 139.014 69.039 139.137 70.129 139.648 69.958 C 139.793 69.91 141.217 67.494 142.812 64.589 C 144.407 61.685 146.397 58.178 147.234 56.795 C 148.071 55.413 149.249 53.432 149.852 52.394 C 150.454 51.356 151.144 50.431 151.384 50.339 C 151.956 50.119 152.548 50.629 152.544 51.337 C 152.537 52.577 150.746 58.014 147.612 66.303 C 145.823 71.036 145.42 72.405 145.818 72.405 C 146.105 72.405 153.224 66.427 158.989 61.344 C 162.427 58.314 163.969 57.502 164.359 58.517 C 164.551 59.018 164.245 59.476 161.535 62.748 C 158.386 66.55 156.844 68.302 152.746 72.734 C 150.745 74.898 149.108 76.78 149.108 76.918 C 149.108 77.411 150.38 77.149 153.751 75.96 C 155.636 75.295 158.606 74.349 160.353 73.858 C 162.099 73.367 165.187 72.422 167.215 71.759 C 171.283 70.429 171.645 70.37 172.133 70.958 C 173.002 72.005 171.013 73.509 165.335 76.1 C 163.71 76.842 161.553 77.904 160.541 78.46 C 159.529 79.016 157.763 79.861 156.616 80.336 C 153.622 81.579 151.978 82.445 152.135 82.699 C 152.319 82.997 157.615 83.423 168.748 84.035 C 171.37 84.179 173.474 84.421 173.908 84.628 C 174.808 85.057 175.056 86.259 174.325 86.647 C 173.806 86.923 169.73 87.35 163.66 87.764 C 158.465 88.119 152.836 88.698 152.636 88.898 C 152.269 89.265 153.338 89.921 158.962 92.78 C 167.022 96.878 170.026 98.528 170.796 99.28 C 171.403 99.873 171.419 99.95 171.013 100.355 C 170.608 100.76 170.336 100.731 167.185 99.944 C 163.427 99.005 156.682 96.944 152.812 95.551 C 149.762 94.454 149.601 94.418 149.458 94.805 C 149.395 94.974 151.464 97.515 154.055 100.453 C 161.101 108.443 163.924 111.766 163.924 112.068 C 163.924 112.217 163.685 112.467 163.392 112.624 C 162.384 113.163 162.18 113.014 150.179 102.912 C 148.075 101.141 146.26 99.751 146.144 99.823 C 145.773 100.052 145.915 100.801 146.689 102.7 C 147.639 105.031 150.955 114.41 151.87 117.355 C 152.658 119.889 152.585 120.56 151.521 120.56 C 150.298 120.56 149.494 119.459 145.338 112.093 C 143.704 109.196 140.377 102.486 140.377 102.087 C 140.377 101.96 140.144 101.646 139.86 101.389 C 139.362 100.938 139.339 100.944 139.215 101.546 C 138.908 103.053 138.754 105.226 138.523 111.348 C 138.109 122.323 137.432 125.544 136 123.358 Z" id="path4538"/>
        <path style="stroke-width: 0.264583; fill: rgb(255, 255, 255);" d="M 136.933 114.314 C 136.935 113.426 137.056 111.223 137.202 109.419 C 137.348 107.616 137.515 104.235 137.573 101.907 C 137.687 97.335 137.796 96.747 138.535 96.747 C 139.243 96.747 139.783 97.641 142.605 103.486 C 145.41 109.295 148.101 114.233 148.762 114.781 C 149.147 115.101 149.169 115.009 148.989 113.812 C 148.88 113.085 148.557 111.895 148.271 111.167 C 147.986 110.44 147.274 108.475 146.689 106.801 C 146.105 105.128 144.995 102.151 144.223 100.187 C 143.452 98.222 142.75 96.407 142.665 96.152 C 142.471 95.573 142.717 94.893 143.117 94.901 C 143.283 94.905 144.669 96.036 146.197 97.414 C 153.554 104.051 156.252 106.222 156.252 105.506 C 156.252 105.135 152.266 100.47 147.352 95.087 C 145.55 93.113 144.885 91.801 145.557 91.543 C 146.055 91.352 148.142 91.998 151.816 93.48 C 155.488 94.961 160.894 96.747 161.704 96.747 C 162.052 96.747 162.337 96.638 162.337 96.504 C 162.337 96.132 161.162 95.481 153.936 91.85 C 150.261 90.004 147.181 88.374 147.092 88.229 C 147.002 88.084 147.121 87.773 147.355 87.538 C 147.7 87.194 148.667 87.077 152.348 86.933 C 156.844 86.758 164.022 86.259 165.718 86.003 C 166.195 85.931 166.526 85.777 166.454 85.66 C 166.258 85.343 162.467 85.027 151.754 84.434 C 148.479 84.252 146.904 83.914 147.064 83.427 C 147.211 82.979 148.781 82.151 152.944 80.326 C 157.675 78.252 163.374 75.5 164.057 74.958 C 164.585 74.539 164.585 74.539 164.052 74.531 C 163.24 74.518 160.466 75.336 153.341 77.689 C 149.776 78.866 146.561 79.796 146.198 79.756 C 145.129 79.636 145.192 78.68 146.329 77.787 C 146.854 77.374 148.314 75.8 149.572 74.29 C 150.83 72.78 152.967 70.34 154.321 68.867 C 156.764 66.207 157.057 65.791 156.481 65.791 C 156.157 65.791 151.979 69.244 146.798 73.795 C 143.788 76.438 142.768 77.032 142.363 76.378 C 142.156 76.043 142.887 74.05 146.153 66.035 C 147.61 62.458 148.888 59.065 148.993 58.494 L 149.183 57.457 L 148.625 57.953 C 147.886 58.61 145.549 62.59 142.003 69.23 C 139.848 73.267 138.97 74.675 138.57 74.737 C 138.119 74.805 138.008 74.636 137.877 73.678 C 137.692 72.323 137.252 65.292 137.029 60.102 C 136.941 58.065 136.773 56.22 136.656 56.001 C 136.28 55.299 136.273 55.349 135.36 65.556 C 135.209 67.246 135.074 69.329 135.06 70.186 C 135.023 72.442 134.513 74.634 134.003 74.73 C 133.574 74.811 131.29 70.694 127.284 62.616 C 125.517 59.052 124.432 57.324 123.962 57.324 C 123.825 57.324 124.08 58.307 124.528 59.507 C 125.287 61.542 128.842 71.881 129.683 74.498 C 130.201 76.108 130.17 76.903 129.592 76.903 C 129.336 76.903 127.222 74.987 124.896 72.645 C 119.366 67.079 114.854 63.232 115.286 64.453 C 115.419 64.831 122.415 72.915 124.749 75.388 C 127.166 77.95 127.589 78.621 127.134 79.169 C 126.96 79.378 126.593 79.549 126.317 79.549 C 125.588 79.549 122.471 78.68 118.681 77.421 C 115.051 76.214 109.725 74.787 108.852 74.787 C 108.38 74.787 108.348 74.848 108.64 75.199 C 108.828 75.426 109.348 75.77 109.796 75.963 C 111.068 76.513 117.964 79.466 121.291 80.885 C 124.478 82.245 125.296 82.786 125.296 83.533 C 125.296 84.359 123.773 84.65 118.284 84.873 C 107.452 85.312 104.15 85.655 105.099 86.241 C 105.5 86.49 112.597 86.969 118.87 87.172 C 125.022 87.371 125.735 87.521 125.131 88.486 C 124.793 89.028 124.997 88.92 118.152 92.157 C 112.787 94.694 110.583 95.881 110.811 96.109 C 111.026 96.324 114.24 95.396 120.155 93.413 C 123.367 92.336 126.194 91.455 126.439 91.455 C 126.732 91.455 126.883 91.672 126.883 92.093 C 126.883 92.534 126.091 93.573 124.303 95.478 C 121.584 98.376 116.709 104.078 115.915 105.291 C 115.657 105.685 115.561 106.008 115.702 106.008 C 115.98 106.008 119.087 103.392 122.667 100.147 C 125.778 97.325 128.804 94.896 129.207 94.895 C 130.126 94.895 129.882 96.566 128.162 102.039 C 124.98 112.166 124.634 113.933 126.468 110.675 C 127.483 108.872 129.765 104.001 131.907 99.062 C 132.523 97.643 133.177 96.483 133.362 96.483 C 134.006 96.483 134.351 97.282 134.587 99.322 C 135.362 106.027 135.628 108.714 136.023 113.813 C 136.113 114.977 136.243 116.105 136.312 116.319 C 136.569 117.121 136.929 115.959 136.933 114.314 Z" id="path4538"/>
      </g>
    </symbol>
  </defs>
  <rect x="256" width="512" height="512" style="fill: none; stroke-width: 4px;"/>
  <g transform="matrix(2.508866, 0, 0, 2.508866, -405.655365, -670.679443)" style="">
    <path style="stroke-width: 0.0846667; fill: rgb(34, 139, 34);" d="M 211.852 465.699 C 203.225 464.499 191.523 459.736 183.776 454.271 C 177.026 449.54 168.947 440.899 168.264 438.065 C 169.107 438.382 170.542 439.154 172.981 440.536 C 182.933 446.183 192.816 450.581 198.528 451.928 C 201.698 452.653 208.616 453.157 215.602 453.157 C 228.099 453.157 231.44 452.284 235.993 448.111 C 238.133 446.056 239.455 443.183 239.655 440.542 C 239.857 437.882 238.897 435.073 236.991 433.259 C 236.018 432.44 235.676 431.529 235.679 430.417 C 235.682 429.299 236.053 428.315 237.047 427.381 C 238.752 425.525 238.667 425.621 245.11 426.842 C 248.049 427.38 250.335 427.52 251.833 427.191 C 252.639 427.014 253.424 426.612 253.875 426.117 C 254.341 425.605 254.629 424.767 254.629 424.021 C 254.629 423.587 254.549 423.033 254.326 422.646 C 254.098 422.249 253.575 421.856 253.066 421.688 C 252.221 421.409 250.788 421.348 248.547 421.348 C 241.355 421.348 238.679 420.774 237.432 418.624 C 236.644 417.54 236.629 416.519 237.066 415.402 C 237.508 414.271 238.321 413.4 239.767 412.903 C 240.44 412.635 241.057 412.253 241.412 411.886 C 241.814 411.47 242.108 410.749 242.059 410.247 C 242.008 409.727 241.529 409.06 241.02 408.785 C 240.583 408.548 239.872 408.385 239.155 408.385 C 237.762 408.385 236.232 407.934 234.904 407.24 C 233.601 406.56 232.795 405.988 232.828 405.415 C 232.492 403.185 232.564 401.868 233.23 400.611 C 233.909 399.328 235.151 398.257 237.473 396.778 C 241.042 394.467 243.441 391.761 244.325 388.936 C 245.216 386.083 244.603 382.834 242.687 379.697 C 241.881 378.483 240.221 377.28 239.085 377.28 C 238.546 377.28 237.127 376.235 235.617 374.81 C 234.107 373.386 233.023 372.087 233.023 371.616 C 233.023 370.379 230.606 368.218 227.841 366.426 C 225.094 364.645 221.581 362.82 218.749 361.86 C 214.892 360.573 210.958 360.001 205.734 360.001 C 195.083 360.001 188.328 361.525 176.941 366.443 C 175.782 366.947 175 367.281 174.471 367.479 C 175.522 366.016 180.548 362.353 186.308 358.646 C 192.795 354.472 199.578 350.764 201.487 350.764 C 202.276 350.764 203.707 350.354 204.627 349.9 C 209.448 347.393 231.969 346.169 238.148 348.066 C 239.616 348.521 242.568 349.371 244.714 349.972 C 249.825 351.402 258.78 355.73 263.921 359.274 C 279.152 369.692 288.918 388.007 288.918 405.916 C 288.918 418.791 284.613 430.88 277.015 440.999 C 269.415 451.121 258.715 459.033 245.768 463.345 C 240.078 465.261 237.541 465.583 226.819 465.802 C 219.942 465.936 213.214 465.9 211.853 465.699 Z" id="path-3"/>
    <path style="fill: rgb(0, 0, 0); stroke-width: 0.0846667;" d="M 285.296 422.132 C 285.061 421.542 284.866 422.032 284.866 423.216 C 284.866 424.398 285.061 424.889 285.296 424.297 C 285.54 423.704 285.54 422.725 285.296 422.132 Z M 233.962 351.764 C 234.798 351.551 236.156 351.551 236.984 351.764 C 237.82 351.981 237.135 352.162 235.473 352.162 C 233.808 352.162 233.135 351.981 233.962 351.764 Z M 234.616 365.165 C 229.746 361.042 217.878 357.033 208.691 356.389 C 206.551 356.234 207.927 356.052 211.744 355.969 C 222.888 355.726 232.063 359.155 235.891 364.982 C 237.533 367.493 237.38 367.513 234.616 365.165 Z M 252.199 383.015 C 251.76 381.894 249.331 380.556 248.76 381.127 C 248.595 381.291 248.944 382.68 249.515 384.209 C 250.443 386.646 250.699 386.821 251.606 385.578 C 252.167 384.802 252.444 383.647 252.199 383.015 Z M 260.803 389.414 C 261.281 388.649 261.404 387.323 261.077 386.474 C 260.517 385.004 260.427 385.015 259.233 386.577 C 258.005 388.169 257.957 388.157 257.413 386.239 C 257.076 385.026 256.312 384.351 255.465 384.515 C 253.475 384.903 253.322 387.057 255.108 389.324 C 256.823 391.496 259.466 391.537 260.803 389.414 Z M 245.322 395.783 C 245.575 394.945 246.156 391.138 246.627 387.323 C 247.097 383.495 247.883 379.32 248.373 378.027 C 249.372 375.392 251.566 374.912 252.159 377.198 C 252.535 378.639 252.555 378.639 252.658 377.198 C 252.771 375.483 254.159 375.157 254.689 376.728 C 254.875 377.3 256.169 377.83 257.568 377.912 C 261.742 378.157 261.915 378.207 264.069 380.097 C 265.211 381.096 267.24 382.841 268.579 383.973 C 269.916 385.119 270.773 386.433 270.478 386.915 C 270.161 387.415 270.875 387.792 272.15 387.792 C 274.989 387.792 275.019 389.311 272.192 390.026 C 269.702 390.649 265.712 388.464 265.712 386.474 C 265.712 385.77 265.323 385.2 264.845 385.2 C 264.375 385.2 263.986 385.955 263.986 386.873 C 263.986 387.801 263.079 389.607 261.956 390.904 C 259.516 393.751 255.405 394.059 252.639 391.598 C 251.606 390.691 250.627 390.333 250.465 390.812 C 248.944 395.048 244.126 399.693 245.309 395.783 L 245.322 395.783 Z M 259.016 407.692 C 258.424 406.733 257.945 405.171 257.945 404.212 C 257.945 402.14 257.22 402.037 254.731 403.782 C 251.22 406.242 240.656 406.551 240.656 404.192 C 240.656 403.722 243.29 403.344 246.607 403.344 C 253.026 403.344 255.066 402.191 254.229 399.029 C 253.73 397.089 255.261 396.69 256.894 398.323 C 257.692 399.119 258.711 398.905 261.394 397.394 C 263.304 396.324 265.742 395.578 266.804 395.743 C 268.599 396.026 268.539 396.16 265.956 397.537 C 262.731 399.273 261.528 401.212 260.7 405.988 C 260.148 409.163 260.018 409.294 259.016 407.692 Z M 260.028 430.062 C 261.252 428.603 262.262 426.807 262.262 426.083 C 262.262 424.327 259.651 418.898 258.803 418.898 C 258.424 418.898 257.894 418.286 257.609 417.541 C 257.211 416.49 257.64 416.58 259.536 417.939 C 263.313 420.621 264.334 422.255 264.334 425.574 C 264.334 427.92 263.741 429.103 261.782 430.674 C 258.23 433.523 257.363 433.217 260.028 430.062 Z M 256.915 452.005 C 257.536 451.749 258.283 451.779 258.569 452.077 C 258.854 452.361 258.343 452.566 257.435 452.526 C 256.435 452.484 256.222 452.279 256.915 452.005 Z M 254.322 453.729 C 254.946 453.486 255.69 453.515 255.975 453.802 C 256.26 454.087 255.751 454.292 254.842 454.259 C 253.843 454.219 253.629 454.016 254.322 453.729 Z M 207.663 456.78 C 206.182 456.373 206.611 456.201 209.285 456.138 C 211.274 456.086 213.092 456.342 213.306 456.698 C 213.795 457.496 210.367 457.548 207.663 456.78 Z M 214.735 457.883 C 214.735 457.454 217.694 456.842 221.307 456.496 C 231.012 455.586 237.453 452.466 240.738 447.076 C 242.218 444.646 242.38 444.575 242.38 446.329 C 242.38 447.402 242.045 448.27 241.626 448.27 C 241.208 448.27 240.656 449.037 240.422 449.964 C 239.799 452.321 232.675 456.628 227.575 457.721 C 222.378 458.833 214.735 458.935 214.735 457.883 Z M 237.849 459.802 C 238.444 459.558 239.42 459.558 240.014 459.802 C 240.604 460.037 240.115 460.23 238.933 460.23 C 237.739 460.23 237.258 460.037 237.849 459.802 Z M 241.525 463.476 C 255.301 459.671 264.202 454.383 272.765 444.922 C 277.968 439.168 283.867 429.746 283.867 427.184 C 283.867 426.144 282.601 427.553 280.623 430.798 C 277.703 435.564 271.12 443.117 266.886 446.546 C 264.528 448.454 260.68 450.862 259.997 450.862 C 259.138 450.862 264.159 446.628 265.721 446.046 C 268.334 445.045 276.784 434.381 279.827 428.206 C 289.124 409.398 284.307 387.892 266.65 369.37 C 260.812 363.248 252.016 357.328 245.484 355.122 C 242.81 354.215 240.382 353.226 240.066 352.918 C 239.249 352.102 243.014 352.235 244.78 353.082 C 255.913 358.44 259.588 360.42 261.486 362.063 C 268.609 368.278 270.182 369.841 273.793 374.281 C 275.978 376.963 279.53 382.749 281.672 387.149 C 284.397 392.71 285.582 394.456 285.591 392.904 C 285.591 391.668 285.337 390.415 285.022 390.097 C 284.705 389.78 283.776 387.619 282.96 385.291 C 279.683 375.983 269.08 364.043 258.382 357.603 C 255.678 355.981 249.515 353.287 244.689 351.634 C 236.493 348.816 235.156 348.612 224.675 348.539 C 210.469 348.449 204.946 349.654 192.701 355.502 C 186.526 358.45 180.648 362.745 182.853 362.706 C 183.518 362.696 185.619 362.277 187.517 361.777 C 198.856 358.766 209.968 357.817 216.214 359.316 C 218.765 359.928 221.06 360.756 221.307 361.144 C 221.552 361.542 222.408 361.868 223.216 361.89 C 225.594 361.919 232.687 367.636 235.105 371.473 C 236.574 373.789 238.494 375.474 240.636 376.309 C 244.514 377.84 245.853 380.301 245.821 385.884 C 245.8 390.769 244.472 392.7 238.054 397.15 C 235.452 398.956 233.196 401.069 233.044 401.845 C 232.461 404.876 240.034 408.488 247.025 408.509 C 250.044 408.52 250.261 408.662 249.189 409.958 C 248.535 410.744 246.738 411.918 245.198 412.562 C 241.872 413.947 241.798 414.275 244.269 416.897 C 246.566 419.346 245.198 419.471 241.117 417.184 C 238.217 415.551 237.34 415.704 238.729 417.602 C 239.91 419.224 245.526 420.621 250.873 420.621 C 256.211 420.621 256.211 420.621 256.211 423.163 C 256.211 426.624 253.454 428.399 248.097 428.399 C 242.615 428.399 243.34 429.094 249.823 430.032 L 254.914 430.777 L 248.157 430.891 C 244.454 430.95 240.616 430.564 239.646 430.043 C 236.819 428.533 236.014 430.391 238.484 432.706 C 240.239 434.349 240.656 435.575 240.656 438.994 C 240.656 444.788 237.482 449.26 231.227 452.261 C 226.911 454.332 225.471 454.536 213.274 454.791 C 205.214 454.966 200.211 454.75 200.517 454.259 C 200.793 453.822 200.119 453.455 199.018 453.465 C 196.876 453.465 185.045 448.973 180.289 446.341 C 178.687 445.453 177.22 444.892 177.025 445.087 C 176.534 445.576 177.637 448.27 178.331 448.27 C 178.646 448.27 180.444 449.605 182.32 451.239 C 184.209 452.861 188.679 455.739 192.252 457.626 C 198.087 460.711 200.712 461.671 211.286 464.547 C 212.949 465.008 218.777 465.405 224.247 465.436 C 232.145 465.487 235.676 465.088 241.525 463.476 Z M 211.713 466.689 C 202.967 465.457 191.047 460.608 183.201 455.089 C 176.067 450.075 167.217 440.452 167.217 437.718 C 167.217 436.337 168.075 436.606 173.474 439.666 C 183.383 445.291 193.13 449.637 198.753 450.954 C 201.846 451.667 208.652 452.157 215.602 452.157 C 227.982 452.157 230.981 451.433 235.31 447.381 C 239.36 443.594 239.851 437.188 236.32 434.001 C 234.124 432.012 234.134 428.868 236.34 426.674 C 238.34 424.675 238.698 424.633 245.291 425.859 C 251.047 426.919 253.629 426.359 253.629 424.021 C 253.629 422.563 252.987 422.348 248.547 422.348 C 241.228 422.348 238.135 421.533 236.596 419.173 C 234.859 416.529 236.164 413.192 239.411 411.968 C 241.738 411.082 241.576 409.385 239.155 409.385 C 236.086 409.385 232.093 407.305 231.839 405.56 C 231.156 400.905 232.176 398.978 236.933 395.936 C 243.86 391.496 245.536 386.149 241.84 380.228 C 241.168 379.157 239.932 378.28 239.085 378.28 C 237.422 378.28 232.023 373.188 232.023 371.616 C 232.023 369.9 223.952 364.666 218.43 362.808 C 214.662 361.542 210.887 361.001 205.734 361.001 C 195.192 361.001 188.638 362.471 177.34 367.36 C 173.514 369.024 173.27 369.054 173.27 367.922 C 173.27 365.155 197.19 349.764 201.487 349.764 C 202.141 349.764 203.344 349.428 204.173 349.009 C 209.193 346.448 232.093 345.193 238.444 347.111 C 239.902 347.563 242.842 348.409 244.985 349.009 C 250.178 350.47 259.281 354.868 264.488 358.45 C 279.876 369.044 289.918 387.771 289.918 405.916 C 289.918 432.002 272.254 455.526 246.086 464.293 C 240.301 466.231 237.615 466.579 226.839 466.802 C 219.949 466.936 213.143 466.895 211.713 466.689 Z" id="path4610"/>
  </g>
  <use width="228.13490295410156" height="228.37210083007812" transform="matrix(1.034346, 0, 0, 1.034346, 682.38501, 278.822296)" style="" xlink:href="#symbol-1"/>
  <use width="228.13490295410156" height="228.37210083007812" transform="matrix(0.275556, 0, 0, 0.275556, 872.902771, 174.716568)" style="" xlink:href="#symbol-1"/>
  <use width="228.13490295410156" height="228.37210083007812" transform="matrix(0.560999, 0, 0, 0.560999, 709.095886, 149.751221)" style="" xlink:href="#symbol-1"/>
  <use width="228.13490295410156" height="228.37210083007812" transform="matrix(0.378801, 0, 0, 0.378801, 760.502686, 67.92054)" style="" xlink:href="#symbol-1"/>
</svg>