<?xml version="1.0" encoding="utf-8"?>
<svg viewBox="0 0 500 500" xmlns="http://www.w3.org/2000/svg" xmlns:bx="https://boxy-svg.com">
  <defs>
    <linearGradient id="color-0" bx:pinned="true">
      <title>blue</title>
      <stop style="stop-color: rgb(0, 145, 255);"/>
    </linearGradient>
  </defs>
  <path d="M 463.666 178.018 C 463.154 181.531 462.595 185.031 461.981 188.517 C 441.075 300.6 382.449 372.311 322.598 444.104 C 304.941 464.281 265.254 500.861 253.642 507 C 242.029 500.859 202.344 464.28 184.687 444.104 C 174.61 432.016 164.568 419.931 154.735 407.655 L 464.669 165.123 C 464.383 169.424 464.051 173.722 463.666 178.018 Z" style="stroke-width: 10px; fill: rgb(255, 255, 255);"/>
  <path d="M 465.984 0 L 465.984 5.675 C 465.162 38.776 466.218 71.985 466.282 105.144 C 466.264 112.529 466.219 119.912 466.142 127.296 C 465.942 139.92 465.505 152.532 464.669 165.123 L 154.735 407.655 C 109.979 351.78 69.548 291.954 49.871 209.971 L 318.194 0 Z" style="fill: rgb(34, 139, 34);"/>
  <path d="M 45.31 188.558 C 44.696 185.067 44.134 181.562 43.621 178.046 C 42.112 161.211 41.417 144.335 41.147 127.434 C 41.066 119.818 41.018 112.203 41 104.586 C 41.074 71.612 42.12 38.589 41.302 5.675 L 41.302 0 L 318.194 0 L 49.871 209.971 C 48.197 202.997 46.673 195.863 45.31 188.558 Z" style="stroke-width: 10px; fill: rgb(255, 255, 0);"/>
  <path d="M 114.799 350.694 C 114.949 350.19 115.122 349.584 115.266 349.044 C 115.569 347.909 115.805 347.137 116.11 346.661 C 116.503 346.047 117.195 345.774 117.753 345.666 C 117.991 345.683 118.029 345.582 118.188 345.33 C 118.345 345.081 118.42 345.036 118.295 344.867 C 118.039 343.962 118.116 342.798 118.487 341.911 C 118.609 341.648 118.855 340.906 119.034 340.242 C 119.23 339.53 119.633 338.301 119.932 337.528 C 120.207 336.823 120.394 336.145 120.394 335.978 C 120.394 335.498 120.922 334.137 121.473 333.006 C 121.992 331.961 122.35 331.027 122.35 330.891 C 122.35 330.395 122.711 329.464 123.052 328.882 C 123.314 328.472 123.464 328.02 123.464 327.816 C 123.464 327.286 123.791 326.47 124.094 326.086 C 124.416 325.783 126.169 322.181 126.448 321.229 C 126.6 320.761 127.058 319.873 127.444 319.293 C 127.76 318.842 127.933 318.41 127.933 318.269 C 127.933 318.014 127.992 317.678 128.068 317.469 C 128.157 317.221 128.534 316.84 128.847 316.628 C 129.125 316.608 130.552 314.06 130.736 313.126 C 130.983 312.048 131.447 310.972 132.532 310.603 C 133.419 310.302 134.861 310.358 137.185 310.513 C 138.18 310.589 138.394 310.687 138.269 310.624 C 138.569 310.314 139.233 309.911 139.661 309.911 C 139.611 309.911 140.105 309.364 140.878 308.441 C 141.652 307.517 142.175 306.791 142.175 306.716 C 142.175 306.116 143.502 304.641 144.655 303.551 C 145.785 302.481 147.196 301.358 147.791 301.131 C 147.921 300.58 148.415 299.858 148.842 299.467 C 149.237 299.131 150.056 298.385 150.672 297.8 L 152.536 296.033 L 153.224 296.776 L 154.312 297.951 C 154.946 298.645 155.666 299.632 155.852 300.125 C 155.931 300.334 155.949 300.441 156.017 300.403 C 156.544 300.611 157.613 301.217 158.487 301.454 C 158.903 301.567 159.011 301.585 159.131 301.532 C 159.14 301.527 159.148 301.526 159.155 301.527 C 159.139 301.498 159.116 301.436 159.089 301.312 C 159.076 298.755 159.204 298.064 159.942 296.42 C 160.378 295.468 160.884 294.455 161.053 294.181 C 161.176 293.989 161.397 293.557 161.547 293.203 C 161.721 292.796 162.254 291.701 162.724 290.774 C 163.191 289.848 164.066 288.129 164.664 286.952 C 165.537 285.256 165.651 284.9 165.588 283.812 C 165.508 281.415 165.949 279.228 167.004 276.813 C 167.33 276.081 167.829 275.272 168.168 274.893 C 168.13 274.872 168.096 274.795 168.082 274.653 C 168.07 273.624 168.382 272.233 168.792 271.2 C 169.001 270.675 169.273 270.141 169.532 269.776 C 169.751 269.467 170.173 269.099 170.589 268.942 C 170.813 268.46 171.411 267.747 171.923 267.368 C 172.293 267.112 172.737 266.638 172.942 266.269 C 173.276 265.726 173.966 265.07 174.411 264.862 C 174.742 264.881 175.384 263.68 175.523 262.754 C 175.626 262.334 175.615 262.131 175.44 261.944 C 175.046 261.212 174.944 260.34 175.149 258.702 C 175.528 255.827 175.917 253.705 176.266 252.54 C 176.416 252.063 176.52 251.442 176.52 251.124 C 176.52 250.545 176.898 249.604 177.266 249.1 C 177.481 248.87 177.606 248.468 177.575 248.083 C 177.575 247.258 177.734 246.402 178.009 245.837 C 178.314 245.214 179.081 244.676 179.751 244.529 C 180.679 244.479 180.573 244.505 182.242 243.682 C 183.188 243.214 184.245 242.786 184.537 242.731 C 184.569 242.744 184.99 242.573 185.502 242.344 C 186.121 242.075 187.205 241.776 187.881 241.687 C 189.403 241.507 189.949 241.349 190.404 240.892 C 190.835 240.544 191.852 240.065 192.623 239.851 C 193.285 239.677 193.83 239.514 193.868 239.477 C 194.173 239.326 194.891 239.156 195.416 239.109 C 195.58 239.101 195.662 239.077 195.768 239.036 C 195.835 239.01 195.786 239.038 195.78 239.055 C 195.965 238.851 196.078 238.697 196.34 238.59 C 196.565 238.498 196.933 238.425 197.211 238.425 C 197.415 238.425 197.339 238.45 197.344 238.483 C 197.698 238.195 198.209 237.908 198.668 237.873 C 198.743 237.787 198.814 237.721 198.862 237.689 C 198.978 237.61 199.154 237.513 199.317 237.435 C 199.626 237.286 200.07 237.107 200.52 236.953 L 202.639 236.236 L 203.077 236.657 L 203.851 237.4 C 203.879 237.427 203.905 237.452 203.93 237.476 C 204.042 237.302 204.16 237.109 204.28 236.905 C 204.71 236.174 205 235.618 205 235.628 C 205 235.155 205.456 234.353 205.843 233.92 C 206.086 233.679 206.261 233.405 206.26 233.252 C 206.319 232.926 206.531 231.921 206.726 231.022 L 207.276 228.484 L 208.196 228.615 L 209.475 228.796 C 210.253 228.915 211.291 229.239 212.073 229.573 C 212.471 229.743 212.87 229.944 213.147 230.121 C 213.389 230.276 213.754 230.646 213.909 231.019 C 213.861 230.894 213.82 230.823 213.903 230.884 C 214.074 231.008 214.288 231.14 214.566 231.28 C 215.231 231.632 216.388 232.557 217.311 233.412 C 218.24 234.273 219.287 235.461 219.287 236.04 C 219.287 235.747 219.049 235.457 219.206 235.565 C 219.39 235.691 219.628 235.828 219.92 235.976 C 220.508 236.276 220.986 236.506 221.111 236.474 C 221.656 236.61 222.78 237.479 223.515 238.271 C 224.25 239.062 225.15 240.224 225.15 240.76 C 225.15 240.634 225.411 241.025 225.925 241.695 C 226.426 242.354 226.975 243.221 227.086 243.692 C 227.079 243.646 227.087 243.633 227.163 243.685 C 227.452 243.992 227.751 244.584 227.879 245.122 C 228.212 244.664 228.682 243.889 229.017 243.235 C 229.46 242.385 230.192 241.321 230.629 240.894 C 230.915 240.642 230.968 240.565 230.968 240.646 C 230.968 240.118 231.736 239.226 232.337 238.754 C 232.812 238.399 232.898 238.384 232.95 238.397 C 233.109 237.88 233.769 236.82 234.564 235.891 C 235.291 235.047 235.715 234.419 235.715 234.426 C 235.715 233.898 236.27 233.012 236.735 232.547 C 237.068 232.248 237.113 232.216 237.113 232.398 C 237.113 232.013 237.693 231.026 238.229 230.266 C 238.733 229.55 239.194 228.847 239.266 228.678 C 239.387 228.412 239.678 227.873 239.907 227.478 C 240.074 227.236 240.189 226.635 240.18 226.086 C 240.185 225.708 240.227 225.3 240.291 225.026 C 240.328 224.871 240.401 224.657 240.473 224.524 C 240.528 224.422 240.686 224.261 240.878 224.13 C 240.906 224.084 240.923 224.043 240.945 223.94 C 241.031 223.625 241.21 223.206 241.424 222.999 C 241.565 222.864 241.903 222.716 242.173 222.681 C 242.132 222.222 242.138 221.689 242.352 221.37 C 242.563 221.055 243.167 220.844 243.439 220.863 C 243.619 220.876 243.841 220.934 244.01 220.983 C 244.337 221.079 245.009 221.216 245.52 221.294 C 246.069 221.376 246.793 221.498 247.118 221.56 C 247.672 221.749 248.642 222.576 249.203 223.351 C 249.642 223.987 250.129 224.522 250.323 224.572 C 251.461 225.095 252.359 225.713 252.834 226.263 C 252.867 226.197 252.906 226.103 252.956 225.969 C 253.217 225.378 253.568 224.644 253.726 224.354 C 253.835 224.178 253.868 224.046 253.868 224.001 C 253.868 223.513 254.599 222.478 255.259 221.774 C 255.841 221.158 256.1 220.857 256.1 221.03 C 256.1 220.612 256.539 219.979 256.844 219.701 C 256.903 219.747 256.958 219.397 257.007 218.851 C 257.144 217.868 257.59 216.919 258.278 216.13 C 258.736 215.636 258.895 215.465 258.895 215.687 C 258.895 215.281 259.643 214.33 260.281 213.646 C 260.852 213.041 261.128 212.673 261.128 212.756 C 261.128 212.42 261.37 211.945 261.563 211.745 C 261.739 211.563 262.091 211.359 262.353 211.257 C 262.438 211.291 262.739 210.917 263.081 210.384 C 263.475 209.806 264.184 209.12 264.748 208.899 C 264.75 208.896 264.753 208.892 264.758 208.887 C 264.854 208.781 264.92 208.692 264.992 208.514 C 265.266 207.905 265.674 207.248 266.046 206.795 C 266.332 206.448 266.788 206.057 267.218 205.87 C 267.302 205.753 267.377 205.621 267.455 205.425 C 267.696 204.867 268.117 204.249 268.441 203.929 C 268.41 203.844 268.392 203.5 268.386 202.993 L 268.386 200.406 L 269.471 200.499 L 270.517 200.587 C 271.146 200.642 271.997 200.813 272.361 200.95 C 272.44 201.024 272.692 201.002 272.982 200.909 C 274.828 200.504 276.083 200.862 277.313 202.098 C 277.837 202.68 278.944 203.909 279.777 204.829 C 280.617 205.758 281.701 206.998 282.189 207.586 C 282.609 208.102 282.77 208.27 282.623 208.27 C 283.322 208.27 285.319 210.263 287.827 213.193 C 288.519 214.012 288.923 214.414 288.804 214.414 C 289.372 214.414 290.17 215.175 290.486 215.731 C 290.651 216.068 291.786 217.365 293.046 218.652 C 294.327 219.965 295.724 221.428 296.138 221.888 C 296.507 222.309 297.235 223.006 297.764 223.444 C 298.348 223.941 298.964 224.76 299.123 225.227 C 299.176 225.232 300.055 225.996 301.1 227.016 C 302.237 228.124 303.071 228.933 302.884 228.933 C 303.313 228.933 303.842 229.444 304.006 229.696 C 304.151 229.92 304.327 230.247 304.473 230.567 C 304.668 231.036 305.328 231.84 305.968 232.393 C 307.65 233.87 308.421 234.626 309.007 235.358 C 309.043 235.483 309.036 235.426 309.288 235.456 C 309.589 235.492 309.902 235.457 310.408 235.32 C 311.473 235.033 312.78 234.396 314.32 233.356 C 315.882 232.309 317.107 231.642 317.919 231.471 C 318.427 231.364 319.168 231.488 319.53 231.815 C 319.881 232.131 320.09 232.804 320.09 233.295 C 320.09 233.324 320.077 233.267 320.08 233.269 C 320.065 233.248 319.955 233.168 319.839 233.075 C 320.239 233.466 320.649 234.139 320.771 234.766 C 320.829 235.2 321.225 236.013 321.688 236.815 C 322.147 237.607 322.161 237.782 322.153 237.884 C 322.496 237.985 322.919 238.184 323.091 238.404 C 323.229 238.58 323.373 238.867 323.455 239.098 C 323.605 239.521 323.707 240.158 323.717 240.726 C 323.683 240.875 323.935 241.446 324.283 242.045 C 324.69 242.767 325.067 243.749 325.112 244.198 C 325.099 244.314 325.354 244.995 325.714 245.801 C 325.909 246.246 326.083 246.692 326.19 247.021 C 326.246 247.193 326.298 247.378 326.324 247.509 C 326.359 247.683 326.308 247.819 326.243 248.053 C 326.281 247.97 326.303 247.885 326.321 247.954 C 326.348 248.06 326.389 248.171 326.462 248.328 C 326.534 248.485 326.592 248.591 326.656 248.684 C 326.657 248.685 326.657 248.686 326.658 248.687 C 326.805 248.78 326.924 248.883 326.975 248.951 C 327.05 249.053 327.14 249.219 327.191 249.337 C 327.28 249.545 327.373 249.861 327.432 250.145 C 327.511 250.558 327.738 251.231 327.947 251.658 C 328.669 253.202 329.866 256.924 329.866 257.777 C 329.866 257.84 329.857 257.8 329.881 257.852 C 329.895 257.879 329.862 257.85 329.826 257.825 C 330.252 258.23 330.67 258.873 330.82 259.563 C 330.9 260.037 331.087 260.56 331.247 260.759 C 331.52 261.169 331.91 262.083 332.098 262.763 C 332.375 263.798 333.687 267.436 333.976 267.911 C 334.263 268.428 334.794 270.102 335.142 271.594 C 335.474 273.033 335.856 274.451 336 274.767 C 336.197 275.23 336.412 276.078 336.473 276.609 C 336.507 277.003 336.639 277.567 336.767 277.882 C 336.943 278.369 337.144 279.585 337.207 280.55 C 337.28 281.819 337.958 284.242 338.958 286.827 C 339.058 287.104 339.307 288.051 339.498 288.914 C 339.678 289.726 340.023 290.911 340.273 291.566 C 340.546 292.282 340.817 293.157 340.866 293.479 C 340.954 294.156 341.252 295.214 341.392 295.359 C 341.462 295.313 343.447 295.116 343.447 295.116 C 344.581 294.917 345.172 294.264 345.732 293.553 C 347.358 291.817 348.72 290.723 349.939 290.167 C 350.218 290.057 350.464 289.89 350.525 289.764 C 350.939 289.349 352.128 288.84 353.081 288.612 C 354.037 288.383 355.385 288.376 355.957 288.648 C 355.974 288.685 356.369 288.854 356.87 289.042 C 357.476 289.282 358.392 289.812 358.873 290.192 C 359.268 290.584 359.293 290.568 360.09 290.449 C 360.927 290.367 362.148 290.51 362.987 290.787 C 363.909 291.129 363.727 291.186 363.979 290.925 C 364.246 290.761 364.612 290.595 364.877 290.557 C 365.047 290.533 365.357 290.555 365.537 290.62 C 365.552 290.626 365.568 290.633 365.584 290.64 C 365.606 290.625 365.631 290.607 365.659 290.587 C 366.109 290.271 367.065 289.718 367.785 289.358 C 368.421 289.038 369.167 288.543 369.464 288.235 C 369.69 288.015 369.98 287.783 370.205 287.647 C 370.425 287.513 370.857 287.432 371.233 287.424 C 371.192 287.375 371.243 287.254 371.419 287.078 C 371.661 286.86 371.971 286.633 372.209 286.504 C 372.477 286.36 372.995 286.299 373.386 286.327 C 373.402 286.291 373.911 285.99 374.757 285.551 C 375.794 285.019 377.121 284.478 377.687 284.362 C 378.122 284.284 378.729 284.258 379.151 284.505 C 379.533 284.729 379.841 285.212 380.069 285.659 C 380.343 286.205 380.672 287.007 380.797 287.433 C 380.851 287.68 381.408 288.576 382.055 289.45 C 382.771 290.428 383.478 291.764 383.478 292.353 C 383.478 292.529 383.491 292.662 383.608 292.716 C 383.915 293.051 384.316 293.742 384.316 294.17 C 384.316 294.165 384.521 294.669 384.865 295.34 C 385.922 297.407 387.229 300.309 387.48 301.135 C 387.542 301.401 387.812 301.835 388.101 302.144 C 389.11 303.289 389.688 304.649 389.653 305.713 C 389.575 305.912 389.68 306.082 390.01 306.392 C 390.48 306.939 390.997 308.056 391.147 308.85 C 391.23 309.421 391.396 309.931 391.538 310.04 C 391.878 310.496 392.185 311.452 392.193 312.086 C 392.158 312.4 392.317 312.908 392.554 313.261 C 392.717 313.534 392.874 313.847 392.964 314.079 C 393.01 314.197 393.031 314.369 393.034 314.561 C 393.038 314.539 393.04 314.528 393.042 314.531 C 393.08 314.599 393.137 314.684 393.239 314.824 C 393.455 315.118 393.759 315.492 394.125 315.901 C 394.901 316.773 395.763 317.874 395.763 318.272 C 395.763 318.151 395.815 318.146 396.285 318.492 C 396.774 318.852 397.313 319.169 397.795 319.324 C 399.493 319.953 402.13 322.594 402.662 324.199 C 402.72 324.512 403.352 325.327 404.091 326.058 C 404.701 326.671 405.365 327.452 405.66 328.004 L 405.541 327.951 C 405.578 327.968 405.619 327.987 405.663 328.01 C 405.723 328.123 405.768 328.226 405.793 328.317 L 406.165 328.846 L 406.165 328.305 L 406.842 328.736 L 406.339 329.572 C 381.516 370.789 351.644 406.919 321.45 443.138 C 303.839 463.263 266.901 497.337 254.156 504.988 L 253.642 505.296 L 253.128 504.988 C 240.38 497.334 203.429 463.242 185.82 443.12 C 161.103 413.471 136.611 383.893 114.926 351.537 L 114.664 351.146 L 114.799 350.694 Z" style="fill: rgb(177, 177, 177);"/>
  <path style="stroke-width: 0.0846667; fill: rgb(255, 255, 255);" d="M 228.476 245.314 C 228.03 245.266 227.476 245.113 227.311 244.962 C 227.181 244.842 227.012 244.66 226.854 244.476 C 226.548 244.118 226.165 243.62 225.809 243.124 C 225.096 242.133 224.268 240.799 224.268 240.277 C 224.268 240.409 224.048 240.146 223.515 239.61 C 222.923 239.015 222.21 238.239 221.924 237.883 C 221.807 237.682 221.353 237.448 220.86 237.331 C 219.904 237.039 218.849 236.296 217.552 234.965 C 216.627 234.001 215.406 232.907 214.825 232.519 C 214.164 232.068 213.435 231.414 213.231 231.099 C 213.287 230.952 210.532 229.828 209.523 229.673 C 208.962 229.58 208.271 229.425 207.972 229.045 C 207.733 228.742 207.713 228.124 207.797 227.868 C 207.857 227.688 207.965 227.478 208.061 227.292 C 208.596 226.267 209.119 224.912 209.52 223.509 C 209.748 222.75 210.261 221.653 210.65 221.107 C 210.945 220.706 211.237 220.167 211.316 219.874 C 211.456 219.422 211.831 218.593 212.146 218.04 C 212.395 217.621 212.445 217.661 212.507 217.702 C 212.444 217.266 212.447 216.764 212.601 216.488 C 212.729 216.256 212.968 215.95 213.196 215.715 C 213.493 215.436 213.898 214.773 214.115 214.205 C 214.401 213.502 214.895 212.644 215.211 212.295 C 215.312 212.274 215.334 211.993 215.334 211.585 C 215.334 210.589 215.767 209.758 216.717 208.7 C 217.29 208.083 217.566 207.716 217.566 207.812 C 217.566 207.306 218.469 206.112 219.308 205.226 C 220.089 204.405 221.171 203.085 221.723 202.278 C 222.299 201.439 222.987 200.433 223.257 200.047 C 223.755 199.328 225.657 196.929 227.376 194.853 C 228.825 193.119 229.9 191.117 229.848 190.223 C 229.864 189.607 230.065 189.038 230.323 188.583 C 230.311 188.672 230.341 188.771 230.366 188.894 C 230.351 188.787 230.343 188.672 230.341 188.553 C 230.362 188.516 230.383 188.481 230.405 188.446 C 230.378 188.482 230.361 188.466 230.34 188.519 C 230.335 188.05 230.425 187.517 230.628 187.095 C 230.82 186.743 231.044 186.031 231.136 185.488 C 231.367 184.451 231.942 183.54 233.258 182.227 C 234.139 181.356 234.601 180.895 234.601 181.122 C 234.601 180.715 235.046 180.21 235.262 180.06 C 235.445 179.933 235.723 179.781 235.98 179.666 C 236.346 179.507 236.809 179.216 237.034 178.996 C 237.582 178.496 238.138 178.07 238.583 177.819 C 239.079 177.54 239.817 177.442 240.319 177.533 C 240.75 177.798 241.454 178.685 241.872 179.438 C 242.289 180.19 242.745 181.2 242.745 181.682 C 242.745 181.688 244.349 183.809 245.238 184.701 C 245.637 185.129 246.096 185.961 246.096 186.463 C 246.096 186.456 246.336 186.809 246.855 187.334 C 247.449 187.941 248.5 189.124 249.187 189.952 C 249.831 190.734 250.829 191.747 251.416 192.212 C 252.054 192.727 252.8 193.356 253.065 193.606 C 253.24 193.782 253.183 193.751 253.017 193.751 C 253.539 193.751 254.182 194.233 255.566 195.504 C 255.748 195.678 255.897 195.777 256.063 195.861 C 256.194 195.927 256.112 195.908 256.078 195.925 C 256.679 195.946 257.46 196.152 258.121 196.586 C 258.61 196.925 259.429 197.3 259.975 197.431 C 260.616 197.597 261.541 197.856 262.023 198.001 C 262.426 198.131 263.008 198.221 263.346 198.221 C 263.9 198.221 264.878 198.504 265.466 198.798 C 265.884 199.025 266.48 199.226 266.821 199.253 C 267.565 199.352 268.373 199.646 268.771 200.196 C 269.14 200.704 269.271 201.533 269.271 202.403 C 269.271 204.176 268.909 204.88 266.888 207.292 C 266.238 208.06 265.919 208.44 265.919 208.207 C 265.919 208.623 264.637 210.056 263.4 211.317 C 262.189 212.545 261.45 213.339 261.45 213.154 C 261.45 213.744 260.211 215.251 258.614 216.864 C 258.035 217.408 257.945 217.618 257.887 218.515 C 257.721 219.851 257.363 220.582 256.133 221.955 C 255.418 222.74 254.839 223.475 254.825 223.633 C 254.716 224.001 254.411 224.767 254.15 225.332 L 253.211 227.388 L 252.233 226.733 L 250.599 225.638 C 249.643 224.992 248.494 223.947 248.075 223.336 C 247.567 222.467 247.146 222.21 246.264 222.277 C 245.041 222.25 243.469 221.703 242.604 221.053 C 242.268 221.414 242.169 221.69 242.194 222.16 C 242.165 222.858 241.823 223.911 241.452 224.438 C 241.231 224.668 241.071 225.3 241.017 226.11 C 240.886 227.444 240.544 228.349 239.681 229.599 C 239.133 230.381 238.834 230.839 238.834 230.68 C 238.834 231.084 238.115 232.092 237.482 232.847 C 236.913 233.507 236.601 234.026 236.601 234.07 C 236.601 234.623 236.038 235.576 235.536 236.113 C 235.14 236.519 234.504 237.318 234.11 237.91 C 233.662 238.577 232.88 239.536 232.377 240.017 C 231.956 240.419 231.854 240.497 231.854 240.274 C 231.854 240.677 231.229 241.535 230.717 242.11 C 230.285 242.584 229.851 243.273 229.732 243.67 C 229.523 244.266 228.928 245.037 228.476 245.314 Z" id="path-1"/>
  <path style="stroke-width: 0.0846667;" d="M 291.742 417.46 C 291.561 417.239 291.351 416.454 291.271 415.716 C 291.195 414.974 291.067 413.741 290.988 412.972 C 290.782 411.028 290.782 410.82 291.033 407.583 C 291.208 405.28 291.351 404.657 291.739 404.445 C 292.516 404.033 292.656 404.79 292.587 408.92 C 292.522 412.918 292.783 414.251 293.965 415.909 L 294.54 416.718 L 293.972 417.287 C 293.309 417.948 292.217 418.034 291.742 417.46 Z M 243.141 230.33 C 243.141 230.087 243.288 229.938 243.47 229.996 C 243.987 230.172 244.074 230.772 243.582 230.772 C 243.338 230.772 243.141 230.574 243.141 230.33 Z M 243.697 234.977 C 243.697 234.832 243.804 234.651 243.931 234.572 C 244.06 234.492 244.163 234.611 244.163 234.832 C 244.163 235.056 244.06 235.24 243.931 235.24 C 243.804 235.24 243.697 235.122 243.697 234.977 Z M 244.433 241.907 C 243.822 241.039 243.796 238.311 244.396 238.311 C 244.654 238.311 244.815 238.571 244.815 238.993 C 244.815 239.368 244.94 239.753 245.096 239.848 C 245.435 240.056 245.455 241.659 245.125 242.18 C 244.937 242.473 244.789 242.417 244.433 241.907 Z M 244.815 243.878 C 244.815 243.562 244.94 243.38 245.096 243.475 C 245.247 243.573 245.372 243.828 245.372 244.054 C 245.372 244.274 245.247 244.456 245.096 244.456 C 244.94 244.456 244.815 244.195 244.815 243.878 Z M 245.175 248.857 C 244.99 248.172 244.957 247.5 245.096 247.251 C 245.363 246.778 245.484 246.985 245.731 248.364 C 245.801 248.747 245.954 249.28 246.064 249.551 C 246.203 249.882 246.144 250.039 245.88 250.039 C 245.656 250.039 245.352 249.535 245.175 248.857 Z M 246.25 255.833 C 246.095 255.026 245.874 253.865 245.755 253.251 C 245.637 252.635 245.572 251.946 245.614 251.715 C 245.653 251.484 245.69 251.071 245.686 250.801 C 245.686 250.134 246.177 250.478 246.53 251.392 C 246.919 252.397 247.14 257.298 246.797 257.298 C 246.648 257.298 246.404 256.638 246.25 255.833 Z M 197.235 257.984 C 196.657 257.562 196.889 256.954 197.581 257.067 C 197.835 257.108 198.471 256.926 198.992 256.662 C 199.516 256.398 200.306 256.183 200.75 256.183 C 201.193 256.183 201.832 255.999 202.172 255.778 C 202.511 255.553 203.323 255.286 203.972 255.184 C 204.926 255.032 205.189 255.085 205.332 255.451 C 205.427 255.705 205.371 256.072 205.21 256.265 C 204.962 256.563 202.106 257.225 200.2 257.427 C 199.679 257.483 198.858 257.763 198.168 258.126 C 197.911 258.261 197.535 258.202 197.235 257.984 Z M 247.057 260.111 C 246.781 259.59 246.927 258.694 247.289 258.696 C 247.388 258.696 247.499 259.136 247.536 259.673 C 247.616 260.774 247.479 260.9 247.057 260.111 Z M 218.566 261.797 C 217.148 260.894 215.164 259.088 214.75 258.326 C 214.513 257.891 214.07 257.688 213.181 257.599 C 212.872 257.569 210.496 255.092 209.959 254.238 C 209.711 253.848 209.134 253.215 208.669 252.833 C 208.208 252.446 206.984 251.266 205.952 250.204 L 204.074 248.278 L 203.735 249.019 C 203.55 249.425 203.178 249.759 202.907 249.759 C 202.364 249.759 201.407 248.379 201.099 247.154 C 200.866 246.206 200.299 245.928 199.672 246.447 C 199.392 246.682 198.394 246.849 197.092 246.884 C 191.405 247.031 188.479 247.226 187.763 247.502 C 186.773 247.883 186.368 247.883 185.985 247.502 C 185.504 247.022 185.992 245.817 186.526 246.177 C 186.563 246.204 186.869 246.078 187.206 245.896 C 187.578 245.7 187.881 245.672 187.98 245.834 C 188.069 245.979 188.864 246.042 189.742 245.977 C 190.622 245.91 191.908 245.811 192.598 245.759 C 193.29 245.703 194.076 245.771 194.342 245.904 C 194.642 246.056 194.834 246.042 194.834 245.874 C 194.834 245.709 196.031 245.614 197.835 245.637 C 199.698 245.656 201.07 245.54 201.46 245.332 C 202.377 244.838 203.422 245.224 204.714 246.534 C 205.344 247.174 208.253 250.141 211.179 253.126 C 216.182 258.235 218.42 260.371 218.773 260.371 C 219.126 260.371 220.529 262.088 220.376 262.334 C 220.133 262.731 219.954 262.677 218.566 261.797 Z M 207.191 268.149 C 207.02 267.981 206.565 267.838 206.179 267.838 C 205.767 267.838 205.044 267.442 204.436 266.885 C 203.745 266.256 203.329 266.041 203.198 266.252 C 202.933 266.681 202.033 266.193 201.448 265.299 C 201.206 264.926 200.45 264.356 199.778 264.029 C 198.468 263.397 195.813 261.068 195.61 260.371 C 195.54 260.142 195.289 259.953 195.049 259.953 C 194.807 259.953 194.098 259.482 193.475 258.905 C 192.851 258.326 192.274 257.859 192.192 257.859 C 192.028 257.859 191.322 257.281 190.14 256.177 C 189.725 255.787 188.862 255.24 188.219 254.954 C 187.576 254.669 186.985 254.275 186.909 254.074 C 186.83 253.874 186.314 253.495 185.765 253.236 C 185.213 252.974 184.637 252.522 184.481 252.236 C 184.326 251.949 184.036 251.715 183.831 251.715 C 183.627 251.715 183.159 251.427 182.793 251.074 C 182.426 250.721 181.773 250.215 181.341 249.94 C 180.217 249.232 180.384 248.208 181.615 248.262 C 182.258 248.291 182.872 248.656 183.849 249.592 C 184.59 250.304 185.449 250.956 185.754 251.049 C 186.065 251.14 186.82 251.682 187.433 252.251 C 188.046 252.823 188.881 253.495 189.286 253.746 C 189.982 254.175 190.052 254.169 190.543 253.623 C 191.564 252.489 194.853 251.234 197.238 251.069 C 197.871 251.026 198.574 250.808 198.796 250.583 C 199.018 250.363 199.695 250.178 200.299 250.178 C 201.221 250.178 201.407 250.277 201.483 250.808 C 201.559 251.339 201.443 251.434 200.731 251.434 C 200.269 251.434 199.814 251.559 199.718 251.713 C 199.626 251.866 199.149 251.995 198.657 251.998 C 196.239 252.021 194.793 252.216 194.346 252.576 C 194.076 252.792 193.258 253.27 192.528 253.637 C 191.8 254.005 191.203 254.409 191.203 254.535 C 191.203 254.993 192.148 256.74 192.396 256.74 C 192.535 256.74 193.32 257.43 194.144 258.278 C 194.972 259.122 195.737 259.811 195.85 259.811 C 196.226 259.811 197.902 261.064 197.902 261.347 C 197.904 261.5 198.205 261.817 198.57 262.047 C 200.341 263.162 201.78 264.214 202.856 265.176 C 203.505 265.757 204.234 266.236 204.474 266.236 C 205.085 266.236 206.594 267.033 207.218 267.685 C 207.755 268.251 207.732 268.688 207.191 268.149 Z M 311.459 272.194 C 311.267 270.529 311.267 270.543 311.155 267.63 C 311.106 266.325 310.974 264.798 310.862 264.237 C 310.753 263.676 310.634 262.819 310.6 262.33 C 310.568 261.843 310.392 261.355 310.218 261.245 C 309.749 260.959 309.756 258.272 310.225 256.322 C 310.69 254.379 310.831 251.903 310.768 246.828 C 310.729 243.799 310.611 242.886 310.056 241.319 C 309.693 240.288 309.46 239.376 309.541 239.294 C 309.816 239.024 310.957 239.147 311.158 239.472 C 311.267 239.646 311.584 240.92 311.858 242.295 C 312.134 243.674 312.431 244.869 312.513 244.953 C 312.751 245.187 312.969 244.86 313.06 244.136 C 313.108 243.773 313.285 243.164 313.461 242.781 C 313.634 242.395 313.896 241.389 314.042 240.544 C 314.181 239.7 314.433 238.506 314.591 237.893 C 314.753 237.279 314.812 236.543 314.726 236.263 C 314.601 235.855 314.7 235.772 315.224 235.844 C 315.584 235.898 316.106 235.732 316.385 235.482 C 317.062 234.868 317.971 235.129 317.971 235.93 C 317.971 236.273 317.553 237.358 317.043 238.342 C 316.53 239.324 316.02 240.504 315.904 240.962 C 315.789 241.425 315.387 242.414 315.01 243.166 C 314.634 243.918 314.387 244.594 314.463 244.667 C 314.538 244.743 314.43 245.135 314.224 245.537 C 314.017 245.94 313.757 246.822 313.645 247.496 C 313.532 248.172 313.262 249.156 313.045 249.68 C 312.816 250.224 312.599 251.909 312.536 253.614 C 312.481 255.257 312.313 256.914 312.171 257.298 C 312.026 257.688 311.976 259.735 312.061 261.906 C 312.276 267.364 312.18 272.974 311.87 273.284 C 311.709 273.449 311.55 273.033 311.454 272.194 L 311.459 272.194 Z M 249.894 301.284 C 249.694 300.846 249.581 298.691 249.588 295.423 C 249.594 292.58 249.526 290.136 249.438 289.995 C 249.35 289.853 249.218 287.203 249.146 284.111 C 249.073 281.017 248.951 278.383 248.869 278.25 C 248.789 278.122 248.664 276.905 248.587 275.546 C 248.516 274.187 248.381 272.508 248.291 271.819 C 248.091 270.296 247.991 268.951 247.889 266.375 C 247.846 265.299 247.688 264.263 247.54 264.076 C 247.388 263.884 247.22 263.073 247.16 262.271 C 247.064 260.939 247.095 260.854 247.503 261.263 C 247.748 261.509 247.969 262.082 247.991 262.535 C 248.014 262.99 248.196 263.562 248.397 263.805 C 248.601 264.048 248.733 264.475 248.695 264.752 C 248.657 265.029 248.779 265.976 248.971 266.856 C 249.162 267.733 249.33 269.429 249.348 270.626 C 249.363 271.819 249.495 272.954 249.644 273.145 C 249.815 273.37 249.802 273.623 249.607 273.857 C 249.389 274.121 249.41 274.574 249.687 275.493 C 249.949 276.374 250.012 277.403 249.884 278.83 C 249.746 280.414 249.791 281.005 250.099 281.364 C 250.455 281.788 250.752 283.927 250.653 285.362 C 250.449 288.362 251.12 297.168 251.735 299.503 C 251.972 300.399 251.923 300.611 251.328 301.251 C 250.494 302.152 250.293 302.155 249.894 301.284 Z M 345.767 324.11 C 345.157 323.5 345.035 323.169 345.154 322.451 C 345.234 321.955 345.108 320.507 344.877 319.235 C 344.643 317.959 344.422 316.599 344.382 316.217 C 344.342 315.834 344.109 314.827 343.864 313.985 C 343.62 313.137 343.433 312.134 343.446 311.748 C 343.472 310.987 342.38 305.937 341.939 304.786 C 341.791 304.394 341.618 303.569 341.566 302.953 C 341.509 302.338 341.39 301.209 341.302 300.44 C 341.213 299.672 341.068 298.415 340.979 297.65 C 340.89 296.88 340.722 296.125 340.604 295.973 C 340.384 295.687 339.976 294.355 339.873 293.6 C 339.845 293.37 339.603 292.613 339.339 291.924 C 339.077 291.232 338.71 289.975 338.522 289.131 C 338.335 288.286 338.106 287.405 338.021 287.178 C 337.006 284.546 336.299 281.984 336.209 280.615 C 336.151 279.696 335.982 278.626 335.834 278.241 C 335.685 277.858 335.523 277.166 335.478 276.706 C 335.429 276.245 335.254 275.553 335.085 275.17 C 334.917 274.787 334.504 273.277 334.168 271.819 C 333.829 270.361 333.354 268.828 333.113 268.416 C 332.785 267.858 331.422 264.097 331.132 263.023 C 330.966 262.406 330.649 261.648 330.428 261.332 C 330.207 261.019 329.94 260.302 329.837 259.745 C 329.732 259.188 329.469 258.667 329.253 258.584 C 329.039 258.499 328.866 258.136 328.866 257.777 C 328.866 257.077 327.741 253.568 327.042 252.084 C 326.81 251.6 326.546 250.814 326.451 250.34 C 326.358 249.868 326.19 249.479 326.081 249.479 C 325.826 249.479 325.172 248.055 325.347 247.879 C 325.418 247.806 325.172 247.051 324.799 246.204 C 324.422 245.356 324.117 244.46 324.113 244.209 C 324.113 243.96 323.795 243.209 323.414 242.54 C 323.034 241.874 322.717 241.055 322.717 240.726 C 322.711 239.753 322.398 238.87 322.057 238.863 C 321.6 238.853 319.98 236.055 319.786 234.937 C 319.694 234.414 319.499 233.941 319.354 233.889 C 319.209 233.84 319.09 233.572 319.09 233.295 C 319.09 231.897 317.922 232.141 314.878 234.186 C 311.68 236.334 309.068 237.039 308.225 235.981 C 307.682 235.296 306.971 234.604 305.308 233.144 C 304.61 232.53 303.824 231.557 303.562 230.98 C 303.303 230.405 302.995 229.933 302.884 229.933 C 302.583 229.933 298.15 225.608 298.134 225.301 C 298.128 225.161 297.668 224.671 297.119 224.208 C 296.564 223.747 295.786 223.001 295.388 222.55 C 294.985 222.101 293.608 220.66 292.33 219.351 C 291.05 218.041 289.821 216.617 289.598 216.191 C 289.378 215.763 289.022 215.414 288.804 215.414 C 288.588 215.414 287.804 214.708 287.066 213.842 C 284.579 210.935 282.963 209.27 282.623 209.27 C 282.443 209.27 281.898 208.8 281.42 208.225 C 280.941 207.647 279.87 206.423 279.035 205.5 C 278.201 204.579 277.094 203.349 276.57 202.767 C 275.578 201.677 274.821 201.471 273.23 201.878 C 272.812 201.987 272.245 201.985 271.975 201.872 C 271.704 201.763 271.012 201.632 270.434 201.584 L 269.386 201.495 L 269.386 202.993 C 269.386 203.814 269.248 204.576 269.079 204.679 C 268.911 204.783 268.595 205.295 268.376 205.814 C 268.162 206.331 267.849 206.757 267.683 206.757 C 267.268 206.757 266.386 207.831 265.906 208.919 C 265.685 209.417 265.313 209.827 265.079 209.827 C 264.841 209.827 264.319 210.323 263.915 210.935 C 263.512 211.544 262.945 212.119 262.654 212.211 C 262.364 212.304 262.128 212.547 262.128 212.756 C 262.128 212.963 261.625 213.671 261.013 214.328 C 260.396 214.987 259.895 215.598 259.895 215.687 C 259.895 215.773 259.498 216.282 259.013 216.808 C 258.407 217.475 258.093 218.138 258.001 218.962 C 257.928 219.615 257.695 220.294 257.483 220.47 C 257.272 220.644 257.1 220.895 257.1 221.03 C 257.1 221.164 256.599 221.808 255.986 222.46 C 255.368 223.114 254.868 223.806 254.868 224.001 C 254.868 224.197 254.749 224.572 254.6 224.84 C 254.455 225.105 254.126 225.795 253.871 226.373 C 253.378 227.484 252.575 227.764 252.137 226.98 C 251.892 226.547 251.137 226.039 249.91 225.483 C 249.564 225.327 248.876 224.624 248.385 223.926 C 247.889 223.226 247.229 222.603 246.919 222.54 C 246.605 222.48 245.911 222.363 245.372 222.283 C 244.835 222.201 244.097 222.049 243.733 221.944 C 243.106 221.762 243.074 221.808 243.186 222.761 C 243.308 223.793 242.906 224.282 242.372 223.747 C 242.186 223.562 242.033 223.712 241.914 224.186 C 241.813 224.581 241.61 224.906 241.457 224.906 C 241.31 224.906 241.184 225.439 241.18 226.092 C 241.178 226.745 240.996 227.592 240.772 227.979 C 240.55 228.362 240.279 228.862 240.175 229.094 C 240.069 229.325 239.562 230.109 239.047 230.841 C 238.532 231.569 238.113 232.27 238.113 232.398 C 238.113 232.524 237.801 232.923 237.414 233.281 C 237.031 233.645 236.715 234.16 236.715 234.426 C 236.715 234.693 236.089 235.647 235.324 236.541 C 234.555 237.437 233.927 238.311 233.927 238.486 C 233.925 238.657 233.484 239.135 232.945 239.548 C 232.412 239.957 231.968 240.452 231.968 240.646 C 231.968 240.843 231.673 241.284 231.314 241.623 C 230.95 241.962 230.318 242.895 229.905 243.694 C 229.493 244.495 228.859 245.514 228.496 245.959 C 227.685 246.952 226.944 246.787 226.944 245.614 C 226.944 245.165 226.755 244.644 226.524 244.453 C 226.295 244.261 226.106 243.989 226.106 243.843 C 226.106 243.698 225.666 243.004 225.13 242.302 C 224.592 241.597 224.15 240.903 224.15 240.76 C 224.15 240.313 221.518 237.478 221.1 237.474 C 220.492 237.467 218.287 236.341 218.287 236.04 C 218.287 235.559 215.265 232.76 214.111 232.171 C 213.491 231.854 212.982 231.485 212.982 231.346 C 212.982 230.95 210.727 229.987 209.332 229.786 L 208.056 229.605 L 207.703 231.234 C 207.509 232.131 207.3 233.117 207.245 233.427 C 207.188 233.737 206.885 234.269 206.572 234.604 C 206.258 234.937 206 235.399 206 235.628 C 206 236.062 204.348 238.87 204.092 238.87 C 204.005 238.87 203.587 238.531 203.16 238.123 L 202.384 237.378 L 200.84 237.9 C 199.992 238.19 199.3 238.523 199.3 238.644 C 199.3 238.766 199.055 238.87 198.758 238.87 C 198.457 238.87 198.138 238.993 198.043 239.147 C 197.947 239.3 197.574 239.425 197.211 239.425 C 196.85 239.425 196.509 239.565 196.453 239.733 C 196.398 239.901 195.965 240.068 195.497 240.106 C 195.028 240.145 194.53 240.244 194.388 240.331 C 194.25 240.415 193.567 240.636 192.878 240.818 C 192.186 241.003 191.371 241.376 191.061 241.646 C 190.434 242.203 189.625 242.477 188.004 242.679 C 187.4 242.754 186.457 243.014 185.909 243.258 C 185.366 243.499 184.794 243.71 184.64 243.726 C 184.487 243.744 183.607 244.122 182.685 244.578 C 180.946 245.429 180.863 245.455 179.818 245.527 C 179.068 245.577 178.555 246.628 178.575 248.07 C 178.582 248.615 178.351 249.333 178.053 249.716 C 177.76 250.084 177.52 250.721 177.52 251.124 C 177.52 251.527 177.387 252.295 177.222 252.833 C 176.886 253.942 176.516 255.982 176.14 258.833 C 175.939 260.382 175.965 260.916 176.279 261.401 C 176.529 261.787 176.612 262.352 176.506 262.934 C 176.302 264.033 175.32 265.62 174.718 265.814 C 174.482 265.89 174.069 266.325 173.803 266.777 C 173.534 267.232 172.948 267.862 172.503 268.182 C 172.054 268.499 171.609 269.009 171.513 269.312 C 171.418 269.613 171.173 269.864 170.972 269.864 C 170.208 269.864 169.031 272.825 169.082 274.625 C 169.096 275.071 168.982 275.513 168.829 275.608 C 168.678 275.7 168.269 276.426 167.918 277.218 C 166.896 279.53 166.497 281.496 166.587 283.775 C 166.632 285.017 166.464 285.617 165.555 287.405 C 164.957 288.583 164.083 290.301 163.616 291.225 C 163.15 292.145 162.63 293.213 162.467 293.596 C 162.302 293.982 162.044 294.484 161.899 294.714 C 161.754 294.945 161.28 295.898 160.852 296.835 C 160.152 298.356 160.069 298.836 160.089 301.304 C 160.111 303.883 160.33 304.972 161.28 307.28 C 161.439 307.662 161.642 308.43 161.731 308.985 C 161.821 309.538 162.252 310.545 162.691 311.218 C 163.13 311.893 163.777 313.575 164.128 314.958 C 164.479 316.339 164.918 317.658 165.104 317.889 C 165.29 318.12 165.603 318.813 165.795 319.426 C 166.457 321.52 168.098 325.01 168.581 325.349 C 168.849 325.535 169.219 326.056 169.406 326.503 C 169.697 327.205 169.663 327.483 169.175 328.436 C 168.496 329.768 167.959 330.032 167.243 329.395 C 166.76 328.964 166.048 327.084 165.943 325.953 C 165.888 325.363 164.957 323.938 164.756 324.139 C 164.364 324.532 163.602 323.717 163.679 322.987 C 163.767 322.173 162.854 318.527 162.438 318.024 C 162.167 317.702 161.609 315.647 161.491 314.537 C 161.451 314.155 161.22 313.463 160.979 313.001 C 160.739 312.536 160.449 311.53 160.336 310.765 C 160.222 309.999 159.961 309.126 159.75 308.822 C 159.542 308.519 159.37 308.081 159.368 307.847 C 159.368 307.613 159.166 307.042 158.921 306.58 C 158.674 306.121 158.295 305.145 158.074 304.416 C 157.672 303.087 156.574 301.688 155.658 301.336 C 155.39 301.234 155.057 300.849 154.917 300.479 C 154.777 300.109 154.173 299.277 153.576 298.628 L 152.49 297.455 L 151.36 298.526 C 150.736 299.118 149.898 299.881 149.491 300.228 C 149.09 300.572 148.758 301.093 148.758 301.384 C 148.758 301.715 148.5 301.979 148.066 302.089 C 147.323 302.273 143.175 306.198 143.175 306.716 C 143.175 307.435 140.265 310.911 139.661 310.911 C 139.479 310.911 139.199 311.069 139.038 311.263 C 138.84 311.504 138.21 311.584 137.118 311.511 C 132.498 311.201 132.168 311.314 131.712 313.345 C 131.469 314.426 129.704 317.375 129.187 317.566 C 129.048 317.615 128.933 317.932 128.933 318.269 C 128.933 318.602 128.636 319.314 128.273 319.852 C 127.915 320.385 127.521 321.138 127.405 321.52 C 127.096 322.549 125.226 326.349 124.817 326.777 C 124.625 326.978 124.464 327.448 124.464 327.816 C 124.464 328.186 124.213 328.898 123.906 329.402 C 123.604 329.905 123.35 330.573 123.35 330.891 C 123.35 331.206 122.907 332.361 122.37 333.449 C 121.836 334.541 121.394 335.679 121.394 335.978 C 121.394 336.279 121.155 337.137 120.865 337.888 C 120.575 338.637 120.187 339.818 119.998 340.507 C 119.811 341.199 119.537 342.017 119.396 342.327 C 119.069 343.041 119.013 343.842 119.246 344.557 C 119.524 345.41 118.843 346.489 117.927 346.651 C 116.991 346.816 116.829 347.066 116.232 349.302 C 115.985 350.227 115.652 351.357 115.493 351.817 C 114.873 353.603 114.633 354.946 114.675 356.354 C 114.718 357.767 114.695 357.823 113.98 357.823 L 113.241 357.823 L 113.399 355.377 C 113.643 351.622 113.799 350.549 114.164 350.108 C 114.349 349.886 114.55 348.996 114.613 348.129 C 114.678 347.261 114.909 346.206 115.13 345.781 C 115.351 345.355 115.531 344.736 115.531 344.404 C 115.531 344.075 115.698 343.408 115.905 342.925 C 116.113 342.444 116.515 341.292 116.799 340.372 C 117.083 339.449 117.502 338.403 117.725 338.05 C 117.948 337.693 118.155 336.998 118.189 336.5 C 118.218 336.006 118.479 335.102 118.773 334.495 C 119.088 333.832 119.297 332.802 119.293 331.923 C 119.285 331.118 119.368 330.458 119.471 330.458 C 119.573 330.458 119.853 329.967 120.094 329.368 C 120.335 328.764 120.79 328.093 121.1 327.872 C 121.414 327.656 121.598 327.404 121.508 327.312 C 121.417 327.223 121.657 326.606 122.037 325.943 C 122.416 325.277 122.804 324.288 122.901 323.743 C 122.997 323.198 123.504 322.087 124.028 321.269 C 124.557 320.455 125.071 319.278 125.176 318.654 C 125.282 318.031 125.605 317.134 125.893 316.658 C 126.183 316.185 126.419 315.64 126.419 315.443 C 126.419 315.248 126.743 314.579 127.135 313.955 C 127.664 313.12 127.976 312.87 128.324 313.005 C 129.207 313.348 129.292 313.283 129.777 311.89 C 130.133 310.861 130.477 310.393 131.077 310.116 C 131.528 309.911 132.014 309.469 132.158 309.14 C 132.304 308.81 133.029 308.236 133.771 307.87 L 135.117 307.204 L 136.423 307.864 C 137.141 308.226 137.854 308.483 138.009 308.434 C 138.161 308.385 138.54 308.299 138.846 308.24 C 139.154 308.179 139.529 307.919 139.684 307.656 C 139.837 307.396 140.307 306.831 140.729 306.402 C 141.153 305.974 141.499 305.541 141.499 305.442 C 141.499 305.281 142.4 304.119 143.584 302.751 C 143.81 302.485 144.182 301.825 144.41 301.284 C 144.688 300.624 145.003 300.302 145.38 300.302 C 145.7 300.302 146.267 299.856 146.712 299.252 C 147.137 298.679 147.821 297.811 148.23 297.326 C 148.639 296.841 149.031 296.277 149.101 296.07 C 149.195 295.79 149.327 295.772 149.622 296.001 C 150.468 296.658 150.947 296.624 151.821 295.841 C 153.24 294.576 153.674 294.595 154.617 295.965 C 155.608 297.401 157.527 298.352 158.164 297.72 C 158.372 297.507 158.595 297.091 158.662 296.795 C 158.876 295.793 159.885 293.174 160.607 291.733 C 161.003 290.948 161.326 290.054 161.326 289.74 C 161.326 289.43 161.57 288.606 161.867 287.91 C 162.167 287.211 162.53 286.037 162.672 285.302 C 163.037 283.412 163.587 281.245 163.83 280.755 C 163.94 280.523 164.199 279.675 164.406 278.871 C 164.612 278.061 164.871 277.403 164.984 277.403 C 165.098 277.403 165.277 276.995 165.387 276.495 C 165.492 275.997 165.821 275.114 166.115 274.536 C 166.408 273.956 166.663 273.049 166.683 272.525 C 166.702 271.997 166.886 271.5 167.094 271.42 C 167.299 271.344 167.466 270.998 167.466 270.658 C 167.466 270.318 167.724 269.507 168.04 268.855 C 168.584 267.736 168.667 267.681 169.577 267.825 C 170.106 267.912 170.54 267.864 170.54 267.724 C 170.54 267.453 170.838 267.038 172.563 264.893 C 173.153 264.161 173.611 263.284 173.608 262.888 C 173.608 262.502 173.66 261.685 173.726 261.068 C 173.79 260.453 173.924 258.947 174.024 257.718 C 174.118 256.491 174.306 255.046 174.436 254.508 C 174.565 253.97 174.683 253.34 174.698 253.11 C 174.716 252.879 174.772 252.002 174.824 251.158 C 174.88 250.309 175.055 249.302 175.218 248.908 C 175.379 248.516 175.441 247.849 175.362 247.427 C 175.273 246.961 175.415 246.287 175.715 245.728 C 176.196 244.834 176.714 244.515 180.043 243.066 C 180.586 242.832 181.467 242.309 181.999 241.907 C 182.925 241.207 183.61 240.956 185.504 240.641 C 186.044 240.547 186.529 240.218 186.806 239.743 C 187.704 238.226 188.194 237.998 190.79 237.896 C 192.126 237.843 193.36 237.662 193.526 237.498 C 193.689 237.329 194.201 237.193 194.656 237.193 C 195.114 237.193 195.684 237.028 195.928 236.824 C 196.483 236.355 198.67 235.718 199.006 235.93 C 199.149 236.016 199.342 235.957 199.441 235.799 C 199.537 235.64 199.709 235.568 199.821 235.636 C 199.931 235.706 200.515 235.485 201.119 235.149 C 201.87 234.723 202.295 234.252 202.472 233.631 C 202.614 233.134 202.825 232.725 202.938 232.725 C 203.297 232.725 204.102 231.293 204.24 230.405 C 204.316 229.941 204.854 228.981 205.438 228.278 C 206.022 227.576 206.582 226.733 206.68 226.399 C 206.779 226.066 207.044 225.644 207.269 225.455 C 207.496 225.271 207.676 224.82 207.676 224.453 C 207.676 224.088 207.981 223.19 208.349 222.46 C 209.87 219.476 210.978 216.812 211.166 215.7 C 211.278 215.047 211.604 214.279 211.895 213.99 C 212.185 213.697 212.425 213.316 212.425 213.137 C 212.425 212.581 213.836 209.899 214.398 209.391 C 214.694 209.124 214.939 208.735 214.939 208.531 C 214.939 208.323 215.047 208.155 215.185 208.155 C 215.322 208.155 215.513 207.726 215.611 207.205 C 215.71 206.684 216.085 205.816 216.453 205.279 C 216.815 204.741 217.198 204.038 217.3 203.715 C 217.504 203.072 218.566 202.338 218.566 202.838 C 218.566 203.452 219.308 203.086 219.816 202.221 C 220.106 201.72 221.139 200.338 222.104 199.148 C 223.072 197.953 224.083 196.634 224.355 196.216 C 224.625 195.793 224.945 195.322 225.068 195.169 C 225.188 195.015 225.805 194.01 226.439 192.934 C 227.072 191.862 227.701 190.909 227.838 190.82 C 227.969 190.731 228.157 190.163 228.25 189.563 C 228.342 188.96 228.727 187.934 229.104 187.281 C 229.48 186.627 229.694 186.095 229.575 186.095 C 229.457 186.095 229.625 185.811 229.951 185.467 C 230.312 185.081 230.647 184.188 230.812 183.162 C 230.965 182.243 231.283 181.111 231.527 180.65 C 231.768 180.187 231.967 179.656 231.968 179.462 C 231.968 179.106 232.792 178.983 234.417 179.095 C 235.168 179.148 235.538 178.94 236.527 177.921 C 237.191 177.243 237.913 176.572 238.137 176.433 C 238.361 176.296 238.763 175.836 239.034 175.415 C 239.967 173.947 240.831 174.62 242.889 178.417 C 243.222 179.03 243.572 179.597 243.671 179.673 C 243.77 179.749 244.003 180.125 244.194 180.51 C 244.387 180.893 244.759 181.537 245.026 181.939 C 245.293 182.34 245.887 183.281 246.345 184.025 C 247.34 185.649 247.913 186.255 248.684 186.499 C 249 186.602 249.874 187.525 250.626 188.554 C 252.447 191.044 254.12 192.78 254.607 192.681 C 254.828 192.637 255.224 192.509 255.487 192.392 C 255.972 192.182 257.485 192.925 258.637 193.936 C 259.385 194.596 263.42 196.717 263.594 196.541 C 263.67 196.463 264.408 196.658 265.233 196.971 C 266.058 197.287 266.984 197.546 267.294 197.548 C 267.983 197.555 270.236 198.323 270.711 198.715 C 270.906 198.877 271.064 198.913 271.064 198.799 C 271.064 198.686 271.219 198.715 271.41 198.868 C 271.964 199.303 272.786 199.217 274.076 198.587 L 275.273 198.003 L 276.126 199.035 C 276.595 199.602 277.136 200.035 277.331 199.991 C 277.686 199.916 280.272 202.118 280.282 202.505 C 280.285 202.617 281.809 204.279 283.665 206.198 C 285.526 208.118 287.211 210.067 287.41 210.525 C 287.89 211.654 288.795 212.435 290.47 213.185 C 291.239 213.527 291.95 213.95 292.05 214.124 C 292.152 214.299 292.656 214.896 293.167 215.45 C 293.677 216.004 294.602 217.158 295.216 218.019 C 295.83 218.879 296.547 219.656 296.809 219.746 C 297.069 219.836 297.549 220.344 297.877 220.872 C 298.203 221.399 298.636 221.926 298.837 222.042 C 299.038 222.161 300.294 223.573 301.634 225.185 C 302.973 226.798 304.668 228.648 305.404 229.298 C 306.139 229.948 306.821 230.802 306.921 231.198 C 307.019 231.589 307.663 232.49 308.345 233.197 C 309.672 234.559 309.935 234.562 310.938 233.217 C 311.139 232.946 311.425 232.725 311.569 232.725 C 311.719 232.725 312.26 232.319 312.775 231.818 C 315.275 229.384 315.478 229.278 316.768 229.774 C 317.355 230.001 318.275 230.149 318.814 230.106 C 319.762 230.031 320.765 230.557 320.765 231.135 C 320.765 231.474 322.629 234.312 323.007 234.545 C 323.156 234.636 323.278 234.993 323.278 235.334 C 323.278 235.673 323.485 236.247 323.736 236.606 C 323.99 236.965 324.541 238.219 324.96 239.39 C 326.689 244.195 327.114 245.256 327.691 246.161 C 329.067 248.321 329.221 248.69 329.835 251.288 C 330.088 252.362 330.398 253.368 330.521 253.521 C 330.646 253.68 330.903 254.497 331.098 255.342 C 331.415 256.733 332.17 259.047 332.783 260.51 C 332.911 260.817 333.106 261.382 333.211 261.768 C 333.32 262.15 333.703 263.115 334.066 263.91 C 334.364 264.564 334.616 265.17 334.699 265.421 C 334.762 265.467 334.835 265.533 334.919 265.62 C 335.227 265.925 336.163 267.344 336.229 267.693 C 336.299 268.043 336.499 269.145 336.681 270.144 C 336.859 271.143 337.116 272.4 337.253 272.937 C 337.889 275.497 338.11 276.564 338.35 278.263 C 338.493 279.277 338.851 280.783 339.148 281.614 C 339.442 282.449 339.839 283.884 340.026 284.803 C 340.213 285.723 340.655 287.547 341.008 288.853 C 341.362 290.156 341.74 291.917 341.854 292.761 C 341.962 293.606 342.291 294.764 342.578 295.334 C 342.868 295.902 343.106 296.805 343.106 297.338 C 343.106 297.873 343.241 298.662 343.405 299.096 C 343.574 299.529 343.821 300.446 343.953 301.139 C 344.527 304.092 345.065 306.509 345.2 306.725 C 345.279 306.855 345.418 307.818 345.507 308.866 C 345.595 309.915 345.791 311.275 345.942 311.89 C 346.094 312.504 346.325 313.573 346.457 314.261 C 346.589 314.953 347.018 316.87 347.414 318.52 C 347.809 320.168 348.132 321.783 348.132 322.111 C 348.132 322.737 347.041 324.875 346.721 324.875 C 346.619 324.875 346.189 324.532 345.771 324.11 L 345.767 324.11 Z M 382.083 325.402 C 382 325.033 381.861 323.54 381.773 322.081 C 381.544 318.338 381.433 316.858 381.238 315.099 C 381.146 314.255 381.049 312.748 381.027 311.748 C 381.003 310.753 380.856 309.763 380.693 309.558 C 380.535 309.35 380.436 308.787 380.473 308.305 C 380.542 307.398 380.037 304.608 379.091 300.657 C 378.378 297.682 378.538 294.156 379.388 294.156 C 379.737 294.156 380.248 295.605 380.179 296.393 C 380.093 297.373 380.499 300.018 380.832 300.637 C 380.983 300.925 381.175 302.061 381.254 303.169 C 381.333 304.281 381.515 305.64 381.657 306.195 C 382.056 307.731 382.29 311.142 382.173 313.704 C 382.164 313.934 382.327 314.688 382.537 315.38 C 383.026 316.992 383.039 325.259 382.555 325.745 C 382.306 325.993 382.191 325.911 382.079 325.402 L 382.083 325.402 Z M 405.165 328.875 C 404.969 328.798 404.816 328.614 404.816 328.466 C 404.816 328.317 404.169 327.552 403.383 326.764 C 402.595 325.976 401.837 324.947 401.701 324.476 C 401.297 323.086 398.979 320.781 397.474 320.271 C 396.337 319.884 394.763 318.728 394.763 318.272 C 394.763 318.189 394.139 317.421 393.378 316.566 C 392.616 315.713 392.042 314.928 392.105 314.825 C 392.168 314.726 391.983 314.252 391.697 313.776 C 391.406 313.302 391.178 312.524 391.194 312.052 C 391.207 311.577 391.023 310.97 390.785 310.698 C 390.549 310.432 390.268 309.675 390.16 309.011 C 390.048 308.342 389.657 307.485 389.274 307.069 C 388.85 306.613 388.616 306.058 388.658 305.617 C 388.738 304.812 388.285 303.833 387.358 302.814 C 387.013 302.429 386.634 301.801 386.521 301.418 C 386.293 300.655 385.021 297.841 383.975 295.795 C 383.612 295.084 383.316 294.352 383.316 294.17 C 383.316 293.988 383.124 293.649 382.896 293.418 C 382.665 293.19 382.478 292.71 382.478 292.353 C 382.478 291.998 381.927 290.959 381.251 290.044 C 380.578 289.131 379.942 288.077 379.836 287.71 C 379.731 287.34 379.434 286.621 379.176 286.109 C 378.765 285.295 378.607 285.202 377.871 285.345 C 377.408 285.43 376.215 285.925 375.215 286.44 C 374.219 286.954 373.265 287.326 373.101 287.271 C 372.937 287.211 372.485 287.454 372.098 287.812 C 371.714 288.171 371.272 288.422 371.119 288.372 C 370.964 288.318 370.536 288.581 370.167 288.946 C 369.796 289.315 368.926 289.899 368.238 290.249 C 367.545 290.595 366.641 291.116 366.232 291.406 C 365.77 291.729 365.414 291.824 365.307 291.654 C 365.197 291.472 364.912 291.514 364.52 291.766 C 363.99 292.106 363.739 292.102 362.662 291.733 C 361.928 291.479 360.923 291.36 360.202 291.443 C 359.233 291.551 358.834 291.456 358.237 290.964 C 357.821 290.628 357.047 290.182 356.51 289.975 C 355.972 289.771 355.428 289.513 355.302 289.404 C 354.945 289.094 351.682 289.877 351.332 290.355 C 351.161 290.591 350.714 290.918 350.341 291.082 C 349.237 291.568 348.04 292.545 346.463 294.235 C 345.325 295.46 344.792 295.833 344.18 295.833 C 343.017 295.833 343.079 294.72 344.291 293.876 C 344.792 293.53 345.744 292.56 346.414 291.726 C 347.083 290.892 347.961 290.065 348.37 289.889 C 349.223 289.513 351.833 287.983 352.041 287.732 C 352.116 287.64 352.621 287.392 353.155 287.184 C 353.692 286.976 354.323 286.65 354.554 286.46 C 354.785 286.271 355.655 286.07 356.493 286.017 C 357.891 285.929 358.022 285.97 358.168 286.571 C 358.291 287.079 358.748 287.369 360.256 287.896 C 361.316 288.27 362.6 288.573 363.102 288.573 C 363.603 288.573 364.08 288.681 364.164 288.814 C 364.629 289.569 367.29 288.379 368.497 286.875 C 368.985 286.268 369.49 285.833 369.618 285.911 C 369.744 285.991 369.985 285.888 370.153 285.684 C 370.324 285.48 370.998 285.147 371.651 284.94 C 372.307 284.732 373.378 284.213 374.031 283.784 C 374.688 283.357 375.628 282.96 376.127 282.907 C 376.624 282.853 377.507 282.583 378.091 282.303 C 379.138 281.802 379.156 281.802 379.802 282.412 C 380.165 282.749 380.528 283.368 380.611 283.784 C 380.693 284.199 381.069 284.873 381.449 285.278 C 381.825 285.687 382.467 286.898 382.88 287.972 C 383.348 289.199 383.882 290.093 384.318 290.38 C 384.994 290.822 385.251 291.281 386.301 293.876 C 386.577 294.566 387.088 295.671 387.431 296.333 C 387.777 296.997 388.061 297.729 388.061 297.96 C 388.061 298.194 388.372 299.061 388.751 299.893 C 389.134 300.724 389.522 301.722 389.621 302.11 C 389.718 302.501 389.908 302.886 390.048 302.973 C 390.181 303.058 390.293 303.355 390.293 303.635 C 390.293 303.912 390.481 304.299 390.713 304.49 C 390.943 304.681 391.132 305.054 391.132 305.314 C 391.132 305.577 391.504 306.159 391.963 306.606 C 392.418 307.055 392.798 307.652 392.8 307.935 C 392.804 308.221 392.986 308.787 393.202 309.193 C 393.875 310.463 394.42 311.837 394.763 313.147 C 395.204 314.825 396.015 315.834 398.13 317.335 C 399.904 318.597 402.273 320.903 403.469 322.543 C 405.545 325.376 406.3 326.259 406.785 326.415 C 407.084 326.511 407.328 326.705 407.328 326.846 C 407.328 326.988 407.517 327.107 407.748 327.107 C 408.008 327.107 408.166 327.372 408.166 327.807 C 408.166 328.239 408.008 328.501 407.748 328.501 C 407.517 328.501 407.328 328.627 407.328 328.784 C 407.328 329.066 405.798 329.132 405.165 328.878 L 405.165 328.875 Z M 382.104 328.875 C 381.801 328.57 381.89 327.529 382.267 327.019 C 382.567 326.606 382.617 326.692 382.617 327.638 C 382.617 328.764 382.432 329.205 382.104 328.875 Z M 228.784 243.353 C 228.952 242.85 229.487 241.988 229.97 241.445 C 230.456 240.903 230.854 240.376 230.854 240.274 C 230.854 240.174 231.227 239.733 231.686 239.294 C 232.145 238.855 232.86 237.982 233.278 237.355 C 233.697 236.729 234.391 235.858 234.819 235.416 C 235.248 234.975 235.601 234.371 235.601 234.07 C 235.601 233.771 236.102 232.928 236.719 232.2 C 237.332 231.471 237.834 230.788 237.834 230.68 C 237.834 230.574 238.299 229.829 238.862 229.025 C 239.667 227.884 239.921 227.223 240.02 226.027 C 240.093 225.116 240.357 224.219 240.663 223.824 C 240.951 223.457 241.188 222.702 241.194 222.148 C 241.202 221.476 241.438 220.872 241.91 220.333 C 242.616 219.533 242.619 219.53 243.024 220.113 C 243.453 220.727 244.984 221.274 246.266 221.277 C 247.398 221.277 248.235 221.759 248.911 222.788 C 249.244 223.299 250.254 224.204 251.155 224.806 L 252.79 225.902 L 253.241 224.914 C 253.492 224.374 253.773 223.673 253.865 223.354 C 253.957 223.038 254.647 222.105 255.394 221.281 C 256.55 220.015 256.78 219.572 256.892 218.418 C 256.992 217.363 257.223 216.851 257.902 216.162 C 259.472 214.579 260.45 213.421 260.45 213.154 C 260.45 213.009 261.457 211.864 262.688 210.615 C 263.915 209.364 264.919 208.283 264.919 208.207 C 264.919 208.135 265.46 207.432 266.125 206.646 C 268.08 204.333 268.271 203.952 268.271 202.403 C 268.271 200.813 267.967 200.391 266.707 200.246 C 266.263 200.197 265.494 199.942 265.002 199.684 C 264.51 199.428 263.766 199.221 263.346 199.221 C 262.928 199.221 262.198 199.102 261.727 198.956 C 261.255 198.814 260.356 198.563 259.724 198.399 C 259.093 198.238 258.119 197.792 257.558 197.413 C 257.002 197.033 256.364 196.792 256.143 196.874 C 255.927 196.962 255.36 196.674 254.888 196.239 C 253.532 194.992 253.228 194.751 253.017 194.751 C 252.908 194.751 252.622 194.563 252.378 194.332 C 252.133 194.101 251.418 193.498 250.788 192.99 C 250.158 192.486 249.09 191.404 248.416 190.589 C 247.74 189.774 246.718 188.623 246.141 188.034 C 245.564 187.438 245.096 186.733 245.096 186.463 C 245.096 186.196 244.842 185.718 244.532 185.409 C 243.598 184.467 241.745 181.987 241.745 181.682 C 241.745 181.133 240.347 178.613 239.961 178.466 C 239.574 178.316 238.734 178.792 237.711 179.732 C 237.414 180.007 236.817 180.387 236.386 180.58 C 235.954 180.769 235.601 181.016 235.601 181.122 C 235.601 181.23 234.862 182.047 233.962 182.938 C 232.709 184.175 232.273 184.82 232.12 185.666 C 232.012 186.274 231.739 187.127 231.514 187.558 C 231.294 187.991 231.178 188.458 231.263 188.597 C 231.349 188.734 231.294 188.928 231.138 189.023 C 230.98 189.122 230.852 189.662 230.848 190.23 C 230.845 191.351 229.655 193.666 228.147 195.49 C 226.434 197.558 224.558 199.923 224.08 200.615 C 223.813 200.997 223.124 202.004 222.547 202.844 C 221.97 203.686 220.838 205.067 220.033 205.915 C 219.226 206.763 218.566 207.613 218.566 207.812 C 218.566 208.005 218.065 208.711 217.452 209.378 C 216.581 210.321 216.334 210.813 216.334 211.585 C 216.334 212.134 216.148 212.765 215.926 212.993 C 215.698 213.217 215.302 213.93 215.044 214.576 C 214.787 215.222 214.272 216.053 213.903 216.422 C 213.534 216.792 213.303 217.21 213.389 217.349 C 213.477 217.491 213.306 218.021 213.016 218.533 C 212.722 219.045 212.387 219.778 212.274 220.162 C 212.158 220.545 211.789 221.238 211.457 221.697 C 211.119 222.157 210.682 223.101 210.48 223.79 C 210.064 225.235 209.506 226.677 208.949 227.752 C 208.567 228.49 208.573 228.501 209.688 228.687 C 210.819 228.879 213.969 230.301 214.144 230.695 C 214.196 230.815 214.757 231.264 215.387 231.692 C 216.02 232.121 217.32 233.281 218.273 234.272 C 219.507 235.548 220.331 236.154 221.12 236.365 C 221.729 236.53 222.442 236.933 222.702 237.255 C 222.963 237.582 223.645 238.324 224.223 238.904 C 224.797 239.488 225.268 240.106 225.268 240.277 C 225.268 240.788 227.897 244.442 228.2 244.354 C 228.355 244.31 228.615 243.858 228.784 243.353 Z M 210.522 393.635 C 210.576 393.364 210.865 393.147 211.172 393.147 C 211.475 393.147 211.789 393.071 211.865 392.981 C 212.125 392.675 215.283 391.329 215.74 391.329 C 215.988 391.329 216.634 390.953 217.172 390.492 C 217.709 390.033 218.338 389.657 218.57 389.654 C 218.801 389.654 219.139 389.414 219.325 389.12 C 219.549 388.761 219.853 388.636 220.245 388.737 C 220.611 388.832 221.057 388.678 221.442 388.314 C 221.782 387.999 222.403 387.655 222.825 387.551 C 223.247 387.448 223.593 387.263 223.593 387.144 C 223.593 387.025 223.813 386.851 224.08 386.755 C 224.351 386.659 224.726 386.512 224.917 386.418 C 225.119 386.326 225.268 386.444 225.268 386.7 C 225.268 386.949 225.034 387.141 224.729 387.141 C 224.433 387.141 224.111 387.392 224.012 387.703 C 223.915 388.008 223.605 388.259 223.325 388.259 C 223.046 388.259 222.742 388.447 222.657 388.678 C 222.567 388.909 222.3 389.096 222.065 389.096 C 221.832 389.096 221.641 389.222 221.641 389.377 C 221.641 389.53 221.502 389.654 221.333 389.654 C 221.165 389.654 220.67 389.908 220.235 390.218 C 219.796 390.532 219.338 390.759 219.212 390.725 C 218.91 390.647 216.314 391.877 215.717 392.385 C 215.456 392.605 214.843 392.821 214.354 392.86 C 213.868 392.899 213.35 393.14 213.205 393.396 C 213.039 393.691 212.749 393.806 212.425 393.704 C 212.145 393.615 211.832 393.671 211.733 393.833 C 211.419 394.34 210.417 394.176 210.522 393.635 Z M 357.904 394.852 C 357.904 394.789 358.093 394.666 358.324 394.582 C 358.553 394.491 358.742 394.541 358.742 394.691 C 358.742 394.838 358.553 394.961 358.324 394.961 C 358.093 394.961 357.904 394.911 357.904 394.852 Z M 268.015 394.076 C 268.001 393.358 268.172 392.414 268.393 391.983 C 268.614 391.548 268.947 390.775 269.129 390.271 C 269.503 389.241 270.981 387.527 271.258 387.8 C 271.457 387.999 270.893 389.245 270.259 390.01 C 270.031 390.281 269.817 390.786 269.78 391.127 C 269.676 392.147 269.52 392.65 269.194 393.048 C 269.023 393.256 268.693 393.866 268.458 394.403 L 268.036 395.379 L 268.015 394.076 Z M 354.627 397.932 C 353.68 396.983 353.233 396.742 352.4 396.719 C 351.829 396.701 351.315 396.55 351.259 396.382 C 351.203 396.214 350.99 396.077 350.794 396.077 C 350.595 396.077 350.277 395.888 350.085 395.66 C 349.894 395.428 349.439 395.241 349.069 395.241 C 348.703 395.241 348.185 395.122 347.918 394.981 C 346.885 394.429 344.626 393.424 344.362 393.396 C 344.209 393.381 343.87 393.279 343.614 393.167 C 343.356 393.055 342.955 392.935 342.717 392.899 C 342.476 392.864 342.196 392.747 342.09 392.643 C 341.981 392.533 341.68 392.448 341.421 392.448 C 341.16 392.448 340.629 392.2 340.243 391.896 C 339.86 391.594 339.118 391.317 338.601 391.284 C 338.083 391.249 337.378 391.042 337.031 390.826 C 336.668 390.594 336.078 390.494 335.636 390.585 C 334.85 390.745 330.245 389.345 329.422 388.698 C 329.19 388.516 328.658 388.22 328.236 388.042 C 327.761 387.836 327.466 387.497 327.466 387.148 C 327.466 386.544 327.873 386.393 328.177 386.88 C 328.277 387.046 328.693 387.15 329.1 387.121 C 329.509 387.087 330.03 387.13 330.26 387.21 C 332.813 388.112 336.687 389.126 336.952 388.961 C 337.077 388.886 337.33 389.011 337.523 389.239 C 337.712 389.467 338.11 389.654 338.406 389.654 C 338.7 389.654 339.329 389.855 339.801 390.1 C 340.273 390.343 340.925 390.592 341.253 390.654 C 341.578 390.716 342.12 390.822 342.452 390.888 C 342.786 390.956 343.856 391.347 344.827 391.756 C 345.801 392.164 346.972 392.645 347.434 392.824 C 347.895 393.002 348.58 393.364 348.961 393.635 C 349.339 393.902 349.874 394.123 350.147 394.123 C 350.421 394.123 350.645 394.229 350.645 394.358 C 350.645 394.485 351.143 394.756 351.756 394.956 C 352.37 395.162 353.08 395.558 353.337 395.841 C 353.59 396.126 353.943 396.356 354.118 396.356 C 354.293 396.356 354.93 396.606 355.53 396.915 C 356.134 397.223 356.915 397.474 357.265 397.474 C 357.789 397.474 357.904 397.626 357.904 398.312 C 357.904 399.096 357.838 399.149 356.856 399.134 C 356.007 399.119 355.585 398.896 354.627 397.932 Z M 264.887 402.027 C 264.831 401.177 264.954 400.702 265.341 400.267 C 265.55 400.036 265.768 399.312 265.827 398.655 C 265.89 397.997 266.087 397.312 266.265 397.132 C 266.446 396.953 266.594 396.639 266.594 396.441 C 266.594 396.24 266.847 396.077 267.152 396.077 C 267.902 396.077 267.858 396.701 267.03 397.969 C 266.655 398.543 266.265 399.357 266.164 399.779 C 266.058 400.204 265.862 400.62 265.729 400.702 C 265.59 400.787 265.478 401.157 265.478 401.523 C 265.478 402.305 264.937 402.768 264.887 402.027 Z M 271.064 408.414 C 271.064 407.791 271.189 407.203 271.34 407.107 C 271.497 407.011 271.622 406.382 271.622 405.709 C 271.622 404.977 271.773 404.393 271.998 404.258 C 272.36 404.044 274.692 398.222 274.692 397.533 C 274.692 397.348 275.052 396.409 275.49 395.448 C 275.929 394.489 276.437 393.17 276.618 392.517 C 276.8 391.864 277.083 391.329 277.251 391.329 C 277.415 391.329 277.485 391.082 277.407 390.782 C 277.327 390.481 277.439 390.086 277.656 389.908 C 277.874 389.726 278.03 389.439 277.999 389.269 C 277.907 388.681 278.386 386.865 278.633 386.865 C 278.768 386.865 278.881 386.429 278.881 385.901 C 278.881 384.74 279.348 384.351 279.679 385.241 C 279.972 386.043 279.761 387.93 279.289 388.678 C 279.095 388.986 278.848 389.678 278.739 390.215 C 278.631 390.752 278.38 391.568 278.178 392.029 C 277.005 394.706 276.647 395.63 276.647 395.983 C 276.647 396.2 276.162 397.285 275.572 398.393 C 274.97 399.519 274.415 401.012 274.312 401.785 C 274.214 402.543 273.947 403.442 273.723 403.787 C 273.495 404.129 273.245 404.801 273.158 405.283 C 273.073 405.761 272.755 406.62 272.453 407.187 C 272.15 407.75 271.901 408.36 271.901 408.536 C 271.901 408.71 271.71 409.009 271.483 409.202 C 271.12 409.503 271.064 409.392 271.064 408.414 Z M 280.173 409.799 C 279.712 409.287 279.543 408.083 279.935 408.083 C 280.054 408.083 280.285 407.549 280.454 406.897 C 281.363 403.327 281.765 402.038 282.09 401.662 C 282.623 401.043 283.511 398.954 284.052 397.054 C 284.316 396.134 284.704 395.182 284.917 394.937 C 285.131 394.697 285.417 393.886 285.555 393.14 C 285.698 392.392 286.007 391.637 286.245 391.461 C 286.598 391.204 286.627 390.95 286.4 390.128 C 286.245 389.572 286.001 389.04 285.853 388.951 C 285.704 388.859 285.581 388.411 285.581 387.953 C 285.581 387.497 285.27 386.505 284.886 385.746 C 284.501 384.989 284.188 384.227 284.188 384.052 C 284.188 383.876 283.874 383.358 283.488 382.903 C 283.106 382.445 282.789 381.866 282.789 381.607 C 282.785 381.35 282.475 380.508 282.099 379.745 C 281.72 378.976 281.406 378.141 281.404 377.89 C 281.401 377.643 281.205 377.279 280.974 377.089 C 280.744 376.898 280.556 376.442 280.556 376.073 C 280.556 375.706 280.448 375.189 280.316 374.922 C 280.179 374.654 279.801 373.83 279.471 373.089 C 278.834 371.668 278.336 371.511 278.03 372.639 C 277.743 373.695 275.809 377.649 275.578 377.649 C 275.468 377.649 275.206 378.214 275.002 378.91 C 274.797 379.602 274.392 380.634 274.101 381.201 C 273.811 381.768 273.576 382.578 273.576 382.995 C 273.576 384.205 273.023 384.246 272.975 383.039 C 272.925 381.815 272.931 381.709 273.191 380.584 C 273.3 380.125 273.681 379.519 274.039 379.239 C 274.398 378.955 274.692 378.561 274.692 378.361 C 274.692 378.161 274.866 377.854 275.078 377.675 C 275.288 377.501 275.613 376.761 275.798 376.038 C 275.981 375.312 276.281 374.16 276.459 373.484 C 276.641 372.803 277.13 371.908 277.548 371.486 C 278.247 370.786 278.283 370.641 277.996 369.787 C 277.825 369.272 277.591 368.728 277.482 368.573 C 277.37 368.419 277.13 367.835 276.948 367.269 C 276.37 365.48 275.632 365.651 274.97 367.735 C 274.771 368.349 274.316 369.206 273.953 369.641 C 273.594 370.077 273.297 370.717 273.297 371.066 C 273.297 371.417 272.98 372.293 272.598 373.012 C 272.214 373.735 271.899 374.595 271.899 374.922 C 271.899 375.249 271.644 375.79 271.334 376.118 C 271.001 376.471 270.659 377.398 270.503 378.352 C 270.358 379.249 270.142 380.054 270.023 380.14 C 269.581 380.468 268.271 383.196 268.271 383.79 C 268.271 384.413 268.007 385.093 266.599 388.12 C 266.17 389.04 265.649 390.202 265.44 390.703 C 265.233 391.201 264.98 391.611 264.877 391.611 C 264.775 391.611 264.29 392.833 263.798 394.331 C 263.312 395.829 262.628 397.43 262.288 397.893 C 261.948 398.355 261.51 399.465 261.315 400.363 C 261.117 401.259 260.725 402.227 260.441 402.509 C 260.122 402.831 259.895 403.525 259.838 404.347 C 259.749 405.754 259.228 406.275 258.911 405.276 C 258.679 404.545 259.169 402.603 260.091 400.584 C 260.468 399.763 260.946 398.569 261.151 397.932 C 261.922 395.567 262.459 394.25 262.826 393.842 C 263.029 393.612 263.288 393.08 263.393 392.656 C 263.499 392.234 263.672 391.89 263.779 391.89 C 263.887 391.89 264.136 391.273 264.325 390.518 C 264.521 389.767 264.91 388.938 265.194 388.685 C 265.847 388.092 266.799 385.542 266.635 384.819 C 266.606 384.694 266.83 384.248 267.129 383.826 C 267.431 383.404 267.759 382.688 267.864 382.237 C 267.971 381.788 268.28 380.915 268.558 380.3 C 269.666 377.824 269.946 377.132 269.946 376.87 C 269.946 376.722 270.134 376.442 270.365 376.251 C 270.596 376.06 270.785 375.647 270.785 375.332 C 270.785 374.682 271.207 373.236 271.823 371.786 C 272.051 371.247 272.212 370.76 272.185 370.697 C 272.156 370.637 272.241 370.511 272.38 370.421 C 272.697 370.2 273.574 367.864 273.574 367.238 C 273.574 366.973 273.475 366.759 273.353 366.759 C 272.944 366.759 272.499 367.38 272.641 367.748 C 272.72 367.947 272.518 368.251 272.203 368.422 C 271.881 368.592 271.622 368.9 271.622 369.105 C 271.622 369.767 270.428 372.462 269.814 373.18 C 269.488 373.564 269.053 374.381 268.848 374.993 C 268.644 375.611 268.257 376.426 267.991 376.812 C 267.727 377.194 267.334 377.996 267.123 378.588 C 266.908 379.186 266.586 379.731 266.404 379.8 C 266.219 379.872 265.988 380.305 265.886 380.763 C 265.788 381.221 265.527 381.664 265.313 381.746 C 265.094 381.828 264.919 382.264 264.919 382.711 C 264.919 383.16 264.741 383.599 264.524 383.682 C 264.31 383.763 264.055 384.104 263.966 384.44 C 263.769 385.16 262.418 386.692 261.753 386.947 C 260.971 387.246 261.22 386.25 262.149 385.334 C 262.674 384.822 262.948 384.311 262.865 384.001 C 262.792 383.728 262.899 383.339 263.1 383.138 C 263.301 382.936 263.729 382.194 264.053 381.484 C 264.376 380.776 264.748 380.125 264.884 380.044 C 265.02 379.961 265.415 379.166 265.768 378.282 C 266.116 377.396 266.681 376.357 267.025 375.975 C 267.368 375.588 267.743 374.962 267.858 374.575 C 267.973 374.193 268.363 373.524 268.727 373.089 C 269.088 372.656 269.386 372.066 269.386 371.782 C 269.386 371.499 269.587 371.066 269.828 370.825 C 270.226 370.423 271.124 368.441 272.039 365.922 C 272.234 365.384 272.682 364.793 273.034 364.616 C 273.814 364.209 274.247 363.51 273.858 363.27 C 273.667 363.151 273.667 362.924 273.854 362.571 C 274.2 361.924 274.221 360.896 273.888 360.896 C 273.751 360.896 272.78 361.331 271.724 361.865 C 270.668 362.399 269.646 362.842 269.451 362.844 C 269.26 362.848 268.852 362.973 268.545 363.128 C 268.242 363.281 267.739 363.534 267.437 363.685 C 267.129 363.842 266.638 363.965 266.341 363.965 C 266.044 363.965 265.761 364.069 265.712 364.19 C 265.592 364.477 260.422 367.036 259.959 367.036 C 259.769 367.036 259.613 367.165 259.613 367.323 C 259.613 367.682 258.245 368.263 257.589 368.181 C 257.321 368.148 257.1 368.255 257.1 368.414 C 257.1 368.579 256.856 368.712 256.559 368.712 C 256.26 368.712 255.94 368.841 255.84 368.994 C 255.745 369.15 255.266 369.467 254.778 369.691 C 253.051 370.496 249.558 372.646 248.772 373.388 C 248.572 373.58 248.071 373.82 247.658 373.92 C 247.246 374.019 246.452 374.459 245.891 374.896 C 245.333 375.334 244.753 375.693 244.604 375.693 C 244.457 375.693 243.859 376.069 243.279 376.53 C 242.697 376.994 241.992 377.369 241.705 377.369 C 241.418 377.369 241.184 377.498 241.184 377.653 C 241.184 377.811 240.838 378.091 240.416 378.277 C 239.994 378.463 238.895 379.123 237.973 379.745 C 235.857 381.174 233.675 382.396 233.239 382.396 C 233.055 382.396 232.603 382.715 232.237 383.108 C 231.867 383.5 231.06 384.066 230.443 384.374 C 229.822 384.677 228.751 385.225 228.063 385.587 C 226.663 386.324 225.97 386.109 226.798 385.195 C 227.078 384.881 227.429 384.629 227.573 384.629 C 227.722 384.629 228.401 384.248 229.086 383.787 C 229.773 383.326 230.439 383.008 230.564 383.088 C 230.69 383.167 230.867 383.042 230.954 382.811 C 231.043 382.583 231.296 382.396 231.519 382.396 C 231.739 382.396 232.237 382.019 232.626 381.558 C 233.012 381.096 233.568 380.721 233.862 380.721 C 234.156 380.721 234.687 380.468 235.04 380.163 C 235.396 379.853 235.825 379.602 235.997 379.602 C 236.407 379.602 238.457 378.519 238.816 378.11 C 239.179 377.702 239.908 377.253 241.322 376.565 C 241.939 376.269 243.133 375.512 243.978 374.885 C 244.822 374.262 245.982 373.546 246.56 373.297 C 247.138 373.045 247.605 372.666 247.605 372.45 C 247.605 372.237 247.763 372.052 247.955 372.042 C 248.746 371.993 249.25 371.819 249.987 371.336 C 250.412 371.056 250.963 370.799 251.21 370.763 C 251.454 370.726 251.827 370.441 252.038 370.123 C 252.249 369.81 252.624 369.539 252.875 369.529 C 253.125 369.519 253.707 369.268 254.169 368.974 C 254.631 368.678 255.319 368.282 255.706 368.092 C 256.087 367.904 256.468 367.682 256.543 367.6 C 256.84 367.294 257.948 366.759 258.291 366.759 C 258.489 366.759 258.868 366.505 259.129 366.199 C 259.393 365.891 259.801 365.642 260.032 365.642 C 260.518 365.642 261.441 365.15 262.19 364.496 C 262.469 364.254 263.4 363.883 264.254 363.679 C 265.111 363.472 266.082 363.105 266.415 362.856 C 267.291 362.205 269.867 360.872 270.134 360.932 C 270.688 361.054 273.677 359.6 274.31 358.9 C 274.567 358.613 274.916 358.378 275.085 358.378 C 275.253 358.376 275.676 357.937 276.021 357.399 C 276.368 356.866 276.815 356.427 277.013 356.427 C 277.509 356.427 278.043 357.004 278.043 357.545 C 278.043 357.792 278.64 358.425 279.368 358.951 C 280.744 359.939 281.053 360.104 283.627 361.176 C 284.473 361.525 285.698 362.047 286.347 362.33 C 286.997 362.616 287.656 362.848 287.815 362.848 C 287.97 362.848 288.096 362.973 288.096 363.128 C 288.096 363.283 288.333 363.409 288.623 363.409 C 288.917 363.409 289.217 363.573 289.296 363.779 C 289.371 363.983 290.298 364.374 291.351 364.652 C 292.403 364.928 293.381 365.265 293.527 365.4 C 293.671 365.532 294.13 365.642 294.543 365.642 C 294.955 365.642 295.651 365.829 296.092 366.057 C 296.533 366.287 297.079 366.479 297.31 366.486 C 297.541 366.493 297.973 366.68 298.272 366.908 C 298.569 367.132 299.097 367.318 299.44 367.318 C 299.787 367.318 300.146 367.438 300.239 367.588 C 300.33 367.739 300.934 367.996 301.581 368.157 C 302.227 368.323 303.26 368.696 303.873 368.982 C 304.487 369.272 305.68 369.724 306.525 369.985 C 307.369 370.248 308.375 370.618 308.758 370.805 C 309.143 370.996 310.337 371.578 311.411 372.095 C 314.875 373.764 314.93 373.827 314.859 376.102 C 314.797 378.036 314.816 378.098 316.145 380.021 C 316.889 381.096 317.76 382.244 318.084 382.57 C 318.406 382.896 318.934 383.461 319.258 383.826 C 319.878 384.528 323.648 387.949 324.819 388.869 C 325.217 389.182 325.512 389.704 325.512 390.094 C 325.512 391.172 324.492 390.94 322.972 389.516 C 322.233 388.824 321.497 388.259 321.337 388.259 C 321.176 388.259 321.047 388.15 321.047 388.022 C 321.047 387.771 318.622 385.189 318.387 385.189 C 318.077 385.189 315.904 382.717 315.129 381.488 C 314.608 380.658 314.097 380.163 313.76 380.163 C 313.467 380.163 313.217 380.066 313.203 379.952 C 313.19 379.835 313.128 379.426 313.065 379.045 C 313.002 378.662 312.897 377.494 312.834 376.452 C 312.771 375.406 312.575 374.384 312.405 374.176 C 312.069 373.774 309.618 372.646 308.682 372.468 C 308.368 372.405 307.841 372.102 307.511 371.793 C 307.178 371.482 306.583 371.225 306.185 371.225 C 305.789 371.225 304.793 370.875 303.971 370.446 C 303.146 370.018 302.079 369.641 301.59 369.606 C 301.105 369.572 299.932 369.16 298.978 368.689 C 298.027 368.217 296.983 367.795 296.653 367.748 C 296.324 367.706 295.866 367.603 295.634 367.52 C 295.403 367.442 294.335 367.098 293.259 366.765 C 292.188 366.43 290.995 365.932 290.608 365.662 C 289.886 365.153 288.765 364.81 287.501 364.707 C 287.096 364.675 286.594 364.51 286.384 364.342 C 285.605 363.719 280.404 361.32 280.021 361.41 C 279.805 361.459 279.215 361.048 278.709 360.499 C 277.697 359.392 277.532 359.335 276.829 359.853 C 276.37 360.186 276.37 360.268 276.815 361.318 C 277.074 361.931 277.318 363.07 277.356 363.85 C 277.394 364.632 277.611 365.638 277.838 366.086 C 278.069 366.532 278.346 367.32 278.458 367.835 C 278.568 368.352 278.959 369.215 279.329 369.76 C 279.695 370.302 279.997 370.962 279.997 371.228 C 279.997 371.492 280.233 372.009 280.517 372.376 C 280.803 372.742 281.134 373.356 281.253 373.739 C 281.37 374.124 281.815 375.126 282.244 375.975 C 282.673 376.818 283.237 378.2 283.502 379.045 C 283.987 380.601 284.529 381.94 285.467 383.895 C 285.755 384.493 285.951 385.334 285.905 385.769 C 285.856 386.231 286.11 387.056 286.516 387.759 C 286.908 388.434 287.267 389.575 287.337 390.373 C 287.41 391.152 287.607 392.055 287.778 392.379 C 288.305 393.362 288.18 393.875 287.469 393.698 C 286.928 393.562 286.788 393.701 286.488 394.663 C 286.297 395.284 286.139 395.963 286.139 396.178 C 286.139 396.391 285.951 396.724 285.72 396.915 C 285.492 397.108 285.302 397.544 285.302 397.883 C 285.302 398.225 285.051 398.796 284.744 399.149 C 284.439 399.502 284.188 400 284.188 400.255 C 284.188 400.504 284.081 400.831 283.955 400.976 C 283.827 401.125 283.565 401.806 283.369 402.499 C 283.174 403.19 282.742 404.376 282.412 405.131 C 281.738 406.682 281.75 406.626 281.706 408.423 C 281.667 410.002 280.945 410.652 280.173 409.799 Z" id="path4496"/>
  <path d="M 41.302 0 L 41.302 2.836 L 41.302 5.675 C 42.12 38.589 41.074 71.612 41 104.586 C 41.018 112.203 41.066 119.818 41.147 127.434 C 41.417 144.335 42.112 161.211 43.621 178.046 C 44.134 181.562 44.696 185.067 45.31 188.558 C 66.223 300.617 124.845 372.32 184.687 444.104 C 202.344 464.28 242.029 500.859 253.642 507 C 265.254 500.861 304.941 464.281 322.598 444.104 C 382.449 372.311 441.075 300.6 461.981 188.517 C 462.595 185.031 463.154 181.531 463.666 178.018 C 465.178 161.147 465.874 144.233 466.142 127.296 C 466.219 119.912 466.264 112.529 466.282 105.144 C 466.218 71.985 465.162 38.776 465.984 5.675 L 465.984 2.836 L 465.984 0 Z" style="stroke-width: 10px; stroke: rgb(0, 0, 0); fill: none;"/>
</svg>