<?xml version="1.0" encoding="utf-8"?>
<svg version="1.0" width="1024px" height="512px" id="svg7107" xmlns="http://www.w3.org/2000/svg" xmlns:bx="https://boxy-svg.com">
  <defs id="defs3">
    <polygon points="0,-1 0.58778525,0.80901699 -0.95105652,-0.30901699 0.95105652,-0.30901699 -0.58778525,0.80901699 0,-1 " transform="scale(53,53)" id="polygon9535"/>
    <polygon points="0,-1 0.58778525,0.80901699 -0.95105652,-0.30901699 0.95105652,-0.30901699 -0.58778525,0.80901699 0,-1 " transform="scale(53,53)" id="star"/>
    <polygon points="0,-1 0.58778525,0.80901699 -0.95105652,-0.30901699 0.95105652,-0.30901699 -0.58778525,0.80901699 0,-1 " transform="scale(53,53)" id="polygon2895"/>
    <polygon points="0,-1 0.58778525,0.80901699 -0.95105652,-0.30901699 0.95105652,-0.30901699 -0.58778525,0.80901699 0,-1 " transform="scale(53,53)" id="polygon2869"/>
    <polygon points="0,-1 0.58778525,0.80901699 -0.95105652,-0.30901699 0.95105652,-0.30901699 -0.58778525,0.80901699 0,-1 " transform="scale(53,53)" id="polygon5833"/>
    <polygon points="0,-1 0.58778525,0.80901699 -0.95105652,-0.30901699 0.95105652,-0.30901699 -0.58778525,0.80901699 0,-1 " transform="scale(53,53)" id="polygon5665"/>
    <polygon points="0,-1 0.58778525,0.80901699 -0.95105652,-0.30901699 0.95105652,-0.30901699 -0.58778525,0.80901699 0,-1 " transform="scale(53,53)" id="polygon3554"/>
    <polygon points="0,-1 0.58778525,0.80901699 -0.95105652,-0.30901699 0.95105652,-0.30901699 -0.58778525,0.80901699 0,-1 " transform="scale(53,53)" id="polygon3528"/>
    <polygon points="0,-1 0.58778525,0.80901699 -0.95105652,-0.30901699 0.95105652,-0.30901699 -0.58778525,0.80901699 0,-1 " transform="scale(53,53)" id="polygon4014"/>
    <polygon points="0,-1 0.58778525,0.80901699 -0.95105652,-0.30901699 0.95105652,-0.30901699 -0.58778525,0.80901699 0,-1 " transform="scale(53,53)" id="polygon4673"/>
    <polygon points="0,-1 0.58778525,0.80901699 -0.95105652,-0.30901699 0.95105652,-0.30901699 -0.58778525,0.80901699 0,-1 " transform="scale(53,53)" id="polygon4633"/>
    <polygon points="0,-1 0.58778525,0.80901699 -0.95105652,-0.30901699 0.95105652,-0.30901699 -0.58778525,0.80901699 0,-1 " transform="scale(53,53)" id="polygon4493"/>
    <polygon points="0,-1 0.58778525,0.80901699 -0.95105652,-0.30901699 0.95105652,-0.30901699 -0.58778525,0.80901699 0,-1 " transform="scale(53,53)" id="polygon4467"/>
    <polygon points="0,-1 0.58778525,0.80901699 -0.95105652,-0.30901699 0.95105652,-0.30901699 -0.58778525,0.80901699 0,-1 " transform="scale(53,53)" id="polygon8459"/>
    <polygon points="0,-1 0.58778525,0.80901699 -0.95105652,-0.30901699 0.95105652,-0.30901699 -0.58778525,0.80901699 0,-1 " transform="scale(53,53)" id="polygon8433"/>
    <polygon points="0,-1 0.58778525,0.80901699 -0.95105652,-0.30901699 0.95105652,-0.30901699 -0.58778525,0.80901699 0,-1 " transform="scale(53,53)" id="polygon8293"/>
    <polygon points="0,-1 0.58778525,0.80901699 -0.95105652,-0.30901699 0.95105652,-0.30901699 -0.58778525,0.80901699 0,-1 " transform="scale(53,53)" id="polygon8253"/>
    <polygon points="0,-1 0.58778525,0.80901699 -0.95105652,-0.30901699 0.95105652,-0.30901699 -0.58778525,0.80901699 0,-1 " transform="scale(53,53)" id="polygon8195"/>
    <polygon points="0,-1 0.58778525,0.80901699 -0.95105652,-0.30901699 0.95105652,-0.30901699 -0.58778525,0.80901699 0,-1 " transform="scale(53,53)" id="polygon8155"/>
    <polygon points="0,-1 0.58778525,0.80901699 -0.95105652,-0.30901699 0.95105652,-0.30901699 -0.58778525,0.80901699 0,-1 " transform="scale(53,53)" id="polygon8129"/>
    <polygon points="0,-1 0.58778525,0.80901699 -0.95105652,-0.30901699 0.95105652,-0.30901699 -0.58778525,0.80901699 0,-1 " transform="scale(53,53)" id="polygon7989"/>
    <polygon points="0,-1 0.58778525,0.80901699 -0.95105652,-0.30901699 0.95105652,-0.30901699 -0.58778525,0.80901699 0,-1 " transform="scale(53,53)" id="polygon7949"/>
    <polygon points="0,-1 0.58778525,0.80901699 -0.95105652,-0.30901699 0.95105652,-0.30901699 -0.58778525,0.80901699 0,-1 " transform="scale(53,53)" id="polygon7891"/>
    <polygon points="0,-1 0.58778525,0.80901699 -0.95105652,-0.30901699 0.95105652,-0.30901699 -0.58778525,0.80901699 0,-1 " transform="scale(53,53)" id="polygon7865"/>
    <polygon points="0,-1 0.58778525,0.80901699 -0.95105652,-0.30901699 0.95105652,-0.30901699 -0.58778525,0.80901699 0,-1 " transform="scale(53,53)" id="polygon7753"/>
    <polygon points="0,-1 0.58778525,0.80901699 -0.95105652,-0.30901699 0.95105652,-0.30901699 -0.58778525,0.80901699 0,-1 " transform="scale(53,53)" id="polygon7727"/>
    <polygon points="0,-1 0.58778525,0.80901699 -0.95105652,-0.30901699 0.95105652,-0.30901699 -0.58778525,0.80901699 0,-1 " transform="scale(53,53)" id="polygon59702"/>
    <polygon points="0,-1 0.58778525,0.80901699 -0.95105652,-0.30901699 0.95105652,-0.30901699 -0.58778525,0.80901699 0,-1 " transform="scale(53,53)" id="polygon6387"/>
    <polygon points="0,-1 0.58778525,0.80901699 -0.95105652,-0.30901699 0.95105652,-0.30901699 -0.58778525,0.80901699 0,-1 " transform="scale(53,53)" id="polygon6445"/>
    <polygon points="0,-1 0.58778525,0.80901699 -0.95105652,-0.30901699 0.95105652,-0.30901699 -0.58778525,0.80901699 0,-1 " transform="scale(53,53)" id="polygon7627"/>
    <polygon points="0,-1 0.58778525,0.80901699 -0.95105652,-0.30901699 0.95105652,-0.30901699 -0.58778525,0.80901699 0,-1 " transform="scale(53,53)" id="polygon23593"/>
    <polygon points="0,-1 0.58778525,0.80901699 -0.95105652,-0.30901699 0.95105652,-0.30901699 -0.58778525,0.80901699 0,-1 " transform="scale(53,53)" id="polygon23535"/>
    <polygon points="0,-1 0.58778525,0.80901699 -0.95105652,-0.30901699 0.95105652,-0.30901699 -0.58778525,0.80901699 0,-1 " transform="scale(53,53)" id="polygon23513"/>
    <polygon points="0,-1 0.58778525,0.80901699 -0.95105652,-0.30901699 0.95105652,-0.30901699 -0.58778525,0.80901699 0,-1 " transform="scale(53,53)" id="polygon26392"/>
    <polygon points="0,-1 0.58778525,0.80901699 -0.95105652,-0.30901699 0.95105652,-0.30901699 -0.58778525,0.80901699 0,-1 " transform="scale(53,53)" id="polygon10133"/>
    <polygon points="0,-1 0.58778525,0.80901699 -0.95105652,-0.30901699 0.95105652,-0.30901699 -0.58778525,0.80901699 0,-1 " transform="scale(53,53)" id="polygon11842"/>
    <polygon points="0,-1 0.58778525,0.80901699 -0.95105652,-0.30901699 0.95105652,-0.30901699 -0.58778525,0.80901699 0,-1 " transform="scale(53,53)" id="polygon11640"/>
    <polygon points="0,-1 0.58778525,0.80901699 -0.95105652,-0.30901699 0.95105652,-0.30901699 -0.58778525,0.80901699 0,-1 " transform="scale(53,53)" id="polygon53522"/>
    <polygon points="0,-1 0.58778525,0.80901699 -0.95105652,-0.30901699 0.95105652,-0.30901699 -0.58778525,0.80901699 0,-1 " transform="scale(53,53)" id="polygon13405"/>
    <polygon points="0,-1 0.58778525,0.80901699 -0.95105652,-0.30901699 0.95105652,-0.30901699 -0.58778525,0.80901699 0,-1 " transform="scale(53,53)" id="polygon17969"/>
    <polygon points="0,-1 0.58778525,0.80901699 -0.95105652,-0.30901699 0.95105652,-0.30901699 -0.58778525,0.80901699 0,-1 " transform="scale(53,53)" id="polygon68220"/>
    <polygon points="0,-1 0.58778525,0.80901699 -0.95105652,-0.30901699 0.95105652,-0.30901699 -0.58778525,0.80901699 0,-1 " transform="scale(53,53)" id="polygon68195"/>
    <polygon id="polygon5678" transform="scale(53,53)" points="0,-1 0.58778525,0.80901699 -0.95105652,-0.30901699 0.95105652,-0.30901699 -0.58778525,0.80901699 0,-1 "/>
    <polygon id="polygon5652" transform="scale(53,53)" points="0,-1 0.58778525,0.80901699 -0.95105652,-0.30901699 0.95105652,-0.30901699 -0.58778525,0.80901699 0,-1 "/>
    <polygon id="polygon5511" transform="scale(53,53)" points="0,-1 0.58778525,0.80901699 -0.95105652,-0.30901699 0.95105652,-0.30901699 -0.58778525,0.80901699 0,-1 "/>
    <polygon id="polygon5471" transform="scale(53,53)" points="0,-1 0.58778525,0.80901699 -0.95105652,-0.30901699 0.95105652,-0.30901699 -0.58778525,0.80901699 0,-1 "/>
    <polygon id="polygon5413" transform="scale(53,53)" points="0,-1 0.58778525,0.80901699 -0.95105652,-0.30901699 0.95105652,-0.30901699 -0.58778525,0.80901699 0,-1 "/>
    <polygon id="polygon5372" transform="scale(53,53)" points="0,-1 0.58778525,0.80901699 -0.95105652,-0.30901699 0.95105652,-0.30901699 -0.58778525,0.80901699 0,-1 "/>
    <polygon id="polygon5346" transform="scale(53,53)" points="0,-1 0.58778525,0.80901699 -0.95105652,-0.30901699 0.95105652,-0.30901699 -0.58778525,0.80901699 0,-1 "/>
    <polygon id="polygon5206" transform="scale(53,53)" points="0,-1 0.58778525,0.80901699 -0.95105652,-0.30901699 0.95105652,-0.30901699 -0.58778525,0.80901699 0,-1 "/>
    <polygon id="polygon5165" transform="scale(53,53)" points="0,-1 0.58778525,0.80901699 -0.95105652,-0.30901699 0.95105652,-0.30901699 -0.58778525,0.80901699 0,-1 "/>
    <polygon id="polygon5107" transform="scale(53,53)" points="0,-1 0.58778525,0.80901699 -0.95105652,-0.30901699 0.95105652,-0.30901699 -0.58778525,0.80901699 0,-1 "/>
    <polygon id="polygon5081" transform="scale(53,53)" points="0,-1 0.58778525,0.80901699 -0.95105652,-0.30901699 0.95105652,-0.30901699 -0.58778525,0.80901699 0,-1 "/>
    <polygon id="polygon4970" transform="scale(53,53)" points="0,-1 0.58778525,0.80901699 -0.95105652,-0.30901699 0.95105652,-0.30901699 -0.58778525,0.80901699 0,-1 "/>
    <polygon id="polygon4944" transform="scale(53,53)" points="0,-1 0.58778525,0.80901699 -0.95105652,-0.30901699 0.95105652,-0.30901699 -0.58778525,0.80901699 0,-1 "/>
    <polygon id="polygon6050" transform="scale(53,53)" points="0,-1 0.58778525,0.80901699 -0.95105652,-0.30901699 0.95105652,-0.30901699 -0.58778525,0.80901699 0,-1 "/>
    <polygon id="polygon6024" transform="scale(53,53)" points="0,-1 0.58778525,0.80901699 -0.95105652,-0.30901699 0.95105652,-0.30901699 -0.58778525,0.80901699 0,-1 "/>
    <polygon id="polygon5884" transform="scale(53,53)" points="0,-1 0.58778525,0.80901699 -0.95105652,-0.30901699 0.95105652,-0.30901699 -0.58778525,0.80901699 0,-1 "/>
    <polygon id="polygon5844" transform="scale(53,53)" points="0,-1 0.58778525,0.80901699 -0.95105652,-0.30901699 0.95105652,-0.30901699 -0.58778525,0.80901699 0,-1 "/>
    <polygon id="polygon5785" transform="scale(53,53)" points="0,-1 0.58778525,0.80901699 -0.95105652,-0.30901699 0.95105652,-0.30901699 -0.58778525,0.80901699 0,-1 "/>
    <polygon id="polygon5745" transform="scale(53,53)" points="0,-1 0.58778525,0.80901699 -0.95105652,-0.30901699 0.95105652,-0.30901699 -0.58778525,0.80901699 0,-1 "/>
    <polygon id="polygon5719" transform="scale(53,53)" points="0,-1 0.58778525,0.80901699 -0.95105652,-0.30901699 0.95105652,-0.30901699 -0.58778525,0.80901699 0,-1 "/>
    <polygon id="polygon5576" transform="scale(53,53)" points="0,-1 0.58778525,0.80901699 -0.95105652,-0.30901699 0.95105652,-0.30901699 -0.58778525,0.80901699 0,-1 "/>
    <polygon id="polygon5536" transform="scale(53,53)" points="0,-1 0.58778525,0.80901699 -0.95105652,-0.30901699 0.95105652,-0.30901699 -0.58778525,0.80901699 0,-1 "/>
    <polygon id="polygon5478" transform="scale(53,53)" points="0,-1 0.58778525,0.80901699 -0.95105652,-0.30901699 0.95105652,-0.30901699 -0.58778525,0.80901699 0,-1 "/>
    <polygon id="polygon5452" transform="scale(53,53)" points="0,-1 0.58778525,0.80901699 -0.95105652,-0.30901699 0.95105652,-0.30901699 -0.58778525,0.80901699 0,-1 "/>
    <polygon id="polygon5339" transform="scale(53,53)" points="0,-1 0.58778525,0.80901699 -0.95105652,-0.30901699 0.95105652,-0.30901699 -0.58778525,0.80901699 0,-1 "/>
    <polygon id="polygon5313" transform="scale(53,53)" points="0,-1 0.58778525,0.80901699 -0.95105652,-0.30901699 0.95105652,-0.30901699 -0.58778525,0.80901699 0,-1 "/>
    <symbol id="symbol-0" viewBox="0 0 393.8519 512.0001" bx:pinned="true">
      <title>Lion</title>
      <path d="M 1.106 115.058 C 3.383 115.423 14.27 119.897 27.814 66.841 C 48.524 38.953 74.821 89.328 79.203 105.981 C 82.299 126.967 73.414 154.873 73.414 154.873 C 72.951 168.794 83.269 177.309 94.366 185.433 C 84.773 182.977 75.575 184.623 65.102 173.007 C 65.102 173.007 64.696 182.748 68.415 192.4 C 72.135 202.052 83.557 206.799 83.557 206.799 C 70.495 203.079 59.288 198.678 56.456 191.205 C 56.989 214.429 71.286 232.241 89.687 248.438 C 72.382 241.409 56.619 232.584 46.797 216.841 C 45.951 258.679 81.016 271.804 121.491 296.277 C 151.87 314.644 135.124 339.261 135.124 339.261 C 116.362 348.799 98.643 345.232 83.562 340.362 C 83.562 340.362 73.042 356.496 62.693 344.99 C 50.69 331.645 41.924 325.385 42.816 307.325 C 41.214 310.584 64.531 321.038 80.412 318.178 C 93.197 315.875 86.97 332.816 86.97 332.816 C 114.583 341.514 152.22 333.999 113.94 305.64 C 67.963 274.636 31.323 271.221 38.057 207.101 C 41.882 170.683 74.37 137.648 69.557 115.221 C 71.143 99.845 46.628 49.666 33.612 81.106 C 24.854 121.604 13.904 127.116 0 128.532 L 1.106 115.058 Z" style="fill:#000000;fill-opacity:1;fill-rule:evenodd;stroke:#333333;stroke-width:2.5;stroke-linecap:butt;stroke-linejoin:miter;stroke-miterlimit:4;stroke-dasharray:none;stroke-opacity:1;display:inline" id="path-31" transform="matrix(-1, 0, 0, -1, 139.728531, 407.717682)"/>
      <path d="M 392.786 83.833 C 386.683 82.397 377.375 79.011 373.884 72.173 C 381.878 74.283 388.214 76.062 393.852 76.97 L 392.786 83.833 Z" style="fill:#ff0000;fill-opacity:1;fill-rule:evenodd;stroke:#333333;stroke-width:2.5;stroke-linecap:round;stroke-linejoin:round;stroke-miterlimit:4;stroke-dasharray:none;stroke-opacity:1" id="path-32" transform="matrix(-1, 0, 0, -1, 767.735992, 156.005997)"/>
      <path d="M 390.793 65.914 C 384.603 64.86 380.323 65.545 370.794 59.194 C 379.052 59.955 387.763 59.732 393.03 57.714 L 390.793 65.914 Z" style="fill:#ff0000;fill-opacity:1;fill-rule:evenodd;stroke:#333333;stroke-width:2.5;stroke-linecap:round;stroke-linejoin:round;stroke-miterlimit:4;stroke-dasharray:none;stroke-opacity:1" id="path-33" transform="matrix(-1, 0, 0, -1, 763.824005, 123.628002)"/>
      <path d="M 374.123 53.203 C 368.507 56.054 361.978 55.065 355.639 54.876 C 364.109 52.755 366.349 51.061 370.912 47.858 L 374.123 53.203 Z" style="fill:#ff0000;fill-opacity:1;fill-rule:evenodd;stroke:#333333;stroke-width:2.5;stroke-linecap:round;stroke-linejoin:round;stroke-miterlimit:4;stroke-dasharray:none;stroke-opacity:1" id="path-34" transform="matrix(-1, 0, 0, -1, 729.761993, 103.052883)"/>
      <path d="M 371.996 99.062 C 363.896 96.59 365.055 94.83 362.965 88.79 C 370.705 94.039 375.449 94.093 378.735 97.345 L 371.996 99.062 Z" style="fill:#ff0000;fill-opacity:1;fill-rule:evenodd;stroke:#333333;stroke-width:2.5;stroke-linecap:round;stroke-linejoin:round;stroke-miterlimit:4;stroke-dasharray:none;stroke-opacity:1" id="path-35" transform="matrix(-1, 0, 0, -1, 741.699982, 187.851997)"/>
      <path d="M 290.581 157.001 C 299.909 139.737 309.009 142.141 320.224 132.923 C 334.858 120.895 341.011 106.079 379.591 106.08 L 369.028 48.121 L 338.505 65.367 C 332.325 70.138 315.653 74.854 306.81 91.762 C 299.301 90.784 297.564 84.155 296.866 76.508 C 293.21 85.424 288.014 94.385 292.832 103.06 L 281.56 115.991 C 274.5 107.118 263.774 110.021 254.453 108.413 C 266.439 112.989 275.951 120.487 277.487 128.752 L 272.892 135.713 C 261.207 135.725 265.485 131.68 255.404 130.941 L 247.519 134.637 C 254.755 142.066 261.023 139.411 268.043 142.771 C 256.929 147.439 252.937 140.579 244.022 143.262 C 241.946 146.762 242.051 149.267 244.257 151.807 C 250.418 153.238 257.731 153.991 264.677 153.226 C 254.85 160.258 254.813 156.985 246.783 158.249 C 244.177 162.425 242.814 165.007 248.106 167.272 C 253.404 166.157 264.034 166.528 270.453 161.54 C 269.609 166.383 266.809 167.977 260.465 169.704 C 261.718 175.066 258.846 173.115 265.338 175.855 C 278.398 171.724 288.417 167.069 290.581 157.001 Z" style="fill:#000000;fill-rule:evenodd;stroke:#333333;stroke-width:2.5;stroke-linecap:round;stroke-linejoin:round;stroke-miterlimit:4;stroke-dasharray:none;stroke-opacity:1" id="path-36" transform="matrix(-1, 0, 0, -1, 622.122223, 223.97599)"/>
      <path d="M 354.224 450.606 C 351.439 446.238 345.347 442.431 340.944 440.039 C 349.448 440.371 356.831 444.45 362.165 447.497 L 354.224 450.606 Z" style="fill:#ff0000;fill-opacity:1;fill-rule:evenodd;stroke:#333333;stroke-width:2.5;stroke-linecap:round;stroke-linejoin:round;stroke-miterlimit:4;stroke-dasharray:none;stroke-opacity:1" id="path-37" transform="matrix(-1, 0, 0, -1, 703.109009, 890.644989)"/>
      <path d="M 372.457 443.348 C 366.3 439.563 364.921 433.378 362.958 429.47 C 368.17 433.371 372.432 434.548 377.746 437.774 L 372.457 443.348 Z" style="fill:#ff0000;fill-opacity:1;fill-rule:evenodd;stroke:#333333;stroke-width:2.5;stroke-linecap:round;stroke-linejoin:round;stroke-miterlimit:4;stroke-dasharray:none;stroke-opacity:1" id="path-38" transform="matrix(-1, 0, 0, -1, 740.70401, 872.817993)"/>
      <path d="M 383.317 423.076 C 373.694 422.305 366.85 416.233 361.58 410.671 C 369.516 413.549 376.45 415.587 383.97 416.049 C 389.108 418.516 383.08 422.391 383.317 423.076 Z" style="fill:#ff0000;fill-opacity:1;fill-rule:evenodd;stroke:#333333;stroke-width:2.5;stroke-linecap:round;stroke-linejoin:round;stroke-miterlimit:4;stroke-dasharray:none;stroke-opacity:1" id="path-39" transform="matrix(-1, 0, 0, -1, 747.630005, 833.746979)"/>
      <path d="M 372.116 406.123 C 363.475 409.21 355.092 407.149 346.064 407.007 C 355.644 405.256 363.184 402.105 370.244 398.624 L 372.116 406.123 Z" style="fill:#ff0000;fill-opacity:1;fill-rule:evenodd;stroke:#333333;stroke-width:2.5;stroke-linecap:round;stroke-linejoin:round;stroke-miterlimit:4;stroke-dasharray:none;stroke-opacity:1" id="path-40" transform="matrix(-1, 0, 0, -1, 718.179993, 806.435883)"/>
      <path d="M 354.962 446.032 C 318.537 440.339 266.62 446.87 242.083 419.841 C 226.189 408.983 172.139 392.681 192.428 418.916 C 159.327 401.748 214.45 388.957 249.645 416.409 C 205.91 384.543 255.233 380.077 260.756 349.344 C 251.386 331.789 240.583 338.896 226.148 322.67 C 219.503 319.214 212.234 320.438 200.701 322.165 C 198.794 326.967 194.59 329.14 190.1 329.999 C 185.475 328.468 180.14 325.095 180.814 321.288 C 187.844 320.011 187.74 316.324 193.456 312.783 C 183.26 315.897 183.183 320.951 171.294 317.918 C 166.651 314.511 167.003 309.955 167.78 307.935 C 177.91 307.014 181.354 307.077 189.653 304.593 C 180.224 304.427 179.004 306.555 166.45 298.458 C 167.546 294.318 169.748 292.708 173.606 290.159 C 181.18 291.794 184.137 298.16 193.539 294.833 C 184.748 289.452 184.984 288.037 184.082 286.122 C 185.771 283.984 188.663 282.375 193.253 281.512 C 201.506 282.496 204.762 286.387 207.789 290.412 C 250.921 287.893 237.726 299.668 248.972 302.518 C 263.934 295.69 264.054 303.501 268.875 310.026 C 284.679 300.131 281.568 310.231 284.4 313.392 C 280.579 327.84 295.841 330.186 300.921 342.486 C 307.799 347.952 317.89 352.439 292.149 367.85 C 284.157 382.373 287.417 393.712 302.624 401.671 C 327.795 394.666 347.794 400.468 370.379 399.867 L 354.962 446.032 Z" style="fill:#000000;fill-rule:evenodd;stroke:#333333;stroke-width:2.5;stroke-linecap:round;stroke-linejoin:round;stroke-miterlimit:4;stroke-dasharray:none;stroke-opacity:1" id="path-41" transform="matrix(-1, 0, 0, -1, 536.828995, 727.544006)"/>
      <path d="M 174.222 316.847 C 182.251 308.829 191.114 300.903 188.074 291.672 C 179.672 285.69 175.099 280.06 196.453 276.818 L 204.667 297.863 L 187.909 317.048 C 178.111 319.498 174.478 318.984 174.222 316.847 Z" style="fill:#000000;fill-rule:evenodd;stroke:#333333;stroke-width:2.5;stroke-linecap:round;stroke-linejoin:round;stroke-miterlimit:4;stroke-dasharray:none;stroke-opacity:1" id="path-42" transform="matrix(-1, 0, 0, -1, 378.889008, 595.495972)"/>
      <path d="M 234.019 469.102 C 224.892 469.604 218.761 466.937 211.913 461.796 C 222.433 463.296 226.641 464.74 233.808 464.255 L 234.019 469.102 Z" style="fill:#ff0000;fill-opacity:1;fill-rule:evenodd;stroke:#333333;stroke-width:2.5;stroke-linecap:round;stroke-linejoin:round;stroke-miterlimit:4;stroke-dasharray:none;stroke-opacity:1" id="path-43" transform="matrix(-1, 0, 0, -1, 445.931992, 930.957977)"/>
      <path d="M 234.147 495.328 C 228.096 491.838 221.178 486.14 218.862 479.125 C 225.038 483.725 231.415 486.537 237.16 489.122 L 234.147 495.328 Z" style="fill:#ff0000;fill-opacity:1;fill-rule:evenodd;stroke:#333333;stroke-width:2.5;stroke-linecap:round;stroke-linejoin:round;stroke-miterlimit:4;stroke-dasharray:none;stroke-opacity:1" id="path-44" transform="matrix(-1, 0, 0, -1, 456.022003, 974.453003)"/>
      <path d="M 217.817 512 C 211.913 507.03 207.499 500.63 205.783 493.752 C 212.006 499.414 217.489 502.553 224.323 505.433 L 217.817 512 Z" style="fill:#ff0000;fill-opacity:1;fill-rule:evenodd;stroke:#333333;stroke-width:2.5;stroke-linecap:round;stroke-linejoin:round;stroke-miterlimit:4;stroke-dasharray:none;stroke-opacity:1" id="path-45" transform="matrix(-1, 0, 0, -1, 430.106003, 1005.752014)"/>
      <path d="M 171.165 507.774 C 171.777 503.979 174.625 498.566 177.321 494.848 L 179.548 508.551 L 171.165 507.774 Z" style="fill:#ff0000;fill-opacity:1;fill-rule:evenodd;stroke:#333333;stroke-width:2.5;stroke-linecap:round;stroke-linejoin:round;stroke-miterlimit:4;stroke-dasharray:none;stroke-opacity:1" id="path-46" transform="matrix(-1, 0, 0, -1, 350.712997, 1003.398987)"/>
      <path d="M 112.533 456.949 C 124.57 407.708 161.539 391.223 176.953 361.735 C 194.563 328.046 188.286 324.949 188.286 324.949 C 180.931 305.081 162.533 288.257 167.995 275.601 C 191.841 220.346 136.207 242.337 163.812 209.782 C 148.747 226.489 174.607 231.073 184.804 240.333 C 190.806 231.77 197.45 223.832 210.387 222.027 C 206.582 209.663 197.008 197.084 203.6 185.108 C 195.766 177.442 191.887 165.905 178.25 163.919 C 172.846 167.084 172.352 170.015 162.034 168.985 C 156.468 166.546 158.577 163.417 158.2 161.172 C 171.578 159.133 160.945 160.7 171.798 156.471 C 157.718 154.597 162.413 160.173 149.95 151.684 C 149.148 148.253 153.778 145.275 154.403 142.703 C 167.172 145.351 161.666 148.053 174.53 145.576 C 167.554 142.242 165.873 142.294 160.35 137.186 C 159.05 132.351 166.209 131.063 166.505 128.176 C 179.482 132.099 175.455 137.21 190.307 140.987 C 190.118 138.253 189.875 135.506 192.226 133.373 C 196.161 132.57 199.85 132.214 203.662 134.696 C 204.702 138.226 206.64 141.789 203.297 145.155 C 215.279 154.807 234.62 159.071 231.894 179.492 C 235.474 175.011 239.612 171.125 247.156 170.869 C 242.269 182.499 260.449 185.502 244.99 199.242 C 249.123 204.077 251.839 210.725 260.07 210.311 L 260.392 231.335 C 218.112 265.987 264.299 314.281 229.137 357.117 C 230.378 431.316 224.889 469.941 212.669 501.836 L 112.533 456.949 Z" style="fill:#000000;fill-rule:evenodd;stroke:#333333;stroke-width:2.5;stroke-linecap:round;stroke-linejoin:round;stroke-miterlimit:4;stroke-dasharray:none;stroke-opacity:1" id="path-47" transform="matrix(-1, 0, 0, -1, 372.925003, 630.011993)"/>
      <path d="M 338.649 193.642 C 335.225 198.82 331.063 197.845 327.118 198.684 L 334.676 188.897 L 338.649 193.642 Z" style="fill:#ff0000;fill-opacity:1;fill-rule:evenodd;stroke:#333333;stroke-width:2.5;stroke-linecap:round;stroke-linejoin:round;stroke-miterlimit:4;stroke-dasharray:none;stroke-opacity:1" id="path-48" transform="matrix(-1, 0, 0, -1, 665.766998, 387.581009)"/>
      <path d="M 363.106 204.686 C 357.811 207.391 354.733 211.433 343.653 207.024 C 352.118 204.859 354.499 202.468 357.793 198.797 L 363.106 204.686 Z" style="fill:#ff0000;fill-opacity:1;fill-rule:evenodd;stroke:#333333;stroke-width:2.5;stroke-linecap:round;stroke-linejoin:round;stroke-miterlimit:4;stroke-dasharray:none;stroke-opacity:1" id="path-49" transform="matrix(-1, 0, 0, -1, 706.759003, 407.778229)"/>
      <path d="M 369.895 226.132 C 363.628 226.933 356.651 226.119 352.661 220.893 C 357.234 221.923 361.832 222.263 366.491 220.971 L 369.895 226.132 Z" style="fill:#ff0000;fill-opacity:1;fill-rule:evenodd;stroke:#333333;stroke-width:2.5;stroke-linecap:round;stroke-linejoin:round;stroke-miterlimit:4;stroke-dasharray:none;stroke-opacity:1" id="path-50" transform="matrix(-1, 0, 0, -1, 722.556, 447.29007)"/>
      <path d="M 342.06 250.582 C 337.869 248.36 333.764 246.087 333.262 241.718 C 338.166 244.798 343.647 246.641 349.35 248.009 L 342.06 250.582 Z" style="fill:#ff0000;fill-opacity:1;fill-rule:evenodd;stroke:#333333;stroke-width:2.5;stroke-linecap:round;stroke-linejoin:round;stroke-miterlimit:4;stroke-dasharray:none;stroke-opacity:1" id="path-51" transform="matrix(-1, 0, 0, -1, 682.612, 492.300003)"/>
      <path d="M 214.603 201.53 C 208.875 200.604 208.586 197.759 207.088 195.34 C 208.617 190.639 214.467 186.672 220.286 182.7 C 212.641 184.925 205.048 185.746 197.24 192.346 L 190.609 192.098 C 186.916 189.553 187.184 187.155 187.84 184.772 C 195.982 176.788 202.831 176.666 210.098 174.002 C 201.841 173.91 194.228 170.886 185.184 174.386 C 178.777 170.93 182.419 168.648 182.731 165.977 C 191.257 162.948 200.821 164.78 209.904 164.364 C 208.963 160.66 204.421 157.177 197.571 153.836 C 195.65 149.311 200.653 148.143 205.031 146.672 C 210.887 147.858 215.943 150.096 217.95 156.347 C 227.272 156.609 237.102 156.498 245.009 157.795 C 250.667 154.067 242.005 149.804 238.266 145.724 C 261.244 145.981 260.779 157.468 279.055 164.757 C 275.521 158.044 278.823 152.675 282.47 147.374 C 284.366 158.175 295.121 160.788 304.488 165.268 L 310.891 171.636 C 316.892 168.938 324.094 169.416 331.417 170.213 C 327.667 174.305 331.046 178.663 337.574 183.138 C 347.321 177.338 353.069 178.306 358.149 180.404 C 336.929 187.23 352.148 208.211 351.577 223.059 L 319.655 248.132 L 261.791 197.382 C 256.193 192.932 248.322 188.648 236.708 187.471 C 225.458 189.565 219.436 195.15 214.603 201.53 Z" style="fill:#000000;fill-rule:evenodd;stroke:#333333;stroke-width:2.5;stroke-linecap:round;stroke-linejoin:round;stroke-miterlimit:4;stroke-dasharray:none;stroke-opacity:1" id="path-52" transform="matrix(-1, 0, 0, -1, 539.568161, 393.856003)"/>
      <path d="M 228.542 86.483 C 228.504 90.26 227.407 92.747 228.469 97.863 C 231.708 93.327 236.577 91.875 240.768 89.14" style="fill:#000000;fill-rule:evenodd;stroke:#333333;stroke-width:2.5;stroke-linecap:round;stroke-linejoin:round;stroke-miterlimit:4;stroke-dasharray:none;stroke-opacity:1" id="path-53" transform="matrix(-1, 0, 0, -1, 468.775223, 184.346001)"/>
      <path d="M 284.091 93.109 C 253.103 87.816 233.868 54.554 202.008 75.047 C 223.613 40.981 251.31 79.429 287.503 81.316 L 284.091 93.109 Z" style="fill:#ff0000;fill-opacity:1;fill-rule:evenodd;stroke:#333333;stroke-width:2.5;stroke-linecap:round;stroke-linejoin:round;stroke-miterlimit:4;stroke-dasharray:none;stroke-opacity:1" id="path-54" transform="matrix(-1, 0, 0, -1, 489.510986, 154.127701)"/>
      <path d="M 241.609 71.848 C 242.646 67.291 245.775 64.136 250.535 62.076 C 247.678 67.64 251.95 71.54 254.337 75.88" style="fill:#000000;fill-rule:evenodd;stroke:#333333;stroke-width:2.5;stroke-linecap:round;stroke-linejoin:round;stroke-miterlimit:4;stroke-dasharray:none;stroke-opacity:1" id="path-55" transform="matrix(-1, 0, 0, -1, 495.945999, 137.955997)"/>
      <path d="M 226.237 51.422 L 224.411 37.73 L 234.691 45.662 C 220.834 13.861 241.192 11.14 262.596 9.31 C 254.623 25.758 272.892 39.02 277.721 57.546 C 272.876 39.273 277.442 29.005 305.768 38.951 C 276.556 45.345 306.711 61.853 294.781 82.145 C 300.963 70.77 310.462 77.138 318.911 77.893 C 291.907 85.735 306.046 103.661 306.921 118.337 L 294.263 143.442 C 300.493 127.16 310.61 133.742 319.946 135.728 C 300.817 139.586 313.582 164.942 290.357 176.146 C 298.806 172.788 307.373 168.091 315.12 172.665 C 296.741 174.959 302.427 193.627 285.627 197.91 C 295.103 197.393 300.813 200.701 307.787 202.725 C 299.762 204.057 292.482 201.964 283.525 207.582 L 269.543 220.371 L 235.043 220.787 C 226.483 218.305 218.333 215.001 211.654 208.74 C 205.434 205.303 197.464 202.723 198.025 195.965 C 184.759 193.264 159.702 178.493 179.06 180.132 C 179.96 166.294 183.401 162.511 190.84 162.749 C 207.536 159.996 211.046 172.131 223.279 175.497 C 250.805 168.265 239.946 150.318 231.968 142.882 C 223.296 134.799 207.318 138.475 207.318 138.475 C 202.308 130.844 202.973 126.557 209.313 125.613 C 217.101 119.261 219.353 125.249 223.33 127.393 C 250.649 127.987 246.461 141.731 256.092 149.707 C 248.941 138.191 259.842 123.684 230.543 116.299 C 215.412 112.479 216.916 118.244 202.628 114.031 C 188.339 109.818 184.748 100.313 173.388 99.447 C 163.233 98.673 149.198 97.513 158.593 119.656 C 138.421 98.576 160.299 80.991 187.346 90.451 C 163.042 81.684 147.966 70.379 126.561 82.939 C 156.5 47.442 170.139 72.784 202.421 76.318 C 170.432 70.806 175.013 44.755 140.187 46.016 C 150.227 33.318 160.959 35.999 175.04 40.296 C 169.878 35.093 165.789 23.487 154.612 23.828 C 161.065 14.539 178.075 19.204 192.748 23.252 C 209.441 27.858 217.515 40.223 226.237 51.422 Z" style="fill:#000000;fill-rule:evenodd;stroke:#333333;stroke-width:2.5;stroke-linecap:round;stroke-linejoin:round;stroke-miterlimit:4;stroke-dasharray:none;stroke-opacity:1" id="path-56" transform="matrix(-1, 0, 0, -1, 446.507004, 230.097006)"/>
      <path d="M 180.628 2.096 C 177.411 14.853 189.227 17.645 197.778 22.6 C 197.546 14.12 199.565 3.355 194.287 0" style="fill:#000000;fill-rule:evenodd;stroke:#333333;stroke-width:2.5;stroke-linecap:round;stroke-linejoin:round;stroke-miterlimit:4;stroke-dasharray:none;stroke-opacity:1" id="path-57" transform="matrix(-1, 0, 0, -1, 378.056549, 22.6)"/>
      <path d="M 215.612 30.215 C 220.251 25.359 222.945 29.456 226.064 31.591 C 233.483 41.964 240 35.707 246.707 32.944" style="fill:#000000;fill-rule:evenodd;stroke:#333333;stroke-width:2.5;stroke-linecap:round;stroke-linejoin:round;stroke-miterlimit:4;stroke-dasharray:none;stroke-opacity:1" id="path-58" transform="matrix(-1, 0, 0, -1, 462.319, 65.289179)"/>
      <path d="M 221.388 30.295 C 225.478 28.397 227.875 27.786 231.223 29.299 C 236.694 31.578 238.037 35.069 240.7 35.164 C 240.21 37.415 239.495 39.537 235.71 39.899 C 227.288 37.083 228.007 34.185 221.388 30.295 Z" style="fill:#ffffff;fill-opacity:1;fill-rule:evenodd;stroke:#333333;stroke-width:2.5;stroke-linecap:round;stroke-linejoin:round;stroke-miterlimit:4;stroke-dasharray:none;stroke-opacity:1" id="path-59" transform="matrix(-1, 0, 0, -1, 462.087997, 68.347206)"/>
      <path d="M 187.894 357.961 C 192.824 368.772 187.642 379.206 185.925 389.77" style="fill:#000000;fill-rule:evenodd;stroke:#333333;stroke-width:2.5;stroke-linecap:round;stroke-linejoin:round;stroke-miterlimit:4;stroke-dasharray:none;stroke-opacity:1" id="path-60" transform="matrix(-1, 0, 0, -1, 375.893234, 747.730988)"/>
      <path d="M 352.586 59.87 C 347.057 62.178 344.974 64.746 343.705 67.591 C 343.075 69.002 342.587 70.457 341.846 72.031 C 341.471 72.826 341.053 73.616 340.501 74.495 C 339.942 75.383 338.329 77.458 338.329 77.458 C 338.357 77.417 341.229 79.128 341.261 79.065 C 341.261 79.065 344.063 75.185 344.876 73.459 C 345.701 71.709 346.2 70.22 346.764 68.955 C 347.881 66.451 349.009 64.743 353.812 62.986 Z" style="fill: rgb(51, 51, 51);" transform="matrix(-1, 0, 0, -1, 692.141022, 138.936703)"/>
    </symbol>
  </defs>
  <rect x="256" width="512" height="512" style="fill: none; stroke-width: 3px;"/>
  <g transform="matrix(2.328469, 0, 0, 2.73141, -37.530266, 128.407974)" style="">
    <path d="M 247.562 0.385 C 249.943 0.745 251.003 0.98 251.576 1.403 C 252.027 1.576 252.244 1.743 252.156 1.885 C 252.128 1.931 252.104 1.977 252.085 2.023 C 252.088 2.029 252.091 2.035 252.094 2.041 C 252.298 2.452 252.666 3.021 253.027 3.5 C 253.076 3.56 253.127 3.626 253.179 3.696 C 253.279 3.823 253.378 3.94 253.469 4.041 C 254.372 5.04 256.336 8.946 258.214 13.251 C 259.721 16.583 261.078 19.967 261.667 22.102 C 262.76 25.333 263.958 28.25 264.375 28.666 C 265 29.289 265.929 29.397 269.094 29.291 L 273.062 29.166 L 277.125 41.385 C 279.361 48.107 281.821 56.401 282.594 59.791 C 283.289 62.84 284.244 66.065 284.821 67.435 C 285.189 67.719 285.485 68.399 285.602 69.143 C 285.826 69.715 285.969 70.208 285.969 70.447 C 285.969 70.862 286.65 72.282 287.469 73.572 C 287.695 73.927 288.059 74.576 288.52 75.433 C 289.243 76.693 290.072 78.278 290.812 79.853 C 290.817 79.863 290.821 79.872 290.826 79.882 C 291.642 81.495 292.521 83.262 293.375 85.01 C 296.744 91.908 298.416 94.722 300.25 96.728 C 301.579 98.182 302.878 99.385 303.125 99.385 C 303.372 99.385 303.931 98.708 304.375 97.885 C 304.819 97.061 306.307 95.207 307.687 93.791 C 309.131 92.31 310.306 90.638 310.469 89.822 C 310.545 89.442 310.7 89.098 310.914 88.802 C 311.036 88.605 311.198 88.437 311.389 88.299 C 312.105 87.713 313.124 87.482 314.125 87.791 C 314.308 87.847 314.592 88.006 314.935 88.233 C 315.412 88.459 315.853 88.775 316.205 89.182 C 316.595 89.499 316.997 89.846 317.375 90.197 C 319.794 92.444 320.761 92.646 323.719 91.603 C 324.275 91.407 324.786 91.289 325.257 91.249 C 325.367 91.235 325.475 91.23 325.582 91.234 C 326.617 91.226 327.446 91.629 328.125 92.447 C 329.106 93.63 330.311 93.349 331.844 91.603 C 333.02 90.264 333.675 89.952 335.969 89.666 C 338.231 89.383 339.034 89.009 340.656 87.51 C 341.734 86.514 343.161 84.862 343.812 83.822 C 344.461 82.787 345.217 81.936 346.032 81.298 C 346.951 80.433 347.841 80.016 348.733 80.025 C 349.02 79.973 349.307 79.947 349.594 79.947 C 351.258 79.947 357.75 78.662 361.844 77.541 C 363.882 76.983 364.071 77.029 366.469 78.447 C 367.849 79.264 369.128 79.942 369.312 79.947 C 369.661 79.957 370.448 81.536 371.171 83.456 C 371.355 83.86 371.508 84.274 371.625 84.697 C 371.644 84.766 371.663 84.835 371.682 84.904 C 371.992 85.847 372.261 86.8 372.437 87.635 C 373.356 91.986 374.731 94.38 379.187 99.197 C 379.936 100.006 381.166 101.449 381.906 102.416 C 384.21 105.424 385.633 104.273 388.562 97.01 C 388.612 96.885 388.663 96.766 388.713 96.652 L 388.812 96.353 L 388.852 96.353 C 389.097 95.846 389.325 95.5 389.481 95.399 L 389.5 95.353 L 389.511 95.382 C 389.576 95.351 389.626 95.371 389.656 95.447 C 389.935 96.159 400.313 96.256 403.312 95.572 C 404.356 95.334 405.786 94.994 406.5 94.822 C 408.663 94.301 410.8 95.016 413.25 97.041 C 414.532 98.1 416.265 99.257 417.094 99.603 C 417.922 99.95 420.71 102.004 423.281 104.166 C 430.012 109.825 430.988 110.399 433 110.135 C 434.379 109.953 434.763 110.107 435.125 110.916 C 435.369 111.461 437.793 113.224 440.531 114.853 C 441.923 115.682 443.345 116.612 444.691 117.559 C 445.321 117.982 445.917 118.416 446.482 118.862 C 449.533 121.157 451.843 123.31 451.875 124.072 C 451.893 124.493 452.353 125.378 452.875 126.041 C 453.397 126.704 453.812 127.461 453.812 127.697 C 453.812 127.886 454.147 128.407 454.676 129.102 C 454.893 130.17 455.12 131.238 455.358 132.306 C 455.531 133.083 455.709 133.859 455.892 134.636 L 455.892 140.439 L 16.118 140.439 C 18.793 135.972 21.771 131.398 23.142 130.554 C 23.992 130.483 25.235 126.885 25.964 123.576 L 26.787 122.959 L 30.046 117.716 L 31.542 115.31 L 31.885 114.759 L 31.884 114.759 L 32.529 113.723 L 32.628 113.563 L 32.799 113.288 C 33.67 113.188 34.221 112.862 34.75 112.166 C 35.236 111.527 36.843 109.711 38.344 108.135 C 39.719 106.69 40.803 105.393 41.66 104.132 C 41.699 103.474 42.039 102.945 42.451 102.864 C 43.298 101.374 43.852 99.881 44.219 98.197 C 44.882 95.154 47.229 90.632 49 89.041 C 49.028 89.016 49.055 88.991 49.083 88.967 C 49.319 88.658 49.629 88.384 49.947 88.196 C 55.655 83.138 57.309 82.197 60.027 82.197 C 62.872 82.197 64.488 82.843 64.75 83.666 C 64.903 84.148 65.553 84.783 66.187 85.072 C 66.378 85.159 66.558 85.26 66.729 85.381 C 67.491 85.745 68.088 86.693 68.648 88.529 C 69.002 89.542 69.366 90.839 69.781 92.51 C 71.156 98.045 73.377 104.166 76.062 109.791 C 78.868 115.665 79.865 116.916 81.75 116.916 C 85.36 116.916 91.439 112.261 92.781 108.478 C 92.994 107.879 93.312 107.074 93.657 106.25 C 93.679 105.587 94 104.882 94.4 104.543 C 94.522 104.276 94.639 104.022 94.75 103.791 C 95.398 102.438 96.428 99.76 97.031 97.853 C 97.689 95.774 98.029 94.917 98.524 94.543 C 98.62 94.403 98.707 94.306 98.781 94.26 C 99.544 93.788 100.544 94.136 101.583 95.058 C 103.181 96.052 104.844 97.729 104.844 98.697 C 104.844 99.262 105.219 100.562 105.656 101.572 C 106.094 102.582 106.479 103.624 106.531 103.885 C 106.953 105.996 108.41 110.648 108.812 111.166 C 109.6 112.179 111.53 112.737 112.219 112.166 C 112.671 111.79 112.673 111.213 112.312 109.791 C 111.974 108.459 112.002 107.709 112.375 107.26 C 112.665 106.91 113.306 104.62 113.812 102.166 C 114.917 96.811 115.04 96.47 116.937 93.447 C 117.756 92.143 120.736 85.836 123.562 79.447 C 126.389 73.058 130.765 63.689 133.281 58.603 C 135.798 53.518 139.021 46.495 140.437 43.01 C 141.413 40.61 142.055 39.015 142.68 37.954 L 143.312 36.353 L 144.36 36.275 C 145.338 35.836 146.668 35.853 148.906 35.853 C 149.748 35.853 150.478 35.882 151.116 35.949 C 152.328 35.977 153.059 36.171 153.688 36.691 C 154.55 37.216 155.109 38.032 155.594 39.26 C 155.622 39.331 155.652 39.403 155.685 39.478 C 155.799 39.691 155.913 39.922 156.026 40.169 C 156.377 40.815 156.811 41.467 157.156 41.853 C 157.704 42.467 157.988 43.302 157.844 43.853 C 157.492 45.197 159.244 52.336 160.375 54.166 C 161.579 56.113 162.473 56.398 166.406 56.041 C 166.546 56.028 166.681 56.016 166.81 56.005 C 167.25 55.925 167.67 55.887 168.062 55.885 C 168.293 55.884 168.515 55.896 168.726 55.921 C 169.776 55.967 170.337 56.277 171.469 57.072 C 173.008 58.154 173.398 58.783 173.687 60.478 C 174.356 64.392 176.987 67.134 181.594 68.76 C 184.638 69.834 184.969 69.498 184.969 65.291 C 184.969 61.76 185.026 61.584 186.844 59.385 C 189.771 55.842 190.432 54.556 193.031 47.041 C 195.522 39.84 200.083 28.61 202.375 24.041 C 203.604 21.589 205.017 19.766 206.228 18.954 C 206.566 18.678 206.873 18.526 207.187 18.478 C 207.391 18.447 207.597 18.462 207.817 18.515 C 207.93 18.541 208.046 18.577 208.167 18.624 C 208.96 18.797 210.544 18.995 212 19.103 C 214.776 19.31 215.369 19.193 217.906 17.853 C 220.275 16.602 221.014 15.876 222.562 13.291 C 224.009 10.876 225.458 9.35 229.344 6.26 C 232.064 4.096 235.225 1.881 236.344 1.322 C 237.602 0.694 239.04 0.297 240.703 0.119 C 241.303 0.022 241.866 -0.017 242.375 0.01 L 242.432 0.013 C 242.486 0.012 242.54 0.011 242.594 0.01 C 244.088 -0.009 245.749 0.11 247.562 0.385 Z" id="path2523" style="display: inline; fill: rgb(255, 252, 247);"/>
    <path d="M 246.25 0.385 C 249.771 0.762 252.428 1.445 252.156 1.885 C 251.885 2.324 252.042 2.825 252.5 3.01 C 253.94 3.59 260.556 17.52 261.781 22.541 C 263.383 29.105 264.296 29.987 268.969 29.635 L 272.937 29.353 L 275.844 37.853 C 279.976 49.876 281.346 54.527 282.656 61.072 C 283.287 64.225 284.237 67.068 284.75 67.385 C 285.263 67.702 285.656 68.794 285.656 69.822 C 285.656 70.85 286.231 72.314 286.937 73.041 C 287.644 73.768 289.39 76.828 290.812 79.853 C 292.235 82.878 294.369 87.378 295.531 89.853 C 298.163 95.46 302.23 100.247 303.625 99.385 C 304.205 99.026 304.656 98.281 304.656 97.728 C 304.656 97.175 306.006 95.586 307.656 94.197 C 309.306 92.809 310.656 90.811 310.656 89.76 C 310.656 87.151 315.226 87.178 316.625 89.791 C 317.994 92.348 321.094 93.227 323.719 91.822 C 325.427 90.908 326.207 91.02 327.75 92.416 C 329.575 94.068 329.751 94.062 331.531 92.01 C 332.645 90.726 334.577 89.853 336.312 89.853 C 339.263 89.853 340.366 88.947 344.531 83.072 C 346.096 80.864 347.541 79.887 349 80.041 C 351.548 80.31 358.225 79.115 361.406 77.822 C 364.878 76.411 370.347 80.097 371.625 84.697 C 372.185 86.713 372.653 88.928 372.656 89.635 C 372.663 91.196 375.429 95.593 378.156 98.385 C 379.257 99.512 380.831 101.451 381.656 102.697 C 383.676 105.747 386.062 104.687 387.594 100.041 L 388.812 96.353 L 396 96.291 C 399.945 96.262 404.778 95.888 406.75 95.447 C 409.84 94.757 410.735 94.984 413.156 97.228 C 414.702 98.661 416.505 99.853 417.156 99.853 C 417.807 99.853 421.122 102.362 424.531 105.447 C 428.836 109.342 431.3 110.918 432.625 110.572 C 433.674 110.298 434.739 110.61 435 111.291 C 435.261 111.972 437.876 113.783 440.812 115.291 C 446.66 118.293 450.346 121.732 452.656 126.353 C 453.153 127.347 453.914 128.515 454.799 129.704 C 455.139 131.348 455.504 132.992 455.892 134.636 L 455.892 140.439 L 452.314 140.439 C 452.068 139.5 452.25 138.874 452.812 138.197 C 453.804 137.002 453.094 135.946 448.844 132.228 C 446.001 129.741 443.656 127.023 443.656 126.197 C 443.656 125.045 442.956 124.841 440.625 125.353 C 438.112 125.905 437.247 125.588 435.562 123.447 C 434.443 122.024 432.914 120.853 432.187 120.853 C 431.461 120.853 430.629 120.178 430.312 119.353 C 429.091 116.17 427.656 118.066 427.656 122.885 C 427.656 126.271 428.474 129.534 430.156 132.853 C 431.588 135.679 432.414 138.375 432.579 140.439 L 427.287 140.439 C 426.775 139.405 424.33 137.308 421.687 135.666 C 418.864 133.911 416.656 131.806 416.656 130.853 C 416.656 129.922 415.809 126.65 414.75 123.572 C 413.325 119.432 412.995 116.724 413.5 113.166 C 414.115 108.836 414.475 108.3 417 108.01 C 419.303 107.745 419.567 107.432 418.594 106.26 C 417.165 104.539 413.505 104.411 411.906 106.01 C 411.029 106.886 410.377 106.846 409.219 105.885 C 408.377 105.186 406.938 104.912 406.031 105.26 C 404.511 105.843 404.538 106.038 406.125 107.791 C 408.629 110.557 409.388 117.639 407.281 118.447 C 405.317 119.201 405.063 124.849 406.906 126.728 C 407.91 127.752 407.615 128.42 405.406 130.197 C 403.7 131.57 402.656 133.392 402.656 134.978 C 402.656 137.209 404.321 139.519 406.305 140.439 L 391.332 140.439 C 391.243 139.986 391.163 139.452 391.062 138.822 C 390.463 135.072 390.125 134.728 386.031 133.697 C 383.619 133.09 381.392 132.211 381.094 131.728 C 380.055 130.048 378.656 130.87 378.656 133.166 C 378.656 135.128 379.659 137.812 381.216 140.439 L 291.277 140.439 C 291.365 140.24 291.45 140.024 291.531 139.791 C 292.351 137.438 293.148 136.853 295.5 136.853 C 297.116 136.853 299.737 137.532 301.312 138.353 C 306.208 140.907 312.369 139.889 311.156 136.728 C 310.845 135.918 308.186 134.424 305.219 133.416 C 301.168 132.039 299.664 130.971 299.219 129.197 C 298.679 127.048 296.693 125.815 296.656 127.603 C 296.648 128.016 296.276 128.891 295.844 129.572 C 294.755 131.286 281.248 128.444 277.875 125.791 C 276.508 124.715 274.768 123.853 274 123.853 C 273.232 123.853 272.362 123.197 272.062 122.416 C 271.649 121.338 270.258 121.13 266.281 121.541 C 262.691 121.911 260.104 121.622 258.094 120.603 C 256.48 119.785 252.347 118.792 248.906 118.416 C 242.732 117.741 242.637 117.797 241.594 120.541 C 240.286 123.98 238.993 124.812 235.156 124.791 C 230.886 124.767 228.832 122.792 228.062 117.978 C 227.383 113.73 226.286 112.053 225.25 113.728 C 224.73 114.57 219.349 114.366 214 113.291 C 212.815 113.053 209.512 111.017 206.656 108.76 C 202.633 105.58 200.268 104.487 196.062 103.916 C 190.337 103.139 185.37 99.652 183.625 95.166 C 183.089 93.787 181.258 92.489 178.719 91.728 C 174.157 90.362 173.023 87.217 176.906 86.666 C 181.048 86.078 179.212 84.358 173.875 83.822 C 172.676 83.702 171.756 83.62 171 83.603 C 168.731 83.554 168.099 84.082 167 85.76 C 165.458 88.113 165.494 88.292 168 90.291 C 170.386 92.194 170.572 92.85 170.031 97.416 C 169.475 102.113 169.614 102.488 172.062 103.603 C 173.5 104.258 174.656 105.429 174.656 106.197 C 174.656 106.965 174.94 108.99 175.281 110.697 C 175.82 113.393 175.558 113.925 173.281 114.791 C 169.87 116.088 169.981 117.438 173.625 119.322 C 177.645 121.401 178.925 121.275 178.156 118.853 C 177.214 115.885 180.526 114.941 182.656 117.572 C 183.883 119.087 184.742 119.384 185.969 118.697 C 187.953 117.587 191.656 119.257 191.656 121.26 C 191.656 122.044 193.296 122.856 195.625 123.228 C 198.005 123.609 199.992 124.605 200.594 125.728 C 201.145 126.759 203.296 128.335 205.375 129.228 C 207.454 130.122 209.831 131.235 210.656 131.697 C 215.804 134.579 217.677 135.154 223.281 135.603 L 229.531 136.103 L 229.844 132.228 C 230.218 127.663 232.974 126.71 233.469 130.978 C 233.688 132.869 234.472 133.769 236.219 134.103 C 237.864 134.418 238.656 134.104 238.656 133.166 C 238.656 130.922 241.588 130.453 243.687 132.353 C 245.345 133.854 246.056 133.936 248.594 132.885 C 251.733 131.585 254.101 132.255 253.344 134.228 C 252.744 135.79 255.749 139.415 258.312 140.228 C 258.47 140.278 258.646 140.35 258.834 140.439 L 143.691 140.439 L 142.844 139.635 C 138.744 135.763 129.664 131.563 126.437 132.041 C 125.07 132.243 123.917 133.551 123.156 135.822 C 122.391 138.106 121.206 139.495 119.687 139.853 C 119.268 139.952 118.815 140.161 118.363 140.439 L 100.706 140.439 C 100.385 137.792 99.952 137.738 97.5 138.228 C 95.436 138.641 94.433 138.369 94.031 137.322 C 93.718 136.507 92.452 135.853 91.219 135.853 C 89.985 135.853 87.095 134.507 84.812 132.853 C 80.577 129.786 79.677 130.153 81.906 134.072 C 84 137.754 85.311 138.76 87.344 138.228 C 88.452 137.938 89.903 138.623 91.948 140.439 L 21.559 140.439 C 20.266 139.577 19.032 138.627 17.854 137.602 C 19.991 134.19 22.064 131.218 23.142 130.554 C 23.992 130.483 25.235 126.885 25.964 123.576 L 26.787 122.959 L 30.04 117.726 C 30.77 117.598 31.576 117.443 32.469 117.26 C 35.698 116.599 34.755 115.673 31.542 115.31 L 32.628 113.563 C 32.761 113.541 32.895 113.512 33.031 113.478 C 34.482 113.114 35.656 112.335 35.656 111.76 C 35.656 111.185 37.006 109.586 38.656 108.197 C 40.306 106.809 41.656 105.036 41.656 104.26 C 41.656 103.484 42.074 102.853 42.562 102.853 C 43.051 102.853 43.751 101.221 44.125 99.228 C 45.013 94.494 46.417 92.056 50.625 88.01 C 55.004 83.799 57.862 82.157 57.031 84.322 C 56.572 85.518 57.241 85.853 60.156 85.853 C 63.047 85.853 63.76 85.521 63.312 84.353 C 62.996 83.528 63.155 82.853 63.687 82.853 C 64.22 82.853 64.656 83.278 64.656 83.791 C 64.656 84.304 65.5 84.973 66.5 85.291 C 67.829 85.713 68.662 87.677 69.594 92.603 C 70.902 99.522 77.292 114.459 79.875 116.603 C 83.215 119.375 93.656 111.585 93.656 106.322 C 93.656 105.568 94.057 104.74 94.531 104.447 C 95.006 104.154 95.955 101.857 96.656 99.353 C 97.357 96.85 98.312 94.55 98.781 94.26 C 100.817 93.001 104.544 97.576 106.187 103.353 C 107.126 106.653 108.05 109.935 108.25 110.635 C 108.771 112.461 111.625 113.291 112.906 112.01 C 113.693 111.222 113.652 110.528 112.781 109.478 C 112.027 108.57 111.951 107.794 112.562 107.416 C 113.101 107.083 113.846 104.37 114.219 101.385 C 114.641 98.006 115.603 95.326 116.781 94.26 C 117.822 93.318 118.656 92.177 118.656 91.728 C 118.656 91.28 119.751 88.538 121.062 85.635 C 122.374 82.731 124.903 76.978 126.687 72.853 C 128.472 68.728 131.526 62.428 133.469 58.853 C 135.412 55.278 138.421 48.753 140.156 44.353 L 143.312 36.353 L 148.375 36.041 C 153.169 35.759 153.54 35.922 155.437 39.041 C 156.541 40.855 157.776 44.683 158.156 47.541 C 159.037 54.164 161.575 57.346 165.281 56.416 C 169.474 55.364 173.656 57.543 173.656 60.791 C 173.656 63.829 176.727 67.172 181 68.791 C 184.817 70.237 185.965 69.271 185.219 65.291 C 184.754 62.815 185.069 61.524 186.437 60.166 C 189.093 57.53 191.261 53.789 192.094 50.353 C 193.494 44.582 201.993 24.33 204.375 21.103 C 206.353 18.424 207.11 18.026 208.656 18.853 C 211.397 20.32 214.892 20.086 217.5 18.26 C 218.757 17.379 220.749 16.895 221.906 17.197 C 223.262 17.552 225.007 16.903 226.812 15.385 C 229.143 13.424 229.351 12.851 228.187 11.885 C 227.108 10.989 226.143 11.108 223.969 12.416 C 222.128 13.523 222.715 12.656 225.656 9.947 C 234.132 2.14 236.943 0.14 242.156 0.135 C 243.359 0.133 244.689 0.218 246.25 0.385 Z M 146.594 41.51 C 145.258 42.846 147.276 51.214 148.719 50.322 C 149.243 49.998 149.656 50.208 149.656 50.791 C 149.656 51.373 149.91 51.853 150.219 51.853 C 150.527 51.853 150.498 49.716 150.125 47.103 C 149.548 43.063 148.754 41.027 147.719 40.947 C 147.374 40.921 146.997 41.107 146.594 41.51 Z M 212.781 72.603 C 210.536 74.287 210.181 75.261 210.344 79.291 C 210.562 84.712 211.952 86.853 215.219 86.853 C 216.494 86.853 218.397 87.982 219.5 89.385 C 220.665 90.865 221.783 91.489 222.156 90.885 C 223.027 89.476 226.799 89.634 228.812 91.166 C 230.249 92.259 230.282 92.739 229.094 94.885 C 228.344 96.239 227.707 98.083 227.687 98.978 C 227.668 99.874 226.941 101.187 226.062 101.916 C 224.612 103.119 224.635 103.318 226.312 103.978 C 227.328 104.378 231.869 104.752 236.406 104.791 C 243.043 104.847 244.656 104.571 244.656 103.385 C 244.656 102.28 243.925 102.062 241.687 102.51 C 238.352 103.177 233.656 100.768 233.656 98.385 C 233.656 97.261 234.973 97.014 239.75 97.322 C 244.506 97.628 246.51 97.29 249 95.76 C 250.748 94.685 252.984 93.534 253.969 93.197 C 256.604 92.295 255.491 90.506 251.844 89.76 C 250.093 89.402 247.729 87.922 246.594 86.478 C 244.965 84.408 243.67 83.853 240.437 83.853 C 236.261 83.853 232.656 81.693 232.656 79.197 C 232.656 78.468 231.531 77.605 230.156 77.26 C 228.781 76.915 227.656 76.301 227.656 75.885 C 227.656 75.468 224.901 74.113 221.531 72.885 C 218.474 71.77 216.94 71.199 215.844 71.166 C 214.748 71.132 214.09 71.622 212.781 72.603 Z M 149.5 74.603 C 148.611 75.492 148.77 76.749 150.156 79.822 C 152.106 84.146 152.638 84.497 154.437 82.697 C 155.313 81.821 154.985 80.814 153.125 78.603 C 151.774 76.997 150.656 75.19 150.656 74.572 C 150.656 74.169 150.593 73.971 150.406 73.978 C 150.219 73.985 149.919 74.185 149.5 74.603 Z M 281.656 82.353 C 281.656 83.398 282.708 83.853 285.125 83.853 C 287.797 83.853 288.475 83.509 288.031 82.353 C 287.703 81.498 286.212 80.853 284.562 80.853 C 282.658 80.853 281.656 81.366 281.656 82.353 Z M 257.781 133.947 C 256.066 132.344 254.656 130.572 254.656 129.978 C 254.656 129.385 256.498 127.94 258.75 126.791 C 262.588 124.833 263.058 124.821 266.156 126.291 C 267.975 127.154 270.628 127.853 272.031 127.853 C 273.806 127.853 275.546 129.072 277.781 131.853 C 279.549 134.053 281.819 135.853 282.812 135.853 C 283.806 135.853 285.275 137.145 286.094 138.728 C 286.438 139.394 286.78 139.965 287.115 140.439 L 263.714 140.439 C 261.963 138.255 259.713 135.751 257.781 133.947 Z M 347.844 92.447 C 348.085 94.561 348.763 95.432 350.406 95.666 C 351.644 95.842 352.656 96.428 352.656 96.978 C 352.656 98.973 357.168 97.363 357.469 95.26 C 357.852 92.578 355.796 90.914 351.187 90.166 C 349.849 89.949 348.991 89.81 348.469 89.885 C 347.599 90.009 347.643 90.688 347.844 92.447 Z M 62.25 90.697 C 61.652 91.664 62.542 92.853 63.844 92.853 C 64.302 92.853 64.656 92.433 64.656 91.916 C 64.656 90.898 63.672 90.138 62.906 90.26 C 62.651 90.3 62.41 90.439 62.25 90.697 Z M 338.687 95.478 C 339.252 96.043 340.007 98.82 340.344 101.666 C 340.978 107.022 341.251 107.392 343.531 105.947 C 344.478 105.347 344.678 104.118 344.187 101.885 C 343.44 98.48 339.659 91.955 338.406 91.885 C 337.304 91.822 337.498 94.289 338.687 95.478 Z M 277.656 96.572 C 277.656 99.196 278.504 99.853 281.844 99.853 C 284.01 99.853 284.656 99.383 284.656 97.853 C 284.656 96.548 284.001 95.853 282.75 95.853 C 281.695 95.853 280.12 95.562 279.25 95.228 C 278.973 95.122 278.731 95.073 278.531 95.072 C 277.931 95.069 277.656 95.553 277.656 96.572 Z M 347.625 100.916 C 347.173 101.648 347.01 102.602 347.281 103.041 C 348.122 104.401 350.656 103.936 350.656 102.416 C 350.656 101.004 349.679 100.089 348.75 100.166 C 348.328 100.201 347.93 100.423 347.625 100.916 Z M 401.844 100.51 C 399.212 101.198 399.124 101.714 401.406 103.447 C 403.381 104.946 405.331 105.204 406.031 104.072 C 406.954 102.579 404.37 100.264 402.25 100.447 C 402.109 100.459 401.98 100.474 401.844 100.51 Z M 378.344 106.166 C 379.228 107.05 380.453 107.032 381 106.103 C 381.673 104.961 379.859 100.853 378.687 100.853 C 377.551 100.853 377.28 105.103 378.344 106.166 Z M 100.875 112.385 C 104.037 116.148 104.919 116.853 106.406 116.853 C 107.756 116.853 107.686 116.521 106.062 114.603 C 103.619 111.718 102.472 110.872 100.875 110.853 C 99.822 110.841 99.822 111.132 100.875 112.385 Z M 385.312 113.541 C 383.736 115.118 384.925 117.728 387.906 119.197 C 391.717 121.075 391.677 121.071 391.656 120.103 C 391.629 118.828 386.661 113.587 385.5 113.478 C 385.423 113.471 385.353 113.5 385.312 113.541 Z M 333.187 116.01 C 332.493 116.739 334.898 127.853 335.75 127.853 C 336.241 127.853 337.219 126.953 337.906 125.853 C 338.593 124.753 340.164 123.853 341.406 123.853 C 344.078 123.853 344.41 122.048 341.906 121.166 C 340.944 120.827 338.667 119.453 336.844 118.103 C 335.248 116.923 333.806 116.049 333.344 115.978 C 333.278 115.968 333.21 115.985 333.187 116.01 Z M 307.656 122.197 C 307.656 124.978 307.995 125.643 309.156 125.197 C 309.981 124.881 310.656 123.827 310.656 122.853 C 310.656 121.88 309.981 120.538 309.156 119.853 C 308.674 119.453 308.351 119.257 308.125 119.322 C 307.748 119.43 307.656 120.273 307.656 122.197 Z M 366.656 123.291 C 366.656 125.81 367.556 127.667 370.031 130.291 C 373.973 134.47 374.656 134.65 374.656 131.572 C 374.656 130.32 373.306 127.816 371.656 126.01 C 370.006 124.203 368.656 122.082 368.656 121.291 C 368.656 120.5 368.206 119.853 367.656 119.853 C 367.106 119.853 366.656 121.405 366.656 123.291 Z M 346.125 125.166 C 347.722 127.603 347.717 127.694 345.562 128.01 C 344.333 128.19 343.133 128.916 342.906 129.603 C 342.613 130.493 343.974 130.853 347.594 130.853 C 350.39 130.853 352.656 130.686 352.656 130.478 C 352.656 129.051 349.497 122.941 348.187 121.853 C 347.375 121.179 346.676 120.947 346.156 121.041 C 345.014 121.248 344.734 123.043 346.125 125.166 Z M 80.656 123.478 C 80.656 124.303 81.134 124.683 81.719 124.322 C 82.948 123.562 86.656 126.587 86.656 128.353 C 86.656 129.391 89.964 131.596 91.812 131.791 C 92.166 131.828 91.603 130.176 90.562 128.135 C 89.522 126.093 88.656 123.823 88.656 123.103 C 88.656 122.224 87.889 122.012 86.281 122.416 C 84.966 122.746 83.592 122.519 83.219 121.916 C 82.891 121.386 82.452 121.185 82.031 121.26 C 81.33 121.384 80.656 122.262 80.656 123.478 Z M 177.187 131.322 C 178.651 133.819 180.022 135.853 180.219 135.853 C 180.416 135.853 181.675 135.346 183.031 134.728 L 185.5 133.603 L 182.75 128.478 C 180.609 124.515 179.439 123.353 177.594 123.353 C 174.205 123.353 174.057 125.981 177.187 131.322 Z M 56.344 130.166 C 56.71 130.533 58.51 130.853 60.344 130.853 C 62.934 130.853 63.656 130.433 63.656 128.978 C 63.656 127.444 62.936 127.111 59.656 127.197 C 55.992 127.293 54.667 128.489 56.344 130.166 Z M 312.906 128.478 C 310.221 129.198 309.974 130.53 312.406 131.166 C 315.863 132.069 316.656 131.823 316.656 129.853 C 316.656 128.502 316.526 127.95 315.594 127.947 C 315.035 127.946 314.187 128.135 312.906 128.478 Z M 394.656 132.822 C 394.656 134 398.077 134.635 398.531 133.541 C 398.731 133.061 398.439 132.199 397.875 131.635 C 397.47 131.23 396.906 131.108 396.375 131.166 C 395.49 131.263 394.656 131.898 394.656 132.822 Z M 421.625 140.01 C 421.856 140.042 422.112 140.184 422.439 140.439 L 420.758 140.439 C 421.06 140.115 421.318 139.967 421.625 140.01 Z" id="path2525" style="display: inline; fill: rgb(199, 195, 184);"/>
    <path d="M 245.156 0.135 L 242.531 0.541 C 240.618 0.835 239.735 1.709 239.344 3.666 C 238.742 6.675 233.038 13.853 231.25 13.853 C 230.616 13.853 229.47 12.97 228.687 11.885 C 227.368 10.054 227.138 10.03 225.469 11.541 C 224.479 12.436 223.656 12.69 223.656 12.103 C 223.656 11.517 225.119 9.882 226.906 8.478 C 228.694 7.075 230.942 5.263 231.875 4.447 C 234.898 1.804 239.509 -0.144 242.375 0.01 Z M 250.906 1.197 C 251.594 1.475 251.031 1.697 249.656 1.697 C 248.281 1.697 247.719 1.475 248.406 1.197 C 248.75 1.058 249.203 0.978 249.656 0.978 C 250.109 0.978 250.562 1.058 250.906 1.197 Z M 208.781 18.916 C 209.876 19.502 212.207 19.836 213.969 19.666 C 216.797 19.392 217.654 19.987 221.406 24.728 C 225.707 30.163 226.433 32.455 224.75 35.603 C 219.818 44.829 216.747 55.209 216.687 63.01 C 216.645 68.61 213.591 72.848 207.281 76.01 C 205.013 77.146 202.031 79.105 200.656 80.385 C 196.941 83.842 192.984 85.129 192.219 83.135 C 191.884 82.264 191.886 80.715 192.219 79.666 C 192.552 78.617 192.367 77.184 191.781 76.478 C 190.998 75.535 191.362 74.297 193.187 71.822 C 194.552 69.972 195.665 67.997 195.656 67.416 C 195.648 66.835 195.198 67.028 194.656 67.853 C 193.799 69.16 193.533 69.151 192.719 67.885 C 191.91 66.627 191.404 66.636 188.969 67.853 C 187.421 68.627 185.931 69.337 185.656 69.447 C 184.518 69.902 185.276 61.698 186.437 60.978 C 187.977 60.025 191.196 53.871 192.125 50.103 C 193.517 44.457 202.058 24.242 204.375 21.103 C 205.649 19.378 206.4 18.598 207.187 18.478 C 207.66 18.407 208.148 18.577 208.781 18.916 Z M 210.656 26.635 C 210.656 27.399 209.69 28.827 208.5 29.791 C 206.617 31.316 206.293 32.743 206 40.791 C 205.814 45.879 205.91 50.448 206.219 50.947 C 207.159 52.468 210.255 51.963 212.937 49.853 C 214.336 48.753 215.934 47.853 216.5 47.853 C 217.108 47.853 217.319 46.473 217 44.51 C 216.622 42.178 216.953 40.682 218.125 39.51 C 219.044 38.59 220.171 36.563 220.625 34.978 C 221.307 32.601 220.909 31.298 218.312 27.51 C 216.583 24.985 214.702 22.902 214.125 22.885 C 212.648 22.839 210.656 24.981 210.656 26.635 Z M 268.187 30.041 C 268.495 30.349 267.955 30.915 266.969 31.291 C 265.544 31.834 265.426 31.716 266.406 30.728 C 266.915 30.216 267.486 29.904 267.875 29.916 C 268.005 29.92 268.111 29.964 268.187 30.041 Z M 150.562 38.197 C 149.943 39.557 148.592 40.905 147.594 41.166 C 146.276 41.51 145.828 42.539 145.875 44.978 C 145.911 46.826 144.918 51.278 143.687 54.853 C 139.646 66.597 139.623 66.704 141.844 68.26 C 144.379 70.035 146.656 74.381 146.656 77.416 C 146.656 78.696 147.092 79.981 147.594 80.291 C 148.096 80.601 148.809 82.705 149.187 84.947 C 149.733 88.174 150.663 89.554 153.719 91.666 L 157.594 94.353 L 157.531 103.853 C 157.467 113.772 155.974 113.185 155.781 103.166 C 155.696 98.71 155.341 97.895 153.406 97.291 C 152.169 96.905 150.931 96.281 150.656 95.916 C 150.381 95.551 148.694 94.227 146.906 92.978 C 145.119 91.73 143.656 90.091 143.656 89.322 C 143.656 87.492 140.459 80.543 139.187 79.635 C 137 78.072 136.588 81.062 137.687 90.478 C 139.279 104.101 138.431 107.484 132.5 111.322 C 128.223 114.09 127.846 114.687 127.406 119.26 C 126.908 124.45 124.98 126.853 121.312 126.853 C 120.223 126.853 118.591 127.504 117.687 128.322 C 116.193 129.675 115.912 129.336 114.687 124.572 C 113.947 121.692 113.277 117.299 113.187 114.791 C 113.097 112.283 112.693 109.72 112.312 109.103 C 111.932 108.487 112.055 107.729 112.562 107.416 C 113.07 107.102 113.779 104.592 114.156 101.853 C 114.533 99.114 115.7 95.782 116.75 94.447 C 117.8 93.112 118.656 91.788 118.656 91.478 C 118.656 91.169 119.751 88.538 121.062 85.635 C 122.374 82.731 124.85 77.137 126.562 73.197 C 128.275 69.257 131.328 62.957 133.344 59.197 C 135.36 55.437 138.422 48.753 140.156 44.353 L 143.312 36.353 L 147.5 36.041 C 148.531 35.965 149.308 35.917 149.875 35.916 C 151.576 35.911 151.395 36.37 150.562 38.197 Z M 257.656 61.01 C 257.656 67.563 258.043 69.581 259.75 71.978 C 261.889 74.982 261.736 77.857 259.437 77.853 C 258.524 77.852 258.156 79.757 258.156 84.51 C 258.156 88.948 257.738 91.323 256.906 91.603 C 256.219 91.835 255.482 91.399 255.25 90.666 C 253.533 85.238 253.051 54.103 254.656 52.478 C 255.031 52.099 255.35 51.888 255.656 51.853 C 256.983 51.702 257.656 54.793 257.656 61.01 Z M 280.281 52.103 C 280.614 52.436 280.633 53.319 280.344 54.041 C 280.025 54.839 279.798 54.581 279.75 53.416 C 279.717 52.625 279.827 52.116 280.031 52.041 C 280.099 52.016 280.198 52.02 280.281 52.103 Z M 170.75 59.728 C 169.4 62.25 167.417 62.457 165.25 60.291 C 163.259 58.299 163.251 57.214 165.25 56.447 C 166.275 56.054 167.229 55.89 168.062 55.885 C 170.564 55.869 171.972 57.446 170.75 59.728 Z M 363.156 78.135 C 363.703 78.248 363.995 78.994 363.812 79.791 C 363.63 80.587 364.143 81.71 364.937 82.291 C 365.874 82.976 366.702 86.531 367.281 92.353 C 368.12 100.787 368.326 101.403 370.906 102.635 L 373.656 103.947 L 373.656 115.916 C 373.656 122.486 373.544 127.832 373.406 127.822 C 373.269 127.812 372.137 126.663 370.906 125.26 C 369.669 123.848 368.656 122.038 368.656 121.26 C 368.656 120.481 368.256 119.853 367.75 119.853 C 367.244 119.853 366.521 118.481 366.156 116.822 C 365.792 115.163 363.748 110.199 361.594 105.791 C 359.439 101.382 357.656 96.485 357.656 94.885 C 357.656 93.285 357.288 91.71 356.812 91.416 C 355.763 90.767 356.103 87.344 357.594 83.51 C 358.2 81.951 358.463 80.33 358.187 79.885 C 357.742 79.163 360.499 78.077 362.406 78.072 C 362.679 78.071 362.931 78.088 363.156 78.135 Z M 55.656 84.666 C 55.656 85.188 54.981 86.169 54.156 86.853 C 53.331 87.538 52.656 87.766 52.656 87.385 C 52.656 87.003 53.331 86.022 54.156 85.197 C 54.672 84.682 55.136 84.402 55.406 84.385 C 55.568 84.374 55.656 84.47 55.656 84.666 Z M 267.187 95.51 C 267.914 100.363 269.415 106.651 270.531 109.478 C 272.922 115.536 272.221 117.441 268.656 114.572 C 264.605 111.312 263.33 107.483 262.875 97.26 C 262.555 90.071 262.748 86.907 263.594 86.385 C 263.938 86.172 264.246 86.01 264.5 85.978 C 265.602 85.839 266.036 87.813 267.187 95.51 Z M 51.25 88.103 C 51.502 88.355 51.026 89.126 50.187 89.822 C 49.237 90.611 48.656 90.704 48.656 90.041 C 48.656 89.134 49.736 88.108 50.562 87.947 C 50.838 87.894 51.077 87.93 51.25 88.103 Z M 318.844 91.947 C 320.411 92.786 320.572 93.275 319.625 94.416 C 318.262 96.059 317.028 96.256 316.219 94.947 C 315.909 94.447 315.918 93.312 316.25 92.447 C 316.485 91.834 316.765 91.495 317.156 91.416 C 317.548 91.337 318.077 91.537 318.844 91.947 Z M 311.125 94.385 C 311.937 95.46 312.477 96.803 312.312 97.353 C 311.809 99.036 309.055 99.039 307.656 97.353 C 306.548 96.018 306.613 95.491 308 94.103 C 308.77 93.334 309.206 92.938 309.625 92.978 C 310.044 93.019 310.438 93.475 311.125 94.385 Z M 413.031 97.572 C 414.21 99.074 415.032 100.716 414.875 101.197 C 414.718 101.678 415.113 102.68 415.75 103.447 C 416.688 104.578 416.435 104.853 414.375 104.853 C 412.978 104.853 411.158 105.103 410.344 105.416 C 409.529 105.728 408.575 105.523 408.219 104.947 C 407.863 104.371 408.049 103.022 408.625 101.947 C 410.265 98.883 409.85 96.867 407.406 95.885 C 405.272 95.027 405.323 94.976 408.031 94.916 C 409.999 94.872 411.554 95.69 413.031 97.572 Z M 390.562 98.166 C 391.162 99.714 391.656 101.941 391.656 103.103 C 391.656 104.266 392.215 106.715 392.875 108.541 C 394.22 112.26 393.583 113.361 389.562 114.353 C 387.158 114.947 386.827 114.613 385.344 110.166 C 384.05 106.287 383.974 105.158 385 104.353 C 385.701 103.803 386.995 101.553 387.875 99.353 L 389.5 95.353 Z M 297.656 102.416 C 297.656 104.132 295.108 104.899 293.781 103.572 C 292.325 102.116 292.343 99.168 293.812 98.26 C 293.964 98.166 294.156 98.124 294.344 98.135 C 295.659 98.211 297.656 100.613 297.656 102.416 Z M 381.031 101.885 C 383.186 105.533 382.523 105.824 380.187 102.26 C 379.255 100.837 378.665 99.501 378.875 99.291 C 378.901 99.265 378.952 99.245 379 99.26 C 379.338 99.364 380.187 100.456 381.031 101.885 Z M 70.594 107.228 C 71.541 108.998 71.632 111.945 70.969 119.197 L 70.094 128.853 L 74.875 133.572 C 77.507 136.165 79.938 139.089 80.25 140.072 C 80.291 140.201 80.342 140.324 80.402 140.439 L 56.979 140.439 C 54.104 137.808 51.381 135.853 50.031 135.853 C 47.424 135.853 47.016 134.9 48.844 133.072 C 49.497 132.419 50.059 129.157 50.094 125.853 C 50.142 121.217 50.499 119.868 51.656 119.853 C 52.481 119.843 54.175 119.558 55.406 119.228 C 57.03 118.793 57.831 119.127 58.312 120.478 C 58.678 121.503 59.611 123.113 60.406 124.041 C 62.34 126.297 61.049 128.166 58.062 127.416 C 56.133 126.932 55.656 127.192 55.656 128.822 C 55.656 130.506 56.309 130.853 59.594 130.853 C 63.502 130.853 63.541 130.81 64.219 126.291 C 64.594 123.786 64.635 119.553 64.281 116.885 C 63.795 113.219 64.007 111.659 65.156 110.51 C 65.993 109.672 66.656 108.563 66.656 108.041 C 66.656 107.519 67.264 106.589 68 105.978 C 68.386 105.658 68.724 105.489 69.031 105.51 C 69.543 105.544 69.988 106.097 70.594 107.228 Z M 32.906 117.228 C 35.614 116.441 34.973 114.855 31.906 114.76 L 31.884 114.759 L 32.564 113.666 C 34.616 113.155 35.534 113.669 38.281 116.416 C 40.173 118.307 42.401 119.853 43.219 119.853 C 44.454 119.853 44.368 120.494 42.75 123.666 C 41.679 125.765 40.044 128.128 39.094 128.916 C 38.143 129.704 36.747 131.816 36 133.603 C 35.253 135.391 33.992 136.853 33.187 136.853 C 32.358 136.853 31.073 138.604 30.016 140.439 L 16.118 140.439 C 18.793 135.972 21.771 131.398 23.142 130.554 C 23.992 130.483 25.235 126.885 25.964 123.576 L 26.787 122.959 L 30.046 117.716 C 31.224 117.584 32.266 117.414 32.906 117.228 Z M 417.281 117.228 C 415.154 121.229 414.656 121.663 413.875 120.135 C 413.372 119.149 413.228 116.103 413.562 113.353 C 414.11 108.849 414.404 108.353 416.656 108.353 C 420.139 108.353 420.367 111.425 417.281 117.228 Z M 401.344 118.603 C 401.621 119.291 401.621 120.416 401.344 121.103 C 401.066 121.791 400.812 121.228 400.812 119.853 C 400.812 118.994 400.928 118.44 401.062 118.322 C 401.143 118.251 401.24 118.346 401.344 118.603 Z M 47.844 119.166 C 48.641 119.485 48.415 119.712 47.25 119.76 C 46.196 119.803 45.605 119.561 45.937 119.228 C 46.104 119.062 46.403 118.993 46.75 118.978 C 47.097 118.964 47.483 119.021 47.844 119.166 Z M 209.531 131.385 C 216.371 134.818 218.299 135.299 228.156 136.072 C 234.206 136.546 242.263 136.662 246.062 136.322 L 252.969 135.697 L 256.937 140.01 C 257.072 140.157 257.204 140.3 257.332 140.439 L 198.638 140.439 C 198.651 139.647 198.656 138.797 198.656 137.885 C 198.656 130.779 198.883 127.994 201.562 128.166 C 203.17 128.269 205.658 129.44 209.531 131.385 Z M 365.625 133.853 C 366.938 133.853 368.046 136.137 368.819 140.439 L 365.817 140.439 C 364.32 136.274 364.205 133.853 365.625 133.853 Z M 334.406 139.478 C 334.578 139.822 334.735 140.142 334.879 140.439 L 326.705 140.439 C 325.453 138.067 326.566 136.487 330.156 135.51 C 330.356 135.455 330.57 135.429 330.75 135.416 C 332.008 135.326 332.843 136.342 334.406 139.478 Z M 308.25 139.728 C 309.31 139.313 310.719 138.955 311.406 138.916 C 311.955 138.885 312.312 139.476 312.487 140.439 L 306.924 140.439 C 306.996 140.252 307.432 140.049 308.25 139.728 Z" id="path2531" style="display: inline; fill: rgb(119, 127, 136);"/>
  </g>
</svg>