<?xml version="1.0" encoding="utf-8"?>
<svg viewBox="0 0 500 500" xmlns="http://www.w3.org/2000/svg" xmlns:bx="https://boxy-svg.com">
  <defs>
    <linearGradient id="color-0" bx:pinned="true">
      <title>blue</title>
      <stop style="stop-color: rgb(0, 145, 255);"/>
    </linearGradient>
  </defs>
  <g>
    <path d="M 465.984 0 L 465.984 5.675 C 465.162 38.776 466.218 71.985 466.282 105.144 C 466.264 112.529 466.219 119.912 466.142 127.296 C 465.874 144.233 465.178 161.147 463.666 178.018 C 463.154 181.531 462.595 185.031 461.981 188.517 C 441.075 300.6 382.449 372.311 322.598 444.104 C 314.234 453.662 300.925 466.901 288 478.842 L 288 0 Z" style="fill: rgb(255, 255, 255);"/>
    <path d="M 184.687 444.104 C 124.845 372.32 66.223 300.617 45.31 188.558 C 44.696 185.067 44.134 181.562 43.621 178.046 C 42.112 161.211 41.417 144.335 41.147 127.434 C 41.066 119.818 41.018 112.203 41 104.586 C 41.074 71.612 42.12 38.589 41.302 5.675 L 41.302 0 L 224 0 L 224 483.155 C 209.689 470.194 194.075 454.831 184.687 444.104 Z" style="fill: rgb(255, 215, 0);"/>
    <path d="M 253.642 507 C 248.203 504.124 236.607 494.572 224 483.155 L 224 0 L 288 0 L 288 478.842 C 273.64 492.107 259.753 503.769 253.642 507 Z" style="fill: url(#color-0);"/>
    <path d="M 41.302 0 L 41.302 2.836 L 41.302 5.675 C 42.12 38.589 41.074 71.612 41 104.586 C 41.018 112.203 41.066 119.818 41.147 127.434 C 41.417 144.335 42.112 161.211 43.621 178.046 C 44.134 181.562 44.696 185.067 45.31 188.558 C 66.223 300.617 124.845 372.32 184.687 444.104 C 202.344 464.28 242.029 500.859 253.642 507 C 265.254 500.861 304.941 464.281 322.598 444.104 C 382.449 372.311 441.075 300.6 461.981 188.517 C 462.595 185.031 463.154 181.531 463.666 178.018 C 465.178 161.147 465.874 144.233 466.142 127.296 C 466.219 119.912 466.264 112.529 466.282 105.144 C 466.218 71.985 465.162 38.776 465.984 5.675 L 465.984 2.836 L 465.984 0 Z" style="stroke-width: 10px; stroke: rgb(0, 0, 0); fill: none;"/>
  </g>
  <g transform="matrix(0.499972, 0, 0, 0.5, 10.504081, 63.999962)" style="" bx:origin="0.497686 0.5">
    <path d="M 255.806 473.194 C 254.938 470.932 261.446 466.558 282.665 455.142 C 301.797 444.85 300.568 445.663 299.529 443.981 C 299.056 443.217 296.385 444.494 292.917 447.141 C 285.419 452.864 282.884 453.764 273.563 454.009 C 268.357 454.146 264.54 453.515 261.726 452.052 C 257.892 450.058 257.196 450.043 252.686 451.847 C 247.005 454.12 235.222 454.427 231.293 452.404 C 229.799 451.634 227.36 449.897 225.872 448.543 C 223.369 446.266 220.495 446.372 220.495 448.74 C 220.495 449.578 234.875 460.645 250.958 472.185 C 255.328 475.32 256.734 475.613 255.806 473.194 Z M 263.322 502.018 C 266.744 497.133 265.771 492.981 260.06 488.092 C 257.201 485.646 254.507 483.644 254.072 483.644 C 252.599 483.644 247.85 493.289 247.85 496.281 C 247.85 501.541 251.168 504.781 256.554 504.781 C 260.138 504.781 261.886 504.068 263.322 502.018 Z M 323.474 452.658 C 323.725 450.093 323.081 447.722 321.727 446.225 C 318.975 443.185 318.336 443.238 314.142 446.846 L 310.665 449.837 L 313.14 452.588 C 315.777 455.52 319.787 457.574 321.832 457.043 C 322.516 456.864 323.254 454.891 323.474 452.658 Z M 207.277 453.972 L 210.688 450.411 L 206.793 447.133 C 202.75 443.731 196.457 442.75 194.895 445.278 C 193.286 447.881 194.202 454.325 196.411 455.94 C 199.884 458.479 203.604 457.806 207.277 453.972 Z M 284.612 443.761 C 286.708 442.489 289.453 440.311 290.711 438.922 C 291.968 437.532 293.81 436.395 294.803 436.395 C 295.873 436.395 296.325 435.657 295.914 434.584 C 295.532 433.589 294.538 429.478 293.706 425.448 C 292.298 418.634 292.426 417.393 295.537 407.675 L 298.881 397.228 L 289.888 389.146 C 284.942 384.7 275.838 376.225 269.657 370.31 L 258.419 359.557 L 252.712 364.093 C 238.78 375.167 234.298 379.164 226.712 387.278 C 222.267 392.032 219.585 395.188 220.751 394.292 C 223.474 392.2 224.934 393.171 227.944 399.07 C 233.512 409.984 234.741 426.725 230.574 434.893 L 228.162 439.621 L 233.474 442.981 C 239.222 446.618 242.098 447.049 247.339 445.056 L 250.721 443.771 L 247.486 440.393 C 243.042 435.754 240.389 428.874 240.389 421.989 C 240.389 416.931 240.993 415.604 245.217 411.38 C 249.547 407.05 250.689 406.553 256.312 406.553 C 261.26 406.553 263.395 407.239 266.45 409.81 C 275.557 417.472 276.346 425.97 268.976 437.016 L 263.999 444.477 L 268.669 445.949 C 274.157 447.678 279.323 446.969 284.612 443.761 Z M 263.702 431.357 C 267.591 425.805 264.359 416.194 258.027 414.482 C 255.898 413.906 254.198 414.614 251.499 417.2 C 246.117 422.356 246.695 428.944 253.152 436.038 L 255.657 438.789 L 258.818 436.303 C 260.556 434.935 262.754 432.709 263.702 431.357 Z M 224.026 429.497 C 226.344 424.41 225.65 416.437 222.193 408.418 C 220.424 404.315 218.919 399.979 218.848 398.782 C 218.777 397.585 218.617 396.606 218.492 396.606 C 218.367 396.606 214.76 400.559 210.476 405.39 L 202.688 414.175 L 211.872 423.42 C 216.922 428.504 221.398 432.664 221.819 432.664 C 222.239 432.664 223.232 431.239 224.026 429.497 Z M 312.15 415.512 C 314.002 412.815 313.912 412.454 310.51 408.902 L 306.911 405.145 L 305.413 408.646 C 304.589 410.573 303.91 415.226 303.903 418.987 L 303.894 425.826 L 307.044 422.096 C 308.776 420.044 311.075 417.081 312.152 415.512 L 312.15 415.512 Z M 344.27 418.422 C 348.142 414.55 348.24 409.004 344.515 404.672 L 341.708 401.409 L 336.122 403.966 C 333.05 405.371 329.417 407.228 328.049 408.092 C 326.681 408.955 325.378 409.753 325.152 409.865 C 324.016 410.427 329.666 417.143 332.969 419.157 C 338.025 422.24 340.62 422.071 344.27 418.422 Z M 168.364 380.868 C 169.425 379.608 171.222 377.081 172.358 375.252 L 174.422 371.928 L 168.648 368.103 C 165.471 365.999 161.89 364.278 160.689 364.278 C 156.868 364.278 153.188 370.377 153.603 376.023 C 153.921 380.355 154.569 381.361 158.21 383.178 C 162.716 385.428 164.954 384.919 168.364 380.868 Z M 215.6 383.404 C 216.558 381.613 221.549 376.228 226.69 371.437 C 231.831 366.646 239.017 359.444 242.659 355.432 L 249.28 348.138 L 244.652 342.49 C 237.791 334.118 230.948 329.065 227.616 329.91 C 223.597 330.93 211.663 342.865 205.505 352.023 C 202.582 356.369 198.065 362.497 195.468 365.639 L 190.746 371.351 L 201.579 378.871 C 207.538 383.007 212.738 386.451 213.136 386.525 C 213.533 386.598 214.642 385.194 215.6 383.404 Z M 317.322 377.644 C 323.516 371.66 328.027 366.764 327.346 366.764 C 325.645 366.764 319.387 359.466 312.434 349.374 C 303.529 336.447 299.81 332.056 295.46 329.333 C 290.86 326.454 289.742 326.823 280.895 334.134 C 270.112 343.046 267.67 344.621 265.769 343.892 C 263.6 343.059 266.231 347.187 274.404 357.439 C 280.832 365.503 304.142 389.251 305.225 388.84 C 305.685 388.666 311.128 383.628 317.322 377.644 Z M 360.348 382.715 C 365.076 380.562 365.676 376.04 362.127 369.321 C 358.365 362.2 355.204 361.676 346.474 366.723 L 340.031 370.448 L 347.096 377.285 C 354.678 384.623 355.459 384.943 360.348 382.715 Z M 185.151 417.914 L 187.992 414.635 L 184.66 411.109 C 180.253 406.444 177.406 405.006 174.443 405.946 C 172.422 406.588 172.003 407.855 172.003 413.324 C 172.003 418.787 172.486 420.251 174.8 421.804 C 178.068 423.996 180.758 422.986 185.151 417.914 Z M 265.177 316.096 C 272.87 296.152 275.843 281.012 277.104 255.346 C 277.868 239.807 277.614 236.138 274.577 218.8 C 272.72 208.2 270.133 195.342 268.828 190.225 C 266.543 181.265 259.485 167.4 257.754 168.469 C 256.566 169.204 250.79 185.68 248.609 194.554 C 247.601 198.657 245.575 209.226 244.106 218.04 C 241.681 232.597 241.565 235.5 242.839 249.746 C 247.033 296.647 248.079 306.908 249.16 311.731 C 250.664 318.444 256.533 333.193 257.7 333.193 C 258.186 333.193 261.55 325.499 265.177 316.096 Z M 243.939 167.783 C 247.458 161.607 250.337 156.074 250.337 155.486 C 250.337 153.537 232.027 120.965 225.463 111.238 C 220.827 104.368 219.386 101.29 220.353 100.323 C 221.32 99.356 222.875 100.334 225.864 103.792 L 230.028 108.609 L 228.891 100.602 C 228.266 96.199 226.636 89.798 225.268 86.379 C 219.62 72.265 218.793 69.637 219.707 68.723 C 220.234 68.196 221.734 69.155 223.039 70.855 C 224.345 72.554 225.426 73.339 225.441 72.598 C 225.456 71.857 225.102 70.884 224.653 70.435 C 224.205 69.987 223.777 64.438 223.703 58.105 C 223.589 48.291 223.095 45.691 220.364 40.503 L 217.158 34.416 L 215.097 42.623 C 212.515 52.899 212.521 53.035 215.443 50.391 C 219.051 47.126 220.956 49.157 218.063 53.184 C 215.264 57.08 212.103 68.734 211.011 79.184 C 210.171 87.214 212.094 93.709 223.393 121.004 C 227.286 130.408 229.41 137.749 230.41 145.25 C 233.097 165.423 235.819 179.012 237.174 179.012 C 237.377 179.012 240.421 173.959 243.939 167.783 Z M 218.136 158.059 C 215.402 139.507 212.869 133.082 203.718 121.496 C 200.021 116.815 194.467 112.017 187.671 107.633 C 181.955 103.945 176.899 100.315 176.436 99.566 C 175.973 98.817 174.562 97.652 173.3 96.977 C 171.173 95.838 171.095 96.087 172.231 100.389 C 175.113 111.302 176.204 114.391 178.315 117.608 L 180.548 121.013 L 181.435 117.482 C 182.354 113.82 185.513 109.382 187.2 109.382 C 187.732 109.382 188.167 111.688 188.167 114.507 C 188.167 118.985 188.409 119.432 190.085 118.042 C 193.292 115.38 195.401 118.63 192.528 121.805 C 191.13 123.35 190.026 126.885 189.702 130.849 C 189.255 136.323 189.856 138.841 193.483 146.683 C 195.909 151.93 199.816 157.912 202.415 160.361 C 204.956 162.754 209.924 168.332 213.454 172.757 C 219.243 180.01 219.908 180.499 220.228 177.73 C 220.423 176.041 219.482 167.189 218.136 158.059 Z M 248.32 510.455 C 242.519 507.93 240.389 504.045 240.389 495.988 C 240.389 490.21 241.03 488.106 244.064 483.918 L 247.739 478.845 L 241.159 475.131 C 237.539 473.089 230.347 468.013 225.175 463.853 L 215.771 456.288 L 211.419 460.64 C 207.561 464.499 206.332 464.993 200.601 464.993 C 194.906 464.993 193.631 464.489 189.908 460.765 C 185.199 456.057 184.495 451.585 187.376 444.691 C 191.606 434.567 204.13 433.459 212.3 442.487 L 214.668 445.103 L 216.069 442.303 C 217.363 439.718 216.64 438.81 206.668 430.482 C 199.478 424.477 195.203 421.715 193.882 422.222 C 192.79 422.641 191.897 423.356 191.897 423.811 C 191.897 425.906 182.358 429.547 177.17 429.432 C 172.573 429.33 170.966 428.624 168.148 425.47 C 161.496 418.025 162.274 404.312 169.661 398.797 C 174.856 394.919 180.389 395.489 188.127 400.7 L 194.912 405.269 L 198.689 401.906 C 203.868 397.296 206.818 394.025 206.818 392.894 C 206.818 392.372 201.995 389.063 196.101 385.54 L 185.384 379.135 L 179.004 384.959 C 175.495 388.162 171.9 391.674 171.014 392.762 C 169.863 394.177 167.312 394.729 162.055 394.698 C 155.993 394.665 154.13 394.118 151.423 391.59 C 146.277 386.781 144.26 381.743 144.138 373.392 C 144.007 364.382 146.488 360.011 153.793 356.38 C 158.199 354.191 158.745 354.18 164.904 356.159 C 168.466 357.303 173.592 359.681 176.294 361.442 C 178.996 363.203 181.376 364.135 181.583 363.512 C 181.791 362.89 184.903 358.191 188.499 353.071 C 205.343 329.091 209.649 320.669 214.406 302.409 C 221.583 274.858 216.95 209.37 206.169 185.976 C 201.577 176.014 189.884 159.84 184.74 156.336 C 178.956 152.397 164.407 145.281 158.42 143.464 C 155.291 142.514 149.793 141.731 146.202 141.724 C 139.679 141.71 137.203 139.637 142.161 138.34 C 145.388 137.496 145.305 136.936 141.342 132.8 C 138.708 130.051 138.41 129.206 139.876 128.643 C 141.118 128.167 141.541 126.739 141.176 124.255 C 140.32 118.424 143.959 119.653 146.389 126.015 C 148.926 132.66 151.8 135.405 157.583 136.709 C 161.487 137.59 161.867 137.464 160.877 135.614 C 160.262 134.464 156.918 130.867 153.447 127.62 C 146.971 121.563 146.035 119.903 148.612 119.044 C 149.659 118.695 149.479 117.68 147.99 115.555 C 145.887 112.552 145.073 105.644 146.824 105.66 C 147.337 105.665 149.154 107.72 150.862 110.227 L 153.967 114.785 L 154.926 108.123 C 155.453 104.459 156.184 101.161 156.551 100.795 C 157.873 99.473 159.531 103.891 159.55 108.785 C 159.583 117.424 166.398 129.434 175.733 137.304 C 180.178 141.051 183.993 143.602 184.21 142.972 C 184.908 140.949 179.638 130.456 173.125 120.899 C 169.643 115.788 167.266 111.136 167.844 110.561 C 168.422 109.985 168.706 106.146 168.475 102.029 C 168.07 94.801 167.912 94.492 163.879 93.033 C 158.957 91.253 159.391 89.487 164.749 89.487 C 167.884 89.487 168.378 89.111 167.608 87.312 C 167.096 86.115 166.413 83.597 166.09 81.716 C 165.179 76.404 168.748 77.431 171.364 83.234 C 172.589 85.949 174.661 89.139 175.97 90.324 C 178.276 92.411 178.309 92.371 177.041 89.036 C 175.232 84.277 175.405 82.027 177.581 82.027 C 178.598 82.027 180.296 84.1 181.355 86.634 C 185.404 96.326 193.626 105.164 205.2 112.265 C 208.268 114.148 202.826 101.958 195.492 90.52 C 186.999 77.275 180.062 71.478 174.238 72.757 C 171.575 73.342 170.759 73.061 170.759 71.557 C 170.759 70.477 169.92 69.593 168.894 69.593 C 167.868 69.593 167.029 69.071 167.029 68.434 C 167.029 66.711 171.602 65.579 174.8 66.51 C 177.213 67.212 177.043 66.788 173.557 63.422 C 168.585 58.621 168.518 57.892 173.134 58.815 C 175.728 59.334 176.959 58.997 177.486 57.624 C 178.68 54.512 180.897 56.273 183.047 62.044 C 184.153 65.013 186.317 68.273 187.856 69.291 C 190.628 71.123 190.654 71.084 190.642 65.082 C 190.634 61.259 189.488 56.572 187.534 52.376 C 184.315 45.461 184.373 43.058 187.728 44.346 C 189.299 44.948 189.518 44.537 188.812 42.312 C 188.091 40.04 188.352 39.603 190.223 39.957 C 192.001 40.294 192.805 42.19 193.787 48.369 C 194.484 52.757 195.743 56.576 196.585 56.857 C 197.512 57.166 198.114 59.72 198.114 63.349 C 198.114 69.095 202.421 85.757 203.906 85.757 C 205.167 85.757 202.897 64.393 201.093 59.28 C 198.959 53.231 198.955 53.429 201.222 53.429 C 202.248 53.429 203.088 52.357 203.088 51.046 C 203.088 49.735 203.689 48.462 204.425 48.217 C 206.692 47.461 204.325 41.284 200.235 37.286 C 196.726 33.855 196.977 32.692 201.064 33.438 C 201.661 33.547 201.737 32.634 201.234 31.41 C 199.122 26.271 199.082 24.831 201.052 24.831 C 203.002 24.831 207.577 32.394 209.325 38.508 C 210.153 41.405 210.278 41.295 211.154 36.886 C 211.671 34.283 211.547 29.387 210.878 26.006 C 209.89 21.007 209.985 19.857 211.388 19.857 C 212.336 19.857 213.434 20.693 213.826 21.715 C 214.218 22.737 215.04 23.264 215.652 22.885 C 217.774 21.574 219.176 23.625 218.097 26.464 C 217.232 28.738 217.584 29.51 220.009 30.654 C 222.908 32.023 222.982 31.921 222.982 26.529 C 222.982 23.462 221.879 18.84 220.504 16.145 C 218.039 11.313 218.623 9.27 222.088 10.599 C 223.109 10.991 224.243 10.414 224.678 9.281 C 226.679 4.066 227.955 9.942 227.955 24.366 C 227.955 39.353 228.046 39.891 230.442 39.13 C 233.396 38.193 233.728 41.174 231.548 49.029 C 230.52 52.732 230.579 56.28 231.785 63.328 C 233.169 71.41 233.512 72.188 234.279 68.971 C 234.768 66.92 235.847 57.199 236.676 47.37 C 238.165 29.736 238.147 29.418 235.306 23.353 C 233.1 18.642 232.79 16.981 233.982 16.245 C 235.188 15.499 234.969 13.843 233.008 8.867 C 230.494 2.49 230.494 2.45 232.944 2.45 C 234.533 2.45 236.036 3.885 237.176 6.491 C 238.148 8.713 238.989 9.832 239.044 8.978 C 239.1 8.123 240.061 7.423 241.18 7.423 C 242.848 7.423 243.095 8.375 242.554 12.708 C 242.191 15.614 242.616 20.23 243.498 22.966 L 245.102 27.939 L 245.232 22.033 C 245.304 18.785 245.851 16.127 246.447 16.127 C 247.044 16.127 247.889 13.889 248.327 11.154 C 249.258 5.331 250.787 4.834 253.112 9.599 C 254.554 12.555 254.477 13.825 252.546 18.97 C 251.317 22.244 250.644 26.248 251.051 27.868 C 251.482 29.588 250.997 32.027 249.883 33.728 C 248.246 36.23 244.119 49.605 244.119 52.408 C 244.119 52.927 244.959 53.029 245.984 52.635 C 248.712 51.589 248.28 54.34 244.78 60.313 C 242.085 64.912 241.608 67.611 240.861 82.492 C 240.393 91.81 240.36 99.435 240.787 99.435 C 241.213 99.435 242.494 96.217 243.633 92.285 C 245.546 85.68 250.022 79.54 252.926 79.54 C 255.798 79.54 255.159 83.459 251.078 90.884 C 245.357 101.292 243.488 109.882 245.401 116.986 C 247.113 123.342 248.407 121.846 249.477 112.274 C 250.269 105.194 252.48 100.678 255.156 100.678 C 257.182 100.678 256.573 107.207 253.27 120.885 C 251.377 128.722 251.384 129.649 253.374 134.86 C 254.546 137.929 255.955 140.719 256.505 141.059 C 258.012 141.99 262.521 130.608 264.712 120.341 C 267.072 109.29 266.248 100.566 262.07 92.33 C 258.549 85.39 258.322 82.923 260.962 80.283 C 263.161 78.084 262.153 72.495 257.584 61.547 C 255.409 56.337 255.28 55.192 256.76 54.258 C 258.825 52.956 257.703 40.575 254.642 30.881 C 252.353 23.63 252.352 21.897 254.638 22.775 C 256.122 23.344 256.52 21.623 256.814 13.372 C 257.053 6.667 257.697 3.099 258.729 2.757 C 259.698 2.436 260.283 3.425 260.283 5.381 C 260.283 7.108 260.88 8.889 261.611 9.341 C 262.341 9.792 262.777 12.033 262.58 14.321 C 262.383 16.609 262.631 18.89 263.131 19.39 C 263.631 19.89 263.719 23.137 263.327 26.606 L 262.614 32.913 L 265.881 25.453 C 268.006 20.601 269.156 15.742 269.17 11.558 C 269.184 7.169 269.752 4.909 270.955 4.447 C 271.924 4.076 272.717 2.914 272.717 1.867 C 272.717 -0.302 274.66 -0.68 275.857 1.257 C 276.296 1.969 277.662 2.232 278.891 1.842 C 281.81 0.915 283.379 4.744 280.861 6.649 C 278.011 8.805 274.796 17.46 276.29 18.955 C 277.137 19.801 276.518 21.561 274.392 24.348 C 267.827 32.955 264.865 50.43 267.672 63.998 C 268.508 68.042 268.727 66.73 268.844 56.981 C 268.948 48.178 269.432 44.82 270.662 44.348 C 271.583 43.995 273.594 40.61 275.129 36.826 C 277.156 31.832 278.656 29.842 280.604 29.565 C 282.585 29.283 283.6 27.883 284.488 24.209 C 285.149 21.474 286.358 18.546 287.175 17.704 C 287.991 16.861 288.919 15.462 289.236 14.595 C 289.639 13.494 290.232 13.409 291.2 14.312 C 292.129 15.179 292.221 16.881 291.479 19.471 C 290.809 21.807 290.829 23.795 291.531 24.497 C 292.784 25.75 291.72 29.804 290.139 29.804 C 288.872 29.804 281.42 37.446 281.42 38.744 C 281.42 39.298 282.26 39.752 283.285 39.752 C 286.174 39.752 285.493 41.957 281.872 44.329 C 275.784 48.318 275.039 52.464 275.925 77.422 C 276.405 90.967 276.184 105.549 275.376 113.734 C 273.932 128.34 268.774 147.596 265.656 150.02 C 264.023 151.29 264.826 153.044 271.497 162.784 C 275.75 168.994 279.695 174.362 280.263 174.713 C 280.831 175.064 281.927 174.172 282.698 172.73 C 284.379 169.589 281.359 150.006 277.571 139.488 C 274.751 131.658 274.667 130.52 276.905 130.52 C 279.724 130.52 282.057 97.116 279.803 89.019 C 278.988 86.091 279.149 85.574 280.696 86.167 C 281.734 86.566 282.92 86.348 283.331 85.683 C 284.794 83.317 286.633 86.118 285.929 89.638 C 285.535 91.607 285.715 93.218 286.328 93.218 C 288.347 93.218 290.499 84.113 290.624 75.051 C 290.735 66.913 290.402 65.669 286.746 60.576 C 282.914 55.236 282.507 52.97 285.593 54.154 C 286.585 54.535 286.91 53.05 286.633 49.406 C 286.373 45.985 286.914 43.221 288.157 41.617 C 290.068 39.149 290.089 39.151 290.867 41.914 C 291.298 43.445 292.107 44.415 292.666 44.069 C 294.509 42.93 295.045 45.548 293.833 49.772 C 292.94 52.888 293.165 55.589 294.733 60.564 C 296.734 66.914 296.893 67.078 298.404 64.356 C 300.504 60.573 300.484 48.101 298.366 39.934 C 297.07 34.935 296.995 32.634 298.056 30.347 C 299.737 26.721 302.559 26.356 302.559 29.765 C 302.559 31.43 303.156 31.984 304.424 31.498 C 305.896 30.933 306.29 31.86 306.29 35.888 C 306.29 38.697 306.874 40.995 307.589 40.995 C 308.397 40.995 308.602 42.761 308.132 45.658 L 307.375 50.321 L 309.829 47.523 C 314.717 41.951 315.323 46.013 310.696 53.342 C 309.017 56.002 306.506 62.63 305.117 68.071 C 303.728 73.512 301.189 82.095 299.476 87.145 C 297.762 92.195 296.356 96.585 296.351 96.901 C 296.346 97.217 299.184 94.699 302.657 91.306 C 309.957 84.173 312.507 79.893 312.507 74.773 C 312.507 72.172 313.22 70.94 314.993 70.476 C 316.849 69.991 317.485 68.771 317.499 65.669 C 317.508 63.382 318.069 60.672 318.743 59.646 C 319.831 57.988 320.103 57.988 321.191 59.646 C 321.865 60.672 322.424 62.21 322.435 63.065 C 322.458 64.849 324.464 65.153 325.47 63.525 C 326.342 62.114 332.401 60.935 332.401 62.176 C 332.401 62.695 330.576 64.721 328.345 66.679 C 326.115 68.638 324.467 71.16 324.683 72.285 C 324.9 73.41 324.016 75.083 322.719 76.003 C 320.057 77.891 316.947 83.151 317.918 84.123 C 318.269 84.474 320.59 84.091 323.075 83.271 C 325.561 82.45 327.905 82.091 328.286 82.471 C 329.991 84.177 327.193 86.743 322.062 88.18 C 313.939 90.454 310.188 93.109 302.542 101.996 C 297.113 108.306 296.527 109.357 299.671 107.146 L 303.622 104.367 L 304.502 107.14 C 305.133 109.127 304.759 110.278 303.183 111.201 C 293.55 116.845 290.125 122.596 290.125 133.128 L 290.125 140.834 L 292.923 136.683 C 296.324 131.636 298.077 131.676 298.605 136.815 C 298.873 139.419 298.286 141.211 296.814 142.287 C 290.726 146.74 294.016 175.282 300.618 175.282 C 302.734 175.282 308.653 167.927 312.628 160.361 C 315.172 155.518 315.551 153.129 315.443 142.593 C 315.31 129.569 316.854 127.142 319.499 136.214 L 320.921 141.088 L 322.346 137.358 C 323.13 135.307 324.009 132.949 324.299 132.119 C 324.802 130.684 322.436 120.17 320.468 115.088 C 319.692 113.085 319.983 112.826 322.322 113.438 C 324.839 114.096 325.022 113.826 324.298 110.529 C 323.859 108.53 323.868 105.216 324.316 103.165 C 324.964 100.216 325.796 99.435 328.29 99.435 C 330.99 99.435 331.32 99.838 330.578 102.232 C 330.101 103.771 329.386 106.429 328.989 108.138 C 328.319 111.023 328.431 111.112 330.535 109.382 C 331.782 108.356 333.857 105.139 335.146 102.232 C 337.539 96.834 338.184 96.383 341.622 97.703 C 344.522 98.815 344.065 100.311 339.337 105.179 C 331.93 112.806 328.116 123.99 335.145 117.473 C 341.465 111.612 343.335 114.659 337.853 121.885 C 334.483 126.327 328.082 139.067 328.852 139.801 C 329.84 140.745 345.681 121.237 348.563 115.528 C 350.448 111.793 352.299 109.607 353.265 109.973 C 354.18 110.32 355.41 109.13 356.15 107.182 C 357.33 104.08 357.552 103.984 358.716 106.065 C 359.418 107.318 359.655 110.138 359.243 112.332 C 358.579 115.871 358.811 116.314 361.3 116.27 C 365.403 116.198 365.946 118.639 361.929 119.101 C 360.049 119.317 358.51 119.956 358.51 120.52 C 358.51 121.084 357.235 121.866 355.678 122.257 C 354.12 122.648 351.183 124.768 349.15 126.968 L 345.454 130.968 L 349.049 128.251 C 351.711 126.239 353.064 125.881 354.26 126.874 C 355.443 127.856 357.434 127.525 361.702 125.637 C 368.638 122.569 368.457 122.59 368.457 124.854 C 368.457 125.841 367.338 127.432 365.97 128.391 L 363.482 130.133 L 365.97 132.384 C 367.338 133.622 368.457 135.108 368.457 135.686 C 368.457 137.364 363.682 136.903 359.691 134.84 C 356.409 133.142 355.639 133.141 352.372 134.831 C 346.887 137.667 346.902 138.705 352.455 140.368 C 359.146 142.373 357.562 143.567 348.148 143.612 C 337.95 143.662 335.315 145.605 325.622 160.225 C 309.702 184.239 304.496 205.514 304.746 245.533 C 304.847 261.716 305.504 272.023 306.834 278.254 C 307.901 283.257 308.774 289.479 308.774 292.08 C 308.774 302.134 320.416 334.026 331.959 355.591 L 335.628 362.446 L 340.809 358.805 C 347.819 353.878 357.656 352.921 362.442 356.7 C 366.413 359.834 372.198 370.969 372.16 375.402 C 372.123 379.993 367.955 388.485 364.585 390.846 C 360.676 393.584 351.332 393.455 347.009 390.605 C 342.956 387.932 334.886 378.759 334.886 376.825 C 334.886 374.099 332.763 375.675 322.633 385.927 C 311.588 397.105 311.343 397.892 317.242 403.232 C 319.655 405.415 319.885 405.355 325.489 401.077 C 328.659 398.657 333.536 395.993 336.326 395.157 C 340.785 393.821 341.946 393.93 345.914 396.054 C 352.147 399.392 356.382 407.761 355.605 415.207 C 355.124 419.814 354.072 421.654 349.38 426.086 C 341.023 433.983 335.533 433.453 325.474 423.777 L 320.415 418.911 L 314.4 426.409 C 311.092 430.534 307.746 433.908 306.965 433.908 C 306.08 433.908 305.73 435.507 306.038 438.144 L 306.533 442.38 L 311.694 440.037 C 324.763 434.103 336.474 441.043 334.449 453.523 C 332.424 466 317.156 468.702 306.287 458.506 L 301.936 454.424 L 287.636 461.778 C 279.772 465.822 270.423 471.196 266.862 473.718 L 260.387 478.305 L 263.865 481.637 C 265.777 483.47 268.593 487.474 270.122 490.535 C 272.492 495.28 272.699 496.713 271.529 500.258 C 268.294 510.06 257.901 514.626 248.318 510.455 L 248.32 510.455 Z"/>
    <path d="M 251.16 13.329 C 250.815 12.474 250.533 13.174 250.533 14.884 C 250.533 16.593 250.815 17.293 251.16 16.438 C 251.505 15.583 251.505 14.184 251.16 13.329 Z"/>
    <path d="M 263.491 507.411 C 267.888 504.729 270.851 498.665 269.776 494.548 C 268.326 488.995 259.699 479.448 252.117 475.006 C 242.96 469.641 223.932 455.357 213.317 445.879 C 209.027 442.048 204.047 438.546 202.25 438.094 C 197.946 437.014 191.222 440.646 189.583 444.935 C 186.497 453.014 186.574 453.701 191.057 458.185 C 196.666 463.793 203.398 464.177 209.284 459.224 C 211.971 456.963 212.785 455.541 211.899 454.656 C 211.013 453.77 209.654 454.404 207.531 456.694 C 203.656 460.876 198.96 460.978 194.949 456.967 C 191.348 453.366 190.876 447.044 193.955 443.642 C 198.051 439.116 202.586 440.865 213.786 451.288 C 224.138 460.922 234.135 468.399 246.118 475.471 C 259.083 483.122 267.744 491.396 267.744 496.13 C 267.744 498.067 266.314 501.317 264.525 503.443 C 258.45 510.663 247.812 507.483 245.923 497.883 C 245.415 495.305 246.123 492.485 248.302 488.406 C 250.756 483.813 251.046 482.461 249.69 481.941 C 246.827 480.843 242.255 489.647 242.255 496.258 C 242.255 507.517 253.571 513.46 263.491 507.411 Z" style="fill: rgb(255, 255, 255);"/>
    <path d="M 267.43 470.729 C 270.68 468.414 277.898 464.24 283.47 461.454 C 289.042 458.668 299.228 453.009 306.106 448.879 C 312.983 444.748 319.149 441.368 319.809 441.368 C 321.733 441.368 326.184 449.451 326.184 452.946 C 326.184 454.812 325.069 456.929 323.512 458.02 C 321.208 459.633 320.381 459.654 317.515 458.172 C 315.686 457.226 313.463 455.577 312.574 454.506 C 310.803 452.372 306.843 451.9 305.736 453.691 C 305.351 454.314 307.387 456.552 310.26 458.664 C 317.184 463.756 324.794 464.009 329.5 459.303 C 332.281 456.521 332.617 455.341 332.053 450.337 C 331.236 443.087 327.927 440.125 320.645 440.125 C 315.205 440.125 306.648 444.123 276.322 460.836 C 260.428 469.595 257.27 471.838 258.357 473.597 C 259.656 475.699 261.094 475.244 267.43 470.729 Z" style="fill: rgb(255, 255, 255);"/>
    <path d="M 248.89 450.765 C 256.545 448.065 261.392 444.013 266.687 435.891 C 273.47 425.488 273.329 420.514 266.043 413.228 C 261.873 409.059 259.678 407.797 256.598 407.797 C 249.104 407.797 241.623 414.733 241.64 421.666 C 241.659 429.927 248.103 441.652 251.478 439.566 C 252.612 438.865 252.129 437.671 249.675 435.109 C 247.368 432.702 246.12 429.814 245.673 425.854 C 245.101 420.774 245.437 419.668 248.535 416.434 C 251.208 413.644 253.165 412.77 256.741 412.77 C 260.772 412.77 261.885 413.428 264.591 417.411 C 270.01 425.385 268.427 430.481 257.557 440.049 C 251.61 445.284 244.764 448.829 240.603 448.829 C 239.309 448.829 236.157 447.408 233.599 445.672 C 229.807 443.099 228.605 442.8 227.096 444.053 C 225.473 445.4 225.527 445.805 227.532 447.34 C 234.366 452.569 240.837 453.607 248.891 450.765 L 248.89 450.765 Z" style="fill: rgb(255, 255, 255);"/>
    <path d="M 281.82 451.226 C 287.559 449.632 297.02 441.549 295.235 439.764 C 294.443 438.971 292.188 440.115 288.761 443.048 C 282.7 448.236 277.925 449.455 268.35 448.259 C 261.242 447.371 259.381 448.657 264.325 451.041 C 267.973 452.801 275.85 452.884 281.82 451.226 Z" style="fill: rgb(255, 255, 255);"/>
    <path d="M 228.888 433.426 C 232.208 427.403 232.381 422.37 229.677 410.396 C 227.369 400.177 224.115 395.043 221.547 397.57 C 220.228 398.868 220.236 399.636 221.595 401.812 C 224.35 406.223 227.956 417.861 227.956 422.34 C 227.956 426.614 224.656 434.231 220.184 440.279 C 218.803 442.147 218.126 444.283 218.648 445.127 C 219.727 446.874 224.448 441.48 228.888 433.426 Z" style="fill: rgb(255, 255, 255);"/>
    <path d="M 302.869 438.138 C 301.212 418.969 301.155 413.916 302.55 409.689 C 303.858 405.726 303.791 404.765 302.085 403.059 C 299.345 400.319 298.076 401.95 295.685 411.284 C 293.539 419.661 293.789 422.461 297.794 434.903 C 300.371 442.906 303.45 444.87 302.868 438.138 L 302.869 438.138 Z" style="fill: rgb(255, 255, 255);"/>
    <path d="M 171.907 422.813 C 165.08 415.986 167.952 402.823 176.268 402.823 C 178.143 402.823 181.732 405.069 185.728 408.743 L 192.167 414.664 L 185.868 420.556 C 182.404 423.796 178.663 426.447 177.556 426.447 C 176.448 426.447 173.906 424.812 171.907 422.813 Z M 209.888 425.177 C 204.78 420.032 200.601 415.377 200.601 414.83 C 200.601 413.907 204.839 408.99 225.307 386.165 C 232.938 377.656 237.953 373.181 250.682 363.527 C 255.816 359.633 256.407 358.745 255.034 356.987 C 250.676 351.407 250.383 351.535 237.336 364.724 C 230.475 371.659 220.73 382.089 215.682 387.902 C 210.634 393.715 204.068 400.893 201.091 403.853 L 195.679 409.235 L 188.449 404.164 C 180.233 398.4 175.215 397.695 170.918 401.699 C 160.291 411.599 167.7 431.169 180.971 428.255 C 182.93 427.824 187.04 425.559 190.104 423.22 L 195.675 418.967 L 206.531 428.156 C 220.569 440.039 222.737 438.116 209.888 425.177 Z" style="fill: rgb(255, 255, 255);"/>
    <path d="M 316.138 417.004 C 314.976 415.603 313.817 416.409 309.879 421.355 C 302.538 430.575 303.657 433.634 311.353 425.382 C 316.275 420.105 317.268 418.365 316.138 417.004 Z" style="fill: rgb(255, 255, 255);"/>
    <path d="M 347.771 424.806 C 352.636 420.276 353.538 418.711 353.538 414.81 C 353.538 408.045 349.26 400.5 344.233 398.399 C 340.624 396.891 339.349 396.897 334.974 398.442 C 328.859 400.599 323.789 404.118 323.736 406.243 C 323.678 408.552 325.559 408.146 330.522 404.779 C 339.708 398.545 344.761 399.374 348.235 407.685 C 349.809 411.451 349.771 412.447 347.894 416.61 C 343.83 425.623 334.992 426.068 327.448 417.64 C 325.043 414.953 313.199 402.547 301.128 390.071 C 263.871 351.565 252.782 336.056 247.303 314.794 C 244.135 302.497 238.53 237.643 239.768 227.603 C 242.217 207.743 250.767 173.546 254.232 169.749 C 255.921 167.899 255.459 164.978 252.962 161.731 L 250.669 158.748 L 244.875 169.377 C 238.035 181.925 236.143 183.938 234.344 180.577 C 232.966 178.002 230.075 162.927 227.845 146.684 C 226.367 135.923 223.452 127.008 214.303 105.275 C 208.287 90.983 207.154 83.737 209.266 73.049 C 211.215 63.19 211.802 44.781 210.158 45.107 C 209.491 45.239 208.446 43.509 207.835 41.262 C 207.224 39.015 206.258 37.465 205.689 37.816 C 205.12 38.168 205.505 41.04 206.545 44.199 C 208.055 48.784 208.118 50.139 206.86 50.917 C 205.612 51.688 205.592 52.823 206.762 56.369 C 207.575 58.832 208.02 62.116 207.751 63.666 C 207.278 66.393 207.215 66.374 205.827 63.066 C 204.112 58.978 202.697 58.439 204.196 62.444 C 205.497 65.919 207.317 93.218 206.248 93.218 C 204.787 93.218 198.199 77.856 196.827 71.251 C 196.075 67.628 194.938 64.341 194.3 63.947 C 193.662 63.553 193.132 61.165 193.121 58.641 C 193.111 56.117 192.557 53.212 191.889 52.186 C 190.467 49.999 191.488 63.94 193.255 70.837 C 195.165 78.292 194.535 78.835 189.727 73.884 C 185.889 69.932 184.994 69.481 184.64 71.321 C 184.404 72.549 185.323 74.332 186.682 75.284 C 192.84 79.598 206.592 103.631 211.171 118.084 C 212.095 121.002 211.86 120.926 207.311 116.829 C 204.646 114.43 199.888 110.842 196.738 108.855 C 193.588 106.869 189.139 102.501 186.852 99.15 C 181.911 91.909 179.674 90.101 182.559 95.68 C 183.691 97.869 184.335 100.392 183.992 101.288 C 183.61 102.283 186.728 105.151 192.003 108.659 C 201.301 114.841 209.961 125.177 215.01 136.115 C 216.813 140.02 218.826 148.806 220.424 159.74 C 223.39 180.03 223.554 183.992 221.428 183.971 C 220.573 183.962 216.516 180.221 212.413 175.656 C 208.31 171.091 203.232 165.643 201.129 163.548 C 191.789 154.246 187.098 142.048 186.768 126.203 C 186.602 118.273 186.067 114.432 185.167 114.727 C 184.423 114.971 183.535 117.925 183.193 121.291 L 182.572 127.412 L 179.563 123.194 C 177.909 120.874 175.226 115.838 173.601 112.003 L 170.647 105.031 L 171.464 110.491 C 171.964 113.83 174.478 119.349 177.936 124.695 C 182.807 132.224 190.365 149.921 189.185 151.031 C 188.967 151.236 183.573 146.899 177.198 141.394 C 165.689 131.453 160.872 124.715 158.316 114.978 C 157.592 112.222 157.303 111.937 157.209 113.889 C 157.139 115.342 157.927 118.926 158.96 121.854 C 159.993 124.782 160.671 127.345 160.467 127.55 C 160.262 127.754 157.646 124.31 154.652 119.896 C 148.4 110.676 146.813 109.378 151.434 117.263 C 153.173 120.229 154.61 123.447 154.629 124.412 C 154.673 126.721 162.476 135.065 165.482 136.019 C 166.776 136.43 169.472 138.518 171.473 140.659 L 175.111 144.552 L 172.003 143.625 C 170.293 143.113 165.283 141.742 160.869 140.577 C 155.802 139.239 151.562 137.195 149.368 135.032 C 146.916 132.616 145.891 132.166 145.891 133.506 C 145.891 134.551 147.15 136.068 148.689 136.879 C 150.228 137.689 151.766 138.743 152.108 139.222 C 152.45 139.7 156.367 141.257 160.812 142.682 C 165.257 144.107 173.49 147.876 179.107 151.058 C 188.116 156.163 190.259 158.113 197.298 167.617 C 201.686 173.542 206.958 182.307 209.012 187.094 C 218.852 210.022 223.391 271.958 217.349 300.865 C 213.553 319.031 210.811 325.138 197.49 345.096 L 184.503 364.555 L 187.268 366.813 C 189.974 369.025 190.09 369.002 192.814 365.742 C 194.345 363.911 198.9 357.65 202.938 351.829 C 213.951 335.951 226.456 325.199 230.858 327.822 C 236.069 330.927 241.907 336.686 251.423 348.114 C 257.403 355.294 268.668 367.044 276.456 374.225 C 284.244 381.405 300.157 396.586 311.819 407.958 C 323.481 419.331 333.862 428.939 334.888 429.309 C 339.345 430.916 342.33 429.873 347.771 424.806 Z" style="fill: rgb(255, 255, 255);"/>
    <path d="M 322.861 382.584 C 326.47 377.623 344.008 364.799 350.656 362.26 C 355.509 360.407 356.238 360.401 358.967 362.189 C 363.083 364.886 367.681 374.689 366.687 378.648 C 365.84 382.024 359.366 386.647 355.474 386.654 C 354.145 386.656 350.138 383.644 346.569 379.96 C 341.893 375.132 339.702 373.638 338.727 374.613 C 336.629 376.711 337.009 377.615 342.5 383.571 C 351.593 393.436 362.138 393.636 367.14 384.039 C 370.853 376.915 370.408 372.166 365.255 363.928 C 360.668 356.594 359.635 356.077 351.052 356.806 C 347.035 357.148 345.274 358.128 332.968 366.875 C 321.067 375.332 308.332 389.029 309.512 392.102 C 310.167 393.811 311.038 393.522 315.223 390.208 C 317.938 388.057 321.375 384.626 322.861 382.584 Z" style="fill: rgb(255, 255, 255);"/>
    <path d="M 174.532 385.962 C 181.038 379.342 181.225 378.971 178.915 377.258 C 175.606 374.805 173.558 375.015 172.642 377.9 C 171.495 381.512 164.797 386.659 161.243 386.659 C 156.938 386.659 150.865 380.337 150.865 375.855 C 150.865 370.8 154.95 363.851 158.713 362.506 C 161.357 361.56 162.991 362.042 167.899 365.218 C 171.182 367.343 180.302 373.118 188.167 378.053 C 196.031 382.987 203.646 387.794 205.088 388.735 C 207.291 390.171 207.934 390.176 209.107 388.763 C 210.221 387.419 207.247 384.845 194.35 375.99 C 175.541 363.076 164.22 356.816 159.687 356.822 C 147.522 356.841 141.64 374.134 149.765 385.992 C 153.331 391.196 156.161 392.682 162.72 392.792 C 167.209 392.867 168.449 392.15 174.532 385.962 Z" style="fill: rgb(255, 255, 255);"/>
    <path d="M 332.401 362.48 C 332.401 362.223 329.927 356.787 326.903 350.4 C 313.161 321.379 306.289 301.115 306.289 289.615 C 306.289 286.997 305.422 281.116 304.363 276.547 C 301.754 265.299 301.785 231.567 304.421 211.361 C 307.329 189.077 312.673 175.316 325.994 155.802 C 330.854 148.682 335.119 144.238 341.847 139.28 C 346.91 135.55 351.051 131.984 351.051 131.357 C 351.051 130.729 349.793 131.103 348.254 132.187 C 342.697 136.102 337.374 139.123 337.374 138.362 C 337.374 136.674 347.591 124.177 351.079 121.599 C 354.746 118.888 355.846 116.842 353.638 116.842 C 351.861 116.842 339.991 129.728 332.656 139.619 C 322.985 152.661 321.915 152.459 326.494 138.453 C 328.577 132.083 329.104 128.31 328.555 123.681 C 328.149 120.261 327.721 118.862 327.603 120.572 C 327.427 123.13 327.154 123.35 326.064 121.816 C 325.084 120.435 324.939 121.373 325.506 125.423 C 326.304 131.118 321.955 149.17 319.785 149.17 C 319.201 149.17 318.645 146.513 318.549 143.264 C 318.413 138.642 318.178 139.419 317.467 146.84 C 315.722 165.067 302.29 182.473 295.336 175.519 C 290.162 170.345 289.041 151.184 293.412 142.642 C 294.375 140.762 294.69 139.223 294.113 139.223 C 293.535 139.223 292.191 141.042 291.125 143.264 L 289.187 147.305 L 288.27 138.934 C 287.766 134.33 287.787 128.455 288.317 125.879 C 288.847 123.302 289.381 119.365 289.503 117.131 C 289.643 114.593 291.215 111.324 293.691 108.427 C 295.871 105.875 299.609 101.185 301.998 98.006 C 304.387 94.827 307.724 91.32 309.414 90.212 C 311.104 89.105 314.001 85.272 315.851 81.694 C 319.426 74.78 321.112 67.495 318.807 68.92 C 318.077 69.371 317.48 70.786 317.48 72.064 C 317.48 73.343 316.735 75.134 315.825 76.044 C 314.914 76.955 313.793 79.197 313.334 81.027 C 312.465 84.49 293.994 103.397 292.426 102.428 C 291.935 102.124 292.917 97.829 294.609 92.884 C 302.906 68.637 306.015 51.496 303.907 41.617 C 303.323 38.881 302.781 37.655 302.702 38.892 C 302.623 40.129 302.094 40.854 301.525 40.502 C 300.956 40.151 300.748 44.323 301.064 49.775 C 301.607 59.163 299.582 68.881 296.331 72.487 C 295.527 73.379 292.705 63.96 290.529 53.118 C 290.152 51.237 289.309 49.699 288.657 49.699 C 288.005 49.699 287.808 50.759 288.219 52.056 C 288.631 53.352 289.181 56.098 289.441 58.158 C 289.702 60.218 290.595 63.173 291.425 64.725 C 293.785 69.135 292.26 86.332 288.795 94.387 C 287.167 98.172 285.651 100.324 285.314 99.33 C 284.498 96.927 281.517 113.725 280.329 127.411 C 279.788 133.651 279.849 139.965 280.468 141.684 C 282.099 146.22 285.102 164.003 285.129 169.287 C 285.148 173.44 282.689 177.768 280.306 177.768 C 278.691 177.768 274.617 172.685 263.364 156.631 C 251.469 139.66 249.138 135.175 249.006 129.005 C 248.935 125.682 248.734 125.386 247.925 127.411 C 247.111 129.448 246.565 128.677 244.904 123.144 C 242.158 113.999 242.348 103.827 245.39 97.123 C 246.743 94.142 247.819 90.505 247.782 89.041 C 247.744 87.577 246.288 90.295 244.544 95.083 C 242.801 99.87 240.918 104.273 240.359 104.869 C 238.389 106.969 237.784 94.893 239.061 78.918 C 241.211 52.007 241.4 50.688 244.681 39.843 C 246.424 34.081 247.785 27.087 247.706 24.301 C 247.626 21.515 247.336 20.354 247.06 21.722 C 246.784 23.09 245.93 27.443 245.161 31.395 C 243.329 40.821 241.975 41.392 241.897 32.772 C 241.806 22.633 240.39 13.906 238.731 13.269 C 236.818 12.534 237.028 19.033 239.122 25.379 C 240.385 29.205 240.427 32.372 239.32 40.279 C 238.547 45.802 237.311 57.309 236.573 65.851 C 235.835 74.393 235.05 81.564 234.828 81.785 C 234.033 82.581 230.497 70.053 229.282 62.133 C 228.512 57.117 228.471 52.177 229.173 49.112 C 229.795 46.396 230.056 43.924 229.752 43.62 C 229.448 43.316 229.199 43.72 229.199 44.518 C 229.199 45.316 228.639 45.968 227.955 45.968 C 227.271 45.968 226.692 44.709 226.667 43.171 C 226.622 40.345 220.513 31.648 220.501 34.394 C 220.497 35.208 221.047 36.216 221.722 36.633 C 224.091 38.097 226.505 50.457 227.145 64.393 C 227.721 76.939 227.585 78.294 225.885 76.883 C 224.282 75.552 224.317 76.082 226.111 80.218 C 227.284 82.923 229.24 90.451 230.458 96.948 C 231.676 103.444 233.049 110.438 233.509 112.49 L 234.346 116.22 L 231.884 113.423 C 227.553 108.501 227.85 110.413 232.561 117.775 C 235.078 121.707 240.294 130.799 244.153 137.98 C 253.636 155.626 261.328 168.914 264.666 173.416 C 269.379 179.774 272.792 193.219 278.395 227.504 C 282.102 250.183 277.956 289.138 269.43 311.74 C 259.688 337.565 260.324 334.527 263.719 339.046 L 266.715 343.034 L 273.218 338.424 C 276.795 335.889 282.146 331.996 285.11 329.773 C 288.073 327.551 291.636 325.732 293.027 325.732 C 296.188 325.732 305.505 335.293 312.545 345.761 C 315.485 350.132 320.083 356.361 322.764 359.602 C 326.893 364.595 328.001 365.301 330.019 364.221 C 331.329 363.52 332.4 362.737 332.4 362.48 L 332.401 362.48 Z" style="fill: rgb(255, 255, 255);"/>
    <path d="M 269.461 134.871 C 273.968 118.596 275.722 95.201 273.925 75.322 C 272.507 59.639 272.959 51.802 275.455 48.782 C 276.154 47.936 276.422 46.451 276.051 45.483 C 275.679 44.515 276.158 42.69 277.116 41.427 C 278.073 40.163 278.848 38.011 278.838 36.643 C 278.829 35.275 277.158 37.751 275.125 42.145 C 271.929 49.055 271.323 52.128 270.636 64.892 C 270.2 73.009 269.413 79.205 268.887 78.662 C 268.361 78.119 266.956 71.645 265.764 64.275 C 263.335 49.262 264.3 39.327 269.232 28.561 C 270.642 25.483 271.958 21.765 272.158 20.297 C 272.357 18.829 273.4 15.928 274.474 13.85 C 275.72 11.441 276.076 9.121 275.456 7.446 C 274.685 5.361 273.931 6.821 271.802 14.514 C 267.845 28.818 263.556 40.995 262.476 40.995 C 261.954 40.995 261.472 37.498 261.404 33.224 C 261.337 28.949 260.819 22.375 260.254 18.614 L 259.226 11.775 L 259.505 20.205 C 259.731 27.026 259.45 28.507 258.031 27.962 C 256.76 27.475 256.522 27.893 257.166 29.479 C 257.655 30.684 258.529 35.721 259.108 40.672 C 259.687 45.624 260.744 51.779 261.459 54.35 C 263.157 60.467 263.116 62.493 261.316 61.38 C 260.284 60.743 260.157 61.173 260.88 62.861 C 262.309 66.201 267.193 85.541 268.204 91.864 C 268.759 95.337 268.613 96.863 267.773 96.344 C 266.223 95.386 266.225 95.156 267.714 103.007 C 269.068 110.145 266.935 123.371 262.517 135.234 C 260.203 141.445 260.183 141.993 262.156 145.003 C 263.312 146.768 264.718 147.717 265.304 147.127 C 265.886 146.541 267.757 141.026 269.461 134.871 Z" style="fill: rgb(255, 255, 255);"/>
    <path d="M 356.336 130.939 C 355.481 130.594 354.082 130.594 353.228 130.939 C 352.373 131.284 353.072 131.566 354.782 131.566 C 356.492 131.566 357.191 131.284 356.336 130.939 Z"/>
    <path d="M 333.762 124.083 C 334.746 122.243 334.75 121.754 333.776 122.356 C 333.027 122.819 331.796 124.353 331.041 125.765 C 330.056 127.605 330.052 128.094 331.027 127.492 C 331.775 127.029 333.006 125.495 333.761 124.083 L 333.762 124.083 Z"/>
    <path d="M 252.736 110.729 C 252.858 104.794 252.043 106.331 251.142 113.733 C 250.632 117.919 250.755 119.138 251.517 117.464 C 252.139 116.096 252.688 113.065 252.736 110.729 Z"/>
    <path d="M 177.921 95.92 C 174.833 92.62 171.908 88.661 171.42 87.123 C 170.932 85.585 170.262 84.596 169.932 84.926 C 168.193 86.665 179.353 101.921 182.364 101.921 C 183.007 101.921 181.008 99.221 177.921 95.92 Z" style="fill: rgb(255, 255, 255);"/>
    <path d="M 262.771 86.305 C 262.771 85.239 262.202 84.718 261.507 85.148 C 260.812 85.577 260.565 86.45 260.959 87.086 C 262.025 88.811 262.771 88.489 262.771 86.305 Z"/>
    <path d="M 252.054 85.071 C 252.479 83.964 252.271 83.465 251.566 83.901 C 250.89 84.319 250.337 85.187 250.337 85.83 C 250.337 87.619 251.228 87.225 252.054 85.071 Z"/>
    <path d="M 182.468 66.662 C 181.668 64.579 179.463 63.81 179.463 65.614 C 179.463 66.824 182.237 69.72 182.829 69.128 C 183.061 68.896 182.899 67.786 182.468 66.662 Z"/>
    <path d="M 214.191 33.638 C 214.312 26.053 213.516 27.66 212.703 36.643 C 212.295 41.147 212.439 43.118 213.066 41.617 C 213.636 40.249 214.143 36.659 214.191 33.638 Z" style="fill: rgb(255, 255, 255);"/>
  </g>
  <g transform="matrix(1, 0, 0, 1, 12, -5.295077)">
    <path d="M 363.38 150.464 C 363.16 150.718 343.279 180.067 342.166 182.214 C 338.36 189.531 336.113 195.617 335.289 200.828 C 335.098 202.042 335.003 203.389 335 204.818 C 335.001 205.427 335.016 206.048 335.043 206.665 C 335.191 209.706 335.713 213 336.573 216.115 C 338.176 221.939 341.229 227.418 345.067 231.486 C 345.74 232.194 346.442 232.867 347.173 233.504 C 352.139 237.796 357.768 239.999 363.783 240 C 369.797 239.999 375.427 237.796 380.393 233.504 C 381.123 232.867 381.825 232.194 382.498 231.486 C 386.337 227.418 389.39 221.939 390.993 216.115 C 391.853 213 392.374 209.706 392.522 206.665 C 392.55 206.048 392.565 205.427 392.566 204.818 C 392.562 203.389 392.466 202.042 392.276 200.828 C 391.452 195.617 389.206 189.531 385.4 182.214 C 384.286 180.067 364.406 150.718 364.186 150.464 L 363.783 150 L 363.38 150.464 Z" style="fill: url(#color-0);"/>
    <path d="M 403.38 50.464 C 403.16 50.718 383.279 80.067 382.166 82.214 C 378.36 89.531 376.113 95.617 375.289 100.828 C 375.098 102.042 375.003 103.389 375 104.818 C 375.001 105.427 375.016 106.048 375.043 106.665 C 375.191 109.706 375.713 113 376.573 116.115 C 378.176 121.939 381.229 127.418 385.067 131.486 C 385.74 132.194 386.442 132.867 387.173 133.504 C 392.139 137.796 397.768 139.999 403.783 140 C 409.797 139.999 415.427 137.796 420.393 133.504 C 421.123 132.867 421.825 132.194 422.498 131.486 C 426.337 127.418 429.39 121.939 430.993 116.115 C 431.853 113 432.374 109.706 432.522 106.665 C 432.55 106.048 432.565 105.427 432.566 104.818 C 432.562 103.389 432.466 102.042 432.276 100.828 C 431.452 95.617 429.206 89.531 425.4 82.214 C 424.286 80.067 404.406 50.718 404.186 50.464 L 403.783 50 L 403.38 50.464 Z" style="fill: url(#color-0);"/>
    <path d="M 323.38 250.464 C 323.16 250.718 303.279 280.067 302.166 282.214 C 298.36 289.531 296.113 295.617 295.289 300.828 C 295.098 302.042 295.003 303.389 295 304.818 C 295.001 305.427 295.016 306.048 295.043 306.665 C 295.191 309.706 295.713 313 296.573 316.115 C 298.176 321.939 301.229 327.418 305.067 331.486 C 305.74 332.194 306.442 332.867 307.173 333.504 C 312.139 337.796 317.768 339.999 323.783 340 C 329.797 339.999 335.427 337.796 340.393 333.504 C 341.123 332.867 341.825 332.194 342.498 331.486 C 346.337 327.418 349.39 321.939 350.993 316.115 C 351.853 313 352.374 309.706 352.522 306.665 C 352.55 306.048 352.565 305.427 352.566 304.818 C 352.562 303.389 352.466 302.042 352.276 300.828 C 351.452 295.617 349.206 289.531 345.4 282.214 C 344.286 280.067 324.406 250.718 324.186 250.464 L 323.783 250 L 323.38 250.464 Z" style="fill: url(#color-0);"/>
  </g>
</svg>