<?xml version="1.0" encoding="utf-8"?>
<svg viewBox="0 0 500 500" xmlns="http://www.w3.org/2000/svg" xmlns:xlink="http://www.w3.org/1999/xlink" xmlns:bx="https://boxy-svg.com">
  <defs>
    <linearGradient id="color-0" bx:pinned="true">
      <title>blue</title>
      <stop style="stop-color: rgb(0, 145, 255);"/>
    </linearGradient>
    <symbol id="symbol-0" viewBox="0 0 69.869 100" bx:pinned="true">
      <title>Emerald</title>
      <g transform="matrix(0.199182, 0, 0, 0.199182, -16.051792, -0.990457)" style="">
        <path d="M 360.53 7.929 C 358.56 5.696 356.531 4.806 353.572 4.998 L 158.541 5 C 155.567 4.813 153.505 5.619 151.55 7.848 L 83.545 75.853 C 81.312 77.823 80.422 79.852 80.614 82.811 L 80.616 429.075 C 80.429 432.048 81.236 434.11 83.465 436.068 L 151.47 504.07 C 153.44 506.303 155.469 507.193 158.428 507.001 L 353.459 506.999 C 356.433 507.186 358.495 506.38 360.45 504.151 L 428.455 436.146 C 430.688 434.176 431.578 432.147 431.386 429.188 L 431.384 82.924 C 431.571 79.951 430.764 77.888 428.536 75.932 L 360.53 7.929 Z"/>
        <path d="M 361.384 118.602 L 411.384 97.888 L 411.384 414.111 L 361.384 393.398 L 361.384 118.602 Z" style="fill: rgb(79, 79, 79);"/>
        <path d="M 353.728 411.874 L 403.728 432.588 L 356.971 479.344 L 336.258 429.344 L 353.728 411.874 Z" style="fill: rgb(50, 50, 50);"/>
        <path d="M 317.781 437 L 338.495 487 L 173.505 487 L 194.219 437 L 317.781 437 Z" style="fill: rgb(79, 79, 79);"/>
        <path d="M 175.742 429.344 L 155.028 479.344 L 108.271 432.588 L 158.272 411.874 L 175.742 429.344 Z" style="fill: rgb(29, 29, 29);"/>
        <path d="M 150.616 393.397 L 100.616 414.111 L 100.616 97.889 L 150.616 118.602 L 150.616 393.397 Z" style="fill: rgb(79, 79, 79);"/>
        <path d="M 158.272 100.126 L 108.272 79.412 L 155.029 32.656 L 175.742 82.656 L 158.272 100.126 Z" style="fill: rgb(50, 50, 50);"/>
        <path d="M 194.219 75 L 173.505 25 L 338.495 25 L 317.781 75 L 194.219 75 Z" style="fill: rgb(79, 79, 79);"/>
        <path d="M 341.384 116.063 L 341.384 395.937 L 320.321 417 L 191.679 417 L 170.616 395.937 L 170.616 116.063 L 191.679 95 L 320.321 95 L 341.384 116.063 Z" style="fill: rgb(79, 79, 79);"/>
        <path d="M 336.258 82.656 L 356.972 32.656 L 403.729 79.412 L 353.728 100.126 L 336.258 82.656 Z" style="fill: rgb(129, 129, 129);"/>
      </g>
    </symbol>
  </defs>
  <g>
    <path d="M 465.975 0 L 465.975 5.675 C 465.129 38.776 466.216 71.985 466.282 105.144 C 466.263 112.529 466.217 119.912 466.138 127.296 C 465.862 144.233 465.146 161.147 463.59 178.018 C 463.063 181.531 462.488 185.031 461.856 188.517 C 440.342 300.6 380.01 372.311 318.418 444.104 C 301.328 463.082 264.181 496.57 249.882 505.592 L 249.882 0 Z" style="stroke-width: 5px; fill: rgb(255, 255, 255);"/>
    <path d="M 251.973 507 C 240.36 500.859 200.675 464.28 183.018 444.104 C 123.176 372.32 64.554 300.617 43.641 188.558 C 43.027 185.067 42.465 181.562 41.952 178.046 C 40.443 161.211 39.748 144.335 39.478 127.434 C 39.397 119.818 39.349 112.203 39.331 104.586 C 39.405 71.612 40.451 38.589 39.633 5.675 L 39.633 0 L 254.331 0 L 254.331 505.592 C 253.453 506.163 252.663 506.635 251.973 507 Z" style="stroke-width: 5px; fill: rgb(81, 81, 81);"/>
    <path d="M 41.302 0 L 41.302 2.836 L 41.302 5.675 C 42.12 38.589 41.074 71.612 41 104.586 C 41.018 112.203 41.066 119.818 41.147 127.434 C 41.417 144.335 42.112 161.211 43.621 178.046 C 44.134 181.562 44.696 185.067 45.31 188.558 C 66.223 300.617 124.845 372.32 184.687 444.104 C 202.344 464.28 242.029 500.859 253.642 507 C 265.254 500.861 304.941 464.281 322.598 444.104 C 382.449 372.311 441.075 300.6 461.981 188.517 C 462.595 185.031 463.154 181.531 463.666 178.018 C 465.178 161.147 465.874 144.233 466.142 127.296 C 466.219 119.912 466.264 112.529 466.282 105.144 C 466.218 71.985 465.162 38.776 465.984 5.675 L 465.984 2.836 L 465.984 0 Z" style="stroke-width: 10px; stroke: rgb(0, 0, 0); fill: none;"/>
  </g>
  <use width="63.999900817871094" height="91.58869934082031" transform="matrix(0.9280622601509094, 0, 0, 0.9280622601509094, 330, 150)" xlink:href="#symbol-0"/>
  <use width="63.999900817871094" height="91.58869934082031" transform="matrix(0.9280622601509094, 0, 0, 0.9280622601509094, 280, 260)" xlink:href="#symbol-0"/>
  <use width="63.999900817871094" height="91.58869934082031" transform="matrix(0.9279500246047974, 0, 0, 0.9280622601509094, 380, 40)" xlink:href="#symbol-0"/>
  <path style="stroke-width: 0.0846667; fill: rgb(255, 255, 255);" d="M 211.918 214.058 L 212.125 174.845 L 214.957 172.099 C 217.854 169.295 219.262 169.03 226.493 169.908 C 228.249 170.125 228.521 169.814 228.758 167.408 C 229.382 160.875 226.662 155.909 220.829 152.936 C 216.93 150.945 213.22 150.955 208.509 152.974 C 206.462 153.851 204.686 154.569 204.555 154.569 C 204.432 154.569 203.413 153.181 202.299 151.492 C 200.033 148.074 194.436 144.979 190.517 144.979 C 187.422 144.979 180.464 148.47 179.332 150.585 C 178.672 151.822 178.765 152.616 179.711 153.965 C 182.174 157.485 180.654 164.189 176.773 166.907 C 175.763 167.615 173.339 168.153 171.186 168.153 C 165.729 168.153 162.491 165.18 162.001 159.714 C 161.68 156.193 161.915 155.446 164.162 152.775 C 166.004 150.566 167.504 149.641 169.807 149.274 C 172.488 148.839 172.95 148.48 172.95 146.772 C 172.95 142.477 166.891 136.191 162.756 136.191 C 161.444 136.191 161.038 135.483 160.576 132.414 C 159.603 125.91 155.884 120.237 150.295 116.707 C 148.379 115.499 147.661 115.423 145.708 116.234 C 140.789 118.274 135.636 125.873 134.645 132.538 C 134.268 135.095 133.786 135.783 132.021 136.256 C 127.197 137.54 123.166 141.863 122.477 146.489 C 122.231 148.15 122.685 148.537 125.941 149.49 C 131.001 150.982 132.993 153.626 132.983 158.874 C 132.983 162.328 132.597 163.367 130.548 165.556 C 128.443 167.804 127.584 168.153 124.186 168.153 C 120.957 168.153 119.768 167.728 117.521 165.756 C 114.114 162.763 113.509 160.016 115.19 155.193 C 116.444 151.587 116.435 151.351 114.954 149.717 C 112.763 147.301 107.912 144.979 105.042 144.979 C 100.076 144.979 94.97 148.406 90.883 154.475 C 90.769 154.645 88.892 154.022 86.711 153.079 C 84.53 152.143 81.651 151.369 80.32 151.369 C 75.75 151.369 70.039 155.098 67.189 159.931 C 66.405 161.253 66.206 169.578 66.944 170.314 C 67.218 170.589 68.84 170.353 70.54 169.786 C 74.534 168.474 78.573 169.692 81.415 173.071 L 83.435 175.468 L 83.435 214.039 C 83.435 235.249 83.68 252.845 83.973 253.147 C 84.265 253.441 113.132 253.59 148.114 253.478 L 211.71 253.27 L 211.918 214.058 Z" id="path4496"/>
</svg>