<?xml version="1.0" encoding="utf-8"?>
<svg width="512px" height="512px" version="1.1" id="svg8" xmlns="http://www.w3.org/2000/svg">
  <g transform="matrix(1, 0, 0, 1, 25.999521, 0)">
    <path style="stroke-width: 5px; fill: rgb(255, 255, 255);" d="M 227.308 508.77 C 225.516 504.982 216.402 495.716 212.31 493.564 C 203.297 488.855 201.302 488.035 192.188 485.528 C 190.446 485.068 188.092 484.607 185.428 484.197 C 180.157 483.326 171.453 482.561 162.081 482.202 C 158.243 482.045 154.354 482.045 150.156 482.151 C 144.419 482.202 139.042 482.404 134.642 482.865 C 133.67 482.967 132.591 483.073 131.366 483.225 C 125.938 483.685 119.948 484.298 113.289 485.068 C 107.046 485.782 100.849 486.551 91.278 487.883 C 88.205 488.293 81.653 489.063 76.685 489.574 C 71.718 490.136 64.756 490.906 61.222 491.417 C 55.591 492.131 49.449 492.339 43.763 491.929 C 26.77 490.496 11.868 483.427 4.238 472.525 L 1.017 467.918 L 1.017 238.755 C -1.084 169.791 0.86 75.844 0.04 11.796 C -0.061 5.958 6.187 -0.387 13.2 0.018 L 447.564 0.018 C 454.577 -0.387 460.871 5.958 460.77 11.796 C 459.899 75.844 461.843 169.791 459.797 238.755 L 459.797 467.918 L 456.572 472.525 C 448.941 483.427 434.045 490.496 417.047 491.929 C 411.314 492.339 405.223 492.131 399.588 491.417 C 396.058 490.906 389.096 490.136 384.129 489.574 C 379.162 489.063 372.559 488.293 369.536 487.883 C 359.91 486.551 353.718 485.782 347.52 485.068 C 340.816 484.298 334.826 483.685 329.448 483.225 C 328.218 483.073 327.094 482.967 326.122 482.865 C 321.717 482.404 316.339 482.202 310.607 482.151 C 306.41 482.045 302.521 482.045 298.729 482.202 C 289.31 482.561 280.657 483.326 275.386 484.197 C 272.672 484.607 270.368 485.068 268.575 485.528 C 259.461 488.035 257.466 488.855 248.504 493.564 C 244.357 495.716 235.243 504.982 233.506 508.77 C 232.478 510.972 231.658 511.793 230.382 512 C 229.101 511.793 228.281 510.972 227.308 508.77 Z" id="path4605"/>
    <path d="M 1.017 238.755 C 0.4 218.512 0.132 196.117 0.04 172.957 L 460.739 172.957 C 460.654 196.117 460.398 218.512 459.797 238.755 L 459.797 333.874 L 1.017 333.874 Z" style="fill: rgb(128, 0, 128);"/>
    <path style="fill: none; stroke: rgb(0, 0, 0); stroke-width: 5px;" d="M 227.308 508.77 C 225.516 504.982 216.402 495.716 212.31 493.564 C 203.297 488.855 201.302 488.035 192.188 485.528 C 190.446 485.068 188.092 484.607 185.428 484.197 C 180.157 483.326 171.453 482.561 162.081 482.202 C 158.243 482.045 154.354 482.045 150.156 482.151 C 144.419 482.202 139.042 482.404 134.642 482.865 C 133.67 482.967 132.591 483.073 131.366 483.225 C 125.938 483.685 119.948 484.298 113.289 485.068 C 107.046 485.782 100.849 486.551 91.278 487.883 C 88.205 488.293 81.653 489.063 76.685 489.574 C 71.718 490.136 64.756 490.906 61.222 491.417 C 55.591 492.131 49.449 492.339 43.763 491.929 C 26.77 490.496 11.868 483.427 4.238 472.525 L 1.017 467.918 L 1.017 238.755 C -1.084 169.791 0.86 75.844 0.04 11.796 C -0.061 5.958 6.187 -0.387 13.2 0.018 L 447.564 0.018 C 454.577 -0.387 460.871 5.958 460.77 11.796 C 459.899 75.844 461.843 169.791 459.797 238.755 L 459.797 467.918 L 456.572 472.525 C 448.941 483.427 434.045 490.496 417.047 491.929 C 411.314 492.339 405.223 492.131 399.588 491.417 C 396.058 490.906 389.096 490.136 384.129 489.574 C 379.162 489.063 372.559 488.293 369.536 487.883 C 359.91 486.551 353.718 485.782 347.52 485.068 C 340.816 484.298 334.826 483.685 329.448 483.225 C 328.218 483.073 327.094 482.967 326.122 482.865 C 321.717 482.404 316.339 482.202 310.607 482.151 C 306.41 482.045 302.521 482.045 298.729 482.202 C 289.31 482.561 280.657 483.326 275.386 484.197 C 272.672 484.607 270.368 485.068 268.575 485.528 C 259.461 488.035 257.466 488.855 248.504 493.564 C 244.357 495.716 235.243 504.982 233.506 508.77 C 232.478 510.972 231.658 511.793 230.382 512 C 229.101 511.793 228.281 510.972 227.308 508.77 Z" id="path-2"/>
  </g>
  <g transform="matrix(1, 0, 0, 1, 25.999521, 0)">
    <path id="path-1" style="stroke-width: 0.0846667; fill: rgb(34, 139, 34);" d="M 176.752 158.159 C 175.512 157.979 171.509 157.451 167.84 156.964 C 164.194 156.479 160.266 155.778 159.111 155.405 C 157.872 155.025 155.052 154.205 152.849 153.595 C 147.501 152.13 138.277 147.89 133.022 144.479 C 123.21 138.129 113.054 127.035 110.357 119.709 C 108.412 114.565 108.665 102.603 110.883 95.034 C 115.181 80.093 123.657 71.131 140.31 63.887 C 146.56 61.143 147.187 61.025 153.806 61.381 C 161.792 61.768 167.631 63.964 171.284 67.567 C 174.903 71.136 176.218 75.804 174.763 81.732 C 173.438 87.467 169.033 96.452 167.181 97.29 C 166.827 97.48 166.694 97.508 166.493 97.494 C 166.308 97.482 166.3 97.476 166.089 97.272 C 165.56 96.761 165.056 95.728 164.364 93.764 C 163.073 90.161 161.172 87.169 158.927 85.179 C 156.66 83.17 153.801 82.037 150.896 81.985 C 148.176 81.993 145.572 82.78 143.532 84.232 C 141.497 85.68 139.804 87.927 138.698 90.617 C 137.328 94.082 137.261 95.437 138.25 98.68 C 140.458 105.477 146.12 111.129 155.693 116.038 C 162.334 119.406 167.599 120.625 175.284 120.578 C 183.931 120.483 192.119 117.759 203.969 111.018 C 215.121 104.657 218.713 102.836 225.028 100.365 C 242.029 93.681 249.589 88.454 253.268 80.948 C 256.903 73.261 256.293 59.524 251.724 46.479 C 249.927 41.53 245.835 37.41 241.591 35.395 C 239.45 34.378 237.102 33.815 235.035 33.894 C 232.948 33.975 230.86 34.802 229.345 36.267 C 228.162 37.464 226.302 40.139 225.218 42.193 C 224.098 44.373 223.278 45.201 222.426 45.284 C 222.061 45.32 221.889 45.252 221.458 44.877 C 220.981 44.463 220.539 43.858 220.045 42.886 C 219.238 41.362 218.6 38.23 218.589 35.73 C 218.534 31.917 218.788 31.105 220.981 28.647 C 224.843 24.126 231.58 21.582 239.388 21.582 C 247.408 21.582 258.195 22.948 261.899 24.439 C 266.787 26.358 271.849 30.342 273.57 33.622 C 275.638 37.392 276.837 47.198 277.034 61.759 C 277.163 71.777 278.36 81.376 279.617 82.728 C 279.917 82.955 280.459 83.191 280.829 83.149 C 281.16 83.112 281.599 82.881 281.854 82.655 C 282.282 82.274 282.759 81.563 283.184 80.725 C 284.009 79.101 284.951 76.516 285.928 73.253 C 287.874 66.752 290.049 57.286 291.977 46.468 C 294.456 32.154 299.776 26.115 313.287 22.301 C 317.635 21.044 321.419 20.743 333.002 20.745 C 339.878 20.741 343.437 20.758 345.28 20.967 C 346.07 21.056 346.334 21.121 346.476 21.216 C 346.469 21.24 346.464 21.289 346.464 21.379 C 346.464 21.981 345.71 22.98 344.506 23.698 C 339.604 26.776 325.706 40.727 322.631 45.656 C 315.274 57.618 314.08 67.141 317.16 89.842 C 318.261 97.936 319.328 109.328 319.537 115.162 C 319.899 125.331 319.867 125.688 317.561 130.254 C 315.308 134.812 315.026 136.334 315.217 143.518 C 315.356 148.09 315.172 151.389 314.752 151.78 C 314.34 152.432 309.845 152.453 293.97 152.244 C 282.638 152.096 272.949 151.8 272.205 151.591 C 271.654 151.509 270.187 149.651 268.866 147.409 C 267.481 145.078 265.881 142.844 265.302 142.439 C 264.504 142.148 260.384 143.186 256.236 144.762 C 247.193 148.195 233.745 152.168 223.395 154.47 C 209.265 157.605 185.979 159.451 176.752 158.159 Z"/>
    <path id="path4509" style="fill: rgb(0, 0, 0); stroke-width: 0.0846667;" d="M 228.478 28.099 C 229.224 28.051 229.193 27.891 228.384 27.581 C 226.766 26.976 222.887 30.599 222.887 32.72 C 222.887 34.105 223.349 33.817 225.135 31.308 C 226.387 29.585 227.879 28.129 228.478 28.099 Z M 308.44 76.762 C 311.372 76.871 311.739 76.642 312.223 74.332 C 313.684 67.413 311.657 67.611 303.163 75.208 L 300.053 77.996 L 302.618 77.32 C 304.035 76.943 306.652 76.693 308.44 76.762 Z M 311.866 146.293 C 311.866 141.475 310.837 138.608 309.091 138.608 C 306.98 138.608 306.894 140.061 308.976 140.49 C 310.079 140.709 309.407 141.356 306.664 142.711 C 302.596 144.721 291.896 146.275 289.048 145.269 C 287.567 144.751 287.629 144.603 289.626 143.875 C 295.228 141.825 295.774 141.854 278.717 143.326 C 272.726 143.855 272.159 144.114 273.399 145.847 C 275.134 148.276 278.107 148.674 294.735 148.694 L 311.866 148.724 Z M 297.634 66.654 C 297.634 65.201 300.189 62.433 302.691 61.177 C 305.013 60.013 310.982 59.873 310.982 60.989 C 310.982 61.657 299.349 67.79 298.077 67.79 C 297.834 67.79 297.634 67.273 297.634 66.654 Z M 255.144 105.171 C 253.504 104.544 253.776 103.179 255.899 101.436 C 257.717 99.932 263.656 97.672 264.213 98.26 C 265.065 99.146 262.594 102.571 260.061 104.026 C 256.982 105.817 256.887 105.837 255.144 105.171 Z M 240.43 105.211 C 239.599 104.424 241.438 102.96 248.753 98.569 C 252.389 96.378 257.055 93.041 259.126 91.15 C 263.446 87.197 264.634 87.406 262.458 91.757 C 260.082 96.478 252.463 102.562 246.767 104.265 C 241.228 105.917 241.185 105.927 240.43 105.211 Z M 276.278 130.611 C 275.543 130.432 273.346 130.044 271.401 129.736 C 265.431 128.81 270.635 126.988 279.611 126.869 C 282.184 126.838 284.287 126.429 284.287 125.962 C 284.287 125.494 283.08 125.115 281.618 125.115 C 280.146 125.115 278.948 124.786 278.948 124.387 C 278.948 123.641 280.189 123.394 294.515 121.311 C 298.917 120.665 304.887 119.36 307.777 118.413 C 314.346 116.252 314.325 116.252 311.173 118.772 C 307.484 121.709 300.022 125.115 297.278 125.115 C 296.006 125.115 294.965 125.542 294.965 126.071 C 294.965 127.047 304.835 126.668 310.532 125.465 C 315.136 124.498 311.907 126.509 305.643 128.511 C 301.23 129.915 297.214 130.421 288.733 130.64 C 282.615 130.8 277.003 130.79 276.278 130.611 Z M 202.865 143.994 C 196.39 143.397 189.959 140.958 189.959 139.115 C 189.959 138.857 190.99 139.026 192.241 139.473 C 195.391 140.609 210.926 140.42 221.1 139.125 L 229.561 138.04 L 219.124 137.691 C 210.442 137.392 208.435 137.075 207.112 135.771 C 205.575 134.256 205.628 134.217 208.645 134.635 C 212.682 135.183 225.094 133.789 233.565 131.826 C 242.918 129.665 255.931 126.291 257.928 125.504 C 259.168 125.026 259.505 125.164 259.211 126.04 C 258.463 128.201 243.181 135.093 236.234 136.397 C 233.733 136.866 242.594 136.238 248.552 135.521 C 250.676 135.262 252.81 135.43 253.293 135.89 C 254.133 136.685 248.647 138.647 238.453 141.197 C 236.497 141.693 233.691 142.421 232.23 142.819 C 229.183 143.656 208.224 144.492 202.865 143.994 Z M 178.838 153.066 C 173.447 151.393 166.824 146.833 166.824 144.781 C 166.824 143.318 167.761 143.377 170.211 145.001 C 172.564 146.564 176.38 147.788 181.95 148.774 C 184.145 149.173 187.752 149.87 189.959 150.327 C 192.155 150.786 195.886 151.552 198.251 152.03 C 200.605 152.519 202.865 153.105 203.275 153.346 C 203.685 153.583 205.355 153.513 206.996 153.195 C 209.886 152.637 209.907 152.598 207.753 152.02 C 206.534 151.691 204.126 151.383 202.413 151.333 C 197.148 151.194 183.514 146.055 181.108 143.298 C 179.597 141.575 181.108 141.535 184.924 143.198 C 196.19 148.107 215.656 148.287 238.904 143.706 C 248.036 141.903 248.91 141.803 248.364 142.64 C 247.396 144.123 256.014 141.693 262.763 138.577 C 264.969 137.562 266.516 137.323 267.534 137.841 C 269.531 138.857 283.037 138.817 288.437 137.781 C 290.803 137.332 296.343 136.366 300.746 135.64 C 305.151 134.913 309.554 134.157 310.532 133.958 C 311.508 133.759 313.244 132.285 314.377 130.692 C 316.228 128.103 316.438 126.827 316.427 118.772 C 316.417 113.813 316.206 109.562 315.966 109.322 C 315.713 109.093 313.841 110.149 311.813 111.673 C 307.073 115.228 294.965 119.091 294.965 117.049 C 294.965 116.164 297.487 114.162 298.602 114.162 C 299.213 114.162 299.494 113.952 299.233 113.715 C 298.97 113.465 296.963 113.715 294.775 114.272 C 292.579 114.829 290.028 114.998 289.091 114.651 C 287.756 114.142 289.227 113.155 296.174 109.901 C 300.999 107.629 306.781 104.354 309.019 102.621 L 313.097 99.455 L 310.919 103.108 C 309.731 105.13 307.599 107.689 306.2 108.815 C 303.142 111.244 303.53 112.07 307.083 110.697 C 313.126 108.357 315.376 107.332 315.733 106.754 C 315.944 106.426 315.66 103.777 315.103 100.868 L 314.084 95.6 L 310.857 97.672 C 309.081 98.818 305.791 100.192 303.541 100.73 C 298.897 101.835 294.083 101.167 295.691 99.634 C 296.974 98.43 302.87 96.487 305.308 96.468 C 307.504 96.448 313.307 94.287 314 93.222 C 314.262 92.823 314.063 91.11 313.568 89.408 L 312.666 86.31 L 310.299 88.971 C 307.462 92.176 301.882 94.726 297.666 94.746 C 294.735 94.765 294.661 94.696 296.133 93.29 C 296.985 92.485 300.977 90.304 304.991 88.441 L 312.317 85.078 L 312.59 81.491 C 312.801 78.654 312.57 77.907 311.435 77.907 C 309.606 77.907 305.466 79.937 300.924 83.055 C 297.594 85.335 294.965 86.182 294.965 84.956 C 294.965 84.668 295.765 83.203 296.742 81.71 L 298.518 78.983 L 296.101 79.421 L 293.684 79.86 L 295.334 77.409 C 299.076 71.833 305.466 67.79 310.52 67.79 C 312.58 67.79 312.759 67.482 312.759 64.045 C 312.759 61.986 313.158 60.063 313.653 59.785 C 314.746 59.138 314.83 55.991 313.758 55.991 C 313.326 55.991 311.823 56.559 310.415 57.246 C 307.019 58.919 302.86 58.948 303.53 57.284 C 304.182 55.673 310.93 52.615 313.831 52.615 C 315.587 52.615 316.48 51.908 317.636 49.598 C 318.466 47.937 318.917 46.362 318.634 46.092 C 318.351 45.824 315.387 46.811 312.034 48.274 C 302.511 52.426 299.79 51.341 307.242 46.362 C 309.911 44.579 312.287 43.803 315.88 43.514 C 320.725 43.136 320.935 43.007 324.868 38.176 C 330.617 31.088 330.079 31.248 309.396 42.588 C 305.907 44.5 305.643 44.53 305.643 42.996 C 305.643 41.074 314.063 34.472 317.888 33.388 C 319.833 32.831 323.248 32.381 325.487 32.381 C 329.145 32.381 330.017 31.953 334.284 28.14 L 339.015 23.899 L 327.442 24.207 C 313.789 24.576 308.335 26.029 302.542 30.858 C 297.888 34.742 297.404 36.006 294.545 51.779 C 290.226 75.617 285.023 88.023 279.348 88.023 C 275.123 88.023 274.754 86.392 273.157 60.851 C 271.728 37.769 271.181 35.677 265.557 31.386 C 261.312 28.159 253.714 25.63 248.259 25.641 L 243.801 25.65 L 248.542 27.741 C 253.344 29.863 261.932 35.647 262.006 36.803 C 262.069 37.928 260.491 37.5 253.524 34.493 C 249.772 32.87 246.24 31.554 245.694 31.565 C 244.358 31.605 249.719 35.749 251.117 35.749 C 252.61 35.758 258.506 38.924 260.881 40.995 C 263.319 43.136 265.885 48.135 265.128 49.289 C 264.791 49.797 262.583 48.571 259.831 46.342 L 255.111 42.52 L 257.212 49.888 C 258.779 55.363 259.326 59.505 259.346 66.048 C 259.379 75.806 258.559 78.903 254.343 85.057 C 252.767 87.357 251.632 89.408 251.842 89.597 C 252.043 89.786 253.661 88.85 255.447 87.507 C 257.223 86.173 259.505 84.51 260.501 83.831 C 264.044 81.402 260.577 85.953 254.692 91.44 C 248.111 97.573 243.204 100.919 236.876 103.577 C 230.653 106.196 217.065 112.588 212.671 114.959 C 210.726 116.015 208.204 117.21 207.069 117.618 C 204.001 118.723 205.575 116.532 210.801 112.439 C 215.582 108.705 215.257 107.979 210.243 111.205 C 208.435 112.37 206.544 113.316 206.029 113.316 C 205.514 113.316 205.094 113.694 205.094 114.162 C 205.094 114.621 204.484 114.998 203.758 114.998 C 203.023 114.998 202.413 115.286 202.413 115.637 C 202.413 115.984 201.509 116.681 200.406 117.2 C 199.312 117.716 195.98 119.3 193.007 120.733 C 185.186 124.498 180.417 125.405 170.924 124.936 C 163.4 124.559 161.959 124.199 154.739 120.824 C 145.951 116.721 134.791 107.42 134.791 104.204 C 134.791 103.239 134.392 102.223 133.896 101.934 C 133.415 101.645 133.015 99.376 133.015 96.877 C 133.015 94.377 133.415 92.106 133.896 91.818 C 134.392 91.529 134.791 90.613 134.791 89.776 C 134.791 87.745 141.286 80.854 144.744 79.222 C 146.278 78.495 149.769 77.907 152.521 77.907 C 156.726 77.907 158.017 78.296 160.646 80.347 C 162.369 81.691 164.555 84.16 165.502 85.834 C 166.458 87.496 167.499 88.869 167.824 88.869 C 169.106 88.869 169.432 84.608 168.381 81.582 C 167.13 77.986 163.799 75.497 157.86 73.725 C 152.553 72.143 151.848 71.384 154.727 70.349 C 157.524 69.344 163.463 70.011 167.078 71.744 C 169.485 72.889 169.526 72.869 168.411 71.185 C 167.781 70.229 165.784 68.747 163.967 67.9 C 161.235 66.616 159.795 66.476 155.518 67.084 C 150.293 67.821 146.857 69.055 144.754 70.938 C 144.123 71.504 142.864 72.461 141.969 73.057 C 140.162 74.252 133.908 83.663 133.908 85.176 C 133.896 85.704 133.268 87.577 132.488 89.328 C 131.416 91.767 130.891 92.246 130.282 91.33 C 128.043 87.984 130.556 77.378 134.696 72.71 C 136.273 70.926 137.208 69.473 136.786 69.473 C 135.222 69.473 128.874 76.115 126.782 79.937 C 125.226 82.787 125.185 95.81 126.73 96.299 C 127.243 96.458 127.675 97.154 127.675 97.831 C 127.675 98.508 129.483 102.711 131.7 107.181 C 134.402 112.618 135.432 115.576 134.832 116.144 C 133.415 117.487 127.455 110.298 122.892 101.754 C 120.907 98.021 120.549 96.239 120.518 89.946 C 120.486 83.105 120.392 82.707 119.215 84.649 C 118.395 86.023 117.932 89.328 117.913 94.108 C 117.89 100.112 118.28 102.322 120.044 106.106 C 122.882 112.171 126.624 117.259 133.109 123.82 C 143.104 133.948 132.837 130.044 121.927 119.578 C 118.742 116.512 117.449 114.681 115.442 110.369 C 114.348 107.998 113.487 106.894 113.466 107.839 C 113.423 110.947 117.584 117.916 121.895 121.979 C 126.509 126.33 136.745 133.55 138.291 133.55 C 138.805 133.55 139.236 133.838 139.236 134.186 C 139.236 134.534 140.54 135.372 142.127 136.028 C 145.121 137.284 147.246 138.895 147.246 139.921 C 147.246 141.466 137.807 138.588 130.113 134.694 C 127.549 133.39 126.888 133.808 128.78 135.521 C 134.622 140.828 149.736 148.375 160.151 151.173 C 166.962 153.006 184.334 154.767 178.838 153.066 Z M 176.611 159.149 C 175.38 158.97 171.378 158.442 167.708 157.955 C 164.04 157.467 160.036 156.75 158.817 156.361 C 157.586 155.983 154.78 155.167 152.584 154.559 C 147.16 153.066 137.796 148.764 132.478 145.318 C 122.568 138.885 112.216 127.545 109.419 120.057 C 107.443 114.729 107.685 102.453 109.923 94.754 C 114.337 79.61 123.093 70.33 139.909 62.971 C 146.268 60.193 147.121 60.034 153.857 60.382 C 170.127 61.219 178.638 69.613 175.737 81.959 C 174.372 87.805 169.706 97.124 167.635 98.181 C 165.848 99.086 164.85 98.13 163.421 94.098 C 160.94 87.097 156.326 83.014 150.891 82.985 C 145.752 82.956 141.706 85.844 139.625 90.991 C 138.291 94.296 138.237 95.313 139.204 98.379 C 141.286 104.971 146.699 110.328 156.147 115.147 C 162.674 118.473 167.708 119.638 175.276 119.578 C 183.768 119.509 191.713 116.851 203.474 110.149 C 214.647 103.777 218.304 101.925 224.663 99.434 C 241.564 92.803 248.857 87.824 252.367 80.515 C 255.953 73.068 255.322 59.714 250.781 46.811 C 247.427 37.291 235.393 31.576 230.055 36.971 C 228.93 38.098 227.155 40.656 226.103 42.658 C 223.687 47.258 221.289 47.487 219.156 43.344 C 218.304 41.692 217.61 38.335 217.589 35.738 C 217.559 31.764 217.936 30.62 220.227 27.99 C 224.286 23.331 231.4 20.582 239.388 20.582 C 247.471 20.582 258.443 21.987 262.268 23.51 C 267.282 25.501 272.6 29.713 274.45 33.148 C 276.574 37.093 277.833 47.129 278.034 61.746 C 278.16 71.714 279.2 80.965 280.303 82.001 C 282.342 83.932 287.146 67.88 290.993 46.292 C 293.589 31.735 299.264 25.303 313.011 21.34 C 317.456 20.065 321.378 19.745 333.001 19.745 C 346.76 19.737 347.464 19.816 347.464 21.379 C 347.464 22.285 346.371 23.709 345.036 24.546 C 340.223 27.553 326.485 41.343 323.481 46.183 C 316.195 57.942 315.072 67.134 318.151 89.707 C 319.254 97.822 320.326 109.264 320.536 115.127 C 320.894 125.383 320.81 125.981 318.456 130.7 C 316.248 135.123 316.018 136.407 316.217 143.488 C 316.354 148.117 316.048 151.801 315.503 152.438 C 314.767 153.264 309.858 153.453 293.957 153.244 C 282.615 153.096 272.704 152.777 271.916 152.548 C 271.127 152.31 269.375 150.228 268.006 147.919 C 266.64 145.617 265.202 143.536 264.791 143.298 C 264.391 143.058 260.701 144.133 256.591 145.697 C 247.512 149.142 233.995 153.136 223.612 155.446 C 209.413 158.592 185.943 160.445 176.611 159.149 Z"/>
  </g>
  <g transform="matrix(1, 0, 0, 1, 25.999521, 0)">
    <path style="stroke-width: 0.0846667; fill: rgb(34, 139, 34);" d="M 211.852 465.699 C 203.225 464.499 191.523 459.736 183.776 454.271 C 177.026 449.54 168.947 440.899 168.264 438.065 C 169.107 438.382 170.542 439.154 172.981 440.536 C 182.933 446.183 192.816 450.581 198.528 451.928 C 201.698 452.653 208.616 453.157 215.602 453.157 C 228.099 453.157 231.44 452.284 235.993 448.111 C 238.133 446.056 239.455 443.183 239.655 440.542 C 239.857 437.882 238.897 435.073 236.991 433.259 C 236.018 432.44 235.676 431.529 235.679 430.417 C 235.682 429.299 236.053 428.315 237.047 427.381 C 238.752 425.525 238.667 425.621 245.11 426.842 C 248.049 427.38 250.335 427.52 251.833 427.191 C 252.639 427.014 253.424 426.612 253.875 426.117 C 254.341 425.605 254.629 424.767 254.629 424.021 C 254.629 423.587 254.549 423.033 254.326 422.646 C 254.098 422.249 253.575 421.856 253.066 421.688 C 252.221 421.409 250.788 421.348 248.547 421.348 C 241.355 421.348 238.679 420.774 237.432 418.624 C 236.644 417.54 236.629 416.519 237.066 415.402 C 237.508 414.271 238.321 413.4 239.767 412.903 C 240.44 412.635 241.057 412.253 241.412 411.886 C 241.814 411.47 242.108 410.749 242.059 410.247 C 242.008 409.727 241.529 409.06 241.02 408.785 C 240.583 408.548 239.872 408.385 239.155 408.385 C 237.762 408.385 236.232 407.934 234.904 407.24 C 233.601 406.56 232.795 405.988 232.828 405.415 C 232.492 403.185 232.564 401.868 233.23 400.611 C 233.909 399.328 235.151 398.257 237.473 396.778 C 241.042 394.467 243.441 391.761 244.325 388.936 C 245.216 386.083 244.603 382.834 242.687 379.697 C 241.881 378.483 240.221 377.28 239.085 377.28 C 238.546 377.28 237.127 376.235 235.617 374.81 C 234.107 373.386 233.023 372.087 233.023 371.616 C 233.023 370.379 230.606 368.218 227.841 366.426 C 225.094 364.645 221.581 362.82 218.749 361.86 C 214.892 360.573 210.958 360.001 205.734 360.001 C 195.083 360.001 188.328 361.525 176.941 366.443 C 175.782 366.947 175 367.281 174.471 367.479 C 175.522 366.016 180.548 362.353 186.308 358.646 C 192.795 354.472 199.578 350.764 201.487 350.764 C 202.276 350.764 203.707 350.354 204.627 349.9 C 209.448 347.393 231.969 346.169 238.148 348.066 C 239.616 348.521 242.568 349.371 244.714 349.972 C 249.825 351.402 258.78 355.73 263.921 359.274 C 279.152 369.692 288.918 388.007 288.918 405.916 C 288.918 418.791 284.613 430.88 277.015 440.999 C 269.415 451.121 258.715 459.033 245.768 463.345 C 240.078 465.261 237.541 465.583 226.819 465.802 C 219.942 465.936 213.214 465.9 211.853 465.699 Z" id="path-3"/>
    <path style="fill: rgb(0, 0, 0); stroke-width: 0.0846667;" d="M 285.296 422.132 C 285.061 421.542 284.866 422.032 284.866 423.216 C 284.866 424.398 285.061 424.889 285.296 424.297 C 285.54 423.704 285.54 422.725 285.296 422.132 Z M 233.962 351.764 C 234.798 351.551 236.156 351.551 236.984 351.764 C 237.82 351.981 237.135 352.162 235.473 352.162 C 233.808 352.162 233.135 351.981 233.962 351.764 Z M 234.616 365.165 C 229.746 361.042 217.878 357.033 208.691 356.389 C 206.551 356.234 207.927 356.052 211.744 355.969 C 222.888 355.726 232.063 359.155 235.891 364.982 C 237.533 367.493 237.38 367.513 234.616 365.165 Z M 252.199 383.015 C 251.76 381.894 249.331 380.556 248.76 381.127 C 248.595 381.291 248.944 382.68 249.515 384.209 C 250.443 386.646 250.699 386.821 251.606 385.578 C 252.167 384.802 252.444 383.647 252.199 383.015 Z M 260.803 389.414 C 261.281 388.649 261.404 387.323 261.077 386.474 C 260.517 385.004 260.427 385.015 259.233 386.577 C 258.005 388.169 257.957 388.157 257.413 386.239 C 257.076 385.026 256.312 384.351 255.465 384.515 C 253.475 384.903 253.322 387.057 255.108 389.324 C 256.823 391.496 259.466 391.537 260.803 389.414 Z M 245.322 395.783 C 245.575 394.945 246.156 391.138 246.627 387.323 C 247.097 383.495 247.883 379.32 248.373 378.027 C 249.372 375.392 251.566 374.912 252.159 377.198 C 252.535 378.639 252.555 378.639 252.658 377.198 C 252.771 375.483 254.159 375.157 254.689 376.728 C 254.875 377.3 256.169 377.83 257.568 377.912 C 261.742 378.157 261.915 378.207 264.069 380.097 C 265.211 381.096 267.24 382.841 268.579 383.973 C 269.916 385.119 270.773 386.433 270.478 386.915 C 270.161 387.415 270.875 387.792 272.15 387.792 C 274.989 387.792 275.019 389.311 272.192 390.026 C 269.702 390.649 265.712 388.464 265.712 386.474 C 265.712 385.77 265.323 385.2 264.845 385.2 C 264.375 385.2 263.986 385.955 263.986 386.873 C 263.986 387.801 263.079 389.607 261.956 390.904 C 259.516 393.751 255.405 394.059 252.639 391.598 C 251.606 390.691 250.627 390.333 250.465 390.812 C 248.944 395.048 244.126 399.693 245.309 395.783 L 245.322 395.783 Z M 259.016 407.692 C 258.424 406.733 257.945 405.171 257.945 404.212 C 257.945 402.14 257.22 402.037 254.731 403.782 C 251.22 406.242 240.656 406.551 240.656 404.192 C 240.656 403.722 243.29 403.344 246.607 403.344 C 253.026 403.344 255.066 402.191 254.229 399.029 C 253.73 397.089 255.261 396.69 256.894 398.323 C 257.692 399.119 258.711 398.905 261.394 397.394 C 263.304 396.324 265.742 395.578 266.804 395.743 C 268.599 396.026 268.539 396.16 265.956 397.537 C 262.731 399.273 261.528 401.212 260.7 405.988 C 260.148 409.163 260.018 409.294 259.016 407.692 Z M 260.028 430.062 C 261.252 428.603 262.262 426.807 262.262 426.083 C 262.262 424.327 259.651 418.898 258.803 418.898 C 258.424 418.898 257.894 418.286 257.609 417.541 C 257.211 416.49 257.64 416.58 259.536 417.939 C 263.313 420.621 264.334 422.255 264.334 425.574 C 264.334 427.92 263.741 429.103 261.782 430.674 C 258.23 433.523 257.363 433.217 260.028 430.062 Z M 256.915 452.005 C 257.536 451.749 258.283 451.779 258.569 452.077 C 258.854 452.361 258.343 452.566 257.435 452.526 C 256.435 452.484 256.222 452.279 256.915 452.005 Z M 254.322 453.729 C 254.946 453.486 255.69 453.515 255.975 453.802 C 256.26 454.087 255.751 454.292 254.842 454.259 C 253.843 454.219 253.629 454.016 254.322 453.729 Z M 207.663 456.78 C 206.182 456.373 206.611 456.201 209.285 456.138 C 211.274 456.086 213.092 456.342 213.306 456.698 C 213.795 457.496 210.367 457.548 207.663 456.78 Z M 214.735 457.883 C 214.735 457.454 217.694 456.842 221.307 456.496 C 231.012 455.586 237.453 452.466 240.738 447.076 C 242.218 444.646 242.38 444.575 242.38 446.329 C 242.38 447.402 242.045 448.27 241.626 448.27 C 241.208 448.27 240.656 449.037 240.422 449.964 C 239.799 452.321 232.675 456.628 227.575 457.721 C 222.378 458.833 214.735 458.935 214.735 457.883 Z M 237.849 459.802 C 238.444 459.558 239.42 459.558 240.014 459.802 C 240.604 460.037 240.115 460.23 238.933 460.23 C 237.739 460.23 237.258 460.037 237.849 459.802 Z M 241.525 463.476 C 255.301 459.671 264.202 454.383 272.765 444.922 C 277.968 439.168 283.867 429.746 283.867 427.184 C 283.867 426.144 282.601 427.553 280.623 430.798 C 277.703 435.564 271.12 443.117 266.886 446.546 C 264.528 448.454 260.68 450.862 259.997 450.862 C 259.138 450.862 264.159 446.628 265.721 446.046 C 268.334 445.045 276.784 434.381 279.827 428.206 C 289.124 409.398 284.307 387.892 266.65 369.37 C 260.812 363.248 252.016 357.328 245.484 355.122 C 242.81 354.215 240.382 353.226 240.066 352.918 C 239.249 352.102 243.014 352.235 244.78 353.082 C 255.913 358.44 259.588 360.42 261.486 362.063 C 268.609 368.278 270.182 369.841 273.793 374.281 C 275.978 376.963 279.53 382.749 281.672 387.149 C 284.397 392.71 285.582 394.456 285.591 392.904 C 285.591 391.668 285.337 390.415 285.022 390.097 C 284.705 389.78 283.776 387.619 282.96 385.291 C 279.683 375.983 269.08 364.043 258.382 357.603 C 255.678 355.981 249.515 353.287 244.689 351.634 C 236.493 348.816 235.156 348.612 224.675 348.539 C 210.469 348.449 204.946 349.654 192.701 355.502 C 186.526 358.45 180.648 362.745 182.853 362.706 C 183.518 362.696 185.619 362.277 187.517 361.777 C 198.856 358.766 209.968 357.817 216.214 359.316 C 218.765 359.928 221.06 360.756 221.307 361.144 C 221.552 361.542 222.408 361.868 223.216 361.89 C 225.594 361.919 232.687 367.636 235.105 371.473 C 236.574 373.789 238.494 375.474 240.636 376.309 C 244.514 377.84 245.853 380.301 245.821 385.884 C 245.8 390.769 244.472 392.7 238.054 397.15 C 235.452 398.956 233.196 401.069 233.044 401.845 C 232.461 404.876 240.034 408.488 247.025 408.509 C 250.044 408.52 250.261 408.662 249.189 409.958 C 248.535 410.744 246.738 411.918 245.198 412.562 C 241.872 413.947 241.798 414.275 244.269 416.897 C 246.566 419.346 245.198 419.471 241.117 417.184 C 238.217 415.551 237.34 415.704 238.729 417.602 C 239.91 419.224 245.526 420.621 250.873 420.621 C 256.211 420.621 256.211 420.621 256.211 423.163 C 256.211 426.624 253.454 428.399 248.097 428.399 C 242.615 428.399 243.34 429.094 249.823 430.032 L 254.914 430.777 L 248.157 430.891 C 244.454 430.95 240.616 430.564 239.646 430.043 C 236.819 428.533 236.014 430.391 238.484 432.706 C 240.239 434.349 240.656 435.575 240.656 438.994 C 240.656 444.788 237.482 449.26 231.227 452.261 C 226.911 454.332 225.471 454.536 213.274 454.791 C 205.214 454.966 200.211 454.75 200.517 454.259 C 200.793 453.822 200.119 453.455 199.018 453.465 C 196.876 453.465 185.045 448.973 180.289 446.341 C 178.687 445.453 177.22 444.892 177.025 445.087 C 176.534 445.576 177.637 448.27 178.331 448.27 C 178.646 448.27 180.444 449.605 182.32 451.239 C 184.209 452.861 188.679 455.739 192.252 457.626 C 198.087 460.711 200.712 461.671 211.286 464.547 C 212.949 465.008 218.777 465.405 224.247 465.436 C 232.145 465.487 235.676 465.088 241.525 463.476 Z M 211.713 466.689 C 202.967 465.457 191.047 460.608 183.201 455.089 C 176.067 450.075 167.217 440.452 167.217 437.718 C 167.217 436.337 168.075 436.606 173.474 439.666 C 183.383 445.291 193.13 449.637 198.753 450.954 C 201.846 451.667 208.652 452.157 215.602 452.157 C 227.982 452.157 230.981 451.433 235.31 447.381 C 239.36 443.594 239.851 437.188 236.32 434.001 C 234.124 432.012 234.134 428.868 236.34 426.674 C 238.34 424.675 238.698 424.633 245.291 425.859 C 251.047 426.919 253.629 426.359 253.629 424.021 C 253.629 422.563 252.987 422.348 248.547 422.348 C 241.228 422.348 238.135 421.533 236.596 419.173 C 234.859 416.529 236.164 413.192 239.411 411.968 C 241.738 411.082 241.576 409.385 239.155 409.385 C 236.086 409.385 232.093 407.305 231.839 405.56 C 231.156 400.905 232.176 398.978 236.933 395.936 C 243.86 391.496 245.536 386.149 241.84 380.228 C 241.168 379.157 239.932 378.28 239.085 378.28 C 237.422 378.28 232.023 373.188 232.023 371.616 C 232.023 369.9 223.952 364.666 218.43 362.808 C 214.662 361.542 210.887 361.001 205.734 361.001 C 195.192 361.001 188.638 362.471 177.34 367.36 C 173.514 369.024 173.27 369.054 173.27 367.922 C 173.27 365.155 197.19 349.764 201.487 349.764 C 202.141 349.764 203.344 349.428 204.173 349.009 C 209.193 346.448 232.093 345.193 238.444 347.111 C 239.902 347.563 242.842 348.409 244.985 349.009 C 250.178 350.47 259.281 354.868 264.488 358.45 C 279.876 369.044 289.918 387.771 289.918 405.916 C 289.918 432.002 272.254 455.526 246.086 464.293 C 240.301 466.231 237.615 466.579 226.839 466.802 C 219.949 466.936 213.143 466.895 211.713 466.689 Z" id="path4610"/>
  </g>
  <g transform="matrix(1, 0, 0, 1, 25.999521, 0)">
    <path style="stroke-width: 0.0846667; fill: rgb(255, 215, 0);" d="M 187.569 311.735 C 187.697 309.985 201.408 268.492 200.818 267.337 C 198.757 264.416 154.414 235.972 154.885 235.146 C 155.676 233.758 203.538 235.01 212.353 233.764 C 212.754 233.598 226.004 190.012 229.419 191.479 C 231.788 192.147 246.723 232.981 248.795 233.816 C 250.538 234.35 294.793 234.607 304.509 234.823 C 303.92 235.238 259.535 265.23 258.961 267.081 C 259.096 274.608 274.329 309.788 272.392 311.353 C 268.335 310.786 259.425 303.261 254.996 300.192 C 246.339 294.198 239.643 288.826 229.693 283.785 C 228.573 283.639 218.779 290.606 218.319 290.92 C 210.438 296.304 202.912 302.189 194.902 307.19 C 194.603 307.406 187.544 312.074 187.569 311.735 Z" id="path-4"/>
    <path style="fill: rgb(0, 0, 0); stroke-width: 0.0846667;" d="M 243.103 238.504 C 245.483 235.323 245.574 234.449 243.897 230.606 C 243.155 228.887 237.127 214.017 233.011 203.711 C 231.832 200.754 230.51 198.334 230.083 198.334 C 229.139 198.334 229.158 218.724 230.103 221.132 C 230.662 222.545 230.896 222.241 231.384 219.395 C 232.593 212.291 233.58 213.195 233.743 221.569 C 233.834 226.063 233.986 230.321 234.099 231.033 C 234.2 231.744 234.322 235.119 234.374 238.535 C 234.453 243.973 234.648 244.685 235.908 244.196 C 237.046 243.759 237.228 243.993 236.772 245.294 C 236.142 247.093 238.814 244.226 243.093 238.504 L 243.103 238.504 Z M 270.386 247.652 C 269.552 247.427 268.382 247.448 267.802 247.682 C 267.223 247.916 267.905 248.088 269.328 248.079 C 270.75 248.058 271.229 247.866 270.386 247.642 L 270.386 247.652 Z M 181.814 239.906 C 182.433 239.662 183.185 239.693 183.47 239.977 C 183.755 240.272 183.246 240.476 182.342 240.436 C 181.336 240.394 181.132 240.191 181.814 239.917 L 181.814 239.906 Z M 217.561 246.99 C 217.827 246.298 216.768 243.881 215.204 241.614 C 212.377 237.497 212.356 237.487 206.42 236.949 C 196.764 236.075 167.187 236.105 167.736 236.99 C 168.01 237.427 170.256 238.402 172.737 239.165 C 175.216 239.927 178.479 240.943 179.995 241.421 C 181.996 242.062 183.194 242.01 184.435 241.237 C 185.736 240.424 186.916 240.405 189.436 241.136 C 191.247 241.665 195.057 242.722 197.903 243.493 C 200.74 244.267 205.18 245.467 207.764 246.168 C 210.344 246.879 212.632 247.621 212.855 247.845 C 213.76 248.749 217.114 248.139 217.561 246.981 L 217.561 246.99 Z M 227.278 226.967 C 226.943 214.038 226.323 203.599 225.845 203.131 C 225.388 202.664 225.012 202.492 225.012 202.734 C 225.012 202.98 222.683 210.035 219.847 218.409 C 217.002 226.794 214.685 233.981 214.685 234.388 C 214.685 235.616 225.988 249.969 226.953 249.969 C 227.583 249.969 227.684 242.904 227.278 226.967 Z M 214.897 250.254 C 214.308 250.02 213.333 250.02 212.744 250.254 C 212.152 250.498 212.632 250.691 213.82 250.691 C 215 250.691 215.489 250.498 214.897 250.254 Z M 232.451 242.225 L 231.466 233.188 L 231.029 240.069 C 230.795 243.86 230.744 248.445 230.917 250.263 C 231.172 253.007 231.425 253.374 232.34 252.418 C 233.234 251.484 233.255 249.491 232.463 242.225 L 232.451 242.225 Z M 224.148 252.977 C 223.486 252.185 221.697 251.707 219.522 251.748 L 215.976 251.809 L 218.984 252.977 C 220.641 253.608 222.725 254.166 223.608 254.197 C 224.941 254.248 225.033 254.045 224.148 252.977 Z M 248.246 250.966 C 261.654 246.848 268.018 244.846 274.065 242.835 C 277.611 241.665 282.836 240.009 285.682 239.175 C 288.519 238.331 291.213 237.324 291.659 236.918 C 292.108 236.521 282.39 236.197 270.06 236.197 L 247.637 236.197 L 241.061 244.745 C 237.431 249.45 234.474 253.669 234.474 254.136 C 234.474 254.981 237.259 254.34 248.246 250.966 Z M 243.084 257.715 C 244.263 256.789 245.716 256.016 246.315 256.007 C 246.915 255.997 248.074 255.652 248.898 255.224 C 250.718 254.299 254.233 252.825 255.993 252.246 C 256.826 251.97 256.633 251.799 255.444 251.758 C 253.472 251.688 245.35 253.914 242.881 255.204 C 242.056 255.641 240.624 255.986 239.699 255.986 C 237.798 255.986 236.691 257.287 237.483 258.569 C 238.317 259.92 240.725 259.554 243.084 257.715 Z M 278.202 245.934 C 278.821 245.689 279.564 245.72 279.849 246.005 C 280.134 246.29 279.624 246.493 278.72 246.463 C 277.723 246.423 277.511 246.219 278.202 245.944 L 278.202 245.934 Z M 276.311 252.795 C 285.256 246.798 293.094 241.37 293.743 240.718 C 295.369 239.113 294.261 238.301 291.913 239.398 C 290.856 239.896 285.723 241.685 280.519 243.371 C 275.142 245.11 272.073 246.463 273.414 246.483 C 274.715 246.502 275.782 246.817 275.782 247.184 C 275.782 247.927 266.532 251.484 257.285 254.308 C 253.97 255.325 249.609 256.941 247.597 257.917 L 243.928 259.676 L 246.305 260.917 C 249.639 262.655 257.008 264.544 258.676 264.077 C 259.438 263.865 267.378 258.782 276.311 252.795 Z M 213.029 261.954 C 217.927 260.499 222.288 259.086 222.725 258.821 C 223.701 258.212 221.291 256.82 217.764 255.946 C 216.301 255.579 209.105 253.477 201.777 251.27 C 181.051 245.028 173.986 242.977 171.648 242.519 C 169.504 242.113 169.504 242.113 171.985 244.106 C 177.88 248.831 201.462 264.514 202.732 264.556 C 203.503 264.575 208.139 263.407 213.029 261.954 Z M 234.474 266.312 C 233.967 265.369 233.182 264.596 232.726 264.596 C 232.269 264.596 231.893 265.369 231.893 266.312 C 231.893 267.471 232.463 268.041 233.641 268.041 C 235.126 268.041 235.257 267.778 234.474 266.312 Z M 221.017 266.609 C 224.596 262.024 224.9 260.926 222.358 261.872 C 221.384 262.228 220.702 262.706 220.844 262.918 C 220.987 263.132 220.244 264.708 219.188 266.415 C 217.357 269.383 216.88 270.622 217.582 270.622 C 217.754 270.622 219.298 268.815 221.017 266.609 Z M 266.319 297.772 C 266.319 297.081 265.944 295.628 265.485 294.54 C 265.04 293.453 263.056 287.455 261.106 281.204 C 259.143 274.963 257.09 269.251 256.541 268.53 C 255.749 267.452 240.106 262.063 237.697 262.024 C 236.385 262.003 237.127 264.017 239.424 266.73 C 240.725 268.265 246.987 276.152 253.351 284.263 C 259.702 292.386 265.222 299.022 265.607 299.022 C 265.995 299.022 266.319 298.452 266.319 297.772 Z M 261.157 300.068 C 261.157 298.524 252.689 288.686 251.377 288.705 C 250.758 288.716 250.706 288.949 251.255 289.346 C 252.587 290.321 254.448 293.96 253.899 294.51 C 253.624 294.784 253.299 294.845 253.156 294.642 C 252.253 293.32 245.9 285.444 244.904 284.415 C 244.231 283.715 241.772 280.524 239.435 277.312 C 237.107 274.11 234.687 271.477 234.078 271.477 C 232.208 271.477 231.039 279.182 232.554 281.468 C 233.864 283.451 252.862 295.637 253.97 295.21 C 254.61 294.967 255.129 295.088 255.129 295.485 C 255.129 295.882 256.145 297.223 257.396 298.474 C 259.653 300.72 261.157 301.36 261.157 300.068 Z M 197.039 297.538 C 201.177 291.653 201.786 290.291 199.317 292.487 C 198.299 293.381 197.467 293.747 197.467 293.28 C 197.467 292.028 205.374 280.788 211.248 273.682 C 216.493 267.35 217.602 264.586 214.897 264.605 C 213.596 264.617 213.566 264.748 214.685 265.521 C 215.641 266.192 215.285 266.282 213.241 265.888 C 209.095 265.072 203.778 266.974 202.72 269.667 C 200.597 275.055 194.783 293.644 194.519 295.862 C 194.365 297.193 193.797 298.727 193.27 299.256 C 192.181 300.344 191.968 302.468 192.954 302.449 C 193.309 302.449 195.149 300.232 197.039 297.538 Z M 200.048 301.684 C 200.291 301.4 203.382 299.237 206.939 296.868 C 210.487 294.51 217.023 290.057 221.463 286.988 L 229.535 281.407 L 229.087 272.524 C 228.833 267.626 228.357 263.365 228.02 263.04 C 227.684 262.715 226.383 263.783 225.133 265.418 C 223.884 267.046 221.109 270.592 218.984 273.296 C 206.999 288.492 195.748 303.201 195.748 303.687 C 195.748 304.257 199.276 302.61 200.048 301.684 Z M 186.286 310.692 C 186.286 309.531 186.671 308.342 187.139 308.059 C 187.617 307.763 188.005 306.767 188.005 305.843 C 188.005 304.918 188.348 303.484 188.776 302.661 C 189.203 301.836 190.036 299.428 190.625 297.293 C 192.548 290.351 196.784 277.108 197.568 275.584 C 197.986 274.759 198.331 273.489 198.331 272.767 C 198.331 272.047 198.817 270.634 199.409 269.636 C 200.211 268.275 200.23 267.716 199.49 267.452 C 198.94 267.249 197.639 266.343 196.591 265.44 C 195.545 264.523 193.959 263.559 193.066 263.274 C 192.171 262.989 191.45 262.44 191.45 262.063 C 191.45 261.678 190.28 260.875 188.866 260.295 C 187.443 259.706 186.286 258.934 186.286 258.569 C 186.286 258.212 185.117 257.441 183.704 256.85 C 182.281 256.261 181.122 255.489 181.122 255.133 C 181.122 254.767 179.952 253.993 178.54 253.404 C 177.117 252.816 175.958 252.022 175.958 251.636 C 175.958 251.261 175.227 250.711 174.332 250.427 C 173.447 250.142 171.893 249.198 170.875 248.321 C 169.87 247.438 165.571 244.449 161.322 241.676 C 152.935 236.186 151.392 233.655 156.381 233.563 C 157.916 233.533 171.078 233.554 185.635 233.615 C 211.543 233.715 212.103 233.675 212.103 231.999 C 212.103 231.052 212.489 230.036 212.956 229.742 C 213.434 229.447 213.82 228.45 213.82 227.525 C 213.82 226.601 214.166 225.178 214.582 224.356 C 216.198 221.174 217.308 218.195 220.702 207.797 C 225.052 194.503 226.719 191.097 229.016 190.762 C 230.968 190.478 231.741 191.767 235.827 202.207 C 237.127 205.521 238.46 208.621 238.794 209.088 C 239.12 209.565 239.921 211.791 240.564 214.038 C 241.213 216.285 242.038 218.124 242.414 218.124 C 242.778 218.124 243.084 218.897 243.084 219.852 C 243.084 220.798 243.47 221.569 243.948 221.569 C 244.415 221.569 244.801 222.159 244.801 222.87 C 244.801 224.559 248.319 232.141 249.487 232.974 C 249.984 233.33 262.925 233.594 278.233 233.554 C 293.539 233.512 306.244 233.666 306.469 233.9 C 306.692 234.122 305.401 235.404 303.593 236.754 C 301.792 238.106 300.187 239.499 300.024 239.857 C 299.872 240.211 299.283 240.506 298.734 240.506 C 298.185 240.506 296.621 241.462 295.256 242.632 C 293.895 243.8 292.056 244.989 291.171 245.274 C 290.287 245.546 289.554 246.116 289.554 246.523 C 289.554 246.941 288.823 247.5 287.938 247.784 C 287.055 248.069 285.214 249.258 283.852 250.427 C 282.491 251.595 280.895 252.551 280.306 252.551 C 279.716 252.551 279.227 252.877 279.227 253.262 C 279.227 253.659 278.16 254.533 276.859 255.204 C 275.558 255.874 273.74 257.105 272.825 257.927 C 271.909 258.761 270.68 259.431 270.101 259.431 C 269.522 259.431 268.912 259.747 268.758 260.134 C 268.597 260.51 266.634 262.085 264.378 263.61 C 262.132 265.145 260.293 266.801 260.293 267.289 C 260.293 267.787 262.233 273.928 264.603 280.95 C 266.96 287.974 268.901 294.499 268.901 295.455 C 268.901 296.419 269.288 297.436 269.765 297.73 C 270.232 298.027 270.62 299.186 270.62 300.313 C 270.62 301.442 271.005 302.601 271.484 302.895 C 271.961 303.189 272.346 304.187 272.346 305.111 C 272.346 306.036 272.825 307.551 273.404 308.485 C 274.278 309.877 274.217 310.426 273.068 311.575 C 271.788 312.855 271.046 312.54 263.617 307.551 C 259.183 304.572 255.047 301.634 254.427 301.014 C 253.796 300.395 252.954 299.886 252.547 299.886 C 252.14 299.886 251.298 299.389 250.676 298.789 C 250.046 298.189 245.401 294.895 240.35 291.47 C 231.893 285.748 227.593 283.939 227.593 286.114 C 227.593 286.59 227.105 286.978 226.516 286.978 C 225.927 286.978 224.33 287.934 222.968 289.101 C 221.606 290.272 219.768 291.461 218.883 291.746 C 217.998 292.019 217.266 292.588 217.266 292.995 C 217.266 293.411 216.535 293.97 215.649 294.255 C 214.767 294.54 212.926 295.729 211.564 296.899 C 210.202 298.067 208.606 299.022 208.016 299.022 C 207.427 299.022 206.939 299.316 206.939 299.683 C 206.939 300.038 205.394 301.299 203.493 302.468 C 201.603 303.638 200.058 304.888 200.058 305.254 C 200.058 305.61 199.569 305.903 198.98 305.903 C 198.391 305.903 196.794 306.868 195.432 308.038 C 194.071 309.207 192.232 310.395 191.347 310.671 C 190.452 310.956 189.73 311.545 189.73 311.993 C 189.73 312.43 188.959 312.795 188.005 312.795 C 186.753 312.795 186.286 312.216 186.286 310.692 Z" id="path4610"/>
  </g>
</svg>