<svg xmlns="http://www.w3.org/2000/svg" width="0" height="0">

  <!-- bridge -->
  <symbol id="bridge" width="512" height="512" viewBox="0 0 512 512">
    <path d="M 256,229.88099 0,340.84775 V 511.9201 H 86.650391 A 170,157.20213 0 0 1 256,366.7394 170,157.20213 0 0 1 425.45508,511.9201 H 512 V 340.84775 Z m -8.17969,18.93788 v 39.70931 l -29.35547,12.69218 V 261.5137 Z m 16.40821,0 29.35546,12.69483 v 39.70666 l -29.35546,-12.69218 z m -67.7793,22.21397 v 39.70929 l -29.35547,12.6922 v -39.70667 z m 119.15234,0 29.35352,12.69482 v 39.70667 l -29.35352,-12.6922 z M 145.07617,293.2468 v 39.7093 l -29.35351,12.69218 v -39.70665 z m 221.89649,0 29.35351,12.69483 v 39.70665 L 366.97266,332.9561 Z M 93.705078,315.46075 v 41.56927 l -29.353516,12.69483 v -41.56927 z m 324.638672,0 29.35547,12.69483 v 41.56927 L 418.34375,357.03002 Z M 42.333984,337.67471 v 40.33017 l -29.355468,12.6922 v -40.32754 z m 427.380856,0 29.35547,12.69483 v 40.32754 l -29.35547,-12.6922 z" class="bridge" />
  </symbol>

  <!-- blob -->
  <symbol id="blob" width="512" height="512" viewBox="0 0 512 512">
    <path d="M 354.79503,51.01345 C 298.99659,48.3869 240.80933,98.97237 223.58022,145.96969 207.04325,191.07903 136.06894,202.06331 100.56958,255.9927 65.070209,309.9221 72.692886,378.48184 94.856735,408.46891 125.60488,450.07031 238.28845,478.22185 298.73422,424.07968 359.18,369.93751 341.01459,291.42805 360.31484,234.92002 379.61508,178.41198 415.58737,175.6379 424.19995,132.32598 432.81251,89.01407 410.59345,53.63999 354.79503,51.01345 Z" class="blob" />
  </symbol>

  <!-- Barrel - CC BY 3.0 - https://game-icons.net/1x1/delapouite/barrel.html -->
  <symbol id="barrel" width="512" height="512" viewBox="0 0 512 512">
    <path d="M256 41c-43.696 0-83.28 3.58-111.37 9.197-14.047 2.81-25.26 6.196-32.21 9.483-3.476 1.643-5.842 3.293-6.88 4.306l-.013.014.014.014c1.038 1.013 3.404 2.663 6.88 4.306 6.95 3.287 18.163 6.674 32.21 9.483C172.72 83.42 212.303 87 256 87s83.28-3.58 111.37-9.197c14.047-2.81 25.26-6.196 32.21-9.483 3.476-1.643 5.842-3.293 6.88-4.306l.013-.014-.014-.014c-1.038-1.013-3.404-2.663-6.88-4.306-6.95-3.287-18.163-6.674-32.21-9.483C339.28 44.58 299.697 41 256 41zm-80 15a32 8 0 0 1 32 8 32 8 0 0 1-32 8 32 8 0 0 1-32-8 32 8 0 0 1 32-8zm-75.168 26.594c-2.832 12.035-7.414 32.162-12.05 55.28 16.735 4.338 33.52 7.99 50.327 10.995 2.988-17.203 6.707-34.438 11.27-51.708-3.186-.547-6.3-1.113-9.282-1.71-14.91-2.98-27.13-6.49-36.37-10.86-1.363-.644-2.656-1.307-3.896-1.998zm310.336 0c-1.24.69-2.533 1.354-3.895 1.998-9.24 4.37-21.462 7.88-36.37 10.86-2.93.587-5.99 1.142-9.116 1.68 5.27 16.954 9.544 34.033 12.953 51.22 16.26-2.983 32.412-6.568 48.424-10.754-4.617-23-9.175-43.017-11.996-55.004zm-67.4 17.238c-23.065 2.982-49.9 4.803-78.768 5.117v54.198c30.885-.445 61.603-3.05 91.975-7.773-3.45-17.334-7.805-34.523-13.207-51.543zm-175.475.008c-4.647 17.345-8.416 34.67-11.426 51.98 30.062 4.54 60.16 6.967 90.133 7.354V104.95c-28.842-.314-55.656-2.133-78.707-5.11zm-84.38 55.277l-5.518 30.088c128.542 30.936 239.89 29.948 353.384.137l-4.98-30.172c-110.776 28.798-228.035 29.785-342.886-.053zm350.634 48.176c-16.95 4.406-33.876 8.174-50.83 11.312 3.656 47.603 1.776 95.87-3.55 144.49 18.6-3.803 36.796-8.527 54.468-14.17C439.592 314.762 439 291.606 439 256c0-14.915-1.77-33.334-4.453-52.707zm-357.13.256C74.758 222.827 73 241.15 73 256c0 23.794 4.678 57.228 10.424 89.404 16.604 4.828 33.386 8.97 50.27 12.418-4.532-47.516-6.03-95.247-2.577-143.222-17.624-3.063-35.507-6.74-53.7-11.05zm71.546 13.944c-3.336 47.978-1.63 95.883 3.164 143.813 31.553 5.49 63.348 8.592 94.873 9.33V225.94c-31.995-.576-64.57-3.38-98.037-8.446zm216.902.19c-33.303 5.275-66.792 8.068-100.865 8.34V370.8c32.816-.174 65.224-2.93 96.64-8.25 5.61-49.032 7.722-97.417 4.225-144.866zM86.66 364.93l8.29 31.9c104.15 32.39 225.75 32.428 326.077.733l8.272-32.264c-106.024 31.367-228.01 31.34-342.64-.37zm11.236 51.666c3.816 16.945 6.585 28.183 6.704 28.662.792 2.185 4.694 6.427 12.96 10.37 7.587 3.616 18.215 6.947 30.77 9.704-2.132-12.566-4.142-25.147-6.016-37.74-15.03-3.066-29.865-6.733-44.418-10.996zm318.366 1.31c-14.934 4.36-30.254 8.052-45.852 11.086-2.007 12.08-4.16 24.172-6.43 36.272 12.422-2.745 22.935-6.05 30.46-9.637 8.376-3.994 12.302-8.315 13.02-10.473 3.26-9.78 6.178-18.815 8.802-27.248zm-255.217 13.18c1.917 12.574 3.97 25.154 6.144 37.74 23.637 3.684 51.525 5.748 79.81 6.11V439.24c-28.815-.644-57.66-3.36-85.955-8.154zm190.55 1.223c-28.306 4.484-57.373 6.847-86.595 7.07v35.556c28.358-.363 56.317-2.437 79.994-6.14 2.33-12.19 4.538-24.353 6.602-36.487z" class="barrel" />
   </symbol>

  <!-- Castle - "Font Awesome by Dave Gandy - http://fontawesome.io". -->
  <symbol id="castle" width="512" height="512" viewBox="0 0 512 512">
      <path d="M489.2 287.9h-27.4c-2.6 0-4.6 2-4.6 4.6v32h-36.6V146.2c0-2.6-2-4.6-4.6-4.6h-27.4c-2.6 0-4.6 2-4.6 4.6v32h-36.6v-32c0-2.6-2-4.6-4.6-4.6h-27.4c-2.6 0-4.6 2-4.6 4.6v32h-36.6v-32c0-6-8-4.6-11.7-4.6v-38c8.3-2 17.1-3.4 25.7-3.4 10.9 0 20.9 4.3 31.4 4.3 4.6 0 27.7-1.1 27.7-8v-60c0-2.6-2-4.6-4.6-4.6-5.1 0-15.1 4.3-24 4.3-9.7 0-20.9-4.3-32.6-4.3-8 0-16 1.1-23.7 2.9v-4.9c5.4-2.6 9.1-8.3 9.1-14.3 0-20.7-31.4-20.8-31.4 0 0 6 3.7 11.7 9.1 14.3v111.7c-3.7 0-11.7-1.4-11.7 4.6v32h-36.6v-32c0-2.6-2-4.6-4.6-4.6h-27.4c-2.6 0-4.6 2-4.6 4.6v32H128v-32c0-2.6-2-4.6-4.6-4.6H96c-2.6 0-4.6 2-4.6 4.6v178.3H54.8v-32c0-2.6-2-4.6-4.6-4.6H22.8c-2.6 0-4.6 2-4.6 4.6V512h182.9v-96c0-72.6 109.7-72.6 109.7 0v96h182.9V292.5c.1-2.6-1.9-4.6-4.5-4.6zm-288.1-4.5c0 2.6-2 4.6-4.6 4.6h-27.4c-2.6 0-4.6-2-4.6-4.6v-64c0-2.6 2-4.6 4.6-4.6h27.4c2.6 0 4.6 2 4.6 4.6v64zm146.4 0c0 2.6-2 4.6-4.6 4.6h-27.4c-2.6 0-4.6-2-4.6-4.6v-64c0-2.6 2-4.6 4.6-4.6h27.4c2.6 0 4.6 2 4.6 4.6v64z" class="castle" />
  </symbol>

  <!-- Crown - "Font Awesome by Dave Gandy - http://fontawesome.io". -->
  <symbol id="crown" width="512" height="640" viewBox="0 0 640 512">
      <path d="M528 448H112c-8.8 0-16 7.2-16 16v32c0 8.8 7.2 16 16 16h416c8.8 0 16-7.2 16-16v-32c0-8.8-7.2-16-16-16zm64-320c-26.5 0-48 21.5-48 48 0 7.1 1.6 13.7 4.4 19.8L476 239.2c-15.4 9.2-35.3 4-44.2-11.6L350.3 85C361 76.2 368 63 368 48c0-26.5-21.5-48-48-48s-48 21.5-48 48c0 15 7 28.2 17.7 37l-81.5 142.6c-8.9 15.6-28.9 20.8-44.2 11.6l-72.3-43.4c2.7-6 4.4-12.7 4.4-19.8 0-26.5-21.5-48-48-48S0 149.5 0 176s21.5 48 48 48c2.6 0 5.2-.4 7.7-.8L128 416h384l72.3-192.8c2.5.4 5.1.8 7.7.8 26.5 0 48-21.5 48-48s-21.5-48-48-48z" class="crown" />
  </symbol>

  <!-- Mountain - "Font Awesome by Dave Gandy - http://fontawesome.io". -->
  <symbol id="mountain" width="512" height="640" viewBox="0 0 640 512">
      <path d="M634.92 462.7l-288-448C341.03 5.54 330.89 0 320 0s-21.03 5.54-26.92 14.7l-288 448a32.001 32.001 0 0 0-1.17 32.64A32.004 32.004 0 0 0 32 512h576c11.71 0 22.48-6.39 28.09-16.67a31.983 31.983 0 0 0-1.17-32.63zM320 91.18L405.39 224H320l-64 64-38.06-38.06L320 91.18z" class="mountain" />
  </symbol>
  
  <!-- Gold - "Font Awesome by Dave Gandy - http://fontawesome.io". -->
  <symbol id="gold" width="512" height="512" viewBox="0 0 512 512">
    <path d="M0 405.3V448c0 35.3 86 64 192 64s192-28.7 192-64v-42.7C342.7 434.4 267.2 448 192 448S41.3 434.4 0 405.3zM320 128c106 0 192-28.7 192-64S426 0 320 0 128 28.7 128 64s86 64 192 64zM0 300.4V352c0 35.3 86 64 192 64s192-28.7 192-64v-51.6c-41.3 34-116.9 51.6-192 51.6S41.3 334.4 0 300.4zm416 11c57.3-11.1 96-31.7 96-55.4v-42.7c-23.2 16.4-57.3 27.6-96 34.5v63.6zM192 160C86 160 0 195.8 0 240s86 80 192 80 192-35.8 192-80-86-80-192-80zm219.3 56.3c60-10.8 100.7-32 100.7-56.3v-42.7c-35.5 25.1-96.5 38.6-160.7 41.8 29.5 14.3 51.2 33.5 60 57.2z" class="gold" />
  </symbol>

  <!-- Iron - CC BY 3.0 - https://upload.wikimedia.org/wikipedia/commons/3/32/Noun_project_-_Anvil.svg -->
  <symbol id="iron" width="512" height="512" viewBox="0 0 512 512">
    <path d="m 512,194.35457 -53.11156,45.25328 h -15.22579 c -25.88931,0 -49.07033,14.39574 -51.3545,38.86122 -0.006,1.41171 -0.006,-0.35141 -0.006,1.04818 0,17.51603 8.67622,32.98418 21.95108,42.40563 l 57.62537,29.33071 c 4.03517,4.72588 3.6777,8.57322 3.6777,8.57322 V 389 h -63.52666 l -9.77892,-10.3121 H 236.60271 L 226.82379,389 h -63.53272 v -29.17319 c 0,0 -0.35141,-3.84734 3.6777,-8.57322 l 54.4142,-29.47612 h 0.0121 c 11.94192,-6.79193 20.01832,-19.5942 20.01832,-34.31106 0,-27.27678 -24.28373,-39.7337 -51.55444,-39.7337 l -24.96837,-0.006 -0.0242,-13.08098 C 27.2586,233.25821 0.8967,155.72964 0.8967,155.72964 0.32718,154.88746 0,153.87564 0,152.79111 0,149.88288 2.35688,147.526 5.26511,147.526 c 0.24235,0 55.59567,0.21812 55.59567,0.21812 h 65.10194 v -8.99128 l 39.66099,0.0121 V 122.50309 L 512,122.65456 Z" class="iron" />
  </symbol>

  <!-- Silver - Public Domain - https://svgsilh.com/image/3105741.html -->
  <symbol id="silver" width="512" height="512" viewBox="0 0 512 512">
      <path d="m 214.24964,0.18008245 c -34.97999,0.4187918 -51.31043,1.16331075 -78.51171,3.48993225 -9.51804,0.8375837 -14.30121,1.395973 -14.92931,1.8612973 -0.53146,0.3722594 -1.44944,0.6514538 -2.02922,0.6514538 -1.54608,0 -10.6776,2.698881 -13.6248,4.0483212 -1.40114,0.604922 -2.8989,1.675168 -3.33373,2.326621 -0.77304,1.116779 -0.77304,1.442506 0,5.072035 0.48315,2.140492 1.15955,8.655033 1.54607,14.471587 0.38652,5.863087 1.06293,13.959727 1.44945,18.054582 0.43484,4.094853 0.9663,10.469797 1.20787,14.192389 0.72473,10.190602 1.9326,16.612079 5.84611,31.874715 10.14613,39.552554 37.83056,83.711844 68.07569,108.699754 8.69668,7.166 23.09453,17.40314 33.33728,23.68501 l 6.52252,4.00179 0.14494,6.04922 0.14495,6.09575 -2.31913,0.93063 c -5.41127,2.18704 -11.83714,8.18971 -15.07425,14.14587 -3.96181,7.07292 -3.81687,16.70514 0.24158,24.19686 3.43035,6.23534 6.37757,9.30648 13.38323,13.82013 l 3.2371,2.09396 v 6.14228 6.09574 l 1.44945,1.44251 1.49776,1.44251 -1.49776,5.72348 c -5.41127,20.61387 -16.13718,40.90201 -32.66088,61.84161 -3.72024,4.74631 -6.66745,7.77092 -11.88546,12.37762 -18.06978,15.96061 -24.83386,21.07919 -31.35637,23.68501 -8.16522,3.3038 -9.51804,4.23445 -16.62033,11.16778 -9.85624,9.72528 -14.49447,13.58746 -17.97314,15.12304 -5.65284,2.46622 -12.416929,6.65413 -15.412453,9.49263 -3.285413,3.11767 -4.396656,5.53734 -4.976434,11.30737 -0.38652,3.25727 0.144944,10.93511 0.966297,13.82014 0.773039,2.79193 4.831491,6.37493 12.27198,10.79551 7.29556,4.37404 13.33492,6.84026 22.80464,9.44609 19.03607,5.1651 38.31371,8.0501 64.16218,9.58567 56.48013,3.30381 84.9376,3.39688 130.9817,0.4188 28.16759,-1.76823 55.65877,-6.09575 70.15324,-10.93512 5.55619,-1.8613 11.78882,-5.21164 18.11808,-9.72528 6.03936,-4.32753 8.88994,-6.93333 9.80792,-9.07383 1.20788,-2.79195 1.73933,-7.72438 1.15956,-10.84205 -0.24158,-1.58211 -0.72473,-4.18792 -1.01461,-5.81655 -1.44946,-8.28278 -6.86072,-13.4944 -19.18102,-18.33379 l -5.65284,-2.187 -9.46971,-9.12038 c -10.09782,-9.72527 -11.20907,-10.46979 -20.05069,-14.09931 -4.68656,-1.8613 -6.8124,-3.25728 -14.59111,-9.3065 -20.1473,-15.72796 -26.86307,-22.10289 -35.46314,-33.73602 -8.40677,-11.40043 -10.19443,-14.14585 -14.88097,-23.12659 -5.1697,-9.81835 -7.77872,-16.79823 -11.16075,-29.87385 -1.98091,-7.67783 -2.02923,-8.05009 -1.20787,-8.93421 0.72472,-0.74452 0.82135,-1.81476 0.72472,-8.23625 -0.0483,-4.04831 0.0966,-7.39865 0.33821,-7.49171 0.24157,-0.0931 2.27079,-1.11677 4.54159,-2.37316 6.7641,-3.62953 11.78884,-9.39955 13.9147,-15.91408 1.11125,-3.53647 1.11125,-13.44788 -0.0483,-17.68232 -1.54608,-5.5839 -5.99103,-10.65594 -13.23828,-15.16957 l -4.05845,-2.51275 0.3382,-5.95616 c 0.14495,-3.25727 0.43483,-6.04922 0.62809,-6.18881 0.14494,-0.18613 1.49777,-0.65146 2.8989,-1.11678 2.94721,-0.93065 6.90903,-3.25727 17.44168,-10.1906 23.43273,-15.4953 37.54067,-28.05906 54.98236,-49.13824 9.13151,-10.98167 13.81805,-18.14766 24.15744,-36.62104 8.4551,-15.12303 9.95287,-18.14765 12.41693,-24.84832 4.83149,-13.354793 8.98657,-29.780741 10.38769,-41.134655 0.53147,-4.094852 1.35283,-9.771809 1.93261,-12.563755 0.53146,-2.838478 1.40113,-10.237133 1.9326,-16.519012 1.44944,-17.542726 1.25618,-16.519012 3.18878,-17.914984 2.02923,-1.489038 2.17417,-3.164206 0.43484,-5.816556 C 417.80035,12.790372 404.46543,9.3004387 378.66529,6.4154281 331.55827,1.1572637 284.49954,-0.61096877 214.24968,0.18008245 Z" class="silver"/>
  </symbol>

  <!-- gems - "Font Awesome by Dave Gandy - http://fontawesome.io". -->  
  <symbol id="gems" width="576" height="512" viewBox="0 0 576 512">
    <path d="M464 0H112c-4 0-7.8 2-10 5.4L2 152.6c-2.9 4.4-2.6 10.2.7 14.2l276 340.8c4.8 5.9 13.8 5.9 18.6 0l276-340.8c3.3-4.1 3.6-9.8.7-14.2L474.1 5.4C471.8 2 468.1 0 464 0zm-19.3 48l63.3 96h-68.4l-51.7-96h56.8zm-202.1 0h90.7l51.7 96H191l51.6-96zm-111.3 0h56.8l-51.7 96H68l63.3-96zm-43 144h51.4L208 352 88.3 192zm102.9 0h193.6L288 435.3 191.2 192zM368 352l68.2-160h51.4L368 352z" class="gems" />
  </symbol>

  <!-- oil - CC Attribution - Genie Lamp by Phil Goodwin from the Noun Project https://thenounproject.com/term/genie-lamp/7334/. -->  
  <symbol id="oil" width="512" height="512" viewBox="0 0 512 512">
      <path d="m 511.42686,204.18896 c -3.02609,-3.32813 -13.68865,-2.89502 -23.35391,-3.89232 -5.90971,-0.59838 -8.40581,-4.99219 -14.61186,-4.56478 -43.19733,5.32843 -44.32276,29.8881 -95.25913,27.05007 -22.23694,-1.24235 -40.16993,-6.37086 -59.04454,-18.49233 -1.71536,-1.08848 -3.33953,-2.15986 -4.94661,-3.19705 l -0.4616,-6.20606 c 0,0 -9.23215,-1.32213 -11.4889,-3.27114 -2.42201,-2.11428 -3.92651,-8.87882 -5.73305,-11.48889 -4.60467,-6.63347 -5.88691,-3.70996 -25.41119,-10.65117 -9.15236,-3.25404 -8.58248,-8.87881 -29.21804,-10.31492 v -7.92711 c 7.03809,-3.56179 11.84793,-10.83923 11.84793,-19.22224 0,-11.91061 -9.64817,-21.54737 -21.56447,-21.54737 -11.89921,0 -21.55308,9.63676 -21.55308,21.54737 0,8.38301 4.82693,15.66045 11.83083,19.22224 v 7.92711 c -20.61846,1.43611 -20.03718,7.06088 -29.20664,10.31492 -19.51858,6.94121 -20.80652,4.0177 -25.40549,10.65117 -1.80084,2.61007 -3.31674,9.37461 -5.73305,11.48889 -2.27385,1.94901 -11.4775,3.27114 -11.4775,3.27114 l -0.78644,10.36622 c -9.80773,1.0201 -24.00358,2.61577 -22.93789,4.10887 -14.9367,-20.83501 1.03149,-45.40278 -20.02008,-62.78429 -10.451705,-8.63946 -28.915997,-7.24894 -50.355089,-5.59057 -26.704838,2.06868 -52.2699039,-9.9787 -56.03114857,18.57257 -5.71595213,43.55065 38.41028657,54.50955 61.38237157,71.09892 -3.242649,9.38601 3.054586,14.75434 6.661962,20.17395 -0.951709,9.00419 -6.029389,13.68865 -4.655965,21.84371 3.225552,19.11396 31.281018,15.98529 42.291209,3.68146 -5.65327,6.32573 34.47807,55.11933 60.36228,66.90457 3.53899,1.60137 7.30023,3.04888 11.24954,4.35962 -4.76994,1.57858 -8.5027,0.92321 -8.5027,0.92321 -4.4622,0 -0.76934,12.21265 -4.58188,16.03089 -3.48769,3.49339 -8.33172,2.4619 -13.32392,2.37072 -0.46731,0 -1.44181,0.25645 -1.95471,0.67816 -4.4508,3.63587 -3.03749,9.16946 -3.03749,22.14576 9.27204,10.69675 76.47295,12.07017 85.30047,12.20694 V 402 c 0,0 0.16527,0 0.47871,-0.0228 0.30774,0.0228 0.4901,0.0228 0.4901,0.0228 v -0.0228 c 8.84462,-0.13107 76.05123,-1.51019 85.30617,-12.20694 0,-12.9706 1.39052,-18.50989 -3.03749,-22.14576 -0.53569,-0.42171 -1.4988,-0.67816 -1.97751,-0.67816 -4.98649,0.0912 -9.82482,1.12267 -13.32392,-2.37072 -3.81253,-3.82394 -0.12537,-16.03089 -4.55339,-16.03089 0,0 -4.15446,0.74655 -9.27773,-1.20245 23.42229,-7.19196 44.73601,-18.48139 68.10132,-31.48618 32.32714,-22.70265 49.29408,-32.47031 72.63433,-53.20417 19.72471,-16.39744 41.69757,-34.19724 64.20805,-38.16934 7.9556,-1.37343 14.46939,-2.10288 20.03147,-8.69076 1.66977,-3.74985 1.36203,-7.57378 0.64967,-11.60287 z M 93.345966,221.20381 C 79.606026,216.30849 72.157621,201.46867 60.138735,193.17114 52.30851,187.80851 39.21254,184.08716 39.810919,172.51848 c 3.003297,-1.88632 5.824231,-2.72975 8.656562,-3.04888 5.767242,-0.62118 11.59147,1.03149 19.113959,1.23095 0.461608,0 0.928914,0.0285 1.407618,0.0285 9.91031,0.70666 14.144559,-2.11997 20.9148,1.70396 9.585475,10.26934 1.977503,32.52907 3.442108,48.77081 z" class="oil" />
  </symbol>

  <!-- lumber - "Font Awesome by Dave Gandy - http://fontawesome.io". -->
  <symbol id="lumber" width="384" height="512" viewBox="0 0 384 512">
    <path d="M378.31 378.49L298.42 288h30.63c9.01 0 16.98-5 20.78-13.06 3.8-8.04 2.55-17.26-3.28-24.05L268.42 160h28.89c9.1 0 17.3-5.35 20.86-13.61 3.52-8.13 1.86-17.59-4.24-24.08L203.66 4.83c-6.03-6.45-17.28-6.45-23.32 0L70.06 122.31c-6.1 6.49-7.75 15.95-4.24 24.08C69.38 154.65 77.59 160 86.69 160h28.89l-78.14 90.91c-5.81 6.78-7.06 15.99-3.27 24.04C37.97 283 45.93 288 54.95 288h30.63L5.69 378.49c-6 6.79-7.36 16.09-3.56 24.26 3.75 8.05 12 13.25 21.01 13.25H160v24.45l-30.29 48.4c-5.32 10.64 2.42 23.16 14.31 23.16h95.96c11.89 0 19.63-12.52 14.31-23.16L224 440.45V416h136.86c9.01 0 17.26-5.2 21.01-13.25 3.8-8.17 2.44-17.47-3.56-24.26z"/>
  </symbol>

  <!-- spices - "Font Awesome by Dave Gandy - http://fontawesome.io". -->
  <symbol id="spices" width="512" height="512" viewBox="0 0 512 512">
    <path d="M501.54 60.91c17.22-17.22 12.51-46.25-9.27-57.14a35.696 35.696 0 0 0-37.37 3.37L251.09 160h151.37l99.08-99.09zM496 192H16c-8.84 0-16 7.16-16 16v32c0 8.84 7.16 16 16 16h16c0 80.98 50.2 150.11 121.13 178.32-12.76 16.87-21.72 36.8-24.95 58.69-1.46 9.92 6.04 18.98 16.07 18.98h223.5c10.03 0 17.53-9.06 16.07-18.98-3.22-21.89-12.18-41.82-24.95-58.69C429.8 406.11 480 336.98 480 256h16c8.84 0 16-7.16 16-16v-32c0-8.84-7.16-16-16-16z" class="spices"/>
  </symbol>

  <!-- wine - Creative Commons Attribution - https://thenounproject.com/search/?q=grapes&i=1391991 -->
  <symbol id="wine" width="512" height="512" viewBox="0 0 512 512">
    <path d="m 274.5022,140.30769 c -7.38461,-14.76923 -19.6923,-19.69231 -34.46153,-19.69231 12.30769,27.07693 -14.76924,46.76924 -36.92308,51.69231 -22.15385,2.46154 -49.23077,-34.46154 14.76923,-59.07692 -27.07692,-22.153847 -54.15385,-19.692308 -66.46154,0 -19.69231,24.61538 -17.23077,46.76923 -34.46154,73.84615 -14.76923,22.15385 -27.076921,14.76923 -44.30769,-4.92307 -4.923077,-7.38462 2.461538,0 4.923077,0 4.923077,7.38461 17.230769,12.30769 24.615383,7.38461 22.15385,-14.76923 22.15385,-66.46154 44.30769,-91.076922 24.61539,-27.076923 68.92308,-2.461538 83.69231,9.846152 19.69231,-2.46154 32,2.46154 41.84616,12.30769 0,4.92308 2.46153,12.3077 2.46153,19.69231 z m -46.76923,-17.23077 c -14.76923,2.46154 -27.07692,9.84616 -32,17.23077 -12.30769,17.23077 4.92308,32 27.07693,12.30769 9.84615,-9.84615 9.84615,-19.6923 4.92307,-29.53846 z m 54.15385,29.53846 C 380.34836,157.53846 385.27143,113.23077 404.96374,0 289.27143,44.307692 262.19451,59.076923 281.88682,152.61538 Z m 36.92308,59.07693 a 34.461538,34.461538 0 0 1 -34.46154,34.46154 34.461538,34.461538 0 0 1 -34.46154,-34.46154 34.461538,34.461538 0 0 1 34.46154,-34.46154 34.461538,34.461538 0 0 1 34.46154,34.46154 z m 81.23077,0 a 34.461538,34.461538 0 0 1 -34.46154,34.46154 34.461538,34.461538 0 0 1 -34.46154,-34.46154 34.461538,34.461538 0 0 1 34.46154,-34.46154 34.461538,34.461538 0 0 1 34.46154,34.46154 z m -162.46154,0 a 34.461538,34.461538 0 0 1 -34.46154,34.46154 34.461538,34.461538 0 0 1 -34.46154,-34.46154 34.461538,34.461538 0 0 1 34.46154,-34.46154 34.461538,34.461538 0 0 1 34.46154,34.46154 z M 318.8099,477.53846 A 34.461538,34.461538 0 0 1 284.34836,512 a 34.461538,34.461538 0 0 1 -34.46154,-34.46154 34.461538,34.461538 0 0 1 34.46154,-34.46154 34.461538,34.461538 0 0 1 34.46154,34.46154 z m 41.84615,-64 A 34.461538,34.461538 0 0 1 326.19451,448 a 34.461538,34.461538 0 0 1 -34.46154,-34.46154 34.461538,34.461538 0 0 1 34.46154,-34.46154 34.461538,34.461538 0 0 1 34.46154,34.46154 z m -83.69231,0 A 34.461538,34.461538 0 0 1 242.5022,448 a 34.461538,34.461538 0 0 1 -34.46153,-34.46154 34.461538,34.461538 0 0 1 34.46153,-34.46154 34.461538,34.461538 0 0 1 34.46154,34.46154 z m 123.07693,-68.92308 a 34.461538,34.461538 0 0 1 -34.46154,34.46154 34.461538,34.461538 0 0 1 -34.46154,-34.46154 34.461538,34.461538 0 0 1 34.46154,-34.46153 34.461538,34.461538 0 0 1 34.46154,34.46153 z m -81.23077,0 a 34.461538,34.461538 0 0 1 -34.46154,34.46154 34.461538,34.461538 0 0 1 -34.46154,-34.46154 34.461538,34.461538 0 0 1 34.46154,-34.46153 34.461538,34.461538 0 0 1 34.46154,34.46153 z m -81.23077,0 a 34.461538,34.461538 0 0 1 -34.46154,34.46154 34.461538,34.461538 0 0 1 -34.46154,-34.46154 34.461538,34.461538 0 0 1 34.46154,-34.46153 34.461538,34.461538 0 0 1 34.46154,34.46153 z m 204.30769,-64 a 34.461538,34.461538 0 0 1 -34.46154,34.46154 34.461538,34.461538 0 0 1 -34.46154,-34.46154 34.461538,34.461538 0 0 1 34.46154,-34.46153 34.461538,34.461538 0 0 1 34.46154,34.46153 z m -81.23077,0 a 34.461538,34.461538 0 0 1 -34.46154,34.46154 34.461538,34.461538 0 0 1 -34.46154,-34.46154 34.461538,34.461538 0 0 1 34.46154,-34.46153 34.461538,34.461538 0 0 1 34.46154,34.46153 z m -83.69231,0 a 34.461538,34.461538 0 0 1 -34.46154,34.46154 34.461538,34.461538 0 0 1 -34.46153,-34.46154 34.461538,34.461538 0 0 1 34.46153,-34.46153 34.461538,34.461538 0 0 1 34.46154,34.46153 z m -81.23077,0 a 34.461538,34.461538 0 0 1 -34.46154,34.46154 34.461538,34.461538 0 0 1 -34.46153,-34.46154 34.461538,34.461538 0 0 1 34.46153,-34.46153 34.461538,34.461538 0 0 1 34.46154,34.46153 z" class="wine" />
  </symbol>

  <!-- pearls - Creative Commons Attribution - https://thenounproject.com/search/?q=scallop&i=2092485 -->
  <symbol id="pearls" width="512" height="512" viewBox="0 0 512 512">
    <path d="m 256,467.11643 c -38.9364,0 -76.26159,-13.02949 -86.03753,-23.9268 -8.83169,11.81285 -14.40127,24.72324 -9.17922,37.65685 7.9925,19.81389 37.36123,28.65352 95.21858,28.65352 57.85735,0 87.22425,-8.83963 95.21858,-28.65352 5.22206,-12.93361 -0.34752,-25.844 -9.17921,-37.65685 -9.77961,10.89975 -47.1048,23.9268 -86.0412,23.9268 z M 3.5266217,278.19581 A 45.150342,45.150342 0 0 0 4.1807533,314.6641 C 13.986618,339.2377 77.350645,392.55155 134.3572,420.54545 83.04788,373.21161 21.364683,313.15245 3.5266217,278.19581 Z M 165.1252,425.88966 C 97.37464,330.85492 34.596953,231.34937 16.881042,178.50275 8.0163703,187.65693 -2.8430676,202.10401 2.2947046,223.62255 13.220105,269.38183 103.30824,371.1747 165.1252,425.88966 Z m 25.21735,3.81729 C 165.64923,379.74621 118.36304,237.818 101.61459,175.3463 94.8198,149.99947 82.819453,104.57917 92.538589,66.723832 a 62.25304,62.25304 0 0 0 -32.102526,9.683711 c -12.59707,7.264463 -29.488443,19.932993 -30.82419,45.926017 -1.192828,22.90376 11.563652,52.0404 33.830386,95.14529 a 1928.5714,1928.5714 0 0 0 126.900291,212.2281 z m 26.72105,3.8173 C 188.81624,324.35086 175.83683,231.34937 175.83683,147.67062 c 0,-50.10427 5.60379,-88.60825 16.13097,-116.682767 a 62.909004,62.909004 0 0 0 -33.14144,0.996161 c -47.2123,12.656314 -56.63887,51.079668 -33.61601,137.039626 14.97295,55.85587 65.96345,212.12794 91.85325,264.50061 z M 256,439.63192 C 300.49071,411.43525 311.73799,184.05401 311.73799,147.67062 311.73799,27.033137 281.42196,1.7082925 256,1.7082925 c -25.42195,0 -55.73799,25.3248445 -55.73799,145.9623275 0,36.38339 11.24728,263.76463 55.73799,291.9613 z M 508.47338,278.19581 c -17.83806,34.95664 -79.52187,95.0158 -130.82935,142.34964 57.00533,-27.9939 120.37057,-81.30775 130.17522,-105.88135 a 45.150342,45.150342 0 0 0 0.65413,-36.46829 z m 1.23192,-54.57326 c 5.13838,-21.51854 -5.72167,-35.96562 -14.58634,-45.1198 -17.71591,52.84662 -80.4936,152.35217 -148.24415,247.38691 C 408.69176,371.1747 498.7799,269.38183 509.7053,223.62255 Z M 321.65746,429.70695 A 1928.5714,1928.5714 0 0 0 448.55713,217.47824 c 22.26674,-43.10489 35.02322,-72.24153 33.83039,-95.14529 C 481.05177,96.339925 464.1604,83.671395 451.56333,76.406932 A 62.25304,62.25304 0 0 0 419.4608,66.723221 c 9.71914,37.855339 -2.28121,83.277469 -9.076,108.622469 -16.74845,62.47109 -64.03464,204.40296 -88.72734,254.36126 z m -26.72106,3.8173 c 25.8898,-52.37267 76.8803,-208.64474 91.85264,-264.50061 23.02592,-85.959958 13.59873,-124.383312 -33.616,-137.039626 a 62.909004,62.909004 0 0 0 -33.14145,-0.996161 c 10.52719,28.074517 16.13097,66.578497 16.13097,116.682767 0,83.67875 -12.97819,176.68024 -41.22616,285.85363 z" class="pearls" />
  </symbol>

  <!-- furs - Public Domain - https://freesvg.org/1277657138 -->
  <symbol id="furs" width="512" height="512" viewBox="0 0 512 512">
    <path d="M 232.21877,0.82491649 A 70.560674,105.83968 60 0 1 59.341803,51.980406 L 24.072087,97.848166 A 211.68202,264.5992 60 0 1 17.016152,429.4767 l 14.112136,42.33643 a 176.39505,176.39505 0 0 1 225.794152,38.8076 176.39505,176.39505 0 0 1 225.79416,-38.8076 L 496.82874,429.4767 A 264.5992,211.68202 30 0 1 489.76603,97.901266 l -35.2737,-45.85448 A 105.83968,70.560674 30 0 1 281.61536,0.88199649 h -49.39247" class="furs" />
  </symbol>

</svg>
