<?xml version="1.0" encoding="utf-8"?>
<svg width="512px" height="512px" id="svg2" version="1.1" xmlns="http://www.w3.org/2000/svg">
  <path style="fill:rgba(34, 139, 34, 0.75);" d="M 225.917 0 C 226.651 5.864 230.731 11.893 227.123 17.786 L 217.179 8.141 C 218.625 14.015 224.48 20.661 222.301 26.525 L 212.057 14.767 C 210.611 24.316 224.345 29.467 219.291 38.282 L 212.057 29.534 C 212.78 35.418 210.659 45.729 206.328 47.928 L 202.711 22.908 L 199.701 22.908 C 199.701 27.325 201.264 33.257 199.094 37.675 C 193.316 32.515 194.02 18.5 188.243 11.15 L 188.243 28.03 C 181.741 28.03 179.61 17.718 175.28 14.767 C 176.012 19.927 179.446 25.888 177.999 31.048 C 172.222 27.364 171.537 20.612 165.036 19.889 L 177.999 42.797 C 168.595 44.976 169.473 27.393 160.811 31.048 C 164.438 39.855 175.28 47.253 175.28 56.059 C 169.502 51.671 166.415 45.025 159.914 44.311 C 159.914 45.767 160.156 47.185 158.709 47.928 L 152.073 37.675 L 152.073 54.555 C 144.868 50.889 145.543 39.826 137.604 36.17 C 136.881 42.015 144.106 46.385 141.221 51.545 L 127.66 42.797 C 123.319 48.7 137.556 51.555 132.482 58.171 L 115.304 50.937 C 117.455 61.258 137.594 56.879 133.987 70.836 C 127.486 70.836 123.068 64.113 118.015 66.312 C 124.505 72.206 138.328 76.025 141.221 84.098 L 124.641 78.07 C 126.821 81.764 134.045 88.449 128.258 92.837 C 119.577 89.904 118.188 77.328 111.687 71.434 C 110.964 77.328 117.281 81.813 114.397 86.201 C 103.546 83.23 103.768 70.788 95.106 69.322 C 95.83 73.749 100.662 78.938 103.546 84.098 L 101.434 86.201 C 96.379 83.992 91.316 81.803 86.966 79.575 L 95.704 91.333 C 92.087 92.789 86.898 89.22 81.844 89.22 C 86.898 95.094 98.483 93.416 99.929 103.688 L 84.255 100.978 C 87.863 109.784 102.235 104.44 106.556 115.446 C 105.109 117.655 102.881 116.218 101.434 116.951 C 103.604 122.111 112.237 122.343 118.015 125.989 C 115.844 131.891 112.295 125.989 108.668 125.989 L 110.173 133.83 C 103.672 128.699 97.885 118.658 92.087 114.24 L 97.219 127.194 C 89.251 127.194 82.635 111.057 76.115 110.314 L 84.255 124.483 C 74.871 126.682 72.536 116.362 63.152 111.221 C 63.865 117.105 71.051 120.095 72.498 124.483 C 68.167 130.377 60.971 125.959 55.917 124.483 C 56.631 131.119 68.88 127.28 68.88 136.84 C 64.54 138.315 55.792 132.586 52.908 137.746 C 60.132 140.679 71.128 137.495 74.002 145.588 L 56.525 147.092 C 65.187 150.035 74.62 152.311 81.844 155.233 C 78.951 159.651 73.201 156.622 68.88 157.336 L 68.88 160.355 C 76.095 159.622 77.504 168.428 81.844 172.113 C 69.546 175.025 66.652 160.394 56.525 156.738 C 57.268 162.583 65.205 165.448 67.376 170.598 C 57.268 175.73 48.683 160.355 41.449 160.355 L 55.917 175.122 C 48.693 178.083 40.138 170.637 33.617 172.113 C 37.254 177.986 45.838 176.598 50.197 181.758 C 45.124 189.841 33.559 176.646 32.112 188.384 C 40.041 186.928 50.748 183.88 56.525 190.497 L 39.944 197.123 C 47.902 200.046 60.373 191.326 66.17 200.143 C 58.223 202.332 53.081 209.749 46.581 208.283 L 56.525 220.031 C 47.864 224.458 39.356 211.977 32.112 214.91 C 36.443 218.613 43.62 221.507 45.066 226.667 L 30 229.677 C 30.704 230.419 31.341 231.065 30.598 231.789 C 38.555 232.531 43.754 228.838 48.085 236.911 C 43.05 241.338 34.948 239.862 30.598 243.547 C 42.173 248.658 50.159 234.045 59.534 246.556 L 45.066 254.398 C 55.175 255.854 65.274 245.533 72.498 252.893 C 65.292 257.31 55.792 260.976 49.291 259.519 C 52.908 261.699 61.048 265.509 61.048 269.165 L 55.917 269.165 C 48.693 269.907 37.774 259.635 36.328 269.165 L 37.234 270.071 C 40.841 269.368 47.13 271.374 49.291 275.801 L 34.823 282.427 C 41.343 285.388 42.066 280.971 49.291 282.427 C 57.962 289.816 42.183 290.568 41.449 295.69 C 47.96 300.108 55.203 284.656 63.152 294.185 L 55.917 302.923 C 64.598 303.667 71.196 291.909 79.134 297.802 L 74.002 302.923 L 75.517 304.429 C 77.668 305.152 79.683 304.534 81.844 302.325 L 86.966 307.447 L 61.048 307.447 C 63.923 310.38 74.002 310.997 74.002 316.186 L 45.066 315.588 L 67.376 322.214 C 62.321 325.899 55.955 325.127 50.197 327.336 L 63.152 328.85 L 52.908 340.599 C 59.409 343.55 61.097 334.638 66.17 337.589 C 67.617 341.978 58.087 344.322 63.152 348.739 C 69.642 345.054 69.604 339.094 76.115 339.094 C 79.741 342.75 73.279 345.691 74.002 349.347 C 82.664 350.08 83.436 331.793 92.087 340.599 C 92.087 344.254 82.693 346.463 88.471 350.852 C 98.598 350.119 98.617 331.088 110.173 335.477 C 107.279 342.817 94.875 348.016 99.929 355.375 C 102.09 348.739 105.794 355.974 108.668 355.974 C 104.357 363.313 90.631 364.828 88.471 369.236 L 102.042 368.339 C 96.997 377.145 82.693 377.425 77.619 385.517 C 87.043 387.707 92.705 373.731 99.929 380.395 C 96.322 386.974 88.586 390.436 84.255 394.864 C 90.757 400.014 94.383 390.427 98.724 388.228 L 99.929 401.49 C 105.707 397.053 99.331 391.324 106.556 389.134 L 108.07 401.49 L 110.173 401.49 C 112.352 397.073 110.732 387.408 116.509 385.218 L 119.519 398.48 C 123.85 392.597 121.805 384.475 126.155 378.583 C 134.103 375.621 128.875 386.751 132.482 388.228 C 138.26 380.135 132.608 368.329 142.726 366.824 L 142.726 377.377 C 151.388 364.143 145.533 342.093 165.036 335.477 C 180.941 328.86 196.113 330.268 210.552 332.468 C 188.869 345.711 167.119 358.038 149.063 374.965 L 152.073 377.377 L 139.109 389.134 L 147.857 389.134 C 144.973 397.236 137.556 401.51 132.482 408.126 L 146.951 402.397 L 128.258 425.305 C 135.492 425.305 141.356 414.319 147.857 413.547 C 149.285 421.649 135.549 428.748 140.624 434.651 L 152.073 423.8 L 152.073 428.015 C 151.339 430.996 152.795 435.365 155.689 434.651 C 157.85 428.748 152.207 423.578 158.709 421.389 C 159.432 424.301 162.268 427.514 160.811 431.931 L 163.531 431.931 C 168.566 426.067 159.316 418.707 166.54 413.547 C 170.167 417.203 169.492 422.122 171.662 426.51 C 177.43 419.151 167.804 411.232 172.868 402.397 C 178.655 401.702 178.732 410.537 181.616 410.537 C 183.063 400.236 175.173 395.095 183.121 387.022 L 188.243 397.275 C 193.287 382.547 178.665 366.381 190.953 353.871 C 195.284 348.71 204.109 340.637 212.057 342.113 C 209.144 349.444 217.063 356.128 210.552 362.002 C 214.17 403.911 194.56 457.579 180.102 500.963 C 238.63 514.226 295.683 519.328 354.924 494.327 C 337.592 459.054 318.156 408.213 318.156 369.236 C 317.433 358.202 308.878 344.274 321.166 333.972 L 331.12 342.711 C 345.569 353.736 337.64 375.245 341.971 387.022 L 344.074 378.881 C 347.681 385.498 344.855 394.121 349.205 401.49 C 349.938 396.33 350.121 392.819 353.72 389.134 C 358.041 396.465 354.944 407.384 358.542 413.247 L 358.542 399.986 C 367.946 399.281 365.911 414.029 368.795 421.389 L 370.299 405.406 C 378.99 409.795 375.364 419.874 381.151 426.51 L 381.151 410.537 C 388.346 412.727 389.059 424.533 394.114 423.8 C 395.551 416.411 382.434 414.019 387.478 408.126 L 400.441 414.753 L 385.974 400.284 C 390.304 392.983 394.683 404.635 400.441 402.397 C 399.014 395.057 386.745 395.886 387.478 388.527 L 391.096 385.517 C 387.497 380.405 377.582 378.901 375.421 372.255 L 376.627 370.75 C 378.084 370.75 380.427 370.78 381.151 372.255 L 381.758 367.133 C 375.962 364.934 367.281 366.342 363.673 358.992 L 368.187 357.488 C 348.684 354.536 335.383 341.312 322.372 327.346 L 323.278 325.832 C 330.503 330.963 335.643 326.535 342.868 329.448 C 359.497 334.608 375.296 344.939 379.646 362.61 L 379.646 355.375 C 385.423 356.832 385.5 363.449 388.384 367.133 C 393.458 367.837 389.649 376.672 394.712 372.255 C 394.712 367.124 390.545 366.429 388.384 362.002 C 399.236 356.128 399.785 375.178 409.181 377.377 L 401.348 364.114 C 411.466 360.458 413.472 375.94 422.144 378.881 L 423.648 377.377 L 413.704 365.619 C 421.652 358.269 428.182 378.814 435.406 375.872 L 425.162 364.114 L 427.266 362.002 C 433.757 363.477 438.251 368.512 444.753 369.236 L 444.753 367.133 L 443.247 367.133 C 438.898 364.181 431.066 362.638 431.789 357.488 L 446.865 355.974 C 441.81 350.08 428.114 358.289 426.668 348.739 C 429.58 345.808 433.776 347.235 438.117 347.235 L 438.117 344.225 C 431.615 342.778 422.153 347.968 418.527 340.609 C 421.411 332.526 431.789 339.788 431.789 337.589 C 428.182 333.886 418.787 331.715 420.938 325.832 C 432.513 322.186 436.014 338.323 446.865 336.085 C 443.239 333.162 436.873 330.22 435.406 325.832 C 442.65 322.899 451.138 331.647 456.202 329.448 L 446.865 323.121 C 450.463 314.315 461.94 325.87 469.165 322.214 L 453.192 315.588 C 454.639 308.971 464.101 310.447 469.165 308.952 C 461.198 306.039 449.749 314.016 443.247 305.943 C 445.389 299.326 453.385 302.509 457.716 298.101 C 449.035 297.368 436.12 305.402 431.789 296.596 L 440.229 292.98 L 430.284 286.344 C 438.233 278.993 448.312 289.96 457.716 289.96 L 446.865 282.427 C 455.526 279.495 464.246 289.999 472.184 286.344 L 459.22 279.717 C 462.838 270.168 475.165 284.81 480.923 278.212 C 476.592 275.984 469.107 277.421 467.66 271.577 C 471.991 265.683 479.235 274.576 482.129 267.959 C 475.627 267.959 466.995 267.988 465.548 262.837 C 469.155 257.696 478.695 261.285 479.418 254.696 C 472.174 257.629 460.416 260.474 453.192 256.809 L 469.165 246.556 C 461.922 248.755 451.176 253.192 443.247 253.192 L 449.575 245.051 C 441.637 250.182 435.339 241.367 430.284 238.425 C 438.946 234.75 446.036 241.434 454.697 241.434 L 448.369 234.807 C 454.871 230.381 465.558 231.856 472.782 233.293 L 464.044 228.172 C 467.66 220.07 481.444 226.706 483.633 223.05 L 472.184 218.526 C 471.47 211.177 483.759 216.27 479.418 210.386 L 472.184 211.9 C 464.96 203.827 481.646 204.482 480.923 197.123 C 474.421 200.827 464.998 205.968 459.22 203.759 C 459.944 198.599 467.178 198.657 466.454 193.506 C 459.211 195.001 454.089 200.846 446.865 203.759 L 445.959 197.123 C 440.181 195.667 438.975 203.027 433.902 203.759 C 415.845 199.342 410.675 223.686 396.226 230.284 C 360.818 244.299 334.158 281.743 310.315 308.952 C 321.166 267.053 352.031 225.954 389.59 196.525 C 403.326 190.632 418.488 200.875 431.49 200.143 L 422.144 196.525 C 428.664 187.719 444.637 196.428 452.585 193.506 L 441.733 189.889 C 448.967 183.282 458.989 190.043 467.66 184.17 C 464.053 181.218 455.363 186.397 453.192 179.038 C 459.693 167.299 469.85 179.539 478.511 173.617 L 478.511 170.907 C 471.296 165.775 465.606 176.626 459.818 170 C 462.722 161.908 472.936 163.538 475.801 157.645 C 470.023 158.368 463.561 162.149 459.22 160.653 L 467.66 148.906 C 462.587 148.906 458.324 151.597 454.697 156.738 C 432.31 161.879 459.751 147.864 454.697 143.476 L 433.902 157.645 L 433.902 150.112 C 428.143 150.845 425.983 165.495 417.321 160.355 L 423.648 154.028 C 420.051 152.532 419.424 155.465 415.816 152.523 C 421.575 148.847 435.28 147.315 439.631 144.382 L 430.284 143.476 C 432.455 132.422 451.138 136.994 452.585 131.119 L 440.229 132.625 C 438.039 123.818 451.823 128.737 454.697 123.587 L 443.247 122.381 C 444.666 119.4 448.205 117.221 451.08 115.745 L 440.229 114.24 C 439.496 109.813 445.534 108.25 446.257 104.595 C 440.48 103.824 438.233 114.24 430.284 114.24 C 423.784 108.347 433.718 106.1 432.995 99.473 L 430.284 99.473 C 423.764 103.862 424.555 117.925 413.704 114.24 C 417.977 113.005 415.527 108.453 416.414 105.8 L 400.441 123.587 C 400.441 116.97 393.497 118.455 389.89 116.951 L 410.695 106.1 C 407.829 105.376 402.853 108.376 402.853 103.987 L 425.162 91.333 C 421.555 91.333 415.807 92.152 412.199 94.342 C 407.868 81.851 423.002 86.191 428.78 79.575 C 425.153 74.453 415.758 83.327 410.695 82.594 L 423.648 67.817 C 416.414 64.875 411.591 78.157 404.357 75.958 C 405.071 70.064 414.302 65.56 410.695 59.686 C 404.193 65.54 399.757 79.661 391.096 77.462 C 393.998 71.569 396.226 67.855 396.226 62.695 C 388.982 67.855 389.813 78.803 381.151 84.696 C 373.203 80.279 383.929 81.089 381.758 75.958 C 376.685 74.472 373.242 83.192 368.187 78.07 C 370.368 65.569 389.166 70.952 389.89 58.48 L 375.421 66.312 C 373.251 56.011 389.783 54.757 394.114 45.218 C 387.614 43.771 381.941 57.689 375.421 51.844 C 378.325 46.683 386.205 42.836 384.768 36.17 L 373.319 47.928 C 367.522 42.035 377.399 39.315 374.525 31.955 C 365.863 34.145 370.165 48.719 360.056 50.937 L 358.85 36.17 C 353.806 45.015 353.053 57.554 344.383 64.2 C 343.659 58.307 346.369 51.844 347.093 45.218 C 339.155 51.844 341.296 70.797 332.625 75.958 C 333.367 73.749 331.235 71.598 334.129 70.836 L 329.008 66.312 C 331.178 64.123 332.741 61.894 335.634 61.191 C 324.802 50.87 349.263 44.465 347.093 33.46 L 331.12 49.433 C 326.799 38.428 343.428 28.223 345.588 18.693 L 331.12 29.544 C 331.853 22.908 334.795 17.043 336.241 11.15 C 329.741 11.873 330.57 21.5 324.783 24.413 C 319.025 20.728 327.676 12.626 321.166 11.15 C 315.388 17.786 323.462 27.548000000000002 313.334 31.955 C 311.174 31.232 312.552 29.023 311.829 26.824 C 315.436 24.634 311.887 16.474 309.717 18.693 C 306.109 23.795 310.189 36.393 303.689 40.086 C 300.805 37.897 305.926 33.422 301.577 31.955 C 303.746 40.761 293.609 40.067 290.725 45.218 C 285.671 37.858 300.312 28.792 298.865 22.908 L 290.127 31.048 C 284.349 20.728 301.026 16.561 295.249 9.944 L 285.902 18.693 C 284.455 13.533 292.239 4.726 288.613 1.814 C 285.748 4.003 284.937 7.012 283.491 9.944 L 279.276 5.43 L 275.659 15.076 C 270.585 12.096 271.425 2.517 267.817 1.814 C 264.943 9.867 275.061 16.34 267.817 24.413 C 264.209 20.728 264.73 13.561 259.677 13.561 C 260.409 20.921 264.799 27.315 261.191 34.666 C 260.468 32.457 251.979 29.524 254.854 22.908 L 248.228 31.955 C 246.791 26.042 251.902 17.95 249.732 12.057 C 246.868 15.037 244.475 24.413 241.592 24.413 L 241.592 1.814 C 235.09 2.5460000000000003 238.813 13.359 233.759 16.281 C 229.419 11.854 232.438 1.476 225.917 0 Z M 285.864 504.59 L 283.674 504.59 C 279.343 481.797 272.109 456.787 272.843 430.33 C 269.284 412.708 265.724 394.719 262.918 375.863 C 269.718 421.485 280.916 462.005 285.864 504.59 M 257.67 505.998 L 256.233 425.169 L 258.394 481.759 L 257.651 506.027 M 186.101 498.002 C 191.879 473.763 205.604 447.305 209.212 420.086 C 204.157 447.305 199.826 474.506 186.101 498.002 M 256.127 421.494 L 257.564 413.421 L 256.127 417.077 L 256.127 421.494 M 347.189 491.414 C 335.634 465.68 322.632 436.252 318.282 410.537 L 347.189 491.414 M 251.043 504.59 C 249.597 474.429 252.49 438.442 253.214 405.348 L 251.043 504.59 M 212.057 504.59 C 215.664 472.229 224.355 435.471 230.113 401.664 C 227.943 436.204 220.015 469.298 212.057 504.59 M 264.914 505.998 L 259.86 398.693 L 267.788 505.998 L 264.914 505.998 M 232.332 507.57 L 244.62 398.751 L 236.663 489.929 L 232.332 507.57 M 340.717 492.832 C 326.278 462.7 316.16 428.883 309.591 395.057 C 317.54 428.15 328.39 461.224 340.717 492.832 M 293.725 503.172 C 285.044 469.365 274.212 433.349 272.766 395.095 L 293.725 503.172 M 267.683 395.79 C 269.129 434.729 269.852 472.962 277.087 508.255 L 274.203 506.017 C 265.522 470.773 269.852 432.52 264.799 395.018 L 267.683 395.79 M 241.794 507.57 C 240.338 472.297 250.455 435.529 248.295 395.095 C 250.455 432.587 246.124 470.822 241.794 507.57 M 327.773 498.002 C 313.324 477.419 310.46 447.305 303.216 421.563 L 297.419 393.61 C 306.823 428.912 314.048 464.185 327.773 498.002 M 301.731 501.609 C 288.024 469.249 285.845 429.587 277.916 393.533 L 301.731 501.609 M 222.233 507.57 C 224.403 469.346 233.798 431.111 238.852 393.629 C 233.074 429.654 232.351 472.326 222.233 507.57 M 202.662 503.172 L 201.196 503.172 L 225.753 393.629 C 218.548 430.388 215.664 468.623 202.662 503.172 M 318.379 499.497 L 316.198 497.993 C 303.939 464.176 297.419 428.16 290.918 392.153 C 298.142 428.902 307.546 464.176 318.379 499.497 M 193.258 500.983 C 204.09 467.899 214.941 429.684 219.272 392.163 C 213.475 429.684 206.251 466.432 193.258 500.983 M 334.245 495.022 C 319.796 461.957 309.688 427.407 303.119 390.63 C 311.058 426.674 321.889 461.195 334.245 495.022 M 313.296 375.255 C 286.539 391.411 246.819 393.629 217.208 382.604 L 217.208 380.405 C 243.935 387.765 273.566 385.556 303.187 380.405 C 306.061 377.483 310.392 374.512 313.296 375.255 M 309.591 367.104 C 295.152 377.396 274.907 381.052 254.68 380.328 C 270.566 379.595 292.239 371.522 309.591 367.104 M 218.683 365.686 L 218.683 364.23 L 228.791 367.142 L 218.683 365.686 M 309.591 359.108 C 296.589 363.526 285.014 369.371 271.289 372.322 L 272.756 370.847 L 262.628 370.847 C 279.961 369.371 292.982 358.337 309.611 355.423 L 309.591 359.108 M 240.26 364.278 C 238.08 365.735 222.194 362.802 219.301 355.433 L 240.26 364.278 M 264.914 356.128 C 259.86 363.497 254.786 354.633 249.732 353.929 L 264.914 356.128 M 309.591 347.35 C 291.535 359.86 268.396 365.002 246.742 369.39 C 270.566 369.371 288.622 344.37 309.591 347.35 M 251.815 361.925 L 251.073 362.667 C 239.517 358.24 226.496 351.662 218.578 344.274 C 225.802 352.366 244.6 350.157 251.815 361.925 M 311.752 334.02 C 290.069 351.691 248.179 344.322 219.301 340.637 C 244.6 340.637 282.15 348.71 308.174 332.564 L 311.8 334.02 M 165.065 395.79 C 173.726 391.372 176.639 377.396 180.237 367.104 C 179.514 385.469 169.396 403.843 154.233 413.421 C 152.767 399.455 151.349 384.031 162.171 372.255 C 169.396 367.104 169.396 372.255 175.173 365.628 C 170.138 375.91 170.138 385.469 165.065 395.79 M 383.398 401.751 C 370.396 403.207 360.287 392.935 353.787 381.881 C 351.626 376.007 347.267 372.351 348.732 365.725 C 352.321 373.798 354.51 390.697 368.236 395.114 C 366.789 386.308 355.214 378.187 353.797 368.648 C 361.734 370.113 366.789 381.871 371.843 387.022 C 373.29 378.216 365.342 369.361 357.384 364.249 C 353.063 365.705 349.456 362.774 348.732 359.089 C 368.959 361.327 377.62 384.842 383.398 401.751 M 181.703 357.565 L 183.15 357.565 L 183.15 355.375 L 181.703 355.375 L 181.703 357.565 M 344.257 353.929 L 344.257 356.137 L 340.659 352.472 C 342.087 352.453 343.534 351.749 344.257 353.929 M 140.565 344.37 C 136.225 350.263 131.904 360.565 121.785 368.648 L 123.232 369.371 C 132.627 364.23 139.862 356.157 145.648 348.787 C 141.317 359.841 124.699 380.454 106.633 381.852 C 108.098 367.162 115.314 353.196 128.315 344.37 C 133.37 346.578 139.89 339.943 139.148 345.846 L 140.565 344.37 M 153.51 337.782 C 152.063 340.695 149.902 338.525 147.732 339.258 C 149.159 337.782 152.073 334.841 153.51 337.782 M 422.385 353.929 C 415.874 363.506 400.683 356.851 391.259 355.405 C 384.758 352.472 380.427 347.331 374.63 342.894 C 384.025 346.578 394.876 362.002 407.154 356.137 C 400.644 349.492 388.356 348.787 381.855 342.161 C 386.185 338.534 397.76 345.846 405.679 347.312 C 402.071 337.772 392.687 337.772 384.72 336.296 C 379.665 336.296 373.878 342.161 371.718 335.554 C 393.429 330.433 409.315 342.923 422.337 353.929 M 404.357 334.02 L 410.859 331.108 L 407.261 327.404 L 418.826 332.564 L 404.357 334.02 M 114.523 311.257 C 104.414 310.524 92.849 312.733 84.188 319.33 C 90.688 324.49 97.19 316.418 103.691 315.646 L 119.577 314.19 L 113.076 316.398 L 114.523 317.874 C 106.594 325.224 98.637 325.224 88.519 328.88 C 100.816 331.831 113.799 324.49 121.757 316.398 C 120.3 322.291 108.745 330.365 100.074 332.564 C 89.946 332.564 77.658 333.297 72.613 327.404 C 83.474 317.151 97.932 307.573 114.523 311.257 M 446.267 316.466 C 433.969 320.854 413.752 326.748 399.284 316.466 C 396.4 313.515 392.783 312.038 391.346 309.107 C 401.455 300.271 417.369 303.917 428.924 304.689 C 436.158 306.174 442.659 312.781 446.267 316.466 M 427.468 289.97 C 427.468 295.092 419.53 292.179 417.359 292.902 L 420.948 289.246 L 417.359 283.353 L 427.468 289.941 M 121.767 283.383 C 122.49 288.571 116.712 285.61 114.542 286.334 C 118.873 287.809 116.702 281.192 121.767 283.383 M 108.765 281.192 C 100.103 284.105 107.318 289.98 97.209 291.455 C 84.911 294.378 68.321 287.771 56.747 282.649 C 58.193 276.032 68.321 274.576 74.079 271.644 C 88.548 270.901 98.675 271.644 108.765 281.192 M 402.815 266.455 C 400.644 267.187 399.207 267.93 396.313 267.93 C 398.484 267.187 400.654 265.712 402.815 266.455 M 461.362 269.435 C 451.977 274.556 439.688 280.45 426.677 279.717 C 426.677 279.717 440.412 280.45 444.733 274.556 C 438.956 269.435 428.857 273.823 420.89 274.556 C 415.845 271.644 412.228 274.556 407.174 271.644 C 413.675 266.483 421.613 260.61 433.168 259.866 C 444.01 259.134 451.948 265.75 461.352 269.435 M 69.074 262.75 L 74.127 259.809 L 76.279 262.75 L 69.074 262.75 M 114.523 243.72 L 114.523 248.128 L 108.041 248.128 C 108.735 244.444 110.192 240.036 114.523 243.72 M 97.267 238.55 C 90.043 243.701 76.318 239.312 69.103 242.968 C 79.192 247.385 88.606 245.167 100.228 243.701 C 90.824 255.449 74.938 245.167 63.383 242.968 L 53.265 233.39 C 68.456 231.191 84.391 237.045 97.344 238.512 M 410.82 228.201 C 410.82 230.439 407.946 231.162 407.232 233.361 L 404.357 233.361 C 403.615 229.677 407.232 226.744 410.859 228.201 M 95.724 233.332 C 87.052 229.677 63.219 228.905 54.538 229.677 C 66.836 223.745 86.329 227.429 95.724 233.332 M 85.712 218.642 L 82.095 216.424 L 85.712 217.137 L 85.712 218.642 M 466.445 217.166 C 454.157 230.4 435.319 237.007 415.874 231.885 C 428.886 231.133 448.369 230.4 457.793 217.166 C 446.228 220.812 427.439 230.4 415.874 223.06 L 428.886 213.511 L 420.928 223.783 C 428.886 222.326 436.853 211.273 446.962 217.137 L 449.836 214.938 L 443.334 210.55 C 452.72 212.739 459.944 209.817 466.435 217.137 M 433.168 206.884 C 431.008 207.618 429.58 210.55 426.668 209.817 C 427.391 208.351 430.284 206.161 433.168 206.884 M 116.683 206.884 C 117.407 212.035 108.021 212.035 108.735 205.418 L 116.683 206.884 M 80.629 208.293 C 75.574 216.395 69.778 203.904 64.723 208.293 L 71.225 220.06 C 64.723 218.603 58.946 212.711 54.605 209.797 C 58.936 209.797 71.938 203.161 80.609 208.321 M 106.671 196.535 L 102.34 197.268 L 106.671 201.695 C 103.787 203.151 102.34 197.268 100.161 201.695 L 102.322 205.341 C 87.873 201.695 72.69 198.714 61.135 185.501 C 61.859 186.215 62.582 184.758 63.306 184.024 C 62.582 181.816 60.432 183.282 58.241 183.282 C 68.379 176.675 79.915 183.282 90.747 183.282 C 95.82 187.709 102.322 190.641 106.652 196.506 M 451.196 164.242 C 449.759 164.242 449.035 164.994 448.312 165.728 C 448.312 171.592 451.919 164.242 452.662 168.659 C 451.225 180.437 438.203 179.694 431.702 187.034 L 410.743 189.966 C 425.201 189.243 438.926 181.17 446.884 170.858 C 437.499 176.752 424.487 183.369 410.743 184.083 L 433.139 170.116 C 419.424 167.927 406.402 181.893 397.741 189.966 C 405.679 174.534 430.236 160.558 451.205 164.242 M 129.782 164.242 L 129.782 168.659 C 127.621 169.412 121.844 165.728 126.175 163.529 C 126.878 164.994 128.335 164.271 129.782 164.271 M 120.995 156.873 C 112.334 149.514 102.215 137.023 90.641 137.795 C 92.802 146.601 108.696 147.343 114.484 156.873 C 106.546 157.606 97.161 150.285 90.641 147.343 C 90.641 154.703 102.919 157.606 108.696 162.023 C 104.375 163.529 84.159 152.485 77.581 142.183 C 74.697 138.527 76.124 136.289 77.581 132.605 C 94.962 132.605 113.018 139.984 120.937 156.873 M 357.356 127.551 L 361.686 120.924 L 361.686 124.58 L 357.356 127.551 M 435.319 122.313 C 425.944 137.003 410.038 151.741 391.259 150.979 C 404.262 143.62 423.06 140.659 428.837 124.493 C 420.166 131.853 407.154 142.887 392.706 143.62 L 387.652 148.762 C 391.259 139.202 402.815 131.834 412.209 124.493 L 400.654 136.994 C 407.174 138.47 412.932 129.625 418.71 125.959 L 415.835 123.76 C 417.987 122.313 429.561 115.668 435.319 122.313 M 181.703 106.157 C 181.703 107.614 182.426 108.347 183.15 109.09 L 181.703 110.555 L 178.095 106.167 L 181.703 106.167 M 332.702 102.473 C 331.997 103.929 334.158 106.881 331.255 107.614 L 331.255 102.473 L 332.702 102.473 M 141.337 117.211 L 141.337 127.522 C 134.112 130.435 123.281 123.105 116.779 117.211 C 110.992 111.308 107.375 102.521 105.206 94.428 C 120.378 90.773 136.331 103.273 141.337 117.211 M 207.745 95.885 L 210.629 95.885 L 210.629 91.497 L 207.745 91.497 L 207.745 95.885 M 145.648 92.904 L 141.317 92.904 L 140.594 102.482 L 137.71 89.259 C 139.89 91.438 144.221 89.259 145.648 92.904 M 303.119 92.904 L 301.654 92.904 L 301.654 87.754 C 303.843 88.487 302.396 91.419 303.119 92.904 M 371.843 86.327 C 374.013 90.744 368.236 92.22 368.236 95.875 L 363.905 91.448 C 363.181 93.676 361.734 92.953 360.297 92.953 C 361.021 87.059 368.254 88.536 371.852 86.307 M 337.795 92.904 L 337.795 86.278 L 339.222 92.904 L 337.795 92.904 M 402.815 82.565 C 409.335 93.609 396.313 99.493 394.876 109.041 C 386.205 110.546 381.151 121.532 370.299 119.343 C 383.301 112.726 399.93 100.225 404.262 86.25 C 396.313 86.25 393.41 98.759 387.632 103.881 L 370.271 114.201 L 391.23 90.686 C 381.122 92.152 369.547 106.842 363.779 115.658 C 368.834 95.075 387.632 92.142 402.815 82.565 M 243.183 84.127 L 243.183 86.327 L 240.299 82.642 C 241.755 81.89 242.46 83.365 243.183 84.127 M 178.163 94.322 L 178.163 99.473 C 176.003 99.473 172.386 91.371 168.759 87.705 C 165.884 91.351 168.759 97.284 173.109 98.017 C 160.811 101.672 154.329 87.705 147.085 79.632 C 146.362 73.015 136.234 65.666 140.585 61.268 C 159.384 64.942 170.225 76.7 178.163 94.322 M 368.911 57.603 C 368.911 73.797 357.346 89.991 342.907 95.856 C 349.407 95.123 360.963 78.957 365.293 69.389 C 356.632 71.588 354.443 87.04 342.907 90.696 C 342.183 83.346 352.291 76.006 350.854 69.389 L 347.238 73.074 C 349.407 67.923 356.632 62.02 363.856 56.146 L 363.856 57.603 L 368.911 57.603 M 167.38 65.001 C 162.325 61.335 157.995 53.947 160.146 48.073 C 163.772 54.689 170.254 55.413 167.38 65.001 M 296.648 61.239 C 293.773 61.981 293.059 56.831 290.146 58.326 C 290.146 54.67 295.219 49.51 297.371 45.092 L 296.648 61.239 M 210.668 79.738 L 206.347 82.671 C 213.572 71.665 204.891 60.631 199.836 51.815 L 199.113 51.815 C 198.38 59.174 203.444 67.248 204.167 76.083 C 200.57 71.665 194.05 51.082 186.834 41.533 C 185.387 56.243 196.239 71.665 201.293 82.699 C 188.995 75.35 184.664 62.117 181.78 49.606 L 186.13 36.373 C 200.579 44.446 212.135 59.927 210.668 79.738 M 258.287 51.681 L 256.127 51.681 C 259.011 41.359 249.606 46.52 254.68 34.743 C 255.384 42.102 258.297 44.32 258.287 51.681 M 324.85 61.239 C 320.519 68.588 317.617 78.909 308.222 82.565 C 315.446 73.025 323.385 62.715 321.214 50.889 C 317.587 61.162 312.533 72.215 305.309 79.536 C 308.897 71.482 312.524 56.02 314.694 46.472 C 305.309 52.365 306.756 64.865 303.139 74.405 C 301.672 61.894 306.746 41.312 321.195 33.238 C 326.972 39.131 326.249 51.632 324.802 61.191 M 248.266 61.239 C 248.99 65.666 247.543 69.331 244.659 71.521 C 239.604 64.19 248.266 55.365 241.784 48.025 L 240.338 75.958 C 238.177 61.991 233.104 48.025 231.675 36.247 C 225.175 50.224 230.952 60.534 236.73 73.045 C 227.326 60.534 222.995 42.883 230.229 26.689 C 243.202 31.83 243.925 49.481 248.266 61.239 M 284.321 53.243 L 280.732 61.316 C 282.902 53.243 282.902 40.732 280.732 34.859 C 275.669 42.208 280.009 60.602 277.116 65.019 L 277.116 62.792 L 272.784 62.792 C 272.784 55.442 274.231 46.626 271.319 40.009 C 264.094 48.082 269.872 62.792 271.319 73.112 C 261.933 70.141 263.38 51.786 264.817 41.437 C 269.148 36.286 270.595 27.489 277.116 25.242 C 283.616 28.193 285.786 44.388 284.339 53.185 M 149.96 317.093 C 161.554 316.929 174.546 321.742 186.738 323.121 C 175.163 327.51 152.844 325.175 139.109 335.477 C 129.01 333.287 121.14 336.953 113.192 342.113 C 113.192 343.57 112.237 344.987 114.397 345.73 C 115.14 346.463 110.163 349.444 106.556 348.739 C 115.96 339.904 118.285 326.121 131.277 324.626 C 136.698 319.119 143.005 317.189 149.96 317.093 Z M 205.73 315.588 C 209.954 319.099 213.745 322.841 217.179 327.336 C 213.523 323.546 209.626 319.601 205.73 315.588 Z M 363.365 309.251 C 375.836 309.994 388.394 315.154 399.236 324.326 C 397.808 327.24 392.012 330.317 388.384 327.336 C 386.938 328.812 392.735 324.597 388.384 323.121 C 367.435 336.335 349.484 321.442 327.802 320.71 C 338.643 312.241 350.903 308.518 363.365 309.251 Z M 127.66 289.96 C 152.217 295.844 175.125 306.946 196.085 317.999 C 167.177 309.184 134.74 309.155 106.556 298.101 C 110.905 287.799 118.988 295.844 127.66 289.96 Z M 384.768 279.717 C 393.275 278.704 401.888 281.019 410.695 289.064 C 404.898 300.069 387.121 300.049 374.823 299.307 C 358.918 299.307 345.145 303.792 331.419 308.952 C 348.327 300.358 366.065 281.954 384.768 279.717 Z M 110.173 253.491 C 145.186 255.893 178.095 287.163 205.421 315.279 C 175.829 290.925 129.377 287.617 103.546 266.455 L 82.143 258.314 C 91.634 254.321 100.913 252.854 110.173 253.491 Z M 399.236 236.911 C 414.418 238.415 424.632 243.729 436.911 249.575 C 434.731 250.308 432.667 252.391 429.078 251.688 C 429.078 250.241 432.686 248.022 429.078 246.556 C 416.076 247.298 409.469 265.654 395.021 264.95 C 371.177 276.737 342.174 288.62 322.68 306.241 C 340.736 279.042 369.606 250.182 399.236 236.911 Z M 97.219 213.106 C 128.865 212.662 158.776 243.72 183.121 266.455 L 218.683 315.588 C 188.329 278.839 146.314 253.887 106.556 233.293 L 90.882 213.404 C 93.013 213.086 95.106 213.135 97.219 213.106 Z M 111.986 169.393 C 114.523 169.296 116.992 169.808 119.519 170.907 C 145.543 179.742 162.876 204.628 181.616 228.172 C 197.512 253.915 213.369 279.09 223.506 307.747 C 196.055 269.493 166.482 226.638 123.136 206.769 C 113.027 200.923 110.964 180.359 97.219 175.122 L 95.106 177.534 L 97.219 180.244 L 92.087 175.122 C 96.977 174.022 104.366 169.682 111.986 169.393 Z M 392.61 159.149 C 398.83 158.523 405.004 159.285 410.695 160.653 C 388.269 196.669 346.63 215.758 329.307 254.696 C 314.858 275.28 309.775 299.393 300.371 322.214 C 311.222 273.679 330.483 219.511 365.178 173.916 C 371.939 164.725 382.231 160.191 392.61 159.149 Z M 127.66 133.222 C 158.255 132.104 169.955 172.296 188.243 195.021 C 207.013 229.57 221.462 268.519 233.759 307.447 C 214.257 258.237 176.022 195.223 129.772 155.532 L 121.023 134.129 C 123.242 133.676 125.624 133.3 127.66 133.232 L 127.66 133.222 Z M 389.89 123.885 C 379.772 151.838 355.127 172.942 339.251 198.637 C 322.825 232.107 307.112 262.345 298.567 298.4 C 310.257 241.55 318.89 189.387 355.234 135.634 C 364.628 126.798 379.791 126.828 389.89 123.885 Z M 354.626 100.978 C 357.279 101.017 359.574 101.981 361.561 103.987 C 323.269 167.965 297.959 237.152 287.108 312.868 C 295.77 242.312 308.318 177.447 331.419 114.24 C 336.849 108.173 346.669 100.853 354.626 100.978 Z M 149.362 100.978 C 181.886 105.415 186.044 134.177 197.589 159.149 C 214.218 201.821 222.985 242.264 235.264 286.344 C 216.484 229.754 197.791 179.723 160.213 134.129 C 158.052 123.095 147.201 114.221 149.362 100.978 Z M 326.297 78.369 C 327.744 89.422 330.609 98.798 322.68 107.604 C 300.294 168.64 285.777 243.749 279.276 306.241 C 282.15 237.856 293.869 163.335 303.987 97.959 C 305.434 88.38 321.243 86.442 326.297 78.369 Z M 257.574 68.116 L 266.313 79.874 C 261.972 160.75 264.943 217.263 264.201 292.98 C 260.593 219.472 255.442 164.984 248.228 90.725 C 251.835 84.108 248.189 74 257.574 68.116 Z M 175.28 66.312 C 176.012 76.584 188.918 84.089 197.589 89.22 C 228.714 150.237 231.782 222.365 245.517 289.96 C 231.782 223.07 210.678 161.995 186.13 100.978 C 191.184 78.919 175.28 87.628 175.28 66.312 Z M 292.23 65.106 L 296.753 81.079 C 282.304 153.13 276.488 229.783 271.434 306.241 C 275.061 235.666 269.284 152.398 282.286 75.958 L 292.23 65.106 Z M 214.17 44.311 L 219.291 50.937 L 215.674 51.844 C 220.14 70.016 238.881 80.414 238.881 97.959 C 243.212 170.753 256.85 246.353 257.574 319.205 C 251.805 265.529 243.135 203.277 230.143 159.149 L 231.647 160.653 C 228.029 131.265 210.678 95.692 220.796 64.808 L 217.179 61.191 L 214.17 64.2 C 210.542 57.573 216.34 49.433 214.17 44.311 Z" />
</svg>