<?xml version="1.0" encoding="utf-8"?>
<svg width="512px" height="512px" xmlns="http://www.w3.org/2000/svg" xmlns:bx="https://boxy-svg.com">
  <path d="M 48.708 16.331 C 50.4 14.404 50.844 12.205 49.822 10.819 C 48.876 9.538 40.579 7.435 36.368 7.41 C 34.039 7.399 34.045 7.408 39.43 12.503 C 45.002 17.778 46.79 18.516 48.708 16.331 Z M 80.791 18.935 C 81.695 16.221 78.515 3.753 76.919 3.753 C 76.115 3.753 75.743 17.778 76.517 18.883 C 77.33 20.037 80.411 20.076 80.791 18.935 Z M 31.628 40.794 C 32.686 39.733 32.763 36.958 31.785 35.128 C 31.198 34.031 29.784 33.689 24.102 33.262 C 18.02 32.808 16.956 32.904 15.722 34.02 C 14.945 34.726 14.454 35.539 14.633 35.828 C 14.815 36.117 16.965 36.781 19.414 37.302 C 21.864 37.82 24.909 38.989 26.18 39.895 C 28.831 41.786 30.38 42.039 31.628 40.794 Z M 193.64 59.167 C 193.64 57.24 193.39 56.979 191.532 56.979 C 188.377 56.979 187.997 59.004 190.915 60.272 C 192.213 60.837 193.359 61.311 193.459 61.327 C 193.558 61.341 193.64 60.371 193.64 59.167 Z M 201.745 55.058 C 202.624 53.997 202.572 53.906 201.291 54.289 C 200.491 54.529 198.907 54.945 197.771 55.218 C 195.853 55.675 195.735 55.904 196.154 58.351 C 197.438 65.836 197.314 65.734 199.108 60.784 C 200.009 58.296 201.194 55.719 201.745 55.058 Z M 184.387 61.9 L 186.269 57.709 L 183.028 57.709 C 181.245 57.709 179.787 57.982 179.787 58.318 C 179.787 60.429 181.556 67.158 181.984 66.679 C 182.27 66.356 183.353 64.207 184.387 61.9 Z M 177.723 65.728 C 177.379 63.127 176.342 62.421 171.401 61.421 C 168.996 60.933 164.98 59.55 162.475 58.348 C 157.041 55.741 154.999 52.779 152.855 44.398 C 149.537 31.427 145.99 28.354 132.6 26.847 L 129.527 26.502 L 131.393 30.184 C 134.273 35.867 135.152 39.603 135.689 48.455 C 136.287 58.307 137.629 61.016 143.345 63.915 C 149.879 67.225 153.676 67.85 166.298 67.696 L 177.966 67.552 L 177.723 65.728 Z M 195.098 67.944 C 195.098 65.519 193.979 64.695 189.807 64.053 C 187.335 63.672 186.963 63.838 185.979 65.739 C 184.489 68.627 184.494 68.636 187.991 68.718 C 190.48 68.776 192.941 69.245 194.916 70.033 C 195.018 70.071 195.098 69.132 195.098 67.944 Z M 216.315 68.093 C 218.795 60.682 218.371 55.623 214.943 51.693 C 211.721 48 205.816 52.429 201.85 61.512 C 201.004 63.449 201.081 63.54 205.518 65.885 C 208.458 67.442 210.657 69.231 211.793 70.992 C 212.755 72.483 213.796 73.546 214.108 73.353 C 214.419 73.163 215.411 70.793 216.315 68.093 Z M 207.874 71.576 C 206.805 70.463 204.617 68.955 203.01 68.233 C 200.511 67.106 199.998 67.067 199.43 67.963 C 198.339 69.685 198.645 71.559 200.02 71.587 C 200.723 71.598 203.101 72.502 205.308 73.59 C 209.946 75.883 211.118 74.963 207.874 71.576 Z M 32.039 86.821 C 36.274 83.489 33.565 80.326 26.453 80.298 C 24.367 80.29 20.525 79.832 17.921 79.281 C 15.314 78.73 13.104 78.35 13.007 78.435 C 12.914 78.521 13.826 79.94 15.035 81.585 C 17.629 85.11 23.554 88.334 27.442 88.334 C 29.046 88.334 30.889 87.728 32.039 86.821 Z M 118.074 205.667 C 120.023 204.939 125.537 201.946 130.324 199.017 C 135.113 196.088 140.278 192.957 141.801 192.056 L 144.574 190.422 L 144.99 178.569 C 145.591 161.434 147.109 155.82 152.408 151.168 C 154.905 148.975 154.944 148.867 153.365 148.542 C 152.458 148.355 149.091 147.658 145.883 146.993 C 138.404 145.445 131.285 141.711 126.705 136.943 C 116.085 125.879 114.166 123.536 114.166 121.629 C 114.166 119.998 114.489 119.684 116.17 119.67 C 117.272 119.662 119.653 118.962 121.456 118.113 C 123.261 117.267 126.948 115.691 129.651 114.613 L 134.562 112.651 L 130.379 106.514 C 128.078 103.135 122.257 96.4 117.446 91.544 C 110.454 84.492 106.718 81.428 98.853 76.302 C 86.581 68.308 81.993 64.463 79.59 60.164 C 77.03 55.579 77.126 51.687 79.97 45.093 C 85.341 32.634 85.743 29.79 82.74 25.538 C 81.775 24.174 80.144 23.314 77.03 22.529 C 71.692 21.186 71.518 21.33 68.583 29.512 L 66.536 35.222 L 63.369 29.512 C 61.63 26.373 59.503 21.908 58.643 19.588 C 56.772 14.542 55.945 13.873 54.427 16.182 C 51.687 20.349 50.213 21.49 47.022 21.917 C 43.911 22.333 43.798 22.438 43.574 25.119 C 43.376 27.552 43.985 28.798 48.529 35.235 C 51.379 39.273 53.559 42.728 53.377 42.91 C 52.77 43.517 50.095 41.689 45.101 37.255 C 42.389 34.85 39.675 32.973 39.071 33.089 C 38.349 33.226 37.649 34.921 37.038 38.011 C 35.919 43.657 34.574 45.906 31.719 46.901 C 27.778 48.273 29.352 50.45 35.029 51.478 C 39.802 52.341 41.982 53.809 41.982 56.163 C 41.982 59.315 39.102 62.986 35.624 64.273 C 31.504 65.794 29.153 68.178 28.244 71.758 C 27.34 75.318 27.555 75.842 29.751 75.431 C 32.108 74.988 36.393 76.972 38.512 79.491 C 40.262 81.571 40.378 81.601 42.103 80.43 C 43.084 79.763 45.079 77.906 46.54 76.302 C 49.907 72.604 50.825 73.053 54.636 80.259 C 59.856 90.131 59.175 95.386 51.428 104.998 C 47.984 109.275 47.796 109.708 48.769 111.177 C 52.272 116.481 58.017 120.009 64.838 121.042 C 71.174 122.001 73.634 123.492 73.006 125.992 C 72.755 126.989 72.053 131.638 71.441 136.323 C 70.829 141.008 69.856 145.792 69.28 146.958 C 68.702 148.123 68.23 149.146 68.23 149.231 C 68.23 149.317 69.57 149.567 71.204 149.788 C 73.02 150.03 77.484 149.501 82.654 148.429 C 88.003 147.319 91.387 146.925 91.823 147.363 C 92.203 147.743 92.512 151.761 92.503 156.291 C 92.492 164.46 91.045 172.724 89.24 174.896 C 87.937 176.469 89.56 177.489 93.906 177.825 C 97.326 178.09 98.249 177.825 102.107 175.477 C 105.092 173.661 106.974 172.961 108.109 173.248 C 113.205 174.526 113.651 187.357 109.264 206.32 C 108.892 207.927 109.013 207.987 111.7 207.502 C 113.257 207.221 116.126 206.397 118.074 205.667 Z M 227.38 23.683 C 227.892 23.366 224.318 21.253 223.271 21.253 C 223.216 21.253 223.171 22.198 223.171 23.352 C 223.171 25.265 223.326 25.395 224.916 24.788 C 225.878 24.424 226.985 23.926 227.38 23.683 Z M 216.61 28.002 C 215.003 26.83 213.242 25.323 212.691 24.656 C 212.14 23.986 210.765 23.441 209.635 23.441 C 205.559 23.441 206.367 21.487 212 17.709 C 216.577 14.639 220.413 14.633 227.016 17.689 C 233.632 20.754 240.387 21.272 246.502 19.189 C 251.76 17.397 253.532 18.21 250.206 20.886 C 247.624 22.964 243.156 24.168 238.031 24.168 C 234.834 24.168 233.591 24.598 230.359 26.825 C 224.93 30.564 220.617 30.934 216.61 28.002 Z M 276.906 40.391 C 279.731 37.374 281.137 34.084 281.137 30.493 C 281.137 26.216 279.792 25.028 276.353 26.274 C 272.175 27.784 270.982 25.742 274.253 22.672 C 276.656 20.415 280.98 20.307 283.84 22.438 C 285.601 23.749 285.907 24.526 286.1 28.222 C 286.502 35.9 282.465 42.398 277.298 42.398 L 275.033 42.398 L 276.906 40.391 Z M 240.745 100.051 C 237.295 95.67 234.473 91.768 234.473 91.382 C 234.473 90.993 235.046 90.45 235.749 90.175 C 236.68 89.808 237.615 90.417 239.213 92.429 C 240.414 93.942 242.467 96.348 243.776 97.772 C 246.061 100.264 246.193 100.31 247.221 98.974 C 249.765 95.664 250.831 89.69 250.856 78.645 C 250.873 70.176 251.099 67.729 251.906 67.23 C 253.306 66.362 254.822 66.996 257.599 69.6 C 259.68 71.554 260.002 71.659 260.438 70.52 C 261.254 68.393 259.476 58.365 257.01 51.186 C 255.097 45.619 254.868 44.318 255.701 43.795 C 256.478 43.307 259.256 43.539 259.697 44.128 C 259.735 44.178 260.851 48.651 262.177 54.063 C 265.216 66.461 265.318 71.634 262.62 76.236 C 260.317 80.168 259.002 80.031 257.051 75.649 L 255.72 72.656 L 255.665 78.854 C 255.588 87.215 253.97 97.475 252.041 101.834 C 250.454 105.422 248.572 108.018 247.557 108.018 C 247.26 108.018 244.195 104.433 240.745 100.051 Z M 246.32 176.042 C 244.487 175.689 241.575 172.234 240.299 168.899 C 239.384 166.51 237.077 155.63 236.319 150.124 L 235.84 146.657 L 233.517 148.402 C 225.032 154.768 206.695 159.229 194.114 157.989 C 187.793 157.366 187.079 157.077 187.079 155.123 C 187.079 153.864 187.732 153.351 190.176 152.692 C 194.561 151.513 199.954 147.715 202.798 143.805 C 204.132 141.97 207.406 136.954 210.068 132.661 C 214.474 125.562 215.036 124.933 216.307 125.727 C 217.076 126.207 217.701 126.945 217.701 127.372 C 217.701 129.549 207.623 144.993 202.85 150.127 L 200.646 152.497 L 204.253 152.48 C 209.348 152.458 219.826 150.006 224.117 147.831 C 226.112 146.82 229.931 144.318 232.602 142.27 C 235.76 139.85 238.017 138.63 239.064 138.778 C 240.505 138.982 240.684 139.473 240.808 143.568 C 241.062 151.863 244.595 167.808 246.179 167.808 C 246.538 167.808 247.378 166.741 248.048 165.438 C 248.718 164.134 250.972 160.772 253.058 157.964 C 262.271 145.566 262.993 143.309 261.176 132.65 C 259.87 124.983 259.669 119.135 260.658 117.573 C 261.182 116.746 262.042 117.013 265.205 118.986 C 268.22 120.866 269.934 121.428 272.751 121.464 L 276.397 121.508 L 276.631 110.934 C 276.964 95.954 275.518 88.918 270.455 80.874 C 268.361 77.548 268.328 76.944 270.224 76.448 C 271.367 76.148 272.351 76.917 274.548 79.827 C 280.291 87.438 282.032 94.744 281.707 109.84 C 281.594 115.054 281.743 120.174 282.035 121.216 C 282.517 122.933 282.231 123.296 279.02 125.044 C 274.785 127.35 272.861 127.444 268.639 125.553 C 264.109 123.525 263.731 124.341 265.682 131.914 C 266.583 135.414 267.314 139.484 267.303 140.958 C 267.283 143.695 263.687 151.455 260.46 155.729 C 256.301 161.233 253.543 165.661 251.01 170.905 C 249.511 174.014 248.211 176.513 248.122 176.458 C 248.034 176.403 247.221 176.216 246.32 176.042 Z M 286.825 236.008 C 290.479 227.989 290.876 206.976 287.56 197.165 L 285.775 191.891 L 287.657 190.088 L 289.539 188.286 L 291.983 193.001 C 298.049 204.7 311.403 210.917 325.571 208.638 C 330.796 207.794 336.192 206.141 337.523 204.97 C 339.099 203.583 318.227 189.683 314.57 189.683 C 312.58 189.683 310.37 188.457 307.567 185.806 C 303.323 181.788 304.993 179.087 310.386 181.245 C 320.991 185.489 338.548 185.643 346.258 181.565 L 348.309 180.479 L 343.343 177.155 C 340.609 175.328 336.781 172.418 334.833 170.69 C 330.848 167.152 321.84 155.801 319.715 151.637 L 318.318 148.898 L 309.017 149.344 C 298.683 149.837 297.379 149.383 298.324 145.618 C 298.716 144.061 299.096 143.797 300.361 144.205 C 305.363 145.822 316.008 143.135 322.697 138.572 C 325.995 136.32 329.988 131.343 329.988 129.486 C 329.988 129.02 328.266 127.356 326.161 125.788 C 318.927 120.397 316.207 112.306 315.777 94.901 C 315.454 81.916 314.597 77.71 311.516 74.012 C 310.025 72.226 309.262 70.6 309.422 69.559 C 309.645 68.115 310.105 67.916 313.222 67.916 C 319.456 67.916 323.231 65.599 325.695 60.261 C 327.899 55.485 327.665 55.063 322.548 54.526 C 320.059 54.267 317.802 53.809 317.532 53.512 C 317.262 53.214 315.978 49.298 314.683 44.809 C 313.385 40.32 311.296 34.662 310.039 32.237 C 307.799 27.919 301.725 19.899 300.642 19.831 C 300.342 19.809 300.094 20.792 300.094 22.013 C 300.094 25.163 295.373 37.366 291.956 43.054 C 287.524 50.428 287.221 50.753 285.538 49.99 C 284.143 49.356 284.281 48.885 288.544 39.846 C 291.002 34.632 293.455 28.726 293.995 26.72 C 295.897 19.635 294.866 12.969 291.27 9.141 C 289.084 6.815 284.463 4.949 282.258 5.503 C 279.64 6.162 275.057 10.472 271.141 15.961 C 267.815 20.622 266.379 21.33 265.963 18.516 C 265.602 16.069 268.229 11.828 273.892 5.704 L 279.172 0 L 276.692 0.422 C 270.298 1.51 229.518 6.686 221.94 7.372 C 217.249 7.793 212.903 8.336 212.281 8.576 C 211.655 8.816 209.508 11.263 207.505 14.016 C 205.501 16.769 203.123 19.497 202.216 20.076 C 201.31 20.657 198.27 21.338 195.465 21.592 C 187.487 22.314 175.18 24.243 173.771 24.998 C 172.415 25.72 172.065 28.922 173.151 30.639 C 173.78 31.628 175.866 31.543 180.699 30.333 C 183.665 29.592 183.138 30.873 179.399 33.508 C 177.583 34.789 175.902 36.34 175.665 36.958 C 175.127 38.36 178.712 48.323 180.641 50.775 C 182.554 53.206 186.186 53.192 193.109 50.728 C 205.179 46.432 211.39 45.749 216.61 48.144 C 221.281 50.29 222.248 51.869 222.642 57.993 C 223.417 70.06 218.137 80.687 210.572 82.288 C 206.733 83.098 199.452 82.773 191.926 81.453 C 188.374 80.83 185.233 80.466 184.943 80.645 C 184.654 80.824 184.378 83.037 184.331 85.564 C 184.235 90.668 182.364 96.8 179.528 101.289 C 177.197 104.984 178.073 106.122 182.689 105.384 C 185.72 104.902 187.922 103.482 192.924 98.792 C 195.446 96.43 195.523 96.408 197.364 97.646 C 206.008 103.455 206.386 103.645 209.382 103.645 C 213.849 103.645 218.641 100.068 223.262 93.292 C 225.318 90.277 227.724 85.878 228.611 83.514 C 233.459 70.6 233.31 50.458 228.319 44.2 C 226.699 42.169 226.561 42.133 223.601 43.021 C 220.35 43.993 217.442 43.552 217.9 42.152 C 218.371 40.7 222.27 39.237 225.665 39.237 C 228.542 39.237 229.212 39.573 231.53 42.186 C 233.178 44.043 234.784 47.077 235.865 50.373 C 237.416 55.102 237.543 56.474 237.171 64.499 C 236.928 69.699 236.179 75.517 235.36 78.523 C 233.484 85.432 227.994 95.797 223.552 100.823 C 216.712 108.559 210.332 109.779 200.582 105.216 C 197.829 103.929 195.357 103.13 195.087 103.441 C 194.817 103.752 192.896 106.47 190.821 109.476 C 188.746 112.486 185.66 116.492 183.965 118.386 L 180.881 121.825 L 171.401 120.05 C 146.842 115.454 138.999 115.757 124.804 121.844 L 121.227 123.379 L 128.086 130.313 C 131.859 134.129 136.26 138.04 137.866 139.004 C 140.977 140.873 148.991 142.521 159.185 143.386 L 165.198 143.899 L 164.754 146.922 C 164.512 148.584 163.82 150.273 163.219 150.672 C 162.619 151.075 160.679 152.34 158.912 153.486 C 155.5 155.696 152.75 159.725 151.37 164.528 C 150.909 166.132 150.237 174.334 149.876 182.755 C 149.179 199.009 148.126 205.631 145.243 211.931 L 143.458 215.827 L 148.308 216.348 C 157.964 217.382 168.874 214.554 179.481 208.268 C 186.183 204.297 190.356 200.971 198.496 193.103 C 202.236 189.488 203.291 188.837 204.796 189.215 C 207.152 189.807 207.265 190.367 208.588 207.891 C 209.748 223.282 210.71 228.937 212.27 229.535 C 213.435 229.981 217.211 228.071 220.909 225.164 C 224.508 222.334 231.546 213.507 235.024 207.458 C 237.014 204 238.105 202.806 239.279 202.806 C 241.139 202.806 242.112 203.878 242.776 206.653 C 243.721 210.608 247.232 217.023 249.922 219.713 C 253.262 223.053 257.892 225.459 265.095 227.595 C 272.087 229.667 278.527 232.643 282.231 235.509 C 283.835 236.749 285.342 237.774 285.576 237.785 C 285.813 237.796 286.375 236.997 286.825 236.008 Z M 80.218 271.183 C 80.844 270.293 81.353 268.639 81.353 267.512 C 81.353 265.787 80.852 265.244 78.201 264.109 C 69.812 260.512 63.264 260.62 58.946 264.42 L 56.929 266.195 L 58.869 266.217 C 61.964 266.253 69.165 268.749 72.273 270.86 C 75.798 273.255 78.686 273.374 80.218 271.183 Z M 60.156 297.131 C 62.14 294.61 62.088 292.058 60.026 290.765 C 56.576 288.599 49.601 287.166 45.831 287.847 C 43.489 288.269 39.793 291.057 39.793 292.405 C 39.793 292.796 41.632 293.496 43.88 293.965 C 46.126 294.431 49.982 295.742 52.448 296.878 C 58.056 299.465 58.315 299.474 60.156 297.131 Z M 69.909 340.29 C 71.154 339.041 70.697 335.572 69.211 335.001 C 68.652 334.786 66.086 335.142 63.507 335.789 C 60.928 336.437 57.654 336.966 56.232 336.966 C 52.757 336.966 52.972 338.19 56.747 339.904 C 60.561 341.634 68.332 341.863 69.909 340.29 Z M 96.155 356.932 C 100.804 354.576 102.565 351.561 99.889 350.536 C 97.731 349.706 96.303 350.13 94.278 352.197 C 93.162 353.333 90.949 354.851 89.356 355.57 C 87.761 356.287 86.457 357.155 86.457 357.494 C 86.457 358.58 93.735 358.158 96.155 356.932 Z M 187.104 401.812 C 188.044 400.057 187.189 398.679 184.216 397.161 C 181.719 395.885 177.599 395.03 177.607 395.788 C 177.624 396.94 184.009 403.32 185.15 403.32 C 185.781 403.32 186.66 402.642 187.104 401.812 Z M 200.456 418.741 C 199.811 417.278 198.369 413.781 197.251 410.975 C 196.082 408.046 194.715 405.77 194.046 405.632 C 192.469 405.309 187.807 410.08 187.807 412.02 C 187.807 414.66 189.777 418.455 191.852 419.813 C 193.855 421.125 199.094 422.238 200.731 421.701 C 201.404 421.478 201.337 420.753 200.456 418.741 Z M 163.426 423.798 C 164.6 422.023 165.226 420.191 165.077 418.953 C 164.876 417.253 164.341 416.834 161.447 416.104 C 159.585 415.633 157.242 414.712 156.247 414.059 C 155.25 413.406 154.263 413.045 154.054 413.254 C 153.505 413.803 154.74 417.755 156.162 419.995 C 157.981 422.861 160.86 426.65 161.221 426.65 C 161.395 426.65 162.387 425.366 163.426 423.798 Z M 319.323 437.69 C 320.853 436.003 320.222 434.207 317.634 432.87 C 314.482 431.239 308.171 433.242 304.704 436.971 L 303.117 438.682 L 310.61 438.861 C 317.116 439.015 318.265 438.861 319.323 437.69 Z M 164.429 470.09 C 165.104 469.277 164.978 468.439 163.842 466.212 C 161.428 461.478 160.927 461.285 153.875 462.382 C 150.482 462.911 147.704 463.6 147.704 463.914 C 147.704 464.931 153.307 469.219 155.826 470.131 C 159.213 471.355 163.396 471.335 164.429 470.09 Z M 303.274 472.443 C 303.789 471.619 303.814 470.572 303.348 469.31 C 302.684 467.513 302.337 467.4 296.814 467.18 C 293.607 467.053 290.043 466.695 288.897 466.386 C 286.946 465.862 286.866 465.926 287.635 467.361 C 288.602 469.166 294.13 472.556 297.421 473.358 C 300.659 474.149 302.373 473.879 303.274 472.443 Z M 201.497 486.437 C 204.669 484.502 205.399 482.414 206.083 473.317 C 206.805 463.66 207.706 461.062 210.768 459.783 C 214.27 458.32 217.63 459.684 223.731 465.052 L 228.948 469.643 L 232.74 462.608 L 236.534 455.569 L 240.569 461.825 C 242.787 465.264 244.948 468.29 245.372 468.552 C 246.312 469.133 247.125 467.072 249.52 458.039 C 252.755 445.822 253.741 443.055 254.852 443.055 C 255.618 443.055 256.139 444.668 256.745 448.914 C 257.996 457.667 260.449 464.567 262.306 464.567 C 264.133 464.567 267.11 452.232 268.727 437.952 C 269.182 433.942 269.719 430.087 269.926 429.384 C 270.645 426.926 272.034 428.149 273.261 432.322 C 274.718 437.285 278.067 442.198 281.04 443.736 L 283.159 444.83 L 284.292 440.297 C 285.582 435.122 286.888 425.418 287.152 418.995 C 287.384 413.445 288.161 413.26 296.437 416.804 C 301.469 418.956 302.706 419.245 303.494 418.46 C 304.282 417.672 303.759 416.586 300.518 412.276 C 295.232 405.252 293.345 400.167 293.265 392.746 C 293.215 387.852 293.524 386.226 295.183 382.649 C 296.274 380.304 298.49 376.798 300.113 374.861 L 303.062 371.336 L 300.485 364.742 C 299.068 361.112 297.908 357.202 297.908 356.05 C 297.908 352.274 301.623 348.185 317.554 334.414 C 321.729 330.807 326.632 326.494 328.445 324.835 L 331.744 321.818 L 329.738 319.189 C 326.888 315.452 308.816 301.19 307.038 301.276 C 306.628 301.295 304.486 302.618 302.282 304.216 C 284.523 317.08 280.528 318.739 267.303 318.739 C 259.848 318.739 257.734 318.444 251.19 316.502 C 235.589 311.866 228.013 311.304 222.921 314.402 C 219.225 316.65 218.142 319.999 218.101 329.311 C 218.068 336.839 218.217 337.68 220.518 343.012 C 223.334 349.543 227.498 355.918 236.253 367.109 C 243.735 376.671 245.612 381.014 245.595 388.736 C 245.581 395.232 244.355 398.922 240.285 404.722 C 236.027 410.793 225.288 419.058 218.068 421.825 C 205.86 426.499 193.277 426.901 187.299 422.803 C 184.737 421.048 181.975 416.702 181.975 414.428 C 181.975 412.684 178.677 411.119 175.728 411.466 C 173.904 411.681 173.6 412.13 172.752 415.889 C 171.476 421.53 169.373 425.443 166.3 427.893 C 159.664 433.19 166.54 439.608 182.157 442.694 C 184.464 443.152 186.349 443.769 186.349 444.067 C 186.349 445.238 180.611 447.699 175.414 448.763 C 165.162 450.854 164.49 451.574 167.775 456.909 C 168.764 458.515 169.574 460.453 169.577 461.222 C 169.583 463.953 172.06 470.418 173.68 471.944 C 174.992 473.176 175.857 473.394 177.897 473.011 C 182.077 472.228 187.798 465.562 187.807 461.467 C 187.807 459.868 188.143 459.461 189.468 459.461 C 190.383 459.461 191.888 459.992 192.814 460.643 C 194.244 461.646 194.426 462.222 194.01 464.471 C 193.39 467.808 191.235 471.357 188.89 472.892 C 186.043 474.758 186.599 476.902 191.089 481.336 C 193.293 483.513 195.098 485.883 195.098 486.597 C 195.098 488.394 198.427 488.308 201.497 486.437 Z M 186.084 496.369 C 187.233 495.746 188.945 494.624 189.89 493.875 L 191.607 492.516 L 190.058 489.477 C 188.867 487.148 188.088 486.44 186.699 486.44 C 185.665 486.44 184.891 486.861 184.891 487.429 C 184.891 487.972 182.843 490.651 180.341 493.382 L 175.791 498.347 L 179.895 497.923 C 182.152 497.689 184.938 496.989 186.084 496.369 Z M 359.161 495.545 C 362.242 491.064 363.529 487.76 363.529 484.318 C 363.529 482.725 363.829 481.237 364.196 481.008 C 365.651 480.112 369.101 482.358 373.736 487.22 C 380.615 494.434 382.42 493.246 382.693 481.336 L 382.853 474.408 L 384.969 474.637 C 386.135 474.763 388.711 475.687 390.693 476.69 C 392.677 477.696 394.385 478.412 394.49 478.285 C 395.791 476.731 396.339 473.755 396.339 468.26 C 396.339 464.625 396.521 461.649 396.742 461.649 C 396.962 461.649 400.255 462.974 404.058 464.592 C 407.864 466.212 411.262 467.359 411.615 467.141 C 413.086 466.232 413.092 460.888 411.631 452.535 C 410.788 447.724 409.912 442.708 409.683 441.388 L 409.267 438.993 L 416.84 442.7 L 424.412 446.404 L 424.63 439.627 C 424.751 435.899 424.512 430.88 424.098 428.475 C 423.426 424.548 423.649 420.819 424.559 420.819 C 424.743 420.819 427.141 421.803 429.88 423.004 C 432.622 424.209 435.055 425.192 435.29 425.192 C 436.381 425.192 435.626 412.122 434.256 407.329 C 433.454 404.524 432.798 401.498 432.798 400.605 C 432.798 398.654 435.626 397.012 440.195 396.309 C 444.516 395.645 447.839 393.865 452.381 389.783 C 457.366 385.302 456.639 384.434 449.261 386.055 C 444.538 387.091 441.548 387.113 441.548 386.107 C 441.548 385.95 442.824 384.506 444.384 382.899 C 448.696 378.452 449.892 375.429 449.912 368.884 C 449.931 363.51 449.824 363.14 447.605 360.919 L 445.279 358.591 L 441.407 361.856 C 439.277 363.653 436.34 365.849 434.876 366.737 C 432.181 368.368 424.567 371.237 422.924 371.237 C 422.376 371.237 421.836 369.606 421.535 367.045 C 420.835 361.101 419.077 354.824 416.658 349.629 C 414.087 344.109 408.379 336.239 406.949 336.239 C 406.365 336.239 405.298 337.074 404.576 338.096 C 401.041 343.109 400.955 343.178 399.704 342.141 C 398.839 341.422 398.527 339.884 398.525 336.332 C 398.511 322.264 393.832 304.437 387.146 292.998 C 385.787 290.672 384.674 288.619 384.674 288.442 C 384.674 288.263 385.46 288.114 386.419 288.114 C 388.441 288.114 389.05 286.924 389.05 282.975 C 389.05 278.833 391.125 265.285 392.749 258.829 C 396.962 242.068 406.274 231.706 421.078 227.316 C 454.123 217.511 477.053 200.701 487.826 178.382 C 495.807 161.85 499.982 136.648 498.411 114.489 C 497.143 96.59 491.02 74.56 483.722 61.628 C 479.258 53.718 469.026 44.42 461.056 41.028 C 448.732 35.787 431.611 35.996 421.524 41.513 C 416.258 44.393 410.942 51.875 414.161 51.875 C 415.663 51.875 416.209 53.09 415.39 54.62 C 414.304 56.651 409.247 58.828 398.891 61.727 C 388.014 64.769 384.534 66.56 380.427 71.226 C 376.495 75.693 375.194 79.816 375.194 87.81 C 375.194 93.898 376.743 102.504 378.091 103.896 C 378.418 104.232 378.912 102.865 379.187 100.853 C 379.851 96.039 380.968 94.54 383.434 95.157 C 384.95 95.537 385.426 96.196 385.76 98.365 C 387.171 107.531 389.439 114.715 393.239 122.059 C 395.471 126.375 397.745 130.274 398.29 130.729 C 399.522 131.751 401.231 130.343 405.053 125.154 C 411.51 116.385 411.783 109.768 406.544 89.061 C 405.783 86.055 404.935 81.378 404.659 78.672 C 404.177 73.927 404.218 73.75 405.775 73.75 C 407.382 73.75 410.104 76.181 412.598 79.846 C 413.516 81.196 414.55 81.77 416.062 81.77 C 417.245 81.77 418.215 81.621 418.215 81.439 C 418.215 81.254 417.394 79.898 416.39 78.421 C 414.321 75.368 414.271 74.902 415.362 68.991 C 417.044 59.894 423.853 50.957 431.192 48.212 C 434.887 46.829 435.81 46.766 441.694 47.479 C 451.031 48.615 455.352 50.469 461.026 55.774 C 465.793 60.236 475.204 73.362 478.994 80.835 C 486.506 95.659 490.152 122.172 487.148 140.134 C 484.533 155.776 478.792 170.249 468.37 187.495 C 463.597 195.388 462.189 197.127 457.854 200.458 C 450.085 206.433 443.361 209.172 424.424 214.08 C 409.008 218.079 401.333 223.152 393.443 234.564 C 386.708 244.308 381.094 259.719 381.045 268.612 C 381.031 270.99 380.805 271.345 379.32 271.345 C 377.297 271.345 375.701 269.684 374.618 266.457 C 373.486 263.075 368.236 255.604 363.951 251.272 C 361.914 249.214 355.49 243.162 349.676 237.821 C 343.861 232.483 335.908 224.88 332 220.928 L 324.896 213.744 L 318.982 213.744 C 312.304 213.744 305.911 212.311 300.62 209.63 C 298.647 208.632 296.869 207.976 296.668 208.177 C 296.467 208.378 295.83 213.077 295.252 218.616 C 294.058 230.089 292.744 235.856 290.134 241.087 C 286.805 247.753 286.692 247.781 281.98 242.986 C 277.573 238.502 273.261 236.146 261.816 231.968 C 258.206 230.651 253.535 228.606 251.435 227.426 C 246.684 224.759 241.327 218.895 240.199 215.133 C 239.731 213.568 239.144 212.286 238.899 212.286 C 238.651 212.286 237.802 213.504 237.008 214.992 C 233.393 221.774 222.725 230.868 212.079 236.242 L 207.549 238.527 L 206.852 235.796 C 205.901 232.089 204.801 222.791 203.809 210.098 C 203.355 204.283 202.859 199.114 202.707 198.612 C 202.542 198.058 200.163 199.53 196.661 202.357 C 186.903 210.236 175.629 216.144 166.521 218.148 L 162.368 219.063 L 157.661 226.134 C 152.37 234.079 143.775 244.939 136.301 253.124 C 133.551 256.133 130.089 260.251 128.612 262.271 C 125.468 266.57 119.846 277.618 118.485 282.176 C 117.961 283.923 117.118 285.51 116.608 285.706 C 113.436 286.924 104.058 280.869 94.115 271.18 C 90.505 267.664 87.482 264.787 87.397 264.784 C 87.314 264.784 86.893 266.09 86.463 267.688 C 86.03 269.287 84.919 271.475 83.991 272.555 C 82.475 274.319 81.794 274.523 77.291 274.572 C 72.554 274.625 72.24 274.732 71.601 276.546 C 70.559 279.505 71.479 280.734 76.426 282.994 C 81.249 285.196 85.884 289.371 87.102 292.612 C 88.199 295.522 86.118 295.974 83.654 293.359 C 82.453 292.08 79.422 290.493 75.649 289.162 C 69.691 287.062 69.559 287.048 68.539 288.437 C 67.969 289.217 67.5 290.801 67.5 291.959 C 67.5 293.309 66.536 295.246 64.816 297.346 L 62.129 300.623 L 63.041 305.123 C 64.301 311.343 66.993 314.652 71.038 314.953 C 73.8 315.157 74.398 314.859 77.961 311.489 C 80.105 309.461 82.062 307.802 82.31 307.802 C 82.558 307.802 83.112 308.455 83.539 309.254 C 84.718 311.456 82.8 314.457 77.719 318.367 C 72.527 322.363 71.821 324.215 73.882 328.467 C 74.69 330.134 75.572 332.452 75.842 333.615 C 76.591 336.834 80.138 339.722 84.071 340.312 C 88.48 340.973 89.455 339.794 91.134 331.749 C 91.831 328.404 92.564 325.091 92.762 324.389 C 93.203 322.818 95.761 322.727 97.417 324.226 C 98.563 325.265 98.456 325.86 95.821 333.003 C 93.526 339.22 93.11 341.111 93.614 343.009 C 94.129 344.958 94.529 345.305 95.995 345.074 C 96.968 344.919 100.186 344.746 103.152 344.691 C 108.09 344.597 108.594 344.445 109.173 342.885 C 109.553 341.855 109.49 340.011 109.008 338.22 C 107.971 334.384 108.812 325.35 110.253 324.797 C 111.482 324.328 114.671 326.45 120.604 331.683 C 124.131 334.8 125.03 335.293 125.402 334.321 C 125.95 332.89 125.385 329.244 123.801 324.008 C 122.745 320.517 122.742 320.057 123.779 319.02 C 124.815 317.984 125.126 317.984 127.132 319.023 C 128.35 319.651 130.277 321.294 131.418 322.669 C 132.875 324.433 134.35 325.331 136.403 325.706 C 138.007 326.001 139.484 326.456 139.685 326.72 C 139.886 326.982 141.964 328.266 144.301 329.57 C 149.339 332.38 149.46 332.323 152.896 325.472 C 155.087 321.107 155.36 319.913 155.349 314.73 C 155.335 308.783 155.071 307.989 150.78 301.083 C 148.065 296.712 153.009 297.079 159.061 301.695 C 160.497 302.789 163.156 305.768 164.975 308.317 C 168.684 313.514 169.227 313.512 171.892 308.287 C 174.967 302.254 175.604 299.394 176.056 289.575 C 176.475 280.395 176.604 279.731 177.952 279.731 C 179.06 279.731 179.503 280.376 179.845 282.487 C 180.093 284.003 180.727 286.05 181.253 287.037 C 182.441 289.255 187.137 291.598 191.634 292.212 C 194.922 292.664 195.038 292.615 195.487 290.578 C 195.74 289.423 196.234 287.66 196.581 286.657 C 196.931 285.653 197.438 280.486 197.711 275.173 C 198.099 267.537 198.419 265.511 199.24 265.511 C 199.811 265.511 204.228 267.297 209.056 269.482 L 217.836 273.451 L 220.686 267.369 C 223.265 261.865 223.535 260.725 223.535 255.378 C 223.535 248.26 223.756 248.172 231.871 252.025 C 234.828 253.427 237.907 254.576 238.714 254.576 C 240.301 254.576 240.536 253.675 241.426 244.138 C 241.891 239.141 243.088 237.378 244.826 239.116 C 245.94 240.23 244.047 258.751 242.68 260.118 C 241.387 261.411 239.001 261.38 236.661 260.044 C 235.658 259.471 233.925 258.991 232.806 258.975 C 230.926 258.95 230.841 259.071 231.648 260.59 C 233.927 264.875 238.612 270.232 242.713 273.244 C 254.458 281.87 268.14 286.552 291.683 289.997 C 301.576 291.443 304.715 292.19 307.361 293.72 C 311.318 296.007 321.264 303.654 327.376 309.108 C 329.798 311.271 333.229 313.889 334.996 314.923 C 338.096 316.741 338.242 316.758 339.201 315.446 C 341.598 312.167 339.997 305.297 335.368 299.008 C 332.455 295.053 332.132 294.26 332.819 292.755 C 333.251 291.807 333.929 291.033 334.326 291.033 C 334.72 291.033 336.346 292.755 337.936 294.86 C 344.955 304.161 346.581 314.644 341.874 320.238 C 340.821 321.487 335.398 326.456 329.823 331.278 C 318.362 341.191 306.922 351.745 305.01 354.179 C 303.778 355.744 303.797 356.031 305.536 361.531 C 307.573 367.982 311.312 374.566 316.072 380.083 C 319.684 384.272 329.186 391.58 334.552 394.3 C 344.591 399.387 359.326 403.951 369.504 405.122 L 373.654 405.602 L 374.549 409.6 C 375.773 415.073 374.593 422.271 371.353 429.097 C 368.371 435.375 365.229 439.145 360.834 441.722 C 357.962 443.403 357.05 443.571 352.517 443.246 C 347.127 442.86 342.516 440.9 334.828 435.722 C 329.28 431.985 326.657 432.498 324.292 437.781 C 323.532 439.478 322.206 441.493 321.346 442.259 C 320.486 443.022 319.781 444.031 319.781 444.499 C 319.781 446.318 323.209 448.523 326.75 448.986 C 331.341 449.584 332.907 450.402 332.907 452.196 C 332.907 453.505 332.361 453.635 326.527 453.69 C 315.882 453.792 311.789 454.542 309.904 456.735 C 308.378 458.51 308.27 459.248 308.43 467.036 C 308.623 476.444 308.981 477.279 313.327 478.448 C 315.556 479.049 317.094 478.963 320.351 478.054 C 329.013 475.634 329.134 475.673 325.742 479.762 C 324.209 481.609 322.856 482.361 320.161 482.863 C 315.496 483.736 313.065 485.348 313.357 487.377 C 313.514 488.465 314.377 489.182 316.157 489.7 C 317.571 490.113 320.197 491.309 321.988 492.356 C 330.595 497.391 333.711 496.843 339.104 489.358 C 342.042 485.28 343.131 484.29 344.71 484.274 C 345.79 484.263 346.84 484.522 347.044 484.852 C 347.248 485.183 346.267 487.357 344.864 489.686 C 341.386 495.459 341.659 496.187 347.496 496.702 C 350.097 496.931 353.049 497.485 354.052 497.931 C 356.714 499.116 356.697 499.125 359.161 495.545 Z M 318.072 505.694 C 320.952 503.545 322.832 500.762 322.313 499.414 C 321.856 498.218 319.591 497.124 315.915 496.319 C 314.28 495.961 313.297 496.363 311.012 498.317 C 309.441 499.665 306.33 501.687 304.101 502.815 C 301.871 503.942 300.165 504.983 300.309 505.127 C 300.452 505.267 301.857 505.873 303.431 506.471 C 307.548 508.034 315.504 507.612 318.072 505.694 Z M 347.534 508.861 C 351.15 505.749 351.982 503.619 350.26 501.897 C 348.568 500.208 347.485 501.067 344.947 506.108 C 343.536 508.905 342.384 511.366 342.384 511.578 C 342.384 512.655 344.307 511.641 347.534 508.861 Z" style="fill:rgba(255, 0, 0, 0.75);" />
</svg>