<?xml version="1.0" encoding="utf-8"?>
<svg width="40px" height="33.5px" version="1.1" id="svg8" xmlns="http://www.w3.org/2000/svg">
  <g id="layer1" transform="matrix(1, 0, 0, 1, -54.773293, -78.016106)">
    <path style="fill:#000000;stroke-width:0.08466667" d="m 78.589394,111.25295 c -0.57194,-0.71065 -2.67729,-4.69229 -3.27015,-6.1845 -0.42608,-1.07244 -0.71681,-2.21766 -0.83176,-3.27649 -0.21283,-1.960436 0.31418,-4.028966 1.46105,-5.734636 0.56368,-0.83832 1.1661,-1.44549 2.23298,-2.25059 2.05067,-1.54751 2.72494,-1.29328 2.70085,1.01834 -0.0119,1.14046 -0.22458,2.12508 -0.71192,3.29573 -0.27393,0.65802 -0.61161,1.15528 -0.7147,1.05247 -0.0879,-0.0877 -0.0596,-1.85009 0.0379,-2.35853 0.10798,-0.56314 0.17049,-0.76546 0.64692,-2.09414 0.51042,-1.42346 0.48277,-1.80882 -0.11741,-1.63669 -0.9509,0.27271 -2.16214,1.69618 -2.65046,3.11485 -0.82501,2.39684 0.59224,4.827026 3.90316,6.692856 0.25715,0.14491 0.55023,0.35148 0.65128,0.45905 0.31388,0.3341 0.63468,1.14802 0.68127,1.72845 0.053,0.6606 0.0135,0.67171 -0.87238,0.2456 -0.84948,-0.40858 -1.89516,-1.19819 -2.74804,-2.07509 -0.66887,-0.6877 -1.35158,-1.6402 -1.24909,-1.74269 0.0244,-0.0244 0.4774,0.38023 1.00659,0.89927 1.07452,1.0539 1.65565,1.48214 2.12633,1.56688 0.27628,0.0497 0.3175,0.0361 0.3175,-0.10502 0,-0.28425 -0.47458,-0.92332 -1.02907,-1.38574 -0.9646,-0.80444 -2.41698,-1.68137 -2.79304,-1.6864 -0.55344,-0.007 -0.0384,1.52725 0.9992,2.97708 0.62846,0.87817 1.76126,2.01889 2.24018,2.25584 0.34433,0.17036 0.37321,0.17274 0.42771,0.0351 0.0322,-0.0812 0.0611,-0.25899 0.0644,-0.39516 l 0.006,-0.2476 0.2211,0.20526 c 0.45573,0.42308 1.31073,1.87665 1.18048,2.0069 -0.0231,0.0231 -0.25446,-0.068 -0.51413,-0.20248 -1.24831,-0.64646 -3.08253,-2.30954 -4.68462,-4.24752 -0.78137,-0.94518 -0.85949,-1.01654 -0.85949,-0.7851 0,0.34918 0.3469,1.24104 0.75351,1.93725 0.77962,1.3349 2.59159,3.32993 3.39805,3.74135 l 0.36163,0.1845 -0.0553,-0.52952 -0.0554,-0.52951 0.17499,0.15836 c 0.45063,0.40782 1.29843,1.97899 1.14867,2.12876 -0.17507,0.17507 -1.70965,-0.95103 -2.84841,-2.0902 -1.01357,-1.01393 -1.751,-1.93133 -2.73556,-3.40315 -0.42616,-0.63706 -0.78455,-1.14858 -0.79642,-1.13671 -0.0759,0.0759 0.29451,1.11251 0.65258,1.82604 0.89339,1.7803 2.4756,3.9029 3.42006,4.58817 0.36303,0.26341 0.47625,0.24909 0.47625,-0.0602 0,-0.29173 0.0993,-0.25923 0.48438,0.15851 0.58781,0.63769 1.04689,1.58215 0.76904,1.58215 -0.18332,0 -0.81701,-0.42762 -1.48262,-1.00049 -1.12194,-0.96562 -2.53245,-2.84046 -4.1175,-5.47292 -0.27191,-0.45159 -0.51397,-0.80147 -0.53792,-0.77752 -0.076,0.076 0.22386,1.38368 0.4933,2.15107 0.35759,1.01841 1.08843,2.5372 1.54911,3.21928 0.37041,0.54842 0.77076,0.93226 0.86943,0.83359 0.0262,-0.0262 0.0669,-0.31688 0.0904,-0.64597 0.0403,-0.56271 0.0516,-0.59038 0.19056,-0.46464 0.28827,0.26088 0.57623,1.74801 0.46545,2.40373 -0.0723,0.42816 -0.21339,0.44229 -0.52689,0.0528 z m 2.37409,-9.1551 c -1.2395,-0.65323 -2.13268,-1.53451 -2.65142,-2.616106 -0.38824,-0.80949 -0.50945,-1.34514 -0.50945,-2.2514 0,-0.66334 0.20326,-1.91575 0.33266,-2.04978 0.095,-0.0984 0.30978,0.26681 0.52009,0.88439 0.1671,0.49069 0.17743,0.63141 0.11718,1.59646 -0.11003,1.76255 -0.0699,2.00524 0.44492,2.692806 0.18003,0.24042 0.25311,0.27617 0.51917,0.254 0.26299,-0.0219 0.34991,-0.0861 0.57682,-0.42558 0.33774,-0.505346 1.09022,-2.429766 1.30839,-3.346066 0.19349,-0.81269 0.21785,-1.77113 0.0646,-2.54206 -0.0994,-0.50008 -0.0947,-0.57003 0.0571,-0.84987 0.35886,-0.66157 2.12367,-1.16426 2.74319,-0.78138 0.0954,0.0589 0.0656,0.13434 -0.14989,0.37979 -0.56557,0.64415 -0.18451,1.13464 0.74711,0.96166 0.20955,-0.0389 0.66217,-0.2041 1.00584,-0.36708 l 0.62484,-0.29633 -0.0443,-0.33012 -0.0443,-0.33012 0.52011,-0.23362 c 1.03478,-0.46481 1.10963,-0.47458 3.83038,-0.49998 1.40155,-0.0131 2.63028,-0.0498 2.7305,-0.0816 0.10022,-0.0318 0.18222,-0.0248 0.18222,0.0156 0,0.11536 -1.35037,0.28629 -2.87867,0.36438 -1.89151,0.0966 -2.18584,0.1901 -3.13266,0.9946 -0.61329,0.52111 -1.5031,1.11957 -2.70934,1.82223 -1.53046,0.89153 -2.72405,2.13102 -3.47483,3.60845 -0.57037,1.12242 -0.63377,1.873966 -0.2505,2.969666 0.13845,0.39582 0.25224,0.72919 0.25287,0.74083 0.004,0.0724 -0.22543,-0.0164 -0.73267,-0.28372 z m -6.85367,-4.826336 c -0.087,-0.34662 0.0269,-1.20915 0.23917,-1.81144 l 0.19397,-0.55033 0.0458,0.80433 c 0.0345,0.60532 0.0929,0.8941 0.23606,1.16714 l 0.19023,0.3628 -0.29685,0.12403 c -0.41977,0.1754 -0.54516,0.1555 -0.60842,-0.0965 z m -1.44368,-0.16679 c -0.087,-0.22666 0.12628,-0.75939 0.51117,-1.27689 0.34335,-0.46166 0.81531,-0.96048 0.81531,-0.86171 0,0.024 -0.12334,0.28778 -0.27409,0.58626 -0.22771,0.45088 -0.27427,0.63938 -0.27516,1.11419 l -0.001,0.5715 h -0.36249 c -0.25179,0 -0.37812,-0.0407 -0.41366,-0.13335 z m -1.17118,-0.39115 c -0.26726,-0.15156 -0.29566,-0.25457 -0.14271,-0.51778 0.191,-0.32871 0.91716,-0.9841 1.36768,-1.23439 l 0.36422,-0.20234 -0.43073,0.56197 c -0.3983,0.51966 -0.6065,0.98067 -0.60766,1.34554 -5.1e-4,0.17206 -0.28714,0.19651 -0.5508,0.047 z m -1.16204,-0.88093 c -0.31174,-0.16451 -0.44949,-0.42776 -0.31109,-0.59453 0.19709,-0.23747 0.79744,-0.53251 1.34727,-0.6621 0.83519,-0.19684 0.94897,-0.16255 0.42282,0.12743 -0.55065,0.30348 -0.89484,0.61442 -1.08773,0.98262 -0.13542,0.25851 -0.14901,0.26387 -0.37127,0.14658 z m -0.90621,-1.18477 c -0.14515,-0.12214 -0.30316,-0.2954 -0.35113,-0.38505 -0.0764,-0.14283 -0.037,-0.18578 0.31941,-0.34737 0.35197,-0.15961 0.58304,-0.18754 1.71897,-0.20774 l 1.31233,-0.0233 -0.79164,0.17104 c -0.88753,0.19177 -1.52131,0.47708 -1.77435,0.79877 l -0.16969,0.21573 z m -3.91188,-0.9243 c -0.12254,-0.0666 -0.24755,-0.18556 -0.2778,-0.26439 -0.10293,-0.26822 0.5476,-0.77079 1.30058,-1.00477 l 0.20732,-0.0644 -0.22851,0.27157 c -0.26936,0.3201 -0.35187,0.59399 -0.28287,0.93896 0.0474,0.23704 0.0351,0.2507 -0.22288,0.2475 -0.15017,-0.002 -0.3733,-0.0579 -0.49584,-0.12445 z m 1.53513,-0.0856 c 0,-0.28657 0.23039,-0.8272 0.32706,-0.76745 0.0841,0.052 0.46035,0.81719 0.41858,0.85136 -0.0143,0.0117 -0.1879,0.0461 -0.38581,0.0764 -0.34348,0.0526 -0.35983,0.0453 -0.35983,-0.16027 z m 1.41816,-0.3014 c -0.16763,-0.0976 -0.40216,-0.51092 -0.40216,-0.70868 0,-0.10702 0.11897,-0.1312 0.64553,-0.1312 0.66147,0 2.43178,0.31668 3.03747,0.54335 l 0.33866,0.12675 -0.59266,-0.0599 c -0.32597,-0.0329 -0.95798,-0.0577 -1.40448,-0.0551 -0.67822,0.004 -0.86362,0.0353 -1.12667,0.1905 -0.17318,0.10217 -0.32221,0.18462 -0.33119,0.1832 -0.009,-0.001 -0.083,-0.0414 -0.1645,-0.0889 z m 7.18991,-0.0407 c -0.85177,-0.27264 -1.41141,-1.13839 -1.41141,-2.18341 0,-0.36032 -0.043,-0.55802 -0.14816,-0.68196 -0.14145,-0.16663 -0.14136,-0.16926 0.002,-0.0581 0.0826,0.064 0.16007,0.10149 0.17212,0.0832 0.0121,-0.0183 0.0759,-0.1035 0.14195,-0.18938 0.10614,-0.13808 0.0998,-0.17238 -0.055,-0.29634 -0.0963,-0.0771 -0.76115,-0.62034 -1.4775,-1.2072 -3.87422,-3.17395 -6.89197,-5.14848 -8.32772,-5.44887 -0.55479,-0.11608 -1.07209,-0.0679 -1.257,0.11697 -0.0502,0.0502 -0.11857,0.0912 -0.15197,0.0912 -0.075,0 -0.24408,-0.76515 -0.24408,-1.10483 0,-0.2268 0.0261,-0.24983 0.28279,-0.24983 0.46379,0 1.53811,0.31095 2.28729,0.66202 1.90606,0.89321 4.54676,2.88971 7.29359,5.5143 0.5588,0.53393 1.20829,1.15398 1.44333,1.37788 0.37991,0.36193 0.45742,0.40108 0.6985,0.35286 0.14914,-0.0298 0.27117,-0.0902 0.27117,-0.13422 0,-0.41613 -2.50775,-2.95364 -4.445,-4.49776 -2.21671,-1.76686 -4.2659,-3.14499 -5.40094,-3.63226 -0.44485,-0.19097 -0.78599,-0.27274 -1.25782,-0.30147 -0.62806,-0.0383 -0.65186,-0.0326 -0.79621,0.18766 -0.11211,0.1711 -0.16646,0.19975 -0.22044,0.11621 -0.1435,-0.22211 -0.24994,-0.7661 -0.19704,-1.00697 0.0464,-0.21121 0.0942,-0.24692 0.3303,-0.24692 0.92813,0 2.52654,0.6804 4.17848,1.77866 2.43358,1.61793 5.86828,4.7346 7.8756,7.14638 l 0.63683,0.76514 -0.37305,0.16015 c -0.20517,0.0881 -0.43972,0.21874 -0.52121,0.29036 -0.2159,0.18975 -0.18846,0.6404 0.0563,0.92476 0.17773,0.20646 0.26365,0.23702 0.65652,0.23347 1.23587,-0.0112 1.60546,-1.03427 0.90272,-2.49894 -0.5186,-1.08087 -1.29424,-2.06667 -2.86354,-3.63941 -1.93885,-1.9431 -4.18772,-3.73535 -6.52018,-5.19631 -1.06561,-0.66745 -1.93105,-1.04218 -2.80413,-1.21419 -0.7558,-0.1489 -1.15539,-0.097 -1.50243,0.19497 -0.13615,0.11456 -0.27072,0.20829 -0.29905,0.20829 -0.0848,0 -0.67205,-0.67296 -0.87612,-1.00401 -0.10454,-0.16958 -0.19026,-0.39914 -0.1905,-0.51014 -4.3e-4,-0.2018 -3.4e-4,-0.20182 0.82506,-0.15891 0.53659,0.0279 1.01811,0.10925 1.37584,0.23246 2.07997,0.71636 4.70049,2.43919 8.08466,5.31517 1.48962,1.26592 5.12532,4.82849 6.097,5.97436 0.37254,0.43932 0.82784,0.89858 1.01178,1.02058 0.64901,0.43046 1.36544,0.21542 2.09202,-0.62792 0.40111,-0.46557 0.56599,-0.49077 0.73818,-0.11283 0.28785,0.63175 -1.00591,1.89631 -2.91064,2.84498 -1.30738,0.65115 -2.41533,0.86219 -3.20293,0.61009 z m -12.28369,-0.80188 c -0.35177,-0.17554 -0.64238,-0.40596 -0.64238,-0.50934 0,-0.0344 0.064,-0.0871 0.14221,-0.11706 0.27913,-0.10711 2.27817,-0.20929 2.73645,-0.13988 0.25612,0.0388 0.38334,0.0753 0.28271,0.0811 -0.39525,0.0228 -1.25199,0.35139 -1.55849,0.5977 -0.37455,0.301 -0.5082,0.31317 -0.9605,0.0875 z m 7.69728,-0.30592 c -1.03844,-0.40626 -1.91707,-0.62269 -2.52782,-0.62269 -0.41822,0 -0.57142,0.0418 -0.84325,0.2302 l -0.33218,0.23019 -0.20217,-0.25136 c -0.17083,-0.21241 -0.53958,-1.03132 -0.53958,-1.1983 0,-0.0959 1.22349,0.0534 1.86267,0.2273 0.63672,0.17325 2.82035,1.20577 3.21733,1.5213 0.27318,0.21712 0.2645,0.21525 -0.635,-0.13664 z m 14.00805,0.0949 c -0.60278,-0.25989 -0.7749,-0.96748 -0.34089,-1.40148 0.28622,-0.28623 0.62256,-0.31814 1.34001,-0.12714 0.53962,0.14365 0.582,0.0461 0.15841,-0.36442 -0.5709,-0.55334 -1.33345,-0.41586 -1.89959,0.34247 -0.16819,0.22528 -0.35633,0.4096 -0.4181,0.4096 -0.0618,0 -0.26166,-0.0762 -0.44422,-0.16933 -0.39854,-0.20332 -0.78605,-0.21785 -0.96762,-0.0363 -0.20067,0.20067 -0.16135,0.42692 0.12748,0.73345 l 0.26053,0.27651 -0.0608,-0.254 c -0.11183,-0.46716 -0.0905,-0.59108 0.10682,-0.61915 0.25259,-0.0359 0.58217,0.56565 0.42392,0.77375 -0.25924,0.34089 -0.97824,0.36629 -1.3213,0.0467 -0.27161,-0.25304 -0.2842,-0.48466 -0.066,-1.21406 0.11093,-0.37077 0.184,-0.74181 0.16236,-0.82454 -0.0216,-0.0827 -0.17282,-0.23292 -0.33596,-0.33375 l -0.29663,-0.18333 0.32742,-0.19916 c 0.59569,-0.36236 1.23119,-0.554 1.98847,-0.59966 1.32057,-0.0796 2.32761,0.32015 3.44957,1.3694 0.53802,0.50315 0.76833,0.65863 1.12712,0.76093 0.7811,0.22272 1.90873,0.31681 4.04926,0.33787 1.17165,0.0115 2.16484,0.0581 2.28232,0.10705 0.1488,0.062 -0.78082,0.0995 -3.2671,0.13178 -3.92046,0.0509 -3.81108,0.0334 -4.75271,0.75988 -0.37488,0.28921 -0.53142,0.35556 -0.89335,0.37861 -0.26597,0.017 -0.55724,-0.0231 -0.73945,-0.10166 z m 1.25704,-0.94607 c 0.18492,-0.0436 0.18735,-0.0537 0.0497,-0.20579 -0.19926,-0.22018 -0.71756,-0.36105 -1.07897,-0.29325 -0.28101,0.0527 -0.64684,0.3805 -0.64684,0.57958 0,0.0811 1.24446,0.0213 1.67609,-0.0805 z m -14.75709,0.4692 c -0.32596,-0.1919 -1.16416,-0.6291 -1.86266,-0.97156 -1.51706,-0.74377 -2.43632,-1.00856 -3.24063,-0.93346 l -0.53772,0.0502 -0.16214,-0.35715 c -0.24713,-0.5444 -0.23207,-0.56881 0.35083,-0.56881 1.02873,0 2.76598,0.75134 4.60655,1.99229 0.86654,0.58424 1.57947,1.1309 1.48077,1.13543 -0.0233,0.001 -0.30903,-0.15506 -0.635,-0.34696 z m 0.33867,-0.58706 c -1.24864,-0.83311 -3.02943,-1.9063 -3.84333,-2.31617 -1.26812,-0.63861 -2.54995,-0.95025 -2.97435,-0.72312 -0.20633,0.11042 -0.34157,-0.12022 -0.36345,-0.61986 l -0.0155,-0.35489 0.381,0.0245 c 1.4558,0.0936 3.73547,1.32114 6.56167,3.53338 0.72858,0.57031 1.38099,1.13409 1.31233,1.13407 -0.0233,-10e-6 -0.49953,-0.30506 -1.05833,-0.6779 z m -10.56854,0.20253 c -0.70104,-0.37389 -1.07313,-0.7068 -1.07313,-0.96016 0,-0.18772 0.008,-0.18895 0.99484,-0.14559 0.54716,0.024 1.75682,0.17216 2.68815,0.32912 l 1.69331,0.2854 -1.39698,0.0475 c -1.53233,0.0521 -1.90323,0.14564 -2.10979,0.53207 -0.0661,0.12362 -0.14228,0.22366 -0.16933,0.22231 -0.0271,-0.001 -0.30924,-0.14115 -0.62707,-0.31065 z m 11.96554,-0.35673 c -1.33158,-1.08212 -4.37587,-3.08136 -5.72002,-3.75643 -1.32064,-0.66326 -2.43212,-0.91269 -2.91513,-0.65419 -0.1335,0.0714 -0.17024,0.0426 -0.24238,-0.1905 -0.0468,-0.1511 -0.10983,-0.39854 -0.14015,-0.54988 l -0.0551,-0.27517 h 0.36994 c 1.77008,0 5.07399,2.00912 8.61818,5.24074 0.50819,0.46337 0.55628,0.56869 0.0847,0.18543 z m -9.779,-0.94291 c -1.2927,-0.26054 -2.53813,-0.41926 -3.28974,-0.41926 -0.64949,0 -0.74404,0.0211 -0.97882,0.21868 l -0.25988,0.21868 -0.8656,-0.43809 c -1.1604,-0.5873 -1.93903,-1.10087 -2.54519,-1.67876 -0.42116,-0.40153 -0.82377,-0.96611 -0.82377,-1.15518 0,-0.0261 0.20003,0.0708 0.4445,0.21537 1.29231,0.76403 2.30262,1.13749 5.1271,1.89523 2.02763,0.54397 4.43597,1.30277 4.12273,1.29896 -0.0931,-0.001 -0.51223,-0.0712 -0.93133,-0.15563 z m 9.271,-0.639 c -2.39023,-1.80525 -4.50313,-3.17631 -6.05367,-3.9282 -1.44949,-0.70289 -2.18677,-0.84118 -2.72738,-0.51155 l -0.27206,0.16588 -0.0873,-0.31436 c -0.12176,-0.43838 -0.11241,-0.94749 0.0176,-0.95757 1.38634,-0.10746 3.5152,0.86398 6.03534,2.75403 1.33499,1.00122 4.37038,3.60591 4.18816,3.59389 -0.0233,-0.002 -0.51859,-0.36249 -1.10067,-0.80212 z" id="path4515"/>
  </g>
</svg>