<?xml version="1.0" encoding="utf-8"?>
<svg width="85.2px" height="45px" version="1.1" id="svg8" xmlns="http://www.w3.org/2000/svg">
  <path id="path4500" style="fill:#000000;stroke-width:0.26458332" d="M 48.981 1.575 C 48.719 1.316 48.689 1.346 48.833 1.723 C 48.932 1.984 49.08 2.131 49.161 2.05 C 49.243 1.968 49.162 1.755 48.981 1.575 Z M 41.54 2.036 C 41.54 1.96 41.235 1.781 40.862 1.64 C 40.49 1.498 40.259 1.263 40.349 1.117 C 40.561 0.773 41.275 0.773 41.275 1.117 C 41.275 1.475 43.05 1.455 43.274 1.094 C 43.621 0.532 42.944 0.322 41.327 0.491 C 39.614 0.671 39.397 0.886 40.125 1.691 C 40.521 2.128 41.54 2.377 41.54 2.036 Z M 43.849 2.28 C 43.761 2.192 43.533 2.182 43.342 2.259 C 43.131 2.343 43.194 2.406 43.502 2.419 C 43.781 2.43 43.937 2.367 43.849 2.28 Z M 35.719 2.175 C 35.719 2.029 35.391 1.912 34.991 1.914 C 34.424 1.917 34.351 1.975 34.66 2.175 C 35.178 2.509 35.719 2.509 35.719 2.175 Z M 47.044 2.284 C 47.597 1.896 47.792 1.658 47.493 1.735 C 45.921 2.139 45.244 2.198 45.244 1.931 C 45.244 1.774 45.104 1.646 44.933 1.646 C 44.762 1.646 44.902 1.943 45.244 2.307 C 45.586 2.671 45.91 2.969 45.965 2.969 C 46.02 2.969 46.506 2.66 47.044 2.284 Z M 33.999 2.969 C 34.089 2.823 33.977 2.704 33.75 2.704 C 33.523 2.704 33.338 2.823 33.338 2.969 C 33.338 3.114 33.45 3.233 33.586 3.233 C 33.723 3.233 33.909 3.114 33.999 2.969 Z M 44.858 2.986 C 44.762 2.831 44.567 2.704 44.424 2.704 C 44.281 2.704 44.318 2.871 44.506 3.074 C 44.886 3.486 45.129 3.425 44.858 2.986 Z M 44.252 3.323 C 44.07 3.249 43.772 3.249 43.59 3.323 C 43.408 3.396 43.557 3.456 43.921 3.456 C 44.285 3.456 44.433 3.396 44.252 3.323 Z M 42.995 3.233 C 42.905 3.088 42.719 2.969 42.582 2.969 C 42.445 2.969 42.333 3.088 42.333 3.233 C 42.333 3.379 42.519 3.498 42.746 3.498 C 42.973 3.498 43.085 3.379 42.995 3.233 Z M 40.746 3.227 C 40.746 2.839 39.532 2.341 39.043 2.528 C 38.815 2.616 38.629 2.869 38.629 3.092 C 38.629 3.389 38.914 3.497 39.688 3.497 C 40.27 3.497 40.746 3.376 40.746 3.227 Z M 37.703 3.233 C 37.793 3.088 37.674 2.969 37.439 2.969 C 37.203 2.969 37.084 3.088 37.174 3.233 C 37.264 3.379 37.383 3.498 37.439 3.498 C 37.494 3.498 37.613 3.379 37.703 3.233 Z M 43.32 3.867 C 43.232 3.779 43.004 3.77 42.813 3.846 C 42.602 3.931 42.665 3.993 42.973 4.006 C 43.252 4.018 43.408 3.955 43.32 3.867 Z M 50.652 3.886 C 50.935 3.673 51.441 3.498 51.777 3.498 C 52.519 3.498 52.565 3.123 51.881 2.644 C 51.271 2.216 49.131 2.345 49.299 2.799 C 49.361 2.965 49.575 3.055 49.775 2.999 C 49.975 2.942 50.377 2.869 50.668 2.837 C 50.992 2.8 51.023 2.82 50.749 2.889 C 50.502 2.951 50.36 3.157 50.433 3.348 C 50.506 3.538 50.38 3.765 50.154 3.852 C 49.927 3.939 49.742 3.875 49.742 3.71 C 49.742 3.545 49.67 3.481 49.583 3.568 C 49.4 3.751 49.684 4.296 49.956 4.283 C 50.056 4.278 50.37 4.1 50.652 3.886 Z M 41.518 3.858 C 41.578 3.805 40.894 3.762 39.996 3.762 C 39.075 3.762 38.365 3.879 38.365 4.029 C 38.365 4.271 41.22 4.116 41.518 3.858 Z M 33.602 4.556 C 33.602 4.411 33.424 4.292 33.205 4.292 C 32.987 4.292 32.8 4.083 32.79 3.829 C 32.774 3.435 32.739 3.445 32.558 3.895 C 32.441 4.186 32.397 4.513 32.46 4.622 C 32.631 4.918 33.602 4.862 33.602 4.556 Z M 48.788 3.934 C 48.444 2.923 48.315 2.797 47.742 2.907 C 46.784 3.09 46.673 3.498 47.581 3.498 C 48.031 3.498 48.427 3.666 48.514 3.895 C 48.617 4.161 48.503 4.292 48.168 4.292 C 47.894 4.292 47.629 4.188 47.581 4.062 C 47.443 3.702 46.302 3.419 46.302 3.745 C 46.302 3.9 46.51 4.029 46.765 4.031 C 47.123 4.034 47.147 4.086 46.872 4.261 C 46.419 4.548 47.644 4.899 48.265 4.66 C 48.495 4.572 48.683 4.631 48.683 4.792 C 48.683 4.954 48.795 5.085 48.932 5.085 C 49.069 5.085 49.004 4.567 48.788 3.934 Z M 35.912 5.19 C 35.824 5.102 35.596 5.093 35.405 5.169 C 35.194 5.254 35.256 5.316 35.564 5.329 C 35.843 5.34 36 5.278 35.912 5.19 Z M 55.959 5.35 C 55.869 5.204 55.617 5.085 55.399 5.085 C 55.181 5.085 55.076 5.204 55.166 5.35 C 55.256 5.495 55.508 5.614 55.726 5.614 C 55.944 5.614 56.049 5.495 55.959 5.35 Z M 50.271 5.498 C 50.271 5.219 49.763 5.101 49.612 5.346 C 49.521 5.493 49.631 5.614 49.858 5.614 C 50.085 5.614 50.271 5.562 50.271 5.498 Z M 34.925 5.372 C 34.925 5.239 34.776 5.063 34.594 4.983 C 34.412 4.902 34.74 4.844 35.322 4.854 C 36.962 4.882 37.306 4.838 37.306 4.602 C 37.306 4.482 36.949 4.436 36.513 4.5 C 36.036 4.57 35.719 4.499 35.719 4.322 C 35.719 4.16 35.92 4.027 36.166 4.027 C 36.556 4.027 36.548 3.977 36.1 3.639 C 35.818 3.425 35.467 3.248 35.322 3.246 C 35.176 3.244 35.221 3.345 35.422 3.472 C 35.886 3.766 35.575 4.292 34.938 4.292 C 34.492 4.292 34.131 4.775 34.131 5.372 C 34.131 5.505 34.31 5.614 34.528 5.614 C 34.746 5.614 34.925 5.505 34.925 5.372 Z M 29.104 6.144 C 29.406 5.948 29.299 5.886 28.657 5.883 C 28.192 5.881 27.739 5.998 27.649 6.144 C 27.439 6.483 28.579 6.483 29.104 6.144 Z M 33.602 6.276 C 33.884 5.936 33.804 5.884 33.039 5.915 C 32.298 5.945 32.259 5.973 32.808 6.08 C 33.426 6.201 33.435 6.224 32.941 6.423 C 32.538 6.584 32.515 6.64 32.842 6.654 C 33.079 6.664 33.421 6.494 33.602 6.276 Z M 28.707 6.937 C 28.797 6.792 28.745 6.673 28.591 6.673 C 28.437 6.673 28.31 6.792 28.31 6.937 C 28.31 7.083 28.363 7.202 28.427 7.202 C 28.491 7.202 28.617 7.083 28.707 6.937 Z M 32.147 7.202 C 32.237 7.056 32.184 6.937 32.03 6.937 C 31.876 6.937 31.75 7.056 31.75 7.202 C 31.75 7.347 31.803 7.467 31.867 7.467 C 31.931 7.467 32.057 7.347 32.147 7.202 Z M 58.544 8.26 C 59.064 8.26 59.05 8.207 58.333 7.458 C 57.571 6.663 57.563 6.662 57.349 7.239 C 57.212 7.61 57.244 7.89 57.436 8.009 C 57.603 8.112 57.636 8.251 57.511 8.317 C 57.385 8.384 57.441 8.398 57.635 8.349 C 57.828 8.3 58.238 8.26 58.544 8.26 Z M 27.612 8.657 C 27.705 8.415 27.613 8.26 27.376 8.26 C 27.162 8.26 26.988 8.439 26.988 8.657 C 26.988 8.875 27.094 9.054 27.224 9.054 C 27.354 9.054 27.529 8.875 27.612 8.657 Z M 59.002 9.054 C 59.561 8.875 59.487 8.838 58.523 8.816 C 57.825 8.8 57.447 8.892 57.547 9.054 C 57.733 9.356 58.06 9.356 59.002 9.054 Z M 59.862 9.673 C 59.68 9.599 59.382 9.599 59.201 9.673 C 59.019 9.746 59.167 9.806 59.531 9.806 C 59.895 9.806 60.044 9.746 59.862 9.673 Z M 26.11 9.534 C 26.025 9.323 25.963 9.385 25.95 9.693 C 25.939 9.972 26.001 10.129 26.089 10.041 C 26.177 9.953 26.186 9.725 26.11 9.534 Z M 24.342 11.171 C 24.342 11.025 24.223 10.906 24.077 10.906 C 23.932 10.906 23.813 11.025 23.813 11.171 C 23.813 11.316 23.932 11.435 24.077 11.435 C 24.223 11.435 24.342 11.316 24.342 11.171 Z M 60.325 11.583 C 60.325 11.519 60.206 11.393 60.06 11.303 C 59.915 11.213 59.796 11.266 59.796 11.42 C 59.796 11.574 59.915 11.7 60.06 11.7 C 60.206 11.7 60.325 11.647 60.325 11.583 Z M 71.779 11.507 C 71.908 10.831 71.893 10.817 71.545 11.292 C 71.12 11.874 71.067 12.229 71.407 12.229 C 71.535 12.229 71.703 11.904 71.779 11.507 Z M 23.548 12.494 C 23.548 12.348 23.429 12.229 23.283 12.229 C 23.138 12.229 23.019 12.348 23.019 12.494 C 23.019 12.639 23.138 12.758 23.283 12.758 C 23.429 12.758 23.548 12.639 23.548 12.494 Z M 60.141 12.853 C 59.968 12.782 59.899 12.534 59.988 12.301 C 60.096 12.02 60.046 11.942 59.841 12.069 C 59.365 12.363 59.474 13.025 59.994 13.002 C 60.249 12.99 60.315 12.923 60.141 12.853 Z M 61.119 14.346 C 60.601 14.011 60.25 14.011 60.457 14.346 C 60.547 14.491 60.822 14.609 61.068 14.606 C 61.454 14.603 61.461 14.567 61.119 14.346 Z M 24.384 14.676 C 26.285 12.412 28.15 10.393 28.248 10.491 C 28.418 10.661 24.569 15.14 24.254 15.14 C 24.112 15.14 24.17 14.931 24.384 14.676 Z M 28.154 13.862 C 28.791 13.332 29.32 12.62 29.44 12.132 C 29.932 10.123 30.746 7.731 30.938 7.731 C 31.053 7.731 31.092 7.443 31.025 7.091 C 30.889 6.377 31.708 3.981 32.698 2.201 C 33.054 1.56 33.298 0.988 33.239 0.93 C 33.104 0.795 32.229 2.226 31.508 3.762 C 31.025 4.794 28.091 8.834 23.952 14.171 C 22.521 16.016 22.425 16.674 23.553 16.9 C 23.993 16.988 24.415 17.161 24.492 17.285 C 24.568 17.409 25.18 16.892 25.851 16.137 C 26.522 15.382 27.558 14.358 28.154 13.862 Z M 22.885 17.478 C 22.966 17.397 22.85 17.181 22.628 16.997 C 22.406 16.813 22.225 16.441 22.225 16.17 C 22.225 15.867 21.972 15.615 21.564 15.513 C 20.577 15.265 20.765 14.965 21.828 15.089 C 22.395 15.155 22.754 15.083 22.754 14.904 C 22.754 14.742 22.341 14.61 21.836 14.61 C 20.835 14.61 18.751 13.773 16.998 12.667 C 16.386 12.281 15.734 11.973 15.55 11.982 C 15.365 11.992 15.452 12.122 15.743 12.271 C 16.401 12.607 17.58 14.052 17.369 14.263 C 17.086 14.546 15.568 13.632 15.035 12.857 C 14.535 12.13 14.52 12.126 14.699 12.758 C 14.802 13.122 14.99 13.459 15.116 13.508 C 15.243 13.556 15.346 13.877 15.346 14.22 C 15.346 14.563 15.47 14.92 15.621 15.014 C 15.773 15.107 15.824 15.442 15.736 15.757 C 15.608 16.214 15.633 16.25 15.858 15.933 C 16.064 15.643 16.193 15.619 16.341 15.847 C 16.452 16.017 17.134 16.226 17.858 16.311 C 19.482 16.502 20.126 16.692 20.638 17.128 C 21.239 17.64 22.523 17.84 22.885 17.478 Z M 27.591 17.786 C 27.85 17.786 28.103 17.637 28.153 17.455 C 28.897 14.722 29.192 14.032 29.694 13.846 C 30.218 13.652 30.221 13.631 29.752 13.451 C 29.362 13.302 28.818 13.724 27.187 15.44 C 25.948 16.743 25.173 17.767 25.258 17.988 C 25.336 18.191 25.4 18.465 25.4 18.597 C 25.4 18.728 25.787 18.6 26.26 18.312 C 26.733 18.023 27.332 17.787 27.591 17.786 Z M 65.727 19.203 C 65.979 18.546 65.701 18.456 65.364 19.086 C 65.202 19.389 65.179 19.637 65.315 19.637 C 65.45 19.637 65.635 19.442 65.727 19.203 Z M 62.159 18.965 C 62.317 19.062 62.772 18.913 63.171 18.634 C 63.57 18.355 64.282 18.129 64.753 18.132 C 65.224 18.135 65.829 17.94 66.097 17.697 C 66.674 17.175 67.201 17.123 67.213 17.587 C 67.218 17.784 67.367 17.725 67.583 17.441 C 67.854 17.083 67.98 17.05 68.086 17.308 C 68.177 17.53 68.291 17.441 68.408 17.058 C 68.507 16.73 68.691 16.462 68.816 16.462 C 69.171 16.462 69.863 14.951 69.701 14.529 C 69.621 14.32 69.74 14.078 69.967 13.991 C 70.194 13.904 70.375 13.621 70.37 13.362 C 70.362 12.952 70.297 12.968 69.865 13.486 C 69.592 13.813 69.239 14.081 69.08 14.081 C 68.921 14.081 68.792 14.26 68.792 14.478 C 68.792 14.696 68.654 14.875 68.486 14.875 C 68.318 14.875 67.774 15.185 67.278 15.563 C 66.782 15.942 66.294 16.163 66.195 16.056 C 66.095 15.949 66.156 15.81 66.329 15.748 C 66.503 15.685 66.58 15.464 66.5 15.255 C 66.41 15.022 66.518 14.875 66.779 14.875 C 67.013 14.875 67.204 14.825 67.204 14.764 C 67.204 14.703 67.281 14.454 67.374 14.21 C 67.518 13.836 67.363 13.86 66.382 14.365 C 65.743 14.693 64.744 15.113 64.161 15.298 L 63.103 15.633 L 64.009 15.651 C 64.899 15.668 64.906 15.678 64.406 16.159 C 64.126 16.429 63.828 16.544 63.743 16.415 C 63.43 15.936 62.734 16.531 62.655 17.345 C 62.588 18.033 62.378 18.276 61.47 18.713 C 60.863 19.004 60.268 19.351 60.147 19.483 C 60.021 19.621 60.068 19.642 60.259 19.532 C 60.448 19.423 60.59 19.482 60.59 19.668 C 60.59 19.851 60.872 19.729 61.231 19.391 C 61.585 19.06 62.002 18.868 62.159 18.965 Z M 57.305 14.976 C 56.444 14.047 55.86 13.287 56.008 13.287 C 56.281 13.287 59.267 16.299 59.267 16.575 C 59.267 16.958 58.754 16.54 57.305 14.976 Z M 58.55 20.696 C 58.33 19.856 59.148 18.899 60.39 18.544 C 62.615 17.907 62.674 17.496 60.83 15.446 C 60.047 14.576 59.057 13.035 58.467 11.768 C 57.908 10.569 56.813 8.604 56.034 7.403 C 55.255 6.201 54.152 4.417 53.584 3.439 C 53.015 2.46 52.512 1.698 52.465 1.745 C 52.418 1.792 52.876 2.81 53.483 4.006 C 54.278 5.572 54.6 6.544 54.633 7.474 C 54.675 8.688 54.789 8.882 56.548 10.733 C 57.576 11.815 58.747 13.28 59.151 13.986 C 59.555 14.693 60.03 15.45 60.206 15.669 C 60.828 16.438 60.876 17.115 60.333 17.454 C 60.049 17.632 59.608 17.697 59.352 17.599 C 58.959 17.448 59 17.375 59.617 17.122 L 60.346 16.824 L 59.842 16.18 C 59.566 15.826 59.095 15.056 58.797 14.468 C 58.228 13.347 54.44 8.989 53.895 8.828 C 53.721 8.777 53.834 8.924 54.148 9.156 C 54.708 9.571 55.563 11.608 55.563 12.531 C 55.563 12.791 55.297 13.146 54.973 13.32 C 54.397 13.628 54.395 13.641 54.907 13.875 C 55.675 14.227 56.415 15.346 56.459 16.222 C 56.483 16.683 56.733 17.153 57.089 17.402 C 57.413 17.629 57.679 17.946 57.679 18.106 C 57.679 18.266 57.461 18.199 57.195 17.959 C 56.488 17.319 56.391 17.407 56.544 18.548 C 56.62 19.113 56.557 19.797 56.404 20.069 C 56.166 20.491 56.249 20.609 56.969 20.874 C 58.28 21.357 58.71 21.309 58.55 20.696 Z M 28.139 22.284 C 28.047 21.826 28.113 21.33 28.295 21.111 C 28.543 20.812 28.515 20.586 28.167 20.054 C 27.886 19.626 27.784 19.133 27.889 18.713 C 27.989 18.318 27.943 18.05 27.776 18.05 C 27.186 18.05 25.461 19.106 25.309 19.559 C 25.222 19.821 25.003 20.237 24.822 20.485 C 24.32 21.171 24.748 21.343 25.761 20.863 C 26.261 20.625 27.01 20.443 27.424 20.457 C 28.045 20.479 27.968 20.539 26.988 20.8 C 25.96 21.074 25.793 21.216 25.77 21.833 C 25.748 22.432 25.855 22.548 26.432 22.552 C 26.81 22.554 27.298 22.671 27.517 22.812 C 28.169 23.234 28.306 23.119 28.139 22.284 Z M 67.204 22.914 C 67.204 22.858 66.907 22.812 66.543 22.812 C 66.179 22.812 65.881 22.915 65.881 23.04 C 65.881 23.166 66.179 23.211 66.543 23.142 C 66.907 23.072 67.204 22.97 67.204 22.914 Z M 58.128 22.93 C 59.456 22.225 59.772 21.65 58.87 21.582 C 58.579 21.561 57.835 21.456 57.216 21.35 C 56.097 21.158 56.092 21.161 56.092 21.963 C 56.092 22.406 56.019 22.957 55.931 23.188 C 55.685 23.828 56.654 23.715 58.128 22.93 Z M 24.799 24.505 C 24.711 24.417 24.483 24.407 24.292 24.484 C 24.081 24.568 24.144 24.631 24.452 24.644 C 24.731 24.655 24.887 24.592 24.799 24.505 Z M 63.5 25.202 C 63.5 25.061 63.321 25.014 63.103 25.098 C 62.885 25.182 62.706 25.297 62.706 25.354 C 62.706 25.411 62.885 25.458 63.103 25.458 C 63.321 25.458 63.5 25.343 63.5 25.202 Z M 27.296 24.388 L 27.784 23.477 L 26.923 23.184 C 25.92 22.842 25.772 23.08 26.052 24.576 C 26.258 25.674 26.637 25.616 27.296 24.388 Z M 60.402 25.193 C 60.478 24.902 60.432 24.73 60.3 24.812 C 60.168 24.894 60.06 25.132 60.06 25.342 C 60.06 25.889 60.24 25.811 60.402 25.193 Z M 25.076 26.135 C 25.356 25.855 24.768 25.458 24.077 25.458 C 23.26 25.458 22.875 25.806 23.168 26.279 C 23.329 26.54 24.78 26.431 25.076 26.135 Z M 77.377 27.076 C 77.052 26.772 72.758 24.929 72.376 24.929 C 72.215 24.929 71.215 24.512 70.152 24.003 C 68.187 23.061 66.813 22.715 67.873 23.428 C 68.706 23.989 76.596 27.186 77.377 27.28 C 77.536 27.299 77.536 27.224 77.377 27.076 Z M 62.9 27.127 C 62.642 27.06 62.285 27.064 62.106 27.137 C 61.927 27.209 62.137 27.264 62.574 27.259 C 63.011 27.254 63.157 27.194 62.9 27.127 Z M 23.283 27.148 C 23.283 27.092 22.926 27.046 22.49 27.046 C 22.053 27.046 21.696 27.144 21.696 27.264 C 21.696 27.385 22.053 27.431 22.49 27.367 C 22.926 27.303 23.283 27.204 23.283 27.148 Z M 18.521 27.31 C 19.004 26.998 18.587 26.998 17.859 27.31 C 17.51 27.46 17.465 27.543 17.727 27.552 C 17.945 27.56 18.303 27.451 18.521 27.31 Z M 62.971 28.369 C 62.971 28.223 62.845 28.104 62.691 28.104 C 62.537 28.104 62.484 28.223 62.574 28.369 C 62.664 28.514 62.79 28.633 62.854 28.633 C 62.918 28.633 62.971 28.514 62.971 28.369 Z M 25.731 28.458 C 25.549 28.385 25.251 28.385 25.069 28.458 C 24.887 28.531 25.036 28.591 25.4 28.591 C 25.764 28.591 25.913 28.531 25.731 28.458 Z M 59.48 28.229 C 59.399 28.148 59.251 28.295 59.151 28.556 C 59.008 28.933 59.038 28.963 59.3 28.704 C 59.48 28.524 59.562 28.311 59.48 28.229 Z M 62.442 29.162 C 62.442 29.017 62.33 28.898 62.193 28.898 C 62.056 28.898 61.87 29.017 61.78 29.162 C 61.69 29.308 61.802 29.427 62.029 29.427 C 62.256 29.427 62.442 29.308 62.442 29.162 Z M 25.4 29.31 C 25.4 29.031 24.892 28.914 24.741 29.158 C 24.65 29.306 24.761 29.427 24.988 29.427 C 25.214 29.427 25.4 29.375 25.4 29.31 Z M 16.757 29.051 C 16.836 28.844 17.176 28.622 17.512 28.558 C 18.105 28.444 18.104 28.44 17.46 28.405 C 17.054 28.383 16.667 28.575 16.466 28.898 C 16.284 29.189 16.242 29.427 16.374 29.427 C 16.505 29.427 16.677 29.258 16.757 29.051 Z M 69.718 28.803 C 66.903 27.164 65.61 25.655 68.207 27.04 C 69.304 27.625 69.811 28.018 70.345 28.699 C 70.754 29.221 70.506 29.261 69.718 28.803 Z M 71.246 29.229 C 71.634 28.877 72.182 28.773 73.516 28.796 C 74.483 28.812 75.095 28.767 74.877 28.695 C 74.659 28.623 74.259 28.371 73.989 28.136 C 73.719 27.9 73.452 27.737 73.394 27.773 C 73.098 27.961 72.691 27.763 71.839 27.014 C 71.322 26.561 70.217 25.912 69.383 25.573 L 67.866 24.956 L 67.527 25.604 C 67.34 25.961 67.052 26.252 66.886 26.252 C 66.72 26.252 66.363 26.452 66.092 26.697 C 65.618 27.127 65.645 27.189 66.855 28.417 C 68.02 29.6 68.205 29.692 69.422 29.692 C 70.301 29.692 70.904 29.539 71.246 29.229 Z M 10.961 26.908 C 11.241 26.696 11.536 26.587 11.615 26.666 C 11.781 26.832 11.109 27.304 10.716 27.298 C 10.57 27.296 10.68 27.12 10.961 26.908 Z M 15.809 28.587 C 15.579 28.441 15.639 28.366 16.007 28.342 C 16.489 28.31 16.493 28.296 16.047 28.181 C 15.693 28.09 15.592 27.879 15.68 27.418 C 15.839 26.586 15.505 26.614 14.326 27.531 C 12.809 28.71 12.468 28.776 13.626 27.667 C 14.208 27.109 14.699 26.563 14.717 26.452 C 14.736 26.342 14.765 26.133 14.784 25.987 C 14.802 25.842 15.019 25.723 15.266 25.723 C 15.617 25.723 15.646 25.653 15.397 25.404 C 15.148 25.155 14.759 25.242 13.625 25.798 C 12.825 26.19 12.171 26.462 12.171 26.403 C 12.171 26.344 12.092 26.089 11.995 25.837 C 11.848 25.453 11.93 25.407 12.502 25.551 C 12.878 25.645 13.225 25.633 13.273 25.524 C 13.322 25.415 13.808 25.12 14.354 24.867 C 14.899 24.615 15.344 24.258 15.342 24.074 C 15.339 23.863 15.266 23.838 15.143 24.008 C 15.036 24.155 14.354 24.43 13.626 24.617 C 12.198 24.985 9.272 26.292 8.202 27.039 C 7.838 27.293 6.886 27.715 6.085 27.978 C 4.336 28.551 2.39 29.413 2.828 29.421 C 3 29.424 4.131 29.19 5.341 28.9 C 7.988 28.265 7.937 28.268 7.937 28.775 C 7.937 29.095 8.047 29.123 8.449 28.907 C 9.225 28.492 11.8 28.565 12.25 29.015 C 12.787 29.552 15.381 29.671 15.809 29.178 C 16.073 28.873 16.073 28.755 15.809 28.587 Z M 83.768 29.824 C 83.213 29.404 79.886 27.992 78.846 27.735 C 78.195 27.575 78.194 27.577 78.78 27.879 C 79.107 28.047 79.375 28.286 79.375 28.409 C 79.375 28.751 78.773 28.661 78.211 28.236 C 77.935 28.027 77.101 27.659 76.359 27.418 C 75.617 27.177 73.898 26.511 72.541 25.939 C 69.857 24.809 68.538 24.675 70.946 25.778 C 71.759 26.15 73.098 26.885 73.92 27.412 C 74.743 27.938 75.681 28.369 76.004 28.369 C 76.826 28.369 81.697 29.424 82.815 29.845 C 84.03 30.303 84.39 30.295 83.768 29.824 Z M 59.205 29.692 C 59.387 29.401 59.439 29.162 59.322 29.162 C 59.046 29.162 58.473 29.734 58.473 30.009 C 58.473 30.399 58.871 30.226 59.205 29.692 Z M 26.592 28.487 C 26.238 27.622 25.871 26.406 25.776 25.786 C 25.681 25.165 25.498 24.593 25.369 24.513 C 25.241 24.434 25.135 24.467 25.135 24.588 C 25.135 25.098 26.246 28.761 26.62 29.484 C 27.296 30.791 27.278 30.165 26.592 28.487 Z M 25.4 29.956 C 25.4 29.811 25.162 29.692 24.871 29.692 C 24.58 29.692 24.342 29.811 24.342 29.956 C 24.342 30.102 24.58 30.221 24.871 30.221 C 25.162 30.221 25.4 30.102 25.4 29.956 Z M 23.283 29.948 C 23.283 29.798 23.105 29.607 22.886 29.523 C 22.261 29.283 22.423 28.898 23.151 28.898 C 23.515 28.898 23.813 28.782 23.813 28.64 C 23.813 28.495 23.467 28.451 23.019 28.541 C 22.513 28.642 22.225 28.592 22.225 28.402 C 22.225 28.238 22.641 28.104 23.151 28.104 C 23.66 28.104 24.077 27.985 24.077 27.84 C 24.077 27.528 22.052 27.478 21.862 27.785 C 21.674 28.089 22.676 30.221 23.006 30.221 C 23.158 30.221 23.283 30.098 23.283 29.948 Z M 16.404 30.104 C 16.404 30.04 16.285 29.914 16.14 29.824 C 15.994 29.734 15.875 29.787 15.875 29.941 C 15.875 30.095 15.994 30.221 16.14 30.221 C 16.285 30.221 16.404 30.169 16.404 30.104 Z M 58.465 28.462 C 58.752 27.695 59.051 26.735 59.13 26.329 C 59.209 25.923 59.05 26.188 58.778 26.917 C 58.506 27.646 58.028 28.743 57.717 29.354 C 57.405 29.965 57.154 30.559 57.158 30.674 C 57.177 31.126 57.971 29.781 58.465 28.462 Z M 67.67 29.981 C 66.274 28.163 63.936 26.71 64.97 28.303 C 66.793 31.114 66.68 31.001 67.359 30.692 C 67.889 30.451 67.94 30.333 67.67 29.981 Z M 66.146 31.149 C 66.146 31.109 65.968 30.734 65.751 30.317 L 65.355 29.56 L 65.353 30.543 C 65.352 31.31 65.44 31.494 65.749 31.375 C 65.967 31.291 66.145 31.19 66.145 31.149 Z M 29.876 34.55 C 29.936 34.497 29.431 34.454 28.751 34.454 C 28.072 34.454 27.517 34.575 27.517 34.722 C 27.517 34.962 29.573 34.812 29.876 34.55 Z M 56.454 33.507 C 57.492 33.599 59.255 33.743 60.372 33.827 L 62.404 33.98 L 63.49 32.96 C 64.832 31.701 65.103 30.501 64.439 28.763 C 64.19 28.11 63.892 27.575 63.778 27.575 C 63.663 27.575 63.37 28.286 63.126 29.155 C 62.692 30.703 62.186 31.493 61.563 31.595 C 61.391 31.624 59.644 31.654 57.679 31.662 C 53.855 31.677 53.222 31.855 52.671 33.063 C 52.515 33.406 52.388 34.051 52.388 34.498 L 52.388 35.31 L 53.478 34.325 L 54.568 33.34 Z M 31.834 32.817 C 30.753 30.971 28.634 30.32 26.3 31.115 C 25.608 31.351 24.577 31.544 24.009 31.544 C 23.139 31.544 22.791 31.358 21.786 30.353 C 21.132 29.699 20.546 29.163 20.484 29.163 C 20.423 29.163 20.373 29.437 20.373 29.771 C 20.373 30.106 20.241 30.512 20.079 30.673 C 19.864 30.889 19.917 31.191 20.278 31.803 C 21.393 33.697 23.443 34.11 26.856 33.128 C 27.874 32.835 29.027 32.664 29.417 32.748 C 29.825 32.836 30.556 33.427 31.137 34.137 L 32.147 35.373 L 32.231 34.505 C 32.279 34.005 32.111 33.29 31.834 32.817 Z M 28.046 37.629 C 28.046 37.484 27.92 37.365 27.766 37.365 C 27.612 37.365 27.559 37.484 27.649 37.629 C 27.739 37.775 27.865 37.894 27.929 37.894 C 27.993 37.894 28.046 37.775 28.046 37.629 Z M 43.127 37.629 C 43.73 37.027 44.716 36.961 46.401 37.412 C 47.39 37.676 47.752 37.653 48.789 37.257 C 50.517 36.597 51.411 35.594 51.928 33.733 C 52.448 31.865 52.681 31.636 54.502 31.208 C 55.265 31.029 56.153 30.638 56.476 30.34 C 57.35 29.533 58.812 25.537 58.637 24.434 C 58.454 23.277 58.314 23.164 57.726 23.696 C 57.457 23.94 56.802 24.136 56.256 24.136 L 55.272 24.136 L 55.447 22.583 C 55.564 21.549 55.525 20.968 55.328 20.847 C 54.855 20.555 54.988 19.976 55.563 19.826 C 56.195 19.66 56.267 18.533 55.709 17.525 C 55.462 17.078 55.425 16.719 55.596 16.401 C 56.001 15.644 55.055 14.199 54.328 14.464 C 53.774 14.667 53.728 13.867 54.254 13.197 C 55.131 12.083 54.777 10.353 53.445 9.237 C 53.13 8.973 52.932 8.602 53.005 8.411 C 53.204 7.894 49.51 5.888 46.995 5.147 C 45.126 4.597 44.452 4.53 41.804 4.631 C 39.331 4.725 38.395 4.882 36.804 5.472 C 34.52 6.318 32.385 7.569 32.001 8.286 C 31.853 8.563 31.585 8.79 31.406 8.79 C 30.934 8.79 30.074 10.87 30.057 12.053 C 30.047 12.75 30.185 13.147 30.499 13.323 C 31.246 13.741 31.062 14.523 30.175 14.701 C 29.53 14.83 29.343 15.047 29.1 15.951 C 28.855 16.86 28.875 17.121 29.219 17.502 C 29.761 18.101 29.743 18.274 29.078 18.812 L 28.522 19.262 L 29.078 20.252 C 29.759 21.465 29.76 21.49 29.104 21.49 C 28.518 21.49 28.419 22.027 28.855 22.842 C 29.087 23.275 29.003 23.489 28.365 24.084 C 26.647 25.689 26.366 27.472 27.529 29.383 C 27.925 30.036 28.221 30.221 28.862 30.221 C 29.898 30.221 31.385 30.915 31.888 31.632 C 32.099 31.933 32.522 32.932 32.827 33.85 C 33.658 36.345 34.58 36.959 37.551 36.996 C 39.773 37.024 41.05 37.317 41.397 37.878 C 41.676 38.328 42.554 38.202 43.127 37.629 Z M 35.983 38.042 C 35.983 37.978 35.278 37.549 34.417 37.09 C 33.555 36.631 32.097 35.666 31.176 34.947 L 29.501 33.638 L 31.024 35.067 C 32.436 36.392 35.983 38.52 35.983 38.042 Z M 49.114 37.996 C 50.29 37.505 53.785 35.146 54.294 34.499 C 54.678 34.01 54.744 33.971 52.23 35.763 C 51.526 36.264 50.173 37.064 49.222 37.54 C 47.415 38.445 47.347 38.733 49.114 37.996 Z M 29.898 37.762 L 29.898 36.836 L 28.509 36.883 L 27.12 36.931 L 28.359 37.029 C 29.394 37.112 29.592 37.213 29.56 37.643 C 29.536 37.954 29.327 38.159 29.032 38.159 C 28.764 38.159 28.617 38.278 28.707 38.423 C 28.797 38.569 29.102 38.688 29.384 38.688 C 29.795 38.688 29.898 38.502 29.898 37.762 Z M 41.982 39.201 C 40.698 39.087 39.478 38.928 39.27 38.849 C 39.063 38.769 38.894 38.813 38.894 38.945 C 38.894 39.228 40.209 39.39 42.598 39.4 C 44.161 39.407 44.104 39.389 41.982 39.201 Z M 54.901 39.482 C 54.991 39.336 54.819 39.217 54.52 39.217 C 54.22 39.217 53.975 39.336 53.975 39.482 C 53.975 39.627 54.147 39.746 54.356 39.746 C 54.566 39.746 54.811 39.627 54.901 39.482 Z M 51.787 39.586 C 51.699 39.498 51.471 39.489 51.28 39.565 C 51.069 39.65 51.131 39.712 51.439 39.725 C 51.718 39.737 51.875 39.674 51.787 39.586 Z M 40.481 40.54 C 40.481 40.394 40.355 40.275 40.201 40.275 C 40.047 40.275 39.994 40.394 40.084 40.54 C 40.174 40.685 40.3 40.804 40.365 40.804 C 40.429 40.804 40.481 40.685 40.481 40.54 Z M 37.725 40.275 C 37.931 40.275 38.1 40.156 38.1 40.011 C 38.1 39.865 38.005 39.746 37.888 39.746 C 37.575 39.746 37.039 40.339 37.063 40.659 C 37.074 40.812 37.143 40.788 37.217 40.606 C 37.29 40.424 37.519 40.275 37.725 40.275 Z M 37.968 41.598 C 38.175 41.263 37.824 41.263 37.306 41.598 C 36.964 41.819 36.971 41.855 37.357 41.859 C 37.603 41.861 37.878 41.744 37.968 41.598 Z M 52.864 42.022 C 53.258 41.819 53.808 41.4 54.088 41.091 L 54.596 40.529 L 53.363 41.075 C 51.677 41.82 50.659 41.508 48.176 39.482 C 47.096 38.602 45.928 37.81 45.578 37.722 C 44.771 37.52 43.338 37.923 43.18 38.397 C 43.086 38.68 43.269 38.72 44.018 38.58 C 44.892 38.416 45.088 38.502 46.235 39.555 C 49.073 42.16 51.123 42.923 52.864 42.022 Z M 40.534 42.074 C 40.287 41.827 40.146 41.827 39.899 42.074 C 39.652 42.321 39.723 42.392 40.217 42.392 C 40.711 42.392 40.781 42.321 40.534 42.074 Z M 33.729 42.394 C 34.108 42.25 35.317 41.282 36.414 40.243 L 38.409 38.355 L 39.776 38.51 L 41.143 38.665 L 40.4 38.015 C 39.121 36.895 37.209 37.351 35.454 39.196 C 33.77 40.967 33 41.418 32.025 41.204 C 31.102 41.001 30.954 41.394 31.659 42.173 C 32.152 42.717 32.719 42.778 33.729 42.394 Z M 40.169 43.838 C 39.301 43.366 39.058 42.691 39.416 41.748 C 39.799 40.741 39.76 40.657 39.158 41.201 C 38.098 42.161 38.793 44.254 40.166 44.233 L 40.878 44.223 Z M 44.715 43.979 C 45.292 43.402 45.4 42.385 44.97 41.581 C 44.556 40.808 44.152 40.946 44.459 41.755 C 44.801 42.655 44.264 43.816 43.451 43.932 C 43.123 43.979 42.923 44.128 43.007 44.263 C 43.266 44.682 44.16 44.534 44.715 43.979 Z M 38.683 44.314 C 37.786 43.406 34.827 42.549 34.041 42.969 C 33.757 43.121 32.981 43.184 32.316 43.11 C 31.362 43.002 30.925 42.775 30.246 42.034 C 29.773 41.518 29.304 40.773 29.206 40.379 C 29.107 39.985 28.226 38.908 27.247 37.985 C 26.269 37.062 25.185 35.891 24.839 35.383 C 24.324 34.626 24.042 34.457 23.283 34.452 C 21.833 34.442 20.371 33.457 19.609 31.976 L 18.947 30.688 L 18.471 31.275 C 18.052 31.793 17.898 31.828 17.161 31.571 C 16.701 31.41 16.054 31.279 15.722 31.279 C 15.297 31.279 15.093 31.103 15.034 30.684 C 14.963 30.186 14.76 30.075 13.789 30.006 C 13.15 29.96 12.501 30.049 12.347 30.204 C 11.811 30.74 11.357 30.527 11.533 29.824 C 11.69 29.198 11.641 29.163 10.595 29.163 C 9.232 29.163 8.467 29.547 8.467 30.23 C 8.467 30.516 8.371 30.75 8.255 30.75 C 7.881 30.75 7.408 30.13 7.408 29.639 C 7.408 29.377 7.367 29.163 7.316 29.163 C 7.265 29.163 5.866 29.461 4.207 29.824 C 2.079 30.291 1.061 30.642 0.751 31.015 C 0.194 31.686 0 31.683 0 31.003 C 0 30.025 1.125 29.217 3.836 28.249 C 5.292 27.729 7.792 26.659 9.393 25.869 C 13.427 23.88 17.29 22.284 18.068 22.284 C 19.092 22.284 19.487 22.94 19.077 23.958 C 18.489 25.42 18.494 25.574 19.144 26.377 C 19.698 27.06 19.838 27.116 20.214 26.803 C 20.593 26.489 20.625 25.998 20.468 22.862 C 20.334 20.198 20.182 19.156 19.875 18.797 C 19.648 18.532 19.351 18.315 19.215 18.315 C 19.079 18.315 19.165 18.533 19.406 18.799 C 20.375 19.87 19.559 19.963 18.434 18.91 L 17.657 18.183 L 17.79 18.919 C 17.936 19.732 17.806 19.692 17.344 18.783 C 17.143 18.386 16.819 18.193 16.391 18.214 C 16.034 18.232 15.66 18.105 15.559 17.933 C 15.423 17.702 14.862 17.68 13.442 17.849 C 10.142 18.243 10.254 18.255 10.039 17.472 C 9.789 16.559 9.889 16.481 10.994 16.73 C 11.496 16.844 11.907 16.859 11.907 16.766 C 11.908 16.672 12.529 16.564 13.287 16.525 C 14.045 16.487 14.783 16.338 14.926 16.194 C 15.098 16.023 15.078 15.934 14.87 15.934 C 14.695 15.934 14.552 15.636 14.552 15.272 C 14.552 14.908 14.433 14.611 14.288 14.611 C 14.142 14.611 14.023 14.425 14.023 14.198 C 14.023 13.971 13.904 13.859 13.758 13.949 C 13.613 14.039 13.494 13.92 13.494 13.685 C 13.494 13.449 13.375 13.33 13.229 13.42 C 13.079 13.513 12.965 13.293 12.965 12.915 C 12.965 12.429 12.856 12.288 12.568 12.398 C 12.349 12.482 12.171 12.437 12.171 12.297 C 12.171 12.158 11.814 11.67 11.377 11.213 C 10.448 10.24 10.393 9.838 11.104 9.195 C 11.609 8.737 11.665 8.766 13.064 10.223 C 14.303 11.512 14.602 11.698 15.197 11.549 C 15.698 11.423 16.163 11.557 16.88 12.031 C 18.645 13.198 20.067 13.817 20.989 13.817 C 21.824 13.817 21.931 13.717 22.456 12.456 C 23.701 9.46 27.381 5.169 30.044 3.608 C 30.75 3.195 31.51 2.426 32.001 1.628 C 32.845 0.256 33.045 0.148 33.901 0.606 C 34.324 0.832 34.367 0.966 34.116 1.268 C 33.722 1.742 33.801 1.74 35.223 1.235 C 40.015 -0.469 45.743 -0.406 50.364 1.402 C 51.419 1.814 51.619 1.834 51.489 1.51 C 51.401 1.294 51.257 0.938 51.169 0.72 C 51.072 0.481 51.154 0.323 51.374 0.323 C 51.987 0.323 52.858 1.074 53.453 2.114 C 53.763 2.657 54.733 3.637 55.61 4.292 C 58.702 6.603 61.549 10.269 63.059 13.883 C 63.287 14.429 63.643 14.875 63.851 14.875 C 64.525 14.875 66.247 14.046 67.541 13.099 C 68.474 12.417 68.971 12.217 69.441 12.335 C 69.937 12.46 70.191 12.334 70.588 11.767 C 70.868 11.366 71.144 10.92 71.201 10.774 C 71.464 10.105 72.668 8.521 73.018 8.384 C 73.486 8.201 74.085 8.943 74.079 9.7 C 74.076 10.139 74.027 10.17 73.829 9.856 C 73.445 9.249 73.208 9.731 73.564 10.395 C 73.839 10.91 73.823 10.965 73.435 10.816 C 73.076 10.678 73.025 10.755 73.171 11.213 C 73.316 11.671 73.265 11.747 72.906 11.61 C 72.555 11.475 72.496 11.55 72.629 11.967 C 72.731 12.289 72.675 12.494 72.485 12.494 C 72.315 12.494 72.243 12.673 72.327 12.891 C 72.417 13.125 72.33 13.288 72.115 13.288 C 71.881 13.288 71.801 13.477 71.891 13.821 C 72.001 14.243 71.935 14.317 71.571 14.178 C 71.196 14.034 71.145 14.105 71.293 14.571 C 71.427 14.994 71.363 15.14 71.043 15.14 C 70.806 15.14 70.689 15.264 70.783 15.416 C 70.877 15.568 70.756 15.995 70.513 16.365 C 69.98 17.178 70.06 17.28 71.326 17.397 C 71.869 17.448 72.411 17.645 72.532 17.836 C 72.7 18.1 72.753 18.104 72.756 17.852 C 72.762 17.335 73.289 17.464 73.294 17.984 C 73.297 18.381 73.335 18.39 73.558 18.05 C 73.79 17.697 73.848 17.697 74.079 18.05 C 74.311 18.403 74.341 18.403 74.348 18.05 C 74.355 17.725 74.397 17.719 74.585 18.014 C 74.778 18.319 74.833 18.319 74.941 18.014 C 75.17 17.371 75.438 17.966 75.252 18.705 C 75.05 19.511 75.189 19.512 71.603 18.687 C 69.527 18.209 69.517 18.209 69.073 18.757 C 68.658 19.271 67.199 20.167 66.779 20.167 C 66.677 20.167 66.772 19.959 66.991 19.704 C 67.209 19.449 67.462 19.034 67.551 18.782 C 67.691 18.388 67.642 18.367 67.21 18.637 C 66.934 18.81 66.564 19.219 66.389 19.545 C 66.185 19.926 65.777 20.168 65.249 20.219 L 64.426 20.299 L 64.236 23.21 C 64.132 24.81 64.098 26.269 64.162 26.451 C 64.336 26.95 65.211 26.847 65.738 26.265 C 66.186 25.77 66.182 25.7 65.646 24.594 C 65.04 23.342 64.945 22.668 65.339 22.424 C 66.01 22.009 67.626 22.255 69.271 23.022 C 70.244 23.476 72.41 24.402 74.083 25.08 C 84.278 29.209 85.196 29.69 85.196 30.896 C 85.196 31.623 84.744 31.749 84.299 31.145 C 83.984 30.716 78.235 29.163 76.966 29.163 C 76.358 29.163 76.2 29.28 76.2 29.733 C 76.2 30.269 76.171 30.277 75.716 29.865 C 75.056 29.268 71.746 29.235 71.562 29.824 C 71.119 31.242 71.161 31.189 70.877 30.684 C 70.706 30.379 70.297 30.221 69.676 30.221 C 68.82 30.221 68.749 30.277 68.891 30.843 C 69.09 31.636 68.808 31.932 68.393 31.365 C 67.997 30.822 67.208 31.078 67.016 31.81 C 66.875 32.349 66.411 32.551 66.411 32.073 C 66.411 31.525 65.829 31.853 64.294 33.264 C 62.887 34.557 62.584 34.719 61.572 34.719 C 60.524 34.719 60.341 34.829 59.264 36.108 C 58.621 36.872 57.482 38.033 56.735 38.688 C 55.987 39.343 55.173 40.319 54.926 40.857 C 54.259 42.313 52.993 42.989 51.127 42.885 C 50.292 42.838 49.489 42.877 49.342 42.97 C 49.195 43.063 48.302 43.29 47.358 43.475 C 46.294 43.683 45.384 44.044 44.965 44.424 C 44.172 45.144 43.082 45.219 42.461 44.598 C 42.051 44.188 41.97 44.188 41.276 44.598 C 40.218 45.223 39.505 45.145 38.683 44.314 Z"/>
</svg>