<?xml version="1.0" encoding="utf-8"?>
<svg width="512px" height="512px" version="1.1" id="svg8" xmlns="http://www.w3.org/2000/svg">
  <path id="path4505" style="fill-opacity: 1; fill-rule: evenodd; stroke: none; stroke-width: 0.352778; fill: rgb(34, 139, 34);" d="M 166.83 433.009 L 152.453 433.009 C 136.416 433.009 131.251 430.034 119.368 427.264 C 126.232 417.022 154.869 408.566 172.585 408.566 L 178.34 408.566 C 198.216 408.566 205.425 417.915 217.268 419.968 C 230.987 422.374 245.541 426.047 256 431.576 C 261.971 428.413 325.058 408.566 332.226 408.566 L 343.726 408.566 C 358.418 408.566 386.632 418.308 392.622 427.264 C 380.759 430.034 375.594 433.009 359.547 433.009 L 348.047 433.009 C 329.025 433.009 305.525 422.943 300.585 422.943 C 296.342 422.943 271.222 432.921 264.632 434.453 C 266.734 437.33 286.463 447.819 292.355 452.749 C 301.007 460.016 310.278 467.008 316.121 475.856 L 304.906 486.227 C 296.873 480.354 272.616 440.208 256 440.208 C 242.801 440.208 214.479 475.012 208.204 486.57 L 197.028 474.717 C 209.647 455.881 242.428 441.2 247.329 434.591 L 211.415 422.943 C 204.02 426.852 178.32 433.009 166.83 433.009 M 294.83 414.321 C 297.305 384.565 334.652 345.971 365.302 345.283 C 342.725 387.973 337.225 391.891 294.83 414.321 M 146.688 345.283 C 177.073 345.961 214.685 384.516 217.18 414.321 C 174.736 391.871 169.325 388.071 146.688 345.283 M 335.104 395.623 C 340.309 402.733 360.971 408.566 373.934 408.566 L 381.123 408.566 C 407.579 408.566 419.049 401.623 438.661 397.066 C 432.975 388.572 410.152 382.679 395.51 382.679 L 382.566 382.679 C 366.844 382.679 345.533 390.114 335.104 395.623 M 117.934 382.679 C 102.064 382.679 79.428 387.973 73.349 397.066 C 95.494 402.212 106.13 408.566 136.622 408.566 L 139.51 408.566 C 151.333 408.566 170.729 402.684 175.462 395.623 C 162.539 386.971 141.159 382.679 119.368 382.679 Z M 402.698 376.935 L 389.755 376.935 C 385.876 376.935 385.787 376.237 382.566 375.491 C 386.494 360.75 435.695 340.108 460.256 342.072 L 481.802 343.849 C 477.687 359.258 428.379 376.935 402.698 376.935 M 107.858 376.935 C 80.675 376.935 38.86 360.328 30.198 343.849 L 54.651 342.406 L 56.085 342.406 C 78.741 342.406 125.427 360.426 129.434 375.491 C 126.213 376.237 126.134 376.935 122.245 376.935 Z M 97.792 284.877 C 116.579 297.457 139.51 329.256 139.51 361.104 L 139.51 372.604 C 114.929 366.053 97.792 319.544 97.792 284.877 M 106.424 346.727 C 93.707 322.676 66.593 284.877 31.642 284.877 C 34.922 310.489 76.393 346.727 106.424 346.727 M 405.576 346.727 C 434.978 346.727 478.316 309.537 480.368 284.877 C 443.944 284.877 418.725 321.861 405.576 346.727 M 372.49 372.604 C 397.081 366.053 414.208 319.406 414.208 284.877 C 395.303 297.536 372.49 329.119 372.49 361.104 Z M 427.151 302.142 C 438.857 299.009 444.406 272.504 444.406 256.113 L 444.406 246.037 C 444.406 233.045 438.896 224.442 434.34 215.84 C 425.433 221.81 419.963 236.875 419.963 251.802 L 419.963 273.378 C 419.963 284.583 424.951 292.714 427.151 302.142 M 67.584 256.113 L 67.584 251.802 C 67.584 234.557 71.739 227.035 77.67 215.84 C 86.567 221.81 92.037 236.875 92.037 251.802 L 92.037 264.745 C 92.037 283.738 88.011 288.56 84.849 302.142 C 73.143 299.009 67.584 272.504 67.584 256.113 M 0 223.028 C 15.644 224.334 33.733 237.366 42.778 246.411 C 61.044 264.657 57.027 267.181 67.584 289.189 C 53.855 288.049 33.655 273.221 25.523 265.099 C 13.611 253.187 7.64 238.957 0 223.028 M 444.406 289.189 C 454.894 267.328 451.152 264.51 469.212 246.411 C 478.237 237.366 496.376 224.334 512 223.028 C 502.405 243.042 501.286 248.856 485.77 264.392 C 476.499 273.643 460.364 287.863 444.406 289.189 M 57.518 248.925 C 57.518 213.149 40.873 176.332 12.943 169.821 C 12.943 199.086 35.383 243.759 57.518 248.925 M 60.406 211.538 L 60.406 220.161 C 71.572 217.558 85.811 200.922 90.633 191.416 C 94.267 184.227 105.894 157.035 105 146.694 C 103.763 132.238 60.406 172.571 60.406 211.538 M 407.009 145.378 C 407.009 134.958 451.604 168.662 451.604 211.538 L 451.604 220.161 C 430.745 215.299 407.009 172.05 407.009 145.378 M 25.887 116.604 C 25.887 111.654 26.947 111.035 27.321 106.538 C 42.454 116.672 57.518 146.35 57.518 171.264 L 57.518 181.33 L 55.918 194.244 C 43.711 190.964 25.887 157.889 25.887 141.057 Z M 454.472 248.925 C 476.597 243.769 499.057 199.145 499.057 169.821 C 471.127 176.332 454.472 213.149 454.472 248.925 M 454.472 177.009 C 454.472 147.126 466.934 118.42 484.679 106.538 C 485.426 109.759 486.113 109.847 486.113 113.726 L 486.113 141.057 C 486.113 157.85 468.093 191.013 455.915 194.264 L 454.157 178.492 Z M 54.651 119.481 L 54.651 130.991 C 54.651 138.877 60.416 152.9 63.283 158.321 C 72.426 152.183 81.971 121.367 81.971 105.104 L 81.971 86.406 C 81.971 78.903 77.876 69.456 74.783 64.83 C 65.267 71.194 54.651 102.698 54.651 119.481 M 432.906 143.934 C 403.14 143.934 354.637 109.955 349.481 87.84 C 391.905 87.84 417.91 115.582 432.906 143.934 M 430.029 86.406 L 430.029 102.227 C 430.029 120.65 438.523 151.476 448.727 158.321 C 451.584 152.9 457.349 138.877 457.349 130.991 L 457.349 119.481 C 457.349 102.58 445.997 69.829 437.217 63.396 C 434.89 67.776 430.029 79.993 430.029 86.406 M 79.104 143.934 C 88.571 126.041 94.08 116.24 110.736 105.104 C 121.538 97.866 144.665 87.84 162.519 87.84 C 157.393 109.808 108.555 143.934 79.104 143.934 M 109.302 97.906 C 116.166 68.454 141.189 32.982 171.141 26 C 170.395 59.89 138.636 91.08 109.302 97.906 M 398.387 44.698 C 398.387 39.366 400.95 32.521 402.698 28.877 C 416.535 38.138 425.717 64.545 425.717 87.84 L 425.717 97.906 L 424.068 113.707 C 411.291 112.656 398.387 80.376 398.387 64.83 Z M 402.698 97.906 C 396.001 69.151 369.672 32.707 340.849 26 C 341.615 60.018 373.276 91.061 402.698 97.906 M 86.292 92.151 L 87.726 113.726 C 101.17 110.603 113.613 80.818 113.613 63.396 L 113.613 50.443 C 113.613 42.4 111.875 34.239 109.302 28.877 C 96.133 37.696 84.024 68.002 86.292 92.151"/>
</svg>