<?xml version="1.0" encoding="UTF-8" standalone="no"?>
<!-- Created with Inkscape (http://www.inkscape.org/) -->

<svg
   xmlns:dc="http://purl.org/dc/elements/1.1/"
   xmlns:cc="http://creativecommons.org/ns#"
   xmlns:rdf="http://www.w3.org/1999/02/22-rdf-syntax-ns#"
   xmlns:svg="http://www.w3.org/2000/svg"
   xmlns="http://www.w3.org/2000/svg"
   xmlns:sodipodi="http://sodipodi.sourceforge.net/DTD/sodipodi-0.dtd"
   xmlns:inkscape="http://www.inkscape.org/namespaces/inkscape"
   width="512"
   height="512"
   viewBox="0 0 512 512"
   version="1.1"
   id="svg8"
   inkscape:version="0.92.1 r15371"
   sodipodi:docname="Shield.svg">
  <defs
     id="defs2" />
  <sodipodi:namedview
     id="base"
     pagecolor="#ffffff"
     bordercolor="#666666"
     borderopacity="1.0"
     inkscape:pageopacity="0.0"
     inkscape:pageshadow="2"
     inkscape:zoom="1.4"
     inkscape:cx="286.42857"
     inkscape:cy="374.28571"
     inkscape:document-units="mm"
     inkscape:current-layer="layer1"
     showgrid="false"
     showguides="false"
     units="px"
     inkscape:window-width="1920"
     inkscape:window-height="1017"
     inkscape:window-x="-8"
     inkscape:window-y="-8"
     inkscape:window-maximized="1" />
  <metadata
     id="metadata5">
    <rdf:RDF>
      <cc:Work
         rdf:about="">
        <dc:format>image/svg+xml</dc:format>
        <dc:type
           rdf:resource="http://purl.org/dc/dcmitype/StillImage" />
        <dc:title></dc:title>
      </cc:Work>
    </rdf:RDF>
  </metadata>
  <g
     inkscape:label="Layer 1"
     inkscape:groupmode="layer"
     id="layer1"
     transform="translate(0,-161.5333)">
    <path
       style="fill:none;stroke:#000000;stroke-width:7.46188354;stroke-miterlimit:4;stroke-dasharray:none"
       d="m 45.031173,165.26424 v 2.82007 2.82152 c 0.812517,32.72327 -0.226364,65.55328 -0.300221,98.33509 0.01806,7.57296 0.06559,15.14466 0.145738,22.71649 0.268396,16.80093 0.959926,33.58033 2.460093,50.3167 0.510401,3.49603 1.068527,6.98022 1.678924,10.45101 20.79139,111.40753 79.072023,182.69207 138.566593,254.05819 17.55328,20.05935 57.00721,56.42501 68.55314,62.52972 11.54445,-6.10289 51.00074,-42.4697 68.5546,-62.52972 59.50179,-71.37479 117.78762,-142.66821 138.57243,-254.099 0.60923,-3.46647 1.16506,-6.94624 1.67455,-10.43789 1.50258,-16.77321 2.1949,-33.58948 2.46155,-50.42747 0.0773,-7.34061 0.12123,-14.68108 0.13991,-22.02276 -0.0632,-32.96638 -1.11442,-65.9823 -0.29731,-98.89036 v -2.82152 -2.82007 z"
       id="path23"
       inkscape:connector-curvature="0" />
  </g>
</svg>
