<?xml version="1.0" encoding="utf-8"?>
<svg width="512" height="512" xmlns="http://www.w3.org/2000/svg">
  <defs id="symbols">
    <!-- bridge -->
    <symbol id="bridge" width="48" height="48" viewBox="0 0 512 512">
      <title>Bridge</title>
      <path d="M 256,229.88099 0,340.84775 V 511.9201 H 86.650391 A 170,157.20213 0 0 1 256,366.7394 170,157.20213 0 0 1 425.45508,511.9201 H 512 V 340.84775 Z m -8.17969,18.93788 v 39.70931 l -29.35547,12.69218 V 261.5137 Z m 16.40821,0 29.35546,12.69483 v 39.70666 l -29.35546,-12.69218 z m -67.7793,22.21397 v 39.70929 l -29.35547,12.6922 v -39.70667 z m 119.15234,0 29.35352,12.69482 v 39.70667 l -29.35352,-12.6922 z M 145.07617,293.2468 v 39.7093 l -29.35351,12.69218 v -39.70665 z m 221.89649,0 29.35351,12.69483 v 39.70665 L 366.97266,332.9561 Z M 93.705078,315.46075 v 41.56927 l -29.353516,12.69483 v -41.56927 z m 324.638672,0 29.35547,12.69483 v 41.56927 L 418.34375,357.03002 Z M 42.333984,337.67471 v 40.33017 l -29.355468,12.6922 v -40.32754 z m 427.380856,0 29.35547,12.69483 v 40.32754 l -29.35547,-12.6922 z" class="bridge"/>
    </symbol>

    <!-- blob -->
    <symbol id="blob" width="48" height="48" viewBox="0 0 512 512">
      <title>Blob</title>
      <path d="M 354.79503,51.01345 C 298.99659,48.3869 240.80933,98.97237 223.58022,145.96969 207.04325,191.07903 136.06894,202.06331 100.56958,255.9927 65.070209,309.9221 72.692886,378.48184 94.856735,408.46891 125.60488,450.07031 238.28845,478.22185 298.73422,424.07968 359.18,369.93751 341.01459,291.42805 360.31484,234.92002 379.61508,178.41198 415.58737,175.6379 424.19995,132.32598 432.81251,89.01407 410.59345,53.63999 354.79503,51.01345 Z" class="blob"/>
    </symbol>

    <!-- Barrel - CC BY 3.0 - https://game-icons.net/1x1/delapouite/barrel.html -->
    <symbol id="barrel" width="48" height="48" viewBox="0 0 512 512">
      <title>Stockpile</title>
      <path d="M 56.117 382.204 L 65.899 419.843 C 188.785 458.06 332.261 458.105 450.636 420.708 L 460.396 382.64 C 335.299 419.649 191.368 419.618 56.116 382.203 L 56.117 382.204 Z M 52.876 134.646 L 46.366 170.147 C 198.032 206.648 329.411 205.483 463.322 170.309 L 457.447 134.709 C 326.742 168.688 188.389 169.852 52.876 134.646 L 52.876 134.646 Z" class="barrel rings"/>
      <path d="M 72.839 49.077 C 69.497 63.277 64.091 87.025 58.621 114.301 C 78.367 119.42 98.171 123.729 118.002 127.274 C 121.527 106.977 125.915 86.641 131.299 66.264 C 127.54 65.619 123.866 64.951 120.347 64.247 C 102.755 60.731 88.337 56.589 77.435 51.433 C 75.826 50.673 74.301 49.891 72.838 49.075 L 72.839 49.077 Z M 152.436 69.425 C 146.953 89.89 142.506 110.332 138.954 130.756 C 174.425 136.113 209.937 138.977 245.302 139.433 L 245.302 75.454 C 211.272 75.084 179.634 72.938 152.436 69.425 L 152.436 69.425 Z M 359.478 69.416 C 332.264 72.934 300.602 75.083 266.54 75.453 L 266.54 139.401 C 302.981 138.876 339.226 135.803 375.061 130.23 C 370.991 109.778 365.852 89.496 359.478 69.415 L 359.478 69.416 Z M 439.004 49.077 C 437.541 49.891 436.015 50.674 434.408 51.434 C 423.506 56.59 409.085 60.732 391.495 64.248 C 388.038 64.94 384.427 65.595 380.739 66.23 C 386.957 86.234 392 106.385 396.022 126.664 C 415.207 123.145 434.265 118.915 453.158 113.976 C 447.71 86.838 442.332 63.22 439.004 49.077 Z M 466.588 191.489 C 446.589 196.688 426.618 201.134 406.614 204.836 C 410.928 261.003 408.71 317.953 402.426 375.319 C 424.372 370.832 445.841 365.259 466.692 358.6 C 472.541 323.011 471.842 295.689 471.842 253.678 C 471.842 236.08 469.754 214.347 466.588 191.489 L 466.588 191.489 Z M 385.551 208.468 C 346.257 214.692 306.743 217.987 266.54 218.308 L 266.54 389.13 C 305.26 388.925 343.498 385.673 380.566 379.396 C 387.185 321.543 389.677 264.454 385.551 208.469 L 385.551 208.468 Z M 129.629 208.244 C 125.692 264.853 127.705 321.376 133.362 377.928 C 170.591 384.406 208.106 388.066 245.302 388.937 L 245.302 218.21 C 207.551 217.531 169.116 214.222 129.629 208.245 L 129.629 208.244 Z M 45.212 191.791 C 42.074 214.537 40 236.156 40 253.678 C 40 281.752 45.52 321.201 52.299 359.166 C 71.89 364.862 91.691 369.749 111.613 373.817 C 106.265 317.753 104.498 261.436 108.572 204.83 C 87.778 201.216 66.677 196.878 45.212 191.792 L 45.212 191.791 Z M 69.375 443.165 C 73.877 463.158 77.144 476.418 77.285 476.983 C 78.219 479.561 82.823 484.566 92.576 489.219 C 101.528 493.485 114.068 497.415 128.882 500.668 C 126.366 485.842 123.995 470.997 121.783 456.139 C 104.05 452.521 86.546 448.195 69.375 443.165 L 69.375 443.165 Z M 143.884 460.261 C 146.146 475.098 148.568 489.941 151.133 504.791 C 179.023 509.138 211.928 511.573 245.301 512 L 245.301 469.882 C 211.302 469.123 177.268 465.918 143.883 460.261 L 143.884 460.261 Z M 368.714 461.705 C 335.315 466.995 301.019 469.783 266.54 470.046 L 266.54 511.999 C 300 511.571 332.989 509.123 360.925 504.754 C 363.674 490.371 366.279 476.02 368.715 461.703 L 368.714 461.705 Z M 445.014 444.71 C 427.393 449.855 409.317 454.211 390.913 457.791 C 388.545 472.044 386.005 486.311 383.327 500.588 C 397.983 497.349 410.388 493.45 419.266 489.217 C 429.149 484.505 433.781 479.407 434.629 476.86 C 438.475 465.321 441.918 454.661 445.014 444.71 L 445.014 444.71 Z" class="barrel"/>
      <path d="M 161.529 17.698 C 182.382 17.698 199.286 21.925 199.286 27.138 C 199.286 32.351 182.382 36.577 161.529 36.577 C 140.677 36.577 123.773 32.351 123.773 27.138 C 123.773 21.925 140.677 17.698 161.529 17.698 Z M 255.921 0 C 204.364 0 157.659 4.224 124.516 10.852 C 107.942 14.167 94.712 18.162 86.512 22.04 C 82.41 23.979 79.619 25.926 78.394 27.121 L 78.379 27.138 L 78.395 27.154 C 79.62 28.349 82.411 30.296 86.513 32.235 C 94.713 36.113 107.943 40.109 124.517 43.424 C 157.659 50.051 204.363 54.275 255.921 54.275 C 307.479 54.275 354.183 50.051 387.326 43.424 C 403.9 40.108 417.131 36.113 425.331 32.235 C 429.432 30.296 432.224 28.349 433.449 27.154 L 433.464 27.138 L 433.447 27.121 C 432.223 25.926 429.431 23.979 425.33 22.04 C 417.129 18.162 403.899 14.166 387.325 10.852 C 354.183 4.224 307.479 0 255.921 0 Z" class="barrel lid"/>
    </symbol>

    <!-- Castle - "Font Awesome by Dave Gandy - http://fontawesome.io". -->
    <symbol id="castle" width="48" height="48" viewBox="0 0 512 512">
      <title>Stronghold</title>
      <path d="M489.2 287.9h-27.4c-2.6 0-4.6 2-4.6 4.6v32h-36.6V146.2c0-2.6-2-4.6-4.6-4.6h-27.4c-2.6 0-4.6 2-4.6 4.6v32h-36.6v-32c0-2.6-2-4.6-4.6-4.6h-27.4c-2.6 0-4.6 2-4.6 4.6v32h-36.6v-32c0-6-8-4.6-11.7-4.6v-38c8.3-2 17.1-3.4 25.7-3.4 10.9 0 20.9 4.3 31.4 4.3 4.6 0 27.7-1.1 27.7-8v-60c0-2.6-2-4.6-4.6-4.6-5.1 0-15.1 4.3-24 4.3-9.7 0-20.9-4.3-32.6-4.3-8 0-16 1.1-23.7 2.9v-4.9c5.4-2.6 9.1-8.3 9.1-14.3 0-20.7-31.4-20.8-31.4 0 0 6 3.7 11.7 9.1 14.3v111.7c-3.7 0-11.7-1.4-11.7 4.6v32h-36.6v-32c0-2.6-2-4.6-4.6-4.6h-27.4c-2.6 0-4.6 2-4.6 4.6v32H128v-32c0-2.6-2-4.6-4.6-4.6H96c-2.6 0-4.6 2-4.6 4.6v178.3H54.8v-32c0-2.6-2-4.6-4.6-4.6H22.8c-2.6 0-4.6 2-4.6 4.6V512h182.9v-96c0-72.6 109.7-72.6 109.7 0v96h182.9V292.5c.1-2.6-1.9-4.6-4.5-4.6zm-288.1-4.5c0 2.6-2 4.6-4.6 4.6h-27.4c-2.6 0-4.6-2-4.6-4.6v-64c0-2.6 2-4.6 4.6-4.6h27.4c2.6 0 4.6 2 4.6 4.6v64zm146.4 0c0 2.6-2 4.6-4.6 4.6h-27.4c-2.6 0-4.6-2-4.6-4.6v-64c0-2.6 2-4.6 4.6-4.6h27.4c2.6 0 4.6 2 4.6 4.6v64z" class="castle"/>
    </symbol>

    <!-- Crown - "Font Awesome by Dave Gandy - http://fontawesome.io". -->
    <symbol id="crown" width="48" height="48" viewBox="0 0 512 512">
      <title>Palace</title>
      <path d="M 422.4,409.8 H 89.6 c -7.04,0 -12.8,5.76 -12.8,12.8 v 25.6 c 0,7.04 5.76,12.8 12.8,12.8 h 332.8 c 7.04,0 12.8,-5.76 12.8,-12.8 v -25.6 c 0,-7.04 -5.76,-12.8 -12.8,-12.8 z m 51.2,-256 c -21.2,0 -38.4,17.2 -38.4,38.4 0,5.68 1.28,10.96 3.52,15.84 l -57.92,34.72 c -12.32,7.36 -28.24,3.2 -35.36,-9.28 L 280.24,119.4 c 8.56,-7.04 14.16,-17.6 14.16,-29.6 0,-21.2 -17.2,-38.4 -38.4,-38.4 -21.2,0 -38.4,17.2 -38.4,38.4 0,12 5.6,22.56 14.16,29.6 l -65.2,114.08 c -7.12,12.48 -23.12,16.64 -35.36,9.28 L 73.36,208.04 c 2.16,-4.8 3.52,-10.16 3.52,-15.84 0,-21.2 -17.2,-38.4 -38.4,-38.4 C 17.28,153.8 0,171 0,192.2 c 0,21.2 17.2,38.4 38.4,38.4 2.08,0 4.16,-0.32 6.16,-0.64 L 102.4,384.2 h 307.2 l 57.84,-154.24 c 2,0.32 4.08,0.64 6.16,0.64 21.2,0 38.4,-17.2 38.4,-38.4 0,-21.2 -17.2,-38.4 -38.4,-38.4 z" class="crown"/>
    </symbol>

    <!-- Mountain - "Font Awesome by Dave Gandy - http://fontawesome.io". -->
    <symbol id="mountain" width="48" height="48" viewBox="0 0 512 512">
      <title>Mountain</title>
      <path d="M 507.93637,420.55992 277.53592,62.15922 c -4.71201,-7.32802 -12.82403,-11.76003 -21.53604,-11.76003 -8.71202,0 -16.82404,4.43201 -21.53605,11.76003 L 4.0633806,420.55992 A 25.60085,25.60085 0 0 0 3.1273787,446.67197 25.60325,25.60325 0 0 0 25.599423,460 H 486.40033 c 9.36802,0 17.98404,-5.11201 22.47204,-13.33603 a 25.58645,25.58645 0 0 0 -0.936,-26.10405 z M 255.99988,123.34334 324.31201,229.59955 h -68.31213 l -51.2001,51.2001 -30.44806,-30.44806 z" class="mountain"/>
    </symbol>

    <!-- Gold - "Font Awesome by Dave Gandy - http://fontawesome.io". -->
    <symbol id="gold" width="48" height="48" viewBox="0 0 512 512">
      <title>Gold</title>
      <path d="M 192 160 C 86 160 0 195.8 0 240 C 0 284.2 86 320 192 320 C 298 320 384 284.2 384 240 C 384 195.8 298 160 192 160 Z M 320 128 C 426 128 512 99.3 512 64 C 512 28.7 426 0 320 0 C 214 0 128 28.7 128 64 C 128 99.3 214 128 320 128 Z" class="gold top"/>
      <path d="M 416 311.4 C 473.3 300.3 512 279.7 512 256 L 512 213.3 C 488.8 229.7 454.7 240.9 416 247.8 L 416 311.4 Z M 411.3 216.3 C 471.3 205.5 512 184.3 512 160 L 512 117.3 C 476.5 142.4 415.5 155.9 351.3 159.1 C 380.8 173.4 402.5 192.6 411.3 216.3 Z M 0 300.4 L 0 352 C 0 387.3 86 416 192 416 C 298 416 384 387.3 384 352 L 384 300.4 C 342.7 334.4 267.1 352 192 352 C 116.9 352 41.3 334.4 0 300.4 Z M 0 405.3 L 0 448 C 0 483.3 86 512 192 512 C 298 512 384 483.3 384 448 L 384 405.3 C 342.7 434.4 267.2 448 192 448 C 116.8 448 41.3 434.4 0 405.3 Z" class="gold"/>
    </symbol>

    <!-- Iron - CC BY 3.0 - https://upload.wikimedia.org/wikipedia/commons/3/32/Noun_project_-_Anvil.svg -->
    <symbol id="iron" width="48" height="48" viewBox="0 0 512 512">
      <title>Iron</title>
      <path d="m 512,194.35457 -53.11156,45.25328 h -15.22579 c -25.88931,0 -49.07033,14.39574 -51.3545,38.86122 -0.006,1.41171 -0.006,-0.35141 -0.006,1.04818 0,17.51603 8.67622,32.98418 21.95108,42.40563 l 57.62537,29.33071 c 4.03517,4.72588 3.6777,8.57322 3.6777,8.57322 V 389 h -63.52666 l -9.77892,-10.3121 H 236.60271 L 226.82379,389 h -63.53272 v -29.17319 c 0,0 -0.35141,-3.84734 3.6777,-8.57322 l 54.4142,-29.47612 h 0.0121 c 11.94192,-6.79193 20.01832,-19.5942 20.01832,-34.31106 0,-27.27678 -24.28373,-39.7337 -51.55444,-39.7337 l -24.96837,-0.006 -0.0242,-13.08098 C 27.2586,233.25821 0.8967,155.72964 0.8967,155.72964 0.32718,154.88746 0,153.87564 0,152.79111 0,149.88288 2.35688,147.526 5.26511,147.526 c 0.24235,0 55.59567,0.21812 55.59567,0.21812 h 65.10194 v -8.99128 l 39.66099,0.0121 V 122.50309 L 512,122.65456 Z" class="iron"/>
    </symbol>

    <!-- Silver - Public Domain - https://svgsilh.com/image/3105741.html -->
    <symbol id="silver" width="48" height="48" viewBox="0 0 512 512">
      <title>Silver</title>
      <path d="m 214.24964,0.18008245 c -34.97999,0.4187918 -51.31043,1.16331075 -78.51171,3.48993225 -9.51804,0.8375837 -14.30121,1.395973 -14.92931,1.8612973 -0.53146,0.3722594 -1.44944,0.6514538 -2.02922,0.6514538 -1.54608,0 -10.6776,2.698881 -13.6248,4.0483212 -1.40114,0.604922 -2.8989,1.675168 -3.33373,2.326621 -0.77304,1.116779 -0.77304,1.442506 0,5.072035 0.48315,2.140492 1.15955,8.655033 1.54607,14.471587 0.38652,5.863087 1.06293,13.959727 1.44945,18.054582 0.43484,4.094853 0.9663,10.469797 1.20787,14.192389 0.72473,10.190602 1.9326,16.612079 5.84611,31.874715 10.14613,39.552554 37.83056,83.711844 68.07569,108.699754 8.69668,7.166 23.09453,17.40314 33.33728,23.68501 l 6.52252,4.00179 0.14494,6.04922 0.14495,6.09575 -2.31913,0.93063 c -5.41127,2.18704 -11.83714,8.18971 -15.07425,14.14587 -3.96181,7.07292 -3.81687,16.70514 0.24158,24.19686 3.43035,6.23534 6.37757,9.30648 13.38323,13.82013 l 3.2371,2.09396 v 6.14228 6.09574 l 1.44945,1.44251 1.49776,1.44251 -1.49776,5.72348 c -5.41127,20.61387 -16.13718,40.90201 -32.66088,61.84161 -3.72024,4.74631 -6.66745,7.77092 -11.88546,12.37762 -18.06978,15.96061 -24.83386,21.07919 -31.35637,23.68501 -8.16522,3.3038 -9.51804,4.23445 -16.62033,11.16778 -9.85624,9.72528 -14.49447,13.58746 -17.97314,15.12304 -5.65284,2.46622 -12.416929,6.65413 -15.412453,9.49263 -3.285413,3.11767 -4.396656,5.53734 -4.976434,11.30737 -0.38652,3.25727 0.144944,10.93511 0.966297,13.82014 0.773039,2.79193 4.831491,6.37493 12.27198,10.79551 7.29556,4.37404 13.33492,6.84026 22.80464,9.44609 19.03607,5.1651 38.31371,8.0501 64.16218,9.58567 56.48013,3.30381 84.9376,3.39688 130.9817,0.4188 28.16759,-1.76823 55.65877,-6.09575 70.15324,-10.93512 5.55619,-1.8613 11.78882,-5.21164 18.11808,-9.72528 6.03936,-4.32753 8.88994,-6.93333 9.80792,-9.07383 1.20788,-2.79195 1.73933,-7.72438 1.15956,-10.84205 -0.24158,-1.58211 -0.72473,-4.18792 -1.01461,-5.81655 -1.44946,-8.28278 -6.86072,-13.4944 -19.18102,-18.33379 l -5.65284,-2.187 -9.46971,-9.12038 c -10.09782,-9.72527 -11.20907,-10.46979 -20.05069,-14.09931 -4.68656,-1.8613 -6.8124,-3.25728 -14.59111,-9.3065 -20.1473,-15.72796 -26.86307,-22.10289 -35.46314,-33.73602 -8.40677,-11.40043 -10.19443,-14.14585 -14.88097,-23.12659 -5.1697,-9.81835 -7.77872,-16.79823 -11.16075,-29.87385 -1.98091,-7.67783 -2.02923,-8.05009 -1.20787,-8.93421 0.72472,-0.74452 0.82135,-1.81476 0.72472,-8.23625 -0.0483,-4.04831 0.0966,-7.39865 0.33821,-7.49171 0.24157,-0.0931 2.27079,-1.11677 4.54159,-2.37316 6.7641,-3.62953 11.78884,-9.39955 13.9147,-15.91408 1.11125,-3.53647 1.11125,-13.44788 -0.0483,-17.68232 -1.54608,-5.5839 -5.99103,-10.65594 -13.23828,-15.16957 l -4.05845,-2.51275 0.3382,-5.95616 c 0.14495,-3.25727 0.43483,-6.04922 0.62809,-6.18881 0.14494,-0.18613 1.49777,-0.65146 2.8989,-1.11678 2.94721,-0.93065 6.90903,-3.25727 17.44168,-10.1906 23.43273,-15.4953 37.54067,-28.05906 54.98236,-49.13824 9.13151,-10.98167 13.81805,-18.14766 24.15744,-36.62104 8.4551,-15.12303 9.95287,-18.14765 12.41693,-24.84832 4.83149,-13.354793 8.98657,-29.780741 10.38769,-41.134655 0.53147,-4.094852 1.35283,-9.771809 1.93261,-12.563755 0.53146,-2.838478 1.40113,-10.237133 1.9326,-16.519012 1.44944,-17.542726 1.25618,-16.519012 3.18878,-17.914984 2.02923,-1.489038 2.17417,-3.164206 0.43484,-5.816556 C 417.80035,12.790372 404.46543,9.3004387 378.66529,6.4154281 331.55827,1.1572637 284.49954,-0.61096877 214.24968,0.18008245 Z" class="silver"/>
    </symbol>

    <!-- gems - "Font Awesome by Dave Gandy - http://fontawesome.io". -->
    <symbol id="gems" width="48" height="48" viewBox="0 0 512 512">
      <title>Gems</title>
      <path d="M 431.55556,28.888891 512,171.11111 H 422.13333 L 360.62222,28.888891 Z m -113.77778,0 61.51111,142.222219 H 132.71111 L 194.22222,28.888891 Z m -237.333336,0 H 151.37778 L 89.866667,171.11111 H 0 Z M 0,199.55556 H 89.511111 L 198.84444,423.28889 c 1.33334,2.75555 -2.4,5.24444 -4.44444,2.93333 z m 131.73333,0 H 380.26667 L 258.48889,482.4 c -0.88889,2.13333 -4,2.13333 -4.88889,0 z M 313.15556,423.28889 422.48889,199.55556 H 512 L 317.6,426.13333 c -2.04444,2.4 -5.77778,-0.0889 -4.44444,-2.84444 z" class="gems"/>
    </symbol>

    <!-- oil - CC Attribution - Genie Lamp by Phil Goodwin from the Noun Project https://thenounproject.com/term/genie-lamp/7334/. -->
    <symbol id="oil" width="48" height="48" viewBox="0 0 512 512">
      <title>Oil</title>
      <path d="m 511.42686,204.18896 c -3.02609,-3.32813 -13.68865,-2.89502 -23.35391,-3.89232 -5.90971,-0.59838 -8.40581,-4.99219 -14.61186,-4.56478 -43.19733,5.32843 -44.32276,29.8881 -95.25913,27.05007 -22.23694,-1.24235 -40.16993,-6.37086 -59.04454,-18.49233 -1.71536,-1.08848 -3.33953,-2.15986 -4.94661,-3.19705 l -0.4616,-6.20606 c 0,0 -9.23215,-1.32213 -11.4889,-3.27114 -2.42201,-2.11428 -3.92651,-8.87882 -5.73305,-11.48889 -4.60467,-6.63347 -5.88691,-3.70996 -25.41119,-10.65117 -9.15236,-3.25404 -8.58248,-8.87881 -29.21804,-10.31492 v -7.92711 c 7.03809,-3.56179 11.84793,-10.83923 11.84793,-19.22224 0,-11.91061 -9.64817,-21.54737 -21.56447,-21.54737 -11.89921,0 -21.55308,9.63676 -21.55308,21.54737 0,8.38301 4.82693,15.66045 11.83083,19.22224 v 7.92711 c -20.61846,1.43611 -20.03718,7.06088 -29.20664,10.31492 -19.51858,6.94121 -20.80652,4.0177 -25.40549,10.65117 -1.80084,2.61007 -3.31674,9.37461 -5.73305,11.48889 -2.27385,1.94901 -11.4775,3.27114 -11.4775,3.27114 l -0.78644,10.36622 c -9.80773,1.0201 -24.00358,2.61577 -22.93789,4.10887 -14.9367,-20.83501 1.03149,-45.40278 -20.02008,-62.78429 -10.451705,-8.63946 -28.915997,-7.24894 -50.355089,-5.59057 -26.704838,2.06868 -52.2699039,-9.9787 -56.03114857,18.57257 -5.71595213,43.55065 38.41028657,54.50955 61.38237157,71.09892 -3.242649,9.38601 3.054586,14.75434 6.661962,20.17395 -0.951709,9.00419 -6.029389,13.68865 -4.655965,21.84371 3.225552,19.11396 31.281018,15.98529 42.291209,3.68146 -5.65327,6.32573 34.47807,55.11933 60.36228,66.90457 3.53899,1.60137 7.30023,3.04888 11.24954,4.35962 -4.76994,1.57858 -8.5027,0.92321 -8.5027,0.92321 -4.4622,0 -0.76934,12.21265 -4.58188,16.03089 -3.48769,3.49339 -8.33172,2.4619 -13.32392,2.37072 -0.46731,0 -1.44181,0.25645 -1.95471,0.67816 -4.4508,3.63587 -3.03749,9.16946 -3.03749,22.14576 9.27204,10.69675 76.47295,12.07017 85.30047,12.20694 V 402 c 0,0 0.16527,0 0.47871,-0.0228 0.30774,0.0228 0.4901,0.0228 0.4901,0.0228 v -0.0228 c 8.84462,-0.13107 76.05123,-1.51019 85.30617,-12.20694 0,-12.9706 1.39052,-18.50989 -3.03749,-22.14576 -0.53569,-0.42171 -1.4988,-0.67816 -1.97751,-0.67816 -4.98649,0.0912 -9.82482,1.12267 -13.32392,-2.37072 -3.81253,-3.82394 -0.12537,-16.03089 -4.55339,-16.03089 0,0 -4.15446,0.74655 -9.27773,-1.20245 23.42229,-7.19196 44.73601,-18.48139 68.10132,-31.48618 32.32714,-22.70265 49.29408,-32.47031 72.63433,-53.20417 19.72471,-16.39744 41.69757,-34.19724 64.20805,-38.16934 7.9556,-1.37343 14.46939,-2.10288 20.03147,-8.69076 1.66977,-3.74985 1.36203,-7.57378 0.64967,-11.60287 z M 93.345966,221.20381 C 79.606026,216.30849 72.157621,201.46867 60.138735,193.17114 52.30851,187.80851 39.21254,184.08716 39.810919,172.51848 c 3.003297,-1.88632 5.824231,-2.72975 8.656562,-3.04888 5.767242,-0.62118 11.59147,1.03149 19.113959,1.23095 0.461608,0 0.928914,0.0285 1.407618,0.0285 9.91031,0.70666 14.144559,-2.11997 20.9148,1.70396 9.585475,10.26934 1.977503,32.52907 3.442108,48.77081 z" class="oil"/>
    </symbol>

    <!-- lumber - "Font Awesome by Dave Gandy - http://fontawesome.io". -->
    <symbol id="lumber" width="48" height="48" viewBox="0 0 512 512">
      <title>Lumber</title>
      <path d="M 425.58934999999997 342.78207000000003 L 353.06012999999996 260.6295 L 380.86798999999996 260.6295 C 389.04783999999995 260.6295 396.28351 256.09018000000003 399.73339999999996 248.77280000000002 C 403.18327999999997 241.47358000000003 402.04844999999995 233.10308 396.75559999999996 226.93868000000003 L 325.82422999999994 144.42297000000002 L 352.0523999999999 144.42297000000002 C 360.3139599999999 144.42297000000002 367.7584399999999 139.56590000000003 370.9904399999999 132.06695000000002 C 374.1861199999999 124.68602000000001 372.67905999999994 116.09763000000002 367.14109999999994 110.20560000000002 L 267.03099 3.549793 C 261.55656999999997 -2.3059260000000004 251.34310999999997 -2.3059260000000004 245.85960999999998 3.549793 L 145.74042 110.2056 C 140.20246 116.09763000000001 138.70448 124.68602 141.89108 132.06695000000002 C 145.12308 139.56590000000003 152.57663 144.42297000000002 160.83819 144.42297000000002 L 187.06637 144.42297000000002 L 116.12592000000001 226.95684 C 110.85123000000002 233.11216 109.71640000000001 241.47358 113.1572 248.78188 C 116.60708 256.09018 123.83368 260.6295 132.0226 260.6295 L 159.83046000000002 260.6295 L 87.30125000000001 342.78207 C 81.85406900000001 348.94646 80.61937400000001 357.38959 84.06925600000001 364.80683 C 87.47374400000001 372.11514 94.96361800000001 376.83603 103.14347000000001 376.83603 L 227.39367000000001 376.83603 L 227.39367000000001 399.03328999999997 L 199.89448000000002 442.97387999999995 C 195.06465 452.63355 202.09151 464 212.88601 464 L 300.00459 464 C 310.79909 464 317.82595000000003 452.63355 312.99612 442.97388 L 285.49693 399.03329 L 285.49693 376.83603000000005 L 409.74713 376.83603000000005 C 417.92698 376.83603000000005 425.41685 372.11514000000005 428.82134 364.80683000000005 C 432.27122 357.38959000000006 431.03653 348.94646000000006 425.58935 342.78207000000003 L 425.58934999999997 342.78207000000003 Z" class="lumber"/>
      <path d="M 363.547 36.578 C 360.206 36.578 356.862 37.827 354.527 40.32 L 336.244 59.797 C 345.509 69.848 354.794 79.883 364.258 89.74 C 374.49 98.474 384.546 109.797 384.596 124.082 C 385.691 141.716 369.232 156.036 352.387 156.771 C 366.541 173.792 381.262 190.371 395.641 207.15 C 405.07 216.063 414.094 227.498 413.613 241.23 C 414.083 258.978 397.153 272.627 380.283 273.047 C 397.551 293.416 415.702 313.016 433.041 333.324 C 440.377 339.645 443.216 349.021 442.436 358.248 L 494.111 358.248 C 501.078 358.248 507.456 354.226 510.355 348.002 C 513.294 341.685 512.243 334.494 507.604 329.244 L 445.83 259.275 L 469.516 259.275 C 476.482 259.275 482.644 255.408 485.582 249.176 C 488.52 242.959 487.553 235.83 483.045 230.58 L 422.635 160.301 L 444.973 160.301 C 452.009 160.301 458.349 156.164 461.102 149.777 C 463.823 143.491 462.541 136.176 457.824 131.158 L 372.561 40.32 C 370.229 37.827 366.888 36.578 363.547 36.578 Z M 148.453 36.578 C 145.112 36.578 141.771 37.827 139.439 40.32 L 54.176 131.158 C 49.459 136.176 48.177 143.491 50.898 149.777 C 53.651 156.164 59.991 160.301 67.027 160.301 L 89.365 160.301 L 28.955 230.58 C 24.447 235.83 23.48 242.959 26.418 249.176 C 29.356 255.408 35.518 259.275 42.484 259.275 L 66.17 259.275 L 4.396 329.244 C -0.24300000000000002 334.494 -1.294 341.685 1.645 348.002 C 4.5440000000000005 354.226 10.922 358.248 17.889 358.248 L 70.08 358.248 C 69.726 354.416 70.09 350.518 71.342 346.742 C 88.372 319.473 112.437 297.573 133.021 273.066 C 111.825 274.144 93.929 251.073 100.352 230.869 C 117.059 203.591 140.53 181.392 160.902 156.791 C 138.811 157.558 121.505 131.68 130.535 111.605 C 144.649 93.529 160.202 76.691 176.039 60.098 L 157.473 40.32 C 155.138 37.827 151.794 36.578 148.453 36.578 L 148.453 36.578 Z M 121.673 383.481 C 139.536 383.657 157.406 383.609 175.278 383.543 L 196.62 417.646 C 200.733 425.873 194.749 435.553 185.555 435.553 L 111.357 435.553 C 102.163 435.553 96.179 425.873 100.292 417.646 L 121.673 383.481 Z M 390.327 383.481 C 372.464 383.657 354.594 383.609 336.722 383.543 L 315.38 417.646 C 311.267 425.873 317.251 435.553 326.445 435.553 L 400.643 435.553 C 409.837 435.553 415.821 425.873 411.708 417.646 L 390.327 383.481 Z" class="lumber dark"/>
    </symbol>

    <!-- spices - "Font Awesome by Dave Gandy - http://fontawesome.io". -->
    <symbol id="spices" width="48" height="48" viewBox="0 0 512 512">
      <title>Spices</title>
      <path d="M501.54 60.91c17.22-17.22 12.51-46.25-9.27-57.14a35.696 35.696 0 0 0-37.37 3.37L251.09 160h151.37l99.08-99.09zM496 192H16c-8.84 0-16 7.16-16 16v32c0 8.84 7.16 16 16 16h16c0 80.98 50.2 150.11 121.13 178.32-12.76 16.87-21.72 36.8-24.95 58.69-1.46 9.92 6.04 18.98 16.07 18.98h223.5c10.03 0 17.53-9.06 16.07-18.98-3.22-21.89-12.18-41.82-24.95-58.69C429.8 406.11 480 336.98 480 256h16c8.84 0 16-7.16 16-16v-32c0-8.84-7.16-16-16-16z" class="spices"/>
    </symbol>

    <!-- wine - Creative Commons Attribution - https://thenounproject.com/search/?q=grapes&i=1391991 -->
    <symbol id="wine" width="48" height="48" viewBox="0 0 512 512">
      <title>Wine</title>
      <path d="M 274.502 140.308 C 267.118 125.538 254.81 120.615 240.041 120.615 C 252.348 147.692 225.271 167.385 203.118 172.308 C 180.964 174.769 153.887 137.846 217.887 113.231 C 190.81 91.077 163.733 93.538 151.425 113.231 C 131.733 137.846 134.195 160 116.964 187.077 C 102.195 209.231 89.887 201.846 72.656 182.154 C 67.733 174.769 75.118 182.154 77.579 182.154 C 82.502 189.538 94.81 194.462 102.195 189.538 C 124.348 174.769 124.348 123.077 146.502 98.462 C 171.118 71.385 215.425 96 230.195 108.308 C 249.887 105.846 262.195 110.769 272.041 120.615 C 272.041 125.538 274.502 132.923 274.502 140.308 Z M 227.733 123.077 C 212.964 125.538 200.656 132.923 195.733 140.308 C 183.425 157.538 200.656 172.308 222.81 152.615 C 232.656 142.769 232.656 132.923 227.733 123.077 L 227.733 123.077 Z M 281.887 152.615 C 380.348 157.538 385.271 113.231 404.964 0 C 289.271 44.308 262.195 59.077 281.887 152.615 L 281.887 152.615 Z" class="wine stem"/>
      <path d="M 195.733 280.615 C 195.733 299.648 180.304 315.077 161.271 315.077 C 142.239 315.077 126.81 299.648 126.81 280.615 C 126.81 261.583 142.239 246.154 161.271 246.154 C 180.304 246.154 195.733 261.583 195.733 280.615 Z M 276.964 280.615 C 276.964 299.648 261.535 315.077 242.502 315.077 C 223.47 315.077 208.041 299.648 208.041 280.615 C 208.041 261.583 223.47 246.154 242.502 246.154 C 261.535 246.154 276.964 261.583 276.964 280.615 Z M 360.656 280.615 C 360.656 299.648 345.227 315.077 326.195 315.077 C 307.162 315.077 291.733 299.648 291.733 280.615 C 291.733 261.583 307.162 246.154 326.195 246.154 C 345.227 246.154 360.656 261.583 360.656 280.615 Z M 441.887 280.615 C 441.887 299.648 426.458 315.077 407.425 315.077 C 388.393 315.077 372.964 299.648 372.964 280.615 C 372.964 261.583 388.393 246.154 407.425 246.154 C 426.458 246.154 441.887 261.583 441.887 280.615 Z M 237.579 344.615 C 237.579 363.648 222.15 379.077 203.118 379.077 C 184.085 379.077 168.656 363.648 168.656 344.615 C 168.656 325.583 184.085 310.154 203.118 310.154 C 222.15 310.154 237.579 325.583 237.579 344.615 Z M 318.81 344.615 C 318.81 363.648 303.381 379.077 284.348 379.077 C 265.316 379.077 249.887 363.648 249.887 344.615 C 249.887 325.583 265.316 310.154 284.348 310.154 C 303.381 310.154 318.81 325.583 318.81 344.615 Z M 400.041 344.615 C 400.041 363.648 384.612 379.077 365.579 379.077 C 346.547 379.077 331.118 363.648 331.118 344.615 C 331.118 325.583 346.547 310.154 365.579 310.154 C 384.612 310.154 400.041 325.583 400.041 344.615 Z M 276.964 413.538 C 276.964 432.571 261.535 448 242.502 448 C 223.47 448 208.041 432.571 208.041 413.538 C 208.041 394.506 223.47 379.077 242.502 379.077 C 261.535 379.077 276.964 394.506 276.964 413.538 L 276.964 413.538 Z M 360.656 413.538 C 360.656 432.571 345.227 448 326.195 448 C 307.162 448 291.733 432.571 291.733 413.538 C 291.733 394.506 307.162 379.077 326.195 379.077 C 345.227 379.077 360.656 394.506 360.656 413.538 L 360.656 413.538 Z M 318.81 477.538 C 318.81 496.571 303.381 512 284.348 512 C 265.316 512 249.887 496.571 249.887 477.538 C 249.887 458.506 265.316 443.077 284.348 443.077 C 303.381 443.077 318.81 458.506 318.81 477.538 Z M 237.579 211.692 C 237.579 230.725 222.15 246.154 203.118 246.154 C 184.085 246.154 168.656 230.725 168.656 211.692 C 168.656 192.66 184.085 177.231 203.118 177.231 C 222.15 177.231 237.579 192.66 237.579 211.692 Z M 400.041 211.692 C 400.041 230.725 384.612 246.154 365.579 246.154 C 346.547 246.154 331.118 230.725 331.118 211.692 C 331.118 192.66 346.547 177.231 365.579 177.231 C 384.612 177.231 400.041 192.66 400.041 211.692 Z M 318.81 211.692 C 318.81 230.725 303.381 246.154 284.348 246.154 C 265.316 246.154 249.887 230.725 249.887 211.692 C 249.887 192.66 265.316 177.231 284.348 177.231 C 303.381 177.231 318.81 192.66 318.81 211.692 Z" class="wine"/>
    </symbol>

    <!-- pearls - Creative Commons Attribution - https://thenounproject.com/search/?q=scallop&i=2092485 -->
    <symbol id="pearls" width="48" height="48" viewBox="0 0 512 512">
      <title>Pearls</title>
      <path d="m 256,467.11643 c -38.9364,0 -76.26159,-13.02949 -86.03753,-23.9268 -8.83169,11.81285 -14.40127,24.72324 -9.17922,37.65685 7.9925,19.81389 37.36123,28.65352 95.21858,28.65352 57.85735,0 87.22425,-8.83963 95.21858,-28.65352 5.22206,-12.93361 -0.34752,-25.844 -9.17921,-37.65685 -9.77961,10.89975 -47.1048,23.9268 -86.0412,23.9268 z M 3.5266217,278.19581 A 45.150342,45.150342 0 0 0 4.1807533,314.6641 C 13.986618,339.2377 77.350645,392.55155 134.3572,420.54545 83.04788,373.21161 21.364683,313.15245 3.5266217,278.19581 Z M 165.1252,425.88966 C 97.37464,330.85492 34.596953,231.34937 16.881042,178.50275 8.0163703,187.65693 -2.8430676,202.10401 2.2947046,223.62255 13.220105,269.38183 103.30824,371.1747 165.1252,425.88966 Z m 25.21735,3.81729 C 165.64923,379.74621 118.36304,237.818 101.61459,175.3463 94.8198,149.99947 82.819453,104.57917 92.538589,66.723832 a 62.25304,62.25304 0 0 0 -32.102526,9.683711 c -12.59707,7.264463 -29.488443,19.932993 -30.82419,45.926017 -1.192828,22.90376 11.563652,52.0404 33.830386,95.14529 a 1928.5714,1928.5714 0 0 0 126.900291,212.2281 z m 26.72105,3.8173 C 188.81624,324.35086 175.83683,231.34937 175.83683,147.67062 c 0,-50.10427 5.60379,-88.60825 16.13097,-116.682767 a 62.909004,62.909004 0 0 0 -33.14144,0.996161 c -47.2123,12.656314 -56.63887,51.079668 -33.61601,137.039626 14.97295,55.85587 65.96345,212.12794 91.85325,264.50061 z M 256,439.63192 C 300.49071,411.43525 311.73799,184.05401 311.73799,147.67062 311.73799,27.033137 281.42196,1.7082925 256,1.7082925 c -25.42195,0 -55.73799,25.3248445 -55.73799,145.9623275 0,36.38339 11.24728,263.76463 55.73799,291.9613 z M 508.47338,278.19581 c -17.83806,34.95664 -79.52187,95.0158 -130.82935,142.34964 57.00533,-27.9939 120.37057,-81.30775 130.17522,-105.88135 a 45.150342,45.150342 0 0 0 0.65413,-36.46829 z m 1.23192,-54.57326 c 5.13838,-21.51854 -5.72167,-35.96562 -14.58634,-45.1198 -17.71591,52.84662 -80.4936,152.35217 -148.24415,247.38691 C 408.69176,371.1747 498.7799,269.38183 509.7053,223.62255 Z M 321.65746,429.70695 A 1928.5714,1928.5714 0 0 0 448.55713,217.47824 c 22.26674,-43.10489 35.02322,-72.24153 33.83039,-95.14529 C 481.05177,96.339925 464.1604,83.671395 451.56333,76.406932 A 62.25304,62.25304 0 0 0 419.4608,66.723221 c 9.71914,37.855339 -2.28121,83.277469 -9.076,108.622469 -16.74845,62.47109 -64.03464,204.40296 -88.72734,254.36126 z m -26.72106,3.8173 c 25.8898,-52.37267 76.8803,-208.64474 91.85264,-264.50061 23.02592,-85.959958 13.59873,-124.383312 -33.616,-137.039626 a 62.909004,62.909004 0 0 0 -33.14145,-0.996161 c 10.52719,28.074517 16.13097,66.578497 16.13097,116.682767 0,83.67875 -12.97819,176.68024 -41.22616,285.85363 z" class="pearls"/>
    </symbol>

    <!-- furs - Public Domain - https://freesvg.org/1277657138 -->
    <symbol id="furs" width="48" height="48" viewBox="0 0 512 512">
      <title>Furs</title>
      <path d="M 232.21877,0.82491649 A 70.560674,105.83968 60 0 1 59.341803,51.980406 L 24.072087,97.848166 A 211.68202,264.5992 60 0 1 17.016152,429.4767 l 14.112136,42.33643 a 176.39505,176.39505 0 0 1 225.794152,38.8076 176.39505,176.39505 0 0 1 225.79416,-38.8076 L 496.82874,429.4767 A 264.5992,211.68202 30 0 1 489.76603,97.901266 l -35.2737,-45.85448 A 105.83968,70.560674 30 0 1 281.61536,0.88199649 h -49.39247" class="furs"/>
    </symbol>

    <!-- fabric - CC Attribution - https://thenounproject.com/search/?q=fabric&i=2201011 -->
    <symbol id="textiles" width="48" height="48" viewBox="0 0 512 512">
      <title>Textiles</title>
      <path d="m 510.74838,179.04785 c -1.88871,-3.584 -5.60355,-5.83111 -9.65404,-5.83111 H 364.06609 c -1.36533,3.03218 -2.91271,5.99609 -4.68196,8.84622 -0.58026,1.09227 -1.2288,2.16178 -1.93422,3.1744 l -156.99625,228.10166 -0.0569,-0.33564 c -2.75912,3.94809 -5.86525,7.64018 -9.30134,10.99662 h 152.39963 c 3.58969,0 6.94613,-1.76356 8.98275,-4.72178 L 510.07709,190.30047 c 2.29831,-3.33369 2.55431,-7.66862 0.67129,-11.25262 z M 137.75643,314.85868 H 54.573504 C 24.479286,314.85868 0,339.34365 0,369.43218 0,399.52071 24.479286,424 54.573504,424 h 83.188616 c 30.09422,0 54.5735,-24.47929 54.5735,-54.56782 0,-30.08853 -24.48497,-54.5735 -54.57919,-54.5735 z m -1.45067,65.52461 H 54.522304 c -6.024532,0 -10.905598,-4.88106 -10.905598,-10.90559 0,-6.02454 4.881066,-10.9056 10.905598,-10.9056 h 81.783456 c 6.02453,0 10.9056,4.88106 10.9056,10.9056 0,6.02453 -4.88107,10.90559 -10.9056,10.90559 z M 294.39428,87.37711 h -83.18862 c -18.24426,0 -35.20284,9.0624 -45.28355,24.12657 L 39.981506,294.48108 c 4.727466,-0.91591 9.597155,-1.4336 14.58631,-1.4336 h 83.188614 c 37.76284,0 69.11999,27.56835 75.22417,63.61884 L 339.51854,172.82421 c 0.33564,-0.48356 0.62577,-0.99556 0.8704,-1.52462 5.61493,-8.77227 8.57315,-18.88711 8.57315,-29.36036 0,-30.08853 -24.47929,-54.56212 -54.56781,-54.56212 z" class="textiles"/>
    </symbol>
  </defs>
</svg>