<svg
   xmlns="http://www.w3.org/2000/svg"
   width="512"
   height="512"
   viewBox="0 0 512 512" >

  <symbol id="bridge" width="512" height="512" viewBox="0 0 512 512">
  <title>bridge</title> 
  <desc>bridge</desc>
  <path
     d="M 256,229.88099 0,340.84775 V 511.9201 H 86.650391 A 170,157.20213 0 0 1 256,366.7394 170,157.20213 0 0 1 425.45508,511.9201 H 512 V 340.84775 Z m -8.17969,18.93788 v 39.70931 l -29.35547,12.69218 V 261.5137 Z m 16.40821,0 29.35546,12.69483 v 39.70666 l -29.35546,-12.69218 z m -67.7793,22.21397 v 39.70929 l -29.35547,12.6922 v -39.70667 z m 119.15234,0 29.35352,12.69482 v 39.70667 l -29.35352,-12.6922 z M 145.07617,293.2468 v 39.7093 l -29.35351,12.69218 v -39.70665 z m 221.89649,0 29.35351,12.69483 v 39.70665 L 366.97266,332.9561 Z M 93.705078,315.46075 v 41.56927 l -29.353516,12.69483 v -41.56927 z m 324.638672,0 29.35547,12.69483 v 41.56927 L 418.34375,357.03002 Z M 42.333984,337.67471 v 40.33017 l -29.355468,12.6922 v -40.32754 z m 427.380856,0 29.35547,12.69483 v 40.32754 l -29.35547,-12.6922 z"
     id="path63" />
  </symbol>
  <use href="#bridge" />
</svg>
