<?xml version="1.0" encoding="utf-8"?>
<svg width="219.77962" height="179.39005" id="svg72355" version="1.1" xmlns="http://www.w3.org/2000/svg">
  <path d="M 132.064 97.701 C 129.544 100.263 128.114 103.503 128.114 107.398 C 128.114 111.293 129.544 114.532 132.064 117.094 C 134.582 119.653 137.75 121.098 141.569 121.098 C 145.388 121.098 148.557 119.653 151.075 117.094 C 153.595 114.533 155.024 111.293 155.024 107.398 C 155.024 103.503 153.595 100.263 151.075 97.701 C 148.557 95.142 145.388 93.697 141.569 93.697 C 137.75 93.697 134.582 95.142 132.064 97.701 Z M 194.818 101.329 C 192.298 103.89 190.869 107.13 190.869 111.025 C 190.869 114.92 192.298 118.16 194.818 120.721 C 197.336 123.28 200.505 124.725 204.324 124.725 C 208.143 124.725 211.312 123.28 213.829 120.721 C 216.349 118.16 217.779 114.92 217.779 111.025 C 217.779 107.13 216.349 103.89 213.829 101.329 C 211.312 98.77 208.143 97.325 204.324 97.325 C 200.505 97.325 197.336 98.77 194.818 101.329 Z M 87.716 97.701 C 85.198 95.142 82.03 93.697 78.211 93.697 C 74.392 93.697 71.223 95.142 68.705 97.701 C 66.185 100.262 64.756 103.502 64.756 107.397 C 64.756 111.292 66.185 114.532 68.705 117.094 C 71.223 119.653 74.392 121.098 78.211 121.098 C 82.03 121.098 85.198 119.653 87.716 117.094 C 90.236 114.532 91.666 111.292 91.666 107.397 C 91.666 103.502 90.236 100.263 87.716 97.701 Z M 24.961 101.329 C 22.443 98.77 19.274 97.325 15.455 97.325 C 11.636 97.325 8.467 98.77 5.95 101.329 C 3.43 103.89 2 107.13 2 111.025 C 2 114.92 3.43 118.16 5.95 120.721 C 8.467 123.28 11.636 124.725 15.455 124.725 C 19.274 124.725 22.443 123.28 24.961 120.721 C 27.481 118.16 28.91 114.92 28.91 111.025 C 28.91 107.13 27.481 103.89 24.961 101.329 Z M 94.743 124.013 L 125.01 124.013 C 134.793 124.013 154.674 124.575 172.785 125.665 C 190.962 126.759 206.284 128.646 208.95 128.966 C 209.556 129.643 209.763 130.031 209.701 130.617 C 209.637 131.217 209.343 131.609 208.18 132.203 C 205.76 131.917 190.231 130.041 172.364 128.965 C 154.431 127.885 134.464 127.308 125.01 127.308 L 94.732 127.308 C 78.938 127.464 63.079 128.034 47.376 128.945 C 35.807 129.777 22.785 130.693 11.605 132.201 C 10.478 131.665 10.179 131.282 10.086 130.673 C 9.994 130.073 10.19 129.666 10.756 128.957 C 22.306 127.401 35.29 126.52 46.854 125.688 L 47.211 125.688 L 47.262 125.65 C 63.08 124.803 78.898 124.059 94.743 124.013 Z M 95.807 153.727 L 123.949 153.727 C 133.051 153.727 151.533 153.989 168.362 155.079 C 185.259 156.172 199.333 158.038 201.938 158.374 C 202.491 159.043 202.685 159.436 202.626 160.038 C 202.566 160.649 202.302 161.033 201.257 161.612 C 198.861 161.308 184.606 159.455 167.989 158.378 C 151.303 157.298 132.733 157.022 123.949 157.022 L 95.794 157.022 C 81.118 157.178 66.366 157.448 51.753 158.358 C 40.996 159.191 28.915 160.105 18.524 161.61 C 17.513 161.088 17.249 160.716 17.161 160.097 C 17.073 159.482 17.258 159.067 17.774 158.363 C 28.594 156.776 40.525 155.933 51.278 155.101 L 51.654 155.101 L 51.704 155.061 C 66.389 154.219 81.08 153.774 95.807 153.727 Z M 8.878 95.36 C 4.635 83.744 11.622 77.431 21.986 71.503 C 31.509 66.057 53.224 62.112 53.224 62.112 C 53.224 62.112 61.194 57.319 69.172 53.261 C 70.648 54.853 72.499 56.143 74.433 56.739 C 77.179 57.411 80.431 56.313 82.448 55.411 C 82.313 56.048 82.151 56.76 81.974 57.422 C 81.427 59.801 81.831 61.717 82.013 62.929 L 82.197 64.143 L 82.382 65.361 L 84.643 64.516 C 85.837 63.971 85.809 63.891 87.106 63.855 C 89.856 63.145 91.932 60.416 93.524 57.719 C 95.121 55.013 96.466 52.302 98.372 51.171 C 98.571 51.037 98.878 50.981 99.197 50.964 L 98.748 52.494 C 98.403 53.92 97.16 54.894 95.77 56.112 C 94.437 57.282 92.941 58.701 92.244 60.493 L 92.24 60.492 C 92.236 60.506 92.232 60.52 92.228 60.535 C 92.206 60.592 92.185 60.649 92.165 60.707 L 92.134 60.807 L 92.162 60.816 C 91.929 61.982 92.153 63.33 92.562 64.116 C 93.02 64.906 93.608 65.565 93.856 65.874 L 94.128 66.213 L 94.403 66.555 L 95.277 66.615 C 96.047 66.666 97.985 66.786 99.584 66.26 C 101.053 65.719 101.481 65.467 102.269 65.093 C 102.6 66.176 102.818 67.24 103.665 68.585 C 104.709 70.158 106.243 71.104 107.339 71.449 C 108.557 71.786 109.431 71.764 109.673 71.76 C 109.917 71.767 110.816 71.786 112.031 71.449 C 113.141 71.097 114.727 70.066 115.758 68.502 C 116.598 67.177 116.789 66.165 117.109 65.096 C 117.908 65.475 118.349 65.733 119.82 66.273 C 121.424 66.799 123.327 66.666 124.093 66.615 L 124.532 66.585 L 124.969 66.555 L 125.516 65.873 C 125.764 65.564 126.35 64.907 126.808 64.117 C 127.217 63.331 127.442 61.982 127.209 60.816 L 127.237 60.807 L 127.205 60.704 C 127.184 60.645 127.163 60.586 127.141 60.528 C 127.137 60.514 127.133 60.501 127.129 60.488 L 127.126 60.489 C 126.428 58.698 124.935 57.283 123.602 56.113 C 122.215 54.898 120.958 53.88 120.609 52.451 L 120.183 50.998 C 120.531 51.016 120.867 51.075 121.073 51.214 C 122.98 52.344 124.25 55.013 125.847 57.719 C 127.439 60.416 129.464 63.136 132.214 63.845 C 133.511 63.882 133.534 63.971 134.728 64.516 L 136.989 65.361 L 137.358 62.929 C 137.541 61.713 137.94 59.78 137.391 57.405 C 137.214 56.741 137.052 56.03 136.918 55.396 C 138.95 56.294 142.24 57.398 144.997 56.72 C 146.99 56.105 148.867 54.77 150.344 53.127 C 158.409 57.213 166.556 62.112 166.556 62.112 C 166.556 62.112 188.27 66.057 197.794 71.503 C 208.158 77.431 215.144 83.744 210.902 95.36 L 210.821 95.713 C 208.802 94.83 206.58 94.325 204.324 94.325 C 199.883 94.325 195.574 96.283 192.68 99.225 C 189.787 102.165 187.869 106.525 187.869 111.025 C 187.869 115.525 189.787 119.885 192.68 122.825 C 193.725 123.888 194.955 124.822 196.309 125.582 C 189.665 124.92 181.267 124.173 172.905 123.669 C 164.767 123.179 156.267 122.796 148.482 122.521 C 150.273 121.681 151.891 120.542 153.213 119.198 C 156.106 116.257 158.024 111.897 158.024 107.398 C 158.024 102.898 156.106 98.538 153.213 95.597 C 150.319 92.655 146.01 90.697 141.569 90.697 C 137.129 90.697 132.82 92.655 129.925 95.597 C 127.032 98.538 125.114 102.898 125.114 107.398 C 125.114 111.897 127.032 116.258 129.925 119.198 C 131.045 120.336 132.376 121.326 133.844 122.114 C 130.41 122.047 127.408 122.013 125.01 122.013 L 94.742 122.013 C 91.81 122.022 88.879 122.054 85.948 122.107 C 87.412 121.321 88.739 120.333 89.855 119.198 C 92.748 116.257 94.666 111.897 94.666 107.397 C 94.666 102.898 92.748 98.537 89.855 95.597 C 86.96 92.655 82.651 90.697 78.211 90.697 C 73.77 90.697 69.461 92.655 66.567 95.597 C 63.674 98.538 61.756 102.898 61.756 107.397 C 61.756 111.897 63.674 116.257 66.567 119.198 C 67.888 120.541 69.504 121.679 71.293 122.519 C 63.137 122.823 54.99 123.233 46.854 123.669 L 46.554 123.686 L 46.551 123.688 L 46.854 123.688 C 39.557 124.213 31.495 124.77 23.595 125.511 C 24.9 124.764 26.086 123.855 27.099 122.825 C 29.992 119.885 31.91 115.525 31.91 111.025 C 31.91 106.525 29.992 102.165 27.099 99.225 C 24.205 96.283 19.896 94.325 15.455 94.325 C 13.2 94.325 10.978 94.83 8.958 95.713 Z M 204.418 161.836 C 206.555 162.373 208.047 163.409 209.048 164.658 C 210.766 166.803 210.681 169.534 210.618 171.522 C 210.557 173.469 209.706 175.216 207.738 176.622 C 206.461 177.535 204.714 178.304 202.407 178.89 C 133.298 167.443 63.899 171.32 17.572 178.837 C 14.845 178.1 13.095 177.294 11.955 176.436 C 9.799 174.812 9.463 172.997 9.208 171.097 C 8.95 169.18 9.386 167.2 10.541 165.425 C 11.441 164.042 12.907 162.8 15.078 161.863 C 15.309 161.829 15.541 161.793 15.775 161.756 C 16.249 162.412 16.978 163.03 17.901 163.533 L 18.174 163.682 L 18.504 163.633 C 28.893 162.11 41.143 161.186 51.9 160.353 C 66.466 159.445 81.143 159.178 95.81 159.022 L 123.949 159.022 C 132.719 159.022 151.223 159.296 167.859 160.374 C 184.412 161.445 201.317 163.636 201.317 163.636 L 201.652 163.679 L 201.926 163.521 C 202.853 162.984 203.57 162.348 204.032 161.688 C 204.285 161.784 204.418 161.836 204.418 161.836 Z M 13.856 133.924 C 24.521 132.574 36.718 131.716 47.513 130.94 C 63.192 130.031 78.981 129.464 94.747 129.308 L 125.01 129.308 C 134.436 129.308 154.342 129.883 172.244 130.961 C 186.239 131.803 200.467 133.337 205.918 133.955 L 201.276 156.274 C 196.97 155.731 182.674 154.002 168.492 153.083 C 151.611 151.991 133.065 151.727 123.949 151.727 L 95.805 151.727 C 80.944 151.775 66.089 152.228 51.27 153.083 L 50.952 153.101 L 51.278 153.101 C 40.991 153.897 29.052 154.77 18.497 156.241 Z M 109.685 69.76 C 109.417 69.768 106.689 69.911 105.331 67.481 C 104.599 66.431 103.872 63.429 103.872 63.429 L 103.577 62.214 L 102.453 62.78 C 102.453 62.78 100.246 63.893 98.867 64.393 C 97.73 64.858 96.219 64.674 95.413 64.619 C 94.834 63.902 93.485 62.518 94.093 61.236 C 94.43 59.843 95.686 58.846000000000004 97.088 57.616 C 98.491 56.386 100.041 54.92 100.668 53.056 L 101.819 49.126 L 100.612 49.056 C 100.612 49.056 98.395 48.926 97.316 49.473 C 95.056 50.963 93.378 54.033 91.802 56.703 C 90.227 59.371 88.896 61.621 86.822 61.876 C 84.88 62.261 84.751 62.384 83.99 62.626 C 83.787 61.312 83.363 59.795 83.908 57.935 C 84.411 56.033 84.805 53.762 84.805 53.762 L 85.206 51.453 L 83.286 52.747 C 83.286 52.747 78.465 55.993 74.968 54.811 C 72.215 54.08 69.903 51.78 68.678 49.082 C 67.88 47.534 68.161 47.064 68.156 46.073 C 69.289 46.748 69.989 47.324 71.982 48.001 C 74.313 48.722 76.918 48.433 79.126 48.036 C 84.809 46.899 88.275 42.745 93.388 42.554 C 94.996 42.439 97.66 42.719 100.354 43.118 C 100.484 43.265 100.616 43.408 100.752 43.547 C 102.981 45.829 106.268 47.334 109.685 47.334 C 113.103 47.334 116.39 45.829 118.619 43.547 C 118.755 43.408 118.888 43.265 119.017 43.118 C 121.711 42.719 124.375 42.439 125.983 42.554 C 131.096 42.745 134.562 46.899 140.244 48.036 C 142.453 48.433 145.058 48.721 147.389 48.001 C 149.382 47.324 150.082 46.748 151.214 46.073 C 151.21 47.064 151.491 47.534 150.693 49.082 C 149.468 51.78 147.156 54.08 144.403 54.811 C 140.905 55.993 136.085 52.747 136.085 52.747 L 134.165 51.453 L 134.566 53.762 C 134.566 53.762 134.96 56.033 135.462 57.935 C 136.008 59.795 135.584 61.312 135.381 62.626 C 134.62 62.384 134.491 62.261 132.549 61.876 C 130.475 61.621 129.144 59.371 127.569 56.703 C 125.993 54.033 124.315 50.962 122.054 49.473 C 120.975 48.926 118.758 49.056 118.758 49.056 L 117.551 49.126 L 117.904 50.331 L 118.703 53.056 C 119.33 54.92 120.88 56.386 122.283 57.616 C 123.685 58.846000000000004 124.941 59.843 125.278 61.236 C 125.886 62.518 124.537 63.902 123.958 64.619 C 123.152 64.674 121.64 64.858 120.503 64.393 C 119.123 63.893 116.918 62.781 116.918 62.781 L 115.794 62.214 L 115.499 63.429 C 115.499 63.429 114.771 66.431 114.039 67.481 C 112.682 69.911 109.953 69.768 109.685 69.76 Z M 120.308 34.459 C 120.35 37.545 119.168 40.123 117.188 42.15 C 115.21 44.175 112.686 45.334 109.685 45.334 C 106.684 45.334 104.16 44.175 102.183 42.15 C 100.203 40.123 99.021 37.517 99.063 34.431 C 99.008 31.417 100.178 28.906 102.193 26.706 C 102.685 26.201 102.773 26.142 103.08 25.892 C 104.923 27.585 107.166 28.293 109.692 28.299 C 111.484 28.277 113.308 27.872 114.596 27.31 C 115.259 27.02 115.895 26.635 116.311 26.258 C 116.413 26.166 116.475 26.11 116.512 26.076 C 117.072 26.461 116.704 26.219 117.192 26.721 C 119.313 28.806 120.209 31.437 120.308 34.459 Z M 102.583 23.287 C 102.341 22.858 102.277 22.539 102.134 22.251 C 101.633 22.101 101.258 21.863 100.96 21.481 C 100.665 21.101 100.514 20.719 100.368 20.318 C 99.694 19.857 99.112 19.423000000000002 98.726 18.579 C 98.075 18.472 97.855 18.185 97.577 17.786 C 97.303 17.392 97.196 17.08 97.049 16.747 C 97.049 16.747 95.981 16.531 95.449 16.075 C 94.94 15.541 94.737 14.728 94.616 14.336 L 91.661 12.316 L 91.797 11.975999999999999 C 91.797 11.975999999999999 92.419 10.421 93.039 9.799 C 93.491 9.387 94.211 9.075 94.709 8.877 C 94.983 8.429 95.353 7.881 95.768 7.5440000000000005 C 95.999 7.374 96.323 7.219 96.649 7.09 L 96.785 7.248 L 96.992 6.965 C 97.103 6.928 97.209 6.894 97.309 6.864 L 96.999 6.956 L 97.002 6.953 C 97.002 6.953 97.989 5.611 98.742 5.171 C 99.248 4.908 99.957 4.79 100.482 4.725 C 100.824 4.388 101.529 3.7560000000000002 102.144 3.504 C 102.734 3.295 103.563 3.294 104.095 3.311 C 104.549 3.025 105.218 2.636 105.797 2.519 C 106.378 2.428 107.128 2.56 107.65 2.6719999999999997 C 107.669 2.6639999999999997 107.688 2.656 107.708 2.6470000000000002 L 107.735 2.169 L 107.833 2.5949999999999998 C 108.326 2.385 109.078 2.095 109.686 2.095 C 110.294 2.095 111.045 2.382 111.538 2.593 L 111.636 2.169 L 111.663 2.646 C 111.683 2.6550000000000002 111.703 2.663 111.721 2.6719999999999997 C 112.243 2.559 112.993 2.428 113.574 2.519 C 114.153 2.636 114.822 3.025 115.276 3.311 C 115.779 3.286 116.637 3.295 117.227 3.504 C 117.841 3.757 118.502 4.358 118.888 4.725 C 119.413 4.791 120.123 4.908 120.628 5.171 C 121.382 5.611 122.369 6.953 122.369 6.953 L 122.371 6.956 L 122.062 6.864 C 122.161 6.894 122.267 6.928 122.378 6.965 L 122.586 7.248 L 122.722 7.09 C 123.048 7.219 123.371 7.374 123.602 7.5440000000000005 C 124.018 7.881 124.387 8.429 124.662 8.877 C 125.16 9.075 125.88 9.387 126.332 9.799 C 126.951 10.421 127.573 11.975999999999999 127.573 11.975999999999999 L 127.71 12.316 L 124.755 14.336 C 124.634 14.728 124.43 15.541 123.922 16.075 C 123.39 16.531 122.721 16.647 122.322 16.747 C 122.172 17.079 122.068 17.392 121.793 17.786 C 121.516 18.185 121.161 18.431 120.642 18.581 C 120.276 19.587 119.665 19.887 119.002 20.321 C 118.856 20.719 118.706 21.101 118.411 21.481 C 118.113 21.863 117.739 22.103 117.236 22.251 C 117.092 22.539 117.03 22.858 116.788 23.287 C 116.541 23.724 116.219 23.95 115.683 24.082 C 115.686 24.162 115.686 24.235 115.682 24.303 L 115.184 24.563 C 115.255 24.618 115.209 24.559 114.97 24.775 C 114.694 25.025 114.337 25.241 113.797 25.476 C 112.679 25.964 111.256 26.302 109.68 26.299 C 107.434 26.331 105.321 25.808 103.972 23.946 L 103.42 23.185 L 102.777 23.633 C 102.712 23.53 102.655 23.414 102.583 23.287 Z" style="fill: rgba(100, 143, 255, 0.75);"/>
</svg>