<?xml version="1.0" encoding="utf-8"?>
<svg width="236.87134" height="199.29811" id="svg70986" version="1.1" xmlns="http://www.w3.org/2000/svg">
  <path d="M 118.722 70.556 C 118.454 70.564 115.726 70.707 114.368 68.277 C 113.636 67.227 112.909 64.225 112.909 64.225 L 112.614 63.01 L 111.49 63.576 C 111.49 63.576 109.283 64.689 107.904 65.189 C 106.767 65.654 105.256 65.47 104.45 65.415 C 103.871 64.698 102.522 63.314 103.13 62.032 C 103.467 60.639 104.723 59.642 106.125 58.412 C 107.528 57.182 109.078 55.716 109.705 53.852 L 110.856 49.922 L 109.649 49.852 C 109.649 49.852 107.432 49.722 106.353 50.269 C 104.093 51.759 102.415 54.829 100.839 57.499 C 99.264 60.167 97.933 62.417 95.859 62.672 C 93.917 63.057 93.788 63.18 93.027 63.422 C 92.824 62.108 92.4 60.591 92.945 58.731 C 93.448 56.829 93.842 54.558 93.842 54.558 L 94.243 52.249 L 92.323 53.543 C 92.323 53.543 87.502 56.789 84.005 55.607 C 81.252 54.876 78.94 52.576 77.715 49.878 C 76.917 48.33 77.198 47.86 77.193 46.869 C 78.326 47.544 79.026 48.12 81.019 48.797 C 83.35 49.518 85.955 49.229 88.163 48.832 C 93.846 47.695 97.312 43.541 102.425 43.35 C 104.033 43.235 106.697 43.515 109.391 43.914 C 109.521 44.061 109.653 44.204 109.789 44.343 C 112.018 46.625 115.305 48.13 118.722 48.13 C 122.14 48.13 125.427 46.625 127.656 44.343 C 127.792 44.204 127.925 44.061 128.054 43.914 C 130.748 43.515 133.412 43.235 135.02 43.35 C 140.133 43.541 143.599 47.695 149.281 48.832 C 151.49 49.229 154.095 49.517 156.426 48.797 C 158.419 48.12 159.119 47.544 160.251 46.869 C 160.247 47.86 160.528 48.33 159.73 49.878 C 158.505 52.576 156.193 54.876 153.44 55.607 C 149.942 56.789 145.122 53.543 145.122 53.543 L 143.202 52.249 L 143.603 54.558 C 143.603 54.558 143.997 56.829 144.499 58.731 C 145.045 60.591 144.621 62.108 144.418 63.422 C 143.657 63.18 143.528 63.057 141.586 62.672 C 139.512 62.417 138.181 60.167 136.606 57.499 C 135.03 54.829 133.352 51.758 131.091 50.269 C 130.012 49.722 127.795 49.852 127.795 49.852 L 126.588 49.922 L 126.941 51.127 L 127.74 53.852 C 128.367 55.716 129.917 57.182 131.32 58.412 C 132.722 59.642 133.978 60.639 134.315 62.032 C 134.923 63.314 133.574 64.698 132.995 65.415 C 132.189 65.47 130.677 65.654 129.54 65.189 C 128.16 64.689 125.955 63.577 125.955 63.577 L 124.831 63.01 L 124.536 64.225 C 124.536 64.225 123.808 67.227 123.076 68.277 C 121.719 70.707 118.99 70.564 118.722 70.556 Z M 61.28 175.718 L 61.23 175.758 L 60.854 175.758 C 50.168 176.585 38.316 177.422 27.563 178.999 C 27.051 179.697 26.868 180.106 26.956 180.715 C 27.043 181.329 27.304 181.696 28.305 182.213 C 38.631 180.718 50.636 179.81 61.326 178.982 C 75.848 178.077 90.508 177.81 105.093 177.655 L 133.073 177.655 C 141.802 177.655 160.257 177.929 176.839 179.002 C 193.352 180.072 209.898 182.216 209.898 182.216 C 210.933 181.642 211.193 181.263 211.253 180.657 C 211.312 180.061 211.121 179.673 210.573 179.01 C 207.976 178.675 194 176.822 177.208 175.736 C 160.485 174.652 142.118 174.393 133.073 174.393 L 105.106 174.393 C 90.471 174.439 75.873 174.881 61.28 175.718 Z M 109.181 154.756 L 129.02 154.756 C 130.245 154.712 131.163 155.169 131.974 155.979 C 132.784 156.79 133.241 157.708 133.197 158.933 L 133.197 162.93 C 133.241 164.155 132.784 165.073 131.974 165.884 C 131.163 166.694 130.245 167.151 129.02 167.107 L 109.181 167.107 C 107.956 167.151 107.038 166.694 106.227 165.884 C 105.417 165.073 104.96 164.155 105.004 162.93 L 105.004 158.933 C 104.96 157.708 105.417 156.79 106.227 155.979 C 107.038 155.169 107.956 154.712 109.181 154.756 Z M 187.654 165.611 C 186.942 166.335 186.415 167.535 186.415 168.649 C 186.415 169.763 186.942 170.962 187.655 171.686 C 188.369 172.411 189.561 172.951 190.665 172.951 C 191.77 172.951 192.962 172.411 193.675 171.685 C 194.388 170.961 194.914 169.762 194.914 168.649 C 194.914 167.535 194.388 166.336 193.676 165.612 C 192.962 164.886 191.77 164.345 190.665 164.345 C 189.561 164.345 188.368 164.886 187.654 165.611 Z M 188.318 155.25 C 187.606 155.973 187.079 157.172 187.079 158.286 C 187.079 159.4 187.606 160.599 188.318 161.324 C 189.031 162.049 190.224 162.59 191.328 162.59 C 192.433 162.59 193.625 162.049 194.339 161.324 C 195.051 160.599 195.578 159.4 195.578 158.286 C 195.578 157.172 195.051 155.973 194.339 155.25 C 193.625 154.524 192.432 153.984 191.328 153.984 C 190.224 153.984 189.032 154.524 188.318 155.25 Z M 143.933 163.22 C 143.221 163.945 142.694 165.144 142.694 166.258 C 142.694 167.372 143.221 168.571 143.933 169.294 C 144.647 170.019 145.84 170.56 146.944 170.56 C 148.048 170.56 149.24 170.019 149.954 169.294 C 150.666 168.571 151.193 167.372 151.193 166.258 C 151.193 165.144 150.666 163.945 149.954 163.22 C 149.241 162.495 148.048 161.954 146.944 161.954 C 145.839 161.954 144.647 162.495 143.933 163.22 Z M 180.734 156.962 C 178.913 155.321 176.076 154.12 172.967 153.791 L 168.041 153.307 C 164.933 153.023 161.814 153.628 159.512 154.847 C 157.178 156.083 155.407 158.204 154.928 160.497 C 154.602 162.836 155.603 165.301 157.457 166.971 C 159.279 168.612 162.115 169.812 165.225 170.142 L 170.151 170.626 C 173.259 170.91 176.378 170.305 178.68 169.086 C 181.014 167.849 182.784 165.729 183.263 163.436 C 183.59 161.097 182.589 158.633 180.734 156.962 Z M 144.597 152.859 C 143.885 153.583 143.358 154.782 143.358 155.896 C 143.358 157.01 143.885 158.209 144.597 158.933 C 145.31 159.659 146.503 160.2 147.607 160.2 C 148.712 160.2 149.904 159.659 150.618 158.933 C 151.33 158.209 151.857 157.01 151.857 155.896 C 151.857 154.782 151.33 153.583 150.618 152.859 C 149.904 152.134 148.712 151.593 147.607 151.593 C 146.503 151.593 145.31 152.134 144.597 152.859 Z M 104.813 154.565 C 103.75 155.628 103.048 157.299 103.004 158.933 L 103.004 162.93 C 103.048 164.564 103.75 166.235 104.813 167.298 C 105.876 168.361 107.547 169.063 109.181 169.107 L 129.02 169.107 C 130.654 169.063 132.325 168.361 133.388 167.298 C 134.451 166.235 135.153 164.564 135.197 162.93 L 135.197 158.933 C 135.153 157.299 134.451 155.628 133.388 154.565 C 132.325 153.502 130.654 152.8 129.02 152.756 L 109.181 152.756 C 107.547 152.8 105.876 153.502 104.813 154.565 Z M 94.269 163.22 C 93.555 162.494 92.362 161.954 91.258 161.954 C 90.154 161.954 88.962 162.494 88.248 163.22 C 87.536 163.944 87.009 165.143 87.009 166.257 C 87.009 167.371 87.536 168.57 88.248 169.294 C 88.961 170.019 90.154 170.56 91.258 170.56 C 92.363 170.56 93.555 170.019 94.269 169.294 C 94.981 168.57 95.508 167.371 95.508 166.257 C 95.508 165.143 94.981 163.944 94.269 163.22 Z M 93.605 152.86 C 92.891 152.134 91.699 151.593 90.594 151.593 C 89.489 151.593 88.297 152.134 87.583 152.86 C 86.871 153.584 86.344 154.783 86.344 155.897 C 86.344 157.011 86.871 158.21 87.583 158.933 C 88.297 159.659 89.49 160.199 90.594 160.199 C 91.699 160.199 92.891 159.659 93.604 158.933 C 94.317 158.209 94.843 157.011 94.843 155.897 C 94.843 154.784 94.317 153.584 93.605 152.86 Z M 57.467 156.963 C 55.612 158.633 54.611 161.097 54.938 163.437 C 55.417 165.73 57.187 167.851 59.521 169.086 C 61.823 170.305 64.942 170.91 68.05 170.627 L 72.977 170.143 C 76.086 169.814 78.923 168.613 80.744 166.972 C 82.599 165.301 83.599 162.837 83.273 160.498 C 82.794 158.206 81.023 156.084 78.689 154.848 C 76.387 153.629 73.268 153.024 70.16 153.308 L 65.234 153.792 C 62.125 154.121 59.288 155.322 57.467 156.963 Z M 50.548 165.61 C 49.835 164.885 48.642 164.343 47.537 164.343 C 46.433 164.343 45.24 164.885 44.527 165.61 C 43.815 166.335 43.288 167.534 43.288 168.648 C 43.288 169.762 43.815 170.961 44.527 171.685 C 45.24 172.41 46.433 172.951 47.537 172.951 C 48.642 172.951 49.835 172.41 50.548 171.685 C 51.261 170.961 51.787 169.761 51.787 168.648 C 51.787 167.534 51.261 166.335 50.548 165.61 Z M 49.884 155.251 C 49.17 154.526 47.978 153.985 46.873 153.985 C 45.768 153.985 44.576 154.526 43.862 155.251 C 43.15 155.975 42.623 157.174 42.623 158.288 C 42.623 159.402 43.15 160.601 43.862 161.324 C 44.576 162.049 45.769 162.59 46.873 162.59 C 47.977 162.59 49.17 162.049 49.884 161.324 C 50.596 160.601 51.123 159.402 51.123 158.288 C 51.123 157.174 50.596 155.975 49.884 155.251 Z M 212.74 183.262 C 214.857 183.794 216.335 184.82 217.326 186.057 C 219.028 188.182 218.944 190.887 218.882 192.857 C 218.821 194.785 217.978 196.516 216.029 197.908 C 214.764 198.813 213.033 199.575 210.748 200.156 C 142.289 188.816 73.543 192.656 27.651 200.103 C 24.95 199.373 23.216 198.575 22.087 197.724 C 19.952 196.115 19.618 194.318 19.365 192.436 C 19.11 190.537 19.542 188.576 20.686 186.817 C 21.578 185.447 23.03 184.216 25.181 183.288 C 25.532 183.237 25.885 183.18 26.242 183.121 C 26.643 183.49 27.127 183.835 27.682 184.137 L 27.955 184.286 L 28.285 184.237 C 38.609 182.723 50.783 181.805 61.473 180.977 C 75.948 180.074 90.533 179.81 105.109 179.655 L 133.073 179.655 C 141.788 179.655 160.177 179.927 176.709 180.998 C 193.158 182.062 209.957 184.24 209.957 184.24 L 210.294 184.283 L 210.568 184.124 C 211.154 183.784 211.656 183.405 212.062 183.004 C 212.504 183.17 212.74 183.262 212.74 183.262 Z M 214.361 155.553 L 195.211 162.147 L 210.335 174.912 L 209.919 176.911 C 205.64 176.372 191.432 174.653 177.338 173.74 C 160.563 172.654 142.132 172.393 133.073 172.393 L 105.104 172.393 C 90.335 172.44 75.573 172.89 60.846000000000004 173.74 L 60.529 173.758 L 60.854 173.758 C 50.631 174.548 38.765 175.416 28.276 176.878 L 27.867 174.913 L 42.991 162.147 L 23.841 155.554 L 23.666 154.712 C 34.264 153.371 46.384 152.518 57.113 151.747 C 72.694 150.844 88.385 150.28 104.053 150.125 L 134.127 150.125 C 143.494 150.125 163.276 150.697 181.067 151.768 C 194.973 152.604 209.112 154.128 214.53 154.743 L 214.361 155.553 Z M 23.893 157.687 L 39.009 162.891 L 26.593 173.371 L 25.31 170.303 L 21.716 165.844 L 23.818 160.49 L 23.893 157.687 Z M 92.843 155.897 C 92.843 156.608 92.642 157.059 92.179 157.531 C 91.717 157.999 91.284 158.199 90.594 158.199 C 89.903 158.199 89.471 157.999 89.009 157.531 C 88.545 157.059 88.344 156.607 88.344 155.897 C 88.344 155.187 88.545 154.734 89.009 154.262 C 89.471 153.792 89.904 153.593 90.594 153.593 C 91.284 153.593 91.716 153.792 92.179 154.262 C 92.642 154.734 92.843 155.186 92.843 155.897 Z M 93.508 166.257 C 93.508 166.967 93.307 167.42 92.843 167.891 C 92.381 168.361 91.948 168.56 91.258 168.56 C 90.568 168.56 90.136 168.361 89.674 167.891 C 89.21 167.42 89.009 166.967 89.009 166.257 C 89.009 165.546 89.21 165.094 89.674 164.621 C 90.136 164.153 90.568 163.954 91.258 163.954 C 91.949 163.954 92.381 164.153 92.843 164.623 C 93.307 165.094 93.508 165.546 93.508 166.257 Z M 49.123 158.288 C 49.123 158.998 48.922 159.45 48.458 159.922 C 47.996 160.391 47.564 160.59 46.873 160.59 C 46.182 160.59 45.75 160.391 45.288 159.922 C 44.824 159.45 44.623 158.998 44.623 158.288 C 44.623 157.578 44.824 157.124 45.288 156.654 C 45.75 156.184 46.183 155.985 46.873 155.985 C 47.563 155.985 47.996 156.184 48.458 156.654 C 48.922 157.124 49.123 157.578 49.123 158.288 Z M 49.787 168.648 C 49.787 169.359 49.586 169.811 49.123 170.282 C 48.66 170.752 48.228 170.951 47.537 170.951 C 46.847 170.951 46.415 170.752 45.953 170.282 C 45.489 169.811 45.288 169.358 45.288 168.648 C 45.288 167.937 45.489 167.484 45.953 167.013 C 46.415 166.543 46.847 166.344 47.537 166.344 C 48.228 166.344 48.66 166.543 49.123 167.013 C 49.586 167.484 49.787 167.937 49.787 168.648 Z M 181.293 163.088 C 181.049 164.895 179.764 166.249 177.744 167.317 C 175.693 168.404 173.159 168.934 170.347 168.636 L 165.421 168.152 C 162.61 167.899 160.38 166.912 158.796 165.484 C 157.245 164.088 156.501 162.606 156.898 160.845 C 157.143 159.038 158.427 157.685 160.447 156.615 C 162.499 155.529 165.033 154.999 167.845 155.297 L 172.771 155.781 C 175.582 156.034 177.812 157.021 179.396 158.448 C 180.947 159.845 181.69 161.328 181.293 163.088 Z M 211.609 173.37 L 199.193 162.891 L 214.309 157.686 L 214.382 160.404 L 216.624 165.739 L 212.879 170.335 L 211.609 173.37 Z M 147.607 153.593 C 148.297 153.593 148.73 153.792 149.192 154.262 C 149.656 154.733 149.857 155.186 149.857 155.896 C 149.857 156.607 149.656 157.059 149.192 157.531 C 148.73 158.001 148.297 158.2 147.607 158.2 C 146.917 158.2 146.485 158.001 146.023 157.531 C 145.559 157.059 145.358 156.607 145.358 155.896 C 145.358 155.186 145.559 154.733 146.023 154.262 C 146.485 153.792 146.917 153.593 147.607 153.593 Z M 146.944 163.954 C 147.634 163.954 148.066 164.153 148.528 164.623 C 148.992 165.094 149.193 165.547 149.193 166.258 C 149.193 166.968 148.992 167.42 148.529 167.892 C 148.066 168.361 147.634 168.56 146.944 168.56 C 146.253 168.56 145.821 168.361 145.359 167.892 C 144.895 167.42 144.694 166.968 144.694 166.258 C 144.694 165.547 144.895 165.094 145.359 164.623 C 145.821 164.153 146.254 163.954 146.944 163.954 Z M 191.328 155.984 C 192.019 155.984 192.451 156.183 192.913 156.651 C 193.377 157.124 193.578 157.576 193.578 158.286 C 193.578 158.997 193.377 159.45 192.913 159.921 C 192.451 160.391 192.018 160.59 191.328 160.59 C 190.638 160.59 190.206 160.391 189.744 159.921 C 189.28 159.45 189.079 158.997 189.079 158.286 C 189.079 157.576 189.28 157.124 189.744 156.651 C 190.206 156.183 190.638 155.984 191.328 155.984 Z M 190.665 166.345 C 191.355 166.345 191.787 166.544 192.25 167.014 C 192.713 167.485 192.914 167.938 192.914 168.649 C 192.914 169.359 192.713 169.812 192.25 170.283 C 191.788 170.752 191.355 170.951 190.665 170.951 C 189.975 170.951 189.542 170.752 189.08 170.282 C 188.616 169.811 188.415 169.359 188.415 168.649 C 188.415 167.938 188.616 167.486 189.08 167.014 C 189.543 166.544 189.975 166.345 190.665 166.345 Z M 65.43 155.782 L 70.356 155.297 C 73.168 155 75.702 155.53 77.754 156.616 C 79.774 157.685 81.058 159.04 81.303 160.846 C 81.7 162.606 80.956 164.089 79.405 165.486 C 77.821 166.913 75.592 167.9 72.781 168.153 L 67.854 168.637 C 65.042 168.935 62.508 168.405 60.457 167.319 C 58.436 166.249 57.152 164.895 56.908 163.089 C 56.511 161.328 57.254 159.846 58.805 158.449 C 60.389 157.022 62.619 156.035 65.43 155.782 Z M 55.967 145.486 L 55.94 145.506 L 55.913 145.506 C 44.351 146.338 30.97 147.246 19.294 148.837 C 17.643 150.81 17.506 152.61 20.51 154.049 C 31.72 152.522 44.938 151.593 56.508 150.76 C 72.2 149.851 88.021 149.282 103.802 149.126 L 134.07 149.126 C 143.51 149.126 163.446 149.702 181.364 150.781 C 199.2 151.855 217.415 154.049 217.415 154.049 C 220.524 152.462 220.186 150.686 218.496 148.837 C 218.496 148.837 200.113 146.582 181.904 145.486 C 163.778 144.394 143.867 143.831 134.07 143.831 L 103.802 143.831 C 87.834 143.879 71.89 144.632 55.967 145.486 Z M 121.04 109.793 C 120.356 109.08 119.607 108.733 118.548 108.733 C 117.485 108.733 116.699 109.089 115.973 109.81 C 115.245 110.532 114.828 111.334 114.844 112.424 C 114.774 113.509 115.146 114.294 115.831 115.008 C 116.515 115.72 117.265 116.067 118.324 116.067 C 119.387 116.067 120.173 115.711 120.899 114.99 C 121.628 114.268 122.044 113.467 122.028 112.376 C 122.097 111.292 121.726 110.507 121.04 109.793 Z M 15.752 121.397 C 15.068 120.684 14.319 120.337 13.26 120.337 C 12.197 120.337 11.411 120.693 10.685 121.414 C 9.957 122.136 9.54 122.938 9.556000000000001 124.028 C 9.486 125.113 9.858 125.898 10.543 126.612 C 11.227 127.324 11.977 127.671 13.036 127.671 C 14.099 127.671 14.885 127.315 15.611 126.594 C 16.34 125.872 16.756 125.071 16.74 123.98 C 16.809 122.896 16.438 122.111 15.752 121.397 Z M 226.329 121.397 C 225.645 120.684 224.895 120.337 223.836 120.337 C 222.773 120.337 221.987 120.693 221.261 121.414 C 220.533 122.136 220.116 122.938 220.132 124.028 C 220.062 125.113 220.434 125.898 221.119 126.612 C 221.803 127.324 222.553 127.671 223.612 127.671 C 224.675 127.671 225.461 127.315 226.187 126.594 C 226.916 125.872 227.332 125.07 227.316 123.98 C 227.386 122.896 227.014 122.111 226.329 121.397 Z M 189.399 112.539 C 189.399 115.806 188.179 118.574 186.066 120.72 C 183.956 122.866 181.246 124.101 178.04 124.101 C 174.834 124.101 172.124 122.866 170.013 120.72 C 167.901 118.573 166.68 115.806 166.68 112.539 C 166.68 109.272 167.901 106.505 170.013 104.358 C 172.124 102.212 174.834 100.977 178.04 100.977 C 181.246 100.977 183.956 102.212 186.066 104.358 C 188.179 106.504 189.399 109.272 189.399 112.539 Z M 70.191 112.539 C 70.191 115.806 68.971 118.574 66.858 120.72 C 64.748 122.866 62.038 124.101 58.832 124.101 C 55.626 124.101 52.916 122.866 50.805 120.72 C 48.693 118.573 47.472 115.806 47.472 112.539 C 47.472 109.272 48.693 106.505 50.805 104.358 C 52.916 102.212 55.626 100.977 58.832 100.977 C 62.038 100.977 64.748 102.212 66.858 104.358 C 68.971 106.504 70.191 109.272 70.191 112.539 Z M 117.674 130.032 C 112.403 135.588 106.403 140.109 99.986 141.332 C 95.349 142.263 90.047 142.239 85.253 141.975 C 80.731 141.749 77.159 140.446 73.006 138.431 C 69.435 136.711 62.664 131.61 62.664 131.61 L 61.873 131.014 L 61.271 131.799 C 58.505 135.402 52.835 140.473 49.496 142.314 C 45.352 144.688 40.482 144.643 35.96 144.398 C 30 144.173 23.749 138.972 18.155 131.961 C 17.17 130.751 16.558 129.817 15.971 128.821 C 16.362 128.587 16.718 128.314 17.02 128.014 C 17.357 127.68 17.657 127.278 17.909 126.834 C 18.307 127.351 18.725 127.893 19.167 128.453 C 22.457 132.62 27.144 137.673 35.103 140.129 C 40.245 141.586 49.271 139.028 52.374 135.74 C 55.64 132.061 57.156 128.914 57.965 126.071 C 58.252 126.091 58.542 126.101 58.832 126.101 C 60.489 126.101 62.115 125.771 63.617 125.182 C 64.798 126.427 66.378 127.942 68.564 129.892 C 72.302 133.196 77.591 136.911 86.992 138.249 C 94.127 139.188 103.816 136.968 109.775 131.808 C 114.415 127.679 116.435 123.736 118.263 118.067 C 118.283 118.067 118.304 118.067 118.324 118.067 C 118.394 118.067 118.464 118.065 118.534 118.062 C 120.362 123.734 122.382 127.678 127.024 131.808 C 132.982 136.968 142.671 139.188 149.807 138.249 C 159.207 136.911 164.497 133.196 168.234 129.892 C 170.433 127.931 172.019 126.41 173.202 125.161 C 174.719 125.763 176.363 126.101 178.04 126.101 C 178.306 126.101 178.572 126.092 178.836 126.076 C 179.645 128.918 181.16 132.063 184.424 135.74 C 187.528 139.028 196.554 141.586 201.695 140.129 C 209.654 137.673 214.341 132.62 217.631 128.453 C 218.065 127.903 218.475 127.371 218.867 126.864 C 219.094 127.289 219.366 127.674 219.676 127.997 C 220.028 128.363 220.461 128.69 220.944 128.955 C 214.947 137.391 207.678 144.146 200.839 144.398 C 196.316 144.643 191.445 144.688 187.303 142.314 C 183.964 140.473 178.293 135.402 175.527 131.799 L 174.925 131.014 L 174.134 131.61 C 174.134 131.61 167.364 136.711 163.793 138.431 C 159.64 140.446 156.067 141.749 151.546 141.975 C 146.751 142.239 141.449 142.263 136.813 141.332 C 130.395 140.109 124.396 135.588 119.124 130.032 L 118.399 129.268 Z M 11.507 105.825 C 10.786999999999999 102.914 8.239 100.794 5.612 99.497 L 5.487 99.435 L 5.362 99.413 C 4.353 99.236 2.689 99.508 1.781 100.396 C 1.694 100.557 1.63 100.743 1.5819999999999999 100.944 C 1.457 100.542 1.463 100.174 1.5390000000000001 99.771 C 1.6629999999999998 99.105 1.97 98.633 2.558 98.107 C 3.7720000000000002 97.02 5.476 96.454 7.11 96.79 C 8.538 96.978 12.248 99.943 12.248 99.943 L 12.917 100.477 L 13.548 99.883 C 13.548 99.883 14.289 99.185 14.744 98.806 C 15.065 98.442 15.916 98.392 16.646 98.276 C 16.668 98.458 16.626 98.195 16.737 98.968 C 16.849 99.75 16.934 100.397 16.782 100.619 C 16.043 102.363 15.284 106.271 14.979 108.038 C 14.642 110.012 14.569 112.21 14.685 113.862 C 14.744 114.701 14.859 115.482 15.009 116.023 C 15.089 116.314 15.217 116.641 15.348 116.849 C 15.518 117.121 16.055 117.411 16.46 117.52 L 17.072 117.684 L 17.388 116.891 L 19.124 112.551 C 19.644 111.194 19.736 109.887 20.311 108.943 C 20.855 107.926 21.377 107.495 21.936 106.898 C 22.273 107.262 22.533 107.348 22.708 108.038 C 23.09 108.97 22.666 111.278 22.666 111.278 L 22.507 112.143 L 23.365 112.392 C 23.365 112.392 25.377 112.975 26.325 113.632 C 28.053 114.761 29.775 116.747 30.544 117.592 C 30.415 118.538 30.238 120.431 29.476 121.744 C 29.048 122.598 27.362 123.934 27.362 123.934 L 26.502 124.615 L 27.275 125.4 C 27.275 125.4 28.804 126.952 29.198 127.858 C 29.743 128.737 29.438 129.205 29.316 129.765 C 28.837 129.8 28.634 130.002 27.486 129.479 C 26.943 129.291 25.958 128.522 24.985 127.953 C 24.488 127.663 23.868 127.369 23.38 127.314 C 23.08 127.28 22.551 127.376 22.265 127.591 C 22.041 127.759 21.841 128.124 21.731 128.45 C 21.389 128.034 21.058 127.621 20.737 127.214 C 20.012 126.296 19.336 125.402 18.686 124.572 C 18.712 124.391 18.731 124.209 18.74 124.028 C 18.732 122.535 18.131 120.987 17.195 120.012 C 16.258 119.035 14.737 118.337 13.26 118.337 C 12.95 118.337 12.636 118.368 12.326 118.425 C 12.229 114.668 12.398 110.256 11.507 105.825 Z M 214.606 127.591 C 214.319 127.376 213.791 127.281 213.491 127.315 C 213.003 127.37 212.383 127.664 211.886 127.954 C 210.913 128.522 209.929 129.291 209.385 129.48 C 208.236 130.002 208.034 129.801 207.555 129.766 C 207.433 129.206 207.128 128.736 207.673 127.859 C 208.066 126.952 209.597 125.4 209.597 125.4 L 210.371 124.615 L 209.51 123.933 C 209.51 123.933 207.823 122.598 207.395 121.744 C 206.633 120.431 206.457 118.538 206.328 117.593 C 207.096 116.748 208.819 114.762 210.546 113.632 C 211.494 112.975 213.505 112.393 213.505 112.393 L 214.363 112.144 L 214.205 111.279 C 214.205 111.279 213.782 108.971 214.163 108.039 C 214.338 107.349 214.598 107.263 214.936 106.898 C 215.494 107.495 216.016 107.927 216.561 108.945 C 217.136 109.887 217.227 111.194 217.746 112.55 L 219.799 117.684 L 220.411 117.52 C 220.816 117.412 221.353 117.122 221.523 116.85 C 221.654 116.641 221.782 116.315 221.863 116.024 C 222.013 115.482 222.128 114.701 222.187 113.862 C 222.303 112.21 222.23 110.012 221.893 108.039 C 221.587 106.271 220.828 102.364 220.089 100.621 C 219.938 100.398 220.023 99.751 220.134 98.969 C 220.245 98.195 220.205 98.459 220.226 98.276 C 220.956 98.393 221.806 98.444 222.128 98.807 C 222.581 99.184 223.324 99.884 223.324 99.884 L 223.955 100.478 L 224.624 99.944 C 224.624 99.944 228.334 96.978 229.761 96.791 C 231.394 96.455 233.099 97.021 234.313 98.108 C 234.901 98.634 235.208 99.105 235.332 99.771 C 235.411 100.194 235.429 100.558 235.294 100.969 C 235.246 100.759 235.179 100.563 235.089 100.396 C 234.181 99.507 232.518 99.236 231.508 99.413 L 231.384 99.435 L 231.259 99.497 C 228.633 100.795 226.085 102.914 225.365 105.826 C 224.477 110.243 224.641 114.64 224.546 118.389 C 224.31 118.355 224.072 118.337 223.836 118.337 C 222.363 118.337 220.828 119.026 219.852 119.994 C 218.877 120.961 218.21 122.493 218.132 123.98 C 218.133 124.157 218.142 124.335 218.159 124.512 C 217.495 125.358 216.803 126.274 216.061 127.214 C 215.756 127.601 215.442 127.993 215.118 128.388 C 215.004 128.079 214.816 127.748 214.606 127.591 Z M 114.682 119.584 C 113.871 119.157 112.247 119.096 112.247 119.096 L 111.889 119.083 L 111.59 119.356 C 111.59 119.356 107.563 123.028 105.654 124.143 C 103.937 125.155 102.029 126.278 100.349 126.139 C 99.525 126.164 99.082 125.812 98.602 125.556 C 98.602 125.556 98.44 123.892 99.001 123.022 C 99.532 122.05 100.153 120.759 100.153 120.759 L 100.598 119.835 L 99.681 119.423 C 99.681 119.423 97.909 118.627 95.62 118.506 C 94.518 118.656 93.666 117.193 92.518 115.989 C 91.565 115.049 91.348 114.42 91.096 113.845 L 91.222 113.676 L 91.102 113.533 C 91.308 113.023 91.484 112.487 92.403 111.588 C 93.551 110.385 94.519 108.768 95.62 108.918 C 97.909 108.796 99.681 108.002 99.681 108.002 L 100.598 107.59 L 100.153 106.665 C 100.153 106.665 99.532 105.374 99.001 104.402 C 98.44 103.532 98.584 102.58 98.602 101.868 C 98.602 101.868 99.525 101.26 100.349 101.285 C 102.03 101.147 103.938 102.268 105.654 103.281 C 106.66 103.875 107.913 104.574 108.912 105.116 C 109.412 105.387 109.857 105.624 110.177 105.788 C 110.338 105.871 110.48 105.942 110.578 105.988 C 110.631 106.014 110.694 106.042 110.738 106.059 C 110.768 106.071 110.832 106.094 110.875 106.106 C 110.912 106.116 111.012 106.135 111.077 106.14 C 111.212 106.149 111.625 105.955 111.909 105.785 C 112.025 105.397 112.128 104.92 112.1 104.83 C 112.087 104.792 112.065 104.735 112.054 104.712 C 112.041 104.682 112.019 104.638 112.003 104.607 C 111.975 104.555 111.934 104.479 111.886 104.396 C 111.794 104.233 111.66 103.999 111.497 103.719 C 111.171 103.159 110.722 102.392 110.233 101.552 C 109.255 99.869 108.129 97.907 107.515 96.695 C 106.434 94.563 105.219 92.1 105.349 89.925 C 105.342 88.822 105.762 88.151 106.044 87.532 C 106.798 87.51 107.797 87.33 108.709 88.024 C 109.744 88.682 111.118 89.452 111.118 89.452 L 112.119 90.012 L 112.532 88.956 C 112.532 88.956 113.365 86.83 113.48 84.063 C 113.472 82.45 114.332 81.001 115.498 79.717 C 116.535 78.375 117.544 78.354 118.437 78.09 C 119.191 78.402 120.33 78.374 121.373 79.717 C 122.539 81.001 123.399 82.45 123.391 84.063 C 123.506 86.83 124.339 88.956 124.339 88.956 L 124.752 90.012 L 125.753 89.452 C 125.753 89.452 127.128 88.682 128.163 88.023 C 129.075 87.33 130.074 87.51 130.828 87.532 C 130.828 87.532 131.529 88.822 131.523 89.926 C 131.653 92.101 130.438 94.563 129.357 96.695 C 128.743 97.907 127.617 99.869 126.639 101.552 C 126.15 102.392 125.701 103.159 125.375 103.719 C 125.212 103.999 125.077 104.232 124.985 104.395 C 124.938 104.479 124.896 104.554 124.869 104.606 C 124.853 104.637 124.831 104.68 124.818 104.71 C 124.807 104.733 124.785 104.789 124.773 104.826 C 124.744 104.914 124.718 105.497 124.955 105.781 C 125.155 106.022 125.659 106.149 125.794 106.14 C 125.859 106.135 125.959 106.116 125.996 106.106 C 126.039 106.094 126.103 106.071 126.133 106.059 C 126.177 106.042 126.24 106.014 126.293 105.988 C 126.391 105.942 126.533 105.871 126.694 105.788 C 127.014 105.624 127.459 105.387 127.959 105.116 C 128.958 104.574 130.212 103.874 131.219 103.281 C 132.934 102.267 134.842 101.147 136.522 101.285 C 137.347 101.26 137.79 101.612 138.269 101.868 C 138.287 102.579 138.432 103.532 137.871 104.402 C 137.339 105.375 136.718 106.665 136.718 106.665 L 136.274 107.59 L 137.191 108.002 C 137.191 108.002 138.963 108.796 141.251 108.918 C 142.353 108.768 143.32 110.385 144.468 111.588 C 145.387 112.487 145.563 113.023 145.769 113.533 L 145.649 113.675 L 145.775 113.845 C 145.523 114.42 145.306 115.049 144.353 115.989 C 143.205 117.193 142.353 118.656 141.251 118.506 C 138.963 118.627 137.191 119.423 137.191 119.423 L 136.274 119.834 L 136.718 120.759 C 136.718 120.759 137.339 122.049 137.871 123.022 C 138.432 123.892 138.287 124.845 138.269 125.556 C 138.269 125.556 137.346 126.164 136.522 126.139 C 134.842 126.277 132.933 125.155 131.218 124.143 C 129.308 123.028 125.281 119.356 125.281 119.356 L 124.982 119.083 L 124.624 119.096 C 124.624 119.096 123 119.157 122.189 119.584 C 121.837 119.873 121.611 120.115 121.455 120.336 C 121.102 119.467 120.773 118.56 120.468 117.616 C 121.172 117.322 121.812 116.902 122.308 116.41 C 123.283 115.443 123.95 113.912 124.028 112.424 C 124.02 110.931 123.419 109.383 122.483 108.408 C 121.546 107.431 120.025 106.733 118.548 106.733 C 117.075 106.733 115.54 107.422 114.564 108.39 C 113.589 109.357 112.922 110.889 112.844 112.376 C 112.852 113.869 113.452 115.418 114.388 116.393 C 114.894 116.919 115.569 117.364 116.315 117.663 C 116.02 118.574 115.703 119.448 115.363 120.289 C 115.218 120.086 115.006 119.859 114.682 119.584 Z M 123.281 121.26 C 123.532 120.995 123.875 121.074 124.205 121.077 C 125.163 121.932 128.128 124.63 130.202 125.865 C 131.947 126.895 134.403 128.154 136.602 128.137 C 137.889 128.028 139.743 127.018 139.743 127.018 L 140.226 126.755 L 140.24 126.205 C 140.24 126.205 140.308 123.464 139.625 122.062 C 139.117 121.137 139.193 121.247 139.002 120.868 C 139.581 120.693 139.427 120.529 141.321 120.504 C 143.191 120.25 144.731 118.48 145.797 117.373 C 146.95 116.117 147.619 114.537 147.725 114.311 C 147.797 114.207 147.862 114.077 147.881 114.014 C 147.911 113.918 147.927 113.765 147.927 113.712 C 147.927 113.654 147.908 113.488 147.873 113.386 C 147.857 113.337 147.813 113.252 147.76 113.169 C 147.685 113.008 147.09 111.495 145.912 110.204 C 144.846 109.097 143.191 107.174 141.321 106.92 C 139.427 106.894 139.582 106.731 139.002 106.556 C 139.193 106.176 139.117 106.288 139.625 105.363 C 140.308 103.96 140.24 101.219 140.24 101.219 L 140.226 100.669 L 139.743 100.406 C 139.743 100.406 137.889 99.396 136.602 99.287 C 134.402 99.27 131.946 100.529 130.201 101.559 C 129.625 101.899 128.968 102.274 128.324 102.633 C 128.338 102.608 128.353 102.582 128.368 102.557 C 129.349 100.87 130.503 98.856 131.141 97.599 C 132.236 95.439 133.557 92.49 133.521 89.857 C 133.423 88.342 132.368 86.122 132.368 86.122 L 132.113 85.586 L 131.533 85.57 C 131.533 85.57 128.597 85.488 127.089 86.337 C 126.104 86.966 126.232 86.866 125.831 87.102 C 125.628 86.35 125.432 86.422 125.391 84.003 C 125.271 81.932 124.157 79.846 122.863 78.383 C 121.209 76.716 119.324 76.36 118.841 76.125 L 118.464 75.941 L 118.066 76.11 C 117.388 76.398 115.669 76.715 114.008 78.383 C 112.714 79.845 111.6 81.932 111.48 84.003 C 111.439 86.422 111.243 86.349 111.04 87.101 C 110.64 86.866 110.769 86.966 109.784 86.337 C 108.274 85.489 105.339 85.57 105.339 85.57 L 104.759 85.586 L 104.504 86.122 C 104.504 86.122 103.448 88.342 103.351 89.857 C 103.315 92.49 104.636 95.439 105.731 97.599 C 106.369 98.856 107.523 100.87 108.504 102.557 C 108.519 102.582 108.534 102.608 108.548 102.633 C 107.904 102.274 107.247 101.899 106.67 101.559 C 104.924 100.528 102.468 99.27 100.269 99.287 C 98.983 99.396 97.128 100.406 97.128 100.406 L 96.645 100.669 L 96.631 101.219 C 96.631 101.219 96.564 103.96 97.247 105.362 C 97.754 106.287 97.679 106.176 97.87 106.556 C 97.29 106.731 97.445 106.893 95.55 106.92 C 93.68 107.174 92.025 109.097 90.959 110.204 C 89.781 111.495 89.186 113.008 89.111 113.169 C 89.058 113.252 89.014 113.337 88.998 113.386 C 88.963 113.488 88.944 113.654 88.944 113.712 C 88.944 113.765 88.96 113.918 88.99 114.014 C 89.009 114.077 89.074 114.207 89.146 114.311 C 89.252 114.537 89.921 116.117 91.074 117.373 C 92.14 118.479 93.68 120.25 95.55 120.504 C 97.445 120.529 97.29 120.693 97.87 120.868 C 97.679 121.247 97.754 121.136 97.247 122.062 C 96.564 123.464 96.631 126.205 96.631 126.205 L 96.645 126.755 L 97.128 127.018 C 97.128 127.018 98.983 128.028 100.269 128.137 C 102.469 128.154 104.925 126.895 106.67 125.865 C 108.743 124.63 111.708 121.931 112.666 121.077 C 112.996 121.074 113.339 120.995 113.59 121.26 C 114.058 121.404 114.186 122.408 114.219 122.811 C 112.719 125.761 110.839 128.232 108.453 130.306 C 102.934 135.242 94.041 137.222 87.262 136.267 C 78.307 135.107 73.546 131.634 69.89 128.394 C 68.143 126.861 66.724 125.49 65.558 124.239 C 66.568 123.646 67.489 122.931 68.284 122.123 C 70.645 119.723 72.191 116.21 72.191 112.539 C 72.191 108.868 70.645 105.355 68.284 102.955 C 65.922 100.554 62.452 98.977 58.832 98.977 C 55.212 98.977 51.742 100.554 49.379 102.955 C 47.018 105.354 45.472 108.868 45.472 112.539 C 45.472 116.21 47.018 119.724 49.379 122.123 C 51.067 123.838 53.32 125.133 55.788 125.732 C 54.886 128.676 53.443 131.688 50.898 134.392 C 48.259 137.392 40.259 139.666 35.677 138.213 C 30.083 136.595 26.332 133.564 23.441 130.422 L 23.578 129.459 C 23.689 129.516 23.819 129.589 23.977 129.681 C 24.847 130.189 25.981 131.022 26.768 131.345 C 28.465 131.917 30.294 131.642 30.294 131.642 L 30.923000000000002 131.547 L 31.065 130.936 C 31.065 130.936 31.611 128.589 31.01 127.012 C 30.432 125.836 29.949 125.421 29.404 124.785 C 30.019 124.207 30.558 123.852 31.228 122.708 C 32.108 121.033 32.586 117.384 32.586 117.384 L 32.644 116.939 L 32.34 116.6 C 32.34 116.6 29.355 113.265 27.433 111.966 C 26.219 111.185 25.505 111.02 24.731 110.743 C 24.81 109.806 25.024 108.802 24.6 107.388 C 24.163 106.294 22.602 104.751 22.602 104.751 L 21.91 104.066 L 21.212 104.772 C 21.212 104.772 19.275 106.732 18.563 107.971 C 17.866 109.313 17.72 110.736 17.268 111.807 L 16.657 113.334 C 16.582 111.852 16.653 110.063 16.949 108.38 C 17.252 106.629 17.943 102.947 18.618 101.411 C 18.851 100.741 18.842 99.557 18.717 98.685 C 18.591 97.804 18.257 96.784 18.035 96.463 L 17.769 96.079 L 17.181 96.181 C 17.181 96.181 14.277 96.686 13.462 97.27 C 12.965 97.687 13.015 97.658 12.792 97.86 C 11.967 97.264 10.733 96.308 9.454 95.612 C 10.762 86.367 17.77 77.062 25.856 72.685 C 35.917 67.238 58.857 63.293 58.857 63.293 C 58.857 63.293 68.662 57.712 77.703 53.496 C 79.244 55.342 81.294 56.865 83.451 57.529 C 87.76 58.595 91.488 56.194 91.488 56.194 C 91.353 56.834 91.496 56.402 91.012 58.218 C 90.452 60.526 91.264 64.935 91.264 64.935 L 91.478 66.102 L 92.595 65.68 C 92.595 65.68 94.459 64.975 96.242 64.635 C 98.955 63.955 100.958 61.233 102.561 58.515 C 104.164 55.8 105.508 53.07 107.41 51.967 C 107.855 51.566 107.897 51.762 108.236 51.751 L 107.785 53.29 C 107.458 54.684 106.208 55.679 104.807 56.908 C 103.405 58.138 101.851 59.6 101.214 61.458 C 100.782 63.65 103.172 67 103.172 67 L 103.417 67.344 L 103.872 67.375 C 103.872 67.375 107.028 67.59 108.592 67.067 C 110.076 66.521 110.507 66.267 111.305 65.889 C 111.636 66.977 111.834 68.025 112.702 69.383 C 114.872 72.261 118.701 72.555 118.701 72.555 C 118.701 72.555 122.573 72.261 124.742 69.383 C 125.61 68.025 125.808 66.977 126.139 65.889 C 126.937 66.267 127.367 66.521 128.853 67.067 C 130.417 67.59 133.573 67.375 133.573 67.375 L 134.028 67.344 L 134.273 67 C 134.273 67 136.663 63.65 136.231 61.458 C 135.594 59.6 134.04 58.138 132.638 56.908 C 131.237 55.679 129.987 54.683 129.66 53.29 L 129.208 51.751 C 129.548 51.762 129.59 51.566 130.035 51.967 C 131.937 53.07 133.281 55.8 134.884 58.515 C 136.487 61.233 138.49 63.955 141.202 64.635 C 142.986 64.975 144.85 65.68 144.85 65.68 L 145.967 66.102 L 146.181 64.935 C 146.181 64.935 146.993 60.527 146.433 58.219 C 145.949 56.403 146.092 56.834 145.956 56.194 C 147.978 57.094 149.684 58.595 153.994 57.529 C 156.151 56.865 158.201 55.342 159.742 53.496 C 168.783 57.712 178.588 63.293 178.588 63.293 C 178.588 63.293 201.528 67.238 211.589 72.685 C 219.791 77.125 226.757 86.221 227.852 95.388 C 226.422 96.089 224.998 97.198 224.08 97.861 C 223.856 97.658 223.907 97.688 223.409 97.271 C 222.594 96.687 219.69 96.181 219.69 96.181 L 219.102 96.079 L 218.836 96.463 C 218.614 96.784 218.28 97.805 218.154 98.686 C 218.03 99.558 218.02 100.742 218.252 101.411 C 218.927 102.946 219.619 106.629 219.923 108.381 C 220.219 110.065 220.29 111.853 220.215 113.336 L 219.604 111.808 C 219.151 110.736 219.006 109.314 218.307 107.971 C 217.595 106.731 215.66 104.773 215.66 104.773 L 214.963 104.067 L 214.27 104.751 C 214.27 104.751 212.708 106.295 212.271 107.39 C 211.848 108.803 212.061 109.807 212.14 110.744 C 211.366 111.02 210.652 111.185 209.438 111.966 C 207.517 113.265 204.531 116.601 204.531 116.601 L 204.228 116.94 L 204.286 117.385 C 204.286 117.385 204.763 121.032 205.642 122.707 C 206.313 123.853 206.852 124.208 207.467 124.785 C 206.922 125.421 206.44 125.836 205.861 127.013 C 205.26 128.589 205.806 130.937 205.806 130.937 L 205.948 131.548 L 206.578 131.643 C 206.578 131.643 208.406 131.918 210.103 131.346 C 210.89 131.023 212.025 130.189 212.895 129.681 C 213.052 129.589 213.183 129.516 213.293 129.459 L 213.421 130.353 C 210.521 133.519 206.756 136.583 201.121 138.213 C 196.54 139.666 188.54 137.392 185.9 134.392 C 183.36 131.693 181.918 128.687 181.015 125.749 C 183.511 125.156 185.789 123.854 187.492 122.123 C 189.853 119.723 191.399 116.21 191.399 112.539 C 191.399 108.868 189.853 105.355 187.492 102.955 C 185.13 100.554 181.66 98.977 178.04 98.977 C 174.42 98.977 170.95 100.554 168.587 102.955 C 166.226 105.354 164.68 108.868 164.68 112.539 C 164.68 116.21 166.226 119.724 168.587 122.123 C 169.37 122.919 170.275 123.624 171.266 124.211 C 170.095 125.47 168.668 126.849 166.908 128.394 C 163.253 131.634 158.491 135.107 149.537 136.267 C 142.757 137.222 133.863 135.242 128.346 130.306 C 125.942 128.216 124.052 125.724 122.547 122.745 C 122.634 122.278 122.852 121.415 123.281 121.26 Z M 213.591 147.265 C 210.823 146.958 207.071 146.56 202.749 146.144 C 207.452 145.169 212.29 141.735 216.723 137.116 Z M 181.964 144.488 C 173.417 143.973 164.47 143.576 156.372 143.299 C 159.223 142.644 161.881 141.578 164.665 140.231 C 168.4 138.411 172.643 135.188 174.558 133.784 C 177.618 137.451 182.812 142.093 186.331 144.062 C 186.917 144.379 187.515 144.656 188.123 144.9 C 186.086 144.751 184.024 144.612 181.964 144.488 Z M 134.07 142.831 L 103.802 142.831 C 103.273 142.833 102.745 142.835 102.217 142.838 C 108.272 141.084 113.623 137.013 118.399 132.159 C 123.169 137.007 128.512 141.073 134.559 142.831 C 134.393 142.831 134.23 142.831 134.07 142.831 Z M 55.913 144.487 L 55.613 144.504 L 55.61 144.506 L 55.913 144.506 C 53.441 144.684 50.881 144.866 48.269 145.057 C 49.017 144.778 49.752 144.449 50.468 144.062 C 53.987 142.093 59.181 137.451 62.24 133.784 C 64.156 135.188 68.399 138.411 72.134 140.231 C 74.962 141.6 77.659 142.678 80.563 143.33 C 72.337 143.634 64.119 144.047 55.913 144.487 Z M 23.761 147.263 L 20.799 137.924 C 25.062 142.186 29.719 145.318 34.235 146.184 C 30.696 146.505 27.177 146.86 23.761 147.263 Z M 111.62 24.083 C 111.378 23.654 111.314 23.335 111.171 23.047 C 110.67 22.897 110.295 22.659 109.997 22.277 C 109.702 21.897 109.551 21.515 109.405 21.114 C 108.731 20.653 108.149 20.219 107.763 19.375 C 107.112 19.268 106.892 18.981 106.614 18.582 C 106.34 18.188 106.233 17.876 106.086 17.543 C 106.086 17.543 105.018 17.327 104.486 16.871 C 103.977 16.337 103.774 15.524000000000001 103.653 15.132 L 100.698 13.112 L 100.834 12.772 C 100.834 12.772 101.456 11.217 102.076 10.595 C 102.528 10.183 103.248 9.871 103.746 9.673 C 104.02 9.225 104.39 8.677 104.805 8.34 C 105.036 8.17 105.36 8.015 105.686 7.886 L 105.822 8.044 L 106.029 7.761 C 106.14 7.724 106.246 7.6899999999999995 106.346 7.66 L 106.036 7.752 L 106.039 7.749 C 106.039 7.749 107.026 6.407 107.779 5.967 C 108.285 5.704 108.994 5.586 109.519 5.521 C 109.861 5.184 110.566 4.552 111.181 4.3 C 111.771 4.091 112.6 4.09 113.132 4.107 C 113.586 3.821 114.255 3.432 114.834 3.315 C 115.415 3.224 116.165 3.356 116.687 3.468 C 116.706 3.46 116.725 3.452 116.745 3.443 L 116.772 2.965 L 116.87 3.391 C 117.363 3.181 118.115 2.891 118.723 2.891 C 119.331 2.891 120.082 3.178 120.575 3.3890000000000002 L 120.673 2.965 L 120.7 3.442 C 120.72 3.451 120.74 3.459 120.758 3.468 C 121.28 3.355 122.03 3.224 122.611 3.315 C 123.19 3.432 123.859 3.821 124.313 4.107 C 124.816 4.082 125.674 4.091 126.264 4.3 C 126.878 4.553 127.539 5.154 127.925 5.521 C 128.45 5.587 129.16 5.704 129.665 5.967 C 130.419 6.407 131.406 7.749 131.406 7.749 L 131.408 7.752 L 131.099 7.66 C 131.198 7.6899999999999995 131.304 7.724 131.415 7.761 L 131.623 8.044 L 131.759 7.886 C 132.085 8.015 132.408 8.17 132.639 8.34 C 133.055 8.677 133.424 9.225 133.699 9.673 C 134.197 9.871 134.917 10.183 135.369 10.595 C 135.988 11.217 136.61 12.772 136.61 12.772 L 136.747 13.112 L 133.792 15.132 C 133.671 15.524000000000001 133.467 16.337 132.959 16.871 C 132.427 17.327 131.758 17.443 131.359 17.543 C 131.209 17.875 131.105 18.188 130.83 18.582 C 130.553 18.981 130.198 19.227 129.679 19.377 C 129.313 20.383 128.702 20.683 128.039 21.117 C 127.893 21.515 127.743 21.897 127.448 22.277 C 127.15 22.659 126.776 22.899 126.273 23.047 C 126.129 23.335 126.067 23.654 125.825 24.083 C 125.578 24.52 125.256 24.746 124.72 24.878 C 124.723 24.958 124.723 25.031 124.719 25.099 L 124.221 25.359 C 124.292 25.414 124.246 25.355 124.007 25.571 C 123.731 25.821 123.374 26.037 122.834 26.272 C 121.716 26.76 120.293 27.098 118.717 27.095 C 116.471 27.127 114.358 26.604 113.009 24.742 L 112.457 23.981 L 111.814 24.429 C 111.749 24.326 111.692 24.21 111.62 24.083 Z M 126.229 27.517 C 125.741 27.015 126.109 27.257 125.549 26.872 C 125.512 26.906 125.45 26.962 125.348 27.054 C 124.932 27.431 124.296 27.816 123.633 28.106 C 122.345 28.668 120.521 29.073 118.729 29.095 C 116.203 29.089 113.96 28.381 112.117 26.688 C 111.81 26.938 111.722 26.997 111.23 27.502 C 109.215 29.701999999999998 108.045 32.213 108.1 35.227 C 108.058 38.313 109.24 40.919 111.22 42.946 C 113.197 44.971 115.721 46.13 118.722 46.13 C 121.723 46.13 124.247 44.971 126.225 42.946 C 128.205 40.919 129.387 38.341 129.345 35.255 C 129.246 32.233 128.35 29.602 126.229 27.517 Z" style="fill: rgba(120, 94, 240, 0.75);"/>
</svg>