<?xml version="1.0" encoding="UTF-8" standalone="no"?>
<!-- Created with Inkscape (https://www.inkscape.org/) -->

<!-- ClipArt by Arvin61r58 (https://openclipart.org/user-detail/Arvin61r58) -->

<svg
   xmlns:dc="http://purl.org/dc/elements/1.1/"
   xmlns:cc="http://creativecommons.org/ns#"
   xmlns:rdf="http://www.w3.org/1999/02/22-rdf-syntax-ns#"
   xmlns:svg="http://www.w3.org/2000/svg"
   xmlns="http://www.w3.org/2000/svg"
   xmlns:sodipodi="http://sodipodi.sourceforge.net/DTD/sodipodi-0.dtd"
   xmlns:inkscape="http://www.inkscape.org/namespaces/inkscape"
   id="svg2178"
   version="1.1"
   viewBox="0 0 161.39581 17.561267"
   height="66.373291"
   width="609.99994"
   sodipodi:docname="horizontal-rule.svg"
   inkscape:version="0.92.1 r15371">
  <sodipodi:namedview
     pagecolor="#ffffff"
     bordercolor="#666666"
     borderopacity="1"
     objecttolerance="10"
     gridtolerance="10"
     guidetolerance="10"
     inkscape:pageopacity="0"
     inkscape:pageshadow="2"
     inkscape:window-width="1920"
     inkscape:window-height="1017"
     id="namedview44"
     showgrid="false"
     inkscape:zoom="1.4095769"
     inkscape:cx="549.30093"
     inkscape:cy="31.861232"
     inkscape:window-x="-8"
     inkscape:window-y="-8"
     inkscape:window-maximized="1"
     inkscape:current-layer="g2170" />
  <title
     id="title4079">Decorative Header 7</title>
  <defs
     id="defs2172" />
  <metadata
     id="metadata2175">
    <rdf:RDF>
      <cc:Work
         rdf:about="">
        <dc:format>image/svg+xml</dc:format>
        <dc:type
           rdf:resource="http://purl.org/dc/dcmitype/StillImage" />
        <dc:title>Decorative Header 7</dc:title>
        <dc:description>Decorative page divider, footer, header, etc.</dc:description>
        <dc:subject>
          <rdf:Bag>
            <rdf:li>divider</rdf:li>
            <rdf:li>DTP</rdf:li>
            <rdf:li>flourish</rdf:li>
            <rdf:li>footer</rdf:li>
            <rdf:li>header</rdf:li>
            <rdf:li>page</rdf:li>
            <rdf:li>rule</rdf:li>
          </rdf:Bag>
        </dc:subject>
        <dc:creator>
          <cc:Agent>
            <dc:title>Arvin61r58</dc:title>
          </cc:Agent>
        </dc:creator>
        <dc:publisher>
          <cc:Agent>
            <dc:title>Openclipart.org</dc:title>
          </cc:Agent>
        </dc:publisher>
        <dc:identifier>https://openclipart.org/</dc:identifier>
        <dc:source>https://openclipart.org/user-detail/Arvin61r58</dc:source>
        <cc:license
           rdf:resource="http://creativecommons.org/publicdomain/zero/1.0/" />
      </cc:Work>
      <cc:License
         rdf:about="http://creativecommons.org/publicdomain/zero/1.0/">
        <cc:permits
           rdf:resource="http://creativecommons.org/ns#Reproduction" />
        <cc:permits
           rdf:resource="http://creativecommons.org/ns#Distribution" />
        <cc:permits
           rdf:resource="http://creativecommons.org/ns#DerivativeWorks" />
      </cc:License>
    </rdf:RDF>
  </metadata>
  <g
     transform="translate(-24.302091,-139.71936)"
     id="layer1">
    <g
       id="g2170"
       transform="translate(1.5957555,-83.386573)">
      <title
         id="title2923">Decorative Header 7  --  by Arvin61r58</title>
      <g
         id="g113">
        <path
           id="path1665"
           transform="matrix(0.26458333,0,0,0.26458333,22.706336,223.10593)"
           d="M 304.99414 9.765625 L 297.71094 15.333984 C 293.70536 18.396876 289.42914 20.950967 288.20703 21.001953 C 286.98488 21.056378 289.30358 23.076439 293.35938 25.490234 C 297.41513 27.90403 301.29392 30.904659 301.98047 32.15625 C 302.66706 33.407954 304.02348 34.433594 304.99414 34.433594 C 304.99614 34.433594 304.99817 34.433632 305.00195 34.433594 C 305.00396 34.433632 305.00599 34.433594 305.00977 34.433594 C 305.98042 34.433594 307.33689 33.407954 308.02344 32.15625 C 308.70991 30.904659 312.58872 27.90403 316.64453 25.490234 C 320.70034 23.076439 323.01896 21.056718 321.79688 21.001953 C 320.57476 20.951307 316.29855 18.396876 312.29297 15.333984 L 305.00977 9.765625 L 305.00195 9.7695312 L 304.99414 9.765625 z M 5.6738281 11.310547 C 4.1079434 11.299208 5.2394709 13.77318 9.3671875 18.142578 C 19.69918 29.079548 24.99863 29.919412 84.314453 29.953125 C 116.75067 29.975802 141.15887 30.896662 142.91016 32.171875 L 142.91016 32.173828 C 144.56101 33.375982 148.66669 34.375684 152.0332 34.392578 C 158.67692 34.430373 166.85371 29.08932 164.39453 26.318359 C 163.55781 25.375859 139.1608 24.865017 110.17969 25.183594 C 55.179759 25.787978 47.857412 24.777434 41.142578 15.654297 C 38.721598 12.364785 37.966696 12.324845 34.193359 15.302734 C 28.332903 19.927931 19.063999 19.46529 11.341797 14.160156 C 8.5250542 12.225 6.6133658 11.319278 5.6738281 11.310547 z M 604.32617 11.310547 C 603.38662 11.318106 601.47493 12.225038 598.6582 14.160156 C 590.93602 19.46529 581.66714 19.927931 575.80664 15.302734 C 572.03331 12.324731 571.2784 12.364672 568.85742 15.654297 C 562.14256 24.777623 554.82022 25.788016 499.82031 25.183594 C 470.8392 24.86498 446.44218 25.375745 445.60547 26.318359 C 443.14628 29.089282 451.32311 34.432024 457.9668 34.394531 C 461.3333 34.379413 465.43898 33.375982 467.08984 32.173828 L 467.08984 32.171875 C 468.84101 30.8967 493.2493 29.973383 525.68555 29.953125 C 585.00134 29.919109 590.30079 29.079548 600.63281 18.142578 C 604.76051 13.77318 605.89203 11.296222 604.32617 11.310547 z M 305.00195 12.753906 L 306.72461 15.507812 C 307.67391 17.025179 309.54031 18.263672 310.87891 18.263672 C 312.21539 18.263672 313.30859 18.839221 313.30859 19.542969 C 313.30859 20.246641 314.13896 20.824219 315.1543 20.824219 C 316.16963 20.824219 317.00195 21.399843 317.00195 22.103516 C 317.00195 22.807264 316.16963 23.382815 315.1543 23.382812 C 314.13896 23.382812 313.30859 23.958361 313.30859 24.662109 C 313.30859 25.365857 312.15508 25.943359 310.74414 25.943359 C 309.23773 25.943359 307.62896 26.999213 306.84766 28.501953 C 306.1159 29.909374 305.28557 31.058594 305.00195 31.058594 C 304.71849 31.058594 303.88605 29.909374 303.1543 28.501953 C 302.37296 26.999213 300.76621 25.943359 299.25977 25.943359 C 297.84891 25.943359 296.69336 25.365857 296.69336 24.662109 C 296.69336 23.958361 295.86291 23.382813 294.84766 23.382812 C 293.83232 23.382812 293.00195 22.807264 293.00195 22.103516 C 293.00195 21.399843 293.83232 20.824219 294.84766 20.824219 C 295.86291 20.824219 296.69336 20.246641 296.69336 19.542969 C 296.69336 18.839221 297.78848 18.263672 299.125 18.263672 C 300.46356 18.263672 302.328 17.025179 303.27734 15.507812 L 305.00195 12.753906 z M 186.69141 14.267578 C 177.88504 14.214665 168.40173 20.869214 169.3125 29.392578 C 169.64842 32.536351 172.46885 37.238987 175.58008 39.841797 C 182.73769 45.829929 203.94919 46.127893 222.61328 40.501953 C 229.58072 38.401707 241.409 36.681641 248.89844 36.681641 C 260.14767 36.681641 264.38262 37.824148 273.25 43.25 C 285.85695 50.964129 291.26988 51.609173 299.18359 46.341797 C 301.93229 44.512279 303.46491 43.599301 305 43.601562 C 306.53509 43.599225 308.06771 44.512279 310.81641 46.341797 C 318.73013 51.609173 324.14305 50.964129 336.75 43.25 C 345.61738 37.824148 349.85233 36.681641 361.10156 36.681641 C 368.591 36.681641 380.41931 38.401707 387.38672 40.501953 C 406.05082 46.127893 427.26229 45.829929 434.41992 39.841797 C 437.53115 37.238987 440.35158 32.536351 440.6875 29.392578 C 441.59825 20.869214 432.11497 14.214627 423.30859 14.267578 C 419.86265 14.290255 416.52117 15.336284 413.94531 17.701172 C 410.11635 21.216586 410.11739 21.243887 414.0625 19.636719 C 423.40704 15.83013 428.24767 16.139531 433.60156 20.884766 C 439.86658 26.956955 439.87379 30.584048 433.80273 36.519531 C 427.34367 42.244306 412.64114 42.685324 392.05273 37.771484 C 384.34919 35.93282 370.13572 34.427734 360.46875 34.427734 C 345.68724 34.427734 341.32187 35.324056 333.01953 40.064453 C 321.66322 46.5488 317.33109 47.025611 311.89258 42.390625 C 308.30343 39.331853 308.28041 39.074068 311.58984 39.007812 C 313.5597 38.965488 318.70109 36.907974 323.01562 34.427734 C 330.05983 30.378424 334.80976 29.917969 369.56055 29.917969 C 394.5893 29.917969 409.02308 30.779531 410.41992 32.353516 C 411.77311 33.878215 416.04146 34.200218 421.84961 33.21875 C 430.77549 31.710605 434.82667 28.888726 432.24219 25.976562 C 431.56482 25.21318 408.34116 24.85364 380.63477 25.177734 C 331.82923 25.74867 329.96173 25.937466 320.70117 31.224609 C 314.6729 34.666701 309.83628 36.387815 305 36.386719 C 300.16368 36.387815 295.32708 34.666701 289.29883 31.224609 C 280.03831 25.937466 278.17076 25.74867 229.36523 25.177734 C 201.65883 24.853451 178.4353 25.215183 177.75781 25.976562 C 175.17331 28.888726 179.2245 31.710605 188.15039 33.21875 C 193.95853 34.200218 198.22691 33.878215 199.58008 32.353516 C 200.97694 30.779531 215.41068 29.917969 240.43945 29.917969 C 275.19021 29.917969 279.94013 30.378424 286.98438 34.427734 C 291.29891 36.907974 296.4403 38.965261 298.41016 39.007812 C 301.71959 39.073954 301.69657 39.332193 298.10742 42.390625 C 292.66891 47.025611 288.33674 46.5488 276.98047 40.064453 C 268.67809 35.324056 264.31276 34.427734 249.53125 34.427734 C 239.86428 34.427734 225.65083 35.93282 217.94727 37.771484 C 197.35887 42.685324 182.65633 42.244306 176.19727 36.519531 C 170.1263 30.584048 170.13339 26.956955 176.39844 20.884766 C 181.75233 16.139531 186.59295 15.83013 195.9375 19.636719 C 199.88264 21.243887 199.88362 21.216586 196.05469 17.701172 C 193.47884 15.336284 190.13739 14.288328 186.69141 14.267578 z M 8.6289062 14.496094 C 9.3009705 14.35096 11.445085 15.432633 13.800781 17.150391 C 16.493003 19.113515 19.42141 20.722656 20.308594 20.722656 C 21.195777 20.722656 22.164796 21.268864 22.462891 21.9375 C 22.760982 22.605985 23.967224 23.154297 25.144531 23.154297 C 26.321843 23.154297 27.287109 23.702495 27.287109 24.371094 C 27.287109 25.039654 26.125499 25.585938 24.707031 25.585938 C 23.288559 25.585938 21.884026 25.039654 21.585938 24.371094 C 21.287846 23.702495 20.34465 23.154297 19.490234 23.154297 C 18.635815 23.154297 16.194055 21.91389 14.0625 20.402344 C 8.5770259 16.51253 7.9052225 15.828127 8.4355469 14.638672 C 8.4680508 14.566483 8.5329065 14.516881 8.6289062 14.496094 z M 601.37109 14.496094 C 601.46709 14.516881 601.53044 14.566483 601.56445 14.638672 C 602.09476 15.828127 601.42299 16.51253 595.9375 20.402344 C 593.80596 21.91389 591.36417 23.154297 590.50977 23.154297 C 589.65533 23.154297 588.71227 23.702495 588.41406 24.371094 C 588.11597 25.039654 586.71146 25.585938 585.29297 25.585938 C 583.87451 25.585938 582.71289 25.039654 582.71289 24.371094 C 582.71289 23.702495 583.67815 23.154297 584.85547 23.154297 C 586.03275 23.154297 587.2389 22.605985 587.53711 21.9375 C 587.8352 21.268864 588.80424 20.722656 589.69141 20.722656 C 590.57861 20.722656 593.50702 19.113515 596.19922 17.150391 C 598.55492 15.432633 600.69902 14.35096 601.37109 14.496094 z M 37.396484 15.162109 C 37.952449 15.135653 38.318907 16.596578 39.371094 18.025391 C 40.549044 19.624962 42.946267 21.859551 44.697266 22.990234 C 46.448268 24.120918 48.42898 24.69551 48.40625 25.273438 C 48.351938 26.654321 45.699835 26.831942 43.328125 25.294922 C 40.9564 23.756049 38.298706 21.323035 37.099609 19.128906 C 36.022459 17.157958 36.681541 15.197713 37.396484 15.162109 z M 572.60352 15.162109 C 573.31841 15.197713 573.97752 17.157958 572.90039 19.128906 C 571.7013 21.323035 569.04358 23.756049 566.67188 25.294922 C 564.30015 26.831942 561.64818 26.654324 561.59375 25.273438 C 561.571 24.69551 563.55175 24.120918 565.30273 22.990234 C 567.05375 21.859551 569.45094 19.624962 570.62891 18.025391 C 571.68109 16.596578 572.04755 15.135653 572.60352 15.162109 z M 31.136719 20.007812 C 32.442016 20.099277 34.071897 20.888945 34.566406 21.998047 C 35.397963 23.863244 33.679436 24.46257 31.207031 23.167969 C 29.929528 22.499106 29.139179 21.37759 29.451172 20.677734 C 29.686599 20.149697 30.353555 19.952749 31.136719 20.007812 z M 578.86328 20.007812 C 579.64644 19.952746 580.31336 20.149697 580.54883 20.677734 C 580.86083 21.37759 580.07045 22.499106 578.79297 23.167969 C 576.32055 24.46257 574.60202 23.863244 575.43359 21.998047 C 575.92811 20.888945 577.55798 20.099277 578.86328 20.007812 z "
           style="fill:#000000;stroke-width:2.01509142" />
        <g
           transform="translate(-0.04784557,-0.26458333)"
           id="g1759">
          <path
             d="m 71.395394,235.42536 c 0.66507,-0.0212 0.99752,0.93935 0.3045,1.2874 -1.11294,0.55894 -2.476179,-0.10749 -3.422709,-0.80881 -0.94493,-0.7038 -1.55025,-1.76858 -1.6885,-2.87093 v 0 c -0.10572,-0.84922 0.063,-1.70778 0.45358,-2.42503 -0.27871,0.76766 -0.3038,1.60501 -0.0925,2.3534 v 0 c 0.2729,0.96989 0.9525,1.79273 1.78467,2.23135 v 0 c 0.83057,0.44109 1.787679,0.26054 2.660999,0.23262 z"
             id="path1732"
             style="fill:#000000;fill-rule:evenodd;stroke:none;stroke-width:0.26458332" />
          <path
             style="fill:#000000;fill-rule:evenodd;stroke:none;stroke-width:0.26458332"
             id="path1755"
             d="m 135.50879,235.42536 c -0.66507,-0.0212 -0.99752,0.93935 -0.3045,1.2874 1.11294,0.55894 2.47618,-0.10749 3.42271,-0.80881 0.94493,-0.7038 1.55025,-1.76858 1.6885,-2.87093 v 0 c 0.10572,-0.84922 -0.063,-1.70778 -0.45358,-2.42503 0.27871,0.76766 0.3038,1.60501 0.0925,2.3534 v 0 c -0.2729,0.96989 -0.9525,1.79273 -1.78467,2.23135 v 0 c -0.83057,0.44109 -1.78768,0.26054 -2.661,0.23262 z" />
        </g>
        <g
           id="g1855">
          <g
             id="g1780"
             transform="translate(0.66509484)">
            <path
               id="path870"
               d="m 38.816635,228.78451 c -0.400281,-0.1233 -0.899822,-0.46475 -0.90062,-0.61563 -0.0013,-0.28548 0.62882,-0.79042 1.318239,-1.05592 1.82299,-0.60503 3.059651,-0.77574 5.534196,-0.8605 2.666842,-0.10908 4.923351,0.28203 6.615414,0.57288 1.398725,0.28418 2.405119,0.70427 3.462592,0.98509 0.919924,0.24349 1.479983,0.35385 1.996355,0.3934 1.664489,0.12749 2.633977,0.0266 3.244875,-0.33774 0.592658,-0.35344 0.38268,-0.68516 -0.62757,-0.99144 -0.656261,-0.19896 -1.352326,-0.28362 -2.381188,-0.28961 -0.913489,-0.005 -1.405931,0.0612 -1.405931,0.19006 0,0.12949 -0.438226,0.19524 -0.889639,0.13348 -1.020327,-0.29881 0.51366,-0.6705 1.606737,-0.70216 1.835328,-0.0365 3.540127,0.31291 4.341302,0.60847 1.390535,0.51799 1.318105,1.2118 -0.163526,1.56541 -3.745295,0.82172 -6.927019,0.0996 -9.643743,-0.56986 -3.439432,-1.02072 -9.944579,-1.20052 -11.814287,0.23173 -0.170706,0.13078 -0.154487,0.22862 0.0013,0.40105 0.330403,0.3658 0.215908,0.49847 -0.294509,0.34129 z"
               style="fill:#000000;stroke-width:0.99999988" />
            <path
               style="fill:#000000;stroke-width:0.99999988"
               d="m 166.66167,228.78451 c 0.40028,-0.1233 0.89982,-0.46475 0.90062,-0.61563 0.001,-0.28548 -0.62882,-0.79042 -1.31824,-1.05592 -1.82301,-0.60503 -3.05967,-0.77574 -5.53423,-0.8605 -2.66686,-0.10908 -4.92338,0.28203 -6.61545,0.57288 -1.39874,0.28418 -2.40514,0.70427 -3.46262,0.98509 -0.91993,0.24349 -1.47999,0.35385 -1.99636,0.3934 -1.6645,0.12749 -2.63399,0.0266 -3.2449,-0.33774 -0.59266,-0.35344 -0.38268,-0.68516 0.62758,-0.99144 0.65626,-0.19896 1.35233,-0.28362 2.3812,-0.28961 0.9135,-0.005 1.40594,0.0612 1.40594,0.19006 0,0.12949 0.43823,0.19524 0.88964,0.13348 1.02034,-0.29881 -0.51366,-0.6705 -1.60674,-0.70216 -1.83534,-0.0365 -3.54015,0.31291 -4.34133,0.60847 -1.39054,0.51799 -1.31811,1.2118 0.16353,1.56541 3.74531,0.82172 6.92705,0.0996 9.6438,-0.56986 3.43945,-1.02072 9.94463,-1.20052 11.81435,0.23173 0.17071,0.13078 0.15449,0.22862 -0.001,0.40105 -0.33041,0.3658 -0.21591,0.49847 0.29451,0.34129 z"
               id="path1776" />
          </g>
          <g
             id="g1841"
             transform="translate(1.0500449)">
            <g
               transform="translate(-5.291666,-17.386903)"
               id="g1823">
              <path
                 style="fill:#000000;stroke:none;stroke-width:0.10999523px;stroke-linecap:butt;stroke-linejoin:miter;stroke-opacity:1"
                 d="m 50.41328,242.16392 c 0.0937,-0.0259 0.69743,0.60849 0.32689,1.91764 -0.16505,0.57347 -0.44942,1.08869 -0.80839,1.65092 -0.14884,0.24042 -0.30421,0.47622 -0.44472,0.71114 -0.1326,0.2217 -0.24328,0.42924 -0.32494,0.63791 -0.18172,0.44867 -0.20993,0.90384 -0.11988,1.28014 0.16065,0.89902 0.79011,1.62527 0.6379,1.73768 0.007,-0.005 -0.92784,-0.18259 -1.4996,-1.44372 -0.22779,-0.55487 -0.27941,-1.25518 -0.031,-1.95377 0.1046,-0.28804 0.23803,-0.55836 0.38994,-0.81815 0.15997,-0.27355 0.33416,-0.52452 0.49377,-0.74836 0.39275,-0.56804 0.65776,-0.91271 0.87477,-1.36227 0.4157,-0.83603 0.32974,-1.56059 0.50522,-1.60916 z"
                 id="path830-3" />
              <path
                 id="path837"
                 d="m 53.04381,242.16392 c 0.0937,-0.0259 0.69744,0.60849 0.3269,1.91764 -0.16506,0.57347 -0.44942,1.08869 -0.80839,1.65092 -0.14884,0.24042 -0.30421,0.47622 -0.44472,0.71114 -0.1326,0.2217 -0.24328,0.42924 -0.32494,0.63791 -0.18172,0.44867 -0.20993,0.90384 -0.11988,1.28014 0.16064,0.89902 0.79011,1.62527 0.6379,1.73768 0.007,-0.005 -0.92784,-0.18259 -1.4996,-1.44372 -0.2278,-0.55487 -0.27941,-1.25518 -0.031,-1.95377 0.1046,-0.28804 0.23803,-0.55836 0.38994,-0.81815 0.15997,-0.27355 0.33416,-0.52452 0.49377,-0.74836 0.39276,-0.56804 0.65776,-0.91271 0.87477,-1.36227 0.4157,-0.83603 0.32974,-1.56059 0.50522,-1.60916 z"
                 style="fill:#000000;stroke:none;stroke-width:0.10999523px;stroke-linecap:butt;stroke-linejoin:miter;stroke-opacity:1" />
              <path
                 style="fill:#000000;stroke:none;stroke-width:0.10999523px;stroke-linecap:butt;stroke-linejoin:miter;stroke-opacity:1"
                 d="m 55.73553,242.16392 c 0.0937,-0.0259 0.69743,0.60849 0.3269,1.91764 -0.16506,0.57347 -0.44943,1.08869 -0.80839,1.65092 -0.14884,0.24042 -0.30422,0.47622 -0.44472,0.71114 -0.1326,0.2217 -0.24329,0.42924 -0.32494,0.63791 -0.18172,0.44867 -0.20994,0.90384 -0.11989,1.28014 0.16065,0.89902 0.79011,1.62527 0.63791,1.73768 0.007,-0.005 -0.92784,-0.18259 -1.4996,-1.44372 -0.2278,-0.55487 -0.27941,-1.25518 -0.031,-1.95377 0.1046,-0.28804 0.23802,-0.55836 0.38994,-0.81815 0.15997,-0.27355 0.33416,-0.52452 0.49376,-0.74836 0.39276,-0.56804 0.65776,-0.91271 0.87478,-1.36227 0.41569,-0.83603 0.32974,-1.56059 0.50521,-1.60916 z"
                 id="path839-1" />
            </g>
            <g
               id="g1831"
               transform="matrix(-1,0,0,1,210.00007,-17.386903)">
              <path
                 id="path1825"
                 d="m 50.41328,242.16392 c 0.0937,-0.0259 0.69743,0.60849 0.32689,1.91764 -0.16505,0.57347 -0.44942,1.08869 -0.80839,1.65092 -0.14884,0.24042 -0.30421,0.47622 -0.44472,0.71114 -0.1326,0.2217 -0.24328,0.42924 -0.32494,0.63791 -0.18172,0.44867 -0.20993,0.90384 -0.11988,1.28014 0.16065,0.89902 0.79011,1.62527 0.6379,1.73768 0.007,-0.005 -0.92784,-0.18259 -1.4996,-1.44372 -0.22779,-0.55487 -0.27941,-1.25518 -0.031,-1.95377 0.1046,-0.28804 0.23803,-0.55836 0.38994,-0.81815 0.15997,-0.27355 0.33416,-0.52452 0.49377,-0.74836 0.39275,-0.56804 0.65776,-0.91271 0.87477,-1.36227 0.4157,-0.83603 0.32974,-1.56059 0.50522,-1.60916 z"
                 style="fill:#000000;stroke:none;stroke-width:0.10999523px;stroke-linecap:butt;stroke-linejoin:miter;stroke-opacity:1" />
              <path
                 style="fill:#000000;stroke:none;stroke-width:0.10999523px;stroke-linecap:butt;stroke-linejoin:miter;stroke-opacity:1"
                 d="m 53.04381,242.16392 c 0.0937,-0.0259 0.69744,0.60849 0.3269,1.91764 -0.16506,0.57347 -0.44942,1.08869 -0.80839,1.65092 -0.14884,0.24042 -0.30421,0.47622 -0.44472,0.71114 -0.1326,0.2217 -0.24328,0.42924 -0.32494,0.63791 -0.18172,0.44867 -0.20993,0.90384 -0.11988,1.28014 0.16064,0.89902 0.79011,1.62527 0.6379,1.73768 0.007,-0.005 -0.92784,-0.18259 -1.4996,-1.44372 -0.2278,-0.55487 -0.27941,-1.25518 -0.031,-1.95377 0.1046,-0.28804 0.23803,-0.55836 0.38994,-0.81815 0.15997,-0.27355 0.33416,-0.52452 0.49377,-0.74836 0.39276,-0.56804 0.65776,-0.91271 0.87477,-1.36227 0.4157,-0.83603 0.32974,-1.56059 0.50522,-1.60916 z"
                 id="path1827" />
              <path
                 id="path1829"
                 d="m 55.73553,242.16392 c 0.0937,-0.0259 0.69743,0.60849 0.3269,1.91764 -0.16506,0.57347 -0.44943,1.08869 -0.80839,1.65092 -0.14884,0.24042 -0.30422,0.47622 -0.44472,0.71114 -0.1326,0.2217 -0.24329,0.42924 -0.32494,0.63791 -0.18172,0.44867 -0.20994,0.90384 -0.11989,1.28014 0.16065,0.89902 0.79011,1.62527 0.63791,1.73768 0.007,-0.005 -0.92784,-0.18259 -1.4996,-1.44372 -0.2278,-0.55487 -0.27941,-1.25518 -0.031,-1.95377 0.1046,-0.28804 0.23802,-0.55836 0.38994,-0.81815 0.15997,-0.27355 0.33416,-0.52452 0.49376,-0.74836 0.39276,-0.56804 0.65776,-0.91271 0.87478,-1.36227 0.41569,-0.83603 0.32974,-1.56059 0.50521,-1.60916 z"
                 style="fill:#000000;stroke:none;stroke-width:0.10999523px;stroke-linecap:butt;stroke-linejoin:miter;stroke-opacity:1" />
            </g>
          </g>
        </g>
        <g
           transform="translate(-0.01207732)"
           id="g1891">
          <path
             style="fill:#000000;fill-opacity:1;fill-rule:evenodd;stroke:none;stroke-width:0.26458332"
             id="path1773"
             d="m 75.692832,224.98449 c -0.479328,-0.51955 -1.285563,-0.55202 -1.805113,-0.0727 -0.519559,0.47934 -0.552022,1.28556 -0.07274,1.80512 0.479328,0.51956 1.289764,0.55659 1.809319,0.0773 0.51956,-0.47932 0.54782,-1.2901 0.06851,-1.80968 z m -3.18047,-0.24659 c -0.359498,-0.38966 -0.968553,-0.41418 -1.358223,-0.0546 -0.389659,0.3595 -0.414176,0.96856 -0.0547,1.35822 0.359497,0.38967 0.964361,0.40961 1.354006,0.0501 0.389679,-0.3595 0.418378,-0.96401 0.05891,-1.35366 z m -2.598198,0.76865 c -0.269616,-0.29225 -0.724227,-0.31054 -1.016475,-0.041 -0.292249,0.26962 -0.310531,0.72423 -0.04097,1.01648 0.269627,0.29224 0.724233,0.31054 1.016477,0.041 0.292247,-0.26961 0.310541,-0.72423 0.04097,-1.01647 z m -1.496082,1.62491 c -0.202219,-0.21919 -0.54315,-0.23295 -0.762362,-0.0307 -0.219183,0.20222 -0.232889,0.54319 -0.03073,0.76236 0.202214,0.21919 0.543181,0.23288 0.762353,0.0307 0.219192,-0.20222 0.232957,-0.54315 0.03073,-0.76236 z" />
          <path
             d="m 131.13978,224.98449 c 0.47933,-0.51955 1.28556,-0.55202 1.80512,-0.0727 0.51956,0.47934 0.55202,1.28556 0.0727,1.80512 -0.47933,0.51956 -1.28977,0.55659 -1.80933,0.0773 -0.51956,-0.47932 -0.54782,-1.2901 -0.0685,-1.80968 z m 3.18048,-0.24659 c 0.3595,-0.38966 0.96856,-0.41418 1.35823,-0.0546 0.38966,0.3595 0.41418,0.96856 0.0547,1.35822 -0.35949,0.38967 -0.96436,0.40961 -1.35401,0.0501 -0.38968,-0.3595 -0.41838,-0.96401 -0.0589,-1.35366 z m 2.59822,0.76865 c 0.26961,-0.29225 0.72423,-0.31054 1.01648,-0.041 0.29225,0.26962 0.31053,0.72423 0.041,1.01648 -0.26963,0.29224 -0.72424,0.31054 -1.01649,0.041 -0.29225,-0.26961 -0.31054,-0.72423 -0.041,-1.01647 z m 1.49608,1.62491 c 0.20223,-0.21919 0.54316,-0.23295 0.76237,-0.0307 0.21919,0.20222 0.23289,0.54319 0.0307,0.76236 -0.20221,0.21919 -0.54318,0.23288 -0.76236,0.0307 -0.21919,-0.20222 -0.23295,-0.54315 -0.0307,-0.76236 z"
             id="path1887"
             style="fill:#000000;fill-opacity:1;fill-rule:evenodd;stroke:none;stroke-width:0.26458332" />
        </g>
        <g
           transform="translate(-0.21914035,-0.52916667)"
           id="g1903">
          <path
             style="fill:#000000;fill-opacity:1;fill-rule:evenodd;stroke:none;stroke-width:0.26458332"
             id="path1773-9"
             d="m 94.602957,238.6694 c 0.386827,0.59166 1.176599,0.75697 1.768262,0.37007 0.591658,-0.38681 0.756979,-1.17659 0.370207,-1.76824 -0.386829,-0.59166 -1.179987,-0.76218 -1.771643,-0.37535 -0.591661,0.38683 -0.753587,1.18178 -0.366778,1.77344 z m 3.095924,0.76905 c 0.290126,0.44373 0.886745,0.56861 1.330477,0.27857 0.443734,-0.29012 0.568615,-0.88674 0.278515,-1.33047 -0.290119,-0.44376 -0.883364,-0.56343 -1.327086,-0.2733 -0.443754,0.29012 -0.572007,0.88157 -0.281917,1.32529 z m 2.689529,-0.32849 c 0.21759,0.33281 0.66292,0.42601 0.99571,0.20847 0.33281,-0.21759 0.42601,-0.66292 0.20847,-0.99571 -0.21759,-0.33282 -0.66291,-0.42602 -0.99571,-0.20847 -0.3328,0.21757 -0.42601,0.66291 -0.20847,0.9957 z m 1.74416,-1.35519 c 0.16319,0.24961 0.49715,0.31956 0.74678,0.15636 0.2496,-0.1632 0.31949,-0.4972 0.15635,-0.74678 -0.16318,-0.24961 -0.49719,-0.31949 -0.74677,-0.15635 -0.24961,0.16319 -0.31956,0.49715 -0.15636,0.74677 z" />
          <path
             d="m 112.64382,238.6694 c -0.38683,0.59166 -1.1766,0.75697 -1.76826,0.37007 -0.59166,-0.38681 -0.75698,-1.17659 -0.37021,-1.76824 0.38683,-0.59166 1.17999,-0.76218 1.77164,-0.37535 0.59166,0.38683 0.75359,1.18178 0.36678,1.77344 z m -3.09593,0.76905 c -0.29012,0.44373 -0.88675,0.56861 -1.33048,0.27857 -0.44374,-0.29012 -0.56862,-0.88674 -0.27852,-1.33047 0.29012,-0.44376 0.88337,-0.56343 1.3271,-0.2733 0.44375,0.29012 0.57201,0.88157 0.28191,1.32529 z m -2.68954,-0.32849 c -0.21759,0.33281 -0.66292,0.42601 -0.99572,0.20847 -0.33281,-0.21759 -0.42601,-0.66292 -0.20847,-0.99571 0.21759,-0.33282 0.66292,-0.42602 0.99572,-0.20847 0.3328,0.21757 0.42601,0.66291 0.20847,0.9957 z m -1.74417,-1.35519 c -0.16319,0.24961 -0.49715,0.31956 -0.74679,0.15636 -0.2496,-0.1632 -0.31949,-0.4972 -0.15635,-0.74678 0.16318,-0.24961 0.4972,-0.31949 0.74678,-0.15635 0.24961,0.16319 0.31956,0.49715 0.15636,0.74677 z"
             id="path1899"
             style="fill:#000000;fill-opacity:1;fill-rule:evenodd;stroke:none;stroke-width:0.26458332" />
        </g>
        <path
           id="path1923"
           d="m 103.40457,227.26169 c -0.13432,0 -0.24426,0.30418 -0.24426,0.67656 0,0.56422 -0.16302,0.67723 -0.97708,0.67723 -0.53726,0 -0.97659,0.15242 -0.97659,0.3386 0,0.1862 0.43933,0.33862 0.97659,0.33862 0.81406,0 0.97708,0.11288 0.97708,0.6772 0,0.37238 0.10994,0.67722 0.24426,0.67722 0.13432,0 0.24427,-0.30484 0.24427,-0.67722 0,-0.56427 0.16301,-0.6772 0.97707,-0.6772 0.53727,0 0.97659,-0.15242 0.97659,-0.33862 0,-0.18618 -0.43932,-0.3386 -0.97659,-0.3386 -0.81406,0 -0.97707,-0.11301 -0.97707,-0.67723 0,-0.37238 -0.10995,-0.67656 -0.24427,-0.67656 z"
           style="fill:#000000;stroke-width:0.26458332"
           inkscape:connector-curvature="0" />
      </g>
    </g>
  </g>
</svg>
