<?xml version="1.0" encoding="utf-8"?>
<svg version="1.1" xmlns="http://www.w3.org/2000/svg">
  <path d="M 149.033 33.802 C 151.128 33.736 152.176 36.759 149.994 37.855 C 146.488 39.616 142.195 37.518 139.213 35.307 C 136.236 33.093 134.331 29.739 133.896 26.268 L 133.896 26.268 C 133.562 23.591 134.095 20.888 135.323 18.627 C 134.444 21.046 134.366 23.682 135.033 26.041 L 135.033 26.041 C 135.89 29.096 138.032 31.688 140.652 33.068 L 140.652 33.068 C 143.269 34.457 146.284 33.89 149.033 33.802 Z M 350.966 33.802 C 348.872 33.736 347.823 36.759 350.005 37.855 C 353.511 39.616 357.804 37.518 360.787 35.307 C 363.763 33.093 365.668 29.739 366.103 26.268 L 366.103 26.268 C 366.437 23.591 365.905 20.888 364.676 18.627 C 365.552 21.046 365.634 23.682 364.966 26.041 L 364.966 26.041 C 364.106 29.096 361.968 31.688 359.347 33.068 L 359.347 33.068 C 356.73 34.457 353.716 33.89 350.966 33.802 Z M 86.504 1.096 C 86.797 1.015 88.7 3.014 87.531 7.137 C 87.506 7.229 87.478 7.32 87.449 7.408 C 87.72 7.455 87.988 7.503 88.252 7.547 C 92.655 8.444 95.827 9.767 99.156 10.652 C 102.054 11.418 103.818 11.764 105.446 11.89 C 110.687 12.29 113.742 11.975 115.663 10.825 C 117.531 9.714 116.87 8.668 113.688 7.704 C 111.622 7.077 109.43 6.81 106.189 6.791 C 103.311 6.775 101.761 6.983 101.761 7.389 C 101.761 7.799 100.381 8.003 98.958 7.811 C 95.745 6.87 100.577 5.698 104.019 5.597 C 109.799 5.484 115.169 6.583 117.692 7.515 C 122.073 9.147 121.843 11.333 117.178 12.444 C 105.38 15.033 95.361 12.759 86.804 10.652 C 86.577 10.586 86.35 10.52 86.114 10.454 C 85.774 11.074 85.396 11.695 84.986 12.337 C 84.517 13.093 84.029 13.836 83.585 14.577 C 83.169 15.273 82.819 15.928 82.561 16.586 C 82.523 16.681 82.485 16.775 82.451 16.873 C 84.126 16.857 85.859 16.838 87.651 16.819 C 111.802 16.555 132.132 16.98 132.829 17.764 C 134.879 20.076 128.063 24.526 122.526 24.495 C 119.723 24.479 116.299 23.647 114.926 22.646 L 114.926 22.643 C 113.774 21.805 100.889 21.15 82.243 20.901 C 82.822 23.6 84.659 25.748 84.193 26.092 C 84.215 26.076 81.273 25.515 79.471 21.544 C 79.38 21.323 79.301 21.099 79.229 20.866 C 77.446 20.847 75.616 20.832 73.745 20.819 C 74.306 23.556 76.183 25.745 75.717 26.092 C 75.739 26.076 72.794 25.515 70.993 21.544 C 70.895 21.304 70.807 21.059 70.731 20.803 C 69.21 20.797 67.663 20.794 66.095 20.794 C 65.881 20.794 65.667 20.794 65.456 20.794 C 66.01 23.544 67.9 25.742 67.43 26.092 C 67.452 26.076 64.508 25.515 62.709 21.544 C 62.608 21.301 62.52 21.049 62.445 20.791 C 16.442 20.725 12.032 19.836 3.639 10.951 C 0.199 7.311 -0.742 5.251 0.561 5.26 C 1.346 5.266 2.939 6.022 5.286 7.635 C 11.72 12.054 19.443 12.441 24.328 8.586 C 27.472 6.104 28.101 6.139 30.12 8.879 C 34.451 14.766 39.087 16.599 62.218 16.892 C 62.303 16.394 62.432 15.893 62.612 15.389 C 62.939 14.482 63.361 13.632 63.84 12.813 C 64.341 11.95 64.892 11.159 65.393 10.457 C 66.026 9.537 66.555 8.807 67.012 8.12 C 59.541 8.079 52.627 9.055 49.594 11.38 C 49.056 11.792 49.106 12.101 49.597 12.643 C 50.637 13.796 50.278 14.214 48.668 13.72 C 47.408 13.329 45.837 12.255 45.834 11.78 C 45.827 10.879 47.815 9.292 49.985 8.454 C 55.727 6.548 59.623 6.01 67.415 5.745 C 67.733 5.733 68.048 5.72 68.36 5.714 C 69.43 3.276 69.219 1.241 69.739 1.096 C 69.997 1.024 71.487 2.545 71.071 5.688 C 72.974 5.707 74.8 5.802 76.542 5.94 C 77.726 3.405 77.487 1.248 78.026 1.096 C 78.3 1.021 79.931 2.712 79.276 6.205 C 81.134 6.413 82.885 6.665 84.514 6.923 C 84.652 6.677 84.785 6.426 84.911 6.164 C 86.221 3.531 85.95 1.251 86.504 1.096 Z M 79.374 15.389 C 79.701 14.482 80.123 13.632 80.602 12.813 C 81.106 11.95 81.654 11.159 82.158 10.457 C 82.353 10.17 82.542 9.906 82.719 9.651 C 81.348 9.374 79.9 9.131 78.4 8.926 C 77.9 10.06 77.254 11.166 76.508 12.337 C 76.041 13.093 75.55 13.836 75.109 14.577 C 74.69 15.273 74.341 15.928 74.086 16.586 C 74.038 16.699 73.997 16.816 73.956 16.929 C 75.563 16.923 77.238 16.914 78.98 16.901 C 79.065 16.4 79.194 15.893 79.374 15.389 Z M 70.895 15.389 C 71.226 14.482 71.645 13.632 72.123 12.813 C 72.627 11.95 73.175 11.159 73.679 10.457 C 74.189 9.72 74.63 9.103 75.021 8.533 C 73.5 8.385 71.956 8.274 70.41 8.205 C 69.881 9.6 69.128 10.92 68.224 12.337 C 67.755 13.093 67.267 13.836 66.823 14.577 C 66.407 15.273 66.057 15.928 65.799 16.586 C 65.752 16.699 65.711 16.813 65.67 16.923 C 67.204 16.933 68.81 16.939 70.495 16.936 C 70.58 16.425 70.712 15.906 70.895 15.389 Z M 84.193 26.092 C 84.193 26.092 84.193 26.092 84.193 26.092 C 84.193 26.092 84.193 26.092 84.193 26.092 Z M 75.717 26.092 C 75.717 26.092 75.717 26.092 75.717 26.092 C 75.717 26.092 75.717 26.092 75.717 26.092 Z M 67.43 26.092 C 67.43 26.092 67.43 26.092 67.43 26.092 C 67.43 26.092 67.43 26.092 67.43 26.092 Z M 250 3.975 L 250.006 3.972 L 256.078 8.611 C 259.414 11.166 262.979 13.292 263.996 13.336 C 265.014 13.38 263.083 15.065 259.704 17.074 C 256.324 19.087 253.089 21.588 252.519 22.63 C 251.946 23.673 250.815 24.529 250.006 24.529 C 250.003 24.529 250.003 24.529 250 24.529 C 249.996 24.529 249.996 24.529 249.993 24.529 C 249.187 24.529 248.056 23.673 247.483 22.63 C 246.91 21.588 243.678 19.087 240.299 17.074 C 236.919 15.065 234.986 13.38 236.006 13.336 C 237.023 13.292 240.589 11.166 243.924 8.611 L 249.993 3.972 Z M 496.358 10.951 C 487.967 19.836 483.561 20.725 437.555 20.791 C 437.479 21.049 437.391 21.301 437.29 21.544 C 435.489 25.515 432.547 26.076 432.569 26.092 C 432.096 25.742 433.989 23.544 434.54 20.794 C 434.329 20.794 434.118 20.794 433.904 20.794 C 432.336 20.794 430.789 20.797 429.268 20.803 C 429.192 21.059 429.104 21.304 429.007 21.544 C 427.205 25.515 424.26 26.076 424.282 26.092 C 423.816 25.745 425.69 23.556 426.254 20.819 C 424.383 20.832 422.553 20.847 420.77 20.866 C 420.698 21.096 420.619 21.323 420.528 21.544 C 418.73 25.515 415.785 26.076 415.807 26.092 C 415.344 25.748 417.18 23.6 417.759 20.901 C 399.111 21.15 386.223 21.805 385.073 22.643 L 385.073 22.646 C 383.697 23.647 380.276 24.482 377.47 24.495 C 371.936 24.526 365.12 20.076 367.171 17.764 C 367.867 16.98 388.197 16.555 412.348 16.819 C 414.141 16.838 415.873 16.857 417.545 16.873 C 417.514 16.775 417.476 16.681 417.438 16.586 C 417.18 15.928 416.83 15.276 416.415 14.577 C 415.971 13.836 415.482 13.093 415.013 12.337 C 414.604 11.695 414.226 11.074 413.882 10.454 C 413.649 10.52 413.422 10.586 413.196 10.652 C 404.638 12.759 394.616 15.033 382.821 12.444 C 378.153 11.333 377.927 9.147 382.308 7.515 C 384.83 6.583 390.201 5.484 395.98 5.597 C 399.423 5.698 404.254 6.87 401.041 7.811 C 399.618 8.003 398.238 7.799 398.238 7.389 C 398.238 6.983 396.689 6.775 393.81 6.791 C 390.569 6.81 388.377 7.077 386.311 7.704 C 383.13 8.668 382.468 9.714 384.333 10.825 C 386.257 11.975 389.312 12.29 394.553 11.89 C 396.182 11.764 397.945 11.418 400.843 10.652 C 404.172 9.767 407.341 8.444 411.747 7.547 C 412.011 7.503 412.279 7.455 412.55 7.408 C 412.522 7.32 412.493 7.229 412.468 7.137 C 411.3 3.014 413.202 1.015 413.498 1.096 C 414.049 1.251 413.778 3.531 415.089 6.164 C 415.215 6.426 415.347 6.677 415.485 6.923 C 417.114 6.665 418.862 6.413 420.723 6.205 C 420.065 2.712 421.7 1.021 421.974 1.096 C 422.509 1.248 422.27 3.405 423.457 5.94 C 425.199 5.802 427.022 5.707 428.925 5.688 C 428.512 2.545 430.002 1.024 430.257 1.096 C 430.78 1.241 430.569 3.276 431.64 5.714 C 431.952 5.72 432.266 5.733 432.585 5.745 C 440.377 6.01 444.273 6.548 450.014 8.454 C 452.185 9.292 454.169 10.879 454.166 11.78 C 454.162 12.255 452.591 13.329 451.328 13.72 L 451.331 13.72 C 449.722 14.214 449.362 13.796 450.402 12.643 C 450.893 12.101 450.944 11.792 450.405 11.38 C 447.369 9.055 440.455 8.079 432.985 8.12 C 433.441 8.807 433.97 9.54 434.603 10.457 C 435.107 11.162 435.655 11.95 436.159 12.813 C 436.638 13.632 437.06 14.482 437.388 15.389 C 437.567 15.893 437.696 16.394 437.781 16.892 C 460.912 16.599 465.548 14.766 469.879 8.879 C 471.898 6.136 472.525 6.104 475.671 8.586 C 480.553 12.441 488.279 12.054 494.713 7.635 C 497.06 6.022 498.654 5.266 499.438 5.26 C 500.742 5.248 499.8 7.311 496.358 10.951 Z M 432.569 26.092 C 432.569 26.092 432.569 26.092 432.569 26.092 C 432.569 26.092 432.569 26.092 432.569 26.092 Z M 424.282 26.092 C 424.282 26.092 424.282 26.092 424.282 26.092 C 424.282 26.092 424.282 26.092 424.282 26.092 Z M 415.807 26.092 C 415.807 26.092 415.807 26.092 415.807 26.092 C 415.807 26.092 415.807 26.092 415.807 26.092 Z M 248.563 8.756 C 247.773 10.022 246.22 11.052 245.102 11.052 C 243.99 11.052 243.077 11.534 243.077 12.12 C 243.077 12.706 242.384 13.188 241.54 13.188 C 240.693 13.188 240 13.666 240 14.252 C 240 14.838 240.693 15.32 241.54 15.32 C 242.384 15.32 243.077 15.799 243.077 16.385 C 243.077 16.97 244.041 17.452 245.215 17.452 C 246.472 17.452 247.811 18.334 248.463 19.584 C 249.071 20.759 249.763 21.717 250 21.717 C 250.236 21.717 250.929 20.759 251.54 19.584 C 252.189 18.334 253.53 17.452 254.787 17.452 C 255.962 17.452 256.922 16.97 256.922 16.385 C 256.922 15.799 257.615 15.32 258.463 15.32 C 259.307 15.32 260 14.838 260 14.252 C 260 13.666 259.307 13.188 258.463 13.188 C 257.615 13.188 256.922 12.706 256.922 12.12 C 256.922 11.534 256.012 11.052 254.897 11.052 C 253.782 11.052 252.226 10.022 251.436 8.756 L 250 6.46 Z M 159.213 10.583 C 162.403 13.515 162.403 13.537 159.115 12.199 C 151.326 9.024 147.295 9.282 142.832 13.238 C 137.61 18.296 137.606 21.32 142.665 26.265 C 148.047 31.036 160.299 31.405 177.455 27.31 C 183.874 25.777 195.72 24.523 203.776 24.523 C 216.094 24.523 219.732 25.27 226.649 29.219 C 236.113 34.624 239.723 35.021 244.255 31.159 C 247.247 28.611 247.266 28.394 244.507 28.34 C 242.866 28.306 238.582 26.589 234.986 24.523 C 229.115 21.15 225.159 20.766 196.198 20.766 C 175.342 20.766 163.313 21.484 162.151 22.794 C 161.024 24.066 157.465 24.334 152.624 23.515 C 145.188 22.258 141.811 19.906 143.965 17.481 C 144.529 16.847 163.884 16.545 186.97 16.816 C 227.641 17.292 229.197 17.449 236.916 21.855 C 241.94 24.721 245.968 26.158 250 26.155 C 254.031 26.158 258.059 24.721 263.083 21.855 C 270.8 17.449 272.355 17.292 313.029 16.816 C 336.116 16.545 355.47 16.844 356.034 17.481 C 358.188 19.906 354.812 22.258 347.372 23.515 C 342.535 24.334 338.976 24.066 337.848 22.794 C 336.686 21.484 324.658 20.766 303.801 20.766 C 274.84 20.766 270.881 21.15 265.014 24.523 C 261.417 26.589 257.133 28.306 255.489 28.34 C 252.733 28.394 252.752 28.611 255.744 31.159 C 260.277 35.021 263.886 34.624 273.348 29.219 C 280.267 25.27 283.905 24.523 296.223 24.523 C 304.28 24.523 316.122 25.777 322.544 27.31 C 339.7 31.405 351.952 31.036 357.335 26.265 C 362.393 21.32 362.387 18.296 357.168 13.238 C 352.705 9.282 348.67 9.024 340.884 12.199 C 337.596 13.537 337.596 13.515 340.787 10.583 C 342.935 8.614 345.719 7.742 348.588 7.723 C 355.927 7.679 363.832 13.225 363.073 20.328 C 362.793 22.948 360.44 26.866 357.848 29.033 C 351.883 34.025 334.207 34.274 318.654 29.584 C 312.85 27.833 302.992 26.4 296.749 26.4 C 287.376 26.4 283.848 27.355 276.456 31.874 C 265.952 38.303 261.442 38.841 254.847 34.451 C 252.557 32.926 251.278 32.167 250 32.167 C 248.721 32.167 247.442 32.926 245.152 34.451 C 238.557 38.841 234.047 38.303 223.54 31.874 C 216.151 27.355 212.623 26.4 203.247 26.4 C 197.008 26.4 187.15 27.833 181.345 29.584 C 165.792 34.274 148.114 34.025 142.151 29.033 C 139.556 26.866 137.206 22.948 136.926 20.328 C 136.167 13.225 144.069 7.679 151.408 7.723 C 154.28 7.739 157.065 8.614 159.213 10.583 Z M 2.864 8.032 C 2.423 9.024 2.98 9.594 7.554 12.835 C 9.33 14.095 11.365 15.128 12.076 15.128 C 12.788 15.128 13.572 15.585 13.821 16.142 C 14.07 16.699 15.242 17.156 16.423 17.156 C 17.604 17.156 18.574 16.699 18.574 16.142 C 18.574 15.585 17.768 15.128 16.788 15.128 C 15.805 15.128 14.801 14.671 14.552 14.114 C 14.303 13.556 13.497 13.103 12.757 13.103 C 12.02 13.103 9.579 11.761 7.333 10.126 C 5.371 8.693 3.585 7.792 3.024 7.912 C 2.946 7.931 2.892 7.972 2.864 8.032 Z M 492.663 10.126 C 490.421 11.761 487.98 13.103 487.239 13.103 C 486.502 13.103 485.693 13.556 485.447 14.114 C 485.199 14.671 484.191 15.128 483.211 15.128 C 482.228 15.128 481.425 15.585 481.425 16.142 C 481.425 16.699 482.392 17.156 483.576 17.156 C 484.758 17.156 485.929 16.699 486.178 16.142 C 486.424 15.585 487.211 15.128 487.923 15.128 C 488.635 15.128 490.669 14.095 492.446 12.835 C 497.016 9.594 497.576 9.024 497.135 8.032 C 497.107 7.972 497.054 7.931 496.975 7.912 C 496.414 7.792 494.628 8.693 492.663 10.126 Z M 26.75 11.774 C 27.749 13.603 29.963 15.629 31.941 16.914 C 33.916 18.192 36.127 18.044 36.171 16.895 C 36.19 16.413 34.539 15.934 33.081 14.992 C 31.623 14.051 29.626 12.186 28.643 10.854 C 27.768 9.663 27.462 8.448 26.996 8.47 C 26.401 8.498 25.853 10.133 26.75 11.774 Z M 471.356 10.854 C 470.373 12.186 468.377 14.051 466.918 14.992 C 465.457 15.934 463.807 16.413 463.825 16.895 C 463.873 18.044 466.081 18.192 468.058 16.914 C 470.033 15.629 472.251 13.603 473.249 11.774 C 474.147 10.133 473.595 8.498 473 8.47 C 472.537 8.448 472.232 9.663 471.356 10.854 Z M 20.376 13.065 C 20.117 13.648 20.776 14.583 21.84 15.14 C 23.9 16.218 25.333 15.72 24.64 14.164 C 24.227 13.241 22.87 12.583 21.78 12.507 C 21.128 12.46 20.574 12.624 20.376 13.065 Z M 475.359 14.164 C 474.666 15.72 476.099 16.218 478.159 15.14 C 479.224 14.583 479.882 13.648 479.624 13.065 C 479.425 12.624 478.871 12.46 478.219 12.507 C 477.129 12.583 475.772 13.241 475.359 14.164 Z M 426.32 10.457 C 426.824 11.162 427.372 11.95 427.876 12.813 C 428.355 13.632 428.774 14.482 429.104 15.389 C 429.287 15.906 429.419 16.425 429.504 16.936 C 431.186 16.939 432.796 16.933 434.326 16.923 C 434.289 16.813 434.244 16.699 434.2 16.586 C 433.942 15.928 433.592 15.276 433.177 14.577 C 432.733 13.836 432.244 13.093 431.775 12.337 C 430.871 10.923 430.118 9.6 429.586 8.205 C 428.043 8.274 426.496 8.385 424.978 8.529 C 425.369 9.103 425.81 9.72 426.32 10.457 Z M 425.914 16.586 C 425.655 15.928 425.309 15.276 424.89 14.577 C 424.449 13.836 423.958 13.093 423.489 12.337 C 422.742 11.169 422.096 10.063 421.596 8.926 C 420.1 9.131 418.651 9.374 417.284 9.651 C 417.46 9.906 417.646 10.17 417.845 10.457 C 418.345 11.162 418.893 11.95 419.397 12.813 C 419.876 13.632 420.298 14.482 420.626 15.389 C 420.805 15.893 420.934 16.4 421.019 16.901 C 422.761 16.914 424.433 16.923 426.043 16.929 C 426.002 16.816 425.961 16.699 425.914 16.586 Z M 162.68 1.752 C 161.172 0.114 158.633 0.013 156.995 1.522 C 155.361 3.03 155.257 5.569 156.769 7.207 C 158.277 8.844 160.828 8.961 162.466 7.449 C 164.101 5.94 164.192 3.386 162.68 1.752 Z M 152.665 0.974 C 151.531 -0.255 149.613 -0.33 148.388 0.8 C 147.159 1.934 147.084 3.852 148.214 5.081 C 149.348 6.306 151.25 6.369 152.479 5.238 C 153.707 4.104 153.795 2.202 152.665 0.974 Z M 144.482 3.396 C 143.632 2.473 142.202 2.416 141.279 3.266 C 140.359 4.114 140.303 5.547 141.15 6.466 C 142 7.386 143.433 7.446 144.353 6.596 C 145.273 5.745 145.329 4.315 144.482 3.396 Z M 139.77 8.514 C 139.131 7.821 138.06 7.78 137.367 8.416 C 136.677 9.052 136.633 10.126 137.273 10.816 C 137.909 11.506 138.983 11.55 139.673 10.914 C 140.362 10.277 140.406 9.203 139.77 8.514 Z M 337.316 1.752 C 338.828 0.114 341.366 0.013 343.001 1.522 C 344.639 3.03 344.742 5.569 343.231 7.207 C 341.722 8.844 339.168 8.961 337.533 7.449 C 335.895 5.94 335.807 3.386 337.316 1.752 Z M 347.335 0.974 C 348.465 -0.255 350.383 -0.33 351.612 0.8 C 352.84 1.934 352.916 3.852 351.785 5.081 C 350.651 6.306 348.746 6.369 347.52 5.238 C 346.292 4.104 346.201 2.202 347.335 0.974 Z M 355.517 3.396 C 356.368 2.473 357.798 2.416 358.72 3.266 C 359.64 4.114 359.697 5.547 358.85 6.466 C 357.999 7.386 356.566 7.446 355.646 6.596 C 354.727 5.745 354.67 4.315 355.517 3.396 Z M 360.229 8.514 C 360.865 7.821 361.939 7.78 362.632 8.416 C 363.322 9.052 363.363 10.126 362.727 10.816 C 362.09 11.506 361.016 11.55 360.327 10.914 C 359.637 10.277 359.593 9.203 360.229 8.514 Z M 221.587 43.184 C 222.806 45.049 225.294 45.569 227.159 44.35 C 229.02 43.134 229.543 40.646 228.324 38.781 C 227.105 36.917 224.608 36.381 222.743 37.6 C 220.882 38.819 220.371 41.323 221.59 43.184 Z M 231.338 45.606 C 232.255 47.005 234.132 47.399 235.53 46.485 C 236.929 45.572 237.319 43.691 236.406 42.293 C 235.493 40.898 233.625 40.52 232.226 41.433 C 230.831 42.347 230.425 44.211 231.338 45.606 Z M 239.811 44.573 C 240.497 45.622 241.899 45.915 242.948 45.228 C 243.993 44.545 244.289 43.14 243.603 42.095 C 242.919 41.046 241.515 40.753 240.466 41.436 C 239.42 42.123 239.124 43.525 239.811 44.573 Z M 245.304 40.306 C 245.817 41.09 246.869 41.31 247.656 40.797 C 248.441 40.284 248.661 39.232 248.148 38.444 C 247.634 37.66 246.582 37.44 245.795 37.953 C 245.011 38.466 244.79 39.518 245.304 40.306 Z M 278.409 43.184 C 277.193 45.049 274.705 45.569 272.84 44.35 C 270.976 43.134 270.456 40.646 271.675 38.781 C 272.894 36.917 275.392 36.381 277.256 37.6 C 279.118 38.819 279.628 41.323 278.409 43.184 Z M 268.658 45.606 C 267.744 47.005 265.867 47.399 264.469 46.485 C 263.07 45.572 262.677 43.691 263.59 42.293 C 264.507 40.898 266.374 40.52 267.773 41.433 C 269.168 42.347 269.574 44.211 268.658 45.606 Z M 260.189 44.573 C 259.502 45.622 258.1 45.915 257.052 45.228 C 256.003 44.545 255.71 43.14 256.396 42.095 C 257.08 41.046 258.485 40.753 259.53 41.436 C 260.579 42.123 260.872 43.525 260.189 44.573 Z M 254.696 40.306 C 254.182 41.09 253.13 41.31 252.343 40.797 C 251.556 40.284 251.335 39.232 251.852 38.444 C 252.365 37.66 253.417 37.44 254.201 37.953 C 254.989 38.466 255.209 39.518 254.696 40.306 Z M 250 8.923 C 249.578 8.923 249.231 9.881 249.231 11.052 C 249.231 12.832 248.718 13.188 246.154 13.188 C 244.463 13.188 243.077 13.666 243.077 14.252 C 243.077 14.838 244.463 15.32 246.154 15.32 C 248.718 15.32 249.231 15.676 249.231 17.452 C 249.231 18.624 249.578 19.584 250 19.584 C 250.425 19.584 250.771 18.624 250.771 17.452 C 250.771 15.676 251.285 15.32 253.848 15.32 C 255.54 15.32 256.922 14.838 256.922 14.252 C 256.922 13.666 255.54 13.188 253.848 13.188 C 251.285 13.188 250.771 12.832 250.771 11.052 C 250.771 9.881 250.425 8.923 250 8.923 Z" id="path1732" style="fill:#000000;fill-rule:evenodd;stroke:none;stroke-width:0.26458332"/>
</svg>