<?xml version="1.0" encoding="utf-8"?>
<svg version="1.0" width="375" height="305" xmlns="http://www.w3.org/2000/svg">
  <path d="M 309.386 244.109 C 298.611 246.995 287.114 247.922 276.65 251.491 C 294.373 236.295 293.361 212.782 305.186 194.885 C 308.952 189.817 312.065 184.506 316.456 179.697 C 309.264 194.125 312.383 212.844 304.12 226.845 C 300.939 232.406 296.391 237.802 291.36 242.17 C 293.004 242.108 294.442 240.686 295.888 239.735 C 309.309 226.343 326.842 222.598 341.359 211.717 C 347.175 207.083 352.501 201.011 355.058 194.443 C 352.311 216.663 330.205 237.489 309.386 244.109 L 309.386 244.109 Z M 357.735 154.146 C 351.169 163.489 343.226 172.188 337.159 181.684 C 337.836 174.165 338.727 164.92 335.798 157.798 C 330.723 142.461 326.264 126.889 324.825 110.057 L 325.023 103.62 C 328.843 120.81 345.729 132.626 344.663 151.907 C 345.05 156.58 343.604 160.553 342.729 164.662 L 343.02 164.966 L 343.78 164.113 C 346.284 154.655 347.548 144.71 351.441 135.886 C 356.975 123.188 363.884 110.372 361.068 95.04 C 369.484 113.116 366.935 137.268 357.735 154.146 L 357.735 154.146 Z M 347.371 56.758 C 358.443 71.763 360.87 95.676 352.806 112.888 C 349.8 120.182 347.677 127.954 346.496 136.027 C 345.933 134.635 345.804 132.763 345.301 131.211 C 340.896 114.363 324.963 102.356 318.41 86.472 C 316.332 81.278 314.561 75.911 313.578 70.272 C 320.58 83.222 337.836 89.911 342.539 104.183 C 344.466 107.792 344.357 112.302 345.553 116.183 C 345.804 116.183 346.055 115.996 346.055 115.741 C 343.984 101.04 344.616 85.654 346.611 71.135 C 346.496 63.271 345.729 55.643 341.359 49.555 C 344.161 51.188 345.423 54.323 347.371 56.758 L 347.371 56.758 Z M 339.564 53.877 C 342.473 67.026 338.225 79.832 340.896 93.107 L 340.797 93.222 C 333.644 79.155 318.457 72.517 308.008 61.258 C 301.952 54.578 299.319 46.436 297.805 37.814 C 303.792 52.249 319.948 55.43 329.224 67.593 C 332.327 70.397 333.34 74.282 335.341 77.462 L 335.668 77.146 C 330.334 65.76 328.547 52.945 324.825 40.801 C 322.962 35.539 319.264 30.369 314.302 27.051 C 326.478 29.539 337.03 42.25 339.564 53.877 L 339.564 53.877 Z M 307.012 23.722 C 316.182 31.929 320.329 42.555 323.007 53.565 L 324.521 57.062 C 311.212 47.49 299.121 34.622 290.622 21.032 L 280.242 10.531 C 289.367 14.4 299.205 16.71 307.012 23.722 L 307.012 23.722 Z M 96.806 12.274000000000001 C 87.605 20.339 81.225 30.54 74.399 40.051 C 68.281 47.626 60.455 52.622 53.52 59.136 C 57.264 51.374 57.4 42.103 62.711 34.973 C 70.268 21.789 84.28 17.151 96.806 12.274000000000001 L 96.806 12.274000000000001 Z M 46.492 40.36 C 50.967 34.797 56.64 30.932 63.023 29.299 C 50.628 37.814 51.435 53.074 47.505 65.76 C 46.252 70.451 44.076 74.772 42.992 79.581 L 43.308 79.832 C 45.37 74.396 48.995 69.26 53.52 64.824 C 62.323 56.697 75.347 51.632 79.661 39.61 C 79.464 56.316 65.527 69.45 52.192 78.839 C 46.693 83.664 41.391 89.162 38.362 95.363 C 38.065 91.148 38.985 86.917 38.686 82.401 C 37.235 67.818 36.182 51.172 46.492 40.36 L 46.492 40.36 Z M 21.412 90.228 C 21.039 75.449 27.173 63.386 35.816 52.375 C 36.067 52.249 36.246 51.998 36.569 52.059 C 27.055 66.517 34.926 84.729 34.492 101.169 L 33.237 118.001 C 33.424 118.123 33.424 118.629 33.865 118.435 C 34.428 116.559 34.55 114.554 34.926 112.624 C 37.167 99.047 48.958 89.413 59.257 80.03 C 61.456 77.576 63.4 75.084 64.53 72.205 C 63.689 78.965 61.57 85.783 58.766 92.035 C 50.75 107.667 35.942 120.493 33.237 138.39 C 31.925 121.239 20.248 108.417 21.412 90.228 L 21.412 90.228 Z M 14.214 111.243 C 15.279 106.621 16.094 101.838 18.105 97.597 C 14.294 117.134 27.435 131.211 31.745 148.146 C 33.549 154.479 33.99 161.282 36.569 167.226 C 36.81 167.355 37.019 167.104 37.167 166.914 C 30.749 148.925 40.014 132.208 49.323 118.123 C 51.587 114.307 52.892 110.057 54.018 105.67 C 55.007 113.812 52.948 123.188 51.766 131.641 C 49.502 142.396 46.123 152.597 43.182 163.033 C 41.246 169.555 41.755 176.912 42.749 183.745 L 41.816 183 C 34.991 170.414 21.477 160.598 17.463 146.848 C 14.16 135.886 11.965 123.188 14.214 111.243 L 14.214 111.243 Z M 13.598 149.401 C 15.101 170.109 37.369 181.052 47.691 198.195 C 50.134 201.703 52.253 205.584 55.517 208.521 C 55.007 206.314 52.948 204.458 52.192 202.198 C 48.581 195.008 47.265 186.439 48.133 177.749 C 49.133 167.172 53.569 157.356 51.876 146.231 C 60.946 165.788 58.191 190.198 63.263 211.39 C 64.591 216.024 67.273 220.163 69.031 224.593 C 50.396 211.9 24.984 199.824 16.717 176.563 C 13.232 168.542 12.844 158.612 13.598 149.401 L 13.598 149.401 Z M 24.729 196.955 C 35.12 220.461 61.144 222.408 78.592 236.722 C 81.803 239.567 85.167 241.987 88.792 243.676 L 88.979 243.486 C 84.973 239.864 80.339 235.739 77.534 231.045 C 67.322 216.846 70.914 196.955 63.263 181.684 C 70.215 190 76.537 198.645 80.734 208.079 C 86.978 223.48 89.363 240.876 103.81 252.518 C 88.176 247.366 69.86 248.805 56.062 239.179 C 40.995 229.919 27.549 214.213 24.729 196.955 L 24.729 196.955 Z M 51.435 240.807 C 68.095 259.754 95.317 253.432 117.51 258.391 C 120.645 258.819 123.514 260.075 126.836 259.565 C 124.19 257.891 120.52 258.073 117.632 256.551 C 100.236 250.44 97.685 231.607 88.241 218.908 C 100.306 226.92 110.448 237.726 121.578 248.196 C 129.578 255.204 139.208 258.438 149.354 260.5 C 146.916 261.391 143.72 261.147 141.103 261.833 C 122.874 266.315 102.622 273.641 83.291 267.083 C 70.724 263.125 57.758 253.188 51.435 240.807 L 51.435 240.807 Z M 277.557 284.973 C 258.783 291.979 239.19 284.653 224.527 273.534 C 218.591 269.76 213.357 264.327 205.679 264.807 C 202.894 264.754 200.208 264.891 197.841 265.575 C 212.086 272.204 225.318 281.342 237.417 293.03 C 235.378 295.358 232.737 297.536 230.25 299.543 C 218.591 286.981 205.679 274.889 191.222 267.827 C 188.391 268.194 185.697 269.897 183.145 271.268 C 171.375 278.709 159.737 288.282 150.987 300 L 143.469 293.792 C 155.469 281.653 168.742 272.204 183.263 265.454 C 168.994 260.934 159.681 272.887 148.85 278.967 C 136.229 287.78 118.077 291.918 102.824 285.838 C 94.621 282.727 86.674 278.145 80.734 270.698 C 92.738 278.967 110.616 279.834 124.268 274.463 C 142.586 266.518 161.621 256.446 183.704 261.262 C 187.15 261.323 190.499 264.754 193.755 261.833 C 210.168 257.571 228.75 260.5 242.881 268.002 L 257.445 273.84 C 270.982 278.846 288.484 277.461 300.088 269.213 C 294.122 276.639 285.973 281.959 277.557 284.973 L 277.557 284.973 Z M 297.675 265.575 C 276.597 273.534 255.392 263.764 235.195 260.5 L 231.307 260.006 L 231.307 259.883 C 240.964 257.692 250.338 254.817 258.024 247.877 C 269.346 236.995 279.42 225.794 291.992 217.219 C 282.669 229.173 281.681 246.188 266.279 253.874 C 262.468 256.368 257.657 256.809 253.724 258.698 C 259.333 258.819 264.469 256.809 270.023 256.247 C 290.676 253.004 314.302 256.331 328.79 238.737 C 323.411 250.997 309.94 261.262 297.675 265.575 L 297.675 265.575 Z M 335.973 206.269 C 327.648 211.717 319.211 216.77 311.212 222.964 L 311.212 222.203 C 323.464 201.841 317.475 173.868 325.023 151.459 L 327.839 143.952 C 326.264 157.912 332.327 169.737 331.901 183.745 C 331.476 192.207 328.714 199.71 324.271 206.467 L 325.023 206.467 C 331.026 198.583 335.714 190.198 342.729 182.688 C 353.619 172.188 364.69 161.42 366.12 146.848 C 369.818 171.175 356.168 192.496 335.973 206.269 L 335.973 206.269 Z" fill="rgba(255, 215, 0, 1)"/>
</svg>