<?xml version="1.0" encoding="utf-8"?>
<svg width="241.37296" height="233.0258" id="svg2" version="1.1" xmlns="http://www.w3.org/2000/svg">
  <path d="M 67.101 188.185 L 72.027 187.701 C 74.839 187.403 77.373 187.933 79.425 189.019 C 81.445 190.088 82.729 191.443 82.974 193.249 C 83.371 195.009 82.627 196.492 81.076 197.889 C 79.492 199.316 77.263 200.303 74.452 200.556 L 69.525 201.04 C 66.713 201.338 64.179 200.808 62.128 199.722 C 60.107 198.652 58.823 197.298 58.579 195.492 C 58.182 193.731 58.925 192.249 60.476 190.852 C 62.06 189.425 64.29 188.438 67.101 188.185 Z M 62.951 208.121 L 62.901 208.161 L 62.525 208.161 C 51.839 208.988 39.987 209.825 29.234 211.402 C 28.722 212.1 28.539 212.509 28.627 213.118 C 28.714 213.732 28.975 214.099 29.976 214.616 C 40.302 213.121 52.307 212.213 62.997 211.385 C 77.519 210.48 92.179 210.213 106.764 210.058 L 134.744 210.058 C 143.473 210.058 161.928 210.332 178.51 211.405 C 195.023 212.475 211.569 214.619 211.569 214.619 C 212.604 214.045 212.864 213.666 212.924 213.06 C 212.983 212.464 212.792 212.076 212.244 211.413 C 209.647 211.078 195.671 209.225 178.879 208.139 C 162.156 207.055 143.789 206.796 134.744 206.796 L 106.777 206.796 C 92.142 206.842 77.544 207.284 62.951 208.121 Z M 58.536 178.893 L 58.485 178.931 L 58.129 178.931 C 46.637 179.758 33.736 180.634 22.258 182.18 C 21.699 182.883 21.504 183.284 21.596 183.878 C 21.688 184.481 21.983 184.859 23.1 185.39 C 34.21 183.893 47.15 182.982 58.647 182.155 C 74.252 181.25 90.013 180.683 105.709 180.528 L 135.798 180.528 C 145.193 180.528 165.035 181.102 182.858 182.175 C 200.613 183.244 218.449 185.392 218.449 185.392 C 219.602 184.804 219.892 184.417 219.956 183.823 C 220.017 183.242 219.813 182.86 219.212 182.189 C 216.556 181.871 201.339 179.995 183.275 178.909 C 165.277 177.825 145.52 177.266 135.798 177.266 L 105.72 177.266 C 89.974 177.313 74.256 178.051 58.536 178.893 Z M 171.832 153.102 C 171.791 152.437 171.535 151.481 171.142 150.781 C 170.74 150.067 169.863 149.351 169 149.159 C 167.541 149.234 166.336 150.276 165.759 151.074 C 164.448 153.154 164.792 155.702 164.11 157.432 C 163.409 159.474 162.33 160.876 160.443 161.834 C 158.98 162.684 157.862 162.514 156.65 162.567 L 157.799 159.139 C 158.849 155.316 156.811 152.37 156.348 149.093 C 155.994 146.895 155.845 144.682 156.747 142.835 C 157.689 140.716 159.313 138.853 161.429 138.124 C 162.088 137.84 162.829 137.885 163.659 138.006 C 164.801 138.152 168.392 139.643 168.392 139.643 L 169.815 140.235 L 169.771 138.692 C 169.771 138.692 169.649 134.362 169.969 132.363 C 170.328 129.956 171.664 127.015 173.005 124.91 C 175.203 121.409 177.046 119.791 178.253 118.598 C 178.61 118.951 181.066 121.496 183.012 125.138 C 184.216 127.366 186.324 131.905 186.499 134.297 C 186.688 136.261 185.975 139.593 185.975 139.593 L 185.612 141.29 L 187.261 140.748 C 187.261 140.748 189.656 139.961 190.809 139.893 C 191.646 139.83 192.388 139.838 193.027 140.167 C 195.086 141.041 196.576 143.011 197.369 145.191 C 198.14 147.097 197.838 149.294 197.331 151.462 C 197.003 153.021 196.015 154.426 195.169 155.996 C 194.32 157.572 193.669 159.459 194.094 161.487 L 195.001 164.987 C 193.797 164.85 192.669 164.941 191.27 163.992 C 189.453 162.904 188.473 161.431 187.917 159.346 C 187.318 157.679 188.445 155.424 187.918 153.042 C 187.786 152.566 187.629 151.818 187.35 151.174 C 187.206 150.843 186.961 150.427 186.686 150.162 C 186.394 149.879 185.806 149.653 185.32 149.607 C 184.505 149.693 183.513 150.239 182.946 150.867 C 182.38 151.492 181.921 152.5 181.86 153.276 C 181.859 153.477 181.857 153.678 181.855 153.879 L 171.842 153.336 L 171.832 153.102 Z M 59.682 153.276 C 59.622 152.5 59.163 151.492 58.597 150.867 C 58.029 150.24 57.037 149.693 56.223 149.607 C 55.737 149.653 55.15 149.879 54.857 150.162 C 54.583 150.427 54.337 150.843 54.193 151.174 C 53.914 151.817 53.756 152.567 53.624 153.042 C 53.098 155.424 54.224 157.679 53.625 159.346 C 53.069 161.432 52.09 162.904 50.274 163.992 C 48.873 164.941 47.746 164.85 46.541 164.987 L 47.449 161.487 C 47.874 159.459 47.222 157.572 46.373 155.996 C 45.528 154.426 44.539 153.021 44.212 151.462 C 43.705 149.294 43.402 147.097 44.174 145.191 C 44.966 143.012 46.457 141.041 48.515 140.167 C 49.155 139.838 49.897 139.83 50.734 139.894 C 51.886 139.961 54.281 140.748 54.281 140.748 L 55.93 141.29 L 55.567 139.593 C 55.567 139.593 54.855 136.261 55.043 134.297 C 55.219 131.905 57.327 127.366 58.53 125.138 C 60.477 121.496 62.182 119.813 63.289 118.599 C 64.497 119.792 66.339 121.409 68.538 124.909 C 69.878 127.015 71.214 129.956 71.573 132.363 C 71.894 134.362 71.771 138.692 71.771 138.692 L 71.726 140.235 L 73.15 139.643 C 73.15 139.643 76.741 138.152 77.882 138.006 C 78.714 137.885 79.455 137.84 80.114 138.124 C 82.229 138.853 83.854 140.716 84.796 142.835 C 85.698 144.682 85.548 146.895 85.194 149.092 C 84.731 152.369 82.693 155.316 83.744 159.139 L 84.892 162.567 C 83.68 162.514 82.562 162.684 81.1 161.834 C 79.213 160.876 78.133 159.474 77.433 157.433 C 76.75 155.702 77.094 153.153 75.784 151.074 C 75.206 150.276 74.001 149.234 72.543 149.159 C 71.68 149.351 70.802 150.067 70.401 150.781 C 70.008 151.481 69.752 152.437 69.71 153.102 L 69.701 153.335 L 59.688 153.878 C 59.685 153.677 59.684 153.476 59.682 153.276 Z M 126.299 145.173 C 126.299 146.804 125.731 148.089 124.673 149.162 C 123.619 150.235 122.367 150.807 120.772 150.807 C 119.176 150.807 117.925 150.235 116.87 149.162 C 115.813 148.089 115.245 146.804 115.245 145.173 C 115.245 143.543 115.813 142.258 116.87 141.184 C 117.925 140.111 119.176 139.539 120.772 139.539 C 122.367 139.539 123.619 140.111 124.673 141.184 C 125.731 142.258 126.299 143.543 126.299 145.173 Z M 23.036 154.298 C 23.036 155.928 22.469 157.214 21.411 158.287 C 20.356 159.36 19.104 159.932 17.51 159.932 C 15.914 159.932 14.663 159.36 13.607 158.287 C 12.551 157.214 11.983 155.928 11.983 154.298 C 11.983 152.668 12.551 151.383 13.607 150.309 C 14.663 149.236 15.914 148.664 17.51 148.664 C 19.104 148.664 20.356 149.236 21.411 150.309 C 22.469 151.383 23.036 152.668 23.036 154.298 Z M 224.033 148.664 C 225.629 148.664 226.88 149.236 227.936 150.309 C 228.993 151.383 229.561 152.668 229.561 154.298 C 229.561 155.928 228.993 157.213 227.936 158.287 C 226.881 159.36 225.629 159.932 224.033 159.932 C 222.439 159.932 221.187 159.36 220.132 158.287 C 219.074 157.214 218.507 155.928 218.507 154.298 C 218.507 152.668 219.074 151.383 220.132 150.309 C 221.187 149.236 222.439 148.664 224.033 148.664 Z M 23.291 149.417 C 29.104 143.929 30.906 138.288 33.078 132.07 L 41.128 160.422 C 39.746 160.071 39.545 159.808 37.596 158.981 C 35.74 158.194 32.66 157.163 25.127 155.73 L 24.9 155.687 C 24.989 155.23 25.036 154.764 25.036 154.298 C 25.036 152.511 24.345 150.725 23.291 149.417 Z M 13.452 147.885 C 10.086 140.556 6.398 133.288 2.05 125.613 C 9.384 123.008 15.979 122.135 24.8 121.654 C 21.547 130.819 18.524 138.984 18.43 146.727 C 18.125 146.686 17.817 146.665 17.51 146.665 C 16.072 146.665 14.633 147.133 13.452 147.885 Z M 127.143 141.136 C 127.184 141.204 127.224 141.273 127.264 141.343 L 127.067 141.408 L 127.143 141.136 Z M 113.974 139.606 C 113.095 136.454 112.72 134.351 110.336 130.927 C 107.163 126.498 104.663 122.65 101.288 118.549 C 107.745 117.598 113.598 117.336 120.771 117.336 C 127.944 117.336 133.797 117.598 140.254 118.549 C 136.356 123.053 134.379 126.498 131.207 130.927 C 128.822 134.351 128.447 136.454 127.569 139.606 L 127.143 141.136 C 126.84 140.634 126.488 140.177 126.1 139.782 C 124.792 138.453 122.781 137.54 120.772 137.54 C 118.762 137.54 116.751 138.453 115.444 139.782 C 115.055 140.177 114.703 140.635 114.399 141.137 L 113.974 139.606 Z M 114.28 141.343 C 114.319 141.273 114.359 141.205 114.399 141.137 L 114.475 141.408 L 114.28 141.343 Z M 216.743 121.656 C 226.278 122.105 232.561 123.267 239.494 125.61 C 234.967 133.526 231.369 140.662 228.076 147.875 C 226.898 147.128 225.465 146.665 224.033 146.665 C 223.722 146.665 223.411 146.687 223.103 146.729 C 222.984 138.878 219.865 130.438 216.743 121.656 Z M 216.415 155.73 C 208.883 157.163 205.803 158.194 203.947 158.981 C 201.997 159.808 201.795 160.064 200.415 160.419 L 208.465 132.07 C 210.637 138.288 212.438 143.929 218.252 149.417 C 217.198 150.725 216.507 152.511 216.507 154.298 C 216.507 154.764 216.554 155.23 216.643 155.687 L 216.415 155.73 Z M 58.487 155.945 L 71.741 155.226 L 73.152 157.39 L 71.983 159.691 L 58.729 160.41 L 57.021 158.265 L 58.487 155.945 Z M 184.522 158.265 L 182.813 160.411 L 169.559 159.692 L 168.391 157.39 L 169.801 155.227 L 183.055 155.946 L 184.522 158.265 Z M 55.552 153.575 C 55.7 153.039 55.829 152.43 56.028 151.971 C 56.123 151.751 56.164 151.68 56.249 151.599 C 56.249 151.598 56.25 151.597 56.251 151.597 C 56.515 151.567 56.748 151.804 57.114 152.209 C 57.507 152.643 57.733 152.967 57.683 153.294 C 57.685 153.525 57.687 153.756 57.689 153.986 L 57.348 154.005 L 55.573 156.813 C 55.421 155.605 55.222 154.5 55.552 153.575 Z M 71.708 153.185 C 71.714 152.749 71.867 152.256 72.145 151.761 C 72.416 151.279 72.473 151.051 72.71 151.151 C 73.344 150.901 73.654 151.53 74.16 152.24 C 75.105 153.347 74.936 155.126 75.272 156.979 L 72.785 153.168 L 71.706 153.226 L 71.708 153.185 Z M 167.384 152.24 C 167.89 151.53 168.2 150.901 168.834 151.151 C 169.07 151.051 169.128 151.279 169.399 151.761 C 169.677 152.256 169.83 152.749 169.835 153.185 L 169.837 153.227 L 168.757 153.168 L 166.272 156.976 C 166.607 155.125 166.438 153.346 167.384 152.24 Z M 183.86 153.293 C 183.81 152.967 184.036 152.643 184.43 152.209 C 184.821 151.777 185.026 151.565 185.293 151.597 C 185.294 151.597 185.295 151.598 185.296 151.598 C 185.38 151.68 185.422 151.751 185.516 151.971 C 185.715 152.429 185.844 153.038 185.991 153.575 C 186.322 154.5 186.123 155.606 185.971 156.814 L 184.194 154.006 L 183.854 153.988 C 183.856 153.756 183.858 153.525 183.86 153.293 Z M 110.852 187.159 L 130.691 187.159 C 131.916 187.115 132.834 187.572 133.645 188.382 C 134.455 189.193 134.912 190.111 134.868 191.336 L 134.868 195.333 C 134.912 196.558 134.455 197.476 133.645 198.287 C 132.834 199.097 131.916 199.554 130.691 199.51 L 110.852 199.51 C 109.627 199.554 108.709 199.097 107.898 198.287 C 107.088 197.476 106.631 196.558 106.675 195.333 L 106.675 191.336 C 106.631 190.111 107.088 189.193 107.898 188.382 C 108.709 187.572 109.627 187.115 110.852 187.159 Z M 189.325 198.014 C 188.613 198.738 188.086 199.938 188.086 201.052 C 188.086 202.166 188.613 203.365 189.326 204.089 C 190.04 204.814 191.232 205.354 192.336 205.354 C 193.441 205.354 194.633 204.814 195.346 204.088 C 196.059 203.364 196.585 202.165 196.585 201.052 C 196.585 199.938 196.059 198.739 195.347 198.015 C 194.633 197.289 193.441 196.748 192.336 196.748 C 191.232 196.748 190.039 197.289 189.325 198.014 Z M 189.989 187.653 C 189.277 188.376 188.75 189.575 188.75 190.689 C 188.75 191.803 189.277 193.002 189.989 193.727 C 190.702 194.452 191.895 194.993 192.999 194.993 C 194.104 194.993 195.296 194.452 196.01 193.727 C 196.722 193.002 197.249 191.803 197.249 190.689 C 197.249 189.575 196.722 188.376 196.01 187.653 C 195.296 186.927 194.103 186.387 192.999 186.387 C 191.895 186.387 190.703 186.927 189.989 187.653 Z M 145.604 195.623 C 144.892 196.348 144.365 197.547 144.365 198.661 C 144.365 199.775 144.892 200.974 145.604 201.697 C 146.318 202.423 147.511 202.963 148.615 202.963 C 149.719 202.963 150.911 202.423 151.625 201.697 C 152.337 200.974 152.864 199.775 152.864 198.661 C 152.864 197.547 152.337 196.348 151.625 195.623 C 150.912 194.898 149.719 194.357 148.615 194.357 C 147.51 194.357 146.318 194.898 145.604 195.623 Z M 182.405 189.365 C 180.584 187.724 177.747 186.523 174.638 186.194 L 169.712 185.71 C 166.604 185.426 163.485 186.031 161.183 187.25 C 158.849 188.486 157.078 190.607 156.599 192.9 C 156.273 195.239 157.274 197.704 159.128 199.374 C 160.95 201.015 163.786 202.216 166.896 202.545 L 171.822 203.029 C 174.93 203.313 178.049 202.708 180.351 201.489 C 182.685 200.253 184.455 198.132 184.934 195.839 C 185.261 193.5 184.26 191.036 182.405 189.365 Z M 146.268 185.262 C 145.556 185.986 145.029 187.185 145.029 188.299 C 145.029 189.413 145.556 190.612 146.268 191.337 C 146.981 192.062 148.174 192.603 149.278 192.603 C 150.383 192.603 151.575 192.062 152.289 191.337 C 153.001 190.612 153.528 189.413 153.528 188.299 C 153.528 187.185 153.001 185.986 152.289 185.262 C 151.575 184.537 150.383 183.996 149.278 183.996 C 148.174 183.996 146.981 184.537 146.268 185.262 Z M 106.484 186.968 C 105.421 188.031 104.719 189.702 104.675 191.336 L 104.675 195.333 C 104.719 196.967 105.421 198.638 106.484 199.701 C 107.547 200.764 109.218 201.466 110.852 201.51 L 130.691 201.51 C 132.325 201.466 133.996 200.764 135.059 199.701 C 136.122 198.638 136.824 196.967 136.868 195.333 L 136.868 191.336 C 136.824 189.702 136.122 188.031 135.059 186.968 C 133.996 185.905 132.325 185.203 130.691 185.159 L 110.852 185.159 C 109.218 185.203 107.547 185.905 106.484 186.968 Z M 95.94 195.623 C 95.226 194.897 94.033 194.357 92.929 194.357 C 91.825 194.357 90.633 194.897 89.919 195.623 C 89.207 196.347 88.68 197.546 88.68 198.66 C 88.68 199.774 89.207 200.973 89.919 201.697 C 90.632 202.422 91.825 202.963 92.929 202.963 C 94.034 202.963 95.226 202.422 95.94 201.697 C 96.652 200.973 97.179 199.774 97.179 198.66 C 97.179 197.546 96.652 196.347 95.94 195.623 Z M 95.276 185.263 C 94.562 184.537 93.37 183.996 92.265 183.996 C 91.16 183.996 89.968 184.537 89.254 185.263 C 88.542 185.987 88.015 187.186 88.015 188.3 C 88.015 189.414 88.542 190.613 89.254 191.336 C 89.968 192.062 91.161 192.602 92.265 192.602 C 93.37 192.602 94.562 192.062 95.275 191.336 C 95.988 190.612 96.514 189.414 96.514 188.3 C 96.514 187.187 95.988 185.987 95.276 185.263 Z M 59.138 189.366 C 57.283 191.036 56.282 193.501 56.609 195.84 C 57.088 198.133 58.858 200.254 61.192 201.489 C 63.494 202.708 66.613 203.313 69.721 203.03 L 74.648 202.546 C 77.757 202.217 80.594 201.016 82.415 199.375 C 84.27 197.704 85.27 195.24 84.944 192.901 C 84.465 190.609 82.694 188.487 80.36 187.251 C 78.058 186.032 74.939 185.427 71.831 185.711 L 66.905 186.195 C 63.796 186.524 60.959 187.725 59.138 189.366 Z M 52.219 198.013 C 51.506 197.288 50.313 196.747 49.208 196.747 C 48.104 196.747 46.911 197.288 46.198 198.013 C 45.486 198.738 44.959 199.937 44.959 201.051 C 44.959 202.165 45.486 203.364 46.198 204.088 C 46.911 204.813 48.104 205.354 49.208 205.354 C 50.313 205.354 51.506 204.813 52.219 204.088 C 52.932 203.364 53.458 202.164 53.458 201.051 C 53.458 199.937 52.932 198.738 52.219 198.013 Z M 51.555 187.654 C 50.841 186.929 49.649 186.388 48.544 186.388 C 47.439 186.388 46.247 186.929 45.533 187.654 C 44.821 188.378 44.294 189.577 44.294 190.691 C 44.294 191.805 44.821 193.004 45.533 193.727 C 46.247 194.453 47.44 194.993 48.544 194.993 C 49.648 194.993 50.841 194.453 51.555 193.727 C 52.267 193.004 52.794 191.805 52.794 190.691 C 52.794 189.577 52.267 188.378 51.555 187.654 Z M 18.559 161.85 C 20.2 161.6 21.758 160.786 22.837 159.69 C 23.407 159.111 23.898 158.398 24.271 157.609 L 24.294 157.609 C 27.493 163.291 34.575 170.189 42.244 171.002 C 47.562 171.425 51.621 169.737 54.981 166.854 C 56.358 165.653 57.702 164.131 58.608 162.42 L 70.661 161.765 C 70.78 161.984 70.905 162.19 71.032 162.384 C 73.055 165.357 76.064 167.256 79.275 168.565 C 82.775 169.971 86.02 170.537 89.764 170.587 C 92.876 170.621 98.356 170.093 101.366 169.091 C 105.07 167.814 107.349 166.175 110.156 163.575 C 111.82 161.986 112.993 159.682 113.704 157.611 C 114.518 155.1 114.26 150.908 114.26 150.908 L 114.177 149.56 L 112.908 150.044 C 109.281 151.426 106.068 153.305 103.234 155.452 C 100.036 157.889 98.452 159.52 96.324 161.788 L 96.105 127.129 C 98.953 130.403 100.756 132.893 104.538 136.055 C 107.712 138.684 109.478 139.762 112.701 140.824 L 114.28 141.343 C 113.637 142.484 113.246 143.828 113.246 145.173 C 113.246 147.206 114.138 149.238 115.444 150.565 C 116.751 151.893 118.762 152.806 120.772 152.806 C 122.781 152.806 124.792 151.893 126.1 150.565 C 127.405 149.238 128.298 147.206 128.298 145.173 C 128.298 143.828 127.907 142.483 127.264 141.343 L 128.841 140.824 C 132.064 139.762 133.831 138.684 137.004 136.055 C 140.787 132.893 142.589 130.403 145.437 127.129 L 145.218 161.788 C 143.091 159.52 141.506 157.889 138.308 155.452 C 135.475 153.305 132.262 151.426 128.634 150.044 L 127.365 149.56 L 127.283 150.908 C 127.283 150.908 127.025 155.1 127.838 157.612 C 128.549 159.682 129.722 161.986 131.387 163.575 C 134.193 166.175 136.472 167.815 140.177 169.091 C 143.187 170.093 148.667 170.621 151.778 170.587 C 155.522 170.537 158.768 169.971 162.268 168.565 C 165.479 167.256 168.488 165.356 170.51 162.384 C 170.637 162.191 170.762 161.984 170.882 161.766 L 182.935 162.421 C 183.841 164.131 185.185 165.654 186.562 166.854 C 189.922 169.737 193.98 171.425 199.298 171.002 C 206.978 170.188 214.069 163.273 217.262 157.587 C 217.636 158.384 218.131 159.105 218.705 159.69 C 219.754 160.756 221.255 161.554 222.846 161.827 C 220.399 167.821 218.143 173.789 215.967 179.8 C 209.648 179.089 196.476 177.701 183.395 176.913 C 165.365 175.827 145.548 175.266 135.798 175.266 L 105.719 175.266 C 89.828 175.315 73.956 176.063 58.128 176.912 L 57.828 176.929 L 57.825 176.931 L 58.129 176.931 C 47.771 177.677 35.858 178.488 25.084 179.802 C 23.013 173.848 20.869 167.798 18.559 161.85 Z M 214.411 215.665 C 216.528 216.197 218.006 217.223 218.997 218.46 C 220.699 220.586 220.615 223.29 220.553 225.26 C 220.492 227.188 219.649 228.919 217.7 230.312 C 216.435 231.216 214.704 231.978 212.419 232.559 C 143.96 221.219 75.214 225.059 29.322 232.506 C 26.621 231.776 24.887 230.978 23.758 230.127 C 21.623 228.518 21.289 226.721 21.036 224.839 C 20.781 222.94 21.213 220.979 22.357 219.22 C 23.249 217.85 24.701 216.619 26.852 215.691 C 27.203 215.64 27.556 215.584 27.913 215.524 C 28.314 215.893 28.798 216.238 29.353 216.54 L 29.626 216.689 L 29.956 216.64 C 40.28 215.126 52.454 214.208 63.144 213.38 C 77.619 212.477 92.204 212.213 106.78 212.058 L 134.744 212.058 C 143.459 212.058 161.848 212.33 178.38 213.401 C 194.829 214.465 211.628 216.643 211.628 216.643 L 211.965 216.686 L 212.239 216.527 C 212.825 216.187 213.327 215.808 213.733 215.407 C 214.175 215.573 214.411 215.665 214.411 215.665 Z M 216.032 187.956 L 196.882 194.55 L 212.006 207.315 L 211.59 209.314 C 207.311 208.775 193.103 207.056 179.009 206.143 C 162.234 205.057 143.803 204.796 134.744 204.796 L 106.775 204.796 C 92.006 204.843 77.244 205.293 62.517 206.143 L 62.2 206.161 L 62.525 206.161 C 52.302 206.952 40.436 207.819 29.947 209.281 L 29.538 207.316 L 44.662 194.55 L 25.512 187.957 L 25.337 187.115 C 35.935 185.774 48.055 184.922 58.784 184.15 C 74.365 183.247 90.056 182.683 105.724 182.528 L 135.798 182.528 C 145.165 182.528 164.947 183.1 182.738 184.171 C 196.644 185.007 210.783 186.531 216.201 187.146 L 216.032 187.956 Z M 25.564 190.09 L 40.68 195.294 L 28.264 205.774 L 26.981 202.706 L 23.387 198.247 L 25.489 192.893 L 25.564 190.09 Z M 94.514 188.3 C 94.514 189.011 94.313 189.463 93.85 189.934 C 93.388 190.403 92.955 190.602 92.265 190.602 C 91.574 190.602 91.142 190.403 90.68 189.934 C 90.216 189.462 90.015 189.01 90.015 188.3 C 90.015 187.59 90.216 187.137 90.68 186.665 C 91.142 186.195 91.575 185.996 92.265 185.996 C 92.955 185.996 93.387 186.195 93.85 186.665 C 94.313 187.137 94.514 187.589 94.514 188.3 Z M 95.179 198.66 C 95.179 199.37 94.978 199.823 94.514 200.294 C 94.052 200.764 93.619 200.963 92.929 200.963 C 92.239 200.963 91.807 200.764 91.345 200.294 C 90.881 199.823 90.68 199.37 90.68 198.66 C 90.68 197.949 90.881 197.497 91.345 197.025 C 91.807 196.556 92.239 196.357 92.929 196.357 C 93.62 196.357 94.052 196.556 94.514 197.026 C 94.978 197.497 95.179 197.949 95.179 198.66 Z M 50.794 190.691 C 50.794 191.401 50.593 191.853 50.129 192.325 C 49.667 192.794 49.235 192.993 48.544 192.993 C 47.853 192.993 47.421 192.794 46.959 192.325 C 46.495 191.853 46.294 191.401 46.294 190.691 C 46.294 189.981 46.495 189.528 46.959 189.057 C 47.421 188.587 47.854 188.388 48.544 188.388 C 49.234 188.388 49.667 188.587 50.129 189.057 C 50.593 189.528 50.794 189.981 50.794 190.691 Z M 51.458 201.051 C 51.458 201.762 51.257 202.214 50.794 202.685 C 50.331 203.155 49.899 203.354 49.208 203.354 C 48.518 203.354 48.086 203.155 47.624 202.685 C 47.16 202.214 46.959 201.761 46.959 201.051 C 46.959 200.34 47.16 199.887 47.624 199.416 C 48.086 198.946 48.518 198.747 49.208 198.747 C 49.899 198.747 50.331 198.946 50.794 199.416 C 51.257 199.887 51.458 200.34 51.458 201.051 Z M 182.964 195.491 C 182.72 197.298 181.435 198.652 179.415 199.721 C 177.364 200.807 174.83 201.337 172.018 201.039 L 167.092 200.555 C 164.281 200.302 162.051 199.315 160.467 197.888 C 158.916 196.491 158.172 195.009 158.569 193.248 C 158.814 191.441 160.098 190.088 162.118 189.018 C 164.17 187.932 166.704 187.402 169.516 187.7 L 174.442 188.184 C 177.253 188.437 179.483 189.424 181.067 190.851 C 182.618 192.248 183.361 193.731 182.964 195.491 Z M 213.28 205.773 L 200.864 195.294 L 215.98 190.089 L 216.053 192.807 L 218.295 198.142 L 214.55 202.738 L 213.28 205.773 Z M 149.278 185.996 C 149.968 185.996 150.401 186.195 150.863 186.665 C 151.327 187.136 151.528 187.589 151.528 188.299 C 151.528 189.01 151.327 189.463 150.863 189.934 C 150.401 190.404 149.968 190.603 149.278 190.603 C 148.588 190.603 148.156 190.404 147.694 189.934 C 147.23 189.463 147.029 189.01 147.029 188.299 C 147.029 187.589 147.23 187.136 147.694 186.665 C 148.156 186.195 148.588 185.996 149.278 185.996 Z M 148.615 196.357 C 149.305 196.357 149.737 196.556 150.199 197.026 C 150.663 197.497 150.864 197.95 150.864 198.661 C 150.864 199.371 150.663 199.823 150.2 200.295 C 149.737 200.764 149.305 200.963 148.615 200.963 C 147.924 200.963 147.492 200.764 147.03 200.295 C 146.566 199.823 146.365 199.371 146.365 198.661 C 146.365 197.95 146.566 197.497 147.03 197.026 C 147.492 196.556 147.925 196.357 148.615 196.357 Z M 192.999 188.387 C 193.69 188.387 194.122 188.586 194.584 189.055 C 195.048 189.527 195.249 189.979 195.249 190.689 C 195.249 191.4 195.048 191.853 194.584 192.324 C 194.122 192.794 193.689 192.993 192.999 192.993 C 192.309 192.993 191.877 192.794 191.415 192.324 C 190.951 191.853 190.75 191.4 190.75 190.689 C 190.75 189.979 190.951 189.527 191.415 189.055 C 191.877 188.586 192.309 188.387 192.999 188.387 Z M 192.336 198.748 C 193.026 198.748 193.458 198.947 193.921 199.417 C 194.384 199.888 194.585 200.341 194.585 201.052 C 194.585 201.762 194.384 202.215 193.921 202.686 C 193.459 203.155 193.026 203.354 192.336 203.354 C 191.646 203.354 191.213 203.155 190.751 202.685 C 190.287 202.214 190.086 201.762 190.086 201.052 C 190.086 200.341 190.287 199.889 190.751 199.417 C 191.214 198.947 191.646 198.748 192.336 198.748 Z M 27.96 112.464 C 34.671 108.426 44.223 109.722 44.223 109.722 C 44.223 109.722 52.567 100.5 58.644 97.09 C 65.179 93.423 71.953 92.699 79.302 92.699 C 86.652 92.699 99.842 99.27 106.974 101.202 C 110.683 102.206 119.057 105.594 119.057 105.594 C 119.057 105.594 127.431 102.206 131.14 101.202 C 138.272 99.27 151.462 92.699 158.812 92.699 C 166.162 92.699 173.164 93.552 179.47 97.09 C 185.776 100.629 189.214 109.722 189.214 109.722 C 189.214 109.722 204.099 108.97 215.064 114.441 C 215.944 114.88 216.787 115.408 217.592 116.001 C 218.354 117.24 219.099 118.505 219.826 119.795 C 218.328 119.67 216.805 119.572 215.261 119.498 L 213.773 119.427 L 214.272 120.832 C 217.722 130.551 221.055 139.337 221.028 147.176 C 220.467 147.409 220.278 147.527 219.643 147.968 C 213.841 142.45 211.754 135.71 209.238 128.321 L 208.205 125.287 L 197.516 162.928 L 199.096 162.618 C 202.168 162.014 202.951 161.458 204.643 160.74 C 206.429 159.983 208.717 159.211 214.538 158.036 C 211.284 163.099 206.273 168.389 199.034 168.928 C 194.196 169.427 190.883 167.979 187.788 165.262 C 186.277 163.957 185.231 162.805 184.49 161.328 L 185.866 159.601 C 185.878 159.668 185.892 159.735 185.907 159.802 C 186.599 162.18 188.011 164.231 190.123 165.605 C 191.994 166.706 196.179 167.017 196.179 167.017 L 197.557 167.12 L 195.946 160.903 C 195.481 159.499 196.051 158.339 196.846 156.862 C 197.644 155.38 198.721 153.726 199.195 151.832 C 199.721 149.553 199.986 146.777 199.158 144.408 C 198.218 141.965 196.205 139.435 193.77 138.264 C 192.769 137.847 191.543 137.752 190.583 137.817 C 189.194 137.929 188.94 138.096 188.123 138.313 C 188.309 137.063 188.579 136.296 188.407 134.045 C 188.145 131.323 185.921 126.393 184.687 124.106 C 182.585 120.249 179.278 116.755 178.9 116.381 L 178.19 115.678 L 177.487 116.388 C 177.149 116.729 173.592 120.06 171.23 123.758 C 169.824 125.987 168.344 129.31 167.909 131.971 C 167.577 134.152 167.667 135.652 167.671 137.165 C 166.432 136.694 165.236 136.154 163.855 135.944 C 162.902 135.813 161.672 135.822 160.644 136.168 C 158.134 137.167 155.95 139.551 154.843 141.924 C 153.852 144.23 153.923 147.016 154.289 149.326 C 154.944 153.05 157.02 155.521 155.818 158.421 L 153.778 164.51 L 155.16 164.504 C 155.16 164.504 159.356 164.484 161.3 163.517 C 163.502 162.294 165.053 160.346 165.909 158.022 C 165.98 157.803 166.04 157.583 166.091 157.363 L 168.213 161.545 L 168.516 161.562 C 166.808 164.011 164.353 165.453 161.432 166.629 C 158.138 167.977 155.256 168.469 151.669 168.505 C 148.665 168.543 143.516 168.069 140.732 167.114 C 137.298 165.977 135.378 164.553 132.662 162.027 C 131.214 160.728 130.307 158.834 129.648 156.884 C 128.884 154.766 129.114 153.648 129.135 152.349 C 132.062 153.587 134.28 154.883 137.014 156.963 C 140.107 159.307 142.791 162.019 145.368 164.937 L 147.1 166.9 L 147.387 121.781 L 145.629 123.721 C 141.897 127.843 139.258 131.449 135.641 134.435 C 132.583 136.982 131.846 137.413 129.906 138.207 C 130.491 136.005 130.54 135.003 132.749 132.01 C 135.947 127.543 139.02 122.803 142.835 118.41 L 144.006 117.061 L 142.243 116.769 C 135.083 115.58 127.904 115.254 120.687 115.254 C 113.47 115.254 106.29 115.58 99.131 116.769 L 97.368 117.061 L 98.539 118.41 C 102.354 122.803 105.427 127.543 108.625 132.01 C 110.834 135.003 110.565 134.94 111.467 138.206 C 109.528 137.412 108.791 136.982 105.733 134.435 C 102.116 131.449 99.477 127.843 95.745 123.721 L 93.987 121.781 L 94.273 166.899 L 96.005 164.937 C 98.583 162.019 101.267 159.307 104.36 156.963 C 107.093 154.882 109.311 153.587 112.239 152.349 C 112.26 153.648 112.49 154.766 111.726 156.884 C 111.067 158.834 110.16 160.728 108.712 162.027 C 105.995 164.553 104.076 165.977 100.642 167.114 C 97.857 168.069 92.709 168.543 89.704 168.505 C 86.118 168.469 83.236 167.977 79.942 166.629 C 77.02 165.453 74.566 164.011 72.858 161.562 L 73.16 161.545 L 75.282 157.361 C 75.333 157.581 75.393 157.802 75.465 158.021 C 76.32 160.346 77.871 162.294 80.074 163.517 C 82.018 164.485 86.214 164.504 86.214 164.504 L 87.596 164.51 L 85.555 158.421 C 84.353 155.521 86.43 153.05 87.085 149.326 C 87.45 147.016 87.522 144.23 86.531 141.924 C 85.423 139.551 83.239 137.167 80.73 136.168 C 79.702 135.822 78.472 135.813 77.519 135.944 C 76.137 136.154 74.942 136.694 73.703 137.165 C 73.707 135.652 73.797 134.153 73.464 131.972 C 73.03 129.31 71.549 125.987 70.143 123.758 C 67.781 120.06 64.224 116.728 63.885 116.387 L 63.182 115.679 L 62.473 116.381 C 62.096 116.755 58.788 120.249 56.686 124.106 C 55.452 126.393 53.229 131.322 52.967 134.045 C 52.794 136.296 53.064 137.063 53.25 138.313 C 52.433 138.096 52.18 137.929 50.791 137.817 C 49.83 137.752 48.604 137.847 47.603 138.264 C 45.169 139.435 43.156 141.965 42.217 144.408 C 41.388 146.777 41.653 149.553 42.179 151.832 C 42.652 153.725 43.73 155.38 44.528 156.862 C 45.323 158.339 45.893 159.499 45.428 160.903 L 43.817 167.12 L 45.195 167.017 C 45.195 167.017 49.379 166.706 51.251 165.605 C 53.363 164.232 54.775 162.181 55.466 159.802 C 55.481 159.735 55.495 159.668 55.507 159.601 L 56.883 161.328 C 56.142 162.805 55.096 163.957 53.586 165.262 C 50.49 167.979 47.177 169.427 42.34 168.928 C 35.1 168.389 29.743 163.561 26.836 158.036 C 32.656 159.211 34.945 159.983 36.731 160.74 C 38.423 161.458 39.206 162.014 42.278 162.618 L 43.858 162.928 L 33.169 125.287 L 32.136 128.321 C 29.62 135.71 28.011 142.357 21.739 147.959 C 21.284 147.634 21.118 147.531 20.346 147.19 C 20.315 139.347 23.651 130.551 27.101 120.832 L 27.6 119.427 L 26.112 119.498 C 24.568 119.571 23.046 119.67 21.548000000000002 119.794 C 22.462 118.173 23.404 116.591 24.373 115.049 C 25.506 114.099 26.705 113.219 27.96 112.464 Z M 126.003 68.663 L 115.352 68.608 C 86.348 68.486 64.744 75.833 48.405 86.879 C 36.106 95.234 26.691 106.312 19.124 120.053 C 15.869 120.349 12.843 120.761 9.875 121.371 C 10.492 120.124 11.122 118.894 11.766 117.681 C 13.012 117.323 14.159 116.645 15 115.79 C 16.261 114.508 17.127 112.538 17.127 110.573 C 17.127 109.988 17.051 109.403 16.909 108.835 C 17.925 107.243 18.972 105.687 20.053 104.167 C 21.543 103.881 22.945 103.122 23.928 102.123 C 25.189 100.841 26.055 98.871 26.055 96.907 C 26.055 96.779 26.052 96.651 26.044 96.524 C 27.006 95.412 27.994 94.322 29.006 93.255 C 29.138 93.263 29.27 93.268 29.402 93.268 C 31.344 93.268 33.295 92.382 34.557 91.1 C 35.786 89.851 36.639 87.95 36.682 86.036 C 37.968 84.959 39.29 83.912 40.649 82.894 C 41.094 82.984 41.548 83.032 42 83.032 C 43.943 83.032 45.893 82.147 47.156 80.864 C 48.079 79.925 48.79 78.619 49.105 77.215 C 50.658 76.279 52.247 75.375 53.873 74.507 C 54.564 74.728 55.289 74.851 56.013 74.851 C 57.955 74.851 59.905 73.966 61.168 72.682 C 61.806 72.033 62.343 71.209 62.718 70.297 C 64.191 69.677 65.691 69.083 67.219 68.517 C 68.184 68.98 69.266 69.253 70.345 69.253 C 72.287 69.253 74.238 68.368 75.5 67.085 C 75.952 66.626 76.353 66.078 76.681 65.475 C 78.005 65.11 79.347 64.766 80.708 64.441 C 81.949 65.445 83.63 66.104 85.305 66.104 C 87.247 66.104 89.197 65.218 90.46 63.936 C 90.91 63.478 91.31 62.932 91.638 62.331 C 92.908 62.141 94.194 61.967 95.495 61.809 C 95.497 61.813 95.501 61.816 95.504 61.819 C 96.766 63.103 98.717 63.988 100.659 63.988 C 102.601 63.988 104.551 63.103 105.814 61.819 C 106.089 61.538 106.347 61.225 106.58 60.887 C 108.655 60.789 110.767 60.73 112.914 60.712 C 115.22 62.022 117.908 62.793 120.687 62.793 C 123.416 62.793 126.058 62.049 128.335 60.782 C 130.555 60.819 132.737 60.894 134.88 61.009 C 135.09 61.302 135.318 61.573 135.56 61.82 C 136.823 63.103 138.773 63.988 140.715 63.988 C 142.59 63.988 144.472 63.163 145.736 61.952 C 147.12 62.122 148.487 62.308 149.837 62.511 C 150.144 63.041 150.508 63.524 150.913 63.935 C 152.176 65.218 154.126 66.104 156.068 66.104 C 157.677 66.104 159.293 65.496 160.518 64.557 C 161.961 64.895 163.382 65.255 164.782 65.636 C 165.093 66.176 165.462 66.667 165.873 67.084 C 167.136 68.368 169.086 69.253 171.028 69.253 C 172.066 69.253 173.106 69 174.042 68.569 C 175.621 69.143 177.17 69.747 178.69 70.38 C 179.062 71.258 179.586 72.054 180.205 72.683 C 181.468 73.966 183.418 74.851 185.361 74.851 C 186.075 74.851 186.791 74.731 187.473 74.515 C 189.109 75.381 190.708 76.284 192.271 77.223 C 192.587 78.623 193.298 79.927 194.218 80.863 C 195.481 82.147 197.431 83.032 199.374 83.032 C 199.826 83.032 200.28 82.985 200.724 82.894 C 202.083 83.912 203.406 84.959 204.691 86.036 C 204.735 87.95 205.588 89.851 206.817 91.099 C 208.079 92.382 210.03 93.268 211.971 93.268 C 212.103 93.268 212.235 93.263 212.367 93.256 C 213.379 94.323 214.367 95.413 215.33 96.525 C 215.322 96.652 215.319 96.779 215.319 96.906 C 215.319 98.87 216.185 100.841 217.446 102.122 C 218.429 103.122 219.831 103.881 221.32 104.167 C 222.401 105.688 223.449 107.244 224.465 108.836 C 224.323 109.404 224.247 109.989 224.247 110.574 C 224.247 112.539 225.113 114.508 226.374 115.79 C 227.215 116.645 228.363 117.324 229.609 117.681 C 230.25 118.889 230.877 120.115 231.493 121.358 C 228.631 120.767 225.619 120.331 222.234 120.025 C 214.671 106.296 205.26 95.229 192.969 86.879 C 176.622 75.83 154.995 68.836 126.003 68.663 Z M 231.529 105.188 C 233.056 105.188 234.247 105.732 235.258 106.76 C 236.271 107.789 236.811 109.013 236.811 110.574 C 236.811 112.136 236.271 113.359 235.258 114.387 C 234.247 115.415 233.056 115.959 231.529 115.959 C 230.002 115.959 228.811 115.415 227.799 114.387 C 226.787 113.359 226.247 112.136 226.247 110.574 C 226.247 109.013 226.787 107.789 227.799 106.76 C 228.811 105.732 230.002 105.188 231.529 105.188 Z M 222.601 91.521 C 224.128 91.521 225.319 92.065 226.33 93.092 C 227.343 94.121 227.883 95.344 227.883 96.906 C 227.883 98.468 227.343 99.69 226.33 100.72 C 225.319 101.748 224.128 102.291 222.601 102.291 C 221.073 102.291 219.883 101.748 218.871 100.72 C 217.859 99.69 217.319 98.468 217.319 96.906 C 217.319 95.344 217.859 94.121 218.871 93.092 C 219.883 92.065 221.073 91.521 222.601 91.521 Z M 140.715 51.218 C 142.242 51.218 143.433 51.762 144.445 52.789 C 145.457 53.819 145.997 55.042 145.997 56.604 C 145.997 58.165 145.457 59.388 144.445 60.417 C 143.433 61.445 142.242 61.988 140.715 61.988 C 139.188 61.988 137.997 61.445 136.986 60.417 C 135.973 59.388 135.433 58.165 135.433 56.604 C 135.433 55.042 135.973 53.819 136.986 52.789 C 137.997 51.762 139.188 51.218 140.715 51.218 Z M 211.971 80.498 C 213.499 80.498 214.69 81.041 215.701 82.069 C 216.714 83.098 217.254 84.321 217.254 85.883 C 217.254 87.444 216.714 88.667 215.7 89.696 C 214.69 90.725 213.499 91.268 211.971 91.268 C 210.444 91.268 209.253 90.725 208.242 89.696 C 207.23 88.667 206.689 87.444 206.689 85.883 C 206.689 84.321 207.23 83.098 208.242 82.069 C 209.253 81.041 210.444 80.498 211.971 80.498 Z M 199.374 70.262 C 200.901 70.262 202.092 70.806 203.103 71.833 C 204.116 72.862 204.656 74.085 204.656 75.647 C 204.656 77.208 204.116 78.431 203.103 79.461 C 202.092 80.489 200.901 81.032 199.374 81.032 C 197.846 81.032 196.656 80.489 195.644 79.461 C 194.631 78.431 194.091 77.208 194.091 75.647 C 194.091 74.085 194.631 72.862 195.644 71.833 C 196.656 70.806 197.846 70.262 199.374 70.262 Z M 185.361 62.081 C 186.888 62.081 188.079 62.625 189.09 63.652 C 190.103 64.682 190.643 65.904 190.643 67.467 C 190.643 69.028 190.103 70.251 189.09 71.28 C 188.079 72.308 186.888 72.851 185.361 72.851 C 183.833 72.851 182.643 72.308 181.631 71.28 C 180.618 70.251 180.078 69.028 180.078 67.467 C 180.078 65.904 180.618 64.682 181.631 63.652 C 182.643 62.625 183.833 62.081 185.361 62.081 Z M 156.068 53.334 C 157.596 53.334 158.786 53.878 159.798 54.905 C 160.81 55.934 161.35 57.157 161.35 58.719 C 161.35 60.281 160.81 61.503 159.798 62.533 C 158.786 63.561 157.596 64.104 156.068 64.104 C 154.541 64.104 153.35 63.561 152.339 62.533 C 151.326 61.503 150.786 60.281 150.786 58.719 C 150.786 57.157 151.326 55.934 152.339 54.905 C 153.35 53.878 154.541 53.334 156.068 53.334 Z M 171.028 56.483 C 172.555 56.483 173.746 57.027 174.758 58.054 C 175.77 59.083 176.31 60.306 176.31 61.868 C 176.31 63.429 175.77 64.652 174.758 65.682 C 173.746 66.71 172.555 67.253 171.028 67.253 C 169.501 67.253 168.31 66.71 167.298 65.682 C 166.286 64.652 165.746 63.429 165.746 61.868 C 165.746 60.306 166.286 59.083 167.298 58.054 C 168.31 57.027 169.501 56.483 171.028 56.483 Z M 75.627 61.869 C 75.627 63.43 75.087 64.653 74.075 65.682 C 73.063 66.71 71.872 67.253 70.345 67.253 C 68.818 67.253 67.627 66.71 66.615 65.682 C 65.603 64.653 65.063 63.43 65.063 61.869 C 65.063 60.307 65.603 59.084 66.615 58.054 C 67.627 57.027 68.818 56.483 70.345 56.483 C 71.872 56.483 73.063 57.027 74.075 58.054 C 75.087 59.084 75.627 60.307 75.627 61.869 Z M 90.587 58.72 C 90.587 60.281 90.047 61.504 89.034 62.533 C 88.023 63.561 86.832 64.104 85.305 64.104 C 83.778 64.104 82.587 63.561 81.575 62.533 C 80.563 61.504 80.023 60.281 80.023 58.72 C 80.023 57.157 80.563 55.935 81.575 54.905 C 82.587 53.878 83.778 53.334 85.305 53.334 C 86.832 53.334 88.023 53.878 89.034 54.905 C 90.047 55.935 90.587 57.157 90.587 58.72 Z M 61.295 67.466 C 61.295 69.028 60.755 70.25 59.742 71.28 C 58.731 72.308 57.54 72.851 56.013 72.851 C 54.485 72.851 53.295 72.308 52.283 71.28 C 51.27 70.25 50.73 69.028 50.73 67.466 C 50.73 65.904 51.27 64.681 52.283 63.652 C 53.295 62.625 54.485 62.081 56.013 62.081 C 57.54 62.081 58.731 62.625 59.742 63.652 C 60.755 64.681 61.295 65.904 61.295 67.466 Z M 47.283 75.648 C 47.283 77.209 46.743 78.432 45.73 79.461 C 44.718 80.489 43.528 81.032 42 81.032 C 40.473 81.032 39.282 80.489 38.271 79.461 C 37.258 78.431 36.717 77.209 36.717 75.648 C 36.717 74.086 37.258 72.863 38.271 71.834 C 39.282 70.806 40.473 70.262 42 70.262 C 43.528 70.262 44.718 70.806 45.73 71.833 C 46.743 72.863 47.283 74.086 47.283 75.648 Z M 34.684 85.883 C 34.684 87.445 34.144 88.668 33.132 89.697 C 32.12 90.725 30.93 91.268 29.402 91.268 C 27.875 91.268 26.684 90.725 25.673 89.697 C 24.66 88.668 24.12 87.445 24.12 85.883 C 24.12 84.322 24.66 83.099 25.673 82.069 C 26.684 81.041 27.875 80.498 29.402 80.498 C 30.93 80.498 32.12 81.041 33.132 82.069 C 34.144 83.099 34.684 84.322 34.684 85.883 Z M 105.941 56.603 C 105.941 58.164 105.401 59.387 104.388 60.417 C 103.377 61.445 102.186 61.988 100.659 61.988 C 99.132 61.988 97.941 61.445 96.929 60.417 C 95.917 59.387 95.377 58.164 95.377 56.603 C 95.377 55.041 95.917 53.818 96.929 52.789 C 97.941 51.762 99.132 51.218 100.659 51.218 C 102.186 51.218 103.377 51.762 104.388 52.789 C 105.401 53.818 105.941 55.041 105.941 56.603 Z M 24.055 96.907 C 24.055 98.468 23.515 99.691 22.503 100.72 C 21.491 101.748 20.301 102.291 18.773 102.291 C 17.245 102.291 16.054 101.748 15.043 100.72 C 14.03 99.691 13.49 98.468 13.49 96.907 C 13.49 95.344 14.03 94.122 15.044 93.092 C 16.054 92.065 17.245 91.521 18.773 91.521 C 20.301 91.521 21.491 92.065 22.503 93.092 C 23.515 94.122 24.055 95.344 24.055 96.907 Z M 15.127 110.573 C 15.127 112.135 14.587 113.358 13.575 114.387 C 12.563 115.415 11.373 115.959 9.845 115.959 C 8.318 115.959 7.127 115.415 6.116 114.387 C 5.103 113.358 4.563 112.135 4.563 110.573 C 4.563 109.012 5.103 107.789 6.116 106.76 C 7.127 105.732 8.318 105.188 9.845 105.188 C 11.373 105.188 12.563 105.732 13.575 106.76 C 14.587 107.789 15.127 109.012 15.127 110.573 Z M 130.35 56.791 C 127.822 59.319 124.532 60.793 120.687 60.793 C 116.841 60.793 113.552 59.319 111.024 56.791 C 109.372 55.139 108.169 53.161 107.535 50.915 L 133.839 50.915 C 133.204 53.161 132.002 55.139 130.35 56.791 Z M 111.024 37.465 C 112.591 35.899 114.45 34.737 116.553 34.079 L 116.553 42.647 L 107.752 42.647 C 108.425 40.686 109.544 38.945 111.024 37.465 Z M 130.35 37.465 C 131.829 38.945 132.948 40.686 133.622 42.647 L 124.798 42.647 L 124.798 34.072 C 126.91 34.728 128.778 35.893 130.35 37.465 Z M 107.657 32.39 C 109.108 30.553 110.841 29.189 112.245 27.322 C 113.501 25.652 114.504 23.609 115.131 21.494 C 115.22 21.596 115.311 21.695 115.405 21.79 C 116.7 23.106 118.695 24.012 120.687 24.012 C 122.678 24.012 124.673 23.106 125.968 21.79 C 126.062 21.695 126.153 21.596 126.243 21.493 C 126.87 23.608 127.873 25.652 129.128 27.322 C 130.533 29.189 132.265 30.553 133.716 32.39 L 124.798 32.39 L 124.798 30.336 L 116.553 30.336 L 116.553 32.39 Z M 108.419 23.617 C 106.552 25.022 105.188 26.755 103.351 28.205 L 103.351 4.684 C 105.188 6.135 106.552 7.867 108.419 9.272 C 110.141 10.566 112.26 11.592 114.487 12.256 C 113.711 13.463 113.226 14.954 113.226 16.445 C 113.226 17.936 113.711 19.426 114.487 20.634 C 112.26 21.297 110.141 22.323 108.419 23.617 Z M 112.245 5.567 C 110.841 3.7 109.108 2.336 107.657 0.5 L 133.716 0.5 C 132.265 2.336 130.533 3.7 129.128 5.567 C 127.873 7.237 126.87 9.281 126.243 11.397 C 126.153 11.294 126.062 11.195 125.968 11.1 C 124.673 9.784 122.678 8.878 120.687 8.878 C 118.695 8.878 116.7 9.784 115.405 11.1 C 115.311 11.195 115.22 11.294 115.131 11.396 C 114.504 9.281 113.501 7.237 112.245 5.567 Z M 132.954 9.272 C 134.822 7.867 136.186 6.135 138.022 4.684 L 138.022 28.205 C 136.186 26.755 134.822 25.022 132.954 23.617 C 131.233 22.323 129.113 21.297 126.887 20.634 C 127.663 19.426 128.148 17.936 128.148 16.445 C 128.148 14.954 127.663 13.463 126.887 12.256 C 129.113 11.592 131.233 10.566 132.954 9.272 Z M 126.148 16.445 C 126.148 18.057 125.588 19.325 124.543 20.387 C 123.499 21.448 122.264 22.012 120.687 22.012 C 119.11 22.012 117.874 21.448 116.831 20.387 C 115.786 19.325 115.226 18.057 115.226 16.445 C 115.226 14.833 115.786 13.565 116.831 12.503 C 117.874 11.442 119.11 10.878 120.687 10.878 C 122.264 10.878 123.499 11.442 124.543 12.503 C 125.588 13.565 126.148 14.833 126.148 16.445 Z M 118.553 32.336 L 118.553 44.647 L 106.242 44.647 L 106.242 48.915 L 135.131 48.915 L 135.131 44.647 L 122.798 44.647 L 122.798 32.336 L 118.553 32.336 Z" style="fill: rgba(254, 97, 0, 0.75);"/>
</svg>