<?xml version="1.0" encoding="utf-8"?>
<svg version="1.0" width="1024px" height="512px" id="svg7107" xmlns="http://www.w3.org/2000/svg" xmlns:xlink="http://www.w3.org/1999/xlink" xmlns:bx="https://boxy-svg.com">
  <defs id="defs3">
    <polygon points="0,-1 0.58778525,0.80901699 -0.95105652,-0.30901699 0.95105652,-0.30901699 -0.58778525,0.80901699 0,-1 " transform="scale(53,53)" id="polygon9535"/>
    <polygon points="0,-1 0.58778525,0.80901699 -0.95105652,-0.30901699 0.95105652,-0.30901699 -0.58778525,0.80901699 0,-1 " transform="scale(53,53)" id="star"/>
    <polygon points="0,-1 0.58778525,0.80901699 -0.95105652,-0.30901699 0.95105652,-0.30901699 -0.58778525,0.80901699 0,-1 " transform="scale(53,53)" id="polygon2895"/>
    <polygon points="0,-1 0.58778525,0.80901699 -0.95105652,-0.30901699 0.95105652,-0.30901699 -0.58778525,0.80901699 0,-1 " transform="scale(53,53)" id="polygon2869"/>
    <polygon points="0,-1 0.58778525,0.80901699 -0.95105652,-0.30901699 0.95105652,-0.30901699 -0.58778525,0.80901699 0,-1 " transform="scale(53,53)" id="polygon5833"/>
    <polygon points="0,-1 0.58778525,0.80901699 -0.95105652,-0.30901699 0.95105652,-0.30901699 -0.58778525,0.80901699 0,-1 " transform="scale(53,53)" id="polygon5665"/>
    <polygon points="0,-1 0.58778525,0.80901699 -0.95105652,-0.30901699 0.95105652,-0.30901699 -0.58778525,0.80901699 0,-1 " transform="scale(53,53)" id="polygon3554"/>
    <polygon points="0,-1 0.58778525,0.80901699 -0.95105652,-0.30901699 0.95105652,-0.30901699 -0.58778525,0.80901699 0,-1 " transform="scale(53,53)" id="polygon3528"/>
    <polygon points="0,-1 0.58778525,0.80901699 -0.95105652,-0.30901699 0.95105652,-0.30901699 -0.58778525,0.80901699 0,-1 " transform="scale(53,53)" id="polygon4014"/>
    <polygon points="0,-1 0.58778525,0.80901699 -0.95105652,-0.30901699 0.95105652,-0.30901699 -0.58778525,0.80901699 0,-1 " transform="scale(53,53)" id="polygon4673"/>
    <polygon points="0,-1 0.58778525,0.80901699 -0.95105652,-0.30901699 0.95105652,-0.30901699 -0.58778525,0.80901699 0,-1 " transform="scale(53,53)" id="polygon4633"/>
    <polygon points="0,-1 0.58778525,0.80901699 -0.95105652,-0.30901699 0.95105652,-0.30901699 -0.58778525,0.80901699 0,-1 " transform="scale(53,53)" id="polygon4493"/>
    <polygon points="0,-1 0.58778525,0.80901699 -0.95105652,-0.30901699 0.95105652,-0.30901699 -0.58778525,0.80901699 0,-1 " transform="scale(53,53)" id="polygon4467"/>
    <polygon points="0,-1 0.58778525,0.80901699 -0.95105652,-0.30901699 0.95105652,-0.30901699 -0.58778525,0.80901699 0,-1 " transform="scale(53,53)" id="polygon8459"/>
    <polygon points="0,-1 0.58778525,0.80901699 -0.95105652,-0.30901699 0.95105652,-0.30901699 -0.58778525,0.80901699 0,-1 " transform="scale(53,53)" id="polygon8433"/>
    <polygon points="0,-1 0.58778525,0.80901699 -0.95105652,-0.30901699 0.95105652,-0.30901699 -0.58778525,0.80901699 0,-1 " transform="scale(53,53)" id="polygon8293"/>
    <polygon points="0,-1 0.58778525,0.80901699 -0.95105652,-0.30901699 0.95105652,-0.30901699 -0.58778525,0.80901699 0,-1 " transform="scale(53,53)" id="polygon8253"/>
    <polygon points="0,-1 0.58778525,0.80901699 -0.95105652,-0.30901699 0.95105652,-0.30901699 -0.58778525,0.80901699 0,-1 " transform="scale(53,53)" id="polygon8195"/>
    <polygon points="0,-1 0.58778525,0.80901699 -0.95105652,-0.30901699 0.95105652,-0.30901699 -0.58778525,0.80901699 0,-1 " transform="scale(53,53)" id="polygon8155"/>
    <polygon points="0,-1 0.58778525,0.80901699 -0.95105652,-0.30901699 0.95105652,-0.30901699 -0.58778525,0.80901699 0,-1 " transform="scale(53,53)" id="polygon8129"/>
    <polygon points="0,-1 0.58778525,0.80901699 -0.95105652,-0.30901699 0.95105652,-0.30901699 -0.58778525,0.80901699 0,-1 " transform="scale(53,53)" id="polygon7989"/>
    <polygon points="0,-1 0.58778525,0.80901699 -0.95105652,-0.30901699 0.95105652,-0.30901699 -0.58778525,0.80901699 0,-1 " transform="scale(53,53)" id="polygon7949"/>
    <polygon points="0,-1 0.58778525,0.80901699 -0.95105652,-0.30901699 0.95105652,-0.30901699 -0.58778525,0.80901699 0,-1 " transform="scale(53,53)" id="polygon7891"/>
    <polygon points="0,-1 0.58778525,0.80901699 -0.95105652,-0.30901699 0.95105652,-0.30901699 -0.58778525,0.80901699 0,-1 " transform="scale(53,53)" id="polygon7865"/>
    <polygon points="0,-1 0.58778525,0.80901699 -0.95105652,-0.30901699 0.95105652,-0.30901699 -0.58778525,0.80901699 0,-1 " transform="scale(53,53)" id="polygon7753"/>
    <polygon points="0,-1 0.58778525,0.80901699 -0.95105652,-0.30901699 0.95105652,-0.30901699 -0.58778525,0.80901699 0,-1 " transform="scale(53,53)" id="polygon7727"/>
    <polygon points="0,-1 0.58778525,0.80901699 -0.95105652,-0.30901699 0.95105652,-0.30901699 -0.58778525,0.80901699 0,-1 " transform="scale(53,53)" id="polygon59702"/>
    <polygon points="0,-1 0.58778525,0.80901699 -0.95105652,-0.30901699 0.95105652,-0.30901699 -0.58778525,0.80901699 0,-1 " transform="scale(53,53)" id="polygon6387"/>
    <polygon points="0,-1 0.58778525,0.80901699 -0.95105652,-0.30901699 0.95105652,-0.30901699 -0.58778525,0.80901699 0,-1 " transform="scale(53,53)" id="polygon6445"/>
    <polygon points="0,-1 0.58778525,0.80901699 -0.95105652,-0.30901699 0.95105652,-0.30901699 -0.58778525,0.80901699 0,-1 " transform="scale(53,53)" id="polygon7627"/>
    <polygon points="0,-1 0.58778525,0.80901699 -0.95105652,-0.30901699 0.95105652,-0.30901699 -0.58778525,0.80901699 0,-1 " transform="scale(53,53)" id="polygon23593"/>
    <polygon points="0,-1 0.58778525,0.80901699 -0.95105652,-0.30901699 0.95105652,-0.30901699 -0.58778525,0.80901699 0,-1 " transform="scale(53,53)" id="polygon23535"/>
    <polygon points="0,-1 0.58778525,0.80901699 -0.95105652,-0.30901699 0.95105652,-0.30901699 -0.58778525,0.80901699 0,-1 " transform="scale(53,53)" id="polygon23513"/>
    <polygon points="0,-1 0.58778525,0.80901699 -0.95105652,-0.30901699 0.95105652,-0.30901699 -0.58778525,0.80901699 0,-1 " transform="scale(53,53)" id="polygon26392"/>
    <polygon points="0,-1 0.58778525,0.80901699 -0.95105652,-0.30901699 0.95105652,-0.30901699 -0.58778525,0.80901699 0,-1 " transform="scale(53,53)" id="polygon10133"/>
    <polygon points="0,-1 0.58778525,0.80901699 -0.95105652,-0.30901699 0.95105652,-0.30901699 -0.58778525,0.80901699 0,-1 " transform="scale(53,53)" id="polygon11842"/>
    <polygon points="0,-1 0.58778525,0.80901699 -0.95105652,-0.30901699 0.95105652,-0.30901699 -0.58778525,0.80901699 0,-1 " transform="scale(53,53)" id="polygon11640"/>
    <polygon points="0,-1 0.58778525,0.80901699 -0.95105652,-0.30901699 0.95105652,-0.30901699 -0.58778525,0.80901699 0,-1 " transform="scale(53,53)" id="polygon53522"/>
    <polygon points="0,-1 0.58778525,0.80901699 -0.95105652,-0.30901699 0.95105652,-0.30901699 -0.58778525,0.80901699 0,-1 " transform="scale(53,53)" id="polygon13405"/>
    <polygon points="0,-1 0.58778525,0.80901699 -0.95105652,-0.30901699 0.95105652,-0.30901699 -0.58778525,0.80901699 0,-1 " transform="scale(53,53)" id="polygon17969"/>
    <polygon points="0,-1 0.58778525,0.80901699 -0.95105652,-0.30901699 0.95105652,-0.30901699 -0.58778525,0.80901699 0,-1 " transform="scale(53,53)" id="polygon68220"/>
    <polygon points="0,-1 0.58778525,0.80901699 -0.95105652,-0.30901699 0.95105652,-0.30901699 -0.58778525,0.80901699 0,-1 " transform="scale(53,53)" id="polygon68195"/>
    <polygon id="polygon5678" transform="scale(53,53)" points="0,-1 0.58778525,0.80901699 -0.95105652,-0.30901699 0.95105652,-0.30901699 -0.58778525,0.80901699 0,-1 "/>
    <polygon id="polygon5652" transform="scale(53,53)" points="0,-1 0.58778525,0.80901699 -0.95105652,-0.30901699 0.95105652,-0.30901699 -0.58778525,0.80901699 0,-1 "/>
    <polygon id="polygon5511" transform="scale(53,53)" points="0,-1 0.58778525,0.80901699 -0.95105652,-0.30901699 0.95105652,-0.30901699 -0.58778525,0.80901699 0,-1 "/>
    <polygon id="polygon5471" transform="scale(53,53)" points="0,-1 0.58778525,0.80901699 -0.95105652,-0.30901699 0.95105652,-0.30901699 -0.58778525,0.80901699 0,-1 "/>
    <polygon id="polygon5413" transform="scale(53,53)" points="0,-1 0.58778525,0.80901699 -0.95105652,-0.30901699 0.95105652,-0.30901699 -0.58778525,0.80901699 0,-1 "/>
    <polygon id="polygon5372" transform="scale(53,53)" points="0,-1 0.58778525,0.80901699 -0.95105652,-0.30901699 0.95105652,-0.30901699 -0.58778525,0.80901699 0,-1 "/>
    <polygon id="polygon5346" transform="scale(53,53)" points="0,-1 0.58778525,0.80901699 -0.95105652,-0.30901699 0.95105652,-0.30901699 -0.58778525,0.80901699 0,-1 "/>
    <polygon id="polygon5206" transform="scale(53,53)" points="0,-1 0.58778525,0.80901699 -0.95105652,-0.30901699 0.95105652,-0.30901699 -0.58778525,0.80901699 0,-1 "/>
    <polygon id="polygon5165" transform="scale(53,53)" points="0,-1 0.58778525,0.80901699 -0.95105652,-0.30901699 0.95105652,-0.30901699 -0.58778525,0.80901699 0,-1 "/>
    <polygon id="polygon5107" transform="scale(53,53)" points="0,-1 0.58778525,0.80901699 -0.95105652,-0.30901699 0.95105652,-0.30901699 -0.58778525,0.80901699 0,-1 "/>
    <polygon id="polygon5081" transform="scale(53,53)" points="0,-1 0.58778525,0.80901699 -0.95105652,-0.30901699 0.95105652,-0.30901699 -0.58778525,0.80901699 0,-1 "/>
    <polygon id="polygon4970" transform="scale(53,53)" points="0,-1 0.58778525,0.80901699 -0.95105652,-0.30901699 0.95105652,-0.30901699 -0.58778525,0.80901699 0,-1 "/>
    <polygon id="polygon4944" transform="scale(53,53)" points="0,-1 0.58778525,0.80901699 -0.95105652,-0.30901699 0.95105652,-0.30901699 -0.58778525,0.80901699 0,-1 "/>
    <polygon id="polygon6050" transform="scale(53,53)" points="0,-1 0.58778525,0.80901699 -0.95105652,-0.30901699 0.95105652,-0.30901699 -0.58778525,0.80901699 0,-1 "/>
    <polygon id="polygon6024" transform="scale(53,53)" points="0,-1 0.58778525,0.80901699 -0.95105652,-0.30901699 0.95105652,-0.30901699 -0.58778525,0.80901699 0,-1 "/>
    <polygon id="polygon5884" transform="scale(53,53)" points="0,-1 0.58778525,0.80901699 -0.95105652,-0.30901699 0.95105652,-0.30901699 -0.58778525,0.80901699 0,-1 "/>
    <polygon id="polygon5844" transform="scale(53,53)" points="0,-1 0.58778525,0.80901699 -0.95105652,-0.30901699 0.95105652,-0.30901699 -0.58778525,0.80901699 0,-1 "/>
    <polygon id="polygon5785" transform="scale(53,53)" points="0,-1 0.58778525,0.80901699 -0.95105652,-0.30901699 0.95105652,-0.30901699 -0.58778525,0.80901699 0,-1 "/>
    <polygon id="polygon5745" transform="scale(53,53)" points="0,-1 0.58778525,0.80901699 -0.95105652,-0.30901699 0.95105652,-0.30901699 -0.58778525,0.80901699 0,-1 "/>
    <polygon id="polygon5719" transform="scale(53,53)" points="0,-1 0.58778525,0.80901699 -0.95105652,-0.30901699 0.95105652,-0.30901699 -0.58778525,0.80901699 0,-1 "/>
    <polygon id="polygon5576" transform="scale(53,53)" points="0,-1 0.58778525,0.80901699 -0.95105652,-0.30901699 0.95105652,-0.30901699 -0.58778525,0.80901699 0,-1 "/>
    <polygon id="polygon5536" transform="scale(53,53)" points="0,-1 0.58778525,0.80901699 -0.95105652,-0.30901699 0.95105652,-0.30901699 -0.58778525,0.80901699 0,-1 "/>
    <polygon id="polygon5478" transform="scale(53,53)" points="0,-1 0.58778525,0.80901699 -0.95105652,-0.30901699 0.95105652,-0.30901699 -0.58778525,0.80901699 0,-1 "/>
    <polygon id="polygon5452" transform="scale(53,53)" points="0,-1 0.58778525,0.80901699 -0.95105652,-0.30901699 0.95105652,-0.30901699 -0.58778525,0.80901699 0,-1 "/>
    <polygon id="polygon5339" transform="scale(53,53)" points="0,-1 0.58778525,0.80901699 -0.95105652,-0.30901699 0.95105652,-0.30901699 -0.58778525,0.80901699 0,-1 "/>
    <polygon id="polygon5313" transform="scale(53,53)" points="0,-1 0.58778525,0.80901699 -0.95105652,-0.30901699 0.95105652,-0.30901699 -0.58778525,0.80901699 0,-1 "/>
    <symbol id="symbol-0" viewBox="0 0 393.8519 512.0001" bx:pinned="true">
      <title>Lion</title>
      <path d="M 1.106 115.058 C 3.383 115.423 14.27 119.897 27.814 66.841 C 48.524 38.953 74.821 89.328 79.203 105.981 C 82.299 126.967 73.414 154.873 73.414 154.873 C 72.951 168.794 83.269 177.309 94.366 185.433 C 84.773 182.977 75.575 184.623 65.102 173.007 C 65.102 173.007 64.696 182.748 68.415 192.4 C 72.135 202.052 83.557 206.799 83.557 206.799 C 70.495 203.079 59.288 198.678 56.456 191.205 C 56.989 214.429 71.286 232.241 89.687 248.438 C 72.382 241.409 56.619 232.584 46.797 216.841 C 45.951 258.679 81.016 271.804 121.491 296.277 C 151.87 314.644 135.124 339.261 135.124 339.261 C 116.362 348.799 98.643 345.232 83.562 340.362 C 83.562 340.362 73.042 356.496 62.693 344.99 C 50.69 331.645 41.924 325.385 42.816 307.325 C 41.214 310.584 64.531 321.038 80.412 318.178 C 93.197 315.875 86.97 332.816 86.97 332.816 C 114.583 341.514 152.22 333.999 113.94 305.64 C 67.963 274.636 31.323 271.221 38.057 207.101 C 41.882 170.683 74.37 137.648 69.557 115.221 C 71.143 99.845 46.628 49.666 33.612 81.106 C 24.854 121.604 13.904 127.116 0 128.532 L 1.106 115.058 Z" style="fill:#000000;fill-opacity:1;fill-rule:evenodd;stroke:#333333;stroke-width:2.5;stroke-linecap:butt;stroke-linejoin:miter;stroke-miterlimit:4;stroke-dasharray:none;stroke-opacity:1;display:inline" id="path-31" transform="matrix(-1, 0, 0, -1, 139.728531, 407.717682)"/>
      <path d="M 392.786 83.833 C 386.683 82.397 377.375 79.011 373.884 72.173 C 381.878 74.283 388.214 76.062 393.852 76.97 L 392.786 83.833 Z" style="fill:#ff0000;fill-opacity:1;fill-rule:evenodd;stroke:#333333;stroke-width:2.5;stroke-linecap:round;stroke-linejoin:round;stroke-miterlimit:4;stroke-dasharray:none;stroke-opacity:1" id="path-32" transform="matrix(-1, 0, 0, -1, 767.735992, 156.005997)"/>
      <path d="M 390.793 65.914 C 384.603 64.86 380.323 65.545 370.794 59.194 C 379.052 59.955 387.763 59.732 393.03 57.714 L 390.793 65.914 Z" style="fill:#ff0000;fill-opacity:1;fill-rule:evenodd;stroke:#333333;stroke-width:2.5;stroke-linecap:round;stroke-linejoin:round;stroke-miterlimit:4;stroke-dasharray:none;stroke-opacity:1" id="path-33" transform="matrix(-1, 0, 0, -1, 763.824005, 123.628002)"/>
      <path d="M 374.123 53.203 C 368.507 56.054 361.978 55.065 355.639 54.876 C 364.109 52.755 366.349 51.061 370.912 47.858 L 374.123 53.203 Z" style="fill:#ff0000;fill-opacity:1;fill-rule:evenodd;stroke:#333333;stroke-width:2.5;stroke-linecap:round;stroke-linejoin:round;stroke-miterlimit:4;stroke-dasharray:none;stroke-opacity:1" id="path-34" transform="matrix(-1, 0, 0, -1, 729.761993, 103.052883)"/>
      <path d="M 371.996 99.062 C 363.896 96.59 365.055 94.83 362.965 88.79 C 370.705 94.039 375.449 94.093 378.735 97.345 L 371.996 99.062 Z" style="fill:#ff0000;fill-opacity:1;fill-rule:evenodd;stroke:#333333;stroke-width:2.5;stroke-linecap:round;stroke-linejoin:round;stroke-miterlimit:4;stroke-dasharray:none;stroke-opacity:1" id="path-35" transform="matrix(-1, 0, 0, -1, 741.699982, 187.851997)"/>
      <path d="M 290.581 157.001 C 299.909 139.737 309.009 142.141 320.224 132.923 C 334.858 120.895 341.011 106.079 379.591 106.08 L 369.028 48.121 L 338.505 65.367 C 332.325 70.138 315.653 74.854 306.81 91.762 C 299.301 90.784 297.564 84.155 296.866 76.508 C 293.21 85.424 288.014 94.385 292.832 103.06 L 281.56 115.991 C 274.5 107.118 263.774 110.021 254.453 108.413 C 266.439 112.989 275.951 120.487 277.487 128.752 L 272.892 135.713 C 261.207 135.725 265.485 131.68 255.404 130.941 L 247.519 134.637 C 254.755 142.066 261.023 139.411 268.043 142.771 C 256.929 147.439 252.937 140.579 244.022 143.262 C 241.946 146.762 242.051 149.267 244.257 151.807 C 250.418 153.238 257.731 153.991 264.677 153.226 C 254.85 160.258 254.813 156.985 246.783 158.249 C 244.177 162.425 242.814 165.007 248.106 167.272 C 253.404 166.157 264.034 166.528 270.453 161.54 C 269.609 166.383 266.809 167.977 260.465 169.704 C 261.718 175.066 258.846 173.115 265.338 175.855 C 278.398 171.724 288.417 167.069 290.581 157.001 Z" style="fill:#000000;fill-rule:evenodd;stroke:#333333;stroke-width:2.5;stroke-linecap:round;stroke-linejoin:round;stroke-miterlimit:4;stroke-dasharray:none;stroke-opacity:1" id="path-36" transform="matrix(-1, 0, 0, -1, 622.122223, 223.97599)"/>
      <path d="M 354.224 450.606 C 351.439 446.238 345.347 442.431 340.944 440.039 C 349.448 440.371 356.831 444.45 362.165 447.497 L 354.224 450.606 Z" style="fill:#ff0000;fill-opacity:1;fill-rule:evenodd;stroke:#333333;stroke-width:2.5;stroke-linecap:round;stroke-linejoin:round;stroke-miterlimit:4;stroke-dasharray:none;stroke-opacity:1" id="path-37" transform="matrix(-1, 0, 0, -1, 703.109009, 890.644989)"/>
      <path d="M 372.457 443.348 C 366.3 439.563 364.921 433.378 362.958 429.47 C 368.17 433.371 372.432 434.548 377.746 437.774 L 372.457 443.348 Z" style="fill:#ff0000;fill-opacity:1;fill-rule:evenodd;stroke:#333333;stroke-width:2.5;stroke-linecap:round;stroke-linejoin:round;stroke-miterlimit:4;stroke-dasharray:none;stroke-opacity:1" id="path-38" transform="matrix(-1, 0, 0, -1, 740.70401, 872.817993)"/>
      <path d="M 383.317 423.076 C 373.694 422.305 366.85 416.233 361.58 410.671 C 369.516 413.549 376.45 415.587 383.97 416.049 C 389.108 418.516 383.08 422.391 383.317 423.076 Z" style="fill:#ff0000;fill-opacity:1;fill-rule:evenodd;stroke:#333333;stroke-width:2.5;stroke-linecap:round;stroke-linejoin:round;stroke-miterlimit:4;stroke-dasharray:none;stroke-opacity:1" id="path-39" transform="matrix(-1, 0, 0, -1, 747.630005, 833.746979)"/>
      <path d="M 372.116 406.123 C 363.475 409.21 355.092 407.149 346.064 407.007 C 355.644 405.256 363.184 402.105 370.244 398.624 L 372.116 406.123 Z" style="fill:#ff0000;fill-opacity:1;fill-rule:evenodd;stroke:#333333;stroke-width:2.5;stroke-linecap:round;stroke-linejoin:round;stroke-miterlimit:4;stroke-dasharray:none;stroke-opacity:1" id="path-40" transform="matrix(-1, 0, 0, -1, 718.179993, 806.435883)"/>
      <path d="M 354.962 446.032 C 318.537 440.339 266.62 446.87 242.083 419.841 C 226.189 408.983 172.139 392.681 192.428 418.916 C 159.327 401.748 214.45 388.957 249.645 416.409 C 205.91 384.543 255.233 380.077 260.756 349.344 C 251.386 331.789 240.583 338.896 226.148 322.67 C 219.503 319.214 212.234 320.438 200.701 322.165 C 198.794 326.967 194.59 329.14 190.1 329.999 C 185.475 328.468 180.14 325.095 180.814 321.288 C 187.844 320.011 187.74 316.324 193.456 312.783 C 183.26 315.897 183.183 320.951 171.294 317.918 C 166.651 314.511 167.003 309.955 167.78 307.935 C 177.91 307.014 181.354 307.077 189.653 304.593 C 180.224 304.427 179.004 306.555 166.45 298.458 C 167.546 294.318 169.748 292.708 173.606 290.159 C 181.18 291.794 184.137 298.16 193.539 294.833 C 184.748 289.452 184.984 288.037 184.082 286.122 C 185.771 283.984 188.663 282.375 193.253 281.512 C 201.506 282.496 204.762 286.387 207.789 290.412 C 250.921 287.893 237.726 299.668 248.972 302.518 C 263.934 295.69 264.054 303.501 268.875 310.026 C 284.679 300.131 281.568 310.231 284.4 313.392 C 280.579 327.84 295.841 330.186 300.921 342.486 C 307.799 347.952 317.89 352.439 292.149 367.85 C 284.157 382.373 287.417 393.712 302.624 401.671 C 327.795 394.666 347.794 400.468 370.379 399.867 L 354.962 446.032 Z" style="fill:#000000;fill-rule:evenodd;stroke:#333333;stroke-width:2.5;stroke-linecap:round;stroke-linejoin:round;stroke-miterlimit:4;stroke-dasharray:none;stroke-opacity:1" id="path-41" transform="matrix(-1, 0, 0, -1, 536.828995, 727.544006)"/>
      <path d="M 174.222 316.847 C 182.251 308.829 191.114 300.903 188.074 291.672 C 179.672 285.69 175.099 280.06 196.453 276.818 L 204.667 297.863 L 187.909 317.048 C 178.111 319.498 174.478 318.984 174.222 316.847 Z" style="fill:#000000;fill-rule:evenodd;stroke:#333333;stroke-width:2.5;stroke-linecap:round;stroke-linejoin:round;stroke-miterlimit:4;stroke-dasharray:none;stroke-opacity:1" id="path-42" transform="matrix(-1, 0, 0, -1, 378.889008, 595.495972)"/>
      <path d="M 234.019 469.102 C 224.892 469.604 218.761 466.937 211.913 461.796 C 222.433 463.296 226.641 464.74 233.808 464.255 L 234.019 469.102 Z" style="fill:#ff0000;fill-opacity:1;fill-rule:evenodd;stroke:#333333;stroke-width:2.5;stroke-linecap:round;stroke-linejoin:round;stroke-miterlimit:4;stroke-dasharray:none;stroke-opacity:1" id="path-43" transform="matrix(-1, 0, 0, -1, 445.931992, 930.957977)"/>
      <path d="M 234.147 495.328 C 228.096 491.838 221.178 486.14 218.862 479.125 C 225.038 483.725 231.415 486.537 237.16 489.122 L 234.147 495.328 Z" style="fill:#ff0000;fill-opacity:1;fill-rule:evenodd;stroke:#333333;stroke-width:2.5;stroke-linecap:round;stroke-linejoin:round;stroke-miterlimit:4;stroke-dasharray:none;stroke-opacity:1" id="path-44" transform="matrix(-1, 0, 0, -1, 456.022003, 974.453003)"/>
      <path d="M 217.817 512 C 211.913 507.03 207.499 500.63 205.783 493.752 C 212.006 499.414 217.489 502.553 224.323 505.433 L 217.817 512 Z" style="fill:#ff0000;fill-opacity:1;fill-rule:evenodd;stroke:#333333;stroke-width:2.5;stroke-linecap:round;stroke-linejoin:round;stroke-miterlimit:4;stroke-dasharray:none;stroke-opacity:1" id="path-45" transform="matrix(-1, 0, 0, -1, 430.106003, 1005.752014)"/>
      <path d="M 171.165 507.774 C 171.777 503.979 174.625 498.566 177.321 494.848 L 179.548 508.551 L 171.165 507.774 Z" style="fill:#ff0000;fill-opacity:1;fill-rule:evenodd;stroke:#333333;stroke-width:2.5;stroke-linecap:round;stroke-linejoin:round;stroke-miterlimit:4;stroke-dasharray:none;stroke-opacity:1" id="path-46" transform="matrix(-1, 0, 0, -1, 350.712997, 1003.398987)"/>
      <path d="M 112.533 456.949 C 124.57 407.708 161.539 391.223 176.953 361.735 C 194.563 328.046 188.286 324.949 188.286 324.949 C 180.931 305.081 162.533 288.257 167.995 275.601 C 191.841 220.346 136.207 242.337 163.812 209.782 C 148.747 226.489 174.607 231.073 184.804 240.333 C 190.806 231.77 197.45 223.832 210.387 222.027 C 206.582 209.663 197.008 197.084 203.6 185.108 C 195.766 177.442 191.887 165.905 178.25 163.919 C 172.846 167.084 172.352 170.015 162.034 168.985 C 156.468 166.546 158.577 163.417 158.2 161.172 C 171.578 159.133 160.945 160.7 171.798 156.471 C 157.718 154.597 162.413 160.173 149.95 151.684 C 149.148 148.253 153.778 145.275 154.403 142.703 C 167.172 145.351 161.666 148.053 174.53 145.576 C 167.554 142.242 165.873 142.294 160.35 137.186 C 159.05 132.351 166.209 131.063 166.505 128.176 C 179.482 132.099 175.455 137.21 190.307 140.987 C 190.118 138.253 189.875 135.506 192.226 133.373 C 196.161 132.57 199.85 132.214 203.662 134.696 C 204.702 138.226 206.64 141.789 203.297 145.155 C 215.279 154.807 234.62 159.071 231.894 179.492 C 235.474 175.011 239.612 171.125 247.156 170.869 C 242.269 182.499 260.449 185.502 244.99 199.242 C 249.123 204.077 251.839 210.725 260.07 210.311 L 260.392 231.335 C 218.112 265.987 264.299 314.281 229.137 357.117 C 230.378 431.316 224.889 469.941 212.669 501.836 L 112.533 456.949 Z" style="fill:#000000;fill-rule:evenodd;stroke:#333333;stroke-width:2.5;stroke-linecap:round;stroke-linejoin:round;stroke-miterlimit:4;stroke-dasharray:none;stroke-opacity:1" id="path-47" transform="matrix(-1, 0, 0, -1, 372.925003, 630.011993)"/>
      <path d="M 338.649 193.642 C 335.225 198.82 331.063 197.845 327.118 198.684 L 334.676 188.897 L 338.649 193.642 Z" style="fill:#ff0000;fill-opacity:1;fill-rule:evenodd;stroke:#333333;stroke-width:2.5;stroke-linecap:round;stroke-linejoin:round;stroke-miterlimit:4;stroke-dasharray:none;stroke-opacity:1" id="path-48" transform="matrix(-1, 0, 0, -1, 665.766998, 387.581009)"/>
      <path d="M 363.106 204.686 C 357.811 207.391 354.733 211.433 343.653 207.024 C 352.118 204.859 354.499 202.468 357.793 198.797 L 363.106 204.686 Z" style="fill:#ff0000;fill-opacity:1;fill-rule:evenodd;stroke:#333333;stroke-width:2.5;stroke-linecap:round;stroke-linejoin:round;stroke-miterlimit:4;stroke-dasharray:none;stroke-opacity:1" id="path-49" transform="matrix(-1, 0, 0, -1, 706.759003, 407.778229)"/>
      <path d="M 369.895 226.132 C 363.628 226.933 356.651 226.119 352.661 220.893 C 357.234 221.923 361.832 222.263 366.491 220.971 L 369.895 226.132 Z" style="fill:#ff0000;fill-opacity:1;fill-rule:evenodd;stroke:#333333;stroke-width:2.5;stroke-linecap:round;stroke-linejoin:round;stroke-miterlimit:4;stroke-dasharray:none;stroke-opacity:1" id="path-50" transform="matrix(-1, 0, 0, -1, 722.556, 447.29007)"/>
      <path d="M 342.06 250.582 C 337.869 248.36 333.764 246.087 333.262 241.718 C 338.166 244.798 343.647 246.641 349.35 248.009 L 342.06 250.582 Z" style="fill:#ff0000;fill-opacity:1;fill-rule:evenodd;stroke:#333333;stroke-width:2.5;stroke-linecap:round;stroke-linejoin:round;stroke-miterlimit:4;stroke-dasharray:none;stroke-opacity:1" id="path-51" transform="matrix(-1, 0, 0, -1, 682.612, 492.300003)"/>
      <path d="M 214.603 201.53 C 208.875 200.604 208.586 197.759 207.088 195.34 C 208.617 190.639 214.467 186.672 220.286 182.7 C 212.641 184.925 205.048 185.746 197.24 192.346 L 190.609 192.098 C 186.916 189.553 187.184 187.155 187.84 184.772 C 195.982 176.788 202.831 176.666 210.098 174.002 C 201.841 173.91 194.228 170.886 185.184 174.386 C 178.777 170.93 182.419 168.648 182.731 165.977 C 191.257 162.948 200.821 164.78 209.904 164.364 C 208.963 160.66 204.421 157.177 197.571 153.836 C 195.65 149.311 200.653 148.143 205.031 146.672 C 210.887 147.858 215.943 150.096 217.95 156.347 C 227.272 156.609 237.102 156.498 245.009 157.795 C 250.667 154.067 242.005 149.804 238.266 145.724 C 261.244 145.981 260.779 157.468 279.055 164.757 C 275.521 158.044 278.823 152.675 282.47 147.374 C 284.366 158.175 295.121 160.788 304.488 165.268 L 310.891 171.636 C 316.892 168.938 324.094 169.416 331.417 170.213 C 327.667 174.305 331.046 178.663 337.574 183.138 C 347.321 177.338 353.069 178.306 358.149 180.404 C 336.929 187.23 352.148 208.211 351.577 223.059 L 319.655 248.132 L 261.791 197.382 C 256.193 192.932 248.322 188.648 236.708 187.471 C 225.458 189.565 219.436 195.15 214.603 201.53 Z" style="fill:#000000;fill-rule:evenodd;stroke:#333333;stroke-width:2.5;stroke-linecap:round;stroke-linejoin:round;stroke-miterlimit:4;stroke-dasharray:none;stroke-opacity:1" id="path-52" transform="matrix(-1, 0, 0, -1, 539.568161, 393.856003)"/>
      <path d="M 228.542 86.483 C 228.504 90.26 227.407 92.747 228.469 97.863 C 231.708 93.327 236.577 91.875 240.768 89.14" style="fill:#000000;fill-rule:evenodd;stroke:#333333;stroke-width:2.5;stroke-linecap:round;stroke-linejoin:round;stroke-miterlimit:4;stroke-dasharray:none;stroke-opacity:1" id="path-53" transform="matrix(-1, 0, 0, -1, 468.775223, 184.346001)"/>
      <path d="M 284.091 93.109 C 253.103 87.816 233.868 54.554 202.008 75.047 C 223.613 40.981 251.31 79.429 287.503 81.316 L 284.091 93.109 Z" style="fill:#ff0000;fill-opacity:1;fill-rule:evenodd;stroke:#333333;stroke-width:2.5;stroke-linecap:round;stroke-linejoin:round;stroke-miterlimit:4;stroke-dasharray:none;stroke-opacity:1" id="path-54" transform="matrix(-1, 0, 0, -1, 489.510986, 154.127701)"/>
      <path d="M 241.609 71.848 C 242.646 67.291 245.775 64.136 250.535 62.076 C 247.678 67.64 251.95 71.54 254.337 75.88" style="fill:#000000;fill-rule:evenodd;stroke:#333333;stroke-width:2.5;stroke-linecap:round;stroke-linejoin:round;stroke-miterlimit:4;stroke-dasharray:none;stroke-opacity:1" id="path-55" transform="matrix(-1, 0, 0, -1, 495.945999, 137.955997)"/>
      <path d="M 226.237 51.422 L 224.411 37.73 L 234.691 45.662 C 220.834 13.861 241.192 11.14 262.596 9.31 C 254.623 25.758 272.892 39.02 277.721 57.546 C 272.876 39.273 277.442 29.005 305.768 38.951 C 276.556 45.345 306.711 61.853 294.781 82.145 C 300.963 70.77 310.462 77.138 318.911 77.893 C 291.907 85.735 306.046 103.661 306.921 118.337 L 294.263 143.442 C 300.493 127.16 310.61 133.742 319.946 135.728 C 300.817 139.586 313.582 164.942 290.357 176.146 C 298.806 172.788 307.373 168.091 315.12 172.665 C 296.741 174.959 302.427 193.627 285.627 197.91 C 295.103 197.393 300.813 200.701 307.787 202.725 C 299.762 204.057 292.482 201.964 283.525 207.582 L 269.543 220.371 L 235.043 220.787 C 226.483 218.305 218.333 215.001 211.654 208.74 C 205.434 205.303 197.464 202.723 198.025 195.965 C 184.759 193.264 159.702 178.493 179.06 180.132 C 179.96 166.294 183.401 162.511 190.84 162.749 C 207.536 159.996 211.046 172.131 223.279 175.497 C 250.805 168.265 239.946 150.318 231.968 142.882 C 223.296 134.799 207.318 138.475 207.318 138.475 C 202.308 130.844 202.973 126.557 209.313 125.613 C 217.101 119.261 219.353 125.249 223.33 127.393 C 250.649 127.987 246.461 141.731 256.092 149.707 C 248.941 138.191 259.842 123.684 230.543 116.299 C 215.412 112.479 216.916 118.244 202.628 114.031 C 188.339 109.818 184.748 100.313 173.388 99.447 C 163.233 98.673 149.198 97.513 158.593 119.656 C 138.421 98.576 160.299 80.991 187.346 90.451 C 163.042 81.684 147.966 70.379 126.561 82.939 C 156.5 47.442 170.139 72.784 202.421 76.318 C 170.432 70.806 175.013 44.755 140.187 46.016 C 150.227 33.318 160.959 35.999 175.04 40.296 C 169.878 35.093 165.789 23.487 154.612 23.828 C 161.065 14.539 178.075 19.204 192.748 23.252 C 209.441 27.858 217.515 40.223 226.237 51.422 Z" style="fill:#000000;fill-rule:evenodd;stroke:#333333;stroke-width:2.5;stroke-linecap:round;stroke-linejoin:round;stroke-miterlimit:4;stroke-dasharray:none;stroke-opacity:1" id="path-56" transform="matrix(-1, 0, 0, -1, 446.507004, 230.097006)"/>
      <path d="M 180.628 2.096 C 177.411 14.853 189.227 17.645 197.778 22.6 C 197.546 14.12 199.565 3.355 194.287 0" style="fill:#000000;fill-rule:evenodd;stroke:#333333;stroke-width:2.5;stroke-linecap:round;stroke-linejoin:round;stroke-miterlimit:4;stroke-dasharray:none;stroke-opacity:1" id="path-57" transform="matrix(-1, 0, 0, -1, 378.056549, 22.6)"/>
      <path d="M 215.612 30.215 C 220.251 25.359 222.945 29.456 226.064 31.591 C 233.483 41.964 240 35.707 246.707 32.944" style="fill:#000000;fill-rule:evenodd;stroke:#333333;stroke-width:2.5;stroke-linecap:round;stroke-linejoin:round;stroke-miterlimit:4;stroke-dasharray:none;stroke-opacity:1" id="path-58" transform="matrix(-1, 0, 0, -1, 462.319, 65.289179)"/>
      <path d="M 221.388 30.295 C 225.478 28.397 227.875 27.786 231.223 29.299 C 236.694 31.578 238.037 35.069 240.7 35.164 C 240.21 37.415 239.495 39.537 235.71 39.899 C 227.288 37.083 228.007 34.185 221.388 30.295 Z" style="fill:#ffffff;fill-opacity:1;fill-rule:evenodd;stroke:#333333;stroke-width:2.5;stroke-linecap:round;stroke-linejoin:round;stroke-miterlimit:4;stroke-dasharray:none;stroke-opacity:1" id="path-59" transform="matrix(-1, 0, 0, -1, 462.087997, 68.347206)"/>
      <path d="M 187.894 357.961 C 192.824 368.772 187.642 379.206 185.925 389.77" style="fill:#000000;fill-rule:evenodd;stroke:#333333;stroke-width:2.5;stroke-linecap:round;stroke-linejoin:round;stroke-miterlimit:4;stroke-dasharray:none;stroke-opacity:1" id="path-60" transform="matrix(-1, 0, 0, -1, 375.893234, 747.730988)"/>
      <path d="M 352.586 59.87 C 347.057 62.178 344.974 64.746 343.705 67.591 C 343.075 69.002 342.587 70.457 341.846 72.031 C 341.471 72.826 341.053 73.616 340.501 74.495 C 339.942 75.383 338.329 77.458 338.329 77.458 C 338.357 77.417 341.229 79.128 341.261 79.065 C 341.261 79.065 344.063 75.185 344.876 73.459 C 345.701 71.709 346.2 70.22 346.764 68.955 C 347.881 66.451 349.009 64.743 353.812 62.986 Z" style="fill: rgb(51, 51, 51);" transform="matrix(-1, 0, 0, -1, 692.141022, 138.936703)"/>
    </symbol>
  </defs>
  <rect x="256" width="512" height="512" style="fill: none;"/>
  <use width="393.8518981933594" height="512.0001220703125" transform="matrix(0.999999, 0, 0, 1, 0, 0)" xlink:href="#symbol-0"/>
  <use width="393.8518981933594" height="512.0001220703125" transform="matrix(-0.999999, 0, 0, 1, 1024.85144, 0)" xlink:href="#symbol-0"/>
</svg>