<?xml version="1.0" encoding="utf-8"?>
<svg width="265.90485" height="234.38274" id="svg2" version="1.1" xmlns="http://www.w3.org/2000/svg">
  <path d="M 79.282 189.509 L 84.208 189.025 C 87.02 188.727 89.554 189.257 91.606 190.343 C 93.626 191.412 94.91 192.767 95.155 194.573 C 95.552 196.333 94.808 197.816 93.257 199.213 C 91.673 200.64 89.444 201.627 86.633 201.88 L 81.706 202.364 C 78.894 202.662 76.36 202.132 74.309 201.046 C 72.288 199.976 71.004 198.622 70.76 196.816 C 70.363 195.055 71.106 193.573 72.657 192.176 C 74.241 190.749 76.471 189.762 79.282 189.509 Z M 204.517 200.072 C 205.207 200.072 205.639 200.271 206.102 200.741 C 206.565 201.212 206.766 201.665 206.766 202.376 C 206.766 203.086 206.565 203.539 206.102 204.01 C 205.64 204.479 205.207 204.678 204.517 204.678 C 203.827 204.678 203.394 204.479 202.932 204.009 C 202.468 203.538 202.267 203.086 202.267 202.376 C 202.267 201.665 202.468 201.213 202.932 200.741 C 203.395 200.271 203.827 200.072 204.517 200.072 Z M 205.18 189.711 C 205.871 189.711 206.303 189.91 206.765 190.379 C 207.229 190.851 207.43 191.303 207.43 192.013 C 207.43 192.724 207.229 193.177 206.765 193.648 C 206.303 194.118 205.87 194.317 205.18 194.317 C 204.49 194.317 204.058 194.118 203.596 193.648 C 203.132 193.177 202.931 192.724 202.931 192.013 C 202.931 191.303 203.132 190.851 203.596 190.379 C 204.058 189.91 204.49 189.711 205.18 189.711 Z M 160.796 197.681 C 161.486 197.681 161.918 197.88 162.38 198.35 C 162.844 198.821 163.045 199.274 163.045 199.985 C 163.045 200.695 162.844 201.147 162.381 201.619 C 161.918 202.088 161.486 202.287 160.796 202.287 C 160.105 202.287 159.673 202.088 159.211 201.619 C 158.747 201.147 158.546 200.695 158.546 199.985 C 158.546 199.274 158.747 198.821 159.211 198.35 C 159.673 197.88 160.106 197.681 160.796 197.681 Z M 161.459 187.32 C 162.149 187.32 162.582 187.519 163.044 187.989 C 163.508 188.46 163.709 188.913 163.709 189.623 C 163.709 190.334 163.508 190.787 163.044 191.258 C 162.582 191.728 162.149 191.927 161.459 191.927 C 160.769 191.927 160.337 191.728 159.875 191.258 C 159.411 190.787 159.21 190.334 159.21 189.623 C 159.21 188.913 159.411 188.46 159.875 187.989 C 160.337 187.519 160.769 187.32 161.459 187.32 Z M 225.461 207.097 L 213.045 196.618 L 228.161 191.413 L 228.234 194.131 L 230.476 199.466 L 226.731 204.062 Z M 195.145 196.815 C 194.901 198.622 193.616 199.976 191.596 201.045 C 189.545 202.131 187.011 202.661 184.199 202.363 L 179.273 201.879 C 176.462 201.626 174.232 200.639 172.648 199.212 C 171.097 197.815 170.353 196.333 170.75 194.572 C 170.995 192.765 172.279 191.412 174.299 190.342 C 176.351 189.256 178.885 188.726 181.697 189.024 L 186.623 189.508 C 189.434 189.761 191.664 190.748 193.248 192.175 C 194.799 193.572 195.542 195.055 195.145 196.815 Z M 63.639 202.375 C 63.639 203.086 63.438 203.538 62.975 204.009 C 62.512 204.479 62.08 204.678 61.389 204.678 C 60.699 204.678 60.267 204.479 59.805 204.009 C 59.341 203.538 59.14 203.085 59.14 202.375 C 59.14 201.664 59.341 201.211 59.805 200.74 C 60.267 200.27 60.699 200.071 61.389 200.071 C 62.08 200.071 62.512 200.27 62.975 200.74 C 63.438 201.211 63.639 201.664 63.639 202.375 Z M 62.975 192.015 C 62.975 192.725 62.774 193.177 62.31 193.649 C 61.848 194.118 61.416 194.317 60.725 194.317 C 60.034 194.317 59.602 194.118 59.14 193.649 C 58.676 193.177 58.475 192.725 58.475 192.015 C 58.475 191.305 58.676 190.852 59.14 190.381 C 59.602 189.911 60.035 189.712 60.725 189.712 C 61.415 189.712 61.848 189.911 62.31 190.381 C 62.774 190.852 62.975 191.305 62.975 192.015 Z M 107.36 199.984 C 107.36 200.694 107.159 201.147 106.695 201.618 C 106.233 202.088 105.8 202.287 105.11 202.287 C 104.42 202.287 103.988 202.088 103.526 201.618 C 103.062 201.147 102.861 200.694 102.861 199.984 C 102.861 199.273 103.062 198.821 103.526 198.349 C 103.988 197.88 104.42 197.681 105.11 197.681 C 105.801 197.681 106.233 197.88 106.695 198.35 C 107.159 198.821 107.36 199.273 107.36 199.984 Z M 106.695 189.624 C 106.695 190.335 106.494 190.787 106.031 191.258 C 105.569 191.727 105.136 191.926 104.446 191.926 C 103.755 191.926 103.323 191.727 102.861 191.258 C 102.397 190.786 102.196 190.334 102.196 189.624 C 102.196 188.914 102.397 188.461 102.861 187.989 C 103.323 187.519 103.756 187.32 104.446 187.32 C 105.136 187.32 105.568 187.519 106.031 187.989 C 106.494 188.461 106.695 188.913 106.695 189.624 Z M 37.745 191.414 L 52.861 196.618 L 40.445 207.098 L 39.162 204.03 L 35.568 199.571 L 37.67 194.217 Z M 228.213 189.28 L 209.063 195.874 L 224.187 208.639 L 223.771 210.638 C 219.492 210.099 205.284 208.38 191.19 207.467 C 174.415 206.381 155.984 206.12 146.925 206.12 L 118.956 206.12 C 104.187 206.167 89.425 206.617 74.698 207.467 L 74.381 207.485 L 74.706 207.485 C 64.483 208.276 52.617 209.143 42.128 210.605 L 41.719 208.64 L 56.843 195.874 L 37.693 189.281 L 37.518 188.439 C 48.116 187.098 60.236 186.246 70.965 185.474 C 86.546 184.571 102.237 184.007 117.905 183.852 L 147.979 183.852 C 157.346 183.852 177.128 184.424 194.919 185.495 C 208.825 186.331 222.964 187.855 228.382 188.47 Z M 226.592 216.989 C 228.709 217.521 230.187 218.547 231.178 219.784 C 232.88 221.91 232.796 224.614 232.734 226.584 C 232.673 228.512 231.83 230.243 229.881 231.636 C 228.616 232.54 226.885 233.302 224.6 233.883 C 156.141 222.543 87.395 226.383 41.503 233.83 C 38.802 233.1 37.068 232.302 35.939 231.451 C 33.804 229.842 33.47 228.045 33.217 226.163 C 32.962 224.264 33.394 222.303 34.538 220.544 C 35.43 219.174 36.882 217.943 39.033 217.015 C 39.384 216.964 39.737 216.908 40.094 216.848 C 40.495 217.217 40.979 217.562 41.534 217.864 L 41.807 218.013 L 42.137 217.964 C 52.461 216.45 64.635 215.532 75.325 214.704 C 89.8 213.801 104.385 213.537 118.961 213.382 L 146.925 213.382 C 155.64 213.382 174.029 213.654 190.561 214.725 C 207.01 215.789 223.809 217.967 223.809 217.967 L 224.146 218.01 L 224.42 217.851 C 225.006 217.511 225.508 217.132 225.914 216.731 C 226.356 216.897 226.592 216.989 226.592 216.989 Z M 30.74 163.174 C 32.381 162.924 33.939 162.11 35.018 161.014 C 35.588 160.435 36.079 159.722 36.452 158.933 L 36.475 158.933 C 39.674 164.615 46.756 171.513 54.425 172.326 C 59.743 172.749 63.802 171.061 67.162 168.178 C 68.539 166.977 69.883 165.455 70.789 163.744 L 82.842 163.089 C 82.961 163.308 83.086 163.514 83.213 163.708 C 85.236 166.681 88.245 168.58 91.456 169.889 C 94.956 171.295 98.201 171.861 101.945 171.911 C 105.057 171.945 110.537 171.417 113.547 170.415 C 117.251 169.138 119.53 167.499 122.337 164.899 C 124.001 163.31 125.174 161.006 125.885 158.935 C 126.699 156.424 126.441 152.232 126.441 152.232 L 126.358 150.884 L 125.089 151.368 C 121.462 152.75 118.249 154.629 115.415 156.776 C 112.217 159.213 110.633 160.844 108.505 163.112 L 108.286 128.453 C 111.134 131.727 112.937 134.217 116.719 137.379 C 119.893 140.008 121.659 141.086 124.882 142.148 L 126.461 142.667 C 125.818 143.808 125.427 145.152 125.427 146.497 C 125.427 148.53 126.319 150.562 127.625 151.889 C 128.932 153.217 130.943 154.13 132.953 154.13 C 134.962 154.13 136.973 153.217 138.281 151.889 C 139.586 150.562 140.479 148.53 140.479 146.497 C 140.479 145.152 140.088 143.807 139.445 142.667 L 141.022 142.148 C 144.245 141.086 146.012 140.008 149.185 137.379 C 152.968 134.217 154.77 131.727 157.618 128.453 L 157.399 163.112 C 155.272 160.844 153.687 159.213 150.489 156.776 C 147.656 154.629 144.443 152.75 140.815 151.368 L 139.546 150.884 L 139.464 152.232 C 139.464 152.232 139.206 156.424 140.019 158.936 C 140.73 161.006 141.903 163.31 143.568 164.899 C 146.374 167.499 148.653 169.139 152.358 170.415 C 155.368 171.417 160.848 171.945 163.959 171.911 C 167.703 171.861 170.949 171.295 174.449 169.889 C 177.66 168.58 180.669 166.68 182.691 163.708 C 182.818 163.515 182.943 163.308 183.063 163.09 L 195.116 163.745 C 196.022 165.455 197.366 166.978 198.743 168.178 C 202.103 171.061 206.161 172.749 211.479 172.326 C 219.159 171.512 226.25 164.597 229.443 158.911 C 229.817 159.708 230.312 160.429 230.886 161.014 C 231.935 162.08 233.436 162.878 235.027 163.151 C 232.58 169.145 230.324 175.113 228.148 181.124 C 221.829 180.413 208.657 179.025 195.576 178.237 C 177.546 177.151 157.729 176.59 147.979 176.59 L 117.9 176.59 C 102.009 176.639 86.137 177.387 70.309 178.236 L 70.009 178.253 L 70.006 178.255 L 70.31 178.255 C 59.952 179.001 48.039 179.812 37.265 181.126 C 35.194 175.172 33.05 169.122 30.74 163.174 Z M 63.736 188.978 C 63.022 188.253 61.83 187.712 60.725 187.712 C 59.62 187.712 58.428 188.253 57.714 188.978 C 57.002 189.702 56.475 190.901 56.475 192.015 C 56.475 193.129 57.002 194.328 57.714 195.051 C 58.428 195.777 59.621 196.317 60.725 196.317 C 61.829 196.317 63.022 195.777 63.736 195.051 C 64.448 194.328 64.975 193.129 64.975 192.015 C 64.975 190.901 64.448 189.702 63.736 188.978 Z M 64.4 199.337 C 63.687 198.612 62.494 198.071 61.389 198.071 C 60.285 198.071 59.092 198.612 58.379 199.337 C 57.667 200.062 57.14 201.261 57.14 202.375 C 57.14 203.489 57.667 204.688 58.379 205.412 C 59.092 206.137 60.285 206.678 61.389 206.678 C 62.494 206.678 63.687 206.137 64.4 205.412 C 65.113 204.688 65.639 203.488 65.639 202.375 C 65.639 201.261 65.113 200.062 64.4 199.337 Z M 71.319 190.69 C 69.464 192.36 68.463 194.825 68.79 197.164 C 69.269 199.457 71.039 201.578 73.373 202.813 C 75.675 204.032 78.794 204.637 81.902 204.354 L 86.829 203.87 C 89.938 203.541 92.775 202.34 94.596 200.699 C 96.451 199.028 97.451 196.564 97.125 194.225 C 96.646 191.933 94.875 189.811 92.541 188.575 C 90.239 187.356 87.12 186.751 84.012 187.035 L 79.086 187.519 C 75.977 187.848 73.14 189.049 71.319 190.69 Z M 107.457 186.587 C 106.743 185.861 105.551 185.32 104.446 185.32 C 103.341 185.32 102.149 185.861 101.435 186.587 C 100.723 187.311 100.196 188.51 100.196 189.624 C 100.196 190.738 100.723 191.937 101.435 192.66 C 102.149 193.386 103.342 193.926 104.446 193.926 C 105.551 193.926 106.743 193.386 107.456 192.66 C 108.169 191.936 108.695 190.738 108.695 189.624 C 108.695 188.511 108.169 187.311 107.457 186.587 Z M 108.121 196.947 C 107.407 196.221 106.214 195.681 105.11 195.681 C 104.006 195.681 102.814 196.221 102.1 196.947 C 101.388 197.671 100.861 198.87 100.861 199.984 C 100.861 201.098 101.388 202.297 102.1 203.021 C 102.813 203.746 104.006 204.287 105.11 204.287 C 106.215 204.287 107.407 203.746 108.121 203.021 C 108.833 202.297 109.36 201.098 109.36 199.984 C 109.36 198.87 108.833 197.671 108.121 196.947 Z M 118.665 188.292 C 117.602 189.355 116.9 191.026 116.856 192.66 L 116.856 196.657 C 116.9 198.291 117.602 199.962 118.665 201.025 C 119.728 202.088 121.399 202.79 123.033 202.834 L 142.872 202.834 C 144.506 202.79 146.177 202.088 147.24 201.025 C 148.303 199.962 149.005 198.291 149.049 196.657 L 149.049 192.66 C 149.005 191.026 148.303 189.355 147.24 188.292 C 146.177 187.229 144.506 186.527 142.872 186.483 L 123.033 186.483 C 121.399 186.527 119.728 187.229 118.665 188.292 Z M 158.449 186.586 C 157.737 187.31 157.21 188.509 157.21 189.623 C 157.21 190.737 157.737 191.936 158.449 192.661 C 159.162 193.386 160.355 193.927 161.459 193.927 C 162.564 193.927 163.756 193.386 164.47 192.661 C 165.182 191.936 165.709 190.737 165.709 189.623 C 165.709 188.509 165.182 187.31 164.47 186.586 C 163.756 185.861 162.564 185.32 161.459 185.32 C 160.355 185.32 159.162 185.861 158.449 186.586 Z M 194.586 190.689 C 192.765 189.048 189.928 187.847 186.819 187.518 L 181.893 187.034 C 178.785 186.75 175.666 187.355 173.364 188.574 C 171.03 189.81 169.259 191.931 168.78 194.224 C 168.454 196.563 169.455 199.028 171.309 200.698 C 173.131 202.339 175.967 203.54 179.077 203.869 L 184.003 204.353 C 187.111 204.637 190.23 204.032 192.532 202.813 C 194.866 201.577 196.636 199.456 197.115 197.163 C 197.442 194.824 196.441 192.36 194.586 190.689 Z M 157.785 196.947 C 157.073 197.672 156.546 198.871 156.546 199.985 C 156.546 201.099 157.073 202.298 157.785 203.021 C 158.499 203.747 159.692 204.287 160.796 204.287 C 161.9 204.287 163.092 203.747 163.806 203.021 C 164.518 202.298 165.045 201.099 165.045 199.985 C 165.045 198.871 164.518 197.672 163.806 196.947 C 163.093 196.222 161.9 195.681 160.796 195.681 C 159.691 195.681 158.499 196.222 157.785 196.947 Z M 202.17 188.977 C 201.458 189.7 200.931 190.899 200.931 192.013 C 200.931 193.127 201.458 194.326 202.17 195.051 C 202.883 195.776 204.076 196.317 205.18 196.317 C 206.285 196.317 207.477 195.776 208.191 195.051 C 208.903 194.326 209.43 193.127 209.43 192.013 C 209.43 190.899 208.903 189.7 208.191 188.977 C 207.477 188.251 206.284 187.711 205.18 187.711 C 204.076 187.711 202.884 188.251 202.17 188.977 Z M 201.506 199.338 C 200.794 200.062 200.267 201.262 200.267 202.376 C 200.267 203.49 200.794 204.689 201.507 205.413 C 202.221 206.138 203.413 206.678 204.517 206.678 C 205.622 206.678 206.814 206.138 207.527 205.412 C 208.24 204.688 208.766 203.489 208.766 202.376 C 208.766 201.262 208.24 200.063 207.528 199.339 C 206.814 198.613 205.622 198.072 204.517 198.072 C 203.413 198.072 202.22 198.613 201.506 199.338 Z M 123.033 188.483 L 142.872 188.483 C 144.097 188.439 145.015 188.896 145.826 189.706 C 146.636 190.517 147.093 191.435 147.049 192.66 L 147.049 196.657 C 147.093 197.882 146.636 198.8 145.826 199.611 C 145.015 200.421 144.097 200.878 142.872 200.834 L 123.033 200.834 C 121.808 200.878 120.89 200.421 120.079 199.611 C 119.269 198.8 118.812 197.882 118.856 196.657 L 118.856 192.66 C 118.812 191.435 119.269 190.517 120.079 189.706 C 120.89 188.896 121.808 188.439 123.033 188.483 Z M 138.134 66.536 C 138.134 68.05 137.593 69.276 136.613 70.272 C 135.633 71.268 134.436 71.814 132.952 71.814 C 131.47 71.814 130.272 71.268 129.293 70.272 C 128.313 69.276 127.772 68.05 127.772 66.536 C 127.772 65.022 128.313 63.795 129.293 62.798 C 130.272 61.803 131.47 61.256 132.952 61.256 C 134.436 61.256 135.633 61.803 136.613 62.798 C 137.593 63.795 138.134 65.022 138.134 66.536 Z M 138.134 78.526 C 138.134 80.04 137.593 81.267 136.613 82.264 C 135.633 83.258 134.436 83.805 132.952 83.805 C 131.47 83.805 130.272 83.258 129.293 82.264 C 128.313 81.267 127.772 80.04 127.772 78.526 C 127.772 77.012 128.313 75.786 129.293 74.789 C 130.272 73.794 131.47 73.247 132.952 73.247 C 134.436 73.247 135.633 73.794 136.613 74.789 C 137.593 75.786 138.134 77.012 138.134 78.526 Z M 136.91 36.498 C 142.592 37.916 147.094 42.317 148.655 47.941 L 136.91 47.941 Z M 128.971 35.934 L 118.476 35.934 C 120.088 33.893 122.013 32.377 123.573 30.303 C 125.05 28.338 126.213 25.908 126.899 23.411 C 127.041 23.582 127.189 23.747 127.342 23.904 C 128.736 25.32 130.816 26.265 132.953 26.265 C 135.092 26.265 137.171 25.32 138.565 23.904 C 138.718 23.747 138.866 23.582 139.008 23.411 C 139.693 25.908 140.856 28.338 142.332 30.303 C 143.893 32.377 145.818 33.893 147.43 35.934 L 136.91 35.934 L 136.91 34.263 L 128.971 34.263 Z M 126.423 22.768 C 123.818 23.499 121.327 24.679 119.323 26.187 C 117.248 27.747 115.732 29.673 113.691 31.284 L 113.691 5.15 C 115.732 6.7620000000000005 117.248 8.687 119.323 10.247 C 121.327 11.755 123.818 12.934 126.423 13.665 C 125.557 14.965 125.024 16.573 125.024 18.217 C 125.024 19.86 125.557 21.469 126.423 22.768 Z M 126.899 13.023 C 126.213 10.525 125.05 8.095 123.573 6.131 C 122.013 4.056 120.088 2.54 118.476 0.5 L 147.43 0.5 C 145.818 2.54 143.893 4.056 142.332 6.131 C 140.856 8.095 139.693 10.525 139.008 13.023 C 138.866 12.851 138.718 12.686 138.565 12.53 C 137.171 11.114 135.092 10.17 132.953 10.17 C 130.816 10.17 128.736 11.114 127.342 12.53 C 127.189 12.686 127.041 12.851 126.899 13.023 Z M 139.485 13.665 C 142.088 12.934 144.579 11.755 146.584 10.247 C 148.659 8.687 150.174 6.7620000000000005 152.214 5.15 L 152.214 31.284 C 150.174 29.673 148.659 27.747 146.584 26.187 C 144.579 24.679 142.088 23.499 139.485 22.768 C 140.35 21.469 140.883 19.86 140.883 18.217 C 140.883 16.573 140.35 14.965 139.485 13.665 Z M 139.382 18.217 C 139.382 20.08 138.699 21.624 137.494 22.849 C 136.29 24.075 134.78 24.763 132.953 24.763 C 131.127 24.763 129.617 24.075 128.413 22.849 C 127.207 21.624 126.526 20.08 126.526 18.217 C 126.526 16.353 127.207 14.81 128.413 13.585 C 129.617 12.361 131.127 11.671 132.953 11.671 C 134.78 11.671 136.29 12.361 137.494 13.585 C 138.699 14.81 139.382 16.353 139.382 18.217 Z M 135.91 35.263 L 135.91 48.942 L 149.613 48.942 L 149.613 54.905 L 116.293 54.905 L 116.293 48.942 L 129.971 48.942 L 129.971 35.263 Z M 117.251 47.941 C 118.81 42.325 123.301 37.929 128.971 36.504 L 128.971 47.941 Z M 252.956 113.725 C 253.936 112.73 255.133 112.184 256.616 112.184 C 258.099 112.184 259.297 112.73 260.276 113.725 C 261.256 114.721 261.797 115.948 261.797 117.462 C 261.797 118.976 261.256 120.203 260.276 121.199 C 259.297 122.194 258.098 122.741 256.616 122.741 C 255.133 122.741 253.936 122.194 252.956 121.199 C 251.976 120.203 251.435 118.976 251.435 117.462 C 251.435 115.948 251.976 114.721 252.956 113.725 Z M 255.812 99.474 C 256.792 98.478 257.989 97.932 259.473 97.932 C 260.955 97.932 262.153 98.478 263.133 99.474 C 264.113 100.47 264.654 101.697 264.654 103.211 C 264.654 104.725 264.113 105.951 263.133 106.948 C 262.154 107.943 260.955 108.49 259.473 108.49 C 257.989 108.49 256.792 107.943 255.812 106.948 C 254.832 105.951 254.291 104.725 254.291 103.211 C 254.291 101.697 254.832 100.47 255.812 99.474 Z M 254.951 84.398 C 255.93 83.403 257.127 82.856 258.611 82.856 C 260.093 82.856 261.291 83.403 262.27 84.398 C 263.25 85.394 263.791 86.621 263.791 88.135 C 263.791 89.648 263.25 90.876 262.27 91.872 C 261.291 92.867 260.093 93.414 258.611 93.414 C 257.127 93.414 255.93 92.867 254.951 91.872 C 253.971 90.876 253.429 89.648 253.429 88.135 C 253.429 86.621 253.971 85.394 254.951 84.398 Z M 249.152 70.095 C 250.131 69.099 251.329 68.553 252.812 68.553 C 254.294 68.553 255.492 69.099 256.471 70.095 C 257.452 71.091 257.994 72.318 257.994 73.832 C 257.994 75.346 257.452 76.573 256.471 77.569 C 255.492 78.564 254.294 79.111 252.812 79.111 C 251.329 79.111 250.131 78.564 249.152 77.569 C 248.172 76.573 247.63 75.346 247.63 73.832 C 247.63 72.318 248.172 71.091 249.152 70.095 Z M 238.328 58.884 C 239.307 57.89 240.505 57.343 241.988 57.343 C 243.471 57.343 244.669 57.89 245.648 58.884 C 246.628 59.88 247.17 61.108 247.17 62.622 C 247.17 64.135 246.628 65.362 245.648 66.358 C 244.669 67.354 243.47 67.9 241.988 67.9 C 240.505 67.9 239.307 67.354 238.328 66.358 C 237.348 65.362 236.806 64.135 236.806 62.622 C 236.806 61.108 237.348 59.88 238.328 58.884 Z M 224.798 51.54 C 225.777 50.545 226.975 49.998 228.458 49.998 C 229.941 49.998 231.138 50.545 232.118 51.54 C 233.099 52.536 233.64 53.763 233.64 55.277 C 233.64 56.79 233.099 58.018 232.118 59.014 C 231.138 60.009 229.941 60.555 228.458 60.555 C 226.975 60.555 225.777 60.009 224.798 59.014 C 223.818 58.018 223.277 56.79 223.277 55.277 C 223.277 53.763 223.818 52.536 224.798 51.54 Z M 209.336 47.674 C 210.315 46.679 211.513 46.132 212.996 46.132 C 214.478 46.132 215.676 46.679 216.655 47.674 C 217.635 48.67 218.177 49.897 218.177 51.411 C 218.177 52.925 217.635 54.152 216.655 55.148 C 215.676 56.143 214.478 56.689 212.996 56.689 C 211.513 56.689 210.315 56.143 209.336 55.148 C 208.356 54.152 207.814 52.925 207.814 51.411 C 207.814 49.897 208.356 48.67 209.336 47.674 Z M 193.487 48.447 C 194.466 47.452 195.663 46.906 197.147 46.906 C 198.629 46.906 199.827 47.452 200.806 48.447 C 201.786 49.443 202.327 50.67 202.327 52.184 C 202.327 53.698 201.786 54.925 200.806 55.921 C 199.827 56.916 198.629 57.463 197.147 57.463 C 195.663 57.463 194.466 56.916 193.487 55.921 C 192.506 54.925 191.965 53.698 191.965 52.184 C 191.965 50.67 192.506 49.443 193.487 48.447 Z M 150.577 59.658 C 151.557 58.662 152.754 58.116 154.237 58.116 C 155.72 58.116 156.918 58.662 157.898 59.658 C 158.878 60.654 159.419 61.88 159.419 63.394 C 159.419 64.908 158.878 66.135 157.898 67.132 C 156.918 68.127 155.72 68.674 154.237 68.674 C 152.754 68.674 151.557 68.127 150.577 67.132 C 149.597 66.135 149.056 64.908 149.056 63.394 C 149.056 61.88 149.597 60.654 150.577 59.658 Z M 178.411 52.699 C 179.389 51.704 180.587 51.157 182.07 51.157 C 183.553 51.157 184.751 51.704 185.73 52.699 C 186.71 53.696 187.252 54.922 187.252 56.436 C 187.252 57.95 186.71 59.177 185.73 60.174 C 184.75 61.169 183.553 61.715 182.07 61.715 C 180.587 61.715 179.389 61.169 178.411 60.174 C 177.431 59.177 176.889 57.95 176.889 56.436 C 176.889 54.922 177.431 53.696 178.411 52.699 Z M 164.495 56.952 C 165.473 55.957 166.671 55.41 168.154 55.41 C 169.636 55.41 170.835 55.957 171.814 56.952 C 172.794 57.948 173.335 59.175 173.335 60.689 C 173.335 62.202 172.794 63.429 171.814 64.425 C 170.835 65.421 169.636 65.967 168.154 65.967 C 166.671 65.967 165.473 65.421 164.495 64.425 C 163.514 63.429 162.973 62.202 162.973 60.689 C 162.973 59.175 163.514 57.948 164.495 56.952 Z M 14.471 117.46 C 14.471 118.974 13.929 120.2 12.949 121.196 C 11.97 122.192 10.772 122.738 9.29 122.738 C 7.808 122.738 6.609 122.192 5.63 121.196 C 4.65 120.2 4.108 118.974 4.108 117.46 C 4.108 115.946 4.65 114.718 5.63 113.722 C 6.609 112.728 7.807 112.181 9.29 112.181 C 10.772 112.181 11.97 112.728 12.949 113.722 C 13.929 114.718 14.471 115.946 14.471 117.46 Z M 11.615 103.209 C 11.615 104.722 11.073 105.949 10.093 106.945 C 9.114 107.941 7.916 108.487 6.433 108.487 C 4.9510000000000005 108.487 3.752 107.941 2.773 106.945 C 1.793 105.949 1.252 104.722 1.252 103.209 C 1.252 101.695 1.793 100.467 2.773 99.471 C 3.753 98.476 4.9510000000000005 97.929 6.433 97.929 C 7.916 97.929 9.114 98.476 10.093 99.471 C 11.073 100.467 11.615 101.695 11.615 103.209 Z M 12.477 88.132 C 12.477 89.646 11.935 90.873 10.955 91.869 C 9.975999999999999 92.865 8.778 93.411 7.295 93.411 C 5.813 93.411 4.615 92.865 3.636 91.869 C 2.656 90.873 2.114 89.646 2.114 88.132 C 2.114 86.618 2.656 85.392 3.636 84.395 C 4.615 83.4 5.813 82.853 7.295 82.853 C 8.778 82.853 9.975999999999999 83.4 10.955 84.395 C 11.935 85.392 12.477 86.618 12.477 88.132 Z M 18.275 73.83 C 18.275 75.344 17.734 76.57 16.754 77.566 C 15.775 78.562 14.577 79.108 13.094 79.108 C 11.611 79.108 10.414 78.562 9.435 77.566 C 8.454 76.57 7.912 75.344 7.912 73.83 C 7.912 72.316 8.454 71.088 9.435 70.092 C 10.414 69.097 11.611 68.55 13.094 68.55 C 14.577 68.55 15.775 69.097 16.754 70.092 C 17.734 71.088 18.275 72.316 18.275 73.83 Z M 29.099 62.619 C 29.099 64.133 28.558 65.359 27.578 66.356 C 26.599 67.351 25.401 67.898 23.918 67.898 C 22.435 67.898 21.237 67.351 20.258 66.356 C 19.278 65.359 18.736 64.133 18.736 62.619 C 18.736 61.105 19.278 59.878 20.258 58.882 C 21.237 57.887 22.435 57.34 23.918 57.34 C 25.401 57.34 26.599 57.887 27.578 58.882 C 28.558 59.878 29.099 61.105 29.099 62.619 Z M 42.629 55.274 C 42.629 56.788 42.088 58.015 41.107 59.012 C 40.128 60.006 38.931 60.553 37.447 60.553 C 35.965 60.553 34.767 60.006 33.788 59.012 C 32.807 58.015 32.266 56.788 32.266 55.274 C 32.266 53.76 32.807 52.534 33.788 51.537 C 34.767 50.542 35.965 49.996 37.447 49.996 C 38.931 49.996 40.128 50.542 41.107 51.537 C 42.088 52.534 42.629 53.76 42.629 55.274 Z M 58.091 51.408 C 58.091 52.922 57.55 54.15 56.57 55.146 C 55.591 56.14 54.393 56.687 52.91 56.687 C 51.427 56.687 50.23 56.14 49.251 55.146 C 48.27 54.15 47.729 52.922 47.729 51.408 C 47.729 49.894 48.27 48.668 49.251 47.672 C 50.23 46.676 51.427 46.13 52.91 46.13 C 54.393 46.13 55.591 46.676 56.57 47.672 C 57.55 48.668 58.091 49.894 58.091 51.408 Z M 73.941 52.182 C 73.941 53.696 73.399 54.922 72.419 55.918 C 71.44 56.914 70.242 57.46 68.759 57.46 C 67.277 57.46 66.079 56.914 65.1 55.918 C 64.12 54.922 63.578 53.696 63.578 52.182 C 63.578 50.668 64.12 49.44 65.1 48.444 C 66.079 47.45 67.277 46.903 68.759 46.903 C 70.242 46.903 71.44 47.45 72.419 48.444 C 73.399 49.44 73.941 50.668 73.941 52.182 Z M 116.85 63.392 C 116.85 64.906 116.308 66.133 115.328 67.129 C 114.349 68.124 113.152 68.671 111.668 68.671 C 110.186 68.671 108.987 68.124 108.008 67.129 C 107.028 66.133 106.487 64.906 106.487 63.392 C 106.487 61.878 107.028 60.651 108.008 59.655 C 108.987 58.66 110.186 58.113 111.668 58.113 C 113.152 58.113 114.349 58.66 115.328 59.655 C 116.308 60.651 116.85 61.878 116.85 63.392 Z M 89.016 56.433 C 89.016 57.947 88.475 59.175 87.495 60.171 C 86.517 61.166 85.319 61.713 83.836 61.713 C 82.353 61.713 81.156 61.166 80.176 60.171 C 79.195 59.175 78.654 57.947 78.654 56.433 C 78.654 54.92 79.195 53.693 80.176 52.697 C 81.155 51.701 82.353 51.155 83.836 51.155 C 85.319 51.155 86.517 51.701 87.495 52.697 C 88.475 53.693 89.016 54.92 89.016 56.433 Z M 102.933 60.686 C 102.933 62.2 102.391 63.426 101.411 64.423 C 100.433 65.418 99.235 65.965 97.752 65.965 C 96.27 65.965 95.071 65.418 94.092 64.423 C 93.112 63.426 92.57 62.2 92.57 60.686 C 92.57 59.172 93.112 57.946 94.092 56.949 C 95.071 55.954 96.27 55.408 97.752 55.408 C 99.235 55.408 100.433 55.954 101.411 56.949 C 102.391 57.946 102.933 59.172 102.933 60.686 Z M 126.373 65.38 C 125.895 65.491 125.441 65.666 125.021 65.894 C 124.853 65.659 124.663 65.447 124.457 65.271 C 123.803 64.713 122.803 64.294 121.809 64.197 C 119.474 62.008 117.785 59.138 117.056 55.906 L 148.849 55.906 C 148.122 59.136 146.434 62.002 144.105 64.191 C 143.073 64.286 141.997 64.752 141.334 65.415 C 141.186 65.563 141.049 65.731 140.922 65.914 C 140.492 65.676 140.025 65.495 139.533 65.38 C 139.283 63.982 138.601 62.677 137.684 61.744 C 136.516 60.557 134.747 59.754 132.952 59.754 C 131.159 59.754 129.39 60.557 128.222 61.744 C 127.305 62.678 126.622 63.982 126.373 65.38 Z M 138.134 90.535 C 138.134 92.049 137.593 93.275 136.613 94.272 C 135.633 95.267 134.436 95.813 132.952 95.813 C 131.47 95.813 130.272 95.267 129.293 94.272 C 128.313 93.275 127.772 92.049 127.772 90.535 C 127.772 89.021 128.313 87.794 129.293 86.797 C 130.272 85.803 131.47 85.256 132.952 85.256 C 134.436 85.256 135.633 85.803 136.613 86.797 C 137.593 87.794 138.134 89.021 138.134 90.535 Z M 138.134 102.543 C 138.134 104.057 137.593 105.284 136.613 106.28 C 135.633 107.276 134.436 107.822 132.952 107.822 C 131.47 107.822 130.272 107.276 129.293 106.28 C 128.313 105.284 127.772 104.057 127.772 102.543 C 127.772 101.029 128.313 99.803 129.293 98.806 C 130.272 97.811 131.47 97.264 132.952 97.264 C 134.436 97.264 135.633 97.811 136.613 98.806 C 137.593 99.803 138.134 101.029 138.134 102.543 Z M 251.558 124.8 C 248.177 123.729 244.557 122.888 240.734 122.256 C 242.667 117.755 245.179 111.382 245.617 107.754 C 246.49 100.509 246.462 98.185 244.66 91.512 C 242.793 84.598 240.082 79.848 235.417 75.229 C 231.016 70.872 224.818 68.173 218.469 66.702 C 212.807 65.39 206.409 64.828 201.443 65.852 C 192.008 67.796 185.88 70.877 175.624 74.113 C 168.226 76.447 162.571 77.248 155.091 77.673 C 153.149 77.782 151.079 77.64 148.96 77.36 L 148.96 68.406 C 148.945 68.037 148.881 67.657 148.774 67.29 C 148.995 67.614 149.241 67.916 149.506 68.186 C 150.674 69.373 152.443 70.176 154.237 70.176 C 156.032 70.176 157.8 69.373 158.969 68.186 C 159.514 67.631 159.977 66.945 160.315 66.185 C 161.468 66.056 162.573 65.904 163.671 65.717 C 164.833 66.773 166.483 67.47 168.154 67.47 C 169.948 67.47 171.716 66.667 172.885 65.479 C 173.577 64.776 174.135 63.861 174.475 62.853 C 175.63 62.467 176.749 62.078 177.846 61.688 C 178.987 62.618 180.519 63.218 182.07 63.218 C 183.864 63.218 185.632 62.415 186.801 61.228 C 187.656 60.358 188.307 59.166 188.594 57.876 C 189.767 57.492 190.967 57.118 192.212 56.756 C 192.278 56.831 192.346 56.904 192.416 56.975 C 193.583 58.162 195.352 58.966 197.147 58.966 C 198.94 58.966 200.709 58.162 201.877 56.975 C 202.56 56.281 203.112 55.381 203.453 54.39 C 204.611 54.287 205.771 54.235 206.931 54.229 C 207.268 54.977 207.726 55.654 208.265 56.202 C 209.433 57.389 211.202 58.192 212.996 58.192 C 214.789 58.192 216.558 57.389 217.726 56.202 C 217.963 55.961 218.185 55.695 218.388 55.408 C 219.251 55.575 220.11 55.754 220.966 55.944 C 221.255 56.008 221.544 56.074 221.833 56.143 C 222.035 57.65 222.746 59.071 223.727 60.068 C 224.895 61.255 226.664 62.058 228.458 62.058 C 230.195 62.058 231.909 61.305 233.076 60.179 C 233.863 60.576 234.641 60.998 235.411 61.447 C 235.341 61.834 235.304 62.226 235.304 62.622 C 235.304 64.438 236.09 66.226 237.257 67.412 C 238.425 68.6 240.194 69.403 241.988 69.403 C 242.892 69.403 243.787 69.2 244.604 68.846 C 245.321 69.619 246.005 70.41 246.658 71.22 C 246.321 72.037 246.127 72.931 246.127 73.832 C 246.127 75.649 246.914 77.437 248.081 78.623 C 249.173 79.733 250.791 80.507 252.463 80.603 C 252.903 81.56 253.313 82.538 253.695 83.539 C 252.631 84.722 251.926 86.415 251.926 88.135 C 251.926 89.952 252.712 91.739 253.88 92.926 C 254.616 93.675 255.591 94.271 256.662 94.609 C 256.789 95.402 256.891 96.175 256.969 96.938 C 256.118 97.289 255.348 97.802 254.741 98.42 C 253.574 99.606 252.788 101.394 252.788 103.211 C 252.788 105.028 253.574 106.816 254.741 108.002 C 255.249 108.518 255.869 108.961 256.556 109.297 C 256.497 109.761 256.427 110.224 256.348 110.687 C 254.647 110.762 252.996 111.543 251.885 112.671 C 250.718 113.857 249.932 115.645 249.932 117.462 C 249.932 119.279 250.718 121.067 251.885 122.253 C 252.072 122.443 252.276 122.624 252.491 122.794 C 252.172 123.509 251.858 124.18 251.558 124.8 Z M 25.172 122.256 C 21.349 122.888 17.729 123.729 14.348 124.8 C 14.048 124.179 13.733 123.507 13.414 122.791 C 13.63 122.622 13.833 122.441 14.02 122.25 C 15.187 121.065 15.974 119.276 15.974 117.46 C 15.974 115.642 15.187 113.855 14.02 112.668 C 12.91 111.54 11.259 110.759 9.558 110.684 C 9.479 110.222 9.409 109.759 9.35 109.295 C 10.036 108.958 10.657 108.515 11.164 107.999 C 12.331 106.813 13.118 105.025 13.118 103.209 C 13.118 101.391 12.331 99.604 11.164 98.417 C 10.557 97.8 9.786999999999999 97.287 8.936 96.935 C 9.015 96.172 9.117 95.4 9.244 94.606 C 10.314 94.268 11.29 93.672 12.026 92.923 C 13.193 91.737 13.98 89.949 13.98 88.132 C 13.98 86.412 13.275 84.719 12.211 83.537 C 12.592 82.536 13.003 81.557 13.442 80.601 C 15.115 80.505 16.733 79.73 17.825 78.62 C 18.992 77.435 19.778 75.646 19.778 73.83 C 19.778 72.929 19.584 72.035 19.248 71.218 C 19.901 70.408 20.585 69.616 21.301 68.844 C 22.118 69.197 23.014 69.4 23.918 69.4 C 25.712 69.4 27.481 68.597 28.649 67.41 C 29.816 66.224 30.602 64.435 30.602 62.619 C 30.602 62.224 30.565 61.831 30.495 61.444 C 31.264 60.995 32.043 60.573 32.829 60.177 C 33.996 61.302 35.711 62.055 37.447 62.055 C 39.242 62.055 41.011 61.252 42.178 60.066 C 43.159 59.069 43.871 57.647 44.073 56.14 C 44.362 56.071 44.651 56.005 44.939 55.941 C 45.795 55.752 46.655 55.572 47.518 55.406 C 47.721 55.692 47.942 55.958 48.18 56.2 C 49.347 57.386 51.116 58.19 52.91 58.19 C 54.704 58.19 56.473 57.386 57.641 56.2 C 58.18 55.651 58.638 54.975 58.975 54.227 C 60.135 54.233 61.295 54.285 62.453 54.388 C 62.794 55.379 63.346 56.279 64.029 56.972 C 65.197 58.16 66.966 58.963 68.759 58.963 C 70.553 58.963 72.322 58.16 73.49 56.972 C 73.56 56.902 73.628 56.829 73.694 56.754 C 74.939 57.115 76.139 57.489 77.312 57.873 C 77.599 59.164 78.249 60.355 79.105 61.225 C 80.273 62.412 82.041 63.216 83.836 63.216 C 85.387 63.216 86.919 62.616 88.06 61.686 C 89.157 62.076 90.275 62.464 91.43 62.85 C 91.77 63.858 92.329 64.774 93.021 65.477 C 94.19 66.664 95.958 67.467 97.752 67.467 C 99.423 67.467 101.073 66.77 102.235 65.715 C 103.333 65.902 104.437 66.054 105.591 66.182 C 105.929 66.942 106.391 67.628 106.937 68.183 C 108.106 69.371 109.874 70.174 111.668 70.174 C 113.463 70.174 115.232 69.371 116.399 68.183 C 116.633 67.945 116.852 67.682 117.052 67.401 C 116.995 67.636 116.96 67.873 116.947 68.105 L 116.947 77.356 C 114.828 77.638 112.757 77.78 110.815 77.67 C 103.335 77.245 97.68 76.444 90.282 74.11 C 80.026 70.874 73.897 67.794 64.463 65.849 C 59.497 64.826 53.099 65.387 47.437 66.699 C 41.088 68.17 34.89 70.869 30.489 75.226 C 25.824 79.845 23.113 84.596 21.245 91.509 C 19.443 98.182 19.416 100.506 20.289 107.751 C 20.727 111.38 23.24 117.754 25.172 122.256 Z M 123.811 116.876 C 122.188 116.96 120.566 117.072 118.946 117.219 L 118.946 68.105 C 118.89 67.525 119.12 67.201 119.599 66.793 C 120.091 66.372 120.606 66.175 121.379 66.175 C 122.151 66.175 122.667 66.372 123.159 66.793 C 123.637 67.201 123.868 67.525 123.811 68.105 Z M 146.961 117.219 C 145.34 117.072 143.718 116.96 142.095 116.876 L 142.095 68.406 C 142.052 67.718 142.29 67.287 142.749 66.829 C 143.207 66.37 143.638 66.132 144.326 66.175 L 144.73 66.175 C 145.418 66.132 145.849 66.37 146.307 66.829 C 146.766 67.287 147.004 67.718 146.961 68.406 Z M 148.886 117.41 L 148.886 99.485 C 156.03 96.808 165.238 92.896 171.078 92.896 C 178.501 92.896 185.799 93.83 192.327 97.441 C 198.904 101.293 201.209 107.544 202.268 109.898 C 205.613 109.849 216.604 109.231 227.871 114.765 C 230.938 116.352 233.601 118.957 235.714 121.557 C 233.065 121.254 230.333 121.038 227.528 120.904 L 226.04 120.833 L 226.538 122.238 C 230.13 132.356 234.006 140.568 233.471 148.505 C 232.904 148.734 232.37 149.029 231.88 149.381 C 226.121 143.923 224.091 137.322 221.504 129.726 L 220.47 126.693 L 209.781 164.334 L 211.362 164.024 C 214.434 163.421 215.216 162.864 216.909 162.147 C 218.695 161.389 220.984 160.617 226.804 159.442 C 223.55 164.505 218.539 169.796 211.3 170.334 C 206.463 170.833 203.151 169.384 200.054 166.667 C 198.7 165.5 197.459 164.212 196.712 162.788 L 198.132 161.006 C 198.144 161.073 198.158 161.14 198.173 161.207 C 198.865 163.586 200.277 165.638 202.389 167.011 C 204.26 168.111 208.445 168.422 208.445 168.422 L 209.823 168.525 L 208.212 162.309 C 207.747 160.905 208.317 159.744 209.112 158.268 C 209.91 156.786 210.988 155.131 211.461 153.238 C 211.986 150.958 212.252 148.184 211.424 145.814 C 210.484 143.371 208.472 140.84 206.036 139.67 C 205.035 139.252 203.809 139.158 202.85 139.222 C 201.461 139.335 201.207 139.502 200.389 139.719 C 200.576 138.469 200.845 137.703 200.673 135.45 C 200.411 132.728 198.187 127.799 196.953 125.511 C 194.851 121.656 191.544 118.16 191.166 117.786 L 190.457 117.085 L 189.754 117.792 C 189.415 118.133 185.858 121.466 183.497 125.163 C 182.09 127.393 180.609 130.715 180.176 133.377 C 179.843 135.558 179.933 137.058 179.937 138.571 C 178.698 138.101 177.502 137.56 176.121 137.349 C 175.168 137.218 173.938 137.228 172.91 137.575 C 170.4 138.572 168.216 140.957 167.109 143.329 C 166.117 145.635 166.189 148.421 166.554 150.731 C 167.21 154.456 169.286 156.927 168.084 159.827 L 166.044 165.916 L 167.426 165.91 C 167.426 165.91 171.622 165.89 173.566 164.923 C 175.768 163.699 177.32 161.751 178.175 159.427 C 178.246 159.208 178.306 158.989 178.357 158.77 L 180.479 162.95 L 180.782 162.966 C 179.075 165.416 176.62 166.858 173.698 168.035 C 170.404 169.383 167.522 169.876 163.935 169.911 C 160.932 169.949 155.782 169.474 152.998 168.519 C 149.564 167.383 147.644 165.959 144.928 163.433 C 143.48 162.133 142.573 160.239 141.913 158.291 C 141.15 156.172 141.381 155.054 141.4 153.754 C 144.328 154.993 146.547 156.288 149.28 158.369 C 152.374 160.713 155.057 163.425 157.634 166.342 L 159.367 168.304 L 159.652 123.186 L 157.894 125.127 C 154.162 129.248 151.524 132.855 147.907 135.841 C 144.849 138.388 145.179 138.65 142.172 139.612 C 142.757 137.41 142.806 136.409 145.015 133.415 C 148.213 128.949 151.286 124.209 155.1 119.816 L 156.272 118.467 L 154.509 118.175 C 152.636 117.864 150.762 117.612 148.886 117.41 Z M 196.041 154.617 C 195.991 154.291 196.217 153.967 196.611 153.533 C 197.002 153.101 197.207 152.889 197.474 152.921 C 197.475 152.921 197.476 152.922 197.477 152.922 C 197.561 153.004 197.603 153.075 197.697 153.295 C 197.896 153.753 198.025 154.362 198.172 154.899 C 198.503 155.824 198.304 156.93 198.152 158.138 L 196.375 155.33 L 196.035 155.312 C 196.037 155.08 196.039 154.849 196.041 154.617 Z M 179.565 153.564 C 180.071 152.854 180.381 152.225 181.015 152.475 C 181.251 152.375 181.309 152.603 181.58 153.085 C 181.858 153.58 182.011 154.073 182.016 154.509 L 182.018 154.551 L 180.938 154.492 L 178.453 158.3 C 178.788 156.449 178.619 154.67 179.565 153.564 Z M 128.207 116.713 C 127.922 116.067 127.772 115.349 127.772 114.552 C 127.772 113.038 128.313 111.811 129.293 110.814 C 130.272 109.82 131.47 109.273 132.952 109.273 C 134.436 109.273 135.633 109.82 136.613 110.814 C 137.593 111.811 138.134 113.038 138.134 114.552 C 138.134 115.349 137.984 116.067 137.699 116.713 C 136.119 116.676 134.537 116.66 132.953 116.66 C 131.369 116.66 129.787 116.676 128.207 116.713 Z M 30.044 121.574 C 32.551 118.512 35.839 115.139 39.603 112.834 C 46.707 108.715 53.695 109.683 56.008 109.868 C 57.783 107.966 64.089 100.974 70.319 97.441 C 77.085 93.7 84.155 92.896 91.568 92.896 C 98.324 92.896 109.585 98.129 116.945 100.632 L 116.945 117.418 C 115.094 117.619 113.245 117.868 111.397 118.175 L 109.634 118.467 L 110.805 119.816 C 114.62 124.209 117.693 128.949 120.891 133.415 C 123.1 136.409 122.831 136.345 123.734 139.612 C 121.794 138.818 121.057 138.388 117.999 135.841 C 114.383 132.855 111.743 129.248 108.011 125.127 L 106.253 123.186 L 106.539 168.304 L 108.272 166.342 C 110.848 163.425 113.533 160.713 116.626 158.369 C 119.36 156.288 121.578 154.993 124.505 153.754 C 124.526 155.054 124.755 156.172 123.992 158.291 C 123.332 160.239 122.426 162.133 120.978 163.433 C 118.261 165.959 116.342 167.383 112.907 168.519 C 110.123 169.474 104.976 169.949 101.97 169.911 C 98.384 169.875 95.502 169.383 92.208 168.035 C 89.286 166.858 86.83 165.415 85.122 162.965 L 85.425 162.949 L 87.549 158.768 C 87.6 158.988 87.66 159.208 87.731 159.427 C 88.586 161.75 90.138 163.699 92.339 164.923 C 94.283 165.89 98.48 165.91 98.48 165.91 L 99.861 165.916 L 97.822 159.827 C 96.619 156.927 98.696 154.457 99.351 150.732 C 99.717 148.421 99.789 145.635 98.797 143.329 C 97.689 140.957 95.506 138.572 92.996 137.575 C 91.968 137.228 90.738 137.218 89.785 137.349 C 88.404 137.56 87.208 138.101 85.969 138.571 C 85.974 137.058 86.063 135.558 85.73 133.377 C 85.296 130.715 83.815 127.393 82.41 125.164 C 80.047 121.466 76.49 118.133 76.151 117.792 L 75.447 117.084 L 74.738 117.787 C 74.362 118.16 71.055 121.656 68.952 125.511 C 67.719 127.799 65.495 132.728 65.233 135.45 C 65.061 137.702 65.33 138.469 65.517 139.719 C 64.7 139.502 64.446 139.335 63.057 139.222 C 62.097 139.158 60.87 139.252 59.869 139.67 C 57.435 140.84 55.422 143.37 54.483 145.814 C 53.654 148.184 53.92 150.958 54.445 153.238 C 54.919 155.131 55.996 156.786 56.795 158.268 C 57.589 159.744 58.159 160.905 57.694 162.309 L 56.082 168.525 L 57.46 168.422 C 57.46 168.422 61.645 168.111 63.516 167.011 C 65.629 165.638 67.041 163.586 67.733 161.208 C 67.748 161.141 67.762 161.073 67.774 161.006 L 69.194 162.789 C 68.448 164.212 67.206 165.5 65.851 166.667 C 62.757 169.384 59.443 170.833 54.606 170.334 C 47.366 169.796 42.009 164.967 39.102 159.442 C 44.923 160.617 47.211 161.389 48.997 162.147 C 50.689 162.864 51.471 163.421 54.544 164.024 L 56.124 164.334 L 45.436 126.693 L 44.402 129.726 C 41.817 137.322 39.784 143.925 34.023 149.383 C 33.577 149.066 33.096 148.794 32.587 148.577 C 32.53 140.857 35.777 132.357 39.368 122.237 L 39.866 120.833 L 38.378 120.904 C 35.521 121.041 32.739 121.262 30.044 121.574 Z M 83.889 154.509 C 83.895 154.073 84.048 153.58 84.326 153.085 C 84.597 152.603 84.654 152.375 84.891 152.475 C 85.525 152.225 85.835 152.854 86.341 153.564 C 87.286 154.671 87.117 156.45 87.453 158.303 L 84.966 154.492 L 83.887 154.55 Z M 67.733 154.899 C 67.881 154.363 68.01 153.754 68.209 153.295 C 68.304 153.075 68.345 153.004 68.43 152.923 C 68.43 152.922 68.431 152.921 68.432 152.921 C 68.696 152.891 68.929 153.128 69.295 153.533 C 69.688 153.967 69.914 154.291 69.864 154.618 C 69.866 154.849 69.868 155.08 69.87 155.31 L 69.529 155.329 L 67.754 158.137 C 67.602 156.929 67.403 155.824 67.733 154.899 Z M 196.703 159.589 L 194.994 161.735 L 181.74 161.016 L 180.572 158.714 L 181.982 156.551 L 195.236 157.27 Z M 70.668 157.269 L 83.922 156.55 L 85.333 158.714 L 84.164 161.015 L 70.91 161.734 L 69.202 159.589 Z M 228.596 157.054 C 221.064 158.487 217.984 159.518 216.128 160.305 C 214.178 161.132 213.976 161.388 212.596 161.743 L 220.646 133.394 C 222.818 139.612 224.619 145.253 230.433 150.741 C 229.379 152.049 228.688 153.835 228.688 155.622 C 228.688 156.088 228.735 156.554 228.824 157.011 Z M 228.924 122.98 C 238.459 123.429 244.742 124.591 251.675 126.934 C 247.148 134.85 243.55 141.986 240.257 149.199 C 239.079 148.452 237.646 147.989 236.214 147.989 C 235.903 147.989 235.592 148.011 235.284 148.053 C 235.165 140.202 232.046 131.762 228.924 122.98 Z M 126.461 142.667 C 126.5 142.597 126.54 142.529 126.58 142.461 L 126.656 142.732 Z M 126.155 140.93 C 125.276 137.778 124.901 135.675 122.517 132.251 C 119.344 127.822 116.844 123.974 113.469 119.873 C 119.926 118.922 125.779 118.66 132.952 118.66 C 140.125 118.66 145.978 118.922 152.435 119.873 C 148.537 124.377 146.56 127.822 143.388 132.251 C 141.003 135.675 140.628 137.778 139.75 140.93 L 139.324 142.46 C 139.021 141.958 138.669 141.501 138.281 141.106 C 136.973 139.777 134.962 138.864 132.953 138.864 C 130.943 138.864 128.932 139.777 127.625 141.106 C 127.236 141.501 126.884 141.959 126.58 142.461 Z M 139.324 142.46 C 139.365 142.528 139.405 142.597 139.445 142.667 L 139.248 142.732 Z M 25.633 149.209 C 22.267 141.88 18.579 134.612 14.231 126.937 C 21.565 124.332 28.16 123.459 36.981 122.978 C 33.728 132.143 30.705 140.308 30.611 148.051 C 30.306 148.01 29.998 147.989 29.691 147.989 C 28.253 147.989 26.814 148.457 25.633 149.209 Z M 35.472 150.741 C 41.285 145.253 43.087 139.612 45.259 133.394 L 53.309 161.746 C 51.927 161.395 51.726 161.132 49.777 160.305 C 47.921 159.518 44.841 158.487 37.308 157.054 L 37.081 157.011 C 37.17 156.554 37.217 156.088 37.217 155.622 C 37.217 153.835 36.526 152.049 35.472 150.741 Z M 236.214 149.988 C 237.81 149.988 239.061 150.56 240.117 151.633 C 241.174 152.707 241.742 153.992 241.742 155.622 C 241.742 157.252 241.174 158.537 240.117 159.611 C 239.062 160.684 237.81 161.256 236.214 161.256 C 234.62 161.256 233.368 160.684 232.313 159.611 C 231.255 158.538 230.688 157.252 230.688 155.622 C 230.688 153.992 231.255 152.707 232.313 151.633 C 233.368 150.56 234.62 149.988 236.214 149.988 Z M 35.217 155.622 C 35.217 157.252 34.65 158.538 33.592 159.611 C 32.537 160.684 31.285 161.256 29.691 161.256 C 28.095 161.256 26.844 160.684 25.788 159.611 C 24.732 158.538 24.164 157.252 24.164 155.622 C 24.164 153.992 24.732 152.707 25.788 151.633 C 26.844 150.56 28.095 149.988 29.691 149.988 C 31.285 149.988 32.537 150.56 33.592 151.633 C 34.65 152.707 35.217 153.992 35.217 155.622 Z M 138.48 146.497 C 138.48 148.128 137.912 149.413 136.854 150.486 C 135.8 151.559 134.548 152.131 132.953 152.131 C 131.357 152.131 130.106 151.559 129.051 150.486 C 127.994 149.413 127.426 148.128 127.426 146.497 C 127.426 144.867 127.994 143.582 129.051 142.508 C 130.106 141.435 131.357 140.863 132.953 140.863 C 134.548 140.863 135.8 141.435 136.854 142.508 C 137.912 143.582 138.48 144.867 138.48 146.497 Z M 71.863 154.6 C 71.803 153.824 71.344 152.816 70.778 152.191 C 70.21 151.564 69.218 151.017 68.404 150.931 C 67.918 150.977 67.331 151.203 67.038 151.486 C 66.764 151.751 66.518 152.167 66.374 152.498 C 66.095 153.141 65.937 153.891 65.805 154.366 C 65.279 156.748 66.405 159.003 65.806 160.67 C 65.25 162.756 64.271 164.228 62.455 165.316 C 61.054 166.265 59.927 166.174 58.722 166.311 L 59.63 162.811 C 60.055 160.783 59.403 158.896 58.554 157.32 C 57.709 155.75 56.72 154.345 56.393 152.786 C 55.886 150.618 55.583 148.421 56.355 146.515 C 57.147 144.336 58.638 142.365 60.696 141.491 C 61.336 141.162 62.078 141.154 62.915 141.218 C 64.067 141.285 66.462 142.072 66.462 142.072 L 68.111 142.614 L 67.748 140.917 C 67.748 140.917 67.036 137.585 67.224 135.621 C 67.4 133.229 69.508 128.69 70.711 126.462 C 72.658 122.82 74.363 121.137 75.47 119.923 C 76.678 121.116 78.52 122.733 80.719 126.233 C 82.059 128.339 83.395 131.28 83.754 133.687 C 84.075 135.686 83.952 140.016 83.952 140.016 L 83.907 141.559 L 85.331 140.967 C 85.331 140.967 88.922 139.476 90.063 139.33 C 90.895 139.209 91.636 139.164 92.295 139.448 C 94.41 140.177 96.035 142.04 96.977 144.159 C 97.879 146.006 97.729 148.219 97.375 150.416 C 96.912 153.693 94.874 156.64 95.925 160.463 L 97.073 163.891 C 95.861 163.838 94.743 164.008 93.281 163.158 C 91.394 162.2 90.314 160.798 89.614 158.757 C 88.931 157.026 89.275 154.477 87.965 152.398 C 87.387 151.6 86.182 150.558 84.724 150.483 C 83.861 150.675 82.983 151.391 82.582 152.105 C 82.189 152.805 81.933 153.761 81.891 154.426 L 81.882 154.659 L 71.869 155.202 C 71.866 155.001 71.865 154.8 71.863 154.6 Z M 184.013 154.426 C 183.972 153.761 183.716 152.805 183.323 152.105 C 182.921 151.391 182.044 150.675 181.181 150.483 C 179.722 150.558 178.517 151.6 177.94 152.398 C 176.629 154.478 176.973 157.026 176.291 158.756 C 175.59 160.798 174.511 162.2 172.624 163.158 C 171.161 164.008 170.043 163.838 168.831 163.891 L 169.98 160.463 C 171.03 156.64 168.992 153.694 168.529 150.417 C 168.175 148.219 168.026 146.006 168.928 144.159 C 169.87 142.04 171.494 140.177 173.61 139.448 C 174.269 139.164 175.01 139.209 175.84 139.33 C 176.982 139.476 180.573 140.967 180.573 140.967 L 181.996 141.559 L 181.952 140.016 C 181.952 140.016 181.83 135.686 182.15 133.687 C 182.509 131.28 183.845 128.339 185.186 126.234 C 187.384 122.733 189.227 121.115 190.434 119.922 C 190.791 120.275 193.247 122.82 195.193 126.462 C 196.397 128.69 198.505 133.229 198.68 135.621 C 198.869 137.585 198.156 140.917 198.156 140.917 L 197.793 142.614 L 199.442 142.072 C 199.442 142.072 201.837 141.285 202.99 141.217 C 203.827 141.154 204.569 141.162 205.208 141.491 C 207.267 142.365 208.757 144.335 209.55 146.515 C 210.321 148.421 210.019 150.618 209.512 152.786 C 209.184 154.345 208.196 155.75 207.35 157.32 C 206.501 158.896 205.85 160.783 206.275 162.811 L 207.182 166.311 C 205.978 166.174 204.85 166.265 203.451 165.316 C 201.634 164.228 200.654 162.755 200.098 160.67 C 199.499 159.003 200.626 156.748 200.099 154.366 C 199.967 153.89 199.81 153.142 199.531 152.498 C 199.387 152.167 199.142 151.751 198.867 151.486 C 198.575 151.203 197.987 150.977 197.501 150.931 C 196.686 151.017 195.694 151.563 195.127 152.191 C 194.561 152.816 194.102 153.824 194.041 154.6 C 194.04 154.801 194.038 155.002 194.036 155.203 L 184.023 154.66 Z M 70.717 180.217 L 70.666 180.255 L 70.31 180.255 C 58.818 181.082 45.917 181.958 34.439 183.504 C 33.88 184.207 33.685 184.608 33.777 185.202 C 33.869 185.805 34.164 186.183 35.281 186.714 C 46.391 185.217 59.331 184.306 70.828 183.479 C 86.433 182.574 102.194 182.007 117.89 181.852 L 147.979 181.852 C 157.374 181.852 177.216 182.426 195.039 183.499 C 212.794 184.568 230.63 186.716 230.63 186.716 C 231.783 186.128 232.073 185.741 232.137 185.147 C 232.198 184.566 231.994 184.184 231.393 183.513 C 228.737 183.195 213.52 181.319 195.456 180.233 C 177.458 179.149 157.701 178.59 147.979 178.59 L 117.901 178.59 C 102.155 178.637 86.437 179.375 70.717 180.217 Z M 75.132 209.445 L 75.082 209.485 L 74.706 209.485 C 64.02 210.312 52.168 211.149 41.415 212.726 C 40.903 213.424 40.72 213.833 40.808 214.442 C 40.895 215.056 41.156 215.423 42.157 215.94 C 52.483 214.445 64.488 213.537 75.178 212.709 C 89.7 211.804 104.36 211.537 118.945 211.382 L 146.925 211.382 C 155.654 211.382 174.109 211.656 190.691 212.729 C 207.204 213.799 223.75 215.943 223.75 215.943 C 224.785 215.369 225.045 214.99 225.105 214.384 C 225.164 213.788 224.973 213.4 224.425 212.737 C 221.828 212.402 207.852 210.549 191.06 209.463 C 174.337 208.379 155.97 208.12 146.925 208.12 L 118.958 208.12 C 104.323 208.166 89.725 208.608 75.132 209.445 Z" style="stroke: rgb(0, 0, 0); fill: rgb(255, 187, 0);"/>
</svg>