<?xml version="1.0" encoding="utf-8"?>
<svg width="247.74243" height="199.29811" id="svg69184" version="1.1" xmlns="http://www.w3.org/2000/svg">
  <path d="M 123.644 70.731 C 123.376 70.739 120.648 70.882 119.29 68.452 C 118.558 67.402 117.831 64.4 117.831 64.4 L 117.536 63.185 L 116.412 63.751 C 116.412 63.751 114.205 64.864 112.826 65.364 C 111.689 65.829 110.178 65.645 109.372 65.59 C 108.793 64.873 107.444 63.489 108.052 62.207 C 108.389 60.814 109.645 59.817 111.047 58.587 C 112.45 57.357 114 55.891 114.627 54.027 L 115.778 50.097 L 114.571 50.027 C 114.571 50.027 112.354 49.897 111.275 50.444 C 109.015 51.934 107.337 55.004 105.761 57.674 C 104.186 60.342 102.855 62.592 100.781 62.847 C 98.839 63.232 98.71 63.355 97.949 63.597 C 97.746 62.283 97.322 60.766 97.867 58.906 C 98.37 57.004 98.764 54.733 98.764 54.733 L 99.165 52.424 L 97.245 53.718 C 97.245 53.718 92.424 56.964 88.927 55.782 C 86.174 55.051 83.862 52.751 82.637 50.053 C 81.839 48.505 82.12 48.035 82.115 47.044 C 83.248 47.719 83.948 48.295 85.941 48.972 C 88.272 49.693 90.877 49.404 93.085 49.007 C 98.768 47.87 102.234 43.716 107.347 43.525 C 108.955 43.41 111.619 43.69 114.313 44.089 C 114.443 44.236 114.575 44.379 114.711 44.518 C 116.94 46.8 120.227 48.305 123.644 48.305 C 127.062 48.305 130.349 46.8 132.578 44.518 C 132.714 44.379 132.847 44.236 132.976 44.089 C 135.67 43.69 138.334 43.41 139.942 43.525 C 145.055 43.716 148.521 47.87 154.203 49.007 C 156.412 49.404 159.017 49.692 161.348 48.972 C 163.341 48.295 164.041 47.719 165.173 47.044 C 165.169 48.035 165.45 48.505 164.652 50.053 C 163.427 52.751 161.115 55.051 158.362 55.782 C 154.864 56.964 150.044 53.718 150.044 53.718 L 148.124 52.424 L 148.525 54.733 C 148.525 54.733 148.919 57.004 149.421 58.906 C 149.967 60.766 149.543 62.283 149.34 63.597 C 148.579 63.355 148.45 63.232 146.508 62.847 C 144.434 62.592 143.103 60.342 141.528 57.674 C 139.952 55.004 138.274 51.933 136.013 50.444 C 134.934 49.897 132.717 50.027 132.717 50.027 L 131.51 50.097 L 131.863 51.302 L 132.662 54.027 C 133.289 55.891 134.839 57.357 136.242 58.587 C 137.644 59.817 138.9 60.814 139.237 62.207 C 139.845 63.489 138.496 64.873 137.917 65.59 C 137.111 65.645 135.599 65.829 134.462 65.364 C 133.082 64.864 130.877 63.752 130.877 63.752 L 129.753 63.185 L 129.458 64.4 C 129.458 64.4 128.73 67.402 127.998 68.452 C 126.641 70.882 123.912 70.739 123.644 70.731 Z M 66.202 175.893 L 66.152 175.933 L 65.776 175.933 C 55.09 176.76 43.238 177.597 32.485 179.174 C 31.973 179.872 31.79 180.281 31.878 180.89 C 31.965 181.504 32.226 181.871 33.227 182.388 C 43.553 180.893 55.558 179.985 66.248 179.157 C 80.77 178.252 95.43 177.985 110.015 177.83 L 137.995 177.83 C 146.724 177.83 165.179 178.104 181.761 179.177 C 198.274 180.247 214.82 182.391 214.82 182.391 C 215.855 181.817 216.115 181.438 216.175 180.832 C 216.234 180.236 216.043 179.848 215.495 179.185 C 212.898 178.85 198.922 176.997 182.13 175.911 C 165.407 174.827 147.04 174.568 137.995 174.568 L 110.028 174.568 C 95.393 174.614 80.795 175.056 66.202 175.893 Z M 114.103 154.931 L 133.942 154.931 C 135.167 154.887 136.085 155.344 136.896 156.154 C 137.706 156.965 138.163 157.883 138.119 159.108 L 138.119 163.105 C 138.163 164.33 137.706 165.248 136.896 166.059 C 136.085 166.869 135.167 167.326 133.942 167.282 L 114.103 167.282 C 112.878 167.326 111.96 166.869 111.149 166.059 C 110.339 165.248 109.882 164.33 109.926 163.105 L 109.926 159.108 C 109.882 157.883 110.339 156.965 111.149 156.154 C 111.96 155.344 112.878 154.887 114.103 154.931 Z M 192.576 165.786 C 191.864 166.51 191.337 167.71 191.337 168.824 C 191.337 169.938 191.864 171.137 192.577 171.861 C 193.291 172.586 194.483 173.126 195.587 173.126 C 196.692 173.126 197.884 172.586 198.597 171.86 C 199.31 171.136 199.836 169.937 199.836 168.824 C 199.836 167.71 199.31 166.511 198.598 165.787 C 197.884 165.061 196.692 164.52 195.587 164.52 C 194.483 164.52 193.29 165.061 192.576 165.786 Z M 193.24 155.425 C 192.528 156.148 192.001 157.347 192.001 158.461 C 192.001 159.575 192.528 160.774 193.24 161.499 C 193.953 162.224 195.146 162.765 196.25 162.765 C 197.355 162.765 198.547 162.224 199.261 161.499 C 199.973 160.774 200.5 159.575 200.5 158.461 C 200.5 157.347 199.973 156.148 199.261 155.425 C 198.547 154.699 197.354 154.159 196.25 154.159 C 195.146 154.159 193.954 154.699 193.24 155.425 Z M 148.855 163.395 C 148.143 164.12 147.616 165.319 147.616 166.433 C 147.616 167.547 148.143 168.746 148.855 169.469 C 149.569 170.194 150.762 170.735 151.866 170.735 C 152.97 170.735 154.162 170.194 154.876 169.469 C 155.588 168.746 156.115 167.547 156.115 166.433 C 156.115 165.319 155.588 164.12 154.876 163.395 C 154.163 162.67 152.97 162.129 151.866 162.129 C 150.761 162.129 149.569 162.67 148.855 163.395 Z M 185.656 157.137 C 183.835 155.496 180.998 154.295 177.889 153.966 L 172.963 153.482 C 169.855 153.198 166.736 153.803 164.434 155.022 C 162.1 156.258 160.329 158.379 159.85 160.672 C 159.524 163.011 160.525 165.476 162.379 167.146 C 164.201 168.787 167.037 169.987 170.147 170.317 L 175.073 170.801 C 178.181 171.085 181.3 170.48 183.602 169.261 C 185.936 168.024 187.706 165.904 188.185 163.611 C 188.512 161.272 187.511 158.808 185.656 157.137 Z M 149.519 153.034 C 148.807 153.758 148.28 154.957 148.28 156.071 C 148.28 157.185 148.807 158.384 149.519 159.108 C 150.232 159.834 151.425 160.375 152.529 160.375 C 153.634 160.375 154.826 159.834 155.54 159.108 C 156.252 158.384 156.779 157.185 156.779 156.071 C 156.779 154.957 156.252 153.758 155.54 153.034 C 154.826 152.309 153.634 151.768 152.529 151.768 C 151.425 151.768 150.232 152.309 149.519 153.034 Z M 109.735 154.74 C 108.672 155.803 107.97 157.474 107.926 159.108 L 107.926 163.105 C 107.97 164.739 108.672 166.41 109.735 167.473 C 110.798 168.536 112.469 169.238 114.103 169.282 L 133.942 169.282 C 135.576 169.238 137.247 168.536 138.31 167.473 C 139.373 166.41 140.075 164.739 140.119 163.105 L 140.119 159.108 C 140.075 157.474 139.373 155.803 138.31 154.74 C 137.247 153.677 135.576 152.975 133.942 152.931 L 114.103 152.931 C 112.469 152.975 110.798 153.677 109.735 154.74 Z M 99.191 163.395 C 98.477 162.669 97.284 162.129 96.18 162.129 C 95.076 162.129 93.884 162.669 93.17 163.395 C 92.458 164.119 91.931 165.318 91.931 166.432 C 91.931 167.546 92.458 168.745 93.17 169.469 C 93.883 170.194 95.076 170.735 96.18 170.735 C 97.285 170.735 98.477 170.194 99.191 169.469 C 99.903 168.745 100.43 167.546 100.43 166.432 C 100.43 165.318 99.903 164.119 99.191 163.395 Z M 98.527 153.035 C 97.813 152.309 96.621 151.768 95.516 151.768 C 94.411 151.768 93.219 152.309 92.505 153.035 C 91.793 153.759 91.266 154.958 91.266 156.072 C 91.266 157.186 91.793 158.385 92.505 159.108 C 93.219 159.834 94.412 160.374 95.516 160.374 C 96.621 160.374 97.813 159.834 98.526 159.108 C 99.239 158.384 99.765 157.186 99.765 156.072 C 99.765 154.959 99.239 153.759 98.527 153.035 Z M 62.389 157.138 C 60.534 158.808 59.533 161.272 59.86 163.612 C 60.339 165.905 62.109 168.026 64.443 169.261 C 66.745 170.48 69.864 171.085 72.972 170.802 L 77.899 170.318 C 81.008 169.989 83.845 168.788 85.666 167.147 C 87.521 165.476 88.521 163.012 88.195 160.673 C 87.716 158.381 85.945 156.259 83.611 155.023 C 81.309 153.804 78.19 153.199 75.082 153.483 L 70.156 153.967 C 67.047 154.296 64.21 155.497 62.389 157.138 Z M 55.47 165.785 C 54.757 165.06 53.564 164.518 52.459 164.518 C 51.355 164.518 50.162 165.06 49.449 165.785 C 48.737 166.51 48.21 167.709 48.21 168.823 C 48.21 169.937 48.737 171.136 49.449 171.86 C 50.162 172.585 51.355 173.126 52.459 173.126 C 53.564 173.126 54.757 172.585 55.47 171.86 C 56.183 171.136 56.709 169.936 56.709 168.823 C 56.709 167.709 56.183 166.51 55.47 165.785 Z M 54.806 155.426 C 54.092 154.701 52.9 154.16 51.795 154.16 C 50.69 154.16 49.498 154.701 48.784 155.426 C 48.072 156.15 47.545 157.349 47.545 158.463 C 47.545 159.577 48.072 160.776 48.784 161.499 C 49.498 162.224 50.691 162.765 51.795 162.765 C 52.899 162.765 54.092 162.224 54.806 161.499 C 55.518 160.776 56.045 159.577 56.045 158.463 C 56.045 157.349 55.518 156.15 54.806 155.426 Z M 217.662 183.437 C 219.779 183.969 221.257 184.995 222.248 186.232 C 223.95 188.357 223.866 191.062 223.804 193.032 C 223.743 194.96 222.9 196.691 220.951 198.083 C 219.686 198.988 217.955 199.75 215.67 200.331 C 147.211 188.991 78.465 192.831 32.573 200.278 C 29.872 199.548 28.138 198.75 27.009 197.899 C 24.874 196.29 24.54 194.493 24.287 192.611 C 24.032 190.712 24.464 188.751 25.608 186.992 C 26.5 185.622 27.952 184.391 30.103 183.463 C 30.454 183.412 30.807 183.355 31.164 183.296 C 31.565 183.665 32.049 184.01 32.604 184.312 L 32.877 184.461 L 33.207 184.412 C 43.531 182.898 55.705 181.98 66.395 181.152 C 80.87 180.249 95.455 179.985 110.031 179.83 L 137.995 179.83 C 146.71 179.83 165.099 180.102 181.631 181.173 C 198.08 182.237 214.879 184.415 214.879 184.415 L 215.216 184.458 L 215.49 184.299 C 216.076 183.959 216.578 183.58 216.984 183.179 C 217.426 183.345 217.662 183.437 217.662 183.437 Z M 219.283 155.728 L 200.133 162.322 L 215.257 175.087 L 214.841 177.086 C 210.562 176.547 196.354 174.828 182.26 173.915 C 165.485 172.829 147.054 172.568 137.995 172.568 L 110.026 172.568 C 95.257 172.615 80.495 173.065 65.768 173.915 L 65.451 173.933 L 65.776 173.933 C 55.553 174.723 43.687 175.591 33.198 177.053 L 32.789 175.088 L 47.913 162.322 L 28.763 155.729 L 28.588 154.887 C 39.186 153.546 51.306 152.693 62.035 151.922 C 77.616 151.019 93.307 150.455 108.975 150.3 L 139.049 150.3 C 148.416 150.3 168.198 150.872 185.989 151.943 C 199.895 152.779 214.034 154.303 219.452 154.918 L 219.283 155.728 Z M 28.815 157.862 L 43.931 163.066 L 31.515 173.546 L 30.232 170.478 L 26.638 166.019 L 28.74 160.665 L 28.815 157.862 Z M 97.765 156.072 C 97.765 156.783 97.564 157.234 97.101 157.706 C 96.639 158.174 96.206 158.374 95.516 158.374 C 94.825 158.374 94.393 158.174 93.931 157.706 C 93.467 157.234 93.266 156.782 93.266 156.072 C 93.266 155.362 93.467 154.909 93.931 154.437 C 94.393 153.967 94.826 153.768 95.516 153.768 C 96.206 153.768 96.638 153.967 97.101 154.437 C 97.564 154.909 97.765 155.361 97.765 156.072 Z M 98.43 166.432 C 98.43 167.142 98.229 167.595 97.765 168.066 C 97.303 168.536 96.87 168.735 96.18 168.735 C 95.49 168.735 95.058 168.536 94.596 168.066 C 94.132 167.595 93.931 167.142 93.931 166.432 C 93.931 165.721 94.132 165.269 94.596 164.796 C 95.058 164.328 95.49 164.129 96.18 164.129 C 96.871 164.129 97.303 164.328 97.765 164.798 C 98.229 165.269 98.43 165.721 98.43 166.432 Z M 54.045 158.463 C 54.045 159.173 53.844 159.625 53.38 160.097 C 52.918 160.566 52.486 160.765 51.795 160.765 C 51.104 160.765 50.672 160.566 50.21 160.097 C 49.746 159.625 49.545 159.173 49.545 158.463 C 49.545 157.753 49.746 157.299 50.21 156.829 C 50.672 156.359 51.105 156.16 51.795 156.16 C 52.485 156.16 52.918 156.359 53.38 156.829 C 53.844 157.299 54.045 157.753 54.045 158.463 Z M 54.709 168.823 C 54.709 169.534 54.508 169.986 54.045 170.457 C 53.582 170.927 53.15 171.126 52.459 171.126 C 51.769 171.126 51.337 170.927 50.875 170.457 C 50.411 169.986 50.21 169.533 50.21 168.823 C 50.21 168.112 50.411 167.659 50.875 167.188 C 51.337 166.718 51.769 166.519 52.459 166.519 C 53.15 166.519 53.582 166.718 54.045 167.188 C 54.508 167.659 54.709 168.112 54.709 168.823 Z M 186.215 163.263 C 185.971 165.07 184.686 166.424 182.666 167.492 C 180.615 168.579 178.081 169.109 175.269 168.811 L 170.343 168.327 C 167.532 168.074 165.302 167.087 163.718 165.659 C 162.167 164.263 161.423 162.781 161.82 161.02 C 162.065 159.213 163.349 157.86 165.369 156.79 C 167.421 155.704 169.955 155.174 172.767 155.472 L 177.693 155.956 C 180.504 156.209 182.734 157.196 184.318 158.623 C 185.869 160.02 186.612 161.503 186.215 163.263 Z M 216.531 173.545 L 204.115 163.066 L 219.231 157.861 L 219.304 160.579 L 221.546 165.914 L 217.801 170.51 L 216.531 173.545 Z M 152.529 153.768 C 153.219 153.768 153.652 153.967 154.114 154.437 C 154.578 154.908 154.779 155.361 154.779 156.071 C 154.779 156.782 154.578 157.234 154.114 157.706 C 153.652 158.176 153.219 158.375 152.529 158.375 C 151.839 158.375 151.407 158.176 150.945 157.706 C 150.481 157.234 150.28 156.782 150.28 156.071 C 150.28 155.361 150.481 154.908 150.945 154.437 C 151.407 153.967 151.839 153.768 152.529 153.768 Z M 151.866 164.129 C 152.556 164.129 152.988 164.328 153.45 164.798 C 153.914 165.269 154.115 165.722 154.115 166.433 C 154.115 167.143 153.914 167.595 153.451 168.067 C 152.988 168.536 152.556 168.735 151.866 168.735 C 151.175 168.735 150.743 168.536 150.281 168.067 C 149.817 167.595 149.616 167.143 149.616 166.433 C 149.616 165.722 149.817 165.269 150.281 164.798 C 150.743 164.328 151.176 164.129 151.866 164.129 Z M 196.25 156.159 C 196.941 156.159 197.373 156.358 197.835 156.826 C 198.299 157.299 198.5 157.751 198.5 158.461 C 198.5 159.172 198.299 159.625 197.835 160.096 C 197.373 160.566 196.94 160.765 196.25 160.765 C 195.56 160.765 195.128 160.566 194.666 160.096 C 194.202 159.625 194.001 159.172 194.001 158.461 C 194.001 157.751 194.202 157.299 194.666 156.826 C 195.128 156.358 195.56 156.159 196.25 156.159 Z M 195.587 166.52 C 196.277 166.52 196.709 166.719 197.172 167.189 C 197.635 167.66 197.836 168.113 197.836 168.824 C 197.836 169.534 197.635 169.987 197.172 170.458 C 196.71 170.927 196.277 171.126 195.587 171.126 C 194.897 171.126 194.464 170.927 194.002 170.457 C 193.538 169.986 193.337 169.534 193.337 168.824 C 193.337 168.113 193.538 167.661 194.002 167.189 C 194.465 166.719 194.897 166.52 195.587 166.52 Z M 70.352 155.957 L 75.278 155.472 C 78.09 155.175 80.624 155.705 82.676 156.791 C 84.696 157.86 85.98 159.215 86.225 161.021 C 86.622 162.781 85.878 164.264 84.327 165.661 C 82.743 167.088 80.514 168.075 77.703 168.328 L 72.776 168.812 C 69.964 169.11 67.43 168.58 65.379 167.494 C 63.358 166.424 62.074 165.07 61.83 163.264 C 61.433 161.503 62.176 160.021 63.727 158.624 C 65.311 157.197 67.541 156.21 70.352 155.957 Z M 126.476 110.193 C 125.792 109.48 125.042 109.133 123.983 109.133 C 122.92 109.133 122.134 109.489 121.408 110.21 C 120.68 110.932 120.264 111.734 120.28 112.824 C 120.21 113.909 120.582 114.694 121.267 115.408 C 121.951 116.121 122.7 116.468 123.759 116.468 C 124.822 116.468 125.608 116.112 126.334 115.391 C 127.062 114.668 127.479 113.866 127.463 112.776 C 127.533 111.692 127.161 110.907 126.476 110.193 Z M 17.188 121.797 C 16.504 121.084 15.754 120.737 14.695 120.737 C 13.632 120.737 12.846 121.093 12.12 121.814 C 11.392 122.537 10.975 123.338 10.991 124.429 C 10.922 125.513 11.293 126.298 11.979 127.012 C 12.663 127.725 13.412 128.072 14.471 128.072 C 15.534 128.072 16.32 127.716 17.046 126.995 C 17.774 126.273 18.191 125.471 18.175 124.381 C 18.245 123.296 17.873 122.511 17.188 121.797 Z M 235.764 121.797 C 235.08 121.084 234.331 120.737 233.272 120.737 C 232.209 120.737 231.423 121.093 230.696 121.814 C 229.968 122.536 229.552 123.339 229.568 124.429 C 229.498 125.513 229.87 126.298 230.555 127.012 C 231.239 127.725 231.989 128.072 233.048 128.072 C 234.111 128.072 234.897 127.716 235.623 126.995 C 236.351 126.273 236.767 125.471 236.751 124.381 C 236.821 123.296 236.449 122.511 235.764 121.797 Z M 65.196 112.99 C 64.512 112.278 63.762 111.931 62.703 111.931 C 61.64 111.931 60.854 112.287 60.128 113.008 C 59.4 113.73 58.983 114.532 58.999 115.622 C 58.929 116.706 59.301 117.491 59.986 118.205 C 60.67 118.918 61.42 119.265 62.479 119.265 C 63.542 119.265 64.328 118.909 65.054 118.188 C 65.782 117.466 66.199 116.664 66.183 115.574 C 66.253 114.489 65.881 113.704 65.196 112.99 Z M 187.485 113.081 C 186.801 112.369 186.051 112.022 184.992 112.022 C 183.929 112.022 183.143 112.378 182.417 113.099 C 181.689 113.821 181.272 114.623 181.288 115.713 C 181.218 116.797 181.59 117.582 182.275 118.296 C 182.959 119.009 183.709 119.356 184.768 119.356 C 185.831 119.356 186.617 119 187.343 118.279 C 188.071 117.557 188.488 116.755 188.472 115.665 C 188.542 114.58 188.17 113.795 187.485 113.081 Z M 123.146 129.812 C 117.629 135.627 111.341 140.363 104.619 141.647 C 99.764 142.62 94.211 142.596 89.195 142.321 C 84.458 142.082 80.713 140.717 76.366 138.608 C 72.627 136.807 65.54 131.468 65.54 131.468 L 64.749 130.872 L 64.147 131.657 C 61.25 135.429 55.312 140.74 51.815 142.669 C 47.469 145.155 42.362 145.111 37.63 144.855 C 31.382 144.614 24.827 139.165 18.971 131.827 C 18.211 130.892 17.662 130.113 17.18 129.351 C 17.66 129.09 18.095 128.772 18.455 128.415 C 18.808 128.065 19.12 127.642 19.379 127.173 C 19.613 127.476 19.854 127.785 20.103 128.1 C 23.543 132.458 28.435 137.736 36.75 140.299 C 42.115 141.823 51.533 139.154 54.769 135.72 C 59.927 129.917 60.917 125.299 61.491 121.165 C 61.818 121.23 62.149 121.265 62.479 121.265 C 62.891 121.265 63.308 121.211 63.717 121.112 C 64.94 123.014 66.976 125.324 71.77 129.6 C 75.678 133.055 81.199 136.935 91.023 138.33 C 98.479 139.313 108.596 136.996 114.819 131.604 C 119.302 127.617 121.477 123.739 123.29 118.445 C 123.446 118.46 123.603 118.468 123.759 118.468 C 123.987 118.468 124.216 118.452 124.444 118.42 C 126.259 123.727 128.434 127.61 132.925 131.604 C 139.148 136.996 149.264 139.313 156.72 138.33 C 166.544 136.935 172.065 133.055 175.973 129.6 C 180.625 125.45 182.681 123.152 183.916 121.282 C 184.199 121.33 184.484 121.356 184.768 121.356 C 185.262 121.356 185.764 121.278 186.249 121.139 C 186.822 125.279 187.805 129.905 192.973 135.72 C 196.209 139.154 205.628 141.823 210.993 140.299 C 219.308 137.736 224.2 132.458 227.64 128.1 C 227.866 127.814 228.085 127.533 228.299 127.257 C 228.527 127.685 228.801 128.073 229.112 128.397 C 229.468 128.768 229.908 129.099 230.399 129.367 C 224.312 138.109 217.365 144.583 210.113 144.855 C 205.381 145.111 200.273 145.155 195.928 142.669 C 192.431 140.74 186.492 135.429 183.596 131.657 L 182.994 130.872 L 182.203 131.468 C 182.203 131.468 175.116 136.807 171.377 138.608 C 167.03 140.717 163.285 142.082 158.548 142.321 C 153.531 142.596 147.979 142.62 143.125 141.647 C 136.402 140.363 130.114 135.627 124.596 129.812 L 123.871 129.048 Z M 224.446 127.264 C 224.155 127.046 223.621 126.949 223.313 126.984 C 222.81 127.04 222.17 127.344 221.652 127.647 C 220.637 128.24 219.603 129.046 219.029 129.245 C 217.814 129.793 217.568 129.583 217.062 129.544 C 217.062 129.544 216.608 128.423 217.179 127.488 C 217.595 126.533 219.2 124.903 219.2 124.903 L 219.973 124.118 L 219.113 123.436 C 219.113 123.436 217.343 122.033 216.89 121.133 C 216.09 119.751 215.898 117.732 215.765 116.753 C 216.559 115.88 218.39 113.771 220.201 112.586 C 221.199 111.896 223.309 111.284 223.309 111.284 L 224.166 111.035 L 224.009 110.17 C 224.009 110.17 223.567 107.745 223.967 106.758 C 224.156 106.028 224.453 105.907 224.819 105.515 C 225.408 106.143 225.985 106.629 226.559 107.699 C 227.163 108.694 227.26 110.064 227.802 111.476 L 229.935 116.808 L 230.547 116.646 C 230.957 116.537 231.497 116.244 231.671 115.966 C 231.805 115.751 231.937 115.416 232.02 115.114 C 232.176 114.551 232.296 113.738 232.357 112.862 C 232.478 111.137 232.403 108.843 232.051 106.782 C 231.731 104.933 230.939 100.851 230.167 99.031 C 230.007 98.788 230.094 98.1 230.211 97.279 C 230.327 96.468 230.29 96.709 230.315 96.51 C 231.087 96.632 232.025 96.696 232.372 97.081 C 232.847 97.476 233.625 98.209 233.625 98.209 L 234.256 98.803 L 234.925 98.269 C 234.925 98.269 238.816 95.163 240.32 94.962 C 242.039 94.611 243.843 95.207 245.12 96.35 C 245.739 96.905 246.069 97.411 246.201 98.117 C 246.293 98.612 246.303 99.037 246.105 99.535 C 246.055 99.266 245.978 99.015 245.864 98.807 C 244.931 97.886 243.214 97.611 242.163 97.796 L 242.039 97.818 L 241.914 97.88 C 239.171 99.235 236.518 101.436 235.773 104.468 C 234.733 109.64 235.075 114.789 234.867 118.993 C 234.35 118.829 233.808 118.737 233.272 118.737 C 231.798 118.737 230.263 119.426 229.287 120.394 C 228.313 121.362 227.646 122.893 227.568 124.381 C 227.569 124.553 227.578 124.726 227.594 124.899 C 227.106 125.531 226.601 126.19 226.071 126.861 C 225.727 127.297 225.372 127.74 225.005 128.186 C 224.897 127.841 224.686 127.443 224.446 127.264 Z M 11.969 104.467 C 11.224 101.435 8.571 99.234 5.828 97.879 L 5.703 97.817 L 5.579 97.795 C 4.5280000000000005 97.61 2.811 97.885 1.8780000000000001 98.807 C 1.767 99.008 1.6909999999999998 99.251 1.641 99.512 C 1.457 99.024 1.453 98.591 1.542 98.116 C 1.674 97.41 2.003 96.904 2.622 96.35 C 3.899 95.206 5.704 94.61 7.423 94.961 C 8.926 95.162 12.818 98.269 12.818 98.269 L 13.487 98.803 L 14.118 98.208 C 14.118 98.208 14.895 97.476 15.371 97.08 C 15.718 96.694 16.656 96.631 17.429 96.509 C 17.453 96.708 17.415 96.467 17.531 97.278 C 17.648 98.099 17.735 98.787 17.575 99.03 C 16.804 100.849 16.011 104.931 15.692 106.781 C 15.34 108.842 15.264 111.136 15.385 112.862 C 15.447 113.738 15.566 114.551 15.722 115.114 C 15.806000000000001 115.416 15.937 115.752 16.072 115.966 C 16.246 116.244 16.787 116.537 17.196 116.646 L 17.808 116.808 L 19.94 111.475 C 20.482 110.063 20.579 108.692 21.184 107.697 C 21.757 106.628 22.334 106.142 22.923000000000002 105.514 C 23.289 105.906 23.586 106.027 23.776 106.758 C 24.176 107.745 23.734 110.17 23.734 110.17 L 23.577 111.035 L 24.434 111.284 C 24.434 111.284 26.543 111.896 27.541 112.586 C 29.353 113.771 31.183 115.879 31.977 116.752 C 31.844 117.731 31.652 119.751 30.851 121.133 C 30.399 122.033 28.629 123.437 28.629 123.437 L 27.769 124.119 L 28.542 124.903 C 28.542 124.903 30.146 126.532 30.563 127.487 C 31.134 128.422 30.811 128.951 30.68 129.544 C 30.174 129.583 29.928 129.793 28.714 129.245 C 28.14 129.045 27.106 128.239 26.091 127.646 C 25.572 127.343 24.932 127.039 24.429 126.983 C 24.122 126.948 23.587 127.045 23.296 127.263 C 23.057 127.442 22.845 127.84 22.737 128.185 C 22.37 127.739 22.016 127.297 21.672 126.861 C 21.137 126.183 20.627 125.517 20.134 124.879 C 20.153 124.729 20.167 124.579 20.175 124.429 C 20.167 122.936 19.567 121.387 18.631 120.412 C 17.693 119.435 16.172 118.737 14.695 118.737 C 14.086 118.737 13.466 118.855 12.879 119.062 C 12.664 114.844 13.016 109.668 11.969 104.467 Z M 30.778 72.86 C 40.839 67.413 63.779 63.468 63.779 63.468 C 63.779 63.468 73.584 57.887 82.625 53.671 C 84.166 55.517 86.216 57.04 88.373 57.704 C 92.682 58.77 96.41 56.369 96.41 56.369 C 96.275 57.009 96.418 56.577 95.934 58.393 C 95.374 60.701 96.186 65.11 96.186 65.11 L 96.4 66.277 L 97.517 65.855 C 97.517 65.855 99.381 65.15 101.164 64.81 C 103.877 64.13 105.88 61.408 107.483 58.69 C 109.086 55.975 110.43 53.245 112.332 52.142 C 112.777 51.741 112.819 51.937 113.158 51.926 L 112.707 53.465 C 112.38 54.859 111.13 55.854 109.729 57.083 C 108.327 58.313 106.773 59.775 106.136 61.633 C 105.704 63.825 108.094 67.175 108.094 67.175 L 108.339 67.519 L 108.794 67.55 C 108.794 67.55 111.95 67.765 113.514 67.242 C 114.998 66.696 115.429 66.442 116.227 66.064 C 116.558 67.152 116.756 68.2 117.624 69.558 C 119.794 72.436 123.623 72.73 123.623 72.73 C 123.623 72.73 127.495 72.436 129.664 69.558 C 130.532 68.2 130.73 67.152 131.061 66.064 C 131.859 66.442 132.289 66.696 133.775 67.242 C 135.339 67.765 138.495 67.55 138.495 67.55 L 138.95 67.519 L 139.195 67.175 C 139.195 67.175 141.585 63.825 141.153 61.633 C 140.516 59.775 138.962 58.313 137.56 57.083 C 136.159 55.854 134.909 54.858 134.582 53.465 L 134.13 51.926 C 134.47 51.937 134.512 51.741 134.957 52.142 C 136.859 53.245 138.203 55.975 139.806 58.69 C 141.409 61.408 143.412 64.13 146.124 64.81 C 147.908 65.15 149.772 65.855 149.772 65.855 L 150.889 66.277 L 151.103 65.11 C 151.103 65.11 151.915 60.702 151.355 58.394 C 150.871 56.578 151.014 57.009 150.878 56.369 C 152.9 57.269 154.606 58.77 158.916 57.704 C 161.073 57.04 163.123 55.517 164.664 53.671 C 173.705 57.887 183.51 63.468 183.51 63.468 C 183.51 63.468 206.45 67.413 216.511 72.86 C 225.212 77.57 235.293 85.552 236.816 94.461 C 235.87 95.072 235.005 95.734 234.381 96.185 C 234.14 95.967 234.173 95.98 233.653 95.545 C 232.812 94.939 229.785 94.415 229.785 94.415 L 229.197 94.313 L 228.929 94.699 C 228.704 95.023 228.362 96.077 228.231 96.996 C 228.101 97.906 228.089 99.133 228.331 99.823 C 229.039 101.433 229.763 105.291 230.081 107.124 C 230.405 108.967 230.471 110.932 230.375 112.524 L 229.658 110.733 C 229.184 109.606 229.033 108.12 228.306 106.725 C 227.565 105.435 225.543 103.39 225.543 103.39 L 224.846 102.685 L 224.153 103.369 C 224.153 103.369 222.526 104.974 222.075 106.109 C 221.633 107.577 221.858 108.661 221.942 109.635 C 221.136 109.921 220.357 110.106 219.093 110.922 C 217.088 112.275 213.968 115.761 213.968 115.761 L 213.665 116.1 L 213.723 116.545 C 213.723 116.545 214.22 120.352 215.137 122.096 C 215.833 123.288 216.424 123.686 217.069 124.288 C 216.497 124.953 215.969 125.417 215.367 126.642 C 214.74 128.275 215.312 130.714 215.312 130.714 L 215.455 131.324 L 216.084 131.42 C 216.084 131.42 217.984 131.709 219.747 131.112 C 220.565 130.777 221.748 129.907 222.661 129.374 C 222.852 129.262 223.008 129.175 223.137 129.112 L 223.288 130.168 C 220.252 133.475 216.31 136.676 210.419 138.383 C 205.614 139.903 197.221 137.518 194.451 134.372 C 191.788 131.539 190.276 128.386 189.331 125.306 L 189.302 125.064 C 189.233 124.474 189.182 124.078 189.258 123.793 C 189.984 124.513 191.442 125.942 192.518 126.88 C 193.606 127.823 194.641 128.522 195.688 128.74 C 196.747 128.962 197.979 128.693 199.315 128.08 L 199.802 127.856 L 199.874 127.345 C 199.874 127.345 200.234 124.812 199.78 123.501 C 199.438 122.663 199.499 122.783 199.375 122.445 C 199.904 122.283 199.809 122.13 201.475 122.108 C 203.16 121.882 204.724 120.27 205.794 119.258 C 206.947 118.121 207.711 116.682 207.831 116.475 C 207.901 116.386 207.968 116.276 207.992 116.221 C 208.028 116.135 208.057 115.995 208.066 115.946 C 208.069 115.89 208.074 115.725 208.053 115.619 C 208.042 115.569 208.01 115.481 207.968 115.392 L 207.968 115.391 C 207.959 115.405 207.599 113.913 206.63 112.627 C 205.82 111.631 204.487 109.831 202.767 109.54 C 201.139 109.528 201.499 109.423 201.045 109.294 C 201.241 108.975 201.11 109.16 201.662 108.315 C 202.419 107.04 202.661 104.545 202.661 104.545 L 202.716 103.982 L 202.282 103.687 C 202.282 103.687 201.144 102.912 199.927 102.767 C 197.835 102.853 196.727 103.812 195.201 104.651 C 194.837 104.857 194.44 105.077 194.036 105.298 C 195.015 103.865 196.091 102.268 196.726 101.234 C 197.935 99.264 199.43 96.578 199.69 94.179 C 199.768 92.771 199.078 90.72 199.078 90.72 L 198.862 90.08 L 198.2 90.061 C 198.2 90.061 195.594 89.988 194.147 90.764 C 193.204 91.337 193.483 91.158 193.156 91.344 C 193.084 90.689 192.917 91.027 193.153 88.839 C 193.272 86.918 192.499 84.96 191.505 83.602 C 190.142 82.031 188.606 81.702 188.069 81.448 L 187.67 81.258 L 187.275 81.447 C 186.826 81.661 185.128 81.979 183.48 83.496 C 182.177 84.824 180.968 86.714 180.635 88.596 C 180.328 90.807 180.163 90.736 179.901 91.423 C 179.604 91.227 179.788 91.373 178.995 90.805 C 177.688 90.008 175.017 90.061 175.017 90.061 L 174.498 90.071 L 174.223 90.541 C 174.223 90.541 173.045 92.56 172.793 93.936 C 172.47 96.365 173.315 99.084 174.044 101.057 C 174.469 102.208 175.265 104.045 175.944 105.584 C 175.457 105.281 174.968 104.97 174.536 104.686 C 173.223 103.845 171.106 101.65 168.983 101.548 C 167.822 101.65 166.058 102.573 166.058 102.573 L 165.628 102.798 L 165.56 103.276 C 165.56 103.276 165.199 105.808 165.652 107.118 C 165.996 107.957 165.935 107.837 166.059 108.175 C 165.529 108.337 165.625 108.49 163.959 108.512 C 162.274 108.738 160.591 110.49 159.521 111.502 C 158.348 112.665 157.658 114.036 157.569 114.192 C 157.517 114.262 157.471 114.335 157.452 114.378 C 157.41 114.469 157.378 114.62 157.368 114.674 C 157.365 114.725 157.359 114.877 157.376 114.975 C 157.388 115.041 157.437 115.178 157.498 115.295 C 157.558 115.474 157.984 116.943 158.889 118.134 C 159.698 119.129 160.947 120.789 162.666 121.081 C 164.295 121.092 163.935 121.198 164.389 121.326 C 164.193 121.645 164.324 121.46 163.772 122.305 C 163.015 123.58 162.773 126.075 162.773 126.075 L 162.714 126.682 L 163.227 126.987 C 163.227 126.987 164.808 127.926 165.987 128.045 C 167.947 128.059 170.277 126.908 171.935 125.969 C 173.834 124.894 176.897 123.104 177.723 122.623 C 177.993 122.609 178.311 122.533 178.439 122.752 C 178.809 122.851 178.842 123.775 178.841 124.112 C 177.687 125.324 176.308 126.643 174.647 128.102 C 170.821 131.493 165.828 135.131 156.45 136.348 C 149.35 137.347 140.028 135.27 134.245 130.102 C 131.71 127.896 129.719 125.262 128.136 122.111 C 128.235 121.611 128.469 120.734 128.915 120.565 C 129.191 120.284 129.926 120.368 129.926 120.368 C 130.913 121.248 134.038 124.092 136.203 125.382 C 138.028 126.458 140.584 127.773 142.873 127.752 C 144.208 127.641 146.138 126.588 146.138 126.588 L 146.621 126.325 L 146.635 125.775 C 146.635 125.775 146.708 122.919 145.997 121.465 C 145.466 120.497 145.525 120.575 145.32 120.167 C 145.933 119.977 145.819 119.796 147.81 119.767 C 149.748 119.51 151.344 117.666 152.461 116.506 C 153.662 115.2 154.36 113.55 154.473 113.309 C 154.48 113.3 154.486 113.29 154.493 113.28 L 154.744 112.756 L 154.519 112.179 C 154.515 112.173 154.512 112.168 154.508 112.162 C 154.426 111.985 153.806 110.41 152.581 109.07 C 151.464 107.91 149.748 105.906 147.81 105.649 C 145.819 105.619 145.933 105.439 145.32 105.25 C 145.525 104.841 145.465 104.921 145.997 103.951 C 146.708 102.498 146.635 99.641 146.635 99.641 L 146.621 99.091 L 146.138 98.828 C 146.138 98.828 144.208 97.776 142.874 97.664 C 140.585 97.644 138.028 98.957 136.203 100.035 C 135.556 100.417 134.811 100.84 134.091 101.241 C 134.134 101.166 134.177 101.091 134.221 101.016 C 135.247 99.251 136.454 97.146 137.121 95.832 C 138.266 93.573 139.646 90.499 139.606 87.755 C 139.506 86.18 138.404 83.868 138.404 83.868 L 138.149 83.333 L 137.569 83.316 C 137.569 83.316 134.513 83.226 132.948 84.111 C 131.915 84.769 132.011 84.688 131.579 84.941 C 131.363 84.15 131.146 84.17 131.101 81.631 C 130.979 79.475 129.819 77.308 128.468 75.782 C 126.752 74.045 124.789 73.679 124.275 73.43 L 123.898 73.248 L 123.501 73.416 C 122.787 73.718 120.997 74.044 119.274 75.782 C 117.924 77.307 116.764 79.475 116.642 81.631 C 116.597 84.17 116.38 84.15 116.164 84.941 C 115.732 84.688 115.828 84.769 114.796 84.111 C 113.231 83.226 110.174 83.316 110.174 83.316 L 109.594 83.333 L 109.339 83.868 C 109.339 83.868 108.237 86.179 108.137 87.754 C 108.097 90.498 109.477 93.573 110.622 95.832 C 111.289 97.146 112.496 99.251 113.522 101.016 C 113.566 101.091 113.609 101.166 113.653 101.241 C 112.932 100.84 112.187 100.417 111.54 100.035 C 109.714 98.957 107.159 97.643 104.87 97.664 C 103.535 97.776 101.605 98.828 101.605 98.828 L 101.122 99.091 L 101.108 99.641 C 101.108 99.641 101.035 102.497 101.746 103.951 C 102.277 104.92 102.217 104.841 102.422 105.25 C 101.81 105.439 101.924 105.62 99.933 105.649 C 97.995 105.906 96.279 107.91 95.162 109.07 C 93.937 110.41 93.317 111.985 93.235 112.162 C 93.232 112.168 93.228 112.173 93.224 112.179 L 92.892 112.792 L 93.25 113.28 C 93.257 113.29 93.263 113.3 93.27 113.309 C 93.383 113.55 94.081 115.2 95.282 116.506 C 96.399 117.666 97.994 119.51 99.933 119.767 C 101.924 119.796 101.81 119.977 102.423 120.167 C 102.217 120.575 102.277 120.496 101.746 121.465 C 101.035 122.919 101.108 125.775 101.108 125.775 L 101.122 126.324 L 101.605 126.588 C 101.605 126.588 103.534 127.641 104.87 127.752 C 107.159 127.773 109.715 126.459 111.54 125.382 C 113.705 124.092 116.831 121.248 117.817 120.368 C 118.169 120.364 118.552 120.283 118.828 120.565 C 119.361 120.741 119.486 121.947 119.511 122.3 C 117.944 125.367 115.983 127.94 113.498 130.102 C 107.714 135.27 98.393 137.347 91.293 136.348 C 81.915 135.131 76.922 131.493 73.096 128.102 C 71.469 126.673 70.113 125.378 68.974 124.187 C 68.969 123.95 68.97 122.861 69.374 122.752 C 69.503 122.534 69.82 122.609 70.09 122.623 C 70.917 123.104 73.98 124.893 75.878 125.969 C 77.536 126.907 79.866 128.059 81.827 128.045 C 83.006 127.926 84.587 126.987 84.587 126.987 L 85.1 126.682 L 85.041 126.075 C 85.041 126.075 84.799 123.58 84.042 122.305 C 83.49 121.46 83.62 121.644 83.425 121.326 C 83.879 121.197 83.519 121.091 85.147 121.08 C 86.867 120.789 88.116 119.129 88.925 118.133 C 89.833 116.937 90.259 115.462 90.315 115.296 C 90.377 115.178 90.426 115.042 90.437 114.976 C 90.455 114.877 90.452 114.725 90.446 114.674 C 90.439 114.62 90.404 114.47 90.363 114.38 C 90.344 114.337 90.298 114.264 90.246 114.192 C 90.154 114.032 89.465 112.664 88.292 111.502 C 87.223 110.489 85.54 108.737 83.855 108.512 C 82.189 108.49 82.284 108.337 81.755 108.175 C 81.879 107.837 81.818 107.957 82.161 107.118 C 82.615 105.807 82.254 103.275 82.254 103.275 L 82.186 102.797 L 81.756 102.572 C 81.756 102.572 79.993 101.649 78.831 101.548 C 76.708 101.649 74.591 103.845 73.278 104.686 C 72.846 104.97 72.356 105.281 71.87 105.584 C 72.548 104.045 73.344 102.207 73.77 101.056 C 74.499 99.083 75.344 96.365 75.021 93.936 C 74.769 92.56 73.59 90.541 73.59 90.541 L 73.316 90.071 L 72.797 90.061 C 72.797 90.061 70.125 90.008 68.82 90.803 C 68.026 91.373 68.21 91.227 67.913 91.422 C 67.651 90.735 67.486 90.807 67.179 88.596 C 66.846 86.714 65.636 84.824 64.335 83.496 C 62.687 81.979 60.988 81.661 60.539 81.447 L 60.145 81.259 L 59.747 81.447 C 59.208 81.701 57.672 82.031 56.31 83.601 C 55.316 84.959 54.541 86.918 54.661 88.839 C 54.897 91.027 54.73 90.689 54.658 91.343 C 54.332 91.158 54.609 91.338 53.667 90.763 C 52.22 89.988 49.614 90.061 49.614 90.061 L 48.952 90.08 L 48.736 90.72 C 48.736 90.72 48.046 92.77 48.124 94.178 C 48.384 96.578 49.879 99.263 51.087 101.233 C 51.722 102.267 52.799 103.865 53.779 105.298 C 53.374 105.077 52.977 104.857 52.613 104.651 C 51.086 103.812 49.979 102.853 47.887 102.767 C 46.671 102.912 45.532 103.686 45.532 103.686 L 45.097 103.982 L 45.152 104.545 C 45.152 104.545 45.395 107.041 46.152 108.314 C 46.704 109.16 46.573 108.975 46.769 109.293 C 46.315 109.422 46.675 109.528 45.047 109.539 C 43.328 109.83 41.993 111.631 41.184 112.626 C 40.219 113.907 39.858 115.392 39.847 115.388 L 39.848 115.389 C 39.805 115.478 39.773 115.565 39.762 115.615 C 39.74 115.722 39.745 115.888 39.748 115.944 C 39.757 115.993 39.785 116.13 39.82 116.214 C 39.843 116.27 39.912 116.385 39.983 116.474 C 40.109 116.693 40.872 118.125 42.02 119.257 C 43.089 120.269 44.654 121.882 46.339 122.108 C 48.005 122.13 47.909 122.283 48.439 122.445 C 48.315 122.783 48.376 122.662 48.033 123.5 C 47.58 124.811 47.94 127.344 47.94 127.344 L 48.012 127.855 L 48.499 128.079 C 49.834 128.693 51.067 128.961 52.125 128.74 C 53.173 128.522 54.207 127.823 55.296 126.88 C 56.372 125.942 57.83 124.512 58.555 123.793 C 58.625 124.054 58.588 124.409 58.528 124.922 C 57.591 128.123 56.066 131.421 53.293 134.372 C 50.521 137.518 42.129 139.903 37.324 138.383 C 31.433 136.676 27.49 133.475 24.454 130.166 L 24.605 129.111 C 24.734 129.174 24.89 129.261 25.082 129.373 C 25.995 129.906 27.178 130.776 27.996 131.111 C 29.758 131.709 31.658 131.42 31.658 131.42 L 32.287 131.324 L 32.43 130.714 C 32.43 130.714 33.002 128.274 32.375 126.641 C 31.774 125.416 31.245 124.952 30.673 124.288 C 31.317 123.686 31.909 123.287 32.605 122.095 C 33.522 120.351 34.019 116.544 34.019 116.544 L 34.077 116.099 L 33.774 115.76 C 33.774 115.76 30.655 112.275 28.649 110.92 C 27.385 110.106 26.607 109.921 25.801 109.635 C 25.885 108.661 26.11 107.576 25.668 106.108 C 25.216 104.973 23.589 103.368 23.589 103.368 L 22.896 102.684 L 22.199 103.389 C 22.199 103.389 20.177 105.434 19.436 106.724 C 18.709 108.119 18.558 109.605 18.084 110.733 L 17.367 112.524 C 17.271 110.932 17.338 108.967 17.662 107.123 C 17.979 105.291 18.704 101.433 19.411 99.822 C 19.653 99.132 19.641 97.905 19.511 96.995 C 19.38 96.077 19.037 95.022 18.811 94.697 L 18.544 94.313 L 17.957 94.415 C 17.957 94.415 14.93 94.938 14.089 95.544 C 13.569 95.98 13.602 95.967 13.362 96.185 C 12.95 95.887 12.433 95.497 11.857 95.091 C 14.837 86.036 23.214 76.954 30.778 72.86 Z M 218.513 147.44 C 216.61 147.229 214.242 146.975 211.544 146.702 C 214.508 146.23 217.432 144.88 220.259 142.884 Z M 186.886 144.663 C 179.214 144.201 171.219 143.833 163.806 143.563 C 166.701 142.875 169.41 141.782 172.249 140.408 C 176.152 138.507 180.65 135.092 182.626 133.642 C 185.818 137.48 191.279 142.36 194.956 144.417 C 195.641 144.787 196.342 145.107 197.055 145.382 C 193.741 145.116 190.311 144.869 186.886 144.663 Z M 138.992 143.006 L 108.724 143.006 C 108.261 143.007 107.798 143.009 107.335 143.012 C 113.502 141.116 118.979 136.92 123.871 131.939 C 128.762 136.918 134.237 141.112 140.399 143.01 C 139.91 143.007 139.44 143.006 138.992 143.006 Z M 60.835 144.662 L 60.535 144.679 L 60.532 144.681 L 60.835 144.681 C 57.542 144.918 54.093 145.162 50.573 145.426 C 51.325 145.141 52.065 144.807 52.787 144.417 C 56.464 142.36 61.924 137.48 65.117 133.642 C 67.093 135.092 71.591 138.507 75.494 140.408 C 78.334 141.782 81.044 142.876 83.939 143.563 C 76.229 143.861 68.527 144.25 60.835 144.662 Z M 28.683 147.438 L 26.433 142.066 C 29.569 144.432 32.804 146.082 35.971 146.658 C 33.51 146.898 31.071 147.156 28.683 147.438 Z M 179.621 121.139 C 178.887 120.727 177.394 120.648 177.394 120.648 L 177.159 120.636 L 176.905 120.784 C 176.905 120.784 172.836 123.16 170.949 124.229 C 169.319 125.154 167.523 126.175 166.071 126.047 C 165.392 126.088 165.186 125.836 164.815 125.625 C 164.886 124.964 164.849 124.198 165.446 123.399 C 166.024 122.514 166.716 121.337 166.716 121.337 L 167.266 120.403 L 166.315 119.943 C 166.315 119.943 164.793 119.206 162.74 119.083 C 161.843 119.279 161.336 117.989 160.445 116.878 C 159.726 116.058 159.631 115.548 159.475 115.033 L 159.621 114.862 L 159.528 114.727 C 159.764 114.266 159.994 113.769 160.899 112.952 C 162.045 111.858 163.076 110.38 164.031 110.51 C 166.081 110.398 167.748 109.67 167.748 109.67 L 168.575 109.309 L 168.275 108.437 C 168.275 108.437 167.868 107.255 167.504 106.362 C 167.111 105.6 167.349 104.725 167.447 104.089 C 167.894 103.856 168.35 103.522 169.065 103.546 C 170.39 103.302 171.916 105.333 173.436 106.356 C 174.263 106.9 175.298 107.542 176.122 108.036 C 176.535 108.285 176.905 108.502 177.171 108.653 C 177.306 108.729 177.427 108.796 177.512 108.84 C 177.559 108.864 177.619 108.894 177.66 108.912 C 177.69 108.925 177.758 108.95 177.803 108.964 C 177.843 108.975 177.948 108.997 178.016 109.002 C 178.151 109.012 178.619 108.902 178.818 108.692 C 179.057 108.44 179.092 107.903 179.074 107.811 C 179.067 107.771 179.05 107.711 179.043 107.686 C 179.033 107.655 179.016 107.61 179.005 107.58 C 178.986 107.53 178.956 107.458 178.923 107.381 C 178.86 107.231 178.766 107.018 178.653 106.761 C 178.427 106.25 178.115 105.551 177.777 104.784 C 177.1 103.25 176.325 101.465 175.92 100.365 C 175.203 98.422 174.408 96.203 174.769 94.244 C 174.889 93.232 175.355 92.581 175.673 92.019 C 175.673 92.019 177.168 91.82 177.832 92.432 C 178.68 93.037 179.817 93.744 179.817 93.744 L 180.746 94.322 L 181.232 93.354 C 181.232 93.354 182.204 91.417 182.613 88.896 C 182.79 87.416 183.721 86.08 184.9 84.904 C 185.974 83.673 186.908 83.635 187.664 83.416 C 188.418 83.642 189.214 83.621 189.901 84.798 C 190.775 85.944 191.354 87.212 191.161 88.654 C 190.957 91.197 191.458 93.157 191.458 93.157 L 191.772 94.382 L 192.898 93.774 C 192.898 93.774 194.199 93.072 195.187 92.472 C 196.052 91.84 196.74 92.013 197.408 92.022 C 197.579 92.584 197.832 93.021 197.698 94.001 C 197.568 95.99 196.217 98.242 195.022 100.188 C 194.343 101.295 193.127 103.088 192.074 104.623 C 191.548 105.39 191.066 106.089 190.715 106.6 C 190.54 106.855 190.395 107.068 190.296 107.216 C 190.245 107.292 190.2 107.36 190.17 107.407 C 190.153 107.434 190.13 107.472 190.116 107.499 C 190.104 107.519 190.079 107.567 190.065 107.6 C 190.031 107.679 190.087 108.165 190.164 108.574 C 190.473 108.78 190.915 109.012 191.056 109.002 C 191.12 108.998 191.218 108.978 191.253 108.968 C 191.294 108.957 191.355 108.936 191.383 108.925 C 191.423 108.909 191.482 108.884 191.532 108.861 C 191.624 108.818 191.756 108.754 191.908 108.678 C 192.209 108.528 192.629 108.313 193.102 108.065 C 194.045 107.571 195.231 106.933 196.187 106.391 C 197.949 105.366 198.522 104.537 199.843 104.765 C 200.484 104.698 200.41 104.834 200.624 104.952 C 200.555 105.609 200.585 106.422 199.988 107.221 C 199.41 108.106 198.718 109.283 198.718 109.283 L 198.169 110.217 L 199.119 110.677 C 199.119 110.677 200.642 111.414 202.695 111.538 C 203.591 111.342 204.182 112.771 205.074 113.883 C 205.766 114.664 205.838 115.095 205.959 115.545 L 205.824 115.688 L 205.916 115.841 C 205.72 116.193 205.288 117.015 204.416 117.808 C 203.269 118.902 202.358 120.24 201.403 120.11 C 199.353 120.223 197.686 120.95 197.686 120.95 L 196.859 121.311 L 197.159 122.183 C 197.159 122.183 197.567 123.366 197.93 124.259 C 198.324 125.02 198.09 125.846 197.994 126.487 C 196.88 127.027 196.763 126.922 196.097 126.783 C 195.419 126.641 194.822 126.239 193.832 125.372 C 192.396 124.124 190.23 121.938 190.23 121.938 L 189.888 121.593 L 189.439 121.645 C 189.111 121.683 188.765 121.773 188.476 121.898 C 188.359 121.324 188.255 120.758 188.16 120.202 C 188.374 120.046 188.572 119.877 188.752 119.699 C 189.727 118.732 190.394 117.2 190.472 115.713 C 190.464 114.22 189.864 112.671 188.928 111.696 C 187.99 110.72 186.469 110.022 184.992 110.022 C 183.519 110.022 181.984 110.711 181.008 111.679 C 180.034 112.646 179.366 114.177 179.288 115.665 C 179.296 117.158 179.896 118.706 180.832 119.681 C 181.127 119.988 181.48 120.268 181.871 120.507 C 181.442 121.104 180.957 121.724 180.406 122.374 C 180.331 122.035 180.235 121.741 179.621 121.139 Z M 119.92 118.889 C 119.083 118.446 117.399 118.386 117.399 118.386 L 117.04 118.373 L 116.742 118.646 C 116.742 118.646 112.525 122.49 110.524 123.66 C 108.727 124.719 106.719 125.897 104.95 125.754 C 104.076 125.777 103.584 125.396 103.079 125.126 C 103.06 124.382 102.911 123.347 103.5 122.425 C 104.055 121.409 104.704 120.06 104.704 120.06 L 105.149 119.136 L 104.232 118.724 C 104.232 118.724 102.388 117.894 100.003 117.769 C 98.834 117.916 97.925 116.378 96.726 115.122 C 95.721 114.128 95.484 113.447 95.219 112.841 L 95.345 112.672 L 95.225 112.529 C 95.443 111.99 95.635 111.408 96.606 110.454 C 97.805 109.198 98.833 107.5 100.003 107.647 C 102.388 107.522 104.231 106.694 104.231 106.694 L 105.149 106.281 L 104.704 105.357 C 104.704 105.357 104.055 104.007 103.5 102.991 C 102.911 102.069 103.06 101.035 103.079 100.29 C 103.079 100.29 104.076 99.64 104.95 99.662 C 106.72 99.52 108.728 100.697 110.524 101.757 C 111.576 102.378 112.886 103.109 113.931 103.675 C 114.454 103.959 114.919 104.206 115.253 104.378 C 115.422 104.465 115.569 104.539 115.671 104.587 C 115.727 104.613 115.792 104.642 115.836 104.66 C 115.867 104.672 115.931 104.695 115.975 104.707 C 116.013 104.717 116.113 104.736 116.178 104.741 C 116.312 104.75 116.813 104.624 117.013 104.386 C 117.252 104.102 117.227 103.517 117.199 103.429 C 117.187 103.391 117.164 103.334 117.153 103.311 C 117.139 103.28 117.117 103.236 117.101 103.205 C 117.072 103.15 117.029 103.072 116.98 102.985 C 116.884 102.814 116.743 102.571 116.573 102.277 C 116.232 101.692 115.762 100.89 115.251 100.011 C 114.228 98.251 113.049 96.197 112.406 94.928 C 111.275 92.697 110.001 90.11 110.135 87.824 C 110.131 86.661 110.583 85.925 110.879 85.278 C 111.667 85.254 112.754 85.068 113.721 85.798 C 114.802 86.485 116.239 87.29 116.239 87.29 L 117.239 87.85 L 117.653 86.795 C 117.653 86.795 118.523 84.578 118.642 81.691 C 118.636 79.993 119.542 78.463 120.764 77.116 C 121.863 75.704 122.938 75.675 123.871 75.397 C 124.656 75.722 125.874 75.703 126.978 77.116 C 128.201 78.463 129.107 79.993 129.101 81.691 C 129.22 84.578 130.09 86.795 130.09 86.795 L 130.504 87.85 L 131.504 87.29 C 131.504 87.29 132.941 86.485 134.023 85.797 C 134.99 85.068 136.076 85.254 136.865 85.278 C 136.865 85.278 137.612 86.66 137.608 87.824 C 137.741 90.11 136.468 92.697 135.337 94.928 C 134.694 96.197 133.515 98.251 132.492 100.011 C 131.981 100.89 131.511 101.692 131.17 102.277 C 131 102.571 130.859 102.814 130.763 102.985 C 130.714 103.072 130.671 103.15 130.642 103.205 C 130.626 103.236 130.604 103.28 130.59 103.311 C 130.579 103.334 130.556 103.391 130.544 103.429 C 130.516 103.517 130.491 104.102 130.73 104.386 C 130.93 104.624 131.431 104.75 131.565 104.741 C 131.63 104.736 131.73 104.717 131.768 104.707 C 131.812 104.695 131.876 104.672 131.907 104.66 C 131.952 104.642 132.016 104.613 132.072 104.587 C 132.174 104.539 132.321 104.465 132.49 104.378 C 132.824 104.206 133.289 103.959 133.812 103.675 C 134.857 103.109 136.167 102.378 137.219 101.757 C 139.016 100.697 141.023 99.521 142.793 99.662 C 143.666 99.64 144.159 100.021 144.664 100.29 C 144.664 100.29 144.832 102.069 144.243 102.991 C 143.687 104.008 143.038 105.357 143.038 105.357 L 142.593 106.281 L 143.511 106.694 C 143.511 106.694 145.355 107.522 147.74 107.647 C 148.91 107.5 149.938 109.198 151.137 110.454 C 152.108 111.408 152.3 111.99 152.518 112.529 L 152.398 112.672 L 152.524 112.841 C 152.259 113.447 152.022 114.128 151.017 115.122 C 149.818 116.378 148.909 117.916 147.74 117.769 C 145.355 117.894 143.51 118.724 143.51 118.724 L 142.593 119.136 L 143.038 120.06 C 143.038 120.06 143.687 121.409 144.243 122.425 C 144.832 123.347 144.683 124.381 144.664 125.126 C 144.159 125.395 143.666 125.777 142.793 125.754 C 141.023 125.897 139.016 124.72 137.219 123.66 C 135.218 122.49 131.001 118.646 131.001 118.646 L 130.703 118.373 L 130.344 118.386 C 130.344 118.386 128.659 118.447 127.822 118.89 C 127.446 119.197 127.207 119.457 127.043 119.697 C 126.794 119.088 126.558 118.462 126.333 117.818 C 126.866 117.545 127.35 117.201 127.743 116.811 C 128.718 115.844 129.385 114.312 129.463 112.824 C 129.455 111.331 128.855 109.783 127.919 108.808 C 126.981 107.831 125.46 107.133 123.983 107.133 C 122.51 107.133 120.975 107.822 119.999 108.79 C 119.025 109.757 118.357 111.289 118.28 112.776 C 118.288 114.269 118.888 115.818 119.824 116.793 C 120.244 117.231 120.782 117.613 121.381 117.902 C 121.162 118.523 120.933 119.128 120.692 119.717 C 120.539 119.478 120.305 119.214 119.92 118.889 Z M 58.374 121.645 L 57.925 121.593 L 57.583 121.938 C 57.583 121.938 55.418 124.124 53.982 125.372 C 52.992 126.239 52.394 126.641 51.717 126.783 C 51.051 126.922 50.643 126.837 49.82 126.484 C 49.723 125.842 49.491 125.02 49.884 124.257 C 50.248 123.365 50.655 122.183 50.655 122.183 L 50.955 121.311 L 50.128 120.95 C 50.128 120.95 48.461 120.222 46.411 120.11 C 45.456 120.24 44.545 118.902 43.398 117.809 C 42.437 116.935 42.169 116.345 41.88 115.817 L 41.961 115.664 L 41.854 115.549 C 41.976 115.096 42.046 114.666 42.74 113.882 C 43.631 112.771 44.223 111.342 45.12 111.537 C 47.173 111.414 48.696 110.676 48.696 110.676 L 49.646 110.216 L 49.096 109.282 C 49.096 109.282 48.403 108.106 47.826 107.22 C 47.229 106.421 47.258 105.609 47.19 104.952 C 47.404 104.834 47.33 104.698 47.971 104.765 C 49.291 104.537 49.864 105.366 51.627 106.391 C 52.583 106.932 53.769 107.571 54.712 108.064 C 55.185 108.312 55.605 108.528 55.905 108.677 C 56.058 108.753 56.191 108.818 56.283 108.86 C 56.333 108.883 56.393 108.909 56.433 108.925 C 56.462 108.936 56.524 108.958 56.566 108.969 C 56.602 108.979 56.702 108.998 56.767 109.002 C 56.908 109.011 57.347 108.779 57.649 108.576 C 57.727 108.167 57.783 107.678 57.749 107.599 C 57.735 107.566 57.71 107.518 57.698 107.498 C 57.684 107.471 57.661 107.433 57.644 107.406 C 57.614 107.359 57.569 107.291 57.518 107.215 C 57.419 107.067 57.274 106.854 57.099 106.599 C 56.748 106.088 56.266 105.389 55.739 104.622 C 54.687 103.087 53.471 101.295 52.791 100.187 C 51.597 98.241 50.246 95.99 50.116 94.002 C 49.982 93.021 50.235 92.584 50.406 92.022 C 51.075 92.012 51.763 91.84 52.627 92.471 C 53.616 93.073 54.917 93.774 54.917 93.774 L 56.043 94.38 L 56.356 93.156 C 56.356 93.156 56.857 91.197 56.653 88.653 C 56.459 87.212 57.039 85.945 57.912 84.797 C 58.6 83.621 59.396 83.641 60.15 83.416 C 60.906 83.635 61.84 83.673 62.914 84.903 C 64.093 86.081 65.024 87.416 65.201 88.896 C 65.61 91.417 66.582 93.353 66.582 93.353 L 67.068 94.32 L 67.997 93.743 C 67.997 93.743 69.134 93.037 69.982 92.431 C 70.645 91.82 71.493 91.993 72.141 92.019 C 72.459 92.581 72.925 93.232 73.045 94.244 C 73.406 96.203 72.611 98.421 71.894 100.364 C 71.488 101.464 70.713 103.249 70.037 104.783 C 69.698 105.55 69.387 106.249 69.161 106.76 C 69.048 107.017 68.954 107.231 68.891 107.38 C 68.858 107.458 68.828 107.529 68.809 107.579 C 68.798 107.609 68.781 107.654 68.771 107.685 C 68.764 107.71 68.747 107.77 68.74 107.81 C 68.722 107.902 68.857 108.338 68.994 108.685 C 69.257 108.834 69.652 109.01 69.789 109.002 C 69.859 108.997 69.966 108.975 70.006 108.964 C 70.053 108.951 70.122 108.925 70.152 108.912 C 70.194 108.893 70.255 108.864 70.302 108.839 C 70.386 108.796 70.508 108.729 70.643 108.652 C 70.909 108.501 71.279 108.284 71.692 108.036 C 72.516 107.541 73.551 106.9 74.378 106.356 C 75.899 105.333 77.425 103.301 78.75 103.546 C 79.464 103.521 79.92 103.855 80.367 104.088 C 80.367 104.088 80.703 105.599 80.309 106.362 C 79.946 107.254 79.539 108.437 79.539 108.437 L 79.239 109.309 L 80.066 109.67 C 80.066 109.67 81.734 110.398 83.783 110.51 C 84.738 110.379 85.769 111.857 86.914 112.952 C 87.818 113.768 88.049 114.264 88.284 114.724 L 88.192 114.856 L 88.339 115.03 C 88.183 115.547 88.088 116.056 87.369 116.877 C 86.478 117.989 85.971 119.279 85.075 119.082 C 83.021 119.205 81.498 119.943 81.498 119.943 L 80.549 120.403 L 81.098 121.337 C 81.098 121.337 81.79 122.514 82.368 123.399 C 82.965 124.198 82.928 124.964 82.999 125.625 C 82.628 125.836 82.422 126.088 81.743 126.047 C 80.29 126.175 78.496 125.153 76.864 124.229 C 74.977 123.159 70.908 120.784 70.908 120.784 L 70.654 120.636 L 70.419 120.648 C 70.419 120.648 68.927 120.727 68.193 121.138 C 67.558 121.76 67.47 122.07 67.389 122.436 C 66.734 121.666 66.171 120.939 65.684 120.243 C 65.969 120.051 66.232 119.837 66.463 119.608 C 67.438 118.641 68.105 117.109 68.183 115.622 C 68.175 114.129 67.575 112.58 66.639 111.605 C 65.701 110.629 64.18 109.931 62.703 109.931 C 61.23 109.931 59.695 110.62 58.719 111.588 C 57.744 112.555 57.077 114.086 56.999 115.574 C 57.007 117.067 57.607 118.615 58.543 119.59 C 58.83 119.889 59.171 120.161 59.549 120.396 C 59.465 120.88 59.374 121.373 59.273 121.871 C 58.998 121.76 58.678 121.68 58.374 121.645 Z M 60.889 145.661 L 60.862 145.681 L 60.835 145.681 C 49.273 146.513 35.892 147.421 24.216 149.012 C 22.565 150.985 22.428 152.785 25.432 154.224 C 36.642 152.697 49.86 151.768 61.43 150.935 C 77.122 150.026 92.943 149.457 108.724 149.301 L 138.992 149.301 C 148.432 149.301 168.368 149.877 186.286 150.956 C 204.122 152.03 222.337 154.224 222.337 154.224 C 225.446 152.637 225.108 150.861 223.418 149.012 C 223.418 149.012 205.035 146.757 186.826 145.661 C 168.7 144.569 148.789 144.006 138.992 144.006 L 108.724 144.006 C 92.756 144.054 76.812 144.807 60.889 145.661 Z M 116.542 24.258 C 116.3 23.829 116.236 23.51 116.093 23.222 C 115.592 23.072 115.217 22.834 114.919 22.452 C 114.624 22.072 114.473 21.69 114.327 21.289 C 113.653 20.828 113.071 20.394 112.685 19.55 C 112.034 19.443 111.814 19.156 111.536 18.757 C 111.262 18.363 111.155 18.051 111.008 17.718 C 111.008 17.718 109.94 17.502 109.408 17.046 C 108.899 16.512 108.696 15.699 108.575 15.307 L 105.62 13.287 L 105.756 12.947 C 105.756 12.947 106.378 11.392 106.998 10.77 C 107.45 10.358 108.17 10.046 108.668 9.848 C 108.942 9.4 109.312 8.852 109.727 8.515 C 109.958 8.345 110.282 8.19 110.608 8.061 L 110.744 8.219 L 110.951 7.936 C 111.062 7.899 111.168 7.865 111.268 7.835 L 110.958 7.927 L 110.961 7.924 C 110.961 7.924 111.948 6.582 112.701 6.142 C 113.207 5.8790000000000004 113.916 5.761 114.441 5.696 C 114.783 5.359 115.488 4.727 116.103 4.475 C 116.693 4.266 117.522 4.265 118.054 4.282 C 118.508 3.996 119.177 3.607 119.756 3.49 C 120.337 3.399 121.087 3.531 121.609 3.643 C 121.628 3.635 121.647 3.627 121.667 3.618 L 121.694 3.14 L 121.792 3.566 C 122.285 3.356 123.037 3.066 123.645 3.066 C 124.253 3.066 125.004 3.3529999999999998 125.497 3.564 L 125.595 3.14 L 125.622 3.617 C 125.642 3.626 125.662 3.634 125.68 3.643 C 126.202 3.5300000000000002 126.952 3.399 127.533 3.49 C 128.112 3.607 128.781 3.996 129.235 4.282 C 129.738 4.257 130.596 4.266 131.186 4.475 C 131.8 4.728 132.461 5.329 132.847 5.696 C 133.372 5.7620000000000005 134.082 5.8790000000000004 134.587 6.142 C 135.341 6.582 136.328 7.924 136.328 7.924 L 136.33 7.927 L 136.021 7.835 C 136.12 7.865 136.226 7.899 136.337 7.936 L 136.545 8.219 L 136.681 8.061 C 137.007 8.19 137.33 8.345 137.561 8.515 C 137.977 8.852 138.346 9.4 138.621 9.848 C 139.119 10.046 139.839 10.358 140.291 10.77 C 140.91 11.392 141.532 12.947 141.532 12.947 L 141.669 13.287 L 138.714 15.307 C 138.593 15.699 138.389 16.512 137.881 17.046 C 137.349 17.502 136.68 17.618 136.281 17.718 C 136.131 18.05 136.027 18.363 135.752 18.757 C 135.475 19.156 135.12 19.402 134.601 19.552 C 134.235 20.558 133.624 20.858 132.961 21.292 C 132.815 21.69 132.665 22.072 132.37 22.452 C 132.072 22.834 131.698 23.074 131.195 23.222 C 131.051 23.51 130.989 23.829 130.747 24.258 C 130.5 24.695 130.178 24.921 129.642 25.053 C 129.645 25.133 129.645 25.206 129.641 25.274 L 129.143 25.534 C 129.214 25.589 129.168 25.53 128.929 25.746 C 128.653 25.996 128.296 26.212 127.756 26.447 C 126.638 26.935 125.215 27.273 123.639 27.27 C 121.393 27.302 119.28 26.779 117.931 24.917 L 117.379 24.156 L 116.736 24.604 C 116.671 24.501 116.614 24.385 116.542 24.258 Z M 131.151 27.692 C 130.663 27.19 131.031 27.432 130.471 27.047 C 130.434 27.081 130.372 27.137 130.27 27.229 C 129.854 27.606 129.218 27.991 128.555 28.281 C 127.267 28.843 125.443 29.248 123.651 29.27 C 121.125 29.264 118.882 28.556 117.039 26.863 C 116.732 27.113 116.644 27.172 116.152 27.677 C 114.137 29.877 112.967 32.388 113.022 35.402 C 112.98 38.488 114.162 41.094 116.142 43.121 C 118.119 45.146 120.643 46.305 123.644 46.305 C 126.645 46.305 129.169 45.146 131.147 43.121 C 133.127 41.094 134.309 38.516 134.267 35.43 C 134.168 32.408 133.272 29.777 131.151 27.692 Z" style="fill: rgba(220, 38, 127, 0.75)"/>
</svg>